%TF.GenerationSoftware,KiCad,Pcbnew,7.0.1-0*%
%TF.CreationDate,2023-06-03T17:14:53+02:00*%
%TF.ProjectId,BatMon,4261744d-6f6e-42e6-9b69-6361645f7063,rev?*%
%TF.SameCoordinates,Original*%
%TF.FileFunction,Copper,L1,Top*%
%TF.FilePolarity,Positive*%
%FSLAX46Y46*%
G04 Gerber Fmt 4.6, Leading zero omitted, Abs format (unit mm)*
G04 Created by KiCad (PCBNEW 7.0.1-0) date 2023-06-03 17:14:53*
%MOMM*%
%LPD*%
G01*
G04 APERTURE LIST*
G04 Aperture macros list*
%AMRoundRect*
0 Rectangle with rounded corners*
0 $1 Rounding radius*
0 $2 $3 $4 $5 $6 $7 $8 $9 X,Y pos of 4 corners*
0 Add a 4 corners polygon primitive as box body*
4,1,4,$2,$3,$4,$5,$6,$7,$8,$9,$2,$3,0*
0 Add four circle primitives for the rounded corners*
1,1,$1+$1,$2,$3*
1,1,$1+$1,$4,$5*
1,1,$1+$1,$6,$7*
1,1,$1+$1,$8,$9*
0 Add four rect primitives between the rounded corners*
20,1,$1+$1,$2,$3,$4,$5,0*
20,1,$1+$1,$4,$5,$6,$7,0*
20,1,$1+$1,$6,$7,$8,$9,0*
20,1,$1+$1,$8,$9,$2,$3,0*%
%AMFreePoly0*
4,1,9,5.362500,-0.866500,1.237500,-0.866500,1.237500,-0.450000,-1.237500,-0.450000,-1.237500,0.450000,1.237500,0.450000,1.237500,0.866500,5.362500,0.866500,5.362500,-0.866500,5.362500,-0.866500,$1*%
G04 Aperture macros list end*
%TA.AperFunction,SMDPad,CuDef*%
%ADD10RoundRect,0.237500X-0.250000X-0.237500X0.250000X-0.237500X0.250000X0.237500X-0.250000X0.237500X0*%
%TD*%
%TA.AperFunction,SMDPad,CuDef*%
%ADD11RoundRect,0.237500X-0.237500X0.250000X-0.237500X-0.250000X0.237500X-0.250000X0.237500X0.250000X0*%
%TD*%
%TA.AperFunction,ComponentPad*%
%ADD12RoundRect,0.400000X3.100000X-0.400000X3.100000X0.400000X-3.100000X0.400000X-3.100000X-0.400000X0*%
%TD*%
%TA.AperFunction,ComponentPad*%
%ADD13RoundRect,0.400000X2.600000X-0.400000X2.600000X0.400000X-2.600000X0.400000X-2.600000X-0.400000X0*%
%TD*%
%TA.AperFunction,SMDPad,CuDef*%
%ADD14R,1.220000X0.650000*%
%TD*%
%TA.AperFunction,SMDPad,CuDef*%
%ADD15RoundRect,0.237500X0.237500X-0.250000X0.237500X0.250000X-0.237500X0.250000X-0.237500X-0.250000X0*%
%TD*%
%TA.AperFunction,SMDPad,CuDef*%
%ADD16RoundRect,0.237500X0.237500X-0.300000X0.237500X0.300000X-0.237500X0.300000X-0.237500X-0.300000X0*%
%TD*%
%TA.AperFunction,SMDPad,CuDef*%
%ADD17R,0.900000X0.900000*%
%TD*%
%TA.AperFunction,HeatsinkPad*%
%ADD18C,0.600000*%
%TD*%
%TA.AperFunction,SMDPad,CuDef*%
%ADD19R,3.800000X3.800000*%
%TD*%
%TA.AperFunction,SMDPad,CuDef*%
%ADD20R,1.500000X0.900000*%
%TD*%
%TA.AperFunction,SMDPad,CuDef*%
%ADD21R,0.900000X1.500000*%
%TD*%
%TA.AperFunction,SMDPad,CuDef*%
%ADD22R,0.700000X0.510000*%
%TD*%
%TA.AperFunction,SMDPad,CuDef*%
%ADD23RoundRect,0.250000X0.425000X-0.537500X0.425000X0.537500X-0.425000X0.537500X-0.425000X-0.537500X0*%
%TD*%
%TA.AperFunction,SMDPad,CuDef*%
%ADD24R,2.300000X0.900000*%
%TD*%
%TA.AperFunction,SMDPad,CuDef*%
%ADD25FreePoly0,0.000000*%
%TD*%
%TA.AperFunction,ComponentPad*%
%ADD26R,1.000000X1.000000*%
%TD*%
%TA.AperFunction,ComponentPad*%
%ADD27O,1.000000X1.000000*%
%TD*%
%TA.AperFunction,SMDPad,CuDef*%
%ADD28R,0.650000X1.220000*%
%TD*%
%TA.AperFunction,ComponentPad*%
%ADD29RoundRect,0.250000X-0.600000X-0.725000X0.600000X-0.725000X0.600000X0.725000X-0.600000X0.725000X0*%
%TD*%
%TA.AperFunction,ComponentPad*%
%ADD30O,1.700000X1.950000*%
%TD*%
%TA.AperFunction,SMDPad,CuDef*%
%ADD31RoundRect,0.237500X-0.237500X0.287500X-0.237500X-0.287500X0.237500X-0.287500X0.237500X0.287500X0*%
%TD*%
%TA.AperFunction,ViaPad*%
%ADD32C,0.800000*%
%TD*%
%TA.AperFunction,Conductor*%
%ADD33C,0.250000*%
%TD*%
%TA.AperFunction,Conductor*%
%ADD34C,0.600000*%
%TD*%
%TA.AperFunction,Conductor*%
%ADD35C,0.500000*%
%TD*%
%TA.AperFunction,Conductor*%
%ADD36C,1.000000*%
%TD*%
G04 APERTURE END LIST*
D10*
X132437500Y-85852000D03*
X134262500Y-85852000D03*
D11*
X121285000Y-68302500D03*
X121285000Y-70127500D03*
D12*
X148500000Y-72650000D03*
X148500000Y-75190000D03*
D13*
X148000000Y-77730000D03*
X148000000Y-80270000D03*
X148000000Y-82810000D03*
X148000000Y-85350000D03*
D14*
X123150000Y-78425000D03*
X123150000Y-80325000D03*
X125770000Y-79375000D03*
D15*
X121285000Y-80287500D03*
X121285000Y-78462500D03*
D16*
X121285000Y-58875000D03*
X121285000Y-57150000D03*
D17*
X131980000Y-66270000D03*
D18*
X131980000Y-65570000D03*
D17*
X131980000Y-64870000D03*
D18*
X131980000Y-64170000D03*
D17*
X131980000Y-63470000D03*
D18*
X131280000Y-66270000D03*
X131280000Y-64870000D03*
X131280000Y-63470000D03*
D17*
X130580000Y-66270000D03*
D19*
X130580000Y-64870000D03*
D17*
X130580000Y-64870000D03*
X130580000Y-63470000D03*
D18*
X130555000Y-65570000D03*
X130555000Y-64170000D03*
X129880000Y-66270000D03*
X129880000Y-64870000D03*
X129880000Y-63470000D03*
D17*
X129180000Y-66270000D03*
D18*
X129180000Y-65570000D03*
D17*
X129180000Y-64870000D03*
D18*
X129180000Y-64170000D03*
D17*
X129180000Y-63470000D03*
D20*
X140830000Y-57150000D03*
X140830000Y-58420000D03*
X140830000Y-59690000D03*
X140830000Y-60960000D03*
X140830000Y-62230000D03*
X140830000Y-63500000D03*
X140830000Y-64770000D03*
X140830000Y-66040000D03*
X140830000Y-67310000D03*
X140830000Y-68580000D03*
X140830000Y-69850000D03*
X140830000Y-71120000D03*
X140830000Y-72390000D03*
X140830000Y-73660000D03*
D21*
X137800000Y-74910000D03*
X136530000Y-74910000D03*
X135260000Y-74910000D03*
X133990000Y-74910000D03*
X132720000Y-74910000D03*
X131450000Y-74910000D03*
X130180000Y-74910000D03*
X128910000Y-74910000D03*
X127640000Y-74910000D03*
X126370000Y-74910000D03*
D20*
X123330000Y-73660000D03*
X123330000Y-72390000D03*
X123330000Y-71120000D03*
X123330000Y-69850000D03*
X123330000Y-68580000D03*
X123330000Y-67310000D03*
X123330000Y-66040000D03*
X123330000Y-64770000D03*
X123330000Y-63500000D03*
X123330000Y-62230000D03*
X123330000Y-60960000D03*
X123330000Y-59690000D03*
X123330000Y-58420000D03*
X123330000Y-57150000D03*
D22*
X130065000Y-80325000D03*
X130065000Y-79375000D03*
X130065000Y-78425000D03*
X127745000Y-78425000D03*
X127745000Y-79375000D03*
X127745000Y-80325000D03*
D23*
X142240000Y-80177500D03*
X142240000Y-77302500D03*
D24*
X135345000Y-77240000D03*
D25*
X135432500Y-78740000D03*
D24*
X135345000Y-80240000D03*
D23*
X132715000Y-80177500D03*
X132715000Y-77302500D03*
D26*
X142875000Y-58420000D03*
D27*
X142875000Y-59690000D03*
X142875000Y-60960000D03*
X142875000Y-62230000D03*
X142875000Y-63500000D03*
X142875000Y-64770000D03*
D22*
X134510000Y-84262000D03*
X134510000Y-83312000D03*
X134510000Y-82362000D03*
X132190000Y-82362000D03*
X132190000Y-83312000D03*
X132190000Y-84262000D03*
D28*
X136210000Y-85130000D03*
X138110000Y-85130000D03*
X137160000Y-82510000D03*
D11*
X121285000Y-74017500D03*
X121285000Y-75842500D03*
D29*
X123230000Y-84455000D03*
D30*
X125730000Y-84455000D03*
X128230000Y-84455000D03*
D31*
X121285000Y-63020000D03*
X121285000Y-64770000D03*
D32*
X127000000Y-63500000D03*
X133985000Y-63500000D03*
X140335000Y-80645000D03*
X130175000Y-86360000D03*
X137160000Y-71755000D03*
X125095000Y-58420000D03*
X128905000Y-76924500D03*
X130810000Y-76835000D03*
X139065000Y-59690000D03*
X142875000Y-74930000D03*
X139065000Y-63500000D03*
X125095000Y-59690000D03*
X134620000Y-73025000D03*
X135255000Y-63500000D03*
X129540000Y-67945000D03*
X126365000Y-73025000D03*
X137795000Y-63500000D03*
X121285000Y-61595000D03*
X140970000Y-75565000D03*
X142875000Y-57150000D03*
X125095000Y-57150000D03*
X140335000Y-81915000D03*
X125095000Y-63500000D03*
X138430000Y-71755000D03*
X126365000Y-80645000D03*
X130810000Y-83820000D03*
D33*
X139700000Y-69850000D02*
X140830000Y-69850000D01*
X135255000Y-63500000D02*
X135255000Y-65405000D01*
X135255000Y-65405000D02*
X139700000Y-69850000D01*
D34*
X142875000Y-57150000D02*
X140830000Y-57150000D01*
D33*
X127000000Y-63500000D02*
X127000000Y-68580000D01*
X127000000Y-68580000D02*
X128905000Y-70485000D01*
X128905000Y-70485000D02*
X133985000Y-70485000D01*
X133985000Y-70485000D02*
X136525000Y-73025000D01*
X136525000Y-73025000D02*
X139065000Y-73025000D01*
X139065000Y-73025000D02*
X139700000Y-73660000D01*
X139700000Y-73660000D02*
X140830000Y-73660000D01*
X129540000Y-67945000D02*
X130175000Y-68580000D01*
X130175000Y-68580000D02*
X137160000Y-68580000D01*
X137160000Y-68580000D02*
X139700000Y-71120000D01*
X139700000Y-71120000D02*
X140830000Y-71120000D01*
D34*
X123330000Y-58420000D02*
X125095000Y-58420000D01*
X123330000Y-58420000D02*
X121740000Y-58420000D01*
X140335000Y-79375000D02*
X140335000Y-80645000D01*
X140802500Y-78740000D02*
X142240000Y-80177500D01*
X135432500Y-78740000D02*
X139700000Y-78740000D01*
X139700000Y-78740000D02*
X140335000Y-79375000D01*
X135432500Y-78740000D02*
X140802500Y-78740000D01*
X121740000Y-58420000D02*
G75*
G03*
X121285000Y-58875000I0J-455000D01*
G01*
D33*
X128905000Y-77265000D02*
X127745000Y-78425000D01*
X126720000Y-78425000D02*
X125770000Y-79375000D01*
X128905000Y-76924500D02*
X128905000Y-77265000D01*
X127745000Y-78425000D02*
X126720000Y-78425000D01*
X130810000Y-76835000D02*
X131445000Y-77470000D01*
X137160000Y-82510000D02*
X137160000Y-82055000D01*
X131445000Y-77470000D02*
X131445000Y-79375000D01*
D34*
X132715000Y-81837000D02*
X132190000Y-82362000D01*
D35*
X132777500Y-80240000D02*
X132715000Y-80177500D01*
D33*
X132247500Y-80177500D02*
X132715000Y-80177500D01*
D34*
X132715000Y-80177500D02*
X132715000Y-81837000D01*
D35*
X135345000Y-80240000D02*
X132777500Y-80240000D01*
D33*
X131445000Y-79375000D02*
X132247500Y-80177500D01*
X137160000Y-82055000D02*
X135345000Y-80240000D01*
D35*
X144145000Y-79375000D02*
X145040000Y-80270000D01*
X139065000Y-59690000D02*
X140830000Y-59690000D01*
X145040000Y-80270000D02*
X146000000Y-80270000D01*
X142875000Y-74930000D02*
X144145000Y-76200000D01*
X144145000Y-76200000D02*
X144145000Y-79375000D01*
X139065000Y-63500000D02*
X140830000Y-63500000D01*
D33*
X123330000Y-59690000D02*
X125095000Y-59690000D01*
X142875000Y-60960000D02*
X140830000Y-60960000D01*
X142875000Y-62230000D02*
X140830000Y-62230000D01*
X125095000Y-72390000D02*
X123330000Y-72390000D01*
X125730000Y-71755000D02*
X125095000Y-72390000D01*
X133350000Y-71755000D02*
X125730000Y-71755000D01*
X134620000Y-73025000D02*
X133350000Y-71755000D01*
X123330000Y-73660000D02*
X121642500Y-73660000D01*
X121642500Y-73660000D02*
X121285000Y-74017500D01*
X134262500Y-85852000D02*
X135488000Y-85852000D01*
X135110000Y-82362000D02*
X136210000Y-83462000D01*
X134510000Y-82362000D02*
X135110000Y-82362000D01*
X136210000Y-83462000D02*
X136210000Y-85130000D01*
X135488000Y-85852000D02*
X136210000Y-85130000D01*
X129540000Y-76200000D02*
X130065000Y-76725000D01*
X125410000Y-78425000D02*
X127635000Y-76200000D01*
X123150000Y-78425000D02*
X121322500Y-78425000D01*
X123150000Y-78425000D02*
X125410000Y-78425000D01*
X121322500Y-78425000D02*
X121285000Y-78462500D01*
X127635000Y-76200000D02*
X129540000Y-76200000D01*
X130065000Y-76725000D02*
X130065000Y-78425000D01*
X123330000Y-69850000D02*
X121562500Y-69850000D01*
X121562500Y-69850000D02*
X121285000Y-70127500D01*
X121285000Y-68302500D02*
X121285000Y-64770000D01*
D34*
X142240000Y-76835000D02*
X140970000Y-75565000D01*
X121285000Y-80645000D02*
X121285000Y-80287500D01*
X121285000Y-57150000D02*
X123330000Y-57150000D01*
X125690000Y-81915000D02*
X122555000Y-81915000D01*
X142177500Y-77240000D02*
X135345000Y-77240000D01*
X121285000Y-63020000D02*
X121285000Y-61595000D01*
X126370000Y-74910000D02*
X126370000Y-73030000D01*
X128230000Y-84455000D02*
X125690000Y-81915000D01*
X121285000Y-75842500D02*
X125437500Y-75842500D01*
X126370000Y-73030000D02*
X126365000Y-73025000D01*
X135345000Y-77240000D02*
X132777500Y-77240000D01*
X142240000Y-77302500D02*
X142177500Y-77240000D01*
X122555000Y-81915000D02*
X121285000Y-80645000D01*
X142240000Y-77302500D02*
X142240000Y-76835000D01*
X125437500Y-75842500D02*
X126370000Y-74910000D01*
X132777500Y-77240000D02*
X132715000Y-77302500D01*
X123330000Y-57150000D02*
X125095000Y-57150000D01*
D36*
X123190000Y-87632449D02*
X123190000Y-84495000D01*
X142240786Y-88264214D02*
X142240000Y-88265000D01*
X140970000Y-89535000D02*
X125092551Y-89535000D01*
X142240786Y-86280573D02*
X142240786Y-88264214D01*
X123190000Y-84495000D02*
X123230000Y-84455000D01*
X146000000Y-85350000D02*
X143250000Y-85350000D01*
X143250000Y-85350018D02*
G75*
G03*
X142240787Y-86280573I1700J-1014382D01*
G01*
X123190000Y-87632449D02*
G75*
G03*
X125092551Y-89535000I1902600J49D01*
G01*
X140970000Y-89535000D02*
G75*
G03*
X142240000Y-88265000I0J1270000D01*
G01*
X126365000Y-87630000D02*
X139700000Y-87630000D01*
X141980000Y-82810000D02*
X146000000Y-82810000D01*
X125730000Y-86995000D02*
X125730000Y-84455000D01*
X140335000Y-86995000D02*
X140335000Y-84455000D01*
X125730000Y-86995000D02*
G75*
G03*
X126365000Y-87630000I635000J0D01*
G01*
X141980000Y-82810000D02*
G75*
G03*
X140335000Y-84455000I0J-1645000D01*
G01*
X139700000Y-87630000D02*
G75*
G03*
X140335000Y-86995000I0J635000D01*
G01*
D34*
X127745000Y-80325000D02*
X126685000Y-80325000D01*
D33*
X129910000Y-80480000D02*
X130065000Y-80325000D01*
D34*
X130065000Y-80325000D02*
X127745000Y-80325000D01*
D33*
X129910000Y-84825000D02*
X129910000Y-80480000D01*
X130937000Y-85852000D02*
X129910000Y-84825000D01*
D34*
X126685000Y-80325000D02*
X126365000Y-80645000D01*
X130065000Y-79375000D02*
X130065000Y-80325000D01*
X127745000Y-79375000D02*
X130065000Y-79375000D01*
D33*
X132437500Y-85852000D02*
X130937000Y-85852000D01*
D34*
X127745000Y-80325000D02*
X127745000Y-79375000D01*
X132190000Y-84262000D02*
X134510000Y-84262000D01*
X132190000Y-83312000D02*
X132190000Y-83820000D01*
X132190000Y-83820000D02*
X132190000Y-84262000D01*
X134510000Y-84262000D02*
X134510000Y-83312000D01*
X134510000Y-83312000D02*
X132190000Y-83312000D01*
X130810000Y-83820000D02*
X132190000Y-83820000D01*
%TA.AperFunction,Conductor*%
G36*
X124597500Y-79067113D02*
G01*
X124642887Y-79112500D01*
X124659500Y-79174500D01*
X124659500Y-79747869D01*
X124665909Y-79807484D01*
X124681766Y-79849999D01*
X124716204Y-79942331D01*
X124802454Y-80057546D01*
X124917669Y-80143796D01*
X125052517Y-80194091D01*
X125112127Y-80200500D01*
X125391914Y-80200499D01*
X125448207Y-80214014D01*
X125492231Y-80251613D01*
X125514386Y-80305100D01*
X125509844Y-80362816D01*
X125479326Y-80456740D01*
X125459540Y-80645000D01*
X125479326Y-80833257D01*
X125537820Y-81013284D01*
X125632466Y-81177216D01*
X125759129Y-81317889D01*
X125912269Y-81429151D01*
X126085197Y-81506144D01*
X126270352Y-81545500D01*
X126270354Y-81545500D01*
X126459646Y-81545500D01*
X126459648Y-81545500D01*
X126601633Y-81515320D01*
X126644803Y-81506144D01*
X126817730Y-81429151D01*
X126858109Y-81399814D01*
X126970870Y-81317889D01*
X126980034Y-81307712D01*
X127053876Y-81225702D01*
X127106254Y-81167531D01*
X127109049Y-81170048D01*
X127136980Y-81142115D01*
X127198983Y-81125500D01*
X127693085Y-81125500D01*
X127706967Y-81126279D01*
X127745000Y-81130565D01*
X127783032Y-81126279D01*
X127796915Y-81125500D01*
X129160500Y-81125500D01*
X129222500Y-81142113D01*
X129267887Y-81187500D01*
X129284500Y-81249500D01*
X129284500Y-83182122D01*
X129266509Y-83246450D01*
X129217757Y-83292111D01*
X129152390Y-83305856D01*
X129089376Y-83283697D01*
X128907576Y-83156399D01*
X128693492Y-83056569D01*
X128480000Y-82999364D01*
X128480000Y-85910635D01*
X128693492Y-85853430D01*
X128907578Y-85753599D01*
X129101078Y-85618109D01*
X129268109Y-85451078D01*
X129341237Y-85346641D01*
X129380812Y-85310377D01*
X129432005Y-85294236D01*
X129485222Y-85301242D01*
X129530493Y-85330083D01*
X129650878Y-85450468D01*
X129679533Y-85495230D01*
X129686815Y-85547878D01*
X129671387Y-85598738D01*
X129636082Y-85638467D01*
X129569129Y-85687110D01*
X129442466Y-85827783D01*
X129347820Y-85991715D01*
X129289326Y-86171742D01*
X129274124Y-86316384D01*
X129269540Y-86360000D01*
X129283470Y-86492541D01*
X129271601Y-86559858D01*
X129225860Y-86610658D01*
X129160150Y-86629500D01*
X126854500Y-86629500D01*
X126792500Y-86612887D01*
X126747113Y-86567500D01*
X126730500Y-86505500D01*
X126730500Y-85540758D01*
X126739939Y-85493305D01*
X126766819Y-85453077D01*
X126766819Y-85453076D01*
X126768495Y-85451401D01*
X126878732Y-85293964D01*
X126923048Y-85255101D01*
X126980305Y-85241090D01*
X127037562Y-85255101D01*
X127081880Y-85293967D01*
X127191890Y-85451078D01*
X127358918Y-85618106D01*
X127552423Y-85753600D01*
X127766507Y-85853430D01*
X127979999Y-85910635D01*
X127980000Y-85910636D01*
X127980000Y-82999364D01*
X127979999Y-82999364D01*
X127766507Y-83056569D01*
X127552421Y-83156400D01*
X127358921Y-83291890D01*
X127191893Y-83458918D01*
X127081880Y-83616033D01*
X127037562Y-83654898D01*
X126980305Y-83668909D01*
X126923048Y-83654898D01*
X126878730Y-83616032D01*
X126877918Y-83614873D01*
X126768495Y-83458599D01*
X126601401Y-83291505D01*
X126407830Y-83155965D01*
X126193663Y-83056097D01*
X126132502Y-83039709D01*
X125965407Y-82994936D01*
X125730000Y-82974340D01*
X125494592Y-82994936D01*
X125266336Y-83056097D01*
X125052170Y-83155965D01*
X124858601Y-83291503D01*
X124711398Y-83438706D01*
X124664428Y-83468151D01*
X124609321Y-83474185D01*
X124557091Y-83455604D01*
X124518178Y-83416120D01*
X124422711Y-83261342D01*
X124298657Y-83137288D01*
X124149334Y-83045186D01*
X123982797Y-82990000D01*
X123880009Y-82979500D01*
X122579991Y-82979500D01*
X122477203Y-82990000D01*
X122310665Y-83045186D01*
X122161342Y-83137288D01*
X122037288Y-83261342D01*
X121945186Y-83410665D01*
X121890000Y-83577202D01*
X121879500Y-83679990D01*
X121879500Y-85230008D01*
X121890000Y-85332796D01*
X121945186Y-85499334D01*
X122037288Y-85648657D01*
X122153181Y-85764550D01*
X122180061Y-85804778D01*
X122189500Y-85852231D01*
X122189500Y-87528574D01*
X122189498Y-87528596D01*
X122189498Y-87539763D01*
X122189498Y-87539765D01*
X122189499Y-87568008D01*
X122189500Y-87630001D01*
X122189500Y-87688333D01*
X122189501Y-87688359D01*
X122189503Y-87795504D01*
X122226017Y-88119506D01*
X122226018Y-88119511D01*
X122291392Y-88405910D01*
X122298580Y-88437398D01*
X122406272Y-88745148D01*
X122547750Y-89038922D01*
X122721224Y-89315001D01*
X122924521Y-89569925D01*
X123142915Y-89788319D01*
X123173165Y-89837682D01*
X123177707Y-89895398D01*
X123155552Y-89948885D01*
X123111529Y-89986485D01*
X123055234Y-90000000D01*
X120624000Y-90000000D01*
X120562000Y-89983387D01*
X120516613Y-89938000D01*
X120500000Y-89876000D01*
X120500000Y-81288481D01*
X120517067Y-81225702D01*
X120563569Y-81180203D01*
X120626705Y-81164511D01*
X120689098Y-81182943D01*
X120733697Y-81210452D01*
X120897348Y-81264681D01*
X120998353Y-81275000D01*
X121035000Y-81275000D01*
X121035000Y-80161500D01*
X121051613Y-80099500D01*
X121097000Y-80054113D01*
X121159000Y-80037500D01*
X121411000Y-80037500D01*
X121473000Y-80054113D01*
X121518387Y-80099500D01*
X121535000Y-80161500D01*
X121535000Y-81274999D01*
X121571647Y-81274999D01*
X121672650Y-81264681D01*
X121836301Y-81210453D01*
X121983040Y-81119943D01*
X122056712Y-81046270D01*
X122106637Y-81015838D01*
X122164957Y-81011667D01*
X122218703Y-81034682D01*
X122297669Y-81093796D01*
X122432517Y-81144091D01*
X122492127Y-81150500D01*
X123807872Y-81150499D01*
X123867483Y-81144091D01*
X124002331Y-81093796D01*
X124117546Y-81007546D01*
X124203796Y-80892331D01*
X124254091Y-80757483D01*
X124260500Y-80697873D01*
X124260499Y-79952128D01*
X124254091Y-79892517D01*
X124203796Y-79757669D01*
X124117546Y-79642454D01*
X124002331Y-79556204D01*
X123867483Y-79505909D01*
X123807873Y-79499500D01*
X123807869Y-79499500D01*
X122492130Y-79499500D01*
X122432515Y-79505909D01*
X122297667Y-79556204D01*
X122261595Y-79583208D01*
X122207848Y-79606223D01*
X122149529Y-79602052D01*
X122099605Y-79571621D01*
X121991018Y-79463034D01*
X121958924Y-79407447D01*
X121958924Y-79343259D01*
X121991018Y-79287672D01*
X122100009Y-79178681D01*
X122149933Y-79148250D01*
X122208253Y-79144079D01*
X122262000Y-79167095D01*
X122297666Y-79193794D01*
X122297669Y-79193796D01*
X122432517Y-79244091D01*
X122492127Y-79250500D01*
X123807872Y-79250499D01*
X123867483Y-79244091D01*
X124002331Y-79193796D01*
X124117546Y-79107546D01*
X124123053Y-79100188D01*
X124166815Y-79063616D01*
X124222320Y-79050500D01*
X124535500Y-79050500D01*
X124597500Y-79067113D01*
G37*
%TD.AperFunction*%
%TA.AperFunction,Conductor*%
G36*
X143577817Y-79888298D02*
G01*
X143627180Y-79918548D01*
X144464269Y-80755637D01*
X144476044Y-80769261D01*
X144490390Y-80788530D01*
X144490391Y-80788531D01*
X144490442Y-80788599D01*
X144510755Y-80830556D01*
X144546002Y-80962103D01*
X144554680Y-80994488D01*
X144640617Y-81163149D01*
X144759743Y-81310257D01*
X144906851Y-81429383D01*
X144907108Y-81429514D01*
X144907779Y-81430134D01*
X144916980Y-81437585D01*
X144916491Y-81438187D01*
X144956539Y-81475204D01*
X144974815Y-81539991D01*
X144956548Y-81604780D01*
X144916492Y-81641812D01*
X144916980Y-81642415D01*
X144907804Y-81649845D01*
X144907120Y-81650478D01*
X144906858Y-81650611D01*
X144891307Y-81663204D01*
X144759743Y-81769743D01*
X144759741Y-81769744D01*
X144749615Y-81777945D01*
X144748397Y-81776442D01*
X144721789Y-81797420D01*
X144668404Y-81809500D01*
X141831429Y-81809500D01*
X141536166Y-81842768D01*
X141347475Y-81885836D01*
X141246478Y-81908888D01*
X141194163Y-81927194D01*
X140966014Y-82007026D01*
X140698306Y-82135948D01*
X140446712Y-82294034D01*
X140214400Y-82479298D01*
X140004298Y-82689400D01*
X139819034Y-82921712D01*
X139660948Y-83173306D01*
X139532026Y-83441014D01*
X139489063Y-83563796D01*
X139433888Y-83721478D01*
X139425959Y-83756216D01*
X139367768Y-84011166D01*
X139334500Y-84306429D01*
X139334500Y-86505500D01*
X139317887Y-86567500D01*
X139272500Y-86612887D01*
X139210500Y-86629500D01*
X135863660Y-86629500D01*
X135803923Y-86614162D01*
X135758964Y-86571944D01*
X135739905Y-86513288D01*
X135751460Y-86452706D01*
X135790772Y-86405184D01*
X135814231Y-86388138D01*
X135827064Y-86378814D01*
X135836830Y-86372400D01*
X135853435Y-86362580D01*
X135874420Y-86350170D01*
X135888585Y-86336004D01*
X135903373Y-86323373D01*
X135919587Y-86311594D01*
X135941205Y-86285460D01*
X135983953Y-86252301D01*
X136036751Y-86240499D01*
X136582870Y-86240499D01*
X136582872Y-86240499D01*
X136642483Y-86234091D01*
X136777331Y-86183796D01*
X136892546Y-86097546D01*
X136978796Y-85982331D01*
X137029091Y-85847483D01*
X137035500Y-85787873D01*
X137035500Y-85787869D01*
X137284500Y-85787869D01*
X137290909Y-85847484D01*
X137316056Y-85914907D01*
X137341204Y-85982331D01*
X137427454Y-86097546D01*
X137542669Y-86183796D01*
X137677517Y-86234091D01*
X137737127Y-86240500D01*
X138482872Y-86240499D01*
X138542483Y-86234091D01*
X138677331Y-86183796D01*
X138792546Y-86097546D01*
X138878796Y-85982331D01*
X138929091Y-85847483D01*
X138935500Y-85787873D01*
X138935499Y-84472128D01*
X138929091Y-84412517D01*
X138878796Y-84277669D01*
X138792546Y-84162454D01*
X138677331Y-84076204D01*
X138542483Y-84025909D01*
X138482873Y-84019500D01*
X138482869Y-84019500D01*
X137737130Y-84019500D01*
X137677515Y-84025909D01*
X137542669Y-84076204D01*
X137427454Y-84162454D01*
X137341204Y-84277668D01*
X137290909Y-84412515D01*
X137290909Y-84412517D01*
X137286143Y-84456851D01*
X137284500Y-84472130D01*
X137284500Y-85787869D01*
X137035500Y-85787869D01*
X137035499Y-84472128D01*
X137029091Y-84412517D01*
X136978796Y-84277669D01*
X136892546Y-84162454D01*
X136885188Y-84156946D01*
X136848616Y-84113185D01*
X136835500Y-84057680D01*
X136835500Y-83744500D01*
X136852113Y-83682500D01*
X136897500Y-83637113D01*
X136959500Y-83620500D01*
X137532855Y-83620499D01*
X137532872Y-83620499D01*
X137592483Y-83614091D01*
X137727331Y-83563796D01*
X137842546Y-83477546D01*
X137928796Y-83362331D01*
X137979091Y-83227483D01*
X137985500Y-83167873D01*
X137985499Y-81852128D01*
X137979091Y-81792517D01*
X137928796Y-81657669D01*
X137842546Y-81542454D01*
X137727331Y-81456204D01*
X137592483Y-81405909D01*
X137532873Y-81399500D01*
X137532869Y-81399500D01*
X137440452Y-81399500D01*
X137392999Y-81390061D01*
X137352771Y-81363181D01*
X136990561Y-81000971D01*
X136964254Y-80962103D01*
X136954277Y-80916241D01*
X136962060Y-80869956D01*
X136989091Y-80797483D01*
X136995500Y-80737873D01*
X136995499Y-80236146D01*
X137012112Y-80174147D01*
X137057499Y-80128760D01*
X137119499Y-80112147D01*
X139390622Y-80112147D01*
X139446917Y-80125662D01*
X139490940Y-80163262D01*
X139513095Y-80216749D01*
X139508553Y-80274465D01*
X139507822Y-80276713D01*
X139507821Y-80276716D01*
X139494481Y-80317772D01*
X139449326Y-80456742D01*
X139429540Y-80645000D01*
X139449326Y-80833257D01*
X139507820Y-81013284D01*
X139602466Y-81177216D01*
X139729129Y-81317889D01*
X139882269Y-81429151D01*
X140055197Y-81506144D01*
X140240352Y-81545500D01*
X140240354Y-81545500D01*
X140429646Y-81545500D01*
X140429648Y-81545500D01*
X140571633Y-81515320D01*
X140614803Y-81506144D01*
X140787730Y-81429151D01*
X140828109Y-81399814D01*
X140940870Y-81317889D01*
X140947743Y-81310256D01*
X141050370Y-81196277D01*
X141106265Y-81160668D01*
X141172517Y-81158933D01*
X141230200Y-81191569D01*
X141346342Y-81307711D01*
X141398150Y-81339666D01*
X141495666Y-81399814D01*
X141587166Y-81430134D01*
X141662202Y-81454999D01*
X141672702Y-81456071D01*
X141764991Y-81465500D01*
X142715008Y-81465499D01*
X142817797Y-81454999D01*
X142984334Y-81399814D01*
X143133656Y-81307712D01*
X143257712Y-81183656D01*
X143349814Y-81034334D01*
X143404999Y-80867797D01*
X143415500Y-80765009D01*
X143415499Y-80006227D01*
X143429014Y-79949934D01*
X143466614Y-79905911D01*
X143520101Y-79883756D01*
X143577817Y-79888298D01*
G37*
%TD.AperFunction*%
%TA.AperFunction,Conductor*%
G36*
X138802001Y-73659939D02*
G01*
X138842229Y-73686819D01*
X139199197Y-74043787D01*
X139212098Y-74059889D01*
X139214212Y-74061874D01*
X139214214Y-74061877D01*
X139261561Y-74106339D01*
X139263240Y-74107916D01*
X139266036Y-74110626D01*
X139285530Y-74130120D01*
X139288704Y-74132582D01*
X139297568Y-74140153D01*
X139329418Y-74170062D01*
X139339914Y-74175832D01*
X139346974Y-74179714D01*
X139363231Y-74190392D01*
X139379064Y-74202674D01*
X139395185Y-74209649D01*
X139419156Y-74220023D01*
X139429643Y-74225160D01*
X139467908Y-74246197D01*
X139487316Y-74251180D01*
X139505710Y-74257478D01*
X139524105Y-74265438D01*
X139537308Y-74267528D01*
X139596402Y-74294007D01*
X139634091Y-74346666D01*
X139636204Y-74352331D01*
X139722454Y-74467546D01*
X139837669Y-74553796D01*
X139972517Y-74604091D01*
X140032127Y-74610500D01*
X141627872Y-74610499D01*
X141687483Y-74604091D01*
X141822331Y-74553796D01*
X141822332Y-74553795D01*
X141839036Y-74547565D01*
X141840113Y-74550452D01*
X141867925Y-74539016D01*
X141929538Y-74546160D01*
X141979983Y-74582249D01*
X142006639Y-74638255D01*
X142002836Y-74700164D01*
X141993679Y-74728348D01*
X141989326Y-74741744D01*
X141969540Y-74930000D01*
X141972950Y-74962446D01*
X141989326Y-75118257D01*
X142047820Y-75298284D01*
X142142466Y-75462216D01*
X142269129Y-75602889D01*
X142422269Y-75714151D01*
X142565047Y-75777721D01*
X142616434Y-75820232D01*
X142638366Y-75883214D01*
X142624500Y-75948449D01*
X142578846Y-75997065D01*
X142514611Y-76015000D01*
X142490000Y-76015000D01*
X142490000Y-78589999D01*
X142714979Y-78589999D01*
X142817695Y-78579506D01*
X142984122Y-78524357D01*
X143133345Y-78432316D01*
X143182819Y-78382843D01*
X143232182Y-78352593D01*
X143289898Y-78348051D01*
X143343385Y-78370206D01*
X143380985Y-78414229D01*
X143394500Y-78470524D01*
X143394500Y-79008769D01*
X143380985Y-79065064D01*
X143343385Y-79109087D01*
X143289898Y-79131242D01*
X143232182Y-79126700D01*
X143182819Y-79096450D01*
X143133657Y-79047288D01*
X142984334Y-78955186D01*
X142817797Y-78900000D01*
X142715009Y-78889500D01*
X142135440Y-78889500D01*
X142087987Y-78880061D01*
X142047759Y-78853181D01*
X141974970Y-78780392D01*
X141942876Y-78724804D01*
X141942876Y-78660617D01*
X141974971Y-78605029D01*
X141990000Y-78590000D01*
X141990000Y-77552500D01*
X141241739Y-77552500D01*
X141186893Y-77539711D01*
X141167258Y-77523596D01*
X141165497Y-77525891D01*
X141047824Y-77435596D01*
X140925871Y-77385083D01*
X140795001Y-77367853D01*
X140795000Y-77367853D01*
X136670000Y-77367853D01*
X136669999Y-77367853D01*
X136539127Y-77385083D01*
X136417177Y-77435596D01*
X136379671Y-77464376D01*
X136344043Y-77483419D01*
X136304185Y-77490000D01*
X133930000Y-77490000D01*
X133903819Y-77516181D01*
X133863591Y-77543061D01*
X133816138Y-77552500D01*
X132965000Y-77552500D01*
X132965000Y-78589999D01*
X133189979Y-78589999D01*
X133292695Y-78579506D01*
X133459122Y-78524357D01*
X133500257Y-78498986D01*
X133562649Y-78480554D01*
X133625785Y-78496248D01*
X133672287Y-78541746D01*
X133689353Y-78604525D01*
X133689353Y-78874888D01*
X133672287Y-78937667D01*
X133625785Y-78983165D01*
X133562649Y-78998859D01*
X133500257Y-78980427D01*
X133459334Y-78955186D01*
X133292797Y-78900000D01*
X133190009Y-78889500D01*
X132239992Y-78889500D01*
X132213750Y-78892181D01*
X132207101Y-78892860D01*
X132139925Y-78880848D01*
X132089278Y-78835111D01*
X132070500Y-78769503D01*
X132070500Y-78709995D01*
X132089278Y-78644387D01*
X132139926Y-78598650D01*
X132207102Y-78586637D01*
X132240021Y-78590000D01*
X132465000Y-78590000D01*
X132465000Y-77176500D01*
X132481613Y-77114500D01*
X132527000Y-77069113D01*
X132589000Y-77052500D01*
X133655000Y-77052500D01*
X141065000Y-77052500D01*
X141990000Y-77052500D01*
X141990000Y-76015001D01*
X141765021Y-76015001D01*
X141662304Y-76025493D01*
X141495877Y-76080642D01*
X141346654Y-76172683D01*
X141222683Y-76296654D01*
X141130642Y-76445877D01*
X141075493Y-76612303D01*
X141065000Y-76715021D01*
X141065000Y-77052500D01*
X133655000Y-77052500D01*
X133681181Y-77026319D01*
X133721409Y-76999439D01*
X133768862Y-76990000D01*
X136995000Y-76990000D01*
X136995000Y-76742176D01*
X136988597Y-76682624D01*
X136938352Y-76547910D01*
X136852188Y-76432811D01*
X136786673Y-76383766D01*
X136748189Y-76336010D01*
X136737300Y-76275653D01*
X136756669Y-76217459D01*
X136801557Y-76175667D01*
X136860983Y-76160499D01*
X137027872Y-76160499D01*
X137087483Y-76154091D01*
X137121665Y-76141341D01*
X137164999Y-76133523D01*
X137208332Y-76141340D01*
X137242517Y-76154091D01*
X137302127Y-76160500D01*
X138297872Y-76160499D01*
X138357483Y-76154091D01*
X138492331Y-76103796D01*
X138607546Y-76017546D01*
X138693796Y-75902331D01*
X138744091Y-75767483D01*
X138750500Y-75707873D01*
X138750499Y-74112128D01*
X138744091Y-74052517D01*
X138693796Y-73917669D01*
X138693795Y-73917667D01*
X138642249Y-73848810D01*
X138618010Y-73785552D01*
X138630632Y-73718995D01*
X138676349Y-73669005D01*
X138741516Y-73650500D01*
X138754548Y-73650500D01*
X138802001Y-73659939D01*
G37*
%TD.AperFunction*%
%TA.AperFunction,Conductor*%
G36*
X133087001Y-72389939D02*
G01*
X133127229Y-72416819D01*
X133681038Y-72970629D01*
X133705277Y-73004926D01*
X133716678Y-73045348D01*
X133734326Y-73213257D01*
X133792820Y-73393284D01*
X133839133Y-73473500D01*
X133855746Y-73535500D01*
X133839133Y-73597500D01*
X133793746Y-73642887D01*
X133731747Y-73659500D01*
X133492130Y-73659500D01*
X133432516Y-73665909D01*
X133398331Y-73678659D01*
X133355000Y-73686476D01*
X133311668Y-73678658D01*
X133277486Y-73665909D01*
X133251935Y-73663162D01*
X133217873Y-73659500D01*
X133217869Y-73659500D01*
X132222130Y-73659500D01*
X132162516Y-73665909D01*
X132128331Y-73678659D01*
X132085000Y-73686476D01*
X132041668Y-73678658D01*
X132007486Y-73665909D01*
X131981935Y-73663162D01*
X131947873Y-73659500D01*
X131947869Y-73659500D01*
X130952130Y-73659500D01*
X130892516Y-73665909D01*
X130858331Y-73678659D01*
X130815000Y-73686476D01*
X130771668Y-73678658D01*
X130737486Y-73665909D01*
X130711935Y-73663162D01*
X130677873Y-73659500D01*
X130677869Y-73659500D01*
X129682130Y-73659500D01*
X129622516Y-73665909D01*
X129588331Y-73678659D01*
X129545000Y-73686476D01*
X129501668Y-73678658D01*
X129467486Y-73665909D01*
X129441935Y-73663162D01*
X129407873Y-73659500D01*
X129407869Y-73659500D01*
X128412130Y-73659500D01*
X128352516Y-73665909D01*
X128318331Y-73678659D01*
X128275000Y-73686476D01*
X128231668Y-73678658D01*
X128197486Y-73665909D01*
X128171935Y-73663162D01*
X128137873Y-73659500D01*
X128137869Y-73659500D01*
X127142130Y-73659500D01*
X127082514Y-73665909D01*
X127047617Y-73678925D01*
X127004284Y-73686743D01*
X126960952Y-73678925D01*
X126927377Y-73666402D01*
X126867824Y-73660000D01*
X126620000Y-73660000D01*
X126620000Y-76161813D01*
X126649617Y-76213110D01*
X126649617Y-76277298D01*
X126617523Y-76332885D01*
X125187228Y-77763181D01*
X125147000Y-77790061D01*
X125099547Y-77799500D01*
X124222320Y-77799500D01*
X124166815Y-77786384D01*
X124123053Y-77749811D01*
X124117546Y-77742454D01*
X124002331Y-77656204D01*
X123867483Y-77605909D01*
X123807873Y-77599500D01*
X123807869Y-77599500D01*
X122492130Y-77599500D01*
X122432515Y-77605909D01*
X122297667Y-77656204D01*
X122219109Y-77715013D01*
X122165362Y-77738029D01*
X122107043Y-77733858D01*
X122057118Y-77703427D01*
X121983352Y-77629661D01*
X121836515Y-77539091D01*
X121672753Y-77484825D01*
X121581044Y-77475457D01*
X121571676Y-77474500D01*
X120998323Y-77474500D01*
X120897247Y-77484825D01*
X120733482Y-77539092D01*
X120689096Y-77566470D01*
X120626704Y-77584902D01*
X120563568Y-77569208D01*
X120517066Y-77523710D01*
X120500000Y-77460931D01*
X120500000Y-76843481D01*
X120517067Y-76780702D01*
X120563569Y-76735203D01*
X120626705Y-76719511D01*
X120689098Y-76737943D01*
X120733697Y-76765452D01*
X120897348Y-76819681D01*
X120998353Y-76830000D01*
X121035000Y-76830000D01*
X121035000Y-76092500D01*
X121535000Y-76092500D01*
X121535000Y-76829999D01*
X121571647Y-76829999D01*
X121672650Y-76819681D01*
X121836301Y-76765453D01*
X121983040Y-76674943D01*
X122104943Y-76553040D01*
X122195453Y-76406301D01*
X122249681Y-76242651D01*
X122260000Y-76141647D01*
X122260000Y-76092500D01*
X121535000Y-76092500D01*
X121035000Y-76092500D01*
X121035000Y-75716500D01*
X121051613Y-75654500D01*
X121097000Y-75609113D01*
X121159000Y-75592500D01*
X122259999Y-75592500D01*
X122259999Y-75543353D01*
X122249681Y-75442349D01*
X122195453Y-75278698D01*
X122122239Y-75160000D01*
X125420000Y-75160000D01*
X125420000Y-75707824D01*
X125426402Y-75767375D01*
X125476647Y-75902089D01*
X125562811Y-76017188D01*
X125677910Y-76103352D01*
X125812624Y-76153597D01*
X125872176Y-76160000D01*
X126120000Y-76160000D01*
X126120000Y-75160000D01*
X125420000Y-75160000D01*
X122122239Y-75160000D01*
X122104943Y-75131959D01*
X121991018Y-75018034D01*
X121958924Y-74962446D01*
X121958924Y-74898259D01*
X121991016Y-74842673D01*
X122105340Y-74728350D01*
X122147498Y-74660000D01*
X125420000Y-74660000D01*
X126120000Y-74660000D01*
X126120000Y-73660000D01*
X125872176Y-73660000D01*
X125812624Y-73666402D01*
X125677910Y-73716647D01*
X125562811Y-73802811D01*
X125476647Y-73917910D01*
X125426402Y-74052624D01*
X125420000Y-74112176D01*
X125420000Y-74660000D01*
X122147498Y-74660000D01*
X122182863Y-74602664D01*
X122222560Y-74562687D01*
X122275852Y-74544400D01*
X122331734Y-74551581D01*
X122337665Y-74553793D01*
X122337669Y-74553796D01*
X122472517Y-74604091D01*
X122532127Y-74610500D01*
X124127872Y-74610499D01*
X124187483Y-74604091D01*
X124322331Y-74553796D01*
X124437546Y-74467546D01*
X124523796Y-74352331D01*
X124574091Y-74217483D01*
X124580500Y-74157873D01*
X124580499Y-73162128D01*
X124579491Y-73152752D01*
X124591245Y-73085318D01*
X124636988Y-73034394D01*
X124702781Y-73015500D01*
X125012256Y-73015500D01*
X125032762Y-73017764D01*
X125035665Y-73017672D01*
X125035667Y-73017673D01*
X125102872Y-73015561D01*
X125106768Y-73015500D01*
X125134349Y-73015500D01*
X125134350Y-73015500D01*
X125138319Y-73014998D01*
X125149965Y-73014080D01*
X125193627Y-73012709D01*
X125212859Y-73007120D01*
X125231918Y-73003174D01*
X125238196Y-73002381D01*
X125251792Y-73000664D01*
X125292407Y-72984582D01*
X125303444Y-72980803D01*
X125345390Y-72968618D01*
X125362629Y-72958422D01*
X125380102Y-72949862D01*
X125398732Y-72942486D01*
X125434064Y-72916814D01*
X125443830Y-72910400D01*
X125481418Y-72888171D01*
X125481417Y-72888171D01*
X125481420Y-72888170D01*
X125495585Y-72874004D01*
X125510374Y-72861372D01*
X125526587Y-72849594D01*
X125554449Y-72815914D01*
X125562279Y-72807310D01*
X125952771Y-72416818D01*
X125992999Y-72389939D01*
X126040452Y-72380500D01*
X133039548Y-72380500D01*
X133087001Y-72389939D01*
G37*
%TD.AperFunction*%
%TA.AperFunction,Conductor*%
G36*
X142283164Y-65578583D02*
G01*
X142316462Y-65605910D01*
X142490273Y-65698814D01*
X142678868Y-65756024D01*
X142875000Y-65775341D01*
X143071132Y-65756024D01*
X143259727Y-65698814D01*
X143317549Y-65667907D01*
X143379043Y-65653303D01*
X143439749Y-65670908D01*
X143483891Y-65716147D01*
X143500000Y-65777266D01*
X143500000Y-71000000D01*
X151376484Y-71030738D01*
X151438279Y-71047512D01*
X151483468Y-71092877D01*
X151500000Y-71154737D01*
X151500000Y-71226000D01*
X151483387Y-71288000D01*
X151438000Y-71333387D01*
X151376000Y-71350000D01*
X148750000Y-71350000D01*
X148750000Y-72776000D01*
X148733387Y-72838000D01*
X148688000Y-72883387D01*
X148626000Y-72900000D01*
X144500000Y-72900000D01*
X144500000Y-73112979D01*
X144506185Y-73191567D01*
X144555149Y-73374306D01*
X144641039Y-73542875D01*
X144760099Y-73689900D01*
X144907125Y-73808961D01*
X144907663Y-73809235D01*
X144909070Y-73810535D01*
X144917254Y-73817163D01*
X144916819Y-73817699D01*
X144957094Y-73854930D01*
X144975366Y-73919717D01*
X144957095Y-73984506D01*
X144916598Y-74021943D01*
X144916980Y-74022415D01*
X144909790Y-74028236D01*
X144907666Y-74030201D01*
X144906854Y-74030614D01*
X144759743Y-74149743D01*
X144640617Y-74296850D01*
X144554679Y-74465513D01*
X144505688Y-74648353D01*
X144505687Y-74648355D01*
X144505688Y-74648355D01*
X144501611Y-74700164D01*
X144499500Y-74726982D01*
X144499500Y-75193770D01*
X144485985Y-75250065D01*
X144448385Y-75294088D01*
X144394898Y-75316243D01*
X144337182Y-75311701D01*
X144287819Y-75281451D01*
X143787771Y-74781403D01*
X143757521Y-74732040D01*
X143702179Y-74561715D01*
X143607533Y-74397783D01*
X143480870Y-74257110D01*
X143327730Y-74145848D01*
X143154802Y-74068855D01*
X142969648Y-74029500D01*
X142969646Y-74029500D01*
X142780354Y-74029500D01*
X142780352Y-74029500D01*
X142595197Y-74068855D01*
X142422269Y-74145848D01*
X142277384Y-74251113D01*
X142214228Y-74274413D01*
X142148204Y-74261280D01*
X142098772Y-74215585D01*
X142080499Y-74150798D01*
X142080499Y-73162128D01*
X142074091Y-73102517D01*
X142061340Y-73068331D01*
X142053523Y-73025000D01*
X142061342Y-72981665D01*
X142066208Y-72968618D01*
X142074091Y-72947483D01*
X142080500Y-72887873D01*
X142080500Y-72400000D01*
X144500000Y-72400000D01*
X148250000Y-72400000D01*
X148250000Y-71350000D01*
X145337021Y-71350000D01*
X145258432Y-71356185D01*
X145075693Y-71405149D01*
X144907124Y-71491039D01*
X144760099Y-71610099D01*
X144641039Y-71757124D01*
X144555149Y-71925693D01*
X144506185Y-72108432D01*
X144500000Y-72187021D01*
X144500000Y-72400000D01*
X142080500Y-72400000D01*
X142080499Y-71892128D01*
X142074091Y-71832517D01*
X142061340Y-71798330D01*
X142053523Y-71755000D01*
X142061342Y-71711665D01*
X142064223Y-71703939D01*
X142074091Y-71677483D01*
X142080500Y-71617873D01*
X142080499Y-70622128D01*
X142074091Y-70562517D01*
X142061340Y-70528331D01*
X142053523Y-70484999D01*
X142061342Y-70441665D01*
X142074090Y-70407485D01*
X142074089Y-70407485D01*
X142074091Y-70407483D01*
X142080500Y-70347873D01*
X142080499Y-69352128D01*
X142074091Y-69292517D01*
X142061340Y-69258331D01*
X142053523Y-69214999D01*
X142061342Y-69171665D01*
X142067517Y-69155108D01*
X142074091Y-69137483D01*
X142080500Y-69077873D01*
X142080499Y-68082128D01*
X142074091Y-68022517D01*
X142061340Y-67988330D01*
X142053523Y-67945000D01*
X142061342Y-67901665D01*
X142074090Y-67867485D01*
X142074089Y-67867485D01*
X142074091Y-67867483D01*
X142080500Y-67807873D01*
X142080499Y-66812128D01*
X142074091Y-66752517D01*
X142061340Y-66718330D01*
X142053523Y-66675000D01*
X142061342Y-66631665D01*
X142074090Y-66597485D01*
X142074089Y-66597485D01*
X142074091Y-66597483D01*
X142080500Y-66537873D01*
X142080499Y-65674435D01*
X142099737Y-65608096D01*
X142151482Y-65562341D01*
X142219678Y-65551369D01*
X142283164Y-65578583D01*
G37*
%TD.AperFunction*%
%TA.AperFunction,Conductor*%
G36*
X139904266Y-56018738D02*
G01*
X139950000Y-56069289D01*
X139962104Y-56136374D01*
X139936919Y-56199720D01*
X139882057Y-56240182D01*
X139837911Y-56256647D01*
X139722811Y-56342811D01*
X139636647Y-56457910D01*
X139586402Y-56592624D01*
X139580000Y-56652176D01*
X139580000Y-56900000D01*
X142080000Y-56900000D01*
X142080000Y-56652176D01*
X142073597Y-56592624D01*
X142023352Y-56457910D01*
X141937188Y-56342811D01*
X141822088Y-56256647D01*
X141777943Y-56240182D01*
X141723081Y-56199720D01*
X141697896Y-56136374D01*
X141710000Y-56069289D01*
X141755734Y-56018738D01*
X141821277Y-56000000D01*
X143376000Y-56000000D01*
X143438000Y-56016613D01*
X143483387Y-56062000D01*
X143500000Y-56124000D01*
X143500000Y-57295500D01*
X143483387Y-57357500D01*
X143438000Y-57402887D01*
X143376000Y-57419500D01*
X142327130Y-57419500D01*
X142267513Y-57425909D01*
X142224474Y-57441962D01*
X142154783Y-57446946D01*
X142093461Y-57413461D01*
X142080000Y-57400000D01*
X139580000Y-57400000D01*
X139580000Y-57647824D01*
X139586402Y-57707377D01*
X139598925Y-57740952D01*
X139606743Y-57784285D01*
X139598925Y-57827617D01*
X139585909Y-57862513D01*
X139579500Y-57922131D01*
X139579500Y-58742406D01*
X139564473Y-58801574D01*
X139523035Y-58846401D01*
X139465229Y-58866024D01*
X139405065Y-58855686D01*
X139344800Y-58828854D01*
X139159648Y-58789500D01*
X139159646Y-58789500D01*
X138970354Y-58789500D01*
X138970352Y-58789500D01*
X138785197Y-58828855D01*
X138612269Y-58905848D01*
X138459129Y-59017110D01*
X138332466Y-59157783D01*
X138237820Y-59321715D01*
X138179326Y-59501742D01*
X138159540Y-59690000D01*
X138179326Y-59878257D01*
X138237820Y-60058284D01*
X138332466Y-60222216D01*
X138459129Y-60362889D01*
X138612269Y-60474151D01*
X138785197Y-60551144D01*
X138970352Y-60590500D01*
X138970354Y-60590500D01*
X139159646Y-60590500D01*
X139159648Y-60590500D01*
X139283084Y-60564262D01*
X139344803Y-60551144D01*
X139383224Y-60534037D01*
X139405064Y-60524314D01*
X139465228Y-60513975D01*
X139523035Y-60533598D01*
X139564473Y-60578425D01*
X139579500Y-60637593D01*
X139579500Y-61457869D01*
X139585909Y-61517485D01*
X139598658Y-61551667D01*
X139606476Y-61594999D01*
X139598659Y-61638330D01*
X139585909Y-61672515D01*
X139579500Y-61732131D01*
X139579500Y-62552406D01*
X139564473Y-62611574D01*
X139523035Y-62656401D01*
X139465229Y-62676024D01*
X139405065Y-62665686D01*
X139344800Y-62638854D01*
X139159648Y-62599500D01*
X139159646Y-62599500D01*
X138970354Y-62599500D01*
X138970352Y-62599500D01*
X138785197Y-62638855D01*
X138612269Y-62715848D01*
X138459129Y-62827110D01*
X138332466Y-62967783D01*
X138237820Y-63131715D01*
X138179326Y-63311742D01*
X138159540Y-63500000D01*
X138179326Y-63688257D01*
X138237820Y-63868284D01*
X138332466Y-64032216D01*
X138459129Y-64172889D01*
X138612269Y-64284151D01*
X138785197Y-64361144D01*
X138970352Y-64400500D01*
X138970354Y-64400500D01*
X139159646Y-64400500D01*
X139159648Y-64400500D01*
X139283084Y-64374262D01*
X139344803Y-64361144D01*
X139383224Y-64344037D01*
X139405064Y-64334314D01*
X139465228Y-64323975D01*
X139523035Y-64343598D01*
X139564473Y-64388425D01*
X139579500Y-64447593D01*
X139579500Y-65267869D01*
X139585909Y-65327485D01*
X139598658Y-65361666D01*
X139606476Y-65404997D01*
X139598659Y-65448328D01*
X139585909Y-65482513D01*
X139579500Y-65542130D01*
X139579500Y-66537869D01*
X139585909Y-66597485D01*
X139598658Y-66631667D01*
X139606476Y-66674999D01*
X139598659Y-66718330D01*
X139585909Y-66752515D01*
X139579500Y-66812130D01*
X139579500Y-67807869D01*
X139585909Y-67867485D01*
X139598658Y-67901667D01*
X139606476Y-67944999D01*
X139598659Y-67988330D01*
X139585909Y-68022515D01*
X139579500Y-68082131D01*
X139579500Y-68545547D01*
X139565985Y-68601842D01*
X139528385Y-68645865D01*
X139474898Y-68668020D01*
X139417182Y-68663478D01*
X139367819Y-68633228D01*
X135916819Y-65182228D01*
X135889939Y-65142000D01*
X135880500Y-65094547D01*
X135880500Y-64198687D01*
X135888736Y-64154249D01*
X135912347Y-64115717D01*
X135987533Y-64032216D01*
X135993634Y-64021650D01*
X136082179Y-63868284D01*
X136090984Y-63841186D01*
X136140674Y-63688256D01*
X136160460Y-63500000D01*
X136140674Y-63311744D01*
X136110332Y-63218363D01*
X136082179Y-63131715D01*
X135987533Y-62967783D01*
X135860870Y-62827110D01*
X135707730Y-62715848D01*
X135534802Y-62638855D01*
X135349648Y-62599500D01*
X135349646Y-62599500D01*
X135160354Y-62599500D01*
X135160352Y-62599500D01*
X134975197Y-62638855D01*
X134802269Y-62715848D01*
X134692885Y-62795321D01*
X134645781Y-62816293D01*
X134594219Y-62816293D01*
X134547115Y-62795321D01*
X134437730Y-62715848D01*
X134264802Y-62638855D01*
X134079648Y-62599500D01*
X134079646Y-62599500D01*
X133890354Y-62599500D01*
X133890352Y-62599500D01*
X133705197Y-62638855D01*
X133532269Y-62715848D01*
X133379129Y-62827110D01*
X133252466Y-62967783D01*
X133211387Y-63038936D01*
X133166000Y-63084323D01*
X133104000Y-63100936D01*
X133042000Y-63084323D01*
X132996613Y-63038936D01*
X132980000Y-62976936D01*
X132980000Y-62922176D01*
X132973597Y-62862624D01*
X132923352Y-62727910D01*
X132837188Y-62612811D01*
X132722089Y-62526647D01*
X132587375Y-62476402D01*
X132527824Y-62470000D01*
X130830000Y-62470000D01*
X130830000Y-63220000D01*
X131176447Y-63220000D01*
X131176447Y-63219999D01*
X131192319Y-63204128D01*
X131247906Y-63172034D01*
X131312094Y-63172034D01*
X131367681Y-63204128D01*
X131383553Y-63220000D01*
X132106000Y-63220000D01*
X132168000Y-63236613D01*
X132213387Y-63282000D01*
X132230000Y-63344000D01*
X132230000Y-64066447D01*
X132245872Y-64082319D01*
X132277966Y-64137906D01*
X132277966Y-64202094D01*
X132245872Y-64257681D01*
X132230000Y-64273552D01*
X132230000Y-64620000D01*
X132980000Y-64620000D01*
X132980000Y-64023064D01*
X132996613Y-63961064D01*
X133042000Y-63915677D01*
X133104000Y-63899064D01*
X133166000Y-63915677D01*
X133211387Y-63961064D01*
X133252466Y-64032216D01*
X133379129Y-64172889D01*
X133532269Y-64284151D01*
X133705197Y-64361144D01*
X133890352Y-64400500D01*
X133890354Y-64400500D01*
X134079646Y-64400500D01*
X134079648Y-64400500D01*
X134203084Y-64374262D01*
X134264803Y-64361144D01*
X134349588Y-64323395D01*
X134449636Y-64278851D01*
X134450683Y-64281203D01*
X134495767Y-64264569D01*
X134561793Y-64277700D01*
X134611227Y-64323395D01*
X134629500Y-64388186D01*
X134629500Y-65322256D01*
X134627235Y-65342762D01*
X134629439Y-65412873D01*
X134629500Y-65416768D01*
X134629500Y-65444349D01*
X134630003Y-65448334D01*
X134630918Y-65459967D01*
X134632290Y-65503626D01*
X134637879Y-65522860D01*
X134641825Y-65541916D01*
X134644335Y-65561792D01*
X134660414Y-65602404D01*
X134664197Y-65613451D01*
X134676382Y-65655391D01*
X134686580Y-65672635D01*
X134695136Y-65690100D01*
X134702514Y-65708732D01*
X134702515Y-65708733D01*
X134728180Y-65744059D01*
X134734593Y-65753822D01*
X134756826Y-65791416D01*
X134756829Y-65791419D01*
X134756830Y-65791420D01*
X134770995Y-65805585D01*
X134783627Y-65820375D01*
X134795406Y-65836587D01*
X134829058Y-65864426D01*
X134837699Y-65872289D01*
X136708229Y-67742819D01*
X136738479Y-67792182D01*
X136743021Y-67849898D01*
X136720866Y-67903385D01*
X136676843Y-67940985D01*
X136620548Y-67954500D01*
X130558109Y-67954500D01*
X130499895Y-67939986D01*
X130455308Y-67899840D01*
X130434788Y-67843462D01*
X130425674Y-67756744D01*
X130395332Y-67663363D01*
X130367179Y-67576715D01*
X130288879Y-67441095D01*
X130272738Y-67389902D01*
X130279744Y-67336684D01*
X130308586Y-67291413D01*
X130329999Y-67270000D01*
X130830000Y-67270000D01*
X132527824Y-67270000D01*
X132587375Y-67263597D01*
X132722089Y-67213352D01*
X132837188Y-67127188D01*
X132923352Y-67012089D01*
X132973597Y-66877375D01*
X132980000Y-66817824D01*
X132980000Y-65120000D01*
X132230000Y-65120000D01*
X132230000Y-65466447D01*
X132245872Y-65482319D01*
X132277966Y-65537906D01*
X132277966Y-65602094D01*
X132245872Y-65657681D01*
X132230000Y-65673552D01*
X132230000Y-66396000D01*
X132213387Y-66458000D01*
X132168000Y-66503387D01*
X132106000Y-66520000D01*
X131383552Y-66520000D01*
X131367681Y-66535872D01*
X131312094Y-66567966D01*
X131247906Y-66567966D01*
X131192319Y-66535872D01*
X131176447Y-66520000D01*
X130830000Y-66520000D01*
X130830000Y-67270000D01*
X130329999Y-67270000D01*
X130330000Y-67269999D01*
X130330000Y-66520000D01*
X129983552Y-66520000D01*
X129967681Y-66535872D01*
X129912094Y-66567966D01*
X129847906Y-66567966D01*
X129792319Y-66535872D01*
X129776447Y-66520000D01*
X129054000Y-66520000D01*
X128992000Y-66503387D01*
X128946613Y-66458000D01*
X128930000Y-66396000D01*
X128930000Y-65673554D01*
X128929999Y-65673552D01*
X128914128Y-65657681D01*
X128882034Y-65602094D01*
X128882034Y-65570000D01*
X129533553Y-65570000D01*
X129867500Y-65903947D01*
X130201447Y-65570000D01*
X130933553Y-65570000D01*
X131280000Y-65916447D01*
X131626447Y-65570000D01*
X131280000Y-65223553D01*
X130933553Y-65570000D01*
X130201447Y-65570000D01*
X129867500Y-65236053D01*
X129533553Y-65570000D01*
X128882034Y-65570000D01*
X128882034Y-65537906D01*
X128914128Y-65482319D01*
X128929999Y-65466447D01*
X128930000Y-65466447D01*
X128930000Y-65120000D01*
X128180000Y-65120000D01*
X128180000Y-66817824D01*
X128186402Y-66877375D01*
X128236647Y-67012089D01*
X128322811Y-67127188D01*
X128437910Y-67213352D01*
X128572624Y-67263597D01*
X128632176Y-67270000D01*
X128675129Y-67270000D01*
X128737129Y-67286613D01*
X128782516Y-67332000D01*
X128799129Y-67394000D01*
X128782516Y-67456000D01*
X128712820Y-67576715D01*
X128654326Y-67756742D01*
X128639094Y-67901667D01*
X128634540Y-67945000D01*
X128640670Y-68003323D01*
X128654326Y-68133257D01*
X128712820Y-68313284D01*
X128807466Y-68477216D01*
X128934129Y-68617889D01*
X129087269Y-68729151D01*
X129260197Y-68806144D01*
X129445352Y-68845500D01*
X129445354Y-68845500D01*
X129504548Y-68845500D01*
X129552001Y-68854939D01*
X129592229Y-68881819D01*
X129674197Y-68963787D01*
X129687098Y-68979889D01*
X129689212Y-68981874D01*
X129689214Y-68981877D01*
X129703588Y-68995375D01*
X129738240Y-69027916D01*
X129741035Y-69030625D01*
X129760530Y-69050120D01*
X129763704Y-69052582D01*
X129772568Y-69060153D01*
X129804418Y-69090062D01*
X129814914Y-69095832D01*
X129821974Y-69099714D01*
X129838231Y-69110392D01*
X129854064Y-69122674D01*
X129870185Y-69129649D01*
X129894156Y-69140023D01*
X129904643Y-69145160D01*
X129942908Y-69166197D01*
X129962316Y-69171180D01*
X129980710Y-69177478D01*
X129999105Y-69185438D01*
X130042254Y-69192271D01*
X130053680Y-69194638D01*
X130069222Y-69198629D01*
X130095980Y-69205500D01*
X130095981Y-69205500D01*
X130116016Y-69205500D01*
X130135413Y-69207026D01*
X130155196Y-69210160D01*
X130198674Y-69206050D01*
X130210344Y-69205500D01*
X136849548Y-69205500D01*
X136897001Y-69214939D01*
X136937229Y-69241819D01*
X139199196Y-71503787D01*
X139212096Y-71519888D01*
X139263223Y-71567900D01*
X139266020Y-71570611D01*
X139285529Y-71590120D01*
X139288711Y-71592588D01*
X139297571Y-71600155D01*
X139316434Y-71617869D01*
X139329418Y-71630062D01*
X139346970Y-71639711D01*
X139363238Y-71650397D01*
X139379064Y-71662673D01*
X139419146Y-71680017D01*
X139429633Y-71685155D01*
X139467907Y-71706197D01*
X139476410Y-71708379D01*
X139487308Y-71711178D01*
X139505733Y-71717487D01*
X139507515Y-71718258D01*
X139510376Y-71719497D01*
X139552754Y-71749759D01*
X139578970Y-71794753D01*
X139584400Y-71846543D01*
X139579500Y-71892128D01*
X139579500Y-72379355D01*
X139560716Y-72444972D01*
X139510054Y-72490710D01*
X139442864Y-72502710D01*
X139401373Y-72486095D01*
X139400312Y-72488548D01*
X139345851Y-72464980D01*
X139335361Y-72459841D01*
X139297091Y-72438802D01*
X139277691Y-72433821D01*
X139259284Y-72427519D01*
X139240897Y-72419562D01*
X139197758Y-72412729D01*
X139186324Y-72410361D01*
X139144019Y-72399500D01*
X139123984Y-72399500D01*
X139104586Y-72397973D01*
X139097162Y-72396797D01*
X139084805Y-72394840D01*
X139084804Y-72394840D01*
X139051751Y-72397964D01*
X139041325Y-72398950D01*
X139029656Y-72399500D01*
X138042480Y-72399500D01*
X137980480Y-72382887D01*
X137935093Y-72337500D01*
X137918480Y-72275500D01*
X137935093Y-72213500D01*
X137987179Y-72123284D01*
X138027074Y-72000500D01*
X138045674Y-71943256D01*
X138065460Y-71755000D01*
X138045674Y-71566744D01*
X138015332Y-71473363D01*
X137987179Y-71386715D01*
X137892533Y-71222783D01*
X137765870Y-71082110D01*
X137612730Y-70970848D01*
X137439802Y-70893855D01*
X137254648Y-70854500D01*
X137254646Y-70854500D01*
X137065354Y-70854500D01*
X137065352Y-70854500D01*
X136880197Y-70893855D01*
X136707269Y-70970848D01*
X136554129Y-71082110D01*
X136427466Y-71222783D01*
X136332820Y-71386715D01*
X136274326Y-71566742D01*
X136273465Y-71574933D01*
X136270781Y-71600472D01*
X136244840Y-71664276D01*
X136188853Y-71704396D01*
X136120095Y-71708450D01*
X136059780Y-71675189D01*
X134485802Y-70101211D01*
X134472906Y-70085113D01*
X134421775Y-70037098D01*
X134418978Y-70034387D01*
X134399470Y-70014879D01*
X134396290Y-70012412D01*
X134387424Y-70004839D01*
X134355582Y-69974938D01*
X134338024Y-69965285D01*
X134321764Y-69954604D01*
X134305936Y-69942327D01*
X134265851Y-69924980D01*
X134255361Y-69919841D01*
X134217091Y-69898802D01*
X134197691Y-69893821D01*
X134179284Y-69887519D01*
X134160897Y-69879562D01*
X134117758Y-69872729D01*
X134106324Y-69870361D01*
X134064019Y-69859500D01*
X134043984Y-69859500D01*
X134024586Y-69857973D01*
X134017162Y-69856797D01*
X134004805Y-69854840D01*
X134004804Y-69854840D01*
X133971751Y-69857964D01*
X133961325Y-69858950D01*
X133949656Y-69859500D01*
X129215452Y-69859500D01*
X129167999Y-69850061D01*
X129127771Y-69823181D01*
X127661819Y-68357228D01*
X127634939Y-68317000D01*
X127625500Y-68269547D01*
X127625500Y-64620000D01*
X128180000Y-64620000D01*
X128930000Y-64620000D01*
X128930000Y-64273554D01*
X128929999Y-64273552D01*
X128914128Y-64257681D01*
X128882034Y-64202094D01*
X128882034Y-64170000D01*
X129533553Y-64170000D01*
X129867500Y-64503947D01*
X130201447Y-64170000D01*
X130933553Y-64170000D01*
X131280000Y-64516447D01*
X131626447Y-64170000D01*
X131280000Y-63823553D01*
X130933553Y-64170000D01*
X130201447Y-64170000D01*
X129867500Y-63836053D01*
X129533553Y-64170000D01*
X128882034Y-64170000D01*
X128882034Y-64137906D01*
X128914128Y-64082319D01*
X128929999Y-64066447D01*
X128930000Y-64066447D01*
X128930000Y-63344000D01*
X128946613Y-63282000D01*
X128992000Y-63236613D01*
X129054000Y-63220000D01*
X129776447Y-63220000D01*
X129776447Y-63219999D01*
X129792319Y-63204128D01*
X129847906Y-63172034D01*
X129912094Y-63172034D01*
X129967681Y-63204128D01*
X129983553Y-63220000D01*
X130330000Y-63220000D01*
X130330000Y-62470000D01*
X128632176Y-62470000D01*
X128572624Y-62476402D01*
X128437910Y-62526647D01*
X128322811Y-62612811D01*
X128236647Y-62727910D01*
X128186402Y-62862624D01*
X128180000Y-62922176D01*
X128180000Y-64620000D01*
X127625500Y-64620000D01*
X127625500Y-64198687D01*
X127633736Y-64154249D01*
X127657347Y-64115717D01*
X127732533Y-64032216D01*
X127738634Y-64021650D01*
X127827179Y-63868284D01*
X127835984Y-63841186D01*
X127885674Y-63688256D01*
X127905460Y-63500000D01*
X127885674Y-63311744D01*
X127855332Y-63218363D01*
X127827179Y-63131715D01*
X127732533Y-62967783D01*
X127605870Y-62827110D01*
X127452730Y-62715848D01*
X127279802Y-62638855D01*
X127094648Y-62599500D01*
X127094646Y-62599500D01*
X126905354Y-62599500D01*
X126905352Y-62599500D01*
X126720197Y-62638855D01*
X126547269Y-62715848D01*
X126394129Y-62827110D01*
X126267466Y-62967783D01*
X126172820Y-63131715D01*
X126114326Y-63311742D01*
X126094540Y-63499999D01*
X126114326Y-63688257D01*
X126172820Y-63868284D01*
X126267464Y-64032213D01*
X126267467Y-64032216D01*
X126342652Y-64115717D01*
X126366264Y-64154249D01*
X126374500Y-64198687D01*
X126374500Y-68497256D01*
X126372235Y-68517762D01*
X126374439Y-68587873D01*
X126374500Y-68591768D01*
X126374500Y-68619349D01*
X126375003Y-68623334D01*
X126375918Y-68634967D01*
X126377290Y-68678626D01*
X126382879Y-68697860D01*
X126386825Y-68716916D01*
X126389335Y-68736792D01*
X126405414Y-68777404D01*
X126409197Y-68788451D01*
X126421382Y-68830391D01*
X126431580Y-68847635D01*
X126440136Y-68865100D01*
X126447514Y-68883732D01*
X126447515Y-68883733D01*
X126473180Y-68919059D01*
X126479593Y-68928822D01*
X126501826Y-68966416D01*
X126501829Y-68966419D01*
X126501830Y-68966420D01*
X126515995Y-68980585D01*
X126528627Y-68995375D01*
X126540406Y-69011587D01*
X126573771Y-69039189D01*
X126574058Y-69039426D01*
X126582699Y-69047289D01*
X128404196Y-70868787D01*
X128417096Y-70884888D01*
X128449277Y-70915108D01*
X128481324Y-70964230D01*
X128487210Y-71022586D01*
X128465619Y-71077119D01*
X128421381Y-71115629D01*
X128364393Y-71129500D01*
X125812744Y-71129500D01*
X125792236Y-71127235D01*
X125722113Y-71129439D01*
X125718219Y-71129500D01*
X125690650Y-71129500D01*
X125686671Y-71130002D01*
X125675041Y-71130917D01*
X125631372Y-71132289D01*
X125612128Y-71137880D01*
X125593084Y-71141824D01*
X125573208Y-71144335D01*
X125532600Y-71160413D01*
X125521554Y-71164194D01*
X125479610Y-71176382D01*
X125479607Y-71176383D01*
X125462365Y-71186579D01*
X125444904Y-71195133D01*
X125426267Y-71202512D01*
X125390931Y-71228185D01*
X125381174Y-71234595D01*
X125343580Y-71256829D01*
X125329413Y-71270996D01*
X125314624Y-71283626D01*
X125298413Y-71295404D01*
X125270572Y-71329058D01*
X125262711Y-71337697D01*
X124872228Y-71728181D01*
X124832000Y-71755061D01*
X124784547Y-71764500D01*
X124702782Y-71764500D01*
X124636989Y-71745606D01*
X124591245Y-71694681D01*
X124579492Y-71627245D01*
X124580500Y-71617873D01*
X124580499Y-70622128D01*
X124574091Y-70562517D01*
X124561340Y-70528331D01*
X124553523Y-70484999D01*
X124561342Y-70441665D01*
X124574090Y-70407485D01*
X124574089Y-70407485D01*
X124574091Y-70407483D01*
X124580500Y-70347873D01*
X124580499Y-69352128D01*
X124574091Y-69292517D01*
X124561340Y-69258331D01*
X124553523Y-69214999D01*
X124561342Y-69171665D01*
X124567517Y-69155108D01*
X124574091Y-69137483D01*
X124580500Y-69077873D01*
X124580499Y-68082128D01*
X124574091Y-68022517D01*
X124561340Y-67988330D01*
X124553523Y-67945000D01*
X124561342Y-67901665D01*
X124574090Y-67867485D01*
X124574089Y-67867485D01*
X124574091Y-67867483D01*
X124580500Y-67807873D01*
X124580499Y-66812128D01*
X124574091Y-66752517D01*
X124561340Y-66718330D01*
X124553523Y-66675000D01*
X124561342Y-66631665D01*
X124574090Y-66597485D01*
X124574089Y-66597485D01*
X124574091Y-66597483D01*
X124580500Y-66537873D01*
X124580499Y-65542128D01*
X124574091Y-65482517D01*
X124561340Y-65448331D01*
X124553523Y-65404999D01*
X124561342Y-65361665D01*
X124570934Y-65335946D01*
X124574091Y-65327483D01*
X124580500Y-65267873D01*
X124580499Y-64272128D01*
X124574091Y-64212517D01*
X124561340Y-64178331D01*
X124553523Y-64135000D01*
X124561342Y-64091665D01*
X124564828Y-64082319D01*
X124574091Y-64057483D01*
X124580500Y-63997873D01*
X124580499Y-63002128D01*
X124574091Y-62942517D01*
X124561340Y-62908331D01*
X124553523Y-62865000D01*
X124561342Y-62821665D01*
X124564223Y-62813939D01*
X124574091Y-62787483D01*
X124580500Y-62727873D01*
X124580499Y-61732128D01*
X124574091Y-61672517D01*
X124561340Y-61638330D01*
X124553523Y-61595000D01*
X124561342Y-61551665D01*
X124564223Y-61543939D01*
X124574091Y-61517483D01*
X124580500Y-61457873D01*
X124580499Y-60637592D01*
X124595526Y-60578425D01*
X124636964Y-60533598D01*
X124694770Y-60513975D01*
X124754935Y-60524314D01*
X124815197Y-60551144D01*
X125000352Y-60590500D01*
X125000354Y-60590500D01*
X125189646Y-60590500D01*
X125189648Y-60590500D01*
X125313084Y-60564262D01*
X125374803Y-60551144D01*
X125547730Y-60474151D01*
X125647778Y-60401462D01*
X125700870Y-60362889D01*
X125734987Y-60324999D01*
X125827533Y-60222216D01*
X125922179Y-60058284D01*
X125980674Y-59878256D01*
X126000460Y-59690000D01*
X125980674Y-59501744D01*
X125950332Y-59408363D01*
X125922179Y-59321715D01*
X125827533Y-59157783D01*
X125809694Y-59137971D01*
X125781527Y-59084996D01*
X125781528Y-59024998D01*
X125809696Y-58972025D01*
X125827533Y-58952216D01*
X125922179Y-58788284D01*
X125980674Y-58608256D01*
X126000460Y-58420000D01*
X125980674Y-58231744D01*
X125922179Y-58051716D01*
X125922179Y-58051715D01*
X125827533Y-57887783D01*
X125700870Y-57747110D01*
X125547730Y-57635848D01*
X125374802Y-57558855D01*
X125189648Y-57519500D01*
X125189646Y-57519500D01*
X125000354Y-57519500D01*
X125000352Y-57519500D01*
X124815199Y-57558854D01*
X124775285Y-57576626D01*
X124754434Y-57585909D01*
X124694272Y-57596248D01*
X124636465Y-57576626D01*
X124595027Y-57531798D01*
X124580000Y-57472630D01*
X124580000Y-57400000D01*
X121159000Y-57400000D01*
X121097000Y-57383387D01*
X121051613Y-57338000D01*
X121035000Y-57276000D01*
X121035000Y-57024000D01*
X121051613Y-56962000D01*
X121097000Y-56916613D01*
X121159000Y-56900000D01*
X124580000Y-56900000D01*
X124580000Y-56652176D01*
X124573597Y-56592624D01*
X124523352Y-56457910D01*
X124437188Y-56342811D01*
X124322088Y-56256647D01*
X124277943Y-56240182D01*
X124223081Y-56199720D01*
X124197896Y-56136374D01*
X124210000Y-56069289D01*
X124255734Y-56018738D01*
X124321277Y-56000000D01*
X139838723Y-56000000D01*
X139904266Y-56018738D01*
G37*
%TD.AperFunction*%
%TA.AperFunction,Conductor*%
G36*
X122015931Y-59812430D02*
G01*
X122062433Y-59857928D01*
X122079500Y-59920708D01*
X122079500Y-60187869D01*
X122085909Y-60247485D01*
X122098658Y-60281666D01*
X122106476Y-60324997D01*
X122098659Y-60368328D01*
X122085909Y-60402513D01*
X122079500Y-60462130D01*
X122079500Y-61457869D01*
X122085909Y-61517485D01*
X122098658Y-61551667D01*
X122106476Y-61594999D01*
X122098659Y-61638330D01*
X122085909Y-61672515D01*
X122079500Y-61732131D01*
X122079500Y-61987378D01*
X122062433Y-62050157D01*
X122015932Y-62095655D01*
X121952795Y-62111348D01*
X121890403Y-62092917D01*
X121836301Y-62059546D01*
X121672651Y-62005318D01*
X121571647Y-61995000D01*
X121535000Y-61995000D01*
X121535000Y-63146000D01*
X121518387Y-63208000D01*
X121473000Y-63253387D01*
X121411000Y-63270000D01*
X121159000Y-63270000D01*
X121097000Y-63253387D01*
X121051613Y-63208000D01*
X121035000Y-63146000D01*
X121035000Y-61995001D01*
X120998353Y-61995001D01*
X120897349Y-62005318D01*
X120733697Y-62059547D01*
X120689098Y-62087057D01*
X120626705Y-62105489D01*
X120563569Y-62089797D01*
X120517067Y-62044298D01*
X120500000Y-61981519D01*
X120500000Y-59926569D01*
X120517066Y-59863790D01*
X120563568Y-59818292D01*
X120626704Y-59802598D01*
X120689096Y-59821030D01*
X120733482Y-59848407D01*
X120733484Y-59848408D01*
X120779904Y-59863790D01*
X120897246Y-59902674D01*
X120906614Y-59903631D01*
X120998323Y-59913000D01*
X121571676Y-59912999D01*
X121672753Y-59902674D01*
X121836516Y-59848408D01*
X121890404Y-59815169D01*
X121952794Y-59796738D01*
X122015931Y-59812430D01*
G37*
%TD.AperFunction*%
M02*
