M48
; DRILL file {KiCad 7.0.1-0} date 2023 June 03, Saturday 17:15:15
; FORMAT={-:-/ absolute / metric / decimal}
; #@! TF.CreationDate,2023-06-03T17:15:15+02:00
; #@! TF.GenerationSoftware,Kicad,Pcbnew,7.0.1-0
; #@! TF.FileFunction,Plated,1,4,PTH
FMAT,2
METRIC
; #@! TA.AperFunction,Plated,PTH,ComponentDrill
T1C0.200
; #@! TA.AperFunction,Plated,PTH,ViaDrill
T2C0.400
; #@! TA.AperFunction,Plated,PTH,ComponentDrill
T3C0.600
; #@! TA.AperFunction,Plated,PTH,ComponentDrill
T4C0.650
; #@! TA.AperFunction,Plated,PTH,ComponentDrill
T5C0.950
%
G90
G05
T1
X129.18Y-64.17
X129.18Y-65.57
X129.88Y-63.47
X129.88Y-64.87
X129.88Y-66.27
X130.555Y-64.17
X130.555Y-65.57
X131.28Y-63.47
X131.28Y-64.87
X131.28Y-66.27
X131.98Y-64.17
X131.98Y-65.57
T2
X121.285Y-61.595
X125.095Y-57.15
X125.095Y-58.42
X125.095Y-59.69
X125.095Y-63.5
X126.365Y-73.025
X126.365Y-80.645
X127.0Y-63.5
X128.905Y-76.924
X129.54Y-67.945
X130.175Y-86.36
X130.81Y-76.835
X130.81Y-83.82
X133.985Y-63.5
X134.62Y-73.025
X135.255Y-63.5
X137.16Y-71.755
X137.795Y-63.5
X138.43Y-71.755
X139.065Y-59.69
X139.065Y-63.5
X140.335Y-80.645
X140.335Y-81.915
X140.97Y-75.565
X142.875Y-57.15
X142.875Y-74.93
T3
X146.0Y-72.65
X146.0Y-75.19
X146.0Y-77.73
X146.0Y-80.27
X146.0Y-82.81
X146.0Y-85.35
T4
X142.875Y-58.42
X142.875Y-59.69
X142.875Y-60.96
X142.875Y-62.23
X142.875Y-63.5
X142.875Y-64.77
T5
X123.23Y-84.455
X125.73Y-84.455
X128.23Y-84.455
T0
M30
