%TF.GenerationSoftware,KiCad,Pcbnew,7.0.1-0*%
%TF.CreationDate,2023-06-03T17:15:16+02:00*%
%TF.ProjectId,BatMon,4261744d-6f6e-42e6-9b69-6361645f7063,rev?*%
%TF.SameCoordinates,Original*%
%TF.FileFunction,Drillmap*%
%TF.FilePolarity,Positive*%
%FSLAX45Y45*%
G04 Gerber Fmt 4.5, Leading zero omitted, Abs format (unit mm)*
G04 Created by KiCad (PCBNEW 7.0.1-0) date 2023-06-03 17:15:16*
%MOMM*%
%LPD*%
G01*
G04 APERTURE LIST*
%ADD10C,0.100000*%
%ADD11C,0.200000*%
%ADD12C,0.020000*%
%ADD13C,0.040000*%
%ADD14C,0.060000*%
%ADD15C,0.065000*%
%ADD16C,0.095000*%
G04 APERTURE END LIST*
D10*
X14400000Y-5700000D02*
G75*
G03*
X14250000Y-5550000I-150000J0D01*
G01*
X14400000Y-8900000D02*
X14400000Y-8750000D01*
X12000000Y-8900000D02*
G75*
G03*
X12150000Y-9050000I150000J0D01*
G01*
X12150000Y-5550000D02*
G75*
G03*
X12000000Y-5700000I0J-150000D01*
G01*
X12150000Y-9050000D02*
X14250000Y-9050000D01*
X14250000Y-9050000D02*
G75*
G03*
X14400000Y-8900000I0J150000D01*
G01*
X14250000Y-5550000D02*
X12150000Y-5550000D01*
X14400000Y-7050000D02*
X14400000Y-5700000D01*
X12000000Y-5700000D02*
X12000000Y-8900000D01*
D11*
D12*
X12908000Y-6407000D02*
X12928000Y-6427000D01*
X12928000Y-6407000D02*
X12908000Y-6427000D01*
X12908000Y-6547000D02*
X12928000Y-6567000D01*
X12928000Y-6547000D02*
X12908000Y-6567000D01*
X12978000Y-6337000D02*
X12998000Y-6357000D01*
X12998000Y-6337000D02*
X12978000Y-6357000D01*
X12978000Y-6477000D02*
X12998000Y-6497000D01*
X12998000Y-6477000D02*
X12978000Y-6497000D01*
X12978000Y-6617000D02*
X12998000Y-6637000D01*
X12998000Y-6617000D02*
X12978000Y-6637000D01*
X13045500Y-6407000D02*
X13065500Y-6427000D01*
X13065500Y-6407000D02*
X13045500Y-6427000D01*
X13045500Y-6547000D02*
X13065500Y-6567000D01*
X13065500Y-6547000D02*
X13045500Y-6567000D01*
X13118000Y-6337000D02*
X13138000Y-6357000D01*
X13138000Y-6337000D02*
X13118000Y-6357000D01*
X13118000Y-6477000D02*
X13138000Y-6497000D01*
X13138000Y-6477000D02*
X13118000Y-6497000D01*
X13118000Y-6617000D02*
X13138000Y-6637000D01*
X13138000Y-6617000D02*
X13118000Y-6637000D01*
X13188000Y-6407000D02*
X13208000Y-6427000D01*
X13208000Y-6407000D02*
X13188000Y-6427000D01*
X13188000Y-6547000D02*
X13208000Y-6567000D01*
X13208000Y-6547000D02*
X13188000Y-6567000D01*
D13*
X12148500Y-6159500D02*
G75*
G03*
X12148500Y-6159500I-20000J0D01*
G01*
X12529500Y-5715000D02*
G75*
G03*
X12529500Y-5715000I-20000J0D01*
G01*
X12529500Y-5842000D02*
G75*
G03*
X12529500Y-5842000I-20000J0D01*
G01*
X12529500Y-5969000D02*
G75*
G03*
X12529500Y-5969000I-20000J0D01*
G01*
X12529500Y-6350000D02*
G75*
G03*
X12529500Y-6350000I-20000J0D01*
G01*
X12656500Y-7302500D02*
G75*
G03*
X12656500Y-7302500I-20000J0D01*
G01*
X12656500Y-8064500D02*
G75*
G03*
X12656500Y-8064500I-20000J0D01*
G01*
X12720000Y-6350000D02*
G75*
G03*
X12720000Y-6350000I-20000J0D01*
G01*
X12910500Y-7692450D02*
G75*
G03*
X12910500Y-7692450I-20000J0D01*
G01*
X12974000Y-6794500D02*
G75*
G03*
X12974000Y-6794500I-20000J0D01*
G01*
X13037500Y-8636000D02*
G75*
G03*
X13037500Y-8636000I-20000J0D01*
G01*
X13101000Y-7683500D02*
G75*
G03*
X13101000Y-7683500I-20000J0D01*
G01*
X13101000Y-8382000D02*
G75*
G03*
X13101000Y-8382000I-20000J0D01*
G01*
X13418500Y-6350000D02*
G75*
G03*
X13418500Y-6350000I-20000J0D01*
G01*
X13482000Y-7302500D02*
G75*
G03*
X13482000Y-7302500I-20000J0D01*
G01*
X13545500Y-6350000D02*
G75*
G03*
X13545500Y-6350000I-20000J0D01*
G01*
X13736000Y-7175500D02*
G75*
G03*
X13736000Y-7175500I-20000J0D01*
G01*
X13799500Y-6350000D02*
G75*
G03*
X13799500Y-6350000I-20000J0D01*
G01*
X13863000Y-7175500D02*
G75*
G03*
X13863000Y-7175500I-20000J0D01*
G01*
X13926500Y-5969000D02*
G75*
G03*
X13926500Y-5969000I-20000J0D01*
G01*
X13926500Y-6350000D02*
G75*
G03*
X13926500Y-6350000I-20000J0D01*
G01*
X14053500Y-8064500D02*
G75*
G03*
X14053500Y-8064500I-20000J0D01*
G01*
X14053500Y-8191500D02*
G75*
G03*
X14053500Y-8191500I-20000J0D01*
G01*
X14117000Y-7556500D02*
G75*
G03*
X14117000Y-7556500I-20000J0D01*
G01*
X14307500Y-5715000D02*
G75*
G03*
X14307500Y-5715000I-20000J0D01*
G01*
X14307500Y-7493000D02*
G75*
G03*
X14307500Y-7493000I-20000J0D01*
G01*
D14*
X14600000Y-7235000D02*
X14600000Y-7295000D01*
X14570000Y-7265000D02*
X14630000Y-7265000D01*
X14600000Y-7489000D02*
X14600000Y-7549000D01*
X14570000Y-7519000D02*
X14630000Y-7519000D01*
X14600000Y-7743000D02*
X14600000Y-7803000D01*
X14570000Y-7773000D02*
X14630000Y-7773000D01*
X14600000Y-7997000D02*
X14600000Y-8057000D01*
X14570000Y-8027000D02*
X14630000Y-8027000D01*
X14600000Y-8251000D02*
X14600000Y-8311000D01*
X14570000Y-8281000D02*
X14630000Y-8281000D01*
X14600000Y-8505000D02*
X14600000Y-8565000D01*
X14570000Y-8535000D02*
X14630000Y-8535000D01*
D15*
X14310481Y-5864981D02*
X14310481Y-5819019D01*
X14264519Y-5819019D01*
X14264519Y-5864981D01*
X14310481Y-5864981D01*
X14310481Y-5991981D02*
X14310481Y-5946019D01*
X14264519Y-5946019D01*
X14264519Y-5991981D01*
X14310481Y-5991981D01*
X14310481Y-6118981D02*
X14310481Y-6073019D01*
X14264519Y-6073019D01*
X14264519Y-6118981D01*
X14310481Y-6118981D01*
X14310481Y-6245981D02*
X14310481Y-6200019D01*
X14264519Y-6200019D01*
X14264519Y-6245981D01*
X14310481Y-6245981D01*
X14310481Y-6372981D02*
X14310481Y-6327019D01*
X14264519Y-6327019D01*
X14264519Y-6372981D01*
X14310481Y-6372981D01*
X14310481Y-6499981D02*
X14310481Y-6454019D01*
X14264519Y-6454019D01*
X14264519Y-6499981D01*
X14310481Y-6499981D01*
D16*
X12323000Y-8493000D02*
X12370500Y-8445500D01*
X12323000Y-8398000D01*
X12275500Y-8445500D01*
X12323000Y-8493000D01*
X12573000Y-8493000D02*
X12620500Y-8445500D01*
X12573000Y-8398000D01*
X12525500Y-8445500D01*
X12573000Y-8493000D01*
X12823000Y-8493000D02*
X12870500Y-8445500D01*
X12823000Y-8398000D01*
X12775500Y-8445500D01*
X12823000Y-8493000D01*
D11*
X12242619Y-9367524D02*
X12242619Y-9167524D01*
X12242619Y-9167524D02*
X12290238Y-9167524D01*
X12290238Y-9167524D02*
X12318809Y-9177048D01*
X12318809Y-9177048D02*
X12337857Y-9196095D01*
X12337857Y-9196095D02*
X12347381Y-9215143D01*
X12347381Y-9215143D02*
X12356905Y-9253238D01*
X12356905Y-9253238D02*
X12356905Y-9281810D01*
X12356905Y-9281810D02*
X12347381Y-9319905D01*
X12347381Y-9319905D02*
X12337857Y-9338952D01*
X12337857Y-9338952D02*
X12318809Y-9358000D01*
X12318809Y-9358000D02*
X12290238Y-9367524D01*
X12290238Y-9367524D02*
X12242619Y-9367524D01*
X12442619Y-9367524D02*
X12442619Y-9234190D01*
X12442619Y-9272286D02*
X12452143Y-9253238D01*
X12452143Y-9253238D02*
X12461667Y-9243714D01*
X12461667Y-9243714D02*
X12480714Y-9234190D01*
X12480714Y-9234190D02*
X12499762Y-9234190D01*
X12566428Y-9367524D02*
X12566428Y-9234190D01*
X12566428Y-9167524D02*
X12556905Y-9177048D01*
X12556905Y-9177048D02*
X12566428Y-9186571D01*
X12566428Y-9186571D02*
X12575952Y-9177048D01*
X12575952Y-9177048D02*
X12566428Y-9167524D01*
X12566428Y-9167524D02*
X12566428Y-9186571D01*
X12690238Y-9367524D02*
X12671190Y-9358000D01*
X12671190Y-9358000D02*
X12661667Y-9338952D01*
X12661667Y-9338952D02*
X12661667Y-9167524D01*
X12795000Y-9367524D02*
X12775952Y-9358000D01*
X12775952Y-9358000D02*
X12766428Y-9338952D01*
X12766428Y-9338952D02*
X12766428Y-9167524D01*
X13023571Y-9367524D02*
X13023571Y-9167524D01*
X13023571Y-9167524D02*
X13090238Y-9310381D01*
X13090238Y-9310381D02*
X13156905Y-9167524D01*
X13156905Y-9167524D02*
X13156905Y-9367524D01*
X13337857Y-9367524D02*
X13337857Y-9262762D01*
X13337857Y-9262762D02*
X13328333Y-9243714D01*
X13328333Y-9243714D02*
X13309286Y-9234190D01*
X13309286Y-9234190D02*
X13271190Y-9234190D01*
X13271190Y-9234190D02*
X13252143Y-9243714D01*
X13337857Y-9358000D02*
X13318809Y-9367524D01*
X13318809Y-9367524D02*
X13271190Y-9367524D01*
X13271190Y-9367524D02*
X13252143Y-9358000D01*
X13252143Y-9358000D02*
X13242619Y-9338952D01*
X13242619Y-9338952D02*
X13242619Y-9319905D01*
X13242619Y-9319905D02*
X13252143Y-9300857D01*
X13252143Y-9300857D02*
X13271190Y-9291333D01*
X13271190Y-9291333D02*
X13318809Y-9291333D01*
X13318809Y-9291333D02*
X13337857Y-9281810D01*
X13433095Y-9234190D02*
X13433095Y-9434190D01*
X13433095Y-9243714D02*
X13452143Y-9234190D01*
X13452143Y-9234190D02*
X13490238Y-9234190D01*
X13490238Y-9234190D02*
X13509286Y-9243714D01*
X13509286Y-9243714D02*
X13518809Y-9253238D01*
X13518809Y-9253238D02*
X13528333Y-9272286D01*
X13528333Y-9272286D02*
X13528333Y-9329429D01*
X13528333Y-9329429D02*
X13518809Y-9348476D01*
X13518809Y-9348476D02*
X13509286Y-9358000D01*
X13509286Y-9358000D02*
X13490238Y-9367524D01*
X13490238Y-9367524D02*
X13452143Y-9367524D01*
X13452143Y-9367524D02*
X13433095Y-9358000D01*
X13614048Y-9348476D02*
X13623571Y-9358000D01*
X13623571Y-9358000D02*
X13614048Y-9367524D01*
X13614048Y-9367524D02*
X13604524Y-9358000D01*
X13604524Y-9358000D02*
X13614048Y-9348476D01*
X13614048Y-9348476D02*
X13614048Y-9367524D01*
X13614048Y-9243714D02*
X13623571Y-9253238D01*
X13623571Y-9253238D02*
X13614048Y-9262762D01*
X13614048Y-9262762D02*
X13604524Y-9253238D01*
X13604524Y-9253238D02*
X13614048Y-9243714D01*
X13614048Y-9243714D02*
X13614048Y-9262762D01*
D12*
X11975000Y-9685000D02*
X11995000Y-9705000D01*
X11995000Y-9685000D02*
X11975000Y-9705000D01*
D11*
X12280714Y-9587524D02*
X12299762Y-9587524D01*
X12299762Y-9587524D02*
X12318809Y-9597048D01*
X12318809Y-9597048D02*
X12328333Y-9606571D01*
X12328333Y-9606571D02*
X12337857Y-9625619D01*
X12337857Y-9625619D02*
X12347381Y-9663714D01*
X12347381Y-9663714D02*
X12347381Y-9711333D01*
X12347381Y-9711333D02*
X12337857Y-9749429D01*
X12337857Y-9749429D02*
X12328333Y-9768476D01*
X12328333Y-9768476D02*
X12318809Y-9778000D01*
X12318809Y-9778000D02*
X12299762Y-9787524D01*
X12299762Y-9787524D02*
X12280714Y-9787524D01*
X12280714Y-9787524D02*
X12261667Y-9778000D01*
X12261667Y-9778000D02*
X12252143Y-9768476D01*
X12252143Y-9768476D02*
X12242619Y-9749429D01*
X12242619Y-9749429D02*
X12233095Y-9711333D01*
X12233095Y-9711333D02*
X12233095Y-9663714D01*
X12233095Y-9663714D02*
X12242619Y-9625619D01*
X12242619Y-9625619D02*
X12252143Y-9606571D01*
X12252143Y-9606571D02*
X12261667Y-9597048D01*
X12261667Y-9597048D02*
X12280714Y-9587524D01*
X12433095Y-9768476D02*
X12442619Y-9778000D01*
X12442619Y-9778000D02*
X12433095Y-9787524D01*
X12433095Y-9787524D02*
X12423571Y-9778000D01*
X12423571Y-9778000D02*
X12433095Y-9768476D01*
X12433095Y-9768476D02*
X12433095Y-9787524D01*
X12518809Y-9606571D02*
X12528333Y-9597048D01*
X12528333Y-9597048D02*
X12547381Y-9587524D01*
X12547381Y-9587524D02*
X12595000Y-9587524D01*
X12595000Y-9587524D02*
X12614048Y-9597048D01*
X12614048Y-9597048D02*
X12623571Y-9606571D01*
X12623571Y-9606571D02*
X12633095Y-9625619D01*
X12633095Y-9625619D02*
X12633095Y-9644667D01*
X12633095Y-9644667D02*
X12623571Y-9673238D01*
X12623571Y-9673238D02*
X12509286Y-9787524D01*
X12509286Y-9787524D02*
X12633095Y-9787524D01*
X12756905Y-9587524D02*
X12775952Y-9587524D01*
X12775952Y-9587524D02*
X12795000Y-9597048D01*
X12795000Y-9597048D02*
X12804524Y-9606571D01*
X12804524Y-9606571D02*
X12814048Y-9625619D01*
X12814048Y-9625619D02*
X12823571Y-9663714D01*
X12823571Y-9663714D02*
X12823571Y-9711333D01*
X12823571Y-9711333D02*
X12814048Y-9749429D01*
X12814048Y-9749429D02*
X12804524Y-9768476D01*
X12804524Y-9768476D02*
X12795000Y-9778000D01*
X12795000Y-9778000D02*
X12775952Y-9787524D01*
X12775952Y-9787524D02*
X12756905Y-9787524D01*
X12756905Y-9787524D02*
X12737857Y-9778000D01*
X12737857Y-9778000D02*
X12728333Y-9768476D01*
X12728333Y-9768476D02*
X12718809Y-9749429D01*
X12718809Y-9749429D02*
X12709286Y-9711333D01*
X12709286Y-9711333D02*
X12709286Y-9663714D01*
X12709286Y-9663714D02*
X12718809Y-9625619D01*
X12718809Y-9625619D02*
X12728333Y-9606571D01*
X12728333Y-9606571D02*
X12737857Y-9597048D01*
X12737857Y-9597048D02*
X12756905Y-9587524D01*
X12947381Y-9587524D02*
X12966429Y-9587524D01*
X12966429Y-9587524D02*
X12985476Y-9597048D01*
X12985476Y-9597048D02*
X12995000Y-9606571D01*
X12995000Y-9606571D02*
X13004524Y-9625619D01*
X13004524Y-9625619D02*
X13014048Y-9663714D01*
X13014048Y-9663714D02*
X13014048Y-9711333D01*
X13014048Y-9711333D02*
X13004524Y-9749429D01*
X13004524Y-9749429D02*
X12995000Y-9768476D01*
X12995000Y-9768476D02*
X12985476Y-9778000D01*
X12985476Y-9778000D02*
X12966429Y-9787524D01*
X12966429Y-9787524D02*
X12947381Y-9787524D01*
X12947381Y-9787524D02*
X12928333Y-9778000D01*
X12928333Y-9778000D02*
X12918809Y-9768476D01*
X12918809Y-9768476D02*
X12909286Y-9749429D01*
X12909286Y-9749429D02*
X12899762Y-9711333D01*
X12899762Y-9711333D02*
X12899762Y-9663714D01*
X12899762Y-9663714D02*
X12909286Y-9625619D01*
X12909286Y-9625619D02*
X12918809Y-9606571D01*
X12918809Y-9606571D02*
X12928333Y-9597048D01*
X12928333Y-9597048D02*
X12947381Y-9587524D01*
X13099762Y-9787524D02*
X13099762Y-9654190D01*
X13099762Y-9673238D02*
X13109286Y-9663714D01*
X13109286Y-9663714D02*
X13128333Y-9654190D01*
X13128333Y-9654190D02*
X13156905Y-9654190D01*
X13156905Y-9654190D02*
X13175952Y-9663714D01*
X13175952Y-9663714D02*
X13185476Y-9682762D01*
X13185476Y-9682762D02*
X13185476Y-9787524D01*
X13185476Y-9682762D02*
X13195000Y-9663714D01*
X13195000Y-9663714D02*
X13214048Y-9654190D01*
X13214048Y-9654190D02*
X13242619Y-9654190D01*
X13242619Y-9654190D02*
X13261667Y-9663714D01*
X13261667Y-9663714D02*
X13271190Y-9682762D01*
X13271190Y-9682762D02*
X13271190Y-9787524D01*
X13366429Y-9787524D02*
X13366429Y-9654190D01*
X13366429Y-9673238D02*
X13375952Y-9663714D01*
X13375952Y-9663714D02*
X13395000Y-9654190D01*
X13395000Y-9654190D02*
X13423571Y-9654190D01*
X13423571Y-9654190D02*
X13442619Y-9663714D01*
X13442619Y-9663714D02*
X13452143Y-9682762D01*
X13452143Y-9682762D02*
X13452143Y-9787524D01*
X13452143Y-9682762D02*
X13461667Y-9663714D01*
X13461667Y-9663714D02*
X13480714Y-9654190D01*
X13480714Y-9654190D02*
X13509286Y-9654190D01*
X13509286Y-9654190D02*
X13528333Y-9663714D01*
X13528333Y-9663714D02*
X13537857Y-9682762D01*
X13537857Y-9682762D02*
X13537857Y-9787524D01*
X13928333Y-9578000D02*
X13756905Y-9835143D01*
X14185476Y-9587524D02*
X14204524Y-9587524D01*
X14204524Y-9587524D02*
X14223572Y-9597048D01*
X14223572Y-9597048D02*
X14233095Y-9606571D01*
X14233095Y-9606571D02*
X14242619Y-9625619D01*
X14242619Y-9625619D02*
X14252143Y-9663714D01*
X14252143Y-9663714D02*
X14252143Y-9711333D01*
X14252143Y-9711333D02*
X14242619Y-9749429D01*
X14242619Y-9749429D02*
X14233095Y-9768476D01*
X14233095Y-9768476D02*
X14223572Y-9778000D01*
X14223572Y-9778000D02*
X14204524Y-9787524D01*
X14204524Y-9787524D02*
X14185476Y-9787524D01*
X14185476Y-9787524D02*
X14166429Y-9778000D01*
X14166429Y-9778000D02*
X14156905Y-9768476D01*
X14156905Y-9768476D02*
X14147381Y-9749429D01*
X14147381Y-9749429D02*
X14137857Y-9711333D01*
X14137857Y-9711333D02*
X14137857Y-9663714D01*
X14137857Y-9663714D02*
X14147381Y-9625619D01*
X14147381Y-9625619D02*
X14156905Y-9606571D01*
X14156905Y-9606571D02*
X14166429Y-9597048D01*
X14166429Y-9597048D02*
X14185476Y-9587524D01*
X14337857Y-9768476D02*
X14347381Y-9778000D01*
X14347381Y-9778000D02*
X14337857Y-9787524D01*
X14337857Y-9787524D02*
X14328333Y-9778000D01*
X14328333Y-9778000D02*
X14337857Y-9768476D01*
X14337857Y-9768476D02*
X14337857Y-9787524D01*
X14471191Y-9587524D02*
X14490238Y-9587524D01*
X14490238Y-9587524D02*
X14509286Y-9597048D01*
X14509286Y-9597048D02*
X14518810Y-9606571D01*
X14518810Y-9606571D02*
X14528333Y-9625619D01*
X14528333Y-9625619D02*
X14537857Y-9663714D01*
X14537857Y-9663714D02*
X14537857Y-9711333D01*
X14537857Y-9711333D02*
X14528333Y-9749429D01*
X14528333Y-9749429D02*
X14518810Y-9768476D01*
X14518810Y-9768476D02*
X14509286Y-9778000D01*
X14509286Y-9778000D02*
X14490238Y-9787524D01*
X14490238Y-9787524D02*
X14471191Y-9787524D01*
X14471191Y-9787524D02*
X14452143Y-9778000D01*
X14452143Y-9778000D02*
X14442619Y-9768476D01*
X14442619Y-9768476D02*
X14433095Y-9749429D01*
X14433095Y-9749429D02*
X14423572Y-9711333D01*
X14423572Y-9711333D02*
X14423572Y-9663714D01*
X14423572Y-9663714D02*
X14433095Y-9625619D01*
X14433095Y-9625619D02*
X14442619Y-9606571D01*
X14442619Y-9606571D02*
X14452143Y-9597048D01*
X14452143Y-9597048D02*
X14471191Y-9587524D01*
X14661667Y-9587524D02*
X14680714Y-9587524D01*
X14680714Y-9587524D02*
X14699762Y-9597048D01*
X14699762Y-9597048D02*
X14709286Y-9606571D01*
X14709286Y-9606571D02*
X14718810Y-9625619D01*
X14718810Y-9625619D02*
X14728333Y-9663714D01*
X14728333Y-9663714D02*
X14728333Y-9711333D01*
X14728333Y-9711333D02*
X14718810Y-9749429D01*
X14718810Y-9749429D02*
X14709286Y-9768476D01*
X14709286Y-9768476D02*
X14699762Y-9778000D01*
X14699762Y-9778000D02*
X14680714Y-9787524D01*
X14680714Y-9787524D02*
X14661667Y-9787524D01*
X14661667Y-9787524D02*
X14642619Y-9778000D01*
X14642619Y-9778000D02*
X14633095Y-9768476D01*
X14633095Y-9768476D02*
X14623572Y-9749429D01*
X14623572Y-9749429D02*
X14614048Y-9711333D01*
X14614048Y-9711333D02*
X14614048Y-9663714D01*
X14614048Y-9663714D02*
X14623572Y-9625619D01*
X14623572Y-9625619D02*
X14633095Y-9606571D01*
X14633095Y-9606571D02*
X14642619Y-9597048D01*
X14642619Y-9597048D02*
X14661667Y-9587524D01*
X14795000Y-9587524D02*
X14928333Y-9587524D01*
X14928333Y-9587524D02*
X14842619Y-9787524D01*
X15014048Y-9787524D02*
X15052143Y-9787524D01*
X15052143Y-9787524D02*
X15071191Y-9778000D01*
X15071191Y-9778000D02*
X15080714Y-9768476D01*
X15080714Y-9768476D02*
X15099762Y-9739905D01*
X15099762Y-9739905D02*
X15109286Y-9701810D01*
X15109286Y-9701810D02*
X15109286Y-9625619D01*
X15109286Y-9625619D02*
X15099762Y-9606571D01*
X15099762Y-9606571D02*
X15090238Y-9597048D01*
X15090238Y-9597048D02*
X15071191Y-9587524D01*
X15071191Y-9587524D02*
X15033095Y-9587524D01*
X15033095Y-9587524D02*
X15014048Y-9597048D01*
X15014048Y-9597048D02*
X15004524Y-9606571D01*
X15004524Y-9606571D02*
X14995000Y-9625619D01*
X14995000Y-9625619D02*
X14995000Y-9673238D01*
X14995000Y-9673238D02*
X15004524Y-9692286D01*
X15004524Y-9692286D02*
X15014048Y-9701810D01*
X15014048Y-9701810D02*
X15033095Y-9711333D01*
X15033095Y-9711333D02*
X15071191Y-9711333D01*
X15071191Y-9711333D02*
X15090238Y-9701810D01*
X15090238Y-9701810D02*
X15099762Y-9692286D01*
X15099762Y-9692286D02*
X15109286Y-9673238D01*
X15185476Y-9587524D02*
X15185476Y-9625619D01*
X15261667Y-9587524D02*
X15261667Y-9625619D01*
X15556905Y-9863714D02*
X15547381Y-9854190D01*
X15547381Y-9854190D02*
X15528334Y-9825619D01*
X15528334Y-9825619D02*
X15518810Y-9806571D01*
X15518810Y-9806571D02*
X15509286Y-9778000D01*
X15509286Y-9778000D02*
X15499762Y-9730381D01*
X15499762Y-9730381D02*
X15499762Y-9692286D01*
X15499762Y-9692286D02*
X15509286Y-9644667D01*
X15509286Y-9644667D02*
X15518810Y-9616095D01*
X15518810Y-9616095D02*
X15528334Y-9597048D01*
X15528334Y-9597048D02*
X15547381Y-9568476D01*
X15547381Y-9568476D02*
X15556905Y-9558952D01*
X15737857Y-9787524D02*
X15623572Y-9787524D01*
X15680714Y-9787524D02*
X15680714Y-9587524D01*
X15680714Y-9587524D02*
X15661667Y-9616095D01*
X15661667Y-9616095D02*
X15642619Y-9635143D01*
X15642619Y-9635143D02*
X15623572Y-9644667D01*
X15814048Y-9606571D02*
X15823572Y-9597048D01*
X15823572Y-9597048D02*
X15842619Y-9587524D01*
X15842619Y-9587524D02*
X15890238Y-9587524D01*
X15890238Y-9587524D02*
X15909286Y-9597048D01*
X15909286Y-9597048D02*
X15918810Y-9606571D01*
X15918810Y-9606571D02*
X15928334Y-9625619D01*
X15928334Y-9625619D02*
X15928334Y-9644667D01*
X15928334Y-9644667D02*
X15918810Y-9673238D01*
X15918810Y-9673238D02*
X15804524Y-9787524D01*
X15804524Y-9787524D02*
X15928334Y-9787524D01*
X16166429Y-9787524D02*
X16166429Y-9587524D01*
X16252143Y-9787524D02*
X16252143Y-9682762D01*
X16252143Y-9682762D02*
X16242619Y-9663714D01*
X16242619Y-9663714D02*
X16223572Y-9654190D01*
X16223572Y-9654190D02*
X16195000Y-9654190D01*
X16195000Y-9654190D02*
X16175953Y-9663714D01*
X16175953Y-9663714D02*
X16166429Y-9673238D01*
X16375953Y-9787524D02*
X16356905Y-9778000D01*
X16356905Y-9778000D02*
X16347381Y-9768476D01*
X16347381Y-9768476D02*
X16337857Y-9749429D01*
X16337857Y-9749429D02*
X16337857Y-9692286D01*
X16337857Y-9692286D02*
X16347381Y-9673238D01*
X16347381Y-9673238D02*
X16356905Y-9663714D01*
X16356905Y-9663714D02*
X16375953Y-9654190D01*
X16375953Y-9654190D02*
X16404524Y-9654190D01*
X16404524Y-9654190D02*
X16423572Y-9663714D01*
X16423572Y-9663714D02*
X16433096Y-9673238D01*
X16433096Y-9673238D02*
X16442619Y-9692286D01*
X16442619Y-9692286D02*
X16442619Y-9749429D01*
X16442619Y-9749429D02*
X16433096Y-9768476D01*
X16433096Y-9768476D02*
X16423572Y-9778000D01*
X16423572Y-9778000D02*
X16404524Y-9787524D01*
X16404524Y-9787524D02*
X16375953Y-9787524D01*
X16556905Y-9787524D02*
X16537857Y-9778000D01*
X16537857Y-9778000D02*
X16528334Y-9758952D01*
X16528334Y-9758952D02*
X16528334Y-9587524D01*
X16709286Y-9778000D02*
X16690238Y-9787524D01*
X16690238Y-9787524D02*
X16652143Y-9787524D01*
X16652143Y-9787524D02*
X16633096Y-9778000D01*
X16633096Y-9778000D02*
X16623572Y-9758952D01*
X16623572Y-9758952D02*
X16623572Y-9682762D01*
X16623572Y-9682762D02*
X16633096Y-9663714D01*
X16633096Y-9663714D02*
X16652143Y-9654190D01*
X16652143Y-9654190D02*
X16690238Y-9654190D01*
X16690238Y-9654190D02*
X16709286Y-9663714D01*
X16709286Y-9663714D02*
X16718810Y-9682762D01*
X16718810Y-9682762D02*
X16718810Y-9701810D01*
X16718810Y-9701810D02*
X16623572Y-9720857D01*
X16795000Y-9778000D02*
X16814048Y-9787524D01*
X16814048Y-9787524D02*
X16852143Y-9787524D01*
X16852143Y-9787524D02*
X16871191Y-9778000D01*
X16871191Y-9778000D02*
X16880715Y-9758952D01*
X16880715Y-9758952D02*
X16880715Y-9749429D01*
X16880715Y-9749429D02*
X16871191Y-9730381D01*
X16871191Y-9730381D02*
X16852143Y-9720857D01*
X16852143Y-9720857D02*
X16823572Y-9720857D01*
X16823572Y-9720857D02*
X16804524Y-9711333D01*
X16804524Y-9711333D02*
X16795000Y-9692286D01*
X16795000Y-9692286D02*
X16795000Y-9682762D01*
X16795000Y-9682762D02*
X16804524Y-9663714D01*
X16804524Y-9663714D02*
X16823572Y-9654190D01*
X16823572Y-9654190D02*
X16852143Y-9654190D01*
X16852143Y-9654190D02*
X16871191Y-9663714D01*
X16947381Y-9863714D02*
X16956905Y-9854190D01*
X16956905Y-9854190D02*
X16975953Y-9825619D01*
X16975953Y-9825619D02*
X16985477Y-9806571D01*
X16985477Y-9806571D02*
X16995000Y-9778000D01*
X16995000Y-9778000D02*
X17004524Y-9730381D01*
X17004524Y-9730381D02*
X17004524Y-9692286D01*
X17004524Y-9692286D02*
X16995000Y-9644667D01*
X16995000Y-9644667D02*
X16985477Y-9616095D01*
X16985477Y-9616095D02*
X16975953Y-9597048D01*
X16975953Y-9597048D02*
X16956905Y-9568476D01*
X16956905Y-9568476D02*
X16947381Y-9558952D01*
D13*
X11995000Y-9959000D02*
G75*
G03*
X11995000Y-9959000I-20000J0D01*
G01*
D11*
X12280714Y-9851524D02*
X12299762Y-9851524D01*
X12299762Y-9851524D02*
X12318809Y-9861048D01*
X12318809Y-9861048D02*
X12328333Y-9870571D01*
X12328333Y-9870571D02*
X12337857Y-9889619D01*
X12337857Y-9889619D02*
X12347381Y-9927714D01*
X12347381Y-9927714D02*
X12347381Y-9975333D01*
X12347381Y-9975333D02*
X12337857Y-10013429D01*
X12337857Y-10013429D02*
X12328333Y-10032476D01*
X12328333Y-10032476D02*
X12318809Y-10042000D01*
X12318809Y-10042000D02*
X12299762Y-10051524D01*
X12299762Y-10051524D02*
X12280714Y-10051524D01*
X12280714Y-10051524D02*
X12261667Y-10042000D01*
X12261667Y-10042000D02*
X12252143Y-10032476D01*
X12252143Y-10032476D02*
X12242619Y-10013429D01*
X12242619Y-10013429D02*
X12233095Y-9975333D01*
X12233095Y-9975333D02*
X12233095Y-9927714D01*
X12233095Y-9927714D02*
X12242619Y-9889619D01*
X12242619Y-9889619D02*
X12252143Y-9870571D01*
X12252143Y-9870571D02*
X12261667Y-9861048D01*
X12261667Y-9861048D02*
X12280714Y-9851524D01*
X12433095Y-10032476D02*
X12442619Y-10042000D01*
X12442619Y-10042000D02*
X12433095Y-10051524D01*
X12433095Y-10051524D02*
X12423571Y-10042000D01*
X12423571Y-10042000D02*
X12433095Y-10032476D01*
X12433095Y-10032476D02*
X12433095Y-10051524D01*
X12614048Y-9918190D02*
X12614048Y-10051524D01*
X12566428Y-9842000D02*
X12518809Y-9984857D01*
X12518809Y-9984857D02*
X12642619Y-9984857D01*
X12756905Y-9851524D02*
X12775952Y-9851524D01*
X12775952Y-9851524D02*
X12795000Y-9861048D01*
X12795000Y-9861048D02*
X12804524Y-9870571D01*
X12804524Y-9870571D02*
X12814048Y-9889619D01*
X12814048Y-9889619D02*
X12823571Y-9927714D01*
X12823571Y-9927714D02*
X12823571Y-9975333D01*
X12823571Y-9975333D02*
X12814048Y-10013429D01*
X12814048Y-10013429D02*
X12804524Y-10032476D01*
X12804524Y-10032476D02*
X12795000Y-10042000D01*
X12795000Y-10042000D02*
X12775952Y-10051524D01*
X12775952Y-10051524D02*
X12756905Y-10051524D01*
X12756905Y-10051524D02*
X12737857Y-10042000D01*
X12737857Y-10042000D02*
X12728333Y-10032476D01*
X12728333Y-10032476D02*
X12718809Y-10013429D01*
X12718809Y-10013429D02*
X12709286Y-9975333D01*
X12709286Y-9975333D02*
X12709286Y-9927714D01*
X12709286Y-9927714D02*
X12718809Y-9889619D01*
X12718809Y-9889619D02*
X12728333Y-9870571D01*
X12728333Y-9870571D02*
X12737857Y-9861048D01*
X12737857Y-9861048D02*
X12756905Y-9851524D01*
X12947381Y-9851524D02*
X12966429Y-9851524D01*
X12966429Y-9851524D02*
X12985476Y-9861048D01*
X12985476Y-9861048D02*
X12995000Y-9870571D01*
X12995000Y-9870571D02*
X13004524Y-9889619D01*
X13004524Y-9889619D02*
X13014048Y-9927714D01*
X13014048Y-9927714D02*
X13014048Y-9975333D01*
X13014048Y-9975333D02*
X13004524Y-10013429D01*
X13004524Y-10013429D02*
X12995000Y-10032476D01*
X12995000Y-10032476D02*
X12985476Y-10042000D01*
X12985476Y-10042000D02*
X12966429Y-10051524D01*
X12966429Y-10051524D02*
X12947381Y-10051524D01*
X12947381Y-10051524D02*
X12928333Y-10042000D01*
X12928333Y-10042000D02*
X12918809Y-10032476D01*
X12918809Y-10032476D02*
X12909286Y-10013429D01*
X12909286Y-10013429D02*
X12899762Y-9975333D01*
X12899762Y-9975333D02*
X12899762Y-9927714D01*
X12899762Y-9927714D02*
X12909286Y-9889619D01*
X12909286Y-9889619D02*
X12918809Y-9870571D01*
X12918809Y-9870571D02*
X12928333Y-9861048D01*
X12928333Y-9861048D02*
X12947381Y-9851524D01*
X13099762Y-10051524D02*
X13099762Y-9918190D01*
X13099762Y-9937238D02*
X13109286Y-9927714D01*
X13109286Y-9927714D02*
X13128333Y-9918190D01*
X13128333Y-9918190D02*
X13156905Y-9918190D01*
X13156905Y-9918190D02*
X13175952Y-9927714D01*
X13175952Y-9927714D02*
X13185476Y-9946762D01*
X13185476Y-9946762D02*
X13185476Y-10051524D01*
X13185476Y-9946762D02*
X13195000Y-9927714D01*
X13195000Y-9927714D02*
X13214048Y-9918190D01*
X13214048Y-9918190D02*
X13242619Y-9918190D01*
X13242619Y-9918190D02*
X13261667Y-9927714D01*
X13261667Y-9927714D02*
X13271190Y-9946762D01*
X13271190Y-9946762D02*
X13271190Y-10051524D01*
X13366429Y-10051524D02*
X13366429Y-9918190D01*
X13366429Y-9937238D02*
X13375952Y-9927714D01*
X13375952Y-9927714D02*
X13395000Y-9918190D01*
X13395000Y-9918190D02*
X13423571Y-9918190D01*
X13423571Y-9918190D02*
X13442619Y-9927714D01*
X13442619Y-9927714D02*
X13452143Y-9946762D01*
X13452143Y-9946762D02*
X13452143Y-10051524D01*
X13452143Y-9946762D02*
X13461667Y-9927714D01*
X13461667Y-9927714D02*
X13480714Y-9918190D01*
X13480714Y-9918190D02*
X13509286Y-9918190D01*
X13509286Y-9918190D02*
X13528333Y-9927714D01*
X13528333Y-9927714D02*
X13537857Y-9946762D01*
X13537857Y-9946762D02*
X13537857Y-10051524D01*
X13928333Y-9842000D02*
X13756905Y-10099143D01*
X14185476Y-9851524D02*
X14204524Y-9851524D01*
X14204524Y-9851524D02*
X14223572Y-9861048D01*
X14223572Y-9861048D02*
X14233095Y-9870571D01*
X14233095Y-9870571D02*
X14242619Y-9889619D01*
X14242619Y-9889619D02*
X14252143Y-9927714D01*
X14252143Y-9927714D02*
X14252143Y-9975333D01*
X14252143Y-9975333D02*
X14242619Y-10013429D01*
X14242619Y-10013429D02*
X14233095Y-10032476D01*
X14233095Y-10032476D02*
X14223572Y-10042000D01*
X14223572Y-10042000D02*
X14204524Y-10051524D01*
X14204524Y-10051524D02*
X14185476Y-10051524D01*
X14185476Y-10051524D02*
X14166429Y-10042000D01*
X14166429Y-10042000D02*
X14156905Y-10032476D01*
X14156905Y-10032476D02*
X14147381Y-10013429D01*
X14147381Y-10013429D02*
X14137857Y-9975333D01*
X14137857Y-9975333D02*
X14137857Y-9927714D01*
X14137857Y-9927714D02*
X14147381Y-9889619D01*
X14147381Y-9889619D02*
X14156905Y-9870571D01*
X14156905Y-9870571D02*
X14166429Y-9861048D01*
X14166429Y-9861048D02*
X14185476Y-9851524D01*
X14337857Y-10032476D02*
X14347381Y-10042000D01*
X14347381Y-10042000D02*
X14337857Y-10051524D01*
X14337857Y-10051524D02*
X14328333Y-10042000D01*
X14328333Y-10042000D02*
X14337857Y-10032476D01*
X14337857Y-10032476D02*
X14337857Y-10051524D01*
X14471191Y-9851524D02*
X14490238Y-9851524D01*
X14490238Y-9851524D02*
X14509286Y-9861048D01*
X14509286Y-9861048D02*
X14518810Y-9870571D01*
X14518810Y-9870571D02*
X14528333Y-9889619D01*
X14528333Y-9889619D02*
X14537857Y-9927714D01*
X14537857Y-9927714D02*
X14537857Y-9975333D01*
X14537857Y-9975333D02*
X14528333Y-10013429D01*
X14528333Y-10013429D02*
X14518810Y-10032476D01*
X14518810Y-10032476D02*
X14509286Y-10042000D01*
X14509286Y-10042000D02*
X14490238Y-10051524D01*
X14490238Y-10051524D02*
X14471191Y-10051524D01*
X14471191Y-10051524D02*
X14452143Y-10042000D01*
X14452143Y-10042000D02*
X14442619Y-10032476D01*
X14442619Y-10032476D02*
X14433095Y-10013429D01*
X14433095Y-10013429D02*
X14423572Y-9975333D01*
X14423572Y-9975333D02*
X14423572Y-9927714D01*
X14423572Y-9927714D02*
X14433095Y-9889619D01*
X14433095Y-9889619D02*
X14442619Y-9870571D01*
X14442619Y-9870571D02*
X14452143Y-9861048D01*
X14452143Y-9861048D02*
X14471191Y-9851524D01*
X14728333Y-10051524D02*
X14614048Y-10051524D01*
X14671191Y-10051524D02*
X14671191Y-9851524D01*
X14671191Y-9851524D02*
X14652143Y-9880095D01*
X14652143Y-9880095D02*
X14633095Y-9899143D01*
X14633095Y-9899143D02*
X14614048Y-9908667D01*
X14909286Y-9851524D02*
X14814048Y-9851524D01*
X14814048Y-9851524D02*
X14804524Y-9946762D01*
X14804524Y-9946762D02*
X14814048Y-9937238D01*
X14814048Y-9937238D02*
X14833095Y-9927714D01*
X14833095Y-9927714D02*
X14880714Y-9927714D01*
X14880714Y-9927714D02*
X14899762Y-9937238D01*
X14899762Y-9937238D02*
X14909286Y-9946762D01*
X14909286Y-9946762D02*
X14918810Y-9965810D01*
X14918810Y-9965810D02*
X14918810Y-10013429D01*
X14918810Y-10013429D02*
X14909286Y-10032476D01*
X14909286Y-10032476D02*
X14899762Y-10042000D01*
X14899762Y-10042000D02*
X14880714Y-10051524D01*
X14880714Y-10051524D02*
X14833095Y-10051524D01*
X14833095Y-10051524D02*
X14814048Y-10042000D01*
X14814048Y-10042000D02*
X14804524Y-10032476D01*
X14985476Y-9851524D02*
X15118810Y-9851524D01*
X15118810Y-9851524D02*
X15033095Y-10051524D01*
X15185476Y-9851524D02*
X15185476Y-9889619D01*
X15261667Y-9851524D02*
X15261667Y-9889619D01*
X15556905Y-10127714D02*
X15547381Y-10118190D01*
X15547381Y-10118190D02*
X15528334Y-10089619D01*
X15528334Y-10089619D02*
X15518810Y-10070571D01*
X15518810Y-10070571D02*
X15509286Y-10042000D01*
X15509286Y-10042000D02*
X15499762Y-9994381D01*
X15499762Y-9994381D02*
X15499762Y-9956286D01*
X15499762Y-9956286D02*
X15509286Y-9908667D01*
X15509286Y-9908667D02*
X15518810Y-9880095D01*
X15518810Y-9880095D02*
X15528334Y-9861048D01*
X15528334Y-9861048D02*
X15547381Y-9832476D01*
X15547381Y-9832476D02*
X15556905Y-9822952D01*
X15623572Y-9870571D02*
X15633095Y-9861048D01*
X15633095Y-9861048D02*
X15652143Y-9851524D01*
X15652143Y-9851524D02*
X15699762Y-9851524D01*
X15699762Y-9851524D02*
X15718810Y-9861048D01*
X15718810Y-9861048D02*
X15728334Y-9870571D01*
X15728334Y-9870571D02*
X15737857Y-9889619D01*
X15737857Y-9889619D02*
X15737857Y-9908667D01*
X15737857Y-9908667D02*
X15728334Y-9937238D01*
X15728334Y-9937238D02*
X15614048Y-10051524D01*
X15614048Y-10051524D02*
X15737857Y-10051524D01*
X15909286Y-9851524D02*
X15871191Y-9851524D01*
X15871191Y-9851524D02*
X15852143Y-9861048D01*
X15852143Y-9861048D02*
X15842619Y-9870571D01*
X15842619Y-9870571D02*
X15823572Y-9899143D01*
X15823572Y-9899143D02*
X15814048Y-9937238D01*
X15814048Y-9937238D02*
X15814048Y-10013429D01*
X15814048Y-10013429D02*
X15823572Y-10032476D01*
X15823572Y-10032476D02*
X15833095Y-10042000D01*
X15833095Y-10042000D02*
X15852143Y-10051524D01*
X15852143Y-10051524D02*
X15890238Y-10051524D01*
X15890238Y-10051524D02*
X15909286Y-10042000D01*
X15909286Y-10042000D02*
X15918810Y-10032476D01*
X15918810Y-10032476D02*
X15928334Y-10013429D01*
X15928334Y-10013429D02*
X15928334Y-9965810D01*
X15928334Y-9965810D02*
X15918810Y-9946762D01*
X15918810Y-9946762D02*
X15909286Y-9937238D01*
X15909286Y-9937238D02*
X15890238Y-9927714D01*
X15890238Y-9927714D02*
X15852143Y-9927714D01*
X15852143Y-9927714D02*
X15833095Y-9937238D01*
X15833095Y-9937238D02*
X15823572Y-9946762D01*
X15823572Y-9946762D02*
X15814048Y-9965810D01*
X16166429Y-10051524D02*
X16166429Y-9851524D01*
X16252143Y-10051524D02*
X16252143Y-9946762D01*
X16252143Y-9946762D02*
X16242619Y-9927714D01*
X16242619Y-9927714D02*
X16223572Y-9918190D01*
X16223572Y-9918190D02*
X16195000Y-9918190D01*
X16195000Y-9918190D02*
X16175953Y-9927714D01*
X16175953Y-9927714D02*
X16166429Y-9937238D01*
X16375953Y-10051524D02*
X16356905Y-10042000D01*
X16356905Y-10042000D02*
X16347381Y-10032476D01*
X16347381Y-10032476D02*
X16337857Y-10013429D01*
X16337857Y-10013429D02*
X16337857Y-9956286D01*
X16337857Y-9956286D02*
X16347381Y-9937238D01*
X16347381Y-9937238D02*
X16356905Y-9927714D01*
X16356905Y-9927714D02*
X16375953Y-9918190D01*
X16375953Y-9918190D02*
X16404524Y-9918190D01*
X16404524Y-9918190D02*
X16423572Y-9927714D01*
X16423572Y-9927714D02*
X16433096Y-9937238D01*
X16433096Y-9937238D02*
X16442619Y-9956286D01*
X16442619Y-9956286D02*
X16442619Y-10013429D01*
X16442619Y-10013429D02*
X16433096Y-10032476D01*
X16433096Y-10032476D02*
X16423572Y-10042000D01*
X16423572Y-10042000D02*
X16404524Y-10051524D01*
X16404524Y-10051524D02*
X16375953Y-10051524D01*
X16556905Y-10051524D02*
X16537857Y-10042000D01*
X16537857Y-10042000D02*
X16528334Y-10022952D01*
X16528334Y-10022952D02*
X16528334Y-9851524D01*
X16709286Y-10042000D02*
X16690238Y-10051524D01*
X16690238Y-10051524D02*
X16652143Y-10051524D01*
X16652143Y-10051524D02*
X16633096Y-10042000D01*
X16633096Y-10042000D02*
X16623572Y-10022952D01*
X16623572Y-10022952D02*
X16623572Y-9946762D01*
X16623572Y-9946762D02*
X16633096Y-9927714D01*
X16633096Y-9927714D02*
X16652143Y-9918190D01*
X16652143Y-9918190D02*
X16690238Y-9918190D01*
X16690238Y-9918190D02*
X16709286Y-9927714D01*
X16709286Y-9927714D02*
X16718810Y-9946762D01*
X16718810Y-9946762D02*
X16718810Y-9965810D01*
X16718810Y-9965810D02*
X16623572Y-9984857D01*
X16795000Y-10042000D02*
X16814048Y-10051524D01*
X16814048Y-10051524D02*
X16852143Y-10051524D01*
X16852143Y-10051524D02*
X16871191Y-10042000D01*
X16871191Y-10042000D02*
X16880715Y-10022952D01*
X16880715Y-10022952D02*
X16880715Y-10013429D01*
X16880715Y-10013429D02*
X16871191Y-9994381D01*
X16871191Y-9994381D02*
X16852143Y-9984857D01*
X16852143Y-9984857D02*
X16823572Y-9984857D01*
X16823572Y-9984857D02*
X16804524Y-9975333D01*
X16804524Y-9975333D02*
X16795000Y-9956286D01*
X16795000Y-9956286D02*
X16795000Y-9946762D01*
X16795000Y-9946762D02*
X16804524Y-9927714D01*
X16804524Y-9927714D02*
X16823572Y-9918190D01*
X16823572Y-9918190D02*
X16852143Y-9918190D01*
X16852143Y-9918190D02*
X16871191Y-9927714D01*
X16947381Y-10127714D02*
X16956905Y-10118190D01*
X16956905Y-10118190D02*
X16975953Y-10089619D01*
X16975953Y-10089619D02*
X16985477Y-10070571D01*
X16985477Y-10070571D02*
X16995000Y-10042000D01*
X16995000Y-10042000D02*
X17004524Y-9994381D01*
X17004524Y-9994381D02*
X17004524Y-9956286D01*
X17004524Y-9956286D02*
X16995000Y-9908667D01*
X16995000Y-9908667D02*
X16985477Y-9880095D01*
X16985477Y-9880095D02*
X16975953Y-9861048D01*
X16975953Y-9861048D02*
X16956905Y-9832476D01*
X16956905Y-9832476D02*
X16947381Y-9822952D01*
D14*
X11965000Y-10193000D02*
X11965000Y-10253000D01*
X11935000Y-10223000D02*
X11995000Y-10223000D01*
D11*
X12280714Y-10115524D02*
X12299762Y-10115524D01*
X12299762Y-10115524D02*
X12318809Y-10125048D01*
X12318809Y-10125048D02*
X12328333Y-10134571D01*
X12328333Y-10134571D02*
X12337857Y-10153619D01*
X12337857Y-10153619D02*
X12347381Y-10191714D01*
X12347381Y-10191714D02*
X12347381Y-10239333D01*
X12347381Y-10239333D02*
X12337857Y-10277429D01*
X12337857Y-10277429D02*
X12328333Y-10296476D01*
X12328333Y-10296476D02*
X12318809Y-10306000D01*
X12318809Y-10306000D02*
X12299762Y-10315524D01*
X12299762Y-10315524D02*
X12280714Y-10315524D01*
X12280714Y-10315524D02*
X12261667Y-10306000D01*
X12261667Y-10306000D02*
X12252143Y-10296476D01*
X12252143Y-10296476D02*
X12242619Y-10277429D01*
X12242619Y-10277429D02*
X12233095Y-10239333D01*
X12233095Y-10239333D02*
X12233095Y-10191714D01*
X12233095Y-10191714D02*
X12242619Y-10153619D01*
X12242619Y-10153619D02*
X12252143Y-10134571D01*
X12252143Y-10134571D02*
X12261667Y-10125048D01*
X12261667Y-10125048D02*
X12280714Y-10115524D01*
X12433095Y-10296476D02*
X12442619Y-10306000D01*
X12442619Y-10306000D02*
X12433095Y-10315524D01*
X12433095Y-10315524D02*
X12423571Y-10306000D01*
X12423571Y-10306000D02*
X12433095Y-10296476D01*
X12433095Y-10296476D02*
X12433095Y-10315524D01*
X12614048Y-10115524D02*
X12575952Y-10115524D01*
X12575952Y-10115524D02*
X12556905Y-10125048D01*
X12556905Y-10125048D02*
X12547381Y-10134571D01*
X12547381Y-10134571D02*
X12528333Y-10163143D01*
X12528333Y-10163143D02*
X12518809Y-10201238D01*
X12518809Y-10201238D02*
X12518809Y-10277429D01*
X12518809Y-10277429D02*
X12528333Y-10296476D01*
X12528333Y-10296476D02*
X12537857Y-10306000D01*
X12537857Y-10306000D02*
X12556905Y-10315524D01*
X12556905Y-10315524D02*
X12595000Y-10315524D01*
X12595000Y-10315524D02*
X12614048Y-10306000D01*
X12614048Y-10306000D02*
X12623571Y-10296476D01*
X12623571Y-10296476D02*
X12633095Y-10277429D01*
X12633095Y-10277429D02*
X12633095Y-10229810D01*
X12633095Y-10229810D02*
X12623571Y-10210762D01*
X12623571Y-10210762D02*
X12614048Y-10201238D01*
X12614048Y-10201238D02*
X12595000Y-10191714D01*
X12595000Y-10191714D02*
X12556905Y-10191714D01*
X12556905Y-10191714D02*
X12537857Y-10201238D01*
X12537857Y-10201238D02*
X12528333Y-10210762D01*
X12528333Y-10210762D02*
X12518809Y-10229810D01*
X12756905Y-10115524D02*
X12775952Y-10115524D01*
X12775952Y-10115524D02*
X12795000Y-10125048D01*
X12795000Y-10125048D02*
X12804524Y-10134571D01*
X12804524Y-10134571D02*
X12814048Y-10153619D01*
X12814048Y-10153619D02*
X12823571Y-10191714D01*
X12823571Y-10191714D02*
X12823571Y-10239333D01*
X12823571Y-10239333D02*
X12814048Y-10277429D01*
X12814048Y-10277429D02*
X12804524Y-10296476D01*
X12804524Y-10296476D02*
X12795000Y-10306000D01*
X12795000Y-10306000D02*
X12775952Y-10315524D01*
X12775952Y-10315524D02*
X12756905Y-10315524D01*
X12756905Y-10315524D02*
X12737857Y-10306000D01*
X12737857Y-10306000D02*
X12728333Y-10296476D01*
X12728333Y-10296476D02*
X12718809Y-10277429D01*
X12718809Y-10277429D02*
X12709286Y-10239333D01*
X12709286Y-10239333D02*
X12709286Y-10191714D01*
X12709286Y-10191714D02*
X12718809Y-10153619D01*
X12718809Y-10153619D02*
X12728333Y-10134571D01*
X12728333Y-10134571D02*
X12737857Y-10125048D01*
X12737857Y-10125048D02*
X12756905Y-10115524D01*
X12947381Y-10115524D02*
X12966429Y-10115524D01*
X12966429Y-10115524D02*
X12985476Y-10125048D01*
X12985476Y-10125048D02*
X12995000Y-10134571D01*
X12995000Y-10134571D02*
X13004524Y-10153619D01*
X13004524Y-10153619D02*
X13014048Y-10191714D01*
X13014048Y-10191714D02*
X13014048Y-10239333D01*
X13014048Y-10239333D02*
X13004524Y-10277429D01*
X13004524Y-10277429D02*
X12995000Y-10296476D01*
X12995000Y-10296476D02*
X12985476Y-10306000D01*
X12985476Y-10306000D02*
X12966429Y-10315524D01*
X12966429Y-10315524D02*
X12947381Y-10315524D01*
X12947381Y-10315524D02*
X12928333Y-10306000D01*
X12928333Y-10306000D02*
X12918809Y-10296476D01*
X12918809Y-10296476D02*
X12909286Y-10277429D01*
X12909286Y-10277429D02*
X12899762Y-10239333D01*
X12899762Y-10239333D02*
X12899762Y-10191714D01*
X12899762Y-10191714D02*
X12909286Y-10153619D01*
X12909286Y-10153619D02*
X12918809Y-10134571D01*
X12918809Y-10134571D02*
X12928333Y-10125048D01*
X12928333Y-10125048D02*
X12947381Y-10115524D01*
X13099762Y-10315524D02*
X13099762Y-10182190D01*
X13099762Y-10201238D02*
X13109286Y-10191714D01*
X13109286Y-10191714D02*
X13128333Y-10182190D01*
X13128333Y-10182190D02*
X13156905Y-10182190D01*
X13156905Y-10182190D02*
X13175952Y-10191714D01*
X13175952Y-10191714D02*
X13185476Y-10210762D01*
X13185476Y-10210762D02*
X13185476Y-10315524D01*
X13185476Y-10210762D02*
X13195000Y-10191714D01*
X13195000Y-10191714D02*
X13214048Y-10182190D01*
X13214048Y-10182190D02*
X13242619Y-10182190D01*
X13242619Y-10182190D02*
X13261667Y-10191714D01*
X13261667Y-10191714D02*
X13271190Y-10210762D01*
X13271190Y-10210762D02*
X13271190Y-10315524D01*
X13366429Y-10315524D02*
X13366429Y-10182190D01*
X13366429Y-10201238D02*
X13375952Y-10191714D01*
X13375952Y-10191714D02*
X13395000Y-10182190D01*
X13395000Y-10182190D02*
X13423571Y-10182190D01*
X13423571Y-10182190D02*
X13442619Y-10191714D01*
X13442619Y-10191714D02*
X13452143Y-10210762D01*
X13452143Y-10210762D02*
X13452143Y-10315524D01*
X13452143Y-10210762D02*
X13461667Y-10191714D01*
X13461667Y-10191714D02*
X13480714Y-10182190D01*
X13480714Y-10182190D02*
X13509286Y-10182190D01*
X13509286Y-10182190D02*
X13528333Y-10191714D01*
X13528333Y-10191714D02*
X13537857Y-10210762D01*
X13537857Y-10210762D02*
X13537857Y-10315524D01*
X13928333Y-10106000D02*
X13756905Y-10363143D01*
X14185476Y-10115524D02*
X14204524Y-10115524D01*
X14204524Y-10115524D02*
X14223572Y-10125048D01*
X14223572Y-10125048D02*
X14233095Y-10134571D01*
X14233095Y-10134571D02*
X14242619Y-10153619D01*
X14242619Y-10153619D02*
X14252143Y-10191714D01*
X14252143Y-10191714D02*
X14252143Y-10239333D01*
X14252143Y-10239333D02*
X14242619Y-10277429D01*
X14242619Y-10277429D02*
X14233095Y-10296476D01*
X14233095Y-10296476D02*
X14223572Y-10306000D01*
X14223572Y-10306000D02*
X14204524Y-10315524D01*
X14204524Y-10315524D02*
X14185476Y-10315524D01*
X14185476Y-10315524D02*
X14166429Y-10306000D01*
X14166429Y-10306000D02*
X14156905Y-10296476D01*
X14156905Y-10296476D02*
X14147381Y-10277429D01*
X14147381Y-10277429D02*
X14137857Y-10239333D01*
X14137857Y-10239333D02*
X14137857Y-10191714D01*
X14137857Y-10191714D02*
X14147381Y-10153619D01*
X14147381Y-10153619D02*
X14156905Y-10134571D01*
X14156905Y-10134571D02*
X14166429Y-10125048D01*
X14166429Y-10125048D02*
X14185476Y-10115524D01*
X14337857Y-10296476D02*
X14347381Y-10306000D01*
X14347381Y-10306000D02*
X14337857Y-10315524D01*
X14337857Y-10315524D02*
X14328333Y-10306000D01*
X14328333Y-10306000D02*
X14337857Y-10296476D01*
X14337857Y-10296476D02*
X14337857Y-10315524D01*
X14471191Y-10115524D02*
X14490238Y-10115524D01*
X14490238Y-10115524D02*
X14509286Y-10125048D01*
X14509286Y-10125048D02*
X14518810Y-10134571D01*
X14518810Y-10134571D02*
X14528333Y-10153619D01*
X14528333Y-10153619D02*
X14537857Y-10191714D01*
X14537857Y-10191714D02*
X14537857Y-10239333D01*
X14537857Y-10239333D02*
X14528333Y-10277429D01*
X14528333Y-10277429D02*
X14518810Y-10296476D01*
X14518810Y-10296476D02*
X14509286Y-10306000D01*
X14509286Y-10306000D02*
X14490238Y-10315524D01*
X14490238Y-10315524D02*
X14471191Y-10315524D01*
X14471191Y-10315524D02*
X14452143Y-10306000D01*
X14452143Y-10306000D02*
X14442619Y-10296476D01*
X14442619Y-10296476D02*
X14433095Y-10277429D01*
X14433095Y-10277429D02*
X14423572Y-10239333D01*
X14423572Y-10239333D02*
X14423572Y-10191714D01*
X14423572Y-10191714D02*
X14433095Y-10153619D01*
X14433095Y-10153619D02*
X14442619Y-10134571D01*
X14442619Y-10134571D02*
X14452143Y-10125048D01*
X14452143Y-10125048D02*
X14471191Y-10115524D01*
X14614048Y-10134571D02*
X14623572Y-10125048D01*
X14623572Y-10125048D02*
X14642619Y-10115524D01*
X14642619Y-10115524D02*
X14690238Y-10115524D01*
X14690238Y-10115524D02*
X14709286Y-10125048D01*
X14709286Y-10125048D02*
X14718810Y-10134571D01*
X14718810Y-10134571D02*
X14728333Y-10153619D01*
X14728333Y-10153619D02*
X14728333Y-10172667D01*
X14728333Y-10172667D02*
X14718810Y-10201238D01*
X14718810Y-10201238D02*
X14604524Y-10315524D01*
X14604524Y-10315524D02*
X14728333Y-10315524D01*
X14795000Y-10115524D02*
X14918810Y-10115524D01*
X14918810Y-10115524D02*
X14852143Y-10191714D01*
X14852143Y-10191714D02*
X14880714Y-10191714D01*
X14880714Y-10191714D02*
X14899762Y-10201238D01*
X14899762Y-10201238D02*
X14909286Y-10210762D01*
X14909286Y-10210762D02*
X14918810Y-10229810D01*
X14918810Y-10229810D02*
X14918810Y-10277429D01*
X14918810Y-10277429D02*
X14909286Y-10296476D01*
X14909286Y-10296476D02*
X14899762Y-10306000D01*
X14899762Y-10306000D02*
X14880714Y-10315524D01*
X14880714Y-10315524D02*
X14823572Y-10315524D01*
X14823572Y-10315524D02*
X14804524Y-10306000D01*
X14804524Y-10306000D02*
X14795000Y-10296476D01*
X15090238Y-10115524D02*
X15052143Y-10115524D01*
X15052143Y-10115524D02*
X15033095Y-10125048D01*
X15033095Y-10125048D02*
X15023572Y-10134571D01*
X15023572Y-10134571D02*
X15004524Y-10163143D01*
X15004524Y-10163143D02*
X14995000Y-10201238D01*
X14995000Y-10201238D02*
X14995000Y-10277429D01*
X14995000Y-10277429D02*
X15004524Y-10296476D01*
X15004524Y-10296476D02*
X15014048Y-10306000D01*
X15014048Y-10306000D02*
X15033095Y-10315524D01*
X15033095Y-10315524D02*
X15071191Y-10315524D01*
X15071191Y-10315524D02*
X15090238Y-10306000D01*
X15090238Y-10306000D02*
X15099762Y-10296476D01*
X15099762Y-10296476D02*
X15109286Y-10277429D01*
X15109286Y-10277429D02*
X15109286Y-10229810D01*
X15109286Y-10229810D02*
X15099762Y-10210762D01*
X15099762Y-10210762D02*
X15090238Y-10201238D01*
X15090238Y-10201238D02*
X15071191Y-10191714D01*
X15071191Y-10191714D02*
X15033095Y-10191714D01*
X15033095Y-10191714D02*
X15014048Y-10201238D01*
X15014048Y-10201238D02*
X15004524Y-10210762D01*
X15004524Y-10210762D02*
X14995000Y-10229810D01*
X15185476Y-10115524D02*
X15185476Y-10153619D01*
X15261667Y-10115524D02*
X15261667Y-10153619D01*
X15556905Y-10391714D02*
X15547381Y-10382190D01*
X15547381Y-10382190D02*
X15528334Y-10353619D01*
X15528334Y-10353619D02*
X15518810Y-10334571D01*
X15518810Y-10334571D02*
X15509286Y-10306000D01*
X15509286Y-10306000D02*
X15499762Y-10258381D01*
X15499762Y-10258381D02*
X15499762Y-10220286D01*
X15499762Y-10220286D02*
X15509286Y-10172667D01*
X15509286Y-10172667D02*
X15518810Y-10144095D01*
X15518810Y-10144095D02*
X15528334Y-10125048D01*
X15528334Y-10125048D02*
X15547381Y-10096476D01*
X15547381Y-10096476D02*
X15556905Y-10086952D01*
X15718810Y-10115524D02*
X15680714Y-10115524D01*
X15680714Y-10115524D02*
X15661667Y-10125048D01*
X15661667Y-10125048D02*
X15652143Y-10134571D01*
X15652143Y-10134571D02*
X15633095Y-10163143D01*
X15633095Y-10163143D02*
X15623572Y-10201238D01*
X15623572Y-10201238D02*
X15623572Y-10277429D01*
X15623572Y-10277429D02*
X15633095Y-10296476D01*
X15633095Y-10296476D02*
X15642619Y-10306000D01*
X15642619Y-10306000D02*
X15661667Y-10315524D01*
X15661667Y-10315524D02*
X15699762Y-10315524D01*
X15699762Y-10315524D02*
X15718810Y-10306000D01*
X15718810Y-10306000D02*
X15728334Y-10296476D01*
X15728334Y-10296476D02*
X15737857Y-10277429D01*
X15737857Y-10277429D02*
X15737857Y-10229810D01*
X15737857Y-10229810D02*
X15728334Y-10210762D01*
X15728334Y-10210762D02*
X15718810Y-10201238D01*
X15718810Y-10201238D02*
X15699762Y-10191714D01*
X15699762Y-10191714D02*
X15661667Y-10191714D01*
X15661667Y-10191714D02*
X15642619Y-10201238D01*
X15642619Y-10201238D02*
X15633095Y-10210762D01*
X15633095Y-10210762D02*
X15623572Y-10229810D01*
X15975953Y-10315524D02*
X15975953Y-10115524D01*
X16061667Y-10315524D02*
X16061667Y-10210762D01*
X16061667Y-10210762D02*
X16052143Y-10191714D01*
X16052143Y-10191714D02*
X16033096Y-10182190D01*
X16033096Y-10182190D02*
X16004524Y-10182190D01*
X16004524Y-10182190D02*
X15985476Y-10191714D01*
X15985476Y-10191714D02*
X15975953Y-10201238D01*
X16185476Y-10315524D02*
X16166429Y-10306000D01*
X16166429Y-10306000D02*
X16156905Y-10296476D01*
X16156905Y-10296476D02*
X16147381Y-10277429D01*
X16147381Y-10277429D02*
X16147381Y-10220286D01*
X16147381Y-10220286D02*
X16156905Y-10201238D01*
X16156905Y-10201238D02*
X16166429Y-10191714D01*
X16166429Y-10191714D02*
X16185476Y-10182190D01*
X16185476Y-10182190D02*
X16214048Y-10182190D01*
X16214048Y-10182190D02*
X16233096Y-10191714D01*
X16233096Y-10191714D02*
X16242619Y-10201238D01*
X16242619Y-10201238D02*
X16252143Y-10220286D01*
X16252143Y-10220286D02*
X16252143Y-10277429D01*
X16252143Y-10277429D02*
X16242619Y-10296476D01*
X16242619Y-10296476D02*
X16233096Y-10306000D01*
X16233096Y-10306000D02*
X16214048Y-10315524D01*
X16214048Y-10315524D02*
X16185476Y-10315524D01*
X16366429Y-10315524D02*
X16347381Y-10306000D01*
X16347381Y-10306000D02*
X16337857Y-10286952D01*
X16337857Y-10286952D02*
X16337857Y-10115524D01*
X16518810Y-10306000D02*
X16499762Y-10315524D01*
X16499762Y-10315524D02*
X16461667Y-10315524D01*
X16461667Y-10315524D02*
X16442619Y-10306000D01*
X16442619Y-10306000D02*
X16433096Y-10286952D01*
X16433096Y-10286952D02*
X16433096Y-10210762D01*
X16433096Y-10210762D02*
X16442619Y-10191714D01*
X16442619Y-10191714D02*
X16461667Y-10182190D01*
X16461667Y-10182190D02*
X16499762Y-10182190D01*
X16499762Y-10182190D02*
X16518810Y-10191714D01*
X16518810Y-10191714D02*
X16528334Y-10210762D01*
X16528334Y-10210762D02*
X16528334Y-10229810D01*
X16528334Y-10229810D02*
X16433096Y-10248857D01*
X16604524Y-10306000D02*
X16623572Y-10315524D01*
X16623572Y-10315524D02*
X16661667Y-10315524D01*
X16661667Y-10315524D02*
X16680715Y-10306000D01*
X16680715Y-10306000D02*
X16690238Y-10286952D01*
X16690238Y-10286952D02*
X16690238Y-10277429D01*
X16690238Y-10277429D02*
X16680715Y-10258381D01*
X16680715Y-10258381D02*
X16661667Y-10248857D01*
X16661667Y-10248857D02*
X16633096Y-10248857D01*
X16633096Y-10248857D02*
X16614048Y-10239333D01*
X16614048Y-10239333D02*
X16604524Y-10220286D01*
X16604524Y-10220286D02*
X16604524Y-10210762D01*
X16604524Y-10210762D02*
X16614048Y-10191714D01*
X16614048Y-10191714D02*
X16633096Y-10182190D01*
X16633096Y-10182190D02*
X16661667Y-10182190D01*
X16661667Y-10182190D02*
X16680715Y-10191714D01*
X16756905Y-10391714D02*
X16766429Y-10382190D01*
X16766429Y-10382190D02*
X16785477Y-10353619D01*
X16785477Y-10353619D02*
X16795000Y-10334571D01*
X16795000Y-10334571D02*
X16804524Y-10306000D01*
X16804524Y-10306000D02*
X16814048Y-10258381D01*
X16814048Y-10258381D02*
X16814048Y-10220286D01*
X16814048Y-10220286D02*
X16804524Y-10172667D01*
X16804524Y-10172667D02*
X16795000Y-10144095D01*
X16795000Y-10144095D02*
X16785477Y-10125048D01*
X16785477Y-10125048D02*
X16766429Y-10096476D01*
X16766429Y-10096476D02*
X16756905Y-10086952D01*
D15*
X11985481Y-10509981D02*
X11985481Y-10464019D01*
X11939519Y-10464019D01*
X11939519Y-10509981D01*
X11985481Y-10509981D01*
D11*
X12280714Y-10379524D02*
X12299762Y-10379524D01*
X12299762Y-10379524D02*
X12318809Y-10389048D01*
X12318809Y-10389048D02*
X12328333Y-10398571D01*
X12328333Y-10398571D02*
X12337857Y-10417619D01*
X12337857Y-10417619D02*
X12347381Y-10455714D01*
X12347381Y-10455714D02*
X12347381Y-10503333D01*
X12347381Y-10503333D02*
X12337857Y-10541429D01*
X12337857Y-10541429D02*
X12328333Y-10560476D01*
X12328333Y-10560476D02*
X12318809Y-10570000D01*
X12318809Y-10570000D02*
X12299762Y-10579524D01*
X12299762Y-10579524D02*
X12280714Y-10579524D01*
X12280714Y-10579524D02*
X12261667Y-10570000D01*
X12261667Y-10570000D02*
X12252143Y-10560476D01*
X12252143Y-10560476D02*
X12242619Y-10541429D01*
X12242619Y-10541429D02*
X12233095Y-10503333D01*
X12233095Y-10503333D02*
X12233095Y-10455714D01*
X12233095Y-10455714D02*
X12242619Y-10417619D01*
X12242619Y-10417619D02*
X12252143Y-10398571D01*
X12252143Y-10398571D02*
X12261667Y-10389048D01*
X12261667Y-10389048D02*
X12280714Y-10379524D01*
X12433095Y-10560476D02*
X12442619Y-10570000D01*
X12442619Y-10570000D02*
X12433095Y-10579524D01*
X12433095Y-10579524D02*
X12423571Y-10570000D01*
X12423571Y-10570000D02*
X12433095Y-10560476D01*
X12433095Y-10560476D02*
X12433095Y-10579524D01*
X12614048Y-10379524D02*
X12575952Y-10379524D01*
X12575952Y-10379524D02*
X12556905Y-10389048D01*
X12556905Y-10389048D02*
X12547381Y-10398571D01*
X12547381Y-10398571D02*
X12528333Y-10427143D01*
X12528333Y-10427143D02*
X12518809Y-10465238D01*
X12518809Y-10465238D02*
X12518809Y-10541429D01*
X12518809Y-10541429D02*
X12528333Y-10560476D01*
X12528333Y-10560476D02*
X12537857Y-10570000D01*
X12537857Y-10570000D02*
X12556905Y-10579524D01*
X12556905Y-10579524D02*
X12595000Y-10579524D01*
X12595000Y-10579524D02*
X12614048Y-10570000D01*
X12614048Y-10570000D02*
X12623571Y-10560476D01*
X12623571Y-10560476D02*
X12633095Y-10541429D01*
X12633095Y-10541429D02*
X12633095Y-10493810D01*
X12633095Y-10493810D02*
X12623571Y-10474762D01*
X12623571Y-10474762D02*
X12614048Y-10465238D01*
X12614048Y-10465238D02*
X12595000Y-10455714D01*
X12595000Y-10455714D02*
X12556905Y-10455714D01*
X12556905Y-10455714D02*
X12537857Y-10465238D01*
X12537857Y-10465238D02*
X12528333Y-10474762D01*
X12528333Y-10474762D02*
X12518809Y-10493810D01*
X12814048Y-10379524D02*
X12718809Y-10379524D01*
X12718809Y-10379524D02*
X12709286Y-10474762D01*
X12709286Y-10474762D02*
X12718809Y-10465238D01*
X12718809Y-10465238D02*
X12737857Y-10455714D01*
X12737857Y-10455714D02*
X12785476Y-10455714D01*
X12785476Y-10455714D02*
X12804524Y-10465238D01*
X12804524Y-10465238D02*
X12814048Y-10474762D01*
X12814048Y-10474762D02*
X12823571Y-10493810D01*
X12823571Y-10493810D02*
X12823571Y-10541429D01*
X12823571Y-10541429D02*
X12814048Y-10560476D01*
X12814048Y-10560476D02*
X12804524Y-10570000D01*
X12804524Y-10570000D02*
X12785476Y-10579524D01*
X12785476Y-10579524D02*
X12737857Y-10579524D01*
X12737857Y-10579524D02*
X12718809Y-10570000D01*
X12718809Y-10570000D02*
X12709286Y-10560476D01*
X12947381Y-10379524D02*
X12966429Y-10379524D01*
X12966429Y-10379524D02*
X12985476Y-10389048D01*
X12985476Y-10389048D02*
X12995000Y-10398571D01*
X12995000Y-10398571D02*
X13004524Y-10417619D01*
X13004524Y-10417619D02*
X13014048Y-10455714D01*
X13014048Y-10455714D02*
X13014048Y-10503333D01*
X13014048Y-10503333D02*
X13004524Y-10541429D01*
X13004524Y-10541429D02*
X12995000Y-10560476D01*
X12995000Y-10560476D02*
X12985476Y-10570000D01*
X12985476Y-10570000D02*
X12966429Y-10579524D01*
X12966429Y-10579524D02*
X12947381Y-10579524D01*
X12947381Y-10579524D02*
X12928333Y-10570000D01*
X12928333Y-10570000D02*
X12918809Y-10560476D01*
X12918809Y-10560476D02*
X12909286Y-10541429D01*
X12909286Y-10541429D02*
X12899762Y-10503333D01*
X12899762Y-10503333D02*
X12899762Y-10455714D01*
X12899762Y-10455714D02*
X12909286Y-10417619D01*
X12909286Y-10417619D02*
X12918809Y-10398571D01*
X12918809Y-10398571D02*
X12928333Y-10389048D01*
X12928333Y-10389048D02*
X12947381Y-10379524D01*
X13099762Y-10579524D02*
X13099762Y-10446190D01*
X13099762Y-10465238D02*
X13109286Y-10455714D01*
X13109286Y-10455714D02*
X13128333Y-10446190D01*
X13128333Y-10446190D02*
X13156905Y-10446190D01*
X13156905Y-10446190D02*
X13175952Y-10455714D01*
X13175952Y-10455714D02*
X13185476Y-10474762D01*
X13185476Y-10474762D02*
X13185476Y-10579524D01*
X13185476Y-10474762D02*
X13195000Y-10455714D01*
X13195000Y-10455714D02*
X13214048Y-10446190D01*
X13214048Y-10446190D02*
X13242619Y-10446190D01*
X13242619Y-10446190D02*
X13261667Y-10455714D01*
X13261667Y-10455714D02*
X13271190Y-10474762D01*
X13271190Y-10474762D02*
X13271190Y-10579524D01*
X13366429Y-10579524D02*
X13366429Y-10446190D01*
X13366429Y-10465238D02*
X13375952Y-10455714D01*
X13375952Y-10455714D02*
X13395000Y-10446190D01*
X13395000Y-10446190D02*
X13423571Y-10446190D01*
X13423571Y-10446190D02*
X13442619Y-10455714D01*
X13442619Y-10455714D02*
X13452143Y-10474762D01*
X13452143Y-10474762D02*
X13452143Y-10579524D01*
X13452143Y-10474762D02*
X13461667Y-10455714D01*
X13461667Y-10455714D02*
X13480714Y-10446190D01*
X13480714Y-10446190D02*
X13509286Y-10446190D01*
X13509286Y-10446190D02*
X13528333Y-10455714D01*
X13528333Y-10455714D02*
X13537857Y-10474762D01*
X13537857Y-10474762D02*
X13537857Y-10579524D01*
X13928333Y-10370000D02*
X13756905Y-10627143D01*
X14185476Y-10379524D02*
X14204524Y-10379524D01*
X14204524Y-10379524D02*
X14223572Y-10389048D01*
X14223572Y-10389048D02*
X14233095Y-10398571D01*
X14233095Y-10398571D02*
X14242619Y-10417619D01*
X14242619Y-10417619D02*
X14252143Y-10455714D01*
X14252143Y-10455714D02*
X14252143Y-10503333D01*
X14252143Y-10503333D02*
X14242619Y-10541429D01*
X14242619Y-10541429D02*
X14233095Y-10560476D01*
X14233095Y-10560476D02*
X14223572Y-10570000D01*
X14223572Y-10570000D02*
X14204524Y-10579524D01*
X14204524Y-10579524D02*
X14185476Y-10579524D01*
X14185476Y-10579524D02*
X14166429Y-10570000D01*
X14166429Y-10570000D02*
X14156905Y-10560476D01*
X14156905Y-10560476D02*
X14147381Y-10541429D01*
X14147381Y-10541429D02*
X14137857Y-10503333D01*
X14137857Y-10503333D02*
X14137857Y-10455714D01*
X14137857Y-10455714D02*
X14147381Y-10417619D01*
X14147381Y-10417619D02*
X14156905Y-10398571D01*
X14156905Y-10398571D02*
X14166429Y-10389048D01*
X14166429Y-10389048D02*
X14185476Y-10379524D01*
X14337857Y-10560476D02*
X14347381Y-10570000D01*
X14347381Y-10570000D02*
X14337857Y-10579524D01*
X14337857Y-10579524D02*
X14328333Y-10570000D01*
X14328333Y-10570000D02*
X14337857Y-10560476D01*
X14337857Y-10560476D02*
X14337857Y-10579524D01*
X14471191Y-10379524D02*
X14490238Y-10379524D01*
X14490238Y-10379524D02*
X14509286Y-10389048D01*
X14509286Y-10389048D02*
X14518810Y-10398571D01*
X14518810Y-10398571D02*
X14528333Y-10417619D01*
X14528333Y-10417619D02*
X14537857Y-10455714D01*
X14537857Y-10455714D02*
X14537857Y-10503333D01*
X14537857Y-10503333D02*
X14528333Y-10541429D01*
X14528333Y-10541429D02*
X14518810Y-10560476D01*
X14518810Y-10560476D02*
X14509286Y-10570000D01*
X14509286Y-10570000D02*
X14490238Y-10579524D01*
X14490238Y-10579524D02*
X14471191Y-10579524D01*
X14471191Y-10579524D02*
X14452143Y-10570000D01*
X14452143Y-10570000D02*
X14442619Y-10560476D01*
X14442619Y-10560476D02*
X14433095Y-10541429D01*
X14433095Y-10541429D02*
X14423572Y-10503333D01*
X14423572Y-10503333D02*
X14423572Y-10455714D01*
X14423572Y-10455714D02*
X14433095Y-10417619D01*
X14433095Y-10417619D02*
X14442619Y-10398571D01*
X14442619Y-10398571D02*
X14452143Y-10389048D01*
X14452143Y-10389048D02*
X14471191Y-10379524D01*
X14614048Y-10398571D02*
X14623572Y-10389048D01*
X14623572Y-10389048D02*
X14642619Y-10379524D01*
X14642619Y-10379524D02*
X14690238Y-10379524D01*
X14690238Y-10379524D02*
X14709286Y-10389048D01*
X14709286Y-10389048D02*
X14718810Y-10398571D01*
X14718810Y-10398571D02*
X14728333Y-10417619D01*
X14728333Y-10417619D02*
X14728333Y-10436667D01*
X14728333Y-10436667D02*
X14718810Y-10465238D01*
X14718810Y-10465238D02*
X14604524Y-10579524D01*
X14604524Y-10579524D02*
X14728333Y-10579524D01*
X14909286Y-10379524D02*
X14814048Y-10379524D01*
X14814048Y-10379524D02*
X14804524Y-10474762D01*
X14804524Y-10474762D02*
X14814048Y-10465238D01*
X14814048Y-10465238D02*
X14833095Y-10455714D01*
X14833095Y-10455714D02*
X14880714Y-10455714D01*
X14880714Y-10455714D02*
X14899762Y-10465238D01*
X14899762Y-10465238D02*
X14909286Y-10474762D01*
X14909286Y-10474762D02*
X14918810Y-10493810D01*
X14918810Y-10493810D02*
X14918810Y-10541429D01*
X14918810Y-10541429D02*
X14909286Y-10560476D01*
X14909286Y-10560476D02*
X14899762Y-10570000D01*
X14899762Y-10570000D02*
X14880714Y-10579524D01*
X14880714Y-10579524D02*
X14833095Y-10579524D01*
X14833095Y-10579524D02*
X14814048Y-10570000D01*
X14814048Y-10570000D02*
X14804524Y-10560476D01*
X15090238Y-10379524D02*
X15052143Y-10379524D01*
X15052143Y-10379524D02*
X15033095Y-10389048D01*
X15033095Y-10389048D02*
X15023572Y-10398571D01*
X15023572Y-10398571D02*
X15004524Y-10427143D01*
X15004524Y-10427143D02*
X14995000Y-10465238D01*
X14995000Y-10465238D02*
X14995000Y-10541429D01*
X14995000Y-10541429D02*
X15004524Y-10560476D01*
X15004524Y-10560476D02*
X15014048Y-10570000D01*
X15014048Y-10570000D02*
X15033095Y-10579524D01*
X15033095Y-10579524D02*
X15071191Y-10579524D01*
X15071191Y-10579524D02*
X15090238Y-10570000D01*
X15090238Y-10570000D02*
X15099762Y-10560476D01*
X15099762Y-10560476D02*
X15109286Y-10541429D01*
X15109286Y-10541429D02*
X15109286Y-10493810D01*
X15109286Y-10493810D02*
X15099762Y-10474762D01*
X15099762Y-10474762D02*
X15090238Y-10465238D01*
X15090238Y-10465238D02*
X15071191Y-10455714D01*
X15071191Y-10455714D02*
X15033095Y-10455714D01*
X15033095Y-10455714D02*
X15014048Y-10465238D01*
X15014048Y-10465238D02*
X15004524Y-10474762D01*
X15004524Y-10474762D02*
X14995000Y-10493810D01*
X15185476Y-10379524D02*
X15185476Y-10417619D01*
X15261667Y-10379524D02*
X15261667Y-10417619D01*
X15556905Y-10655714D02*
X15547381Y-10646190D01*
X15547381Y-10646190D02*
X15528334Y-10617619D01*
X15528334Y-10617619D02*
X15518810Y-10598571D01*
X15518810Y-10598571D02*
X15509286Y-10570000D01*
X15509286Y-10570000D02*
X15499762Y-10522381D01*
X15499762Y-10522381D02*
X15499762Y-10484286D01*
X15499762Y-10484286D02*
X15509286Y-10436667D01*
X15509286Y-10436667D02*
X15518810Y-10408095D01*
X15518810Y-10408095D02*
X15528334Y-10389048D01*
X15528334Y-10389048D02*
X15547381Y-10360476D01*
X15547381Y-10360476D02*
X15556905Y-10350952D01*
X15718810Y-10379524D02*
X15680714Y-10379524D01*
X15680714Y-10379524D02*
X15661667Y-10389048D01*
X15661667Y-10389048D02*
X15652143Y-10398571D01*
X15652143Y-10398571D02*
X15633095Y-10427143D01*
X15633095Y-10427143D02*
X15623572Y-10465238D01*
X15623572Y-10465238D02*
X15623572Y-10541429D01*
X15623572Y-10541429D02*
X15633095Y-10560476D01*
X15633095Y-10560476D02*
X15642619Y-10570000D01*
X15642619Y-10570000D02*
X15661667Y-10579524D01*
X15661667Y-10579524D02*
X15699762Y-10579524D01*
X15699762Y-10579524D02*
X15718810Y-10570000D01*
X15718810Y-10570000D02*
X15728334Y-10560476D01*
X15728334Y-10560476D02*
X15737857Y-10541429D01*
X15737857Y-10541429D02*
X15737857Y-10493810D01*
X15737857Y-10493810D02*
X15728334Y-10474762D01*
X15728334Y-10474762D02*
X15718810Y-10465238D01*
X15718810Y-10465238D02*
X15699762Y-10455714D01*
X15699762Y-10455714D02*
X15661667Y-10455714D01*
X15661667Y-10455714D02*
X15642619Y-10465238D01*
X15642619Y-10465238D02*
X15633095Y-10474762D01*
X15633095Y-10474762D02*
X15623572Y-10493810D01*
X15975953Y-10579524D02*
X15975953Y-10379524D01*
X16061667Y-10579524D02*
X16061667Y-10474762D01*
X16061667Y-10474762D02*
X16052143Y-10455714D01*
X16052143Y-10455714D02*
X16033096Y-10446190D01*
X16033096Y-10446190D02*
X16004524Y-10446190D01*
X16004524Y-10446190D02*
X15985476Y-10455714D01*
X15985476Y-10455714D02*
X15975953Y-10465238D01*
X16185476Y-10579524D02*
X16166429Y-10570000D01*
X16166429Y-10570000D02*
X16156905Y-10560476D01*
X16156905Y-10560476D02*
X16147381Y-10541429D01*
X16147381Y-10541429D02*
X16147381Y-10484286D01*
X16147381Y-10484286D02*
X16156905Y-10465238D01*
X16156905Y-10465238D02*
X16166429Y-10455714D01*
X16166429Y-10455714D02*
X16185476Y-10446190D01*
X16185476Y-10446190D02*
X16214048Y-10446190D01*
X16214048Y-10446190D02*
X16233096Y-10455714D01*
X16233096Y-10455714D02*
X16242619Y-10465238D01*
X16242619Y-10465238D02*
X16252143Y-10484286D01*
X16252143Y-10484286D02*
X16252143Y-10541429D01*
X16252143Y-10541429D02*
X16242619Y-10560476D01*
X16242619Y-10560476D02*
X16233096Y-10570000D01*
X16233096Y-10570000D02*
X16214048Y-10579524D01*
X16214048Y-10579524D02*
X16185476Y-10579524D01*
X16366429Y-10579524D02*
X16347381Y-10570000D01*
X16347381Y-10570000D02*
X16337857Y-10550952D01*
X16337857Y-10550952D02*
X16337857Y-10379524D01*
X16518810Y-10570000D02*
X16499762Y-10579524D01*
X16499762Y-10579524D02*
X16461667Y-10579524D01*
X16461667Y-10579524D02*
X16442619Y-10570000D01*
X16442619Y-10570000D02*
X16433096Y-10550952D01*
X16433096Y-10550952D02*
X16433096Y-10474762D01*
X16433096Y-10474762D02*
X16442619Y-10455714D01*
X16442619Y-10455714D02*
X16461667Y-10446190D01*
X16461667Y-10446190D02*
X16499762Y-10446190D01*
X16499762Y-10446190D02*
X16518810Y-10455714D01*
X16518810Y-10455714D02*
X16528334Y-10474762D01*
X16528334Y-10474762D02*
X16528334Y-10493810D01*
X16528334Y-10493810D02*
X16433096Y-10512857D01*
X16604524Y-10570000D02*
X16623572Y-10579524D01*
X16623572Y-10579524D02*
X16661667Y-10579524D01*
X16661667Y-10579524D02*
X16680715Y-10570000D01*
X16680715Y-10570000D02*
X16690238Y-10550952D01*
X16690238Y-10550952D02*
X16690238Y-10541429D01*
X16690238Y-10541429D02*
X16680715Y-10522381D01*
X16680715Y-10522381D02*
X16661667Y-10512857D01*
X16661667Y-10512857D02*
X16633096Y-10512857D01*
X16633096Y-10512857D02*
X16614048Y-10503333D01*
X16614048Y-10503333D02*
X16604524Y-10484286D01*
X16604524Y-10484286D02*
X16604524Y-10474762D01*
X16604524Y-10474762D02*
X16614048Y-10455714D01*
X16614048Y-10455714D02*
X16633096Y-10446190D01*
X16633096Y-10446190D02*
X16661667Y-10446190D01*
X16661667Y-10446190D02*
X16680715Y-10455714D01*
X16756905Y-10655714D02*
X16766429Y-10646190D01*
X16766429Y-10646190D02*
X16785477Y-10617619D01*
X16785477Y-10617619D02*
X16795000Y-10598571D01*
X16795000Y-10598571D02*
X16804524Y-10570000D01*
X16804524Y-10570000D02*
X16814048Y-10522381D01*
X16814048Y-10522381D02*
X16814048Y-10484286D01*
X16814048Y-10484286D02*
X16804524Y-10436667D01*
X16804524Y-10436667D02*
X16795000Y-10408095D01*
X16795000Y-10408095D02*
X16785477Y-10389048D01*
X16785477Y-10389048D02*
X16766429Y-10360476D01*
X16766429Y-10360476D02*
X16756905Y-10350952D01*
D16*
X11947500Y-10798500D02*
X11995000Y-10751000D01*
X11947500Y-10703500D01*
X11900000Y-10751000D01*
X11947500Y-10798500D01*
D11*
X12280714Y-10643524D02*
X12299762Y-10643524D01*
X12299762Y-10643524D02*
X12318809Y-10653048D01*
X12318809Y-10653048D02*
X12328333Y-10662571D01*
X12328333Y-10662571D02*
X12337857Y-10681619D01*
X12337857Y-10681619D02*
X12347381Y-10719714D01*
X12347381Y-10719714D02*
X12347381Y-10767333D01*
X12347381Y-10767333D02*
X12337857Y-10805429D01*
X12337857Y-10805429D02*
X12328333Y-10824476D01*
X12328333Y-10824476D02*
X12318809Y-10834000D01*
X12318809Y-10834000D02*
X12299762Y-10843524D01*
X12299762Y-10843524D02*
X12280714Y-10843524D01*
X12280714Y-10843524D02*
X12261667Y-10834000D01*
X12261667Y-10834000D02*
X12252143Y-10824476D01*
X12252143Y-10824476D02*
X12242619Y-10805429D01*
X12242619Y-10805429D02*
X12233095Y-10767333D01*
X12233095Y-10767333D02*
X12233095Y-10719714D01*
X12233095Y-10719714D02*
X12242619Y-10681619D01*
X12242619Y-10681619D02*
X12252143Y-10662571D01*
X12252143Y-10662571D02*
X12261667Y-10653048D01*
X12261667Y-10653048D02*
X12280714Y-10643524D01*
X12433095Y-10824476D02*
X12442619Y-10834000D01*
X12442619Y-10834000D02*
X12433095Y-10843524D01*
X12433095Y-10843524D02*
X12423571Y-10834000D01*
X12423571Y-10834000D02*
X12433095Y-10824476D01*
X12433095Y-10824476D02*
X12433095Y-10843524D01*
X12537857Y-10843524D02*
X12575952Y-10843524D01*
X12575952Y-10843524D02*
X12595000Y-10834000D01*
X12595000Y-10834000D02*
X12604524Y-10824476D01*
X12604524Y-10824476D02*
X12623571Y-10795905D01*
X12623571Y-10795905D02*
X12633095Y-10757810D01*
X12633095Y-10757810D02*
X12633095Y-10681619D01*
X12633095Y-10681619D02*
X12623571Y-10662571D01*
X12623571Y-10662571D02*
X12614048Y-10653048D01*
X12614048Y-10653048D02*
X12595000Y-10643524D01*
X12595000Y-10643524D02*
X12556905Y-10643524D01*
X12556905Y-10643524D02*
X12537857Y-10653048D01*
X12537857Y-10653048D02*
X12528333Y-10662571D01*
X12528333Y-10662571D02*
X12518809Y-10681619D01*
X12518809Y-10681619D02*
X12518809Y-10729238D01*
X12518809Y-10729238D02*
X12528333Y-10748286D01*
X12528333Y-10748286D02*
X12537857Y-10757810D01*
X12537857Y-10757810D02*
X12556905Y-10767333D01*
X12556905Y-10767333D02*
X12595000Y-10767333D01*
X12595000Y-10767333D02*
X12614048Y-10757810D01*
X12614048Y-10757810D02*
X12623571Y-10748286D01*
X12623571Y-10748286D02*
X12633095Y-10729238D01*
X12814048Y-10643524D02*
X12718809Y-10643524D01*
X12718809Y-10643524D02*
X12709286Y-10738762D01*
X12709286Y-10738762D02*
X12718809Y-10729238D01*
X12718809Y-10729238D02*
X12737857Y-10719714D01*
X12737857Y-10719714D02*
X12785476Y-10719714D01*
X12785476Y-10719714D02*
X12804524Y-10729238D01*
X12804524Y-10729238D02*
X12814048Y-10738762D01*
X12814048Y-10738762D02*
X12823571Y-10757810D01*
X12823571Y-10757810D02*
X12823571Y-10805429D01*
X12823571Y-10805429D02*
X12814048Y-10824476D01*
X12814048Y-10824476D02*
X12804524Y-10834000D01*
X12804524Y-10834000D02*
X12785476Y-10843524D01*
X12785476Y-10843524D02*
X12737857Y-10843524D01*
X12737857Y-10843524D02*
X12718809Y-10834000D01*
X12718809Y-10834000D02*
X12709286Y-10824476D01*
X12947381Y-10643524D02*
X12966429Y-10643524D01*
X12966429Y-10643524D02*
X12985476Y-10653048D01*
X12985476Y-10653048D02*
X12995000Y-10662571D01*
X12995000Y-10662571D02*
X13004524Y-10681619D01*
X13004524Y-10681619D02*
X13014048Y-10719714D01*
X13014048Y-10719714D02*
X13014048Y-10767333D01*
X13014048Y-10767333D02*
X13004524Y-10805429D01*
X13004524Y-10805429D02*
X12995000Y-10824476D01*
X12995000Y-10824476D02*
X12985476Y-10834000D01*
X12985476Y-10834000D02*
X12966429Y-10843524D01*
X12966429Y-10843524D02*
X12947381Y-10843524D01*
X12947381Y-10843524D02*
X12928333Y-10834000D01*
X12928333Y-10834000D02*
X12918809Y-10824476D01*
X12918809Y-10824476D02*
X12909286Y-10805429D01*
X12909286Y-10805429D02*
X12899762Y-10767333D01*
X12899762Y-10767333D02*
X12899762Y-10719714D01*
X12899762Y-10719714D02*
X12909286Y-10681619D01*
X12909286Y-10681619D02*
X12918809Y-10662571D01*
X12918809Y-10662571D02*
X12928333Y-10653048D01*
X12928333Y-10653048D02*
X12947381Y-10643524D01*
X13099762Y-10843524D02*
X13099762Y-10710190D01*
X13099762Y-10729238D02*
X13109286Y-10719714D01*
X13109286Y-10719714D02*
X13128333Y-10710190D01*
X13128333Y-10710190D02*
X13156905Y-10710190D01*
X13156905Y-10710190D02*
X13175952Y-10719714D01*
X13175952Y-10719714D02*
X13185476Y-10738762D01*
X13185476Y-10738762D02*
X13185476Y-10843524D01*
X13185476Y-10738762D02*
X13195000Y-10719714D01*
X13195000Y-10719714D02*
X13214048Y-10710190D01*
X13214048Y-10710190D02*
X13242619Y-10710190D01*
X13242619Y-10710190D02*
X13261667Y-10719714D01*
X13261667Y-10719714D02*
X13271190Y-10738762D01*
X13271190Y-10738762D02*
X13271190Y-10843524D01*
X13366429Y-10843524D02*
X13366429Y-10710190D01*
X13366429Y-10729238D02*
X13375952Y-10719714D01*
X13375952Y-10719714D02*
X13395000Y-10710190D01*
X13395000Y-10710190D02*
X13423571Y-10710190D01*
X13423571Y-10710190D02*
X13442619Y-10719714D01*
X13442619Y-10719714D02*
X13452143Y-10738762D01*
X13452143Y-10738762D02*
X13452143Y-10843524D01*
X13452143Y-10738762D02*
X13461667Y-10719714D01*
X13461667Y-10719714D02*
X13480714Y-10710190D01*
X13480714Y-10710190D02*
X13509286Y-10710190D01*
X13509286Y-10710190D02*
X13528333Y-10719714D01*
X13528333Y-10719714D02*
X13537857Y-10738762D01*
X13537857Y-10738762D02*
X13537857Y-10843524D01*
X13928333Y-10634000D02*
X13756905Y-10891143D01*
X14185476Y-10643524D02*
X14204524Y-10643524D01*
X14204524Y-10643524D02*
X14223572Y-10653048D01*
X14223572Y-10653048D02*
X14233095Y-10662571D01*
X14233095Y-10662571D02*
X14242619Y-10681619D01*
X14242619Y-10681619D02*
X14252143Y-10719714D01*
X14252143Y-10719714D02*
X14252143Y-10767333D01*
X14252143Y-10767333D02*
X14242619Y-10805429D01*
X14242619Y-10805429D02*
X14233095Y-10824476D01*
X14233095Y-10824476D02*
X14223572Y-10834000D01*
X14223572Y-10834000D02*
X14204524Y-10843524D01*
X14204524Y-10843524D02*
X14185476Y-10843524D01*
X14185476Y-10843524D02*
X14166429Y-10834000D01*
X14166429Y-10834000D02*
X14156905Y-10824476D01*
X14156905Y-10824476D02*
X14147381Y-10805429D01*
X14147381Y-10805429D02*
X14137857Y-10767333D01*
X14137857Y-10767333D02*
X14137857Y-10719714D01*
X14137857Y-10719714D02*
X14147381Y-10681619D01*
X14147381Y-10681619D02*
X14156905Y-10662571D01*
X14156905Y-10662571D02*
X14166429Y-10653048D01*
X14166429Y-10653048D02*
X14185476Y-10643524D01*
X14337857Y-10824476D02*
X14347381Y-10834000D01*
X14347381Y-10834000D02*
X14337857Y-10843524D01*
X14337857Y-10843524D02*
X14328333Y-10834000D01*
X14328333Y-10834000D02*
X14337857Y-10824476D01*
X14337857Y-10824476D02*
X14337857Y-10843524D01*
X14471191Y-10643524D02*
X14490238Y-10643524D01*
X14490238Y-10643524D02*
X14509286Y-10653048D01*
X14509286Y-10653048D02*
X14518810Y-10662571D01*
X14518810Y-10662571D02*
X14528333Y-10681619D01*
X14528333Y-10681619D02*
X14537857Y-10719714D01*
X14537857Y-10719714D02*
X14537857Y-10767333D01*
X14537857Y-10767333D02*
X14528333Y-10805429D01*
X14528333Y-10805429D02*
X14518810Y-10824476D01*
X14518810Y-10824476D02*
X14509286Y-10834000D01*
X14509286Y-10834000D02*
X14490238Y-10843524D01*
X14490238Y-10843524D02*
X14471191Y-10843524D01*
X14471191Y-10843524D02*
X14452143Y-10834000D01*
X14452143Y-10834000D02*
X14442619Y-10824476D01*
X14442619Y-10824476D02*
X14433095Y-10805429D01*
X14433095Y-10805429D02*
X14423572Y-10767333D01*
X14423572Y-10767333D02*
X14423572Y-10719714D01*
X14423572Y-10719714D02*
X14433095Y-10681619D01*
X14433095Y-10681619D02*
X14442619Y-10662571D01*
X14442619Y-10662571D02*
X14452143Y-10653048D01*
X14452143Y-10653048D02*
X14471191Y-10643524D01*
X14604524Y-10643524D02*
X14728333Y-10643524D01*
X14728333Y-10643524D02*
X14661667Y-10719714D01*
X14661667Y-10719714D02*
X14690238Y-10719714D01*
X14690238Y-10719714D02*
X14709286Y-10729238D01*
X14709286Y-10729238D02*
X14718810Y-10738762D01*
X14718810Y-10738762D02*
X14728333Y-10757810D01*
X14728333Y-10757810D02*
X14728333Y-10805429D01*
X14728333Y-10805429D02*
X14718810Y-10824476D01*
X14718810Y-10824476D02*
X14709286Y-10834000D01*
X14709286Y-10834000D02*
X14690238Y-10843524D01*
X14690238Y-10843524D02*
X14633095Y-10843524D01*
X14633095Y-10843524D02*
X14614048Y-10834000D01*
X14614048Y-10834000D02*
X14604524Y-10824476D01*
X14795000Y-10643524D02*
X14928333Y-10643524D01*
X14928333Y-10643524D02*
X14842619Y-10843524D01*
X15090238Y-10710190D02*
X15090238Y-10843524D01*
X15042619Y-10634000D02*
X14995000Y-10776857D01*
X14995000Y-10776857D02*
X15118810Y-10776857D01*
X15185476Y-10643524D02*
X15185476Y-10681619D01*
X15261667Y-10643524D02*
X15261667Y-10681619D01*
X15556905Y-10919714D02*
X15547381Y-10910190D01*
X15547381Y-10910190D02*
X15528334Y-10881619D01*
X15528334Y-10881619D02*
X15518810Y-10862571D01*
X15518810Y-10862571D02*
X15509286Y-10834000D01*
X15509286Y-10834000D02*
X15499762Y-10786381D01*
X15499762Y-10786381D02*
X15499762Y-10748286D01*
X15499762Y-10748286D02*
X15509286Y-10700667D01*
X15509286Y-10700667D02*
X15518810Y-10672095D01*
X15518810Y-10672095D02*
X15528334Y-10653048D01*
X15528334Y-10653048D02*
X15547381Y-10624476D01*
X15547381Y-10624476D02*
X15556905Y-10614952D01*
X15614048Y-10643524D02*
X15737857Y-10643524D01*
X15737857Y-10643524D02*
X15671191Y-10719714D01*
X15671191Y-10719714D02*
X15699762Y-10719714D01*
X15699762Y-10719714D02*
X15718810Y-10729238D01*
X15718810Y-10729238D02*
X15728334Y-10738762D01*
X15728334Y-10738762D02*
X15737857Y-10757810D01*
X15737857Y-10757810D02*
X15737857Y-10805429D01*
X15737857Y-10805429D02*
X15728334Y-10824476D01*
X15728334Y-10824476D02*
X15718810Y-10834000D01*
X15718810Y-10834000D02*
X15699762Y-10843524D01*
X15699762Y-10843524D02*
X15642619Y-10843524D01*
X15642619Y-10843524D02*
X15623572Y-10834000D01*
X15623572Y-10834000D02*
X15614048Y-10824476D01*
X15975953Y-10843524D02*
X15975953Y-10643524D01*
X16061667Y-10843524D02*
X16061667Y-10738762D01*
X16061667Y-10738762D02*
X16052143Y-10719714D01*
X16052143Y-10719714D02*
X16033096Y-10710190D01*
X16033096Y-10710190D02*
X16004524Y-10710190D01*
X16004524Y-10710190D02*
X15985476Y-10719714D01*
X15985476Y-10719714D02*
X15975953Y-10729238D01*
X16185476Y-10843524D02*
X16166429Y-10834000D01*
X16166429Y-10834000D02*
X16156905Y-10824476D01*
X16156905Y-10824476D02*
X16147381Y-10805429D01*
X16147381Y-10805429D02*
X16147381Y-10748286D01*
X16147381Y-10748286D02*
X16156905Y-10729238D01*
X16156905Y-10729238D02*
X16166429Y-10719714D01*
X16166429Y-10719714D02*
X16185476Y-10710190D01*
X16185476Y-10710190D02*
X16214048Y-10710190D01*
X16214048Y-10710190D02*
X16233096Y-10719714D01*
X16233096Y-10719714D02*
X16242619Y-10729238D01*
X16242619Y-10729238D02*
X16252143Y-10748286D01*
X16252143Y-10748286D02*
X16252143Y-10805429D01*
X16252143Y-10805429D02*
X16242619Y-10824476D01*
X16242619Y-10824476D02*
X16233096Y-10834000D01*
X16233096Y-10834000D02*
X16214048Y-10843524D01*
X16214048Y-10843524D02*
X16185476Y-10843524D01*
X16366429Y-10843524D02*
X16347381Y-10834000D01*
X16347381Y-10834000D02*
X16337857Y-10814952D01*
X16337857Y-10814952D02*
X16337857Y-10643524D01*
X16518810Y-10834000D02*
X16499762Y-10843524D01*
X16499762Y-10843524D02*
X16461667Y-10843524D01*
X16461667Y-10843524D02*
X16442619Y-10834000D01*
X16442619Y-10834000D02*
X16433096Y-10814952D01*
X16433096Y-10814952D02*
X16433096Y-10738762D01*
X16433096Y-10738762D02*
X16442619Y-10719714D01*
X16442619Y-10719714D02*
X16461667Y-10710190D01*
X16461667Y-10710190D02*
X16499762Y-10710190D01*
X16499762Y-10710190D02*
X16518810Y-10719714D01*
X16518810Y-10719714D02*
X16528334Y-10738762D01*
X16528334Y-10738762D02*
X16528334Y-10757810D01*
X16528334Y-10757810D02*
X16433096Y-10776857D01*
X16604524Y-10834000D02*
X16623572Y-10843524D01*
X16623572Y-10843524D02*
X16661667Y-10843524D01*
X16661667Y-10843524D02*
X16680715Y-10834000D01*
X16680715Y-10834000D02*
X16690238Y-10814952D01*
X16690238Y-10814952D02*
X16690238Y-10805429D01*
X16690238Y-10805429D02*
X16680715Y-10786381D01*
X16680715Y-10786381D02*
X16661667Y-10776857D01*
X16661667Y-10776857D02*
X16633096Y-10776857D01*
X16633096Y-10776857D02*
X16614048Y-10767333D01*
X16614048Y-10767333D02*
X16604524Y-10748286D01*
X16604524Y-10748286D02*
X16604524Y-10738762D01*
X16604524Y-10738762D02*
X16614048Y-10719714D01*
X16614048Y-10719714D02*
X16633096Y-10710190D01*
X16633096Y-10710190D02*
X16661667Y-10710190D01*
X16661667Y-10710190D02*
X16680715Y-10719714D01*
X16756905Y-10919714D02*
X16766429Y-10910190D01*
X16766429Y-10910190D02*
X16785477Y-10881619D01*
X16785477Y-10881619D02*
X16795000Y-10862571D01*
X16795000Y-10862571D02*
X16804524Y-10834000D01*
X16804524Y-10834000D02*
X16814048Y-10786381D01*
X16814048Y-10786381D02*
X16814048Y-10748286D01*
X16814048Y-10748286D02*
X16804524Y-10700667D01*
X16804524Y-10700667D02*
X16795000Y-10672095D01*
X16795000Y-10672095D02*
X16785477Y-10653048D01*
X16785477Y-10653048D02*
X16766429Y-10624476D01*
X16766429Y-10624476D02*
X16756905Y-10614952D01*
M02*
