%TF.GenerationSoftware,KiCad,Pcbnew,7.0.5-7.0.5~ubuntu22.04.1*%
%TF.CreationDate,2023-06-05T10:06:50+02:00*%
%TF.ProjectId,BatMon,4261744d-6f6e-42e6-9b69-6361645f7063,rev?*%
%TF.SameCoordinates,Original*%
%TF.FileFunction,Drillmap*%
%TF.FilePolarity,Positive*%
%FSLAX45Y45*%
G04 Gerber Fmt 4.5, Leading zero omitted, Abs format (unit mm)*
G04 Created by KiCad (PCBNEW 7.0.5-7.0.5~ubuntu22.04.1) date 2023-06-05 10:06:50*
%MOMM*%
%LPD*%
G01*
G04 APERTURE LIST*
%ADD10C,0.100000*%
%ADD11C,0.200000*%
%ADD12C,0.030000*%
%ADD13C,0.040000*%
%ADD14C,0.060000*%
%ADD15C,0.065000*%
%ADD16C,0.095000*%
G04 APERTURE END LIST*
D10*
X14400000Y-5700000D02*
G75*
G03*
X14250000Y-5550000I-150000J0D01*
G01*
X14400000Y-8900000D02*
X14400000Y-8750000D01*
X12000000Y-8900000D02*
G75*
G03*
X12150000Y-9050000I150000J0D01*
G01*
X12150000Y-5550000D02*
G75*
G03*
X12000000Y-5700000I0J-150000D01*
G01*
X12150000Y-9050000D02*
X14250000Y-9050000D01*
X14250000Y-9050000D02*
G75*
G03*
X14400000Y-8900000I0J150000D01*
G01*
X14250000Y-5550000D02*
X12150000Y-5550000D01*
X14400000Y-7050000D02*
X14400000Y-5700000D01*
X12000000Y-5700000D02*
X12000000Y-8900000D01*
D11*
D12*
X12903000Y-6402000D02*
X12933000Y-6432000D01*
X12933000Y-6402000D02*
X12903000Y-6432000D01*
X12903000Y-6542000D02*
X12933000Y-6572000D01*
X12933000Y-6542000D02*
X12903000Y-6572000D01*
X12973000Y-6332000D02*
X13003000Y-6362000D01*
X13003000Y-6332000D02*
X12973000Y-6362000D01*
X12973000Y-6472000D02*
X13003000Y-6502000D01*
X13003000Y-6472000D02*
X12973000Y-6502000D01*
X12973000Y-6612000D02*
X13003000Y-6642000D01*
X13003000Y-6612000D02*
X12973000Y-6642000D01*
X13040500Y-6402000D02*
X13070500Y-6432000D01*
X13070500Y-6402000D02*
X13040500Y-6432000D01*
X13040500Y-6542000D02*
X13070500Y-6572000D01*
X13070500Y-6542000D02*
X13040500Y-6572000D01*
X13113000Y-6332000D02*
X13143000Y-6362000D01*
X13143000Y-6332000D02*
X13113000Y-6362000D01*
X13113000Y-6472000D02*
X13143000Y-6502000D01*
X13143000Y-6472000D02*
X13113000Y-6502000D01*
X13113000Y-6612000D02*
X13143000Y-6642000D01*
X13143000Y-6612000D02*
X13113000Y-6642000D01*
X13183000Y-6402000D02*
X13213000Y-6432000D01*
X13213000Y-6402000D02*
X13183000Y-6432000D01*
X13183000Y-6542000D02*
X13213000Y-6572000D01*
X13213000Y-6542000D02*
X13183000Y-6572000D01*
D13*
X12148500Y-6159500D02*
G75*
G03*
X12148500Y-6159500I-20000J0D01*
G01*
X12529500Y-5715000D02*
G75*
G03*
X12529500Y-5715000I-20000J0D01*
G01*
X12529500Y-5842000D02*
G75*
G03*
X12529500Y-5842000I-20000J0D01*
G01*
X12529500Y-5969000D02*
G75*
G03*
X12529500Y-5969000I-20000J0D01*
G01*
X12529500Y-6350000D02*
G75*
G03*
X12529500Y-6350000I-20000J0D01*
G01*
X12656500Y-7302500D02*
G75*
G03*
X12656500Y-7302500I-20000J0D01*
G01*
X12656500Y-8064500D02*
G75*
G03*
X12656500Y-8064500I-20000J0D01*
G01*
X12720000Y-6350000D02*
G75*
G03*
X12720000Y-6350000I-20000J0D01*
G01*
X12910500Y-7692450D02*
G75*
G03*
X12910500Y-7692450I-20000J0D01*
G01*
X12974000Y-6794500D02*
G75*
G03*
X12974000Y-6794500I-20000J0D01*
G01*
X13037500Y-8636000D02*
G75*
G03*
X13037500Y-8636000I-20000J0D01*
G01*
X13101000Y-7683500D02*
G75*
G03*
X13101000Y-7683500I-20000J0D01*
G01*
X13101000Y-8382000D02*
G75*
G03*
X13101000Y-8382000I-20000J0D01*
G01*
X13418500Y-6350000D02*
G75*
G03*
X13418500Y-6350000I-20000J0D01*
G01*
X13482000Y-7302500D02*
G75*
G03*
X13482000Y-7302500I-20000J0D01*
G01*
X13545500Y-6350000D02*
G75*
G03*
X13545500Y-6350000I-20000J0D01*
G01*
X13736000Y-7175500D02*
G75*
G03*
X13736000Y-7175500I-20000J0D01*
G01*
X13799500Y-6350000D02*
G75*
G03*
X13799500Y-6350000I-20000J0D01*
G01*
X13863000Y-7175500D02*
G75*
G03*
X13863000Y-7175500I-20000J0D01*
G01*
X13926500Y-5969000D02*
G75*
G03*
X13926500Y-5969000I-20000J0D01*
G01*
X13926500Y-6350000D02*
G75*
G03*
X13926500Y-6350000I-20000J0D01*
G01*
X14053500Y-8064500D02*
G75*
G03*
X14053500Y-8064500I-20000J0D01*
G01*
X14053500Y-8191500D02*
G75*
G03*
X14053500Y-8191500I-20000J0D01*
G01*
X14117000Y-7556500D02*
G75*
G03*
X14117000Y-7556500I-20000J0D01*
G01*
X14307500Y-5715000D02*
G75*
G03*
X14307500Y-5715000I-20000J0D01*
G01*
X14307500Y-7493000D02*
G75*
G03*
X14307500Y-7493000I-20000J0D01*
G01*
D14*
X14600000Y-7235000D02*
X14600000Y-7295000D01*
X14570000Y-7265000D02*
X14630000Y-7265000D01*
X14600000Y-7489000D02*
X14600000Y-7549000D01*
X14570000Y-7519000D02*
X14630000Y-7519000D01*
X14600000Y-7743000D02*
X14600000Y-7803000D01*
X14570000Y-7773000D02*
X14630000Y-7773000D01*
X14600000Y-7997000D02*
X14600000Y-8057000D01*
X14570000Y-8027000D02*
X14630000Y-8027000D01*
X14600000Y-8251000D02*
X14600000Y-8311000D01*
X14570000Y-8281000D02*
X14630000Y-8281000D01*
X14600000Y-8505000D02*
X14600000Y-8565000D01*
X14570000Y-8535000D02*
X14630000Y-8535000D01*
D15*
X14310481Y-5864981D02*
X14310481Y-5819019D01*
X14264519Y-5819019D01*
X14264519Y-5864981D01*
X14310481Y-5864981D01*
X14310481Y-5991981D02*
X14310481Y-5946019D01*
X14264519Y-5946019D01*
X14264519Y-5991981D01*
X14310481Y-5991981D01*
X14310481Y-6118981D02*
X14310481Y-6073019D01*
X14264519Y-6073019D01*
X14264519Y-6118981D01*
X14310481Y-6118981D01*
X14310481Y-6245981D02*
X14310481Y-6200019D01*
X14264519Y-6200019D01*
X14264519Y-6245981D01*
X14310481Y-6245981D01*
X14310481Y-6372981D02*
X14310481Y-6327019D01*
X14264519Y-6327019D01*
X14264519Y-6372981D01*
X14310481Y-6372981D01*
X14310481Y-6499981D02*
X14310481Y-6454019D01*
X14264519Y-6454019D01*
X14264519Y-6499981D01*
X14310481Y-6499981D01*
D16*
X12323000Y-8493000D02*
X12370500Y-8445500D01*
X12323000Y-8398000D01*
X12275500Y-8445500D01*
X12323000Y-8493000D01*
X12573000Y-8493000D02*
X12620500Y-8445500D01*
X12573000Y-8398000D01*
X12525500Y-8445500D01*
X12573000Y-8493000D01*
X12823000Y-8493000D02*
X12870500Y-8445500D01*
X12823000Y-8398000D01*
X12775500Y-8445500D01*
X12823000Y-8493000D01*
D11*
X12255777Y-9366484D02*
X12255777Y-9166484D01*
X12255777Y-9166484D02*
X12303396Y-9166484D01*
X12303396Y-9166484D02*
X12331967Y-9176008D01*
X12331967Y-9176008D02*
X12351015Y-9195055D01*
X12351015Y-9195055D02*
X12360539Y-9214103D01*
X12360539Y-9214103D02*
X12370062Y-9252198D01*
X12370062Y-9252198D02*
X12370062Y-9280770D01*
X12370062Y-9280770D02*
X12360539Y-9318865D01*
X12360539Y-9318865D02*
X12351015Y-9337912D01*
X12351015Y-9337912D02*
X12331967Y-9356960D01*
X12331967Y-9356960D02*
X12303396Y-9366484D01*
X12303396Y-9366484D02*
X12255777Y-9366484D01*
X12455777Y-9366484D02*
X12455777Y-9233150D01*
X12455777Y-9271246D02*
X12465301Y-9252198D01*
X12465301Y-9252198D02*
X12474824Y-9242674D01*
X12474824Y-9242674D02*
X12493872Y-9233150D01*
X12493872Y-9233150D02*
X12512920Y-9233150D01*
X12579586Y-9366484D02*
X12579586Y-9233150D01*
X12579586Y-9166484D02*
X12570062Y-9176008D01*
X12570062Y-9176008D02*
X12579586Y-9185531D01*
X12579586Y-9185531D02*
X12589110Y-9176008D01*
X12589110Y-9176008D02*
X12579586Y-9166484D01*
X12579586Y-9166484D02*
X12579586Y-9185531D01*
X12703396Y-9366484D02*
X12684348Y-9356960D01*
X12684348Y-9356960D02*
X12674824Y-9337912D01*
X12674824Y-9337912D02*
X12674824Y-9166484D01*
X12808158Y-9366484D02*
X12789110Y-9356960D01*
X12789110Y-9356960D02*
X12779586Y-9337912D01*
X12779586Y-9337912D02*
X12779586Y-9166484D01*
X13036729Y-9366484D02*
X13036729Y-9166484D01*
X13036729Y-9166484D02*
X13103396Y-9309341D01*
X13103396Y-9309341D02*
X13170062Y-9166484D01*
X13170062Y-9166484D02*
X13170062Y-9366484D01*
X13351015Y-9366484D02*
X13351015Y-9261722D01*
X13351015Y-9261722D02*
X13341491Y-9242674D01*
X13341491Y-9242674D02*
X13322443Y-9233150D01*
X13322443Y-9233150D02*
X13284348Y-9233150D01*
X13284348Y-9233150D02*
X13265301Y-9242674D01*
X13351015Y-9356960D02*
X13331967Y-9366484D01*
X13331967Y-9366484D02*
X13284348Y-9366484D01*
X13284348Y-9366484D02*
X13265301Y-9356960D01*
X13265301Y-9356960D02*
X13255777Y-9337912D01*
X13255777Y-9337912D02*
X13255777Y-9318865D01*
X13255777Y-9318865D02*
X13265301Y-9299817D01*
X13265301Y-9299817D02*
X13284348Y-9290293D01*
X13284348Y-9290293D02*
X13331967Y-9290293D01*
X13331967Y-9290293D02*
X13351015Y-9280770D01*
X13446253Y-9233150D02*
X13446253Y-9433150D01*
X13446253Y-9242674D02*
X13465301Y-9233150D01*
X13465301Y-9233150D02*
X13503396Y-9233150D01*
X13503396Y-9233150D02*
X13522443Y-9242674D01*
X13522443Y-9242674D02*
X13531967Y-9252198D01*
X13531967Y-9252198D02*
X13541491Y-9271246D01*
X13541491Y-9271246D02*
X13541491Y-9328389D01*
X13541491Y-9328389D02*
X13531967Y-9347436D01*
X13531967Y-9347436D02*
X13522443Y-9356960D01*
X13522443Y-9356960D02*
X13503396Y-9366484D01*
X13503396Y-9366484D02*
X13465301Y-9366484D01*
X13465301Y-9366484D02*
X13446253Y-9356960D01*
X13627205Y-9347436D02*
X13636729Y-9356960D01*
X13636729Y-9356960D02*
X13627205Y-9366484D01*
X13627205Y-9366484D02*
X13617682Y-9356960D01*
X13617682Y-9356960D02*
X13627205Y-9347436D01*
X13627205Y-9347436D02*
X13627205Y-9366484D01*
X13627205Y-9242674D02*
X13636729Y-9252198D01*
X13636729Y-9252198D02*
X13627205Y-9261722D01*
X13627205Y-9261722D02*
X13617682Y-9252198D01*
X13617682Y-9252198D02*
X13627205Y-9242674D01*
X13627205Y-9242674D02*
X13627205Y-9261722D01*
D12*
X11965000Y-9680000D02*
X11995000Y-9710000D01*
X11995000Y-9680000D02*
X11965000Y-9710000D01*
D11*
X12293872Y-9586484D02*
X12312920Y-9586484D01*
X12312920Y-9586484D02*
X12331967Y-9596008D01*
X12331967Y-9596008D02*
X12341491Y-9605531D01*
X12341491Y-9605531D02*
X12351015Y-9624579D01*
X12351015Y-9624579D02*
X12360539Y-9662674D01*
X12360539Y-9662674D02*
X12360539Y-9710293D01*
X12360539Y-9710293D02*
X12351015Y-9748389D01*
X12351015Y-9748389D02*
X12341491Y-9767436D01*
X12341491Y-9767436D02*
X12331967Y-9776960D01*
X12331967Y-9776960D02*
X12312920Y-9786484D01*
X12312920Y-9786484D02*
X12293872Y-9786484D01*
X12293872Y-9786484D02*
X12274824Y-9776960D01*
X12274824Y-9776960D02*
X12265301Y-9767436D01*
X12265301Y-9767436D02*
X12255777Y-9748389D01*
X12255777Y-9748389D02*
X12246253Y-9710293D01*
X12246253Y-9710293D02*
X12246253Y-9662674D01*
X12246253Y-9662674D02*
X12255777Y-9624579D01*
X12255777Y-9624579D02*
X12265301Y-9605531D01*
X12265301Y-9605531D02*
X12274824Y-9596008D01*
X12274824Y-9596008D02*
X12293872Y-9586484D01*
X12446253Y-9767436D02*
X12455777Y-9776960D01*
X12455777Y-9776960D02*
X12446253Y-9786484D01*
X12446253Y-9786484D02*
X12436729Y-9776960D01*
X12436729Y-9776960D02*
X12446253Y-9767436D01*
X12446253Y-9767436D02*
X12446253Y-9786484D01*
X12522443Y-9586484D02*
X12646253Y-9586484D01*
X12646253Y-9586484D02*
X12579586Y-9662674D01*
X12579586Y-9662674D02*
X12608158Y-9662674D01*
X12608158Y-9662674D02*
X12627205Y-9672198D01*
X12627205Y-9672198D02*
X12636729Y-9681722D01*
X12636729Y-9681722D02*
X12646253Y-9700770D01*
X12646253Y-9700770D02*
X12646253Y-9748389D01*
X12646253Y-9748389D02*
X12636729Y-9767436D01*
X12636729Y-9767436D02*
X12627205Y-9776960D01*
X12627205Y-9776960D02*
X12608158Y-9786484D01*
X12608158Y-9786484D02*
X12551015Y-9786484D01*
X12551015Y-9786484D02*
X12531967Y-9776960D01*
X12531967Y-9776960D02*
X12522443Y-9767436D01*
X12770062Y-9586484D02*
X12789110Y-9586484D01*
X12789110Y-9586484D02*
X12808158Y-9596008D01*
X12808158Y-9596008D02*
X12817682Y-9605531D01*
X12817682Y-9605531D02*
X12827205Y-9624579D01*
X12827205Y-9624579D02*
X12836729Y-9662674D01*
X12836729Y-9662674D02*
X12836729Y-9710293D01*
X12836729Y-9710293D02*
X12827205Y-9748389D01*
X12827205Y-9748389D02*
X12817682Y-9767436D01*
X12817682Y-9767436D02*
X12808158Y-9776960D01*
X12808158Y-9776960D02*
X12789110Y-9786484D01*
X12789110Y-9786484D02*
X12770062Y-9786484D01*
X12770062Y-9786484D02*
X12751015Y-9776960D01*
X12751015Y-9776960D02*
X12741491Y-9767436D01*
X12741491Y-9767436D02*
X12731967Y-9748389D01*
X12731967Y-9748389D02*
X12722443Y-9710293D01*
X12722443Y-9710293D02*
X12722443Y-9662674D01*
X12722443Y-9662674D02*
X12731967Y-9624579D01*
X12731967Y-9624579D02*
X12741491Y-9605531D01*
X12741491Y-9605531D02*
X12751015Y-9596008D01*
X12751015Y-9596008D02*
X12770062Y-9586484D01*
X12960539Y-9586484D02*
X12979586Y-9586484D01*
X12979586Y-9586484D02*
X12998634Y-9596008D01*
X12998634Y-9596008D02*
X13008158Y-9605531D01*
X13008158Y-9605531D02*
X13017682Y-9624579D01*
X13017682Y-9624579D02*
X13027205Y-9662674D01*
X13027205Y-9662674D02*
X13027205Y-9710293D01*
X13027205Y-9710293D02*
X13017682Y-9748389D01*
X13017682Y-9748389D02*
X13008158Y-9767436D01*
X13008158Y-9767436D02*
X12998634Y-9776960D01*
X12998634Y-9776960D02*
X12979586Y-9786484D01*
X12979586Y-9786484D02*
X12960539Y-9786484D01*
X12960539Y-9786484D02*
X12941491Y-9776960D01*
X12941491Y-9776960D02*
X12931967Y-9767436D01*
X12931967Y-9767436D02*
X12922443Y-9748389D01*
X12922443Y-9748389D02*
X12912920Y-9710293D01*
X12912920Y-9710293D02*
X12912920Y-9662674D01*
X12912920Y-9662674D02*
X12922443Y-9624579D01*
X12922443Y-9624579D02*
X12931967Y-9605531D01*
X12931967Y-9605531D02*
X12941491Y-9596008D01*
X12941491Y-9596008D02*
X12960539Y-9586484D01*
X13112920Y-9786484D02*
X13112920Y-9653150D01*
X13112920Y-9672198D02*
X13122443Y-9662674D01*
X13122443Y-9662674D02*
X13141491Y-9653150D01*
X13141491Y-9653150D02*
X13170063Y-9653150D01*
X13170063Y-9653150D02*
X13189110Y-9662674D01*
X13189110Y-9662674D02*
X13198634Y-9681722D01*
X13198634Y-9681722D02*
X13198634Y-9786484D01*
X13198634Y-9681722D02*
X13208158Y-9662674D01*
X13208158Y-9662674D02*
X13227205Y-9653150D01*
X13227205Y-9653150D02*
X13255777Y-9653150D01*
X13255777Y-9653150D02*
X13274824Y-9662674D01*
X13274824Y-9662674D02*
X13284348Y-9681722D01*
X13284348Y-9681722D02*
X13284348Y-9786484D01*
X13379586Y-9786484D02*
X13379586Y-9653150D01*
X13379586Y-9672198D02*
X13389110Y-9662674D01*
X13389110Y-9662674D02*
X13408158Y-9653150D01*
X13408158Y-9653150D02*
X13436729Y-9653150D01*
X13436729Y-9653150D02*
X13455777Y-9662674D01*
X13455777Y-9662674D02*
X13465301Y-9681722D01*
X13465301Y-9681722D02*
X13465301Y-9786484D01*
X13465301Y-9681722D02*
X13474824Y-9662674D01*
X13474824Y-9662674D02*
X13493872Y-9653150D01*
X13493872Y-9653150D02*
X13522443Y-9653150D01*
X13522443Y-9653150D02*
X13541491Y-9662674D01*
X13541491Y-9662674D02*
X13551015Y-9681722D01*
X13551015Y-9681722D02*
X13551015Y-9786484D01*
X13941491Y-9576960D02*
X13770063Y-9834103D01*
X14198634Y-9586484D02*
X14217682Y-9586484D01*
X14217682Y-9586484D02*
X14236729Y-9596008D01*
X14236729Y-9596008D02*
X14246253Y-9605531D01*
X14246253Y-9605531D02*
X14255777Y-9624579D01*
X14255777Y-9624579D02*
X14265301Y-9662674D01*
X14265301Y-9662674D02*
X14265301Y-9710293D01*
X14265301Y-9710293D02*
X14255777Y-9748389D01*
X14255777Y-9748389D02*
X14246253Y-9767436D01*
X14246253Y-9767436D02*
X14236729Y-9776960D01*
X14236729Y-9776960D02*
X14217682Y-9786484D01*
X14217682Y-9786484D02*
X14198634Y-9786484D01*
X14198634Y-9786484D02*
X14179586Y-9776960D01*
X14179586Y-9776960D02*
X14170063Y-9767436D01*
X14170063Y-9767436D02*
X14160539Y-9748389D01*
X14160539Y-9748389D02*
X14151015Y-9710293D01*
X14151015Y-9710293D02*
X14151015Y-9662674D01*
X14151015Y-9662674D02*
X14160539Y-9624579D01*
X14160539Y-9624579D02*
X14170063Y-9605531D01*
X14170063Y-9605531D02*
X14179586Y-9596008D01*
X14179586Y-9596008D02*
X14198634Y-9586484D01*
X14351015Y-9767436D02*
X14360539Y-9776960D01*
X14360539Y-9776960D02*
X14351015Y-9786484D01*
X14351015Y-9786484D02*
X14341491Y-9776960D01*
X14341491Y-9776960D02*
X14351015Y-9767436D01*
X14351015Y-9767436D02*
X14351015Y-9786484D01*
X14484348Y-9586484D02*
X14503396Y-9586484D01*
X14503396Y-9586484D02*
X14522444Y-9596008D01*
X14522444Y-9596008D02*
X14531967Y-9605531D01*
X14531967Y-9605531D02*
X14541491Y-9624579D01*
X14541491Y-9624579D02*
X14551015Y-9662674D01*
X14551015Y-9662674D02*
X14551015Y-9710293D01*
X14551015Y-9710293D02*
X14541491Y-9748389D01*
X14541491Y-9748389D02*
X14531967Y-9767436D01*
X14531967Y-9767436D02*
X14522444Y-9776960D01*
X14522444Y-9776960D02*
X14503396Y-9786484D01*
X14503396Y-9786484D02*
X14484348Y-9786484D01*
X14484348Y-9786484D02*
X14465301Y-9776960D01*
X14465301Y-9776960D02*
X14455777Y-9767436D01*
X14455777Y-9767436D02*
X14446253Y-9748389D01*
X14446253Y-9748389D02*
X14436729Y-9710293D01*
X14436729Y-9710293D02*
X14436729Y-9662674D01*
X14436729Y-9662674D02*
X14446253Y-9624579D01*
X14446253Y-9624579D02*
X14455777Y-9605531D01*
X14455777Y-9605531D02*
X14465301Y-9596008D01*
X14465301Y-9596008D02*
X14484348Y-9586484D01*
X14741491Y-9786484D02*
X14627206Y-9786484D01*
X14684348Y-9786484D02*
X14684348Y-9586484D01*
X14684348Y-9586484D02*
X14665301Y-9615055D01*
X14665301Y-9615055D02*
X14646253Y-9634103D01*
X14646253Y-9634103D02*
X14627206Y-9643627D01*
X14931967Y-9786484D02*
X14817682Y-9786484D01*
X14874825Y-9786484D02*
X14874825Y-9586484D01*
X14874825Y-9586484D02*
X14855777Y-9615055D01*
X14855777Y-9615055D02*
X14836729Y-9634103D01*
X14836729Y-9634103D02*
X14817682Y-9643627D01*
X15046253Y-9672198D02*
X15027206Y-9662674D01*
X15027206Y-9662674D02*
X15017682Y-9653150D01*
X15017682Y-9653150D02*
X15008158Y-9634103D01*
X15008158Y-9634103D02*
X15008158Y-9624579D01*
X15008158Y-9624579D02*
X15017682Y-9605531D01*
X15017682Y-9605531D02*
X15027206Y-9596008D01*
X15027206Y-9596008D02*
X15046253Y-9586484D01*
X15046253Y-9586484D02*
X15084348Y-9586484D01*
X15084348Y-9586484D02*
X15103396Y-9596008D01*
X15103396Y-9596008D02*
X15112920Y-9605531D01*
X15112920Y-9605531D02*
X15122444Y-9624579D01*
X15122444Y-9624579D02*
X15122444Y-9634103D01*
X15122444Y-9634103D02*
X15112920Y-9653150D01*
X15112920Y-9653150D02*
X15103396Y-9662674D01*
X15103396Y-9662674D02*
X15084348Y-9672198D01*
X15084348Y-9672198D02*
X15046253Y-9672198D01*
X15046253Y-9672198D02*
X15027206Y-9681722D01*
X15027206Y-9681722D02*
X15017682Y-9691246D01*
X15017682Y-9691246D02*
X15008158Y-9710293D01*
X15008158Y-9710293D02*
X15008158Y-9748389D01*
X15008158Y-9748389D02*
X15017682Y-9767436D01*
X15017682Y-9767436D02*
X15027206Y-9776960D01*
X15027206Y-9776960D02*
X15046253Y-9786484D01*
X15046253Y-9786484D02*
X15084348Y-9786484D01*
X15084348Y-9786484D02*
X15103396Y-9776960D01*
X15103396Y-9776960D02*
X15112920Y-9767436D01*
X15112920Y-9767436D02*
X15122444Y-9748389D01*
X15122444Y-9748389D02*
X15122444Y-9710293D01*
X15122444Y-9710293D02*
X15112920Y-9691246D01*
X15112920Y-9691246D02*
X15103396Y-9681722D01*
X15103396Y-9681722D02*
X15084348Y-9672198D01*
X15198634Y-9586484D02*
X15198634Y-9624579D01*
X15274825Y-9586484D02*
X15274825Y-9624579D01*
X15570063Y-9862674D02*
X15560539Y-9853150D01*
X15560539Y-9853150D02*
X15541491Y-9824579D01*
X15541491Y-9824579D02*
X15531968Y-9805531D01*
X15531968Y-9805531D02*
X15522444Y-9776960D01*
X15522444Y-9776960D02*
X15512920Y-9729341D01*
X15512920Y-9729341D02*
X15512920Y-9691246D01*
X15512920Y-9691246D02*
X15522444Y-9643627D01*
X15522444Y-9643627D02*
X15531968Y-9615055D01*
X15531968Y-9615055D02*
X15541491Y-9596008D01*
X15541491Y-9596008D02*
X15560539Y-9567436D01*
X15560539Y-9567436D02*
X15570063Y-9557912D01*
X15751015Y-9786484D02*
X15636729Y-9786484D01*
X15693872Y-9786484D02*
X15693872Y-9586484D01*
X15693872Y-9586484D02*
X15674825Y-9615055D01*
X15674825Y-9615055D02*
X15655777Y-9634103D01*
X15655777Y-9634103D02*
X15636729Y-9643627D01*
X15827206Y-9605531D02*
X15836729Y-9596008D01*
X15836729Y-9596008D02*
X15855777Y-9586484D01*
X15855777Y-9586484D02*
X15903396Y-9586484D01*
X15903396Y-9586484D02*
X15922444Y-9596008D01*
X15922444Y-9596008D02*
X15931968Y-9605531D01*
X15931968Y-9605531D02*
X15941491Y-9624579D01*
X15941491Y-9624579D02*
X15941491Y-9643627D01*
X15941491Y-9643627D02*
X15931968Y-9672198D01*
X15931968Y-9672198D02*
X15817682Y-9786484D01*
X15817682Y-9786484D02*
X15941491Y-9786484D01*
X16179587Y-9786484D02*
X16179587Y-9586484D01*
X16265301Y-9786484D02*
X16265301Y-9681722D01*
X16265301Y-9681722D02*
X16255777Y-9662674D01*
X16255777Y-9662674D02*
X16236730Y-9653150D01*
X16236730Y-9653150D02*
X16208158Y-9653150D01*
X16208158Y-9653150D02*
X16189110Y-9662674D01*
X16189110Y-9662674D02*
X16179587Y-9672198D01*
X16389110Y-9786484D02*
X16370063Y-9776960D01*
X16370063Y-9776960D02*
X16360539Y-9767436D01*
X16360539Y-9767436D02*
X16351015Y-9748389D01*
X16351015Y-9748389D02*
X16351015Y-9691246D01*
X16351015Y-9691246D02*
X16360539Y-9672198D01*
X16360539Y-9672198D02*
X16370063Y-9662674D01*
X16370063Y-9662674D02*
X16389110Y-9653150D01*
X16389110Y-9653150D02*
X16417682Y-9653150D01*
X16417682Y-9653150D02*
X16436730Y-9662674D01*
X16436730Y-9662674D02*
X16446253Y-9672198D01*
X16446253Y-9672198D02*
X16455777Y-9691246D01*
X16455777Y-9691246D02*
X16455777Y-9748389D01*
X16455777Y-9748389D02*
X16446253Y-9767436D01*
X16446253Y-9767436D02*
X16436730Y-9776960D01*
X16436730Y-9776960D02*
X16417682Y-9786484D01*
X16417682Y-9786484D02*
X16389110Y-9786484D01*
X16570063Y-9786484D02*
X16551015Y-9776960D01*
X16551015Y-9776960D02*
X16541491Y-9757912D01*
X16541491Y-9757912D02*
X16541491Y-9586484D01*
X16722444Y-9776960D02*
X16703396Y-9786484D01*
X16703396Y-9786484D02*
X16665301Y-9786484D01*
X16665301Y-9786484D02*
X16646253Y-9776960D01*
X16646253Y-9776960D02*
X16636730Y-9757912D01*
X16636730Y-9757912D02*
X16636730Y-9681722D01*
X16636730Y-9681722D02*
X16646253Y-9662674D01*
X16646253Y-9662674D02*
X16665301Y-9653150D01*
X16665301Y-9653150D02*
X16703396Y-9653150D01*
X16703396Y-9653150D02*
X16722444Y-9662674D01*
X16722444Y-9662674D02*
X16731968Y-9681722D01*
X16731968Y-9681722D02*
X16731968Y-9700770D01*
X16731968Y-9700770D02*
X16636730Y-9719817D01*
X16808158Y-9776960D02*
X16827206Y-9786484D01*
X16827206Y-9786484D02*
X16865301Y-9786484D01*
X16865301Y-9786484D02*
X16884349Y-9776960D01*
X16884349Y-9776960D02*
X16893873Y-9757912D01*
X16893873Y-9757912D02*
X16893873Y-9748389D01*
X16893873Y-9748389D02*
X16884349Y-9729341D01*
X16884349Y-9729341D02*
X16865301Y-9719817D01*
X16865301Y-9719817D02*
X16836730Y-9719817D01*
X16836730Y-9719817D02*
X16817682Y-9710293D01*
X16817682Y-9710293D02*
X16808158Y-9691246D01*
X16808158Y-9691246D02*
X16808158Y-9681722D01*
X16808158Y-9681722D02*
X16817682Y-9662674D01*
X16817682Y-9662674D02*
X16836730Y-9653150D01*
X16836730Y-9653150D02*
X16865301Y-9653150D01*
X16865301Y-9653150D02*
X16884349Y-9662674D01*
X16960539Y-9862674D02*
X16970063Y-9853150D01*
X16970063Y-9853150D02*
X16989111Y-9824579D01*
X16989111Y-9824579D02*
X16998634Y-9805531D01*
X16998634Y-9805531D02*
X17008158Y-9776960D01*
X17008158Y-9776960D02*
X17017682Y-9729341D01*
X17017682Y-9729341D02*
X17017682Y-9691246D01*
X17017682Y-9691246D02*
X17008158Y-9643627D01*
X17008158Y-9643627D02*
X16998634Y-9615055D01*
X16998634Y-9615055D02*
X16989111Y-9596008D01*
X16989111Y-9596008D02*
X16970063Y-9567436D01*
X16970063Y-9567436D02*
X16960539Y-9557912D01*
D13*
X11995000Y-9959000D02*
G75*
G03*
X11995000Y-9959000I-20000J0D01*
G01*
D11*
X12293872Y-9850484D02*
X12312920Y-9850484D01*
X12312920Y-9850484D02*
X12331967Y-9860008D01*
X12331967Y-9860008D02*
X12341491Y-9869531D01*
X12341491Y-9869531D02*
X12351015Y-9888579D01*
X12351015Y-9888579D02*
X12360539Y-9926674D01*
X12360539Y-9926674D02*
X12360539Y-9974293D01*
X12360539Y-9974293D02*
X12351015Y-10012389D01*
X12351015Y-10012389D02*
X12341491Y-10031436D01*
X12341491Y-10031436D02*
X12331967Y-10040960D01*
X12331967Y-10040960D02*
X12312920Y-10050484D01*
X12312920Y-10050484D02*
X12293872Y-10050484D01*
X12293872Y-10050484D02*
X12274824Y-10040960D01*
X12274824Y-10040960D02*
X12265301Y-10031436D01*
X12265301Y-10031436D02*
X12255777Y-10012389D01*
X12255777Y-10012389D02*
X12246253Y-9974293D01*
X12246253Y-9974293D02*
X12246253Y-9926674D01*
X12246253Y-9926674D02*
X12255777Y-9888579D01*
X12255777Y-9888579D02*
X12265301Y-9869531D01*
X12265301Y-9869531D02*
X12274824Y-9860008D01*
X12274824Y-9860008D02*
X12293872Y-9850484D01*
X12446253Y-10031436D02*
X12455777Y-10040960D01*
X12455777Y-10040960D02*
X12446253Y-10050484D01*
X12446253Y-10050484D02*
X12436729Y-10040960D01*
X12436729Y-10040960D02*
X12446253Y-10031436D01*
X12446253Y-10031436D02*
X12446253Y-10050484D01*
X12627205Y-9917150D02*
X12627205Y-10050484D01*
X12579586Y-9840960D02*
X12531967Y-9983817D01*
X12531967Y-9983817D02*
X12655777Y-9983817D01*
X12770062Y-9850484D02*
X12789110Y-9850484D01*
X12789110Y-9850484D02*
X12808158Y-9860008D01*
X12808158Y-9860008D02*
X12817682Y-9869531D01*
X12817682Y-9869531D02*
X12827205Y-9888579D01*
X12827205Y-9888579D02*
X12836729Y-9926674D01*
X12836729Y-9926674D02*
X12836729Y-9974293D01*
X12836729Y-9974293D02*
X12827205Y-10012389D01*
X12827205Y-10012389D02*
X12817682Y-10031436D01*
X12817682Y-10031436D02*
X12808158Y-10040960D01*
X12808158Y-10040960D02*
X12789110Y-10050484D01*
X12789110Y-10050484D02*
X12770062Y-10050484D01*
X12770062Y-10050484D02*
X12751015Y-10040960D01*
X12751015Y-10040960D02*
X12741491Y-10031436D01*
X12741491Y-10031436D02*
X12731967Y-10012389D01*
X12731967Y-10012389D02*
X12722443Y-9974293D01*
X12722443Y-9974293D02*
X12722443Y-9926674D01*
X12722443Y-9926674D02*
X12731967Y-9888579D01*
X12731967Y-9888579D02*
X12741491Y-9869531D01*
X12741491Y-9869531D02*
X12751015Y-9860008D01*
X12751015Y-9860008D02*
X12770062Y-9850484D01*
X12960539Y-9850484D02*
X12979586Y-9850484D01*
X12979586Y-9850484D02*
X12998634Y-9860008D01*
X12998634Y-9860008D02*
X13008158Y-9869531D01*
X13008158Y-9869531D02*
X13017682Y-9888579D01*
X13017682Y-9888579D02*
X13027205Y-9926674D01*
X13027205Y-9926674D02*
X13027205Y-9974293D01*
X13027205Y-9974293D02*
X13017682Y-10012389D01*
X13017682Y-10012389D02*
X13008158Y-10031436D01*
X13008158Y-10031436D02*
X12998634Y-10040960D01*
X12998634Y-10040960D02*
X12979586Y-10050484D01*
X12979586Y-10050484D02*
X12960539Y-10050484D01*
X12960539Y-10050484D02*
X12941491Y-10040960D01*
X12941491Y-10040960D02*
X12931967Y-10031436D01*
X12931967Y-10031436D02*
X12922443Y-10012389D01*
X12922443Y-10012389D02*
X12912920Y-9974293D01*
X12912920Y-9974293D02*
X12912920Y-9926674D01*
X12912920Y-9926674D02*
X12922443Y-9888579D01*
X12922443Y-9888579D02*
X12931967Y-9869531D01*
X12931967Y-9869531D02*
X12941491Y-9860008D01*
X12941491Y-9860008D02*
X12960539Y-9850484D01*
X13112920Y-10050484D02*
X13112920Y-9917150D01*
X13112920Y-9936198D02*
X13122443Y-9926674D01*
X13122443Y-9926674D02*
X13141491Y-9917150D01*
X13141491Y-9917150D02*
X13170063Y-9917150D01*
X13170063Y-9917150D02*
X13189110Y-9926674D01*
X13189110Y-9926674D02*
X13198634Y-9945722D01*
X13198634Y-9945722D02*
X13198634Y-10050484D01*
X13198634Y-9945722D02*
X13208158Y-9926674D01*
X13208158Y-9926674D02*
X13227205Y-9917150D01*
X13227205Y-9917150D02*
X13255777Y-9917150D01*
X13255777Y-9917150D02*
X13274824Y-9926674D01*
X13274824Y-9926674D02*
X13284348Y-9945722D01*
X13284348Y-9945722D02*
X13284348Y-10050484D01*
X13379586Y-10050484D02*
X13379586Y-9917150D01*
X13379586Y-9936198D02*
X13389110Y-9926674D01*
X13389110Y-9926674D02*
X13408158Y-9917150D01*
X13408158Y-9917150D02*
X13436729Y-9917150D01*
X13436729Y-9917150D02*
X13455777Y-9926674D01*
X13455777Y-9926674D02*
X13465301Y-9945722D01*
X13465301Y-9945722D02*
X13465301Y-10050484D01*
X13465301Y-9945722D02*
X13474824Y-9926674D01*
X13474824Y-9926674D02*
X13493872Y-9917150D01*
X13493872Y-9917150D02*
X13522443Y-9917150D01*
X13522443Y-9917150D02*
X13541491Y-9926674D01*
X13541491Y-9926674D02*
X13551015Y-9945722D01*
X13551015Y-9945722D02*
X13551015Y-10050484D01*
X13941491Y-9840960D02*
X13770063Y-10098103D01*
X14198634Y-9850484D02*
X14217682Y-9850484D01*
X14217682Y-9850484D02*
X14236729Y-9860008D01*
X14236729Y-9860008D02*
X14246253Y-9869531D01*
X14246253Y-9869531D02*
X14255777Y-9888579D01*
X14255777Y-9888579D02*
X14265301Y-9926674D01*
X14265301Y-9926674D02*
X14265301Y-9974293D01*
X14265301Y-9974293D02*
X14255777Y-10012389D01*
X14255777Y-10012389D02*
X14246253Y-10031436D01*
X14246253Y-10031436D02*
X14236729Y-10040960D01*
X14236729Y-10040960D02*
X14217682Y-10050484D01*
X14217682Y-10050484D02*
X14198634Y-10050484D01*
X14198634Y-10050484D02*
X14179586Y-10040960D01*
X14179586Y-10040960D02*
X14170063Y-10031436D01*
X14170063Y-10031436D02*
X14160539Y-10012389D01*
X14160539Y-10012389D02*
X14151015Y-9974293D01*
X14151015Y-9974293D02*
X14151015Y-9926674D01*
X14151015Y-9926674D02*
X14160539Y-9888579D01*
X14160539Y-9888579D02*
X14170063Y-9869531D01*
X14170063Y-9869531D02*
X14179586Y-9860008D01*
X14179586Y-9860008D02*
X14198634Y-9850484D01*
X14351015Y-10031436D02*
X14360539Y-10040960D01*
X14360539Y-10040960D02*
X14351015Y-10050484D01*
X14351015Y-10050484D02*
X14341491Y-10040960D01*
X14341491Y-10040960D02*
X14351015Y-10031436D01*
X14351015Y-10031436D02*
X14351015Y-10050484D01*
X14484348Y-9850484D02*
X14503396Y-9850484D01*
X14503396Y-9850484D02*
X14522444Y-9860008D01*
X14522444Y-9860008D02*
X14531967Y-9869531D01*
X14531967Y-9869531D02*
X14541491Y-9888579D01*
X14541491Y-9888579D02*
X14551015Y-9926674D01*
X14551015Y-9926674D02*
X14551015Y-9974293D01*
X14551015Y-9974293D02*
X14541491Y-10012389D01*
X14541491Y-10012389D02*
X14531967Y-10031436D01*
X14531967Y-10031436D02*
X14522444Y-10040960D01*
X14522444Y-10040960D02*
X14503396Y-10050484D01*
X14503396Y-10050484D02*
X14484348Y-10050484D01*
X14484348Y-10050484D02*
X14465301Y-10040960D01*
X14465301Y-10040960D02*
X14455777Y-10031436D01*
X14455777Y-10031436D02*
X14446253Y-10012389D01*
X14446253Y-10012389D02*
X14436729Y-9974293D01*
X14436729Y-9974293D02*
X14436729Y-9926674D01*
X14436729Y-9926674D02*
X14446253Y-9888579D01*
X14446253Y-9888579D02*
X14455777Y-9869531D01*
X14455777Y-9869531D02*
X14465301Y-9860008D01*
X14465301Y-9860008D02*
X14484348Y-9850484D01*
X14741491Y-10050484D02*
X14627206Y-10050484D01*
X14684348Y-10050484D02*
X14684348Y-9850484D01*
X14684348Y-9850484D02*
X14665301Y-9879055D01*
X14665301Y-9879055D02*
X14646253Y-9898103D01*
X14646253Y-9898103D02*
X14627206Y-9907627D01*
X14922444Y-9850484D02*
X14827206Y-9850484D01*
X14827206Y-9850484D02*
X14817682Y-9945722D01*
X14817682Y-9945722D02*
X14827206Y-9936198D01*
X14827206Y-9936198D02*
X14846253Y-9926674D01*
X14846253Y-9926674D02*
X14893872Y-9926674D01*
X14893872Y-9926674D02*
X14912920Y-9936198D01*
X14912920Y-9936198D02*
X14922444Y-9945722D01*
X14922444Y-9945722D02*
X14931967Y-9964770D01*
X14931967Y-9964770D02*
X14931967Y-10012389D01*
X14931967Y-10012389D02*
X14922444Y-10031436D01*
X14922444Y-10031436D02*
X14912920Y-10040960D01*
X14912920Y-10040960D02*
X14893872Y-10050484D01*
X14893872Y-10050484D02*
X14846253Y-10050484D01*
X14846253Y-10050484D02*
X14827206Y-10040960D01*
X14827206Y-10040960D02*
X14817682Y-10031436D01*
X14998634Y-9850484D02*
X15131967Y-9850484D01*
X15131967Y-9850484D02*
X15046253Y-10050484D01*
X15198634Y-9850484D02*
X15198634Y-9888579D01*
X15274825Y-9850484D02*
X15274825Y-9888579D01*
X15570063Y-10126674D02*
X15560539Y-10117150D01*
X15560539Y-10117150D02*
X15541491Y-10088579D01*
X15541491Y-10088579D02*
X15531968Y-10069531D01*
X15531968Y-10069531D02*
X15522444Y-10040960D01*
X15522444Y-10040960D02*
X15512920Y-9993341D01*
X15512920Y-9993341D02*
X15512920Y-9955246D01*
X15512920Y-9955246D02*
X15522444Y-9907627D01*
X15522444Y-9907627D02*
X15531968Y-9879055D01*
X15531968Y-9879055D02*
X15541491Y-9860008D01*
X15541491Y-9860008D02*
X15560539Y-9831436D01*
X15560539Y-9831436D02*
X15570063Y-9821912D01*
X15636729Y-9869531D02*
X15646253Y-9860008D01*
X15646253Y-9860008D02*
X15665301Y-9850484D01*
X15665301Y-9850484D02*
X15712920Y-9850484D01*
X15712920Y-9850484D02*
X15731968Y-9860008D01*
X15731968Y-9860008D02*
X15741491Y-9869531D01*
X15741491Y-9869531D02*
X15751015Y-9888579D01*
X15751015Y-9888579D02*
X15751015Y-9907627D01*
X15751015Y-9907627D02*
X15741491Y-9936198D01*
X15741491Y-9936198D02*
X15627206Y-10050484D01*
X15627206Y-10050484D02*
X15751015Y-10050484D01*
X15922444Y-9850484D02*
X15884348Y-9850484D01*
X15884348Y-9850484D02*
X15865301Y-9860008D01*
X15865301Y-9860008D02*
X15855777Y-9869531D01*
X15855777Y-9869531D02*
X15836729Y-9898103D01*
X15836729Y-9898103D02*
X15827206Y-9936198D01*
X15827206Y-9936198D02*
X15827206Y-10012389D01*
X15827206Y-10012389D02*
X15836729Y-10031436D01*
X15836729Y-10031436D02*
X15846253Y-10040960D01*
X15846253Y-10040960D02*
X15865301Y-10050484D01*
X15865301Y-10050484D02*
X15903396Y-10050484D01*
X15903396Y-10050484D02*
X15922444Y-10040960D01*
X15922444Y-10040960D02*
X15931968Y-10031436D01*
X15931968Y-10031436D02*
X15941491Y-10012389D01*
X15941491Y-10012389D02*
X15941491Y-9964770D01*
X15941491Y-9964770D02*
X15931968Y-9945722D01*
X15931968Y-9945722D02*
X15922444Y-9936198D01*
X15922444Y-9936198D02*
X15903396Y-9926674D01*
X15903396Y-9926674D02*
X15865301Y-9926674D01*
X15865301Y-9926674D02*
X15846253Y-9936198D01*
X15846253Y-9936198D02*
X15836729Y-9945722D01*
X15836729Y-9945722D02*
X15827206Y-9964770D01*
X16179587Y-10050484D02*
X16179587Y-9850484D01*
X16265301Y-10050484D02*
X16265301Y-9945722D01*
X16265301Y-9945722D02*
X16255777Y-9926674D01*
X16255777Y-9926674D02*
X16236730Y-9917150D01*
X16236730Y-9917150D02*
X16208158Y-9917150D01*
X16208158Y-9917150D02*
X16189110Y-9926674D01*
X16189110Y-9926674D02*
X16179587Y-9936198D01*
X16389110Y-10050484D02*
X16370063Y-10040960D01*
X16370063Y-10040960D02*
X16360539Y-10031436D01*
X16360539Y-10031436D02*
X16351015Y-10012389D01*
X16351015Y-10012389D02*
X16351015Y-9955246D01*
X16351015Y-9955246D02*
X16360539Y-9936198D01*
X16360539Y-9936198D02*
X16370063Y-9926674D01*
X16370063Y-9926674D02*
X16389110Y-9917150D01*
X16389110Y-9917150D02*
X16417682Y-9917150D01*
X16417682Y-9917150D02*
X16436730Y-9926674D01*
X16436730Y-9926674D02*
X16446253Y-9936198D01*
X16446253Y-9936198D02*
X16455777Y-9955246D01*
X16455777Y-9955246D02*
X16455777Y-10012389D01*
X16455777Y-10012389D02*
X16446253Y-10031436D01*
X16446253Y-10031436D02*
X16436730Y-10040960D01*
X16436730Y-10040960D02*
X16417682Y-10050484D01*
X16417682Y-10050484D02*
X16389110Y-10050484D01*
X16570063Y-10050484D02*
X16551015Y-10040960D01*
X16551015Y-10040960D02*
X16541491Y-10021912D01*
X16541491Y-10021912D02*
X16541491Y-9850484D01*
X16722444Y-10040960D02*
X16703396Y-10050484D01*
X16703396Y-10050484D02*
X16665301Y-10050484D01*
X16665301Y-10050484D02*
X16646253Y-10040960D01*
X16646253Y-10040960D02*
X16636730Y-10021912D01*
X16636730Y-10021912D02*
X16636730Y-9945722D01*
X16636730Y-9945722D02*
X16646253Y-9926674D01*
X16646253Y-9926674D02*
X16665301Y-9917150D01*
X16665301Y-9917150D02*
X16703396Y-9917150D01*
X16703396Y-9917150D02*
X16722444Y-9926674D01*
X16722444Y-9926674D02*
X16731968Y-9945722D01*
X16731968Y-9945722D02*
X16731968Y-9964770D01*
X16731968Y-9964770D02*
X16636730Y-9983817D01*
X16808158Y-10040960D02*
X16827206Y-10050484D01*
X16827206Y-10050484D02*
X16865301Y-10050484D01*
X16865301Y-10050484D02*
X16884349Y-10040960D01*
X16884349Y-10040960D02*
X16893873Y-10021912D01*
X16893873Y-10021912D02*
X16893873Y-10012389D01*
X16893873Y-10012389D02*
X16884349Y-9993341D01*
X16884349Y-9993341D02*
X16865301Y-9983817D01*
X16865301Y-9983817D02*
X16836730Y-9983817D01*
X16836730Y-9983817D02*
X16817682Y-9974293D01*
X16817682Y-9974293D02*
X16808158Y-9955246D01*
X16808158Y-9955246D02*
X16808158Y-9945722D01*
X16808158Y-9945722D02*
X16817682Y-9926674D01*
X16817682Y-9926674D02*
X16836730Y-9917150D01*
X16836730Y-9917150D02*
X16865301Y-9917150D01*
X16865301Y-9917150D02*
X16884349Y-9926674D01*
X16960539Y-10126674D02*
X16970063Y-10117150D01*
X16970063Y-10117150D02*
X16989111Y-10088579D01*
X16989111Y-10088579D02*
X16998634Y-10069531D01*
X16998634Y-10069531D02*
X17008158Y-10040960D01*
X17008158Y-10040960D02*
X17017682Y-9993341D01*
X17017682Y-9993341D02*
X17017682Y-9955246D01*
X17017682Y-9955246D02*
X17008158Y-9907627D01*
X17008158Y-9907627D02*
X16998634Y-9879055D01*
X16998634Y-9879055D02*
X16989111Y-9860008D01*
X16989111Y-9860008D02*
X16970063Y-9831436D01*
X16970063Y-9831436D02*
X16960539Y-9821912D01*
D14*
X11965000Y-10193000D02*
X11965000Y-10253000D01*
X11935000Y-10223000D02*
X11995000Y-10223000D01*
D11*
X12293872Y-10114484D02*
X12312920Y-10114484D01*
X12312920Y-10114484D02*
X12331967Y-10124008D01*
X12331967Y-10124008D02*
X12341491Y-10133531D01*
X12341491Y-10133531D02*
X12351015Y-10152579D01*
X12351015Y-10152579D02*
X12360539Y-10190674D01*
X12360539Y-10190674D02*
X12360539Y-10238293D01*
X12360539Y-10238293D02*
X12351015Y-10276389D01*
X12351015Y-10276389D02*
X12341491Y-10295436D01*
X12341491Y-10295436D02*
X12331967Y-10304960D01*
X12331967Y-10304960D02*
X12312920Y-10314484D01*
X12312920Y-10314484D02*
X12293872Y-10314484D01*
X12293872Y-10314484D02*
X12274824Y-10304960D01*
X12274824Y-10304960D02*
X12265301Y-10295436D01*
X12265301Y-10295436D02*
X12255777Y-10276389D01*
X12255777Y-10276389D02*
X12246253Y-10238293D01*
X12246253Y-10238293D02*
X12246253Y-10190674D01*
X12246253Y-10190674D02*
X12255777Y-10152579D01*
X12255777Y-10152579D02*
X12265301Y-10133531D01*
X12265301Y-10133531D02*
X12274824Y-10124008D01*
X12274824Y-10124008D02*
X12293872Y-10114484D01*
X12446253Y-10295436D02*
X12455777Y-10304960D01*
X12455777Y-10304960D02*
X12446253Y-10314484D01*
X12446253Y-10314484D02*
X12436729Y-10304960D01*
X12436729Y-10304960D02*
X12446253Y-10295436D01*
X12446253Y-10295436D02*
X12446253Y-10314484D01*
X12627205Y-10114484D02*
X12589110Y-10114484D01*
X12589110Y-10114484D02*
X12570062Y-10124008D01*
X12570062Y-10124008D02*
X12560539Y-10133531D01*
X12560539Y-10133531D02*
X12541491Y-10162103D01*
X12541491Y-10162103D02*
X12531967Y-10200198D01*
X12531967Y-10200198D02*
X12531967Y-10276389D01*
X12531967Y-10276389D02*
X12541491Y-10295436D01*
X12541491Y-10295436D02*
X12551015Y-10304960D01*
X12551015Y-10304960D02*
X12570062Y-10314484D01*
X12570062Y-10314484D02*
X12608158Y-10314484D01*
X12608158Y-10314484D02*
X12627205Y-10304960D01*
X12627205Y-10304960D02*
X12636729Y-10295436D01*
X12636729Y-10295436D02*
X12646253Y-10276389D01*
X12646253Y-10276389D02*
X12646253Y-10228770D01*
X12646253Y-10228770D02*
X12636729Y-10209722D01*
X12636729Y-10209722D02*
X12627205Y-10200198D01*
X12627205Y-10200198D02*
X12608158Y-10190674D01*
X12608158Y-10190674D02*
X12570062Y-10190674D01*
X12570062Y-10190674D02*
X12551015Y-10200198D01*
X12551015Y-10200198D02*
X12541491Y-10209722D01*
X12541491Y-10209722D02*
X12531967Y-10228770D01*
X12770062Y-10114484D02*
X12789110Y-10114484D01*
X12789110Y-10114484D02*
X12808158Y-10124008D01*
X12808158Y-10124008D02*
X12817682Y-10133531D01*
X12817682Y-10133531D02*
X12827205Y-10152579D01*
X12827205Y-10152579D02*
X12836729Y-10190674D01*
X12836729Y-10190674D02*
X12836729Y-10238293D01*
X12836729Y-10238293D02*
X12827205Y-10276389D01*
X12827205Y-10276389D02*
X12817682Y-10295436D01*
X12817682Y-10295436D02*
X12808158Y-10304960D01*
X12808158Y-10304960D02*
X12789110Y-10314484D01*
X12789110Y-10314484D02*
X12770062Y-10314484D01*
X12770062Y-10314484D02*
X12751015Y-10304960D01*
X12751015Y-10304960D02*
X12741491Y-10295436D01*
X12741491Y-10295436D02*
X12731967Y-10276389D01*
X12731967Y-10276389D02*
X12722443Y-10238293D01*
X12722443Y-10238293D02*
X12722443Y-10190674D01*
X12722443Y-10190674D02*
X12731967Y-10152579D01*
X12731967Y-10152579D02*
X12741491Y-10133531D01*
X12741491Y-10133531D02*
X12751015Y-10124008D01*
X12751015Y-10124008D02*
X12770062Y-10114484D01*
X12960539Y-10114484D02*
X12979586Y-10114484D01*
X12979586Y-10114484D02*
X12998634Y-10124008D01*
X12998634Y-10124008D02*
X13008158Y-10133531D01*
X13008158Y-10133531D02*
X13017682Y-10152579D01*
X13017682Y-10152579D02*
X13027205Y-10190674D01*
X13027205Y-10190674D02*
X13027205Y-10238293D01*
X13027205Y-10238293D02*
X13017682Y-10276389D01*
X13017682Y-10276389D02*
X13008158Y-10295436D01*
X13008158Y-10295436D02*
X12998634Y-10304960D01*
X12998634Y-10304960D02*
X12979586Y-10314484D01*
X12979586Y-10314484D02*
X12960539Y-10314484D01*
X12960539Y-10314484D02*
X12941491Y-10304960D01*
X12941491Y-10304960D02*
X12931967Y-10295436D01*
X12931967Y-10295436D02*
X12922443Y-10276389D01*
X12922443Y-10276389D02*
X12912920Y-10238293D01*
X12912920Y-10238293D02*
X12912920Y-10190674D01*
X12912920Y-10190674D02*
X12922443Y-10152579D01*
X12922443Y-10152579D02*
X12931967Y-10133531D01*
X12931967Y-10133531D02*
X12941491Y-10124008D01*
X12941491Y-10124008D02*
X12960539Y-10114484D01*
X13112920Y-10314484D02*
X13112920Y-10181150D01*
X13112920Y-10200198D02*
X13122443Y-10190674D01*
X13122443Y-10190674D02*
X13141491Y-10181150D01*
X13141491Y-10181150D02*
X13170063Y-10181150D01*
X13170063Y-10181150D02*
X13189110Y-10190674D01*
X13189110Y-10190674D02*
X13198634Y-10209722D01*
X13198634Y-10209722D02*
X13198634Y-10314484D01*
X13198634Y-10209722D02*
X13208158Y-10190674D01*
X13208158Y-10190674D02*
X13227205Y-10181150D01*
X13227205Y-10181150D02*
X13255777Y-10181150D01*
X13255777Y-10181150D02*
X13274824Y-10190674D01*
X13274824Y-10190674D02*
X13284348Y-10209722D01*
X13284348Y-10209722D02*
X13284348Y-10314484D01*
X13379586Y-10314484D02*
X13379586Y-10181150D01*
X13379586Y-10200198D02*
X13389110Y-10190674D01*
X13389110Y-10190674D02*
X13408158Y-10181150D01*
X13408158Y-10181150D02*
X13436729Y-10181150D01*
X13436729Y-10181150D02*
X13455777Y-10190674D01*
X13455777Y-10190674D02*
X13465301Y-10209722D01*
X13465301Y-10209722D02*
X13465301Y-10314484D01*
X13465301Y-10209722D02*
X13474824Y-10190674D01*
X13474824Y-10190674D02*
X13493872Y-10181150D01*
X13493872Y-10181150D02*
X13522443Y-10181150D01*
X13522443Y-10181150D02*
X13541491Y-10190674D01*
X13541491Y-10190674D02*
X13551015Y-10209722D01*
X13551015Y-10209722D02*
X13551015Y-10314484D01*
X13941491Y-10104960D02*
X13770063Y-10362103D01*
X14198634Y-10114484D02*
X14217682Y-10114484D01*
X14217682Y-10114484D02*
X14236729Y-10124008D01*
X14236729Y-10124008D02*
X14246253Y-10133531D01*
X14246253Y-10133531D02*
X14255777Y-10152579D01*
X14255777Y-10152579D02*
X14265301Y-10190674D01*
X14265301Y-10190674D02*
X14265301Y-10238293D01*
X14265301Y-10238293D02*
X14255777Y-10276389D01*
X14255777Y-10276389D02*
X14246253Y-10295436D01*
X14246253Y-10295436D02*
X14236729Y-10304960D01*
X14236729Y-10304960D02*
X14217682Y-10314484D01*
X14217682Y-10314484D02*
X14198634Y-10314484D01*
X14198634Y-10314484D02*
X14179586Y-10304960D01*
X14179586Y-10304960D02*
X14170063Y-10295436D01*
X14170063Y-10295436D02*
X14160539Y-10276389D01*
X14160539Y-10276389D02*
X14151015Y-10238293D01*
X14151015Y-10238293D02*
X14151015Y-10190674D01*
X14151015Y-10190674D02*
X14160539Y-10152579D01*
X14160539Y-10152579D02*
X14170063Y-10133531D01*
X14170063Y-10133531D02*
X14179586Y-10124008D01*
X14179586Y-10124008D02*
X14198634Y-10114484D01*
X14351015Y-10295436D02*
X14360539Y-10304960D01*
X14360539Y-10304960D02*
X14351015Y-10314484D01*
X14351015Y-10314484D02*
X14341491Y-10304960D01*
X14341491Y-10304960D02*
X14351015Y-10295436D01*
X14351015Y-10295436D02*
X14351015Y-10314484D01*
X14484348Y-10114484D02*
X14503396Y-10114484D01*
X14503396Y-10114484D02*
X14522444Y-10124008D01*
X14522444Y-10124008D02*
X14531967Y-10133531D01*
X14531967Y-10133531D02*
X14541491Y-10152579D01*
X14541491Y-10152579D02*
X14551015Y-10190674D01*
X14551015Y-10190674D02*
X14551015Y-10238293D01*
X14551015Y-10238293D02*
X14541491Y-10276389D01*
X14541491Y-10276389D02*
X14531967Y-10295436D01*
X14531967Y-10295436D02*
X14522444Y-10304960D01*
X14522444Y-10304960D02*
X14503396Y-10314484D01*
X14503396Y-10314484D02*
X14484348Y-10314484D01*
X14484348Y-10314484D02*
X14465301Y-10304960D01*
X14465301Y-10304960D02*
X14455777Y-10295436D01*
X14455777Y-10295436D02*
X14446253Y-10276389D01*
X14446253Y-10276389D02*
X14436729Y-10238293D01*
X14436729Y-10238293D02*
X14436729Y-10190674D01*
X14436729Y-10190674D02*
X14446253Y-10152579D01*
X14446253Y-10152579D02*
X14455777Y-10133531D01*
X14455777Y-10133531D02*
X14465301Y-10124008D01*
X14465301Y-10124008D02*
X14484348Y-10114484D01*
X14627206Y-10133531D02*
X14636729Y-10124008D01*
X14636729Y-10124008D02*
X14655777Y-10114484D01*
X14655777Y-10114484D02*
X14703396Y-10114484D01*
X14703396Y-10114484D02*
X14722444Y-10124008D01*
X14722444Y-10124008D02*
X14731967Y-10133531D01*
X14731967Y-10133531D02*
X14741491Y-10152579D01*
X14741491Y-10152579D02*
X14741491Y-10171627D01*
X14741491Y-10171627D02*
X14731967Y-10200198D01*
X14731967Y-10200198D02*
X14617682Y-10314484D01*
X14617682Y-10314484D02*
X14741491Y-10314484D01*
X14808158Y-10114484D02*
X14931967Y-10114484D01*
X14931967Y-10114484D02*
X14865301Y-10190674D01*
X14865301Y-10190674D02*
X14893872Y-10190674D01*
X14893872Y-10190674D02*
X14912920Y-10200198D01*
X14912920Y-10200198D02*
X14922444Y-10209722D01*
X14922444Y-10209722D02*
X14931967Y-10228770D01*
X14931967Y-10228770D02*
X14931967Y-10276389D01*
X14931967Y-10276389D02*
X14922444Y-10295436D01*
X14922444Y-10295436D02*
X14912920Y-10304960D01*
X14912920Y-10304960D02*
X14893872Y-10314484D01*
X14893872Y-10314484D02*
X14836729Y-10314484D01*
X14836729Y-10314484D02*
X14817682Y-10304960D01*
X14817682Y-10304960D02*
X14808158Y-10295436D01*
X15103396Y-10114484D02*
X15065301Y-10114484D01*
X15065301Y-10114484D02*
X15046253Y-10124008D01*
X15046253Y-10124008D02*
X15036729Y-10133531D01*
X15036729Y-10133531D02*
X15017682Y-10162103D01*
X15017682Y-10162103D02*
X15008158Y-10200198D01*
X15008158Y-10200198D02*
X15008158Y-10276389D01*
X15008158Y-10276389D02*
X15017682Y-10295436D01*
X15017682Y-10295436D02*
X15027206Y-10304960D01*
X15027206Y-10304960D02*
X15046253Y-10314484D01*
X15046253Y-10314484D02*
X15084348Y-10314484D01*
X15084348Y-10314484D02*
X15103396Y-10304960D01*
X15103396Y-10304960D02*
X15112920Y-10295436D01*
X15112920Y-10295436D02*
X15122444Y-10276389D01*
X15122444Y-10276389D02*
X15122444Y-10228770D01*
X15122444Y-10228770D02*
X15112920Y-10209722D01*
X15112920Y-10209722D02*
X15103396Y-10200198D01*
X15103396Y-10200198D02*
X15084348Y-10190674D01*
X15084348Y-10190674D02*
X15046253Y-10190674D01*
X15046253Y-10190674D02*
X15027206Y-10200198D01*
X15027206Y-10200198D02*
X15017682Y-10209722D01*
X15017682Y-10209722D02*
X15008158Y-10228770D01*
X15198634Y-10114484D02*
X15198634Y-10152579D01*
X15274825Y-10114484D02*
X15274825Y-10152579D01*
X15570063Y-10390674D02*
X15560539Y-10381150D01*
X15560539Y-10381150D02*
X15541491Y-10352579D01*
X15541491Y-10352579D02*
X15531968Y-10333531D01*
X15531968Y-10333531D02*
X15522444Y-10304960D01*
X15522444Y-10304960D02*
X15512920Y-10257341D01*
X15512920Y-10257341D02*
X15512920Y-10219246D01*
X15512920Y-10219246D02*
X15522444Y-10171627D01*
X15522444Y-10171627D02*
X15531968Y-10143055D01*
X15531968Y-10143055D02*
X15541491Y-10124008D01*
X15541491Y-10124008D02*
X15560539Y-10095436D01*
X15560539Y-10095436D02*
X15570063Y-10085912D01*
X15731968Y-10114484D02*
X15693872Y-10114484D01*
X15693872Y-10114484D02*
X15674825Y-10124008D01*
X15674825Y-10124008D02*
X15665301Y-10133531D01*
X15665301Y-10133531D02*
X15646253Y-10162103D01*
X15646253Y-10162103D02*
X15636729Y-10200198D01*
X15636729Y-10200198D02*
X15636729Y-10276389D01*
X15636729Y-10276389D02*
X15646253Y-10295436D01*
X15646253Y-10295436D02*
X15655777Y-10304960D01*
X15655777Y-10304960D02*
X15674825Y-10314484D01*
X15674825Y-10314484D02*
X15712920Y-10314484D01*
X15712920Y-10314484D02*
X15731968Y-10304960D01*
X15731968Y-10304960D02*
X15741491Y-10295436D01*
X15741491Y-10295436D02*
X15751015Y-10276389D01*
X15751015Y-10276389D02*
X15751015Y-10228770D01*
X15751015Y-10228770D02*
X15741491Y-10209722D01*
X15741491Y-10209722D02*
X15731968Y-10200198D01*
X15731968Y-10200198D02*
X15712920Y-10190674D01*
X15712920Y-10190674D02*
X15674825Y-10190674D01*
X15674825Y-10190674D02*
X15655777Y-10200198D01*
X15655777Y-10200198D02*
X15646253Y-10209722D01*
X15646253Y-10209722D02*
X15636729Y-10228770D01*
X15989110Y-10314484D02*
X15989110Y-10114484D01*
X16074825Y-10314484D02*
X16074825Y-10209722D01*
X16074825Y-10209722D02*
X16065301Y-10190674D01*
X16065301Y-10190674D02*
X16046253Y-10181150D01*
X16046253Y-10181150D02*
X16017682Y-10181150D01*
X16017682Y-10181150D02*
X15998634Y-10190674D01*
X15998634Y-10190674D02*
X15989110Y-10200198D01*
X16198634Y-10314484D02*
X16179587Y-10304960D01*
X16179587Y-10304960D02*
X16170063Y-10295436D01*
X16170063Y-10295436D02*
X16160539Y-10276389D01*
X16160539Y-10276389D02*
X16160539Y-10219246D01*
X16160539Y-10219246D02*
X16170063Y-10200198D01*
X16170063Y-10200198D02*
X16179587Y-10190674D01*
X16179587Y-10190674D02*
X16198634Y-10181150D01*
X16198634Y-10181150D02*
X16227206Y-10181150D01*
X16227206Y-10181150D02*
X16246253Y-10190674D01*
X16246253Y-10190674D02*
X16255777Y-10200198D01*
X16255777Y-10200198D02*
X16265301Y-10219246D01*
X16265301Y-10219246D02*
X16265301Y-10276389D01*
X16265301Y-10276389D02*
X16255777Y-10295436D01*
X16255777Y-10295436D02*
X16246253Y-10304960D01*
X16246253Y-10304960D02*
X16227206Y-10314484D01*
X16227206Y-10314484D02*
X16198634Y-10314484D01*
X16379587Y-10314484D02*
X16360539Y-10304960D01*
X16360539Y-10304960D02*
X16351015Y-10285912D01*
X16351015Y-10285912D02*
X16351015Y-10114484D01*
X16531968Y-10304960D02*
X16512920Y-10314484D01*
X16512920Y-10314484D02*
X16474825Y-10314484D01*
X16474825Y-10314484D02*
X16455777Y-10304960D01*
X16455777Y-10304960D02*
X16446253Y-10285912D01*
X16446253Y-10285912D02*
X16446253Y-10209722D01*
X16446253Y-10209722D02*
X16455777Y-10190674D01*
X16455777Y-10190674D02*
X16474825Y-10181150D01*
X16474825Y-10181150D02*
X16512920Y-10181150D01*
X16512920Y-10181150D02*
X16531968Y-10190674D01*
X16531968Y-10190674D02*
X16541491Y-10209722D01*
X16541491Y-10209722D02*
X16541491Y-10228770D01*
X16541491Y-10228770D02*
X16446253Y-10247817D01*
X16617682Y-10304960D02*
X16636730Y-10314484D01*
X16636730Y-10314484D02*
X16674825Y-10314484D01*
X16674825Y-10314484D02*
X16693872Y-10304960D01*
X16693872Y-10304960D02*
X16703396Y-10285912D01*
X16703396Y-10285912D02*
X16703396Y-10276389D01*
X16703396Y-10276389D02*
X16693872Y-10257341D01*
X16693872Y-10257341D02*
X16674825Y-10247817D01*
X16674825Y-10247817D02*
X16646253Y-10247817D01*
X16646253Y-10247817D02*
X16627206Y-10238293D01*
X16627206Y-10238293D02*
X16617682Y-10219246D01*
X16617682Y-10219246D02*
X16617682Y-10209722D01*
X16617682Y-10209722D02*
X16627206Y-10190674D01*
X16627206Y-10190674D02*
X16646253Y-10181150D01*
X16646253Y-10181150D02*
X16674825Y-10181150D01*
X16674825Y-10181150D02*
X16693872Y-10190674D01*
X16770063Y-10390674D02*
X16779587Y-10381150D01*
X16779587Y-10381150D02*
X16798634Y-10352579D01*
X16798634Y-10352579D02*
X16808158Y-10333531D01*
X16808158Y-10333531D02*
X16817682Y-10304960D01*
X16817682Y-10304960D02*
X16827206Y-10257341D01*
X16827206Y-10257341D02*
X16827206Y-10219246D01*
X16827206Y-10219246D02*
X16817682Y-10171627D01*
X16817682Y-10171627D02*
X16808158Y-10143055D01*
X16808158Y-10143055D02*
X16798634Y-10124008D01*
X16798634Y-10124008D02*
X16779587Y-10095436D01*
X16779587Y-10095436D02*
X16770063Y-10085912D01*
D15*
X11985481Y-10509981D02*
X11985481Y-10464019D01*
X11939519Y-10464019D01*
X11939519Y-10509981D01*
X11985481Y-10509981D01*
D11*
X12293872Y-10378484D02*
X12312920Y-10378484D01*
X12312920Y-10378484D02*
X12331967Y-10388008D01*
X12331967Y-10388008D02*
X12341491Y-10397531D01*
X12341491Y-10397531D02*
X12351015Y-10416579D01*
X12351015Y-10416579D02*
X12360539Y-10454674D01*
X12360539Y-10454674D02*
X12360539Y-10502293D01*
X12360539Y-10502293D02*
X12351015Y-10540389D01*
X12351015Y-10540389D02*
X12341491Y-10559436D01*
X12341491Y-10559436D02*
X12331967Y-10568960D01*
X12331967Y-10568960D02*
X12312920Y-10578484D01*
X12312920Y-10578484D02*
X12293872Y-10578484D01*
X12293872Y-10578484D02*
X12274824Y-10568960D01*
X12274824Y-10568960D02*
X12265301Y-10559436D01*
X12265301Y-10559436D02*
X12255777Y-10540389D01*
X12255777Y-10540389D02*
X12246253Y-10502293D01*
X12246253Y-10502293D02*
X12246253Y-10454674D01*
X12246253Y-10454674D02*
X12255777Y-10416579D01*
X12255777Y-10416579D02*
X12265301Y-10397531D01*
X12265301Y-10397531D02*
X12274824Y-10388008D01*
X12274824Y-10388008D02*
X12293872Y-10378484D01*
X12446253Y-10559436D02*
X12455777Y-10568960D01*
X12455777Y-10568960D02*
X12446253Y-10578484D01*
X12446253Y-10578484D02*
X12436729Y-10568960D01*
X12436729Y-10568960D02*
X12446253Y-10559436D01*
X12446253Y-10559436D02*
X12446253Y-10578484D01*
X12627205Y-10378484D02*
X12589110Y-10378484D01*
X12589110Y-10378484D02*
X12570062Y-10388008D01*
X12570062Y-10388008D02*
X12560539Y-10397531D01*
X12560539Y-10397531D02*
X12541491Y-10426103D01*
X12541491Y-10426103D02*
X12531967Y-10464198D01*
X12531967Y-10464198D02*
X12531967Y-10540389D01*
X12531967Y-10540389D02*
X12541491Y-10559436D01*
X12541491Y-10559436D02*
X12551015Y-10568960D01*
X12551015Y-10568960D02*
X12570062Y-10578484D01*
X12570062Y-10578484D02*
X12608158Y-10578484D01*
X12608158Y-10578484D02*
X12627205Y-10568960D01*
X12627205Y-10568960D02*
X12636729Y-10559436D01*
X12636729Y-10559436D02*
X12646253Y-10540389D01*
X12646253Y-10540389D02*
X12646253Y-10492770D01*
X12646253Y-10492770D02*
X12636729Y-10473722D01*
X12636729Y-10473722D02*
X12627205Y-10464198D01*
X12627205Y-10464198D02*
X12608158Y-10454674D01*
X12608158Y-10454674D02*
X12570062Y-10454674D01*
X12570062Y-10454674D02*
X12551015Y-10464198D01*
X12551015Y-10464198D02*
X12541491Y-10473722D01*
X12541491Y-10473722D02*
X12531967Y-10492770D01*
X12827205Y-10378484D02*
X12731967Y-10378484D01*
X12731967Y-10378484D02*
X12722443Y-10473722D01*
X12722443Y-10473722D02*
X12731967Y-10464198D01*
X12731967Y-10464198D02*
X12751015Y-10454674D01*
X12751015Y-10454674D02*
X12798634Y-10454674D01*
X12798634Y-10454674D02*
X12817682Y-10464198D01*
X12817682Y-10464198D02*
X12827205Y-10473722D01*
X12827205Y-10473722D02*
X12836729Y-10492770D01*
X12836729Y-10492770D02*
X12836729Y-10540389D01*
X12836729Y-10540389D02*
X12827205Y-10559436D01*
X12827205Y-10559436D02*
X12817682Y-10568960D01*
X12817682Y-10568960D02*
X12798634Y-10578484D01*
X12798634Y-10578484D02*
X12751015Y-10578484D01*
X12751015Y-10578484D02*
X12731967Y-10568960D01*
X12731967Y-10568960D02*
X12722443Y-10559436D01*
X12960539Y-10378484D02*
X12979586Y-10378484D01*
X12979586Y-10378484D02*
X12998634Y-10388008D01*
X12998634Y-10388008D02*
X13008158Y-10397531D01*
X13008158Y-10397531D02*
X13017682Y-10416579D01*
X13017682Y-10416579D02*
X13027205Y-10454674D01*
X13027205Y-10454674D02*
X13027205Y-10502293D01*
X13027205Y-10502293D02*
X13017682Y-10540389D01*
X13017682Y-10540389D02*
X13008158Y-10559436D01*
X13008158Y-10559436D02*
X12998634Y-10568960D01*
X12998634Y-10568960D02*
X12979586Y-10578484D01*
X12979586Y-10578484D02*
X12960539Y-10578484D01*
X12960539Y-10578484D02*
X12941491Y-10568960D01*
X12941491Y-10568960D02*
X12931967Y-10559436D01*
X12931967Y-10559436D02*
X12922443Y-10540389D01*
X12922443Y-10540389D02*
X12912920Y-10502293D01*
X12912920Y-10502293D02*
X12912920Y-10454674D01*
X12912920Y-10454674D02*
X12922443Y-10416579D01*
X12922443Y-10416579D02*
X12931967Y-10397531D01*
X12931967Y-10397531D02*
X12941491Y-10388008D01*
X12941491Y-10388008D02*
X12960539Y-10378484D01*
X13112920Y-10578484D02*
X13112920Y-10445150D01*
X13112920Y-10464198D02*
X13122443Y-10454674D01*
X13122443Y-10454674D02*
X13141491Y-10445150D01*
X13141491Y-10445150D02*
X13170063Y-10445150D01*
X13170063Y-10445150D02*
X13189110Y-10454674D01*
X13189110Y-10454674D02*
X13198634Y-10473722D01*
X13198634Y-10473722D02*
X13198634Y-10578484D01*
X13198634Y-10473722D02*
X13208158Y-10454674D01*
X13208158Y-10454674D02*
X13227205Y-10445150D01*
X13227205Y-10445150D02*
X13255777Y-10445150D01*
X13255777Y-10445150D02*
X13274824Y-10454674D01*
X13274824Y-10454674D02*
X13284348Y-10473722D01*
X13284348Y-10473722D02*
X13284348Y-10578484D01*
X13379586Y-10578484D02*
X13379586Y-10445150D01*
X13379586Y-10464198D02*
X13389110Y-10454674D01*
X13389110Y-10454674D02*
X13408158Y-10445150D01*
X13408158Y-10445150D02*
X13436729Y-10445150D01*
X13436729Y-10445150D02*
X13455777Y-10454674D01*
X13455777Y-10454674D02*
X13465301Y-10473722D01*
X13465301Y-10473722D02*
X13465301Y-10578484D01*
X13465301Y-10473722D02*
X13474824Y-10454674D01*
X13474824Y-10454674D02*
X13493872Y-10445150D01*
X13493872Y-10445150D02*
X13522443Y-10445150D01*
X13522443Y-10445150D02*
X13541491Y-10454674D01*
X13541491Y-10454674D02*
X13551015Y-10473722D01*
X13551015Y-10473722D02*
X13551015Y-10578484D01*
X13941491Y-10368960D02*
X13770063Y-10626103D01*
X14198634Y-10378484D02*
X14217682Y-10378484D01*
X14217682Y-10378484D02*
X14236729Y-10388008D01*
X14236729Y-10388008D02*
X14246253Y-10397531D01*
X14246253Y-10397531D02*
X14255777Y-10416579D01*
X14255777Y-10416579D02*
X14265301Y-10454674D01*
X14265301Y-10454674D02*
X14265301Y-10502293D01*
X14265301Y-10502293D02*
X14255777Y-10540389D01*
X14255777Y-10540389D02*
X14246253Y-10559436D01*
X14246253Y-10559436D02*
X14236729Y-10568960D01*
X14236729Y-10568960D02*
X14217682Y-10578484D01*
X14217682Y-10578484D02*
X14198634Y-10578484D01*
X14198634Y-10578484D02*
X14179586Y-10568960D01*
X14179586Y-10568960D02*
X14170063Y-10559436D01*
X14170063Y-10559436D02*
X14160539Y-10540389D01*
X14160539Y-10540389D02*
X14151015Y-10502293D01*
X14151015Y-10502293D02*
X14151015Y-10454674D01*
X14151015Y-10454674D02*
X14160539Y-10416579D01*
X14160539Y-10416579D02*
X14170063Y-10397531D01*
X14170063Y-10397531D02*
X14179586Y-10388008D01*
X14179586Y-10388008D02*
X14198634Y-10378484D01*
X14351015Y-10559436D02*
X14360539Y-10568960D01*
X14360539Y-10568960D02*
X14351015Y-10578484D01*
X14351015Y-10578484D02*
X14341491Y-10568960D01*
X14341491Y-10568960D02*
X14351015Y-10559436D01*
X14351015Y-10559436D02*
X14351015Y-10578484D01*
X14484348Y-10378484D02*
X14503396Y-10378484D01*
X14503396Y-10378484D02*
X14522444Y-10388008D01*
X14522444Y-10388008D02*
X14531967Y-10397531D01*
X14531967Y-10397531D02*
X14541491Y-10416579D01*
X14541491Y-10416579D02*
X14551015Y-10454674D01*
X14551015Y-10454674D02*
X14551015Y-10502293D01*
X14551015Y-10502293D02*
X14541491Y-10540389D01*
X14541491Y-10540389D02*
X14531967Y-10559436D01*
X14531967Y-10559436D02*
X14522444Y-10568960D01*
X14522444Y-10568960D02*
X14503396Y-10578484D01*
X14503396Y-10578484D02*
X14484348Y-10578484D01*
X14484348Y-10578484D02*
X14465301Y-10568960D01*
X14465301Y-10568960D02*
X14455777Y-10559436D01*
X14455777Y-10559436D02*
X14446253Y-10540389D01*
X14446253Y-10540389D02*
X14436729Y-10502293D01*
X14436729Y-10502293D02*
X14436729Y-10454674D01*
X14436729Y-10454674D02*
X14446253Y-10416579D01*
X14446253Y-10416579D02*
X14455777Y-10397531D01*
X14455777Y-10397531D02*
X14465301Y-10388008D01*
X14465301Y-10388008D02*
X14484348Y-10378484D01*
X14627206Y-10397531D02*
X14636729Y-10388008D01*
X14636729Y-10388008D02*
X14655777Y-10378484D01*
X14655777Y-10378484D02*
X14703396Y-10378484D01*
X14703396Y-10378484D02*
X14722444Y-10388008D01*
X14722444Y-10388008D02*
X14731967Y-10397531D01*
X14731967Y-10397531D02*
X14741491Y-10416579D01*
X14741491Y-10416579D02*
X14741491Y-10435627D01*
X14741491Y-10435627D02*
X14731967Y-10464198D01*
X14731967Y-10464198D02*
X14617682Y-10578484D01*
X14617682Y-10578484D02*
X14741491Y-10578484D01*
X14922444Y-10378484D02*
X14827206Y-10378484D01*
X14827206Y-10378484D02*
X14817682Y-10473722D01*
X14817682Y-10473722D02*
X14827206Y-10464198D01*
X14827206Y-10464198D02*
X14846253Y-10454674D01*
X14846253Y-10454674D02*
X14893872Y-10454674D01*
X14893872Y-10454674D02*
X14912920Y-10464198D01*
X14912920Y-10464198D02*
X14922444Y-10473722D01*
X14922444Y-10473722D02*
X14931967Y-10492770D01*
X14931967Y-10492770D02*
X14931967Y-10540389D01*
X14931967Y-10540389D02*
X14922444Y-10559436D01*
X14922444Y-10559436D02*
X14912920Y-10568960D01*
X14912920Y-10568960D02*
X14893872Y-10578484D01*
X14893872Y-10578484D02*
X14846253Y-10578484D01*
X14846253Y-10578484D02*
X14827206Y-10568960D01*
X14827206Y-10568960D02*
X14817682Y-10559436D01*
X15103396Y-10378484D02*
X15065301Y-10378484D01*
X15065301Y-10378484D02*
X15046253Y-10388008D01*
X15046253Y-10388008D02*
X15036729Y-10397531D01*
X15036729Y-10397531D02*
X15017682Y-10426103D01*
X15017682Y-10426103D02*
X15008158Y-10464198D01*
X15008158Y-10464198D02*
X15008158Y-10540389D01*
X15008158Y-10540389D02*
X15017682Y-10559436D01*
X15017682Y-10559436D02*
X15027206Y-10568960D01*
X15027206Y-10568960D02*
X15046253Y-10578484D01*
X15046253Y-10578484D02*
X15084348Y-10578484D01*
X15084348Y-10578484D02*
X15103396Y-10568960D01*
X15103396Y-10568960D02*
X15112920Y-10559436D01*
X15112920Y-10559436D02*
X15122444Y-10540389D01*
X15122444Y-10540389D02*
X15122444Y-10492770D01*
X15122444Y-10492770D02*
X15112920Y-10473722D01*
X15112920Y-10473722D02*
X15103396Y-10464198D01*
X15103396Y-10464198D02*
X15084348Y-10454674D01*
X15084348Y-10454674D02*
X15046253Y-10454674D01*
X15046253Y-10454674D02*
X15027206Y-10464198D01*
X15027206Y-10464198D02*
X15017682Y-10473722D01*
X15017682Y-10473722D02*
X15008158Y-10492770D01*
X15198634Y-10378484D02*
X15198634Y-10416579D01*
X15274825Y-10378484D02*
X15274825Y-10416579D01*
X15570063Y-10654674D02*
X15560539Y-10645150D01*
X15560539Y-10645150D02*
X15541491Y-10616579D01*
X15541491Y-10616579D02*
X15531968Y-10597531D01*
X15531968Y-10597531D02*
X15522444Y-10568960D01*
X15522444Y-10568960D02*
X15512920Y-10521341D01*
X15512920Y-10521341D02*
X15512920Y-10483246D01*
X15512920Y-10483246D02*
X15522444Y-10435627D01*
X15522444Y-10435627D02*
X15531968Y-10407055D01*
X15531968Y-10407055D02*
X15541491Y-10388008D01*
X15541491Y-10388008D02*
X15560539Y-10359436D01*
X15560539Y-10359436D02*
X15570063Y-10349912D01*
X15731968Y-10378484D02*
X15693872Y-10378484D01*
X15693872Y-10378484D02*
X15674825Y-10388008D01*
X15674825Y-10388008D02*
X15665301Y-10397531D01*
X15665301Y-10397531D02*
X15646253Y-10426103D01*
X15646253Y-10426103D02*
X15636729Y-10464198D01*
X15636729Y-10464198D02*
X15636729Y-10540389D01*
X15636729Y-10540389D02*
X15646253Y-10559436D01*
X15646253Y-10559436D02*
X15655777Y-10568960D01*
X15655777Y-10568960D02*
X15674825Y-10578484D01*
X15674825Y-10578484D02*
X15712920Y-10578484D01*
X15712920Y-10578484D02*
X15731968Y-10568960D01*
X15731968Y-10568960D02*
X15741491Y-10559436D01*
X15741491Y-10559436D02*
X15751015Y-10540389D01*
X15751015Y-10540389D02*
X15751015Y-10492770D01*
X15751015Y-10492770D02*
X15741491Y-10473722D01*
X15741491Y-10473722D02*
X15731968Y-10464198D01*
X15731968Y-10464198D02*
X15712920Y-10454674D01*
X15712920Y-10454674D02*
X15674825Y-10454674D01*
X15674825Y-10454674D02*
X15655777Y-10464198D01*
X15655777Y-10464198D02*
X15646253Y-10473722D01*
X15646253Y-10473722D02*
X15636729Y-10492770D01*
X15989110Y-10578484D02*
X15989110Y-10378484D01*
X16074825Y-10578484D02*
X16074825Y-10473722D01*
X16074825Y-10473722D02*
X16065301Y-10454674D01*
X16065301Y-10454674D02*
X16046253Y-10445150D01*
X16046253Y-10445150D02*
X16017682Y-10445150D01*
X16017682Y-10445150D02*
X15998634Y-10454674D01*
X15998634Y-10454674D02*
X15989110Y-10464198D01*
X16198634Y-10578484D02*
X16179587Y-10568960D01*
X16179587Y-10568960D02*
X16170063Y-10559436D01*
X16170063Y-10559436D02*
X16160539Y-10540389D01*
X16160539Y-10540389D02*
X16160539Y-10483246D01*
X16160539Y-10483246D02*
X16170063Y-10464198D01*
X16170063Y-10464198D02*
X16179587Y-10454674D01*
X16179587Y-10454674D02*
X16198634Y-10445150D01*
X16198634Y-10445150D02*
X16227206Y-10445150D01*
X16227206Y-10445150D02*
X16246253Y-10454674D01*
X16246253Y-10454674D02*
X16255777Y-10464198D01*
X16255777Y-10464198D02*
X16265301Y-10483246D01*
X16265301Y-10483246D02*
X16265301Y-10540389D01*
X16265301Y-10540389D02*
X16255777Y-10559436D01*
X16255777Y-10559436D02*
X16246253Y-10568960D01*
X16246253Y-10568960D02*
X16227206Y-10578484D01*
X16227206Y-10578484D02*
X16198634Y-10578484D01*
X16379587Y-10578484D02*
X16360539Y-10568960D01*
X16360539Y-10568960D02*
X16351015Y-10549912D01*
X16351015Y-10549912D02*
X16351015Y-10378484D01*
X16531968Y-10568960D02*
X16512920Y-10578484D01*
X16512920Y-10578484D02*
X16474825Y-10578484D01*
X16474825Y-10578484D02*
X16455777Y-10568960D01*
X16455777Y-10568960D02*
X16446253Y-10549912D01*
X16446253Y-10549912D02*
X16446253Y-10473722D01*
X16446253Y-10473722D02*
X16455777Y-10454674D01*
X16455777Y-10454674D02*
X16474825Y-10445150D01*
X16474825Y-10445150D02*
X16512920Y-10445150D01*
X16512920Y-10445150D02*
X16531968Y-10454674D01*
X16531968Y-10454674D02*
X16541491Y-10473722D01*
X16541491Y-10473722D02*
X16541491Y-10492770D01*
X16541491Y-10492770D02*
X16446253Y-10511817D01*
X16617682Y-10568960D02*
X16636730Y-10578484D01*
X16636730Y-10578484D02*
X16674825Y-10578484D01*
X16674825Y-10578484D02*
X16693872Y-10568960D01*
X16693872Y-10568960D02*
X16703396Y-10549912D01*
X16703396Y-10549912D02*
X16703396Y-10540389D01*
X16703396Y-10540389D02*
X16693872Y-10521341D01*
X16693872Y-10521341D02*
X16674825Y-10511817D01*
X16674825Y-10511817D02*
X16646253Y-10511817D01*
X16646253Y-10511817D02*
X16627206Y-10502293D01*
X16627206Y-10502293D02*
X16617682Y-10483246D01*
X16617682Y-10483246D02*
X16617682Y-10473722D01*
X16617682Y-10473722D02*
X16627206Y-10454674D01*
X16627206Y-10454674D02*
X16646253Y-10445150D01*
X16646253Y-10445150D02*
X16674825Y-10445150D01*
X16674825Y-10445150D02*
X16693872Y-10454674D01*
X16770063Y-10654674D02*
X16779587Y-10645150D01*
X16779587Y-10645150D02*
X16798634Y-10616579D01*
X16798634Y-10616579D02*
X16808158Y-10597531D01*
X16808158Y-10597531D02*
X16817682Y-10568960D01*
X16817682Y-10568960D02*
X16827206Y-10521341D01*
X16827206Y-10521341D02*
X16827206Y-10483246D01*
X16827206Y-10483246D02*
X16817682Y-10435627D01*
X16817682Y-10435627D02*
X16808158Y-10407055D01*
X16808158Y-10407055D02*
X16798634Y-10388008D01*
X16798634Y-10388008D02*
X16779587Y-10359436D01*
X16779587Y-10359436D02*
X16770063Y-10349912D01*
D16*
X11947500Y-10798500D02*
X11995000Y-10751000D01*
X11947500Y-10703500D01*
X11900000Y-10751000D01*
X11947500Y-10798500D01*
D11*
X12293872Y-10642484D02*
X12312920Y-10642484D01*
X12312920Y-10642484D02*
X12331967Y-10652008D01*
X12331967Y-10652008D02*
X12341491Y-10661531D01*
X12341491Y-10661531D02*
X12351015Y-10680579D01*
X12351015Y-10680579D02*
X12360539Y-10718674D01*
X12360539Y-10718674D02*
X12360539Y-10766293D01*
X12360539Y-10766293D02*
X12351015Y-10804389D01*
X12351015Y-10804389D02*
X12341491Y-10823436D01*
X12341491Y-10823436D02*
X12331967Y-10832960D01*
X12331967Y-10832960D02*
X12312920Y-10842484D01*
X12312920Y-10842484D02*
X12293872Y-10842484D01*
X12293872Y-10842484D02*
X12274824Y-10832960D01*
X12274824Y-10832960D02*
X12265301Y-10823436D01*
X12265301Y-10823436D02*
X12255777Y-10804389D01*
X12255777Y-10804389D02*
X12246253Y-10766293D01*
X12246253Y-10766293D02*
X12246253Y-10718674D01*
X12246253Y-10718674D02*
X12255777Y-10680579D01*
X12255777Y-10680579D02*
X12265301Y-10661531D01*
X12265301Y-10661531D02*
X12274824Y-10652008D01*
X12274824Y-10652008D02*
X12293872Y-10642484D01*
X12446253Y-10823436D02*
X12455777Y-10832960D01*
X12455777Y-10832960D02*
X12446253Y-10842484D01*
X12446253Y-10842484D02*
X12436729Y-10832960D01*
X12436729Y-10832960D02*
X12446253Y-10823436D01*
X12446253Y-10823436D02*
X12446253Y-10842484D01*
X12551015Y-10842484D02*
X12589110Y-10842484D01*
X12589110Y-10842484D02*
X12608158Y-10832960D01*
X12608158Y-10832960D02*
X12617682Y-10823436D01*
X12617682Y-10823436D02*
X12636729Y-10794865D01*
X12636729Y-10794865D02*
X12646253Y-10756770D01*
X12646253Y-10756770D02*
X12646253Y-10680579D01*
X12646253Y-10680579D02*
X12636729Y-10661531D01*
X12636729Y-10661531D02*
X12627205Y-10652008D01*
X12627205Y-10652008D02*
X12608158Y-10642484D01*
X12608158Y-10642484D02*
X12570062Y-10642484D01*
X12570062Y-10642484D02*
X12551015Y-10652008D01*
X12551015Y-10652008D02*
X12541491Y-10661531D01*
X12541491Y-10661531D02*
X12531967Y-10680579D01*
X12531967Y-10680579D02*
X12531967Y-10728198D01*
X12531967Y-10728198D02*
X12541491Y-10747246D01*
X12541491Y-10747246D02*
X12551015Y-10756770D01*
X12551015Y-10756770D02*
X12570062Y-10766293D01*
X12570062Y-10766293D02*
X12608158Y-10766293D01*
X12608158Y-10766293D02*
X12627205Y-10756770D01*
X12627205Y-10756770D02*
X12636729Y-10747246D01*
X12636729Y-10747246D02*
X12646253Y-10728198D01*
X12827205Y-10642484D02*
X12731967Y-10642484D01*
X12731967Y-10642484D02*
X12722443Y-10737722D01*
X12722443Y-10737722D02*
X12731967Y-10728198D01*
X12731967Y-10728198D02*
X12751015Y-10718674D01*
X12751015Y-10718674D02*
X12798634Y-10718674D01*
X12798634Y-10718674D02*
X12817682Y-10728198D01*
X12817682Y-10728198D02*
X12827205Y-10737722D01*
X12827205Y-10737722D02*
X12836729Y-10756770D01*
X12836729Y-10756770D02*
X12836729Y-10804389D01*
X12836729Y-10804389D02*
X12827205Y-10823436D01*
X12827205Y-10823436D02*
X12817682Y-10832960D01*
X12817682Y-10832960D02*
X12798634Y-10842484D01*
X12798634Y-10842484D02*
X12751015Y-10842484D01*
X12751015Y-10842484D02*
X12731967Y-10832960D01*
X12731967Y-10832960D02*
X12722443Y-10823436D01*
X12960539Y-10642484D02*
X12979586Y-10642484D01*
X12979586Y-10642484D02*
X12998634Y-10652008D01*
X12998634Y-10652008D02*
X13008158Y-10661531D01*
X13008158Y-10661531D02*
X13017682Y-10680579D01*
X13017682Y-10680579D02*
X13027205Y-10718674D01*
X13027205Y-10718674D02*
X13027205Y-10766293D01*
X13027205Y-10766293D02*
X13017682Y-10804389D01*
X13017682Y-10804389D02*
X13008158Y-10823436D01*
X13008158Y-10823436D02*
X12998634Y-10832960D01*
X12998634Y-10832960D02*
X12979586Y-10842484D01*
X12979586Y-10842484D02*
X12960539Y-10842484D01*
X12960539Y-10842484D02*
X12941491Y-10832960D01*
X12941491Y-10832960D02*
X12931967Y-10823436D01*
X12931967Y-10823436D02*
X12922443Y-10804389D01*
X12922443Y-10804389D02*
X12912920Y-10766293D01*
X12912920Y-10766293D02*
X12912920Y-10718674D01*
X12912920Y-10718674D02*
X12922443Y-10680579D01*
X12922443Y-10680579D02*
X12931967Y-10661531D01*
X12931967Y-10661531D02*
X12941491Y-10652008D01*
X12941491Y-10652008D02*
X12960539Y-10642484D01*
X13112920Y-10842484D02*
X13112920Y-10709150D01*
X13112920Y-10728198D02*
X13122443Y-10718674D01*
X13122443Y-10718674D02*
X13141491Y-10709150D01*
X13141491Y-10709150D02*
X13170063Y-10709150D01*
X13170063Y-10709150D02*
X13189110Y-10718674D01*
X13189110Y-10718674D02*
X13198634Y-10737722D01*
X13198634Y-10737722D02*
X13198634Y-10842484D01*
X13198634Y-10737722D02*
X13208158Y-10718674D01*
X13208158Y-10718674D02*
X13227205Y-10709150D01*
X13227205Y-10709150D02*
X13255777Y-10709150D01*
X13255777Y-10709150D02*
X13274824Y-10718674D01*
X13274824Y-10718674D02*
X13284348Y-10737722D01*
X13284348Y-10737722D02*
X13284348Y-10842484D01*
X13379586Y-10842484D02*
X13379586Y-10709150D01*
X13379586Y-10728198D02*
X13389110Y-10718674D01*
X13389110Y-10718674D02*
X13408158Y-10709150D01*
X13408158Y-10709150D02*
X13436729Y-10709150D01*
X13436729Y-10709150D02*
X13455777Y-10718674D01*
X13455777Y-10718674D02*
X13465301Y-10737722D01*
X13465301Y-10737722D02*
X13465301Y-10842484D01*
X13465301Y-10737722D02*
X13474824Y-10718674D01*
X13474824Y-10718674D02*
X13493872Y-10709150D01*
X13493872Y-10709150D02*
X13522443Y-10709150D01*
X13522443Y-10709150D02*
X13541491Y-10718674D01*
X13541491Y-10718674D02*
X13551015Y-10737722D01*
X13551015Y-10737722D02*
X13551015Y-10842484D01*
X13941491Y-10632960D02*
X13770063Y-10890103D01*
X14198634Y-10642484D02*
X14217682Y-10642484D01*
X14217682Y-10642484D02*
X14236729Y-10652008D01*
X14236729Y-10652008D02*
X14246253Y-10661531D01*
X14246253Y-10661531D02*
X14255777Y-10680579D01*
X14255777Y-10680579D02*
X14265301Y-10718674D01*
X14265301Y-10718674D02*
X14265301Y-10766293D01*
X14265301Y-10766293D02*
X14255777Y-10804389D01*
X14255777Y-10804389D02*
X14246253Y-10823436D01*
X14246253Y-10823436D02*
X14236729Y-10832960D01*
X14236729Y-10832960D02*
X14217682Y-10842484D01*
X14217682Y-10842484D02*
X14198634Y-10842484D01*
X14198634Y-10842484D02*
X14179586Y-10832960D01*
X14179586Y-10832960D02*
X14170063Y-10823436D01*
X14170063Y-10823436D02*
X14160539Y-10804389D01*
X14160539Y-10804389D02*
X14151015Y-10766293D01*
X14151015Y-10766293D02*
X14151015Y-10718674D01*
X14151015Y-10718674D02*
X14160539Y-10680579D01*
X14160539Y-10680579D02*
X14170063Y-10661531D01*
X14170063Y-10661531D02*
X14179586Y-10652008D01*
X14179586Y-10652008D02*
X14198634Y-10642484D01*
X14351015Y-10823436D02*
X14360539Y-10832960D01*
X14360539Y-10832960D02*
X14351015Y-10842484D01*
X14351015Y-10842484D02*
X14341491Y-10832960D01*
X14341491Y-10832960D02*
X14351015Y-10823436D01*
X14351015Y-10823436D02*
X14351015Y-10842484D01*
X14484348Y-10642484D02*
X14503396Y-10642484D01*
X14503396Y-10642484D02*
X14522444Y-10652008D01*
X14522444Y-10652008D02*
X14531967Y-10661531D01*
X14531967Y-10661531D02*
X14541491Y-10680579D01*
X14541491Y-10680579D02*
X14551015Y-10718674D01*
X14551015Y-10718674D02*
X14551015Y-10766293D01*
X14551015Y-10766293D02*
X14541491Y-10804389D01*
X14541491Y-10804389D02*
X14531967Y-10823436D01*
X14531967Y-10823436D02*
X14522444Y-10832960D01*
X14522444Y-10832960D02*
X14503396Y-10842484D01*
X14503396Y-10842484D02*
X14484348Y-10842484D01*
X14484348Y-10842484D02*
X14465301Y-10832960D01*
X14465301Y-10832960D02*
X14455777Y-10823436D01*
X14455777Y-10823436D02*
X14446253Y-10804389D01*
X14446253Y-10804389D02*
X14436729Y-10766293D01*
X14436729Y-10766293D02*
X14436729Y-10718674D01*
X14436729Y-10718674D02*
X14446253Y-10680579D01*
X14446253Y-10680579D02*
X14455777Y-10661531D01*
X14455777Y-10661531D02*
X14465301Y-10652008D01*
X14465301Y-10652008D02*
X14484348Y-10642484D01*
X14617682Y-10642484D02*
X14741491Y-10642484D01*
X14741491Y-10642484D02*
X14674825Y-10718674D01*
X14674825Y-10718674D02*
X14703396Y-10718674D01*
X14703396Y-10718674D02*
X14722444Y-10728198D01*
X14722444Y-10728198D02*
X14731967Y-10737722D01*
X14731967Y-10737722D02*
X14741491Y-10756770D01*
X14741491Y-10756770D02*
X14741491Y-10804389D01*
X14741491Y-10804389D02*
X14731967Y-10823436D01*
X14731967Y-10823436D02*
X14722444Y-10832960D01*
X14722444Y-10832960D02*
X14703396Y-10842484D01*
X14703396Y-10842484D02*
X14646253Y-10842484D01*
X14646253Y-10842484D02*
X14627206Y-10832960D01*
X14627206Y-10832960D02*
X14617682Y-10823436D01*
X14808158Y-10642484D02*
X14941491Y-10642484D01*
X14941491Y-10642484D02*
X14855777Y-10842484D01*
X15103396Y-10709150D02*
X15103396Y-10842484D01*
X15055777Y-10632960D02*
X15008158Y-10775817D01*
X15008158Y-10775817D02*
X15131967Y-10775817D01*
X15198634Y-10642484D02*
X15198634Y-10680579D01*
X15274825Y-10642484D02*
X15274825Y-10680579D01*
X15570063Y-10918674D02*
X15560539Y-10909150D01*
X15560539Y-10909150D02*
X15541491Y-10880579D01*
X15541491Y-10880579D02*
X15531968Y-10861531D01*
X15531968Y-10861531D02*
X15522444Y-10832960D01*
X15522444Y-10832960D02*
X15512920Y-10785341D01*
X15512920Y-10785341D02*
X15512920Y-10747246D01*
X15512920Y-10747246D02*
X15522444Y-10699627D01*
X15522444Y-10699627D02*
X15531968Y-10671055D01*
X15531968Y-10671055D02*
X15541491Y-10652008D01*
X15541491Y-10652008D02*
X15560539Y-10623436D01*
X15560539Y-10623436D02*
X15570063Y-10613912D01*
X15627206Y-10642484D02*
X15751015Y-10642484D01*
X15751015Y-10642484D02*
X15684348Y-10718674D01*
X15684348Y-10718674D02*
X15712920Y-10718674D01*
X15712920Y-10718674D02*
X15731968Y-10728198D01*
X15731968Y-10728198D02*
X15741491Y-10737722D01*
X15741491Y-10737722D02*
X15751015Y-10756770D01*
X15751015Y-10756770D02*
X15751015Y-10804389D01*
X15751015Y-10804389D02*
X15741491Y-10823436D01*
X15741491Y-10823436D02*
X15731968Y-10832960D01*
X15731968Y-10832960D02*
X15712920Y-10842484D01*
X15712920Y-10842484D02*
X15655777Y-10842484D01*
X15655777Y-10842484D02*
X15636729Y-10832960D01*
X15636729Y-10832960D02*
X15627206Y-10823436D01*
X15989110Y-10842484D02*
X15989110Y-10642484D01*
X16074825Y-10842484D02*
X16074825Y-10737722D01*
X16074825Y-10737722D02*
X16065301Y-10718674D01*
X16065301Y-10718674D02*
X16046253Y-10709150D01*
X16046253Y-10709150D02*
X16017682Y-10709150D01*
X16017682Y-10709150D02*
X15998634Y-10718674D01*
X15998634Y-10718674D02*
X15989110Y-10728198D01*
X16198634Y-10842484D02*
X16179587Y-10832960D01*
X16179587Y-10832960D02*
X16170063Y-10823436D01*
X16170063Y-10823436D02*
X16160539Y-10804389D01*
X16160539Y-10804389D02*
X16160539Y-10747246D01*
X16160539Y-10747246D02*
X16170063Y-10728198D01*
X16170063Y-10728198D02*
X16179587Y-10718674D01*
X16179587Y-10718674D02*
X16198634Y-10709150D01*
X16198634Y-10709150D02*
X16227206Y-10709150D01*
X16227206Y-10709150D02*
X16246253Y-10718674D01*
X16246253Y-10718674D02*
X16255777Y-10728198D01*
X16255777Y-10728198D02*
X16265301Y-10747246D01*
X16265301Y-10747246D02*
X16265301Y-10804389D01*
X16265301Y-10804389D02*
X16255777Y-10823436D01*
X16255777Y-10823436D02*
X16246253Y-10832960D01*
X16246253Y-10832960D02*
X16227206Y-10842484D01*
X16227206Y-10842484D02*
X16198634Y-10842484D01*
X16379587Y-10842484D02*
X16360539Y-10832960D01*
X16360539Y-10832960D02*
X16351015Y-10813912D01*
X16351015Y-10813912D02*
X16351015Y-10642484D01*
X16531968Y-10832960D02*
X16512920Y-10842484D01*
X16512920Y-10842484D02*
X16474825Y-10842484D01*
X16474825Y-10842484D02*
X16455777Y-10832960D01*
X16455777Y-10832960D02*
X16446253Y-10813912D01*
X16446253Y-10813912D02*
X16446253Y-10737722D01*
X16446253Y-10737722D02*
X16455777Y-10718674D01*
X16455777Y-10718674D02*
X16474825Y-10709150D01*
X16474825Y-10709150D02*
X16512920Y-10709150D01*
X16512920Y-10709150D02*
X16531968Y-10718674D01*
X16531968Y-10718674D02*
X16541491Y-10737722D01*
X16541491Y-10737722D02*
X16541491Y-10756770D01*
X16541491Y-10756770D02*
X16446253Y-10775817D01*
X16617682Y-10832960D02*
X16636730Y-10842484D01*
X16636730Y-10842484D02*
X16674825Y-10842484D01*
X16674825Y-10842484D02*
X16693872Y-10832960D01*
X16693872Y-10832960D02*
X16703396Y-10813912D01*
X16703396Y-10813912D02*
X16703396Y-10804389D01*
X16703396Y-10804389D02*
X16693872Y-10785341D01*
X16693872Y-10785341D02*
X16674825Y-10775817D01*
X16674825Y-10775817D02*
X16646253Y-10775817D01*
X16646253Y-10775817D02*
X16627206Y-10766293D01*
X16627206Y-10766293D02*
X16617682Y-10747246D01*
X16617682Y-10747246D02*
X16617682Y-10737722D01*
X16617682Y-10737722D02*
X16627206Y-10718674D01*
X16627206Y-10718674D02*
X16646253Y-10709150D01*
X16646253Y-10709150D02*
X16674825Y-10709150D01*
X16674825Y-10709150D02*
X16693872Y-10718674D01*
X16770063Y-10918674D02*
X16779587Y-10909150D01*
X16779587Y-10909150D02*
X16798634Y-10880579D01*
X16798634Y-10880579D02*
X16808158Y-10861531D01*
X16808158Y-10861531D02*
X16817682Y-10832960D01*
X16817682Y-10832960D02*
X16827206Y-10785341D01*
X16827206Y-10785341D02*
X16827206Y-10747246D01*
X16827206Y-10747246D02*
X16817682Y-10699627D01*
X16817682Y-10699627D02*
X16808158Y-10671055D01*
X16808158Y-10671055D02*
X16798634Y-10652008D01*
X16798634Y-10652008D02*
X16779587Y-10623436D01*
X16779587Y-10623436D02*
X16770063Y-10613912D01*
M02*
