%TF.GenerationSoftware,KiCad,Pcbnew,7.0.1-0*%
%TF.CreationDate,2023-06-03T17:14:53+02:00*%
%TF.ProjectId,BatMon,4261744d-6f6e-42e6-9b69-6361645f7063,rev?*%
%TF.SameCoordinates,Original*%
%TF.FileFunction,Copper,L3,Inr*%
%TF.FilePolarity,Positive*%
%FSLAX46Y46*%
G04 Gerber Fmt 4.6, Leading zero omitted, Abs format (unit mm)*
G04 Created by KiCad (PCBNEW 7.0.1-0) date 2023-06-03 17:14:53*
%MOMM*%
%LPD*%
G01*
G04 APERTURE LIST*
G04 Aperture macros list*
%AMRoundRect*
0 Rectangle with rounded corners*
0 $1 Rounding radius*
0 $2 $3 $4 $5 $6 $7 $8 $9 X,Y pos of 4 corners*
0 Add a 4 corners polygon primitive as box body*
4,1,4,$2,$3,$4,$5,$6,$7,$8,$9,$2,$3,0*
0 Add four circle primitives for the rounded corners*
1,1,$1+$1,$2,$3*
1,1,$1+$1,$4,$5*
1,1,$1+$1,$6,$7*
1,1,$1+$1,$8,$9*
0 Add four rect primitives between the rounded corners*
20,1,$1+$1,$2,$3,$4,$5,0*
20,1,$1+$1,$4,$5,$6,$7,0*
20,1,$1+$1,$6,$7,$8,$9,0*
20,1,$1+$1,$8,$9,$2,$3,0*%
G04 Aperture macros list end*
%TA.AperFunction,ComponentPad*%
%ADD10RoundRect,0.400000X3.100000X-0.400000X3.100000X0.400000X-3.100000X0.400000X-3.100000X-0.400000X0*%
%TD*%
%TA.AperFunction,HeatsinkPad*%
%ADD11C,0.600000*%
%TD*%
%TA.AperFunction,ComponentPad*%
%ADD12R,1.000000X1.000000*%
%TD*%
%TA.AperFunction,ComponentPad*%
%ADD13O,1.000000X1.000000*%
%TD*%
%TA.AperFunction,ComponentPad*%
%ADD14RoundRect,0.250000X-0.600000X-0.725000X0.600000X-0.725000X0.600000X0.725000X-0.600000X0.725000X0*%
%TD*%
%TA.AperFunction,ComponentPad*%
%ADD15O,1.700000X1.950000*%
%TD*%
%TA.AperFunction,ViaPad*%
%ADD16C,0.800000*%
%TD*%
G04 APERTURE END LIST*
D10*
X148500000Y-72650000D03*
D11*
X131980000Y-65570000D03*
X131980000Y-64170000D03*
X131280000Y-66270000D03*
X131280000Y-64870000D03*
X131280000Y-63470000D03*
X130555000Y-65570000D03*
X130555000Y-64170000D03*
X129880000Y-66270000D03*
X129880000Y-64870000D03*
X129880000Y-63470000D03*
X129180000Y-65570000D03*
X129180000Y-64170000D03*
D12*
X142875000Y-58420000D03*
D13*
X142875000Y-59690000D03*
X142875000Y-60960000D03*
X142875000Y-62230000D03*
X142875000Y-63500000D03*
X142875000Y-64770000D03*
D14*
X123230000Y-84455000D03*
D15*
X125730000Y-84455000D03*
X128230000Y-84455000D03*
D16*
X127000000Y-63500000D03*
X133985000Y-63500000D03*
X140335000Y-80645000D03*
X130175000Y-86360000D03*
X137160000Y-71755000D03*
X125095000Y-58420000D03*
X128905000Y-76924500D03*
X130810000Y-76835000D03*
X139065000Y-59690000D03*
X142875000Y-74930000D03*
X139065000Y-63500000D03*
X125095000Y-59690000D03*
X134620000Y-73025000D03*
X135255000Y-63500000D03*
X129540000Y-67945000D03*
X126365000Y-73025000D03*
X137795000Y-63500000D03*
X121285000Y-61595000D03*
X140970000Y-75565000D03*
X142875000Y-57150000D03*
X125095000Y-57150000D03*
X140335000Y-81915000D03*
X125095000Y-63500000D03*
X138430000Y-71755000D03*
X126365000Y-80645000D03*
X130810000Y-83820000D03*
%TA.AperFunction,Conductor*%
G36*
X143438000Y-56016613D02*
G01*
X143483387Y-56062000D01*
X143500000Y-56124000D01*
X143500000Y-57295500D01*
X143483387Y-57357500D01*
X143438000Y-57402887D01*
X143376000Y-57419500D01*
X142327130Y-57419500D01*
X142267515Y-57425909D01*
X142132669Y-57476204D01*
X142017454Y-57562454D01*
X141931204Y-57677668D01*
X141880909Y-57812516D01*
X141874500Y-57872130D01*
X141874500Y-58967869D01*
X141880909Y-59027484D01*
X141931204Y-59162332D01*
X141937232Y-59170384D01*
X141961607Y-59235292D01*
X141949360Y-59293474D01*
X141949731Y-59293587D01*
X141948442Y-59297834D01*
X141947326Y-59303139D01*
X141946186Y-59305270D01*
X141888976Y-59493866D01*
X141869659Y-59689999D01*
X141888976Y-59886133D01*
X141946185Y-60074726D01*
X142044847Y-60259309D01*
X142043923Y-60259802D01*
X142062190Y-60296843D01*
X142062190Y-60353157D01*
X142043923Y-60390197D01*
X142044847Y-60390691D01*
X141946185Y-60575273D01*
X141888976Y-60763866D01*
X141869659Y-60959999D01*
X141888976Y-61156133D01*
X141946185Y-61344726D01*
X142044847Y-61529309D01*
X142043923Y-61529802D01*
X142062190Y-61566843D01*
X142062190Y-61623157D01*
X142043923Y-61660197D01*
X142044847Y-61660691D01*
X141946185Y-61845273D01*
X141888976Y-62033866D01*
X141869659Y-62229999D01*
X141888976Y-62426133D01*
X141946185Y-62614726D01*
X142044847Y-62799309D01*
X142044025Y-62799747D01*
X142062512Y-62837231D01*
X142062514Y-62893546D01*
X142044311Y-62930460D01*
X142045264Y-62930970D01*
X141946649Y-63115465D01*
X141905839Y-63249998D01*
X141905840Y-63250000D01*
X143001000Y-63250000D01*
X143063000Y-63266613D01*
X143108387Y-63312000D01*
X143125000Y-63374000D01*
X143125000Y-63626000D01*
X143108387Y-63688000D01*
X143063000Y-63733387D01*
X143001000Y-63750000D01*
X141905840Y-63750000D01*
X141905839Y-63750001D01*
X141946649Y-63884534D01*
X142045264Y-64069030D01*
X142044310Y-64069539D01*
X142062512Y-64106445D01*
X142062514Y-64162760D01*
X142044026Y-64200252D01*
X142044847Y-64200691D01*
X141946185Y-64385273D01*
X141888976Y-64573866D01*
X141869659Y-64770000D01*
X141888976Y-64966133D01*
X141946185Y-65154726D01*
X142027091Y-65306091D01*
X142039090Y-65328538D01*
X142164117Y-65480883D01*
X142316462Y-65605910D01*
X142490273Y-65698814D01*
X142678868Y-65756024D01*
X142875000Y-65775341D01*
X143071132Y-65756024D01*
X143259727Y-65698814D01*
X143317549Y-65667907D01*
X143379043Y-65653303D01*
X143439749Y-65670908D01*
X143483891Y-65716147D01*
X143500000Y-65777266D01*
X143500000Y-71000000D01*
X151376484Y-71030738D01*
X151438279Y-71047512D01*
X151483468Y-71092877D01*
X151500000Y-71154737D01*
X151500000Y-71226000D01*
X151483387Y-71288000D01*
X151438000Y-71333387D01*
X151376000Y-71350000D01*
X148750000Y-71350000D01*
X148750000Y-73950000D01*
X151376000Y-73950000D01*
X151438000Y-73966613D01*
X151483387Y-74012000D01*
X151500000Y-74074000D01*
X151500000Y-86876000D01*
X151483387Y-86938000D01*
X151438000Y-86983387D01*
X151376000Y-87000000D01*
X143500000Y-87000000D01*
X143500000Y-89876000D01*
X143483387Y-89938000D01*
X143438000Y-89983387D01*
X143376000Y-90000000D01*
X120624000Y-90000000D01*
X120562000Y-89983387D01*
X120516613Y-89938000D01*
X120500000Y-89876000D01*
X120500000Y-86359999D01*
X129269540Y-86359999D01*
X129289326Y-86548257D01*
X129347820Y-86728284D01*
X129442466Y-86892216D01*
X129569129Y-87032889D01*
X129722269Y-87144151D01*
X129895197Y-87221144D01*
X130080352Y-87260500D01*
X130080354Y-87260500D01*
X130269646Y-87260500D01*
X130269648Y-87260500D01*
X130393083Y-87234262D01*
X130454803Y-87221144D01*
X130627730Y-87144151D01*
X130780871Y-87032888D01*
X130907533Y-86892216D01*
X131002179Y-86728284D01*
X131060674Y-86548256D01*
X131080460Y-86360000D01*
X131060674Y-86171744D01*
X131029496Y-86075789D01*
X131002179Y-85991715D01*
X130907533Y-85827783D01*
X130780870Y-85687110D01*
X130627730Y-85575848D01*
X130454802Y-85498855D01*
X130269648Y-85459500D01*
X130269646Y-85459500D01*
X130080354Y-85459500D01*
X130080352Y-85459500D01*
X129895197Y-85498855D01*
X129722269Y-85575848D01*
X129569129Y-85687110D01*
X129442466Y-85827783D01*
X129347820Y-85991715D01*
X129289326Y-86171742D01*
X129269540Y-86359999D01*
X120500000Y-86359999D01*
X120500000Y-85230008D01*
X121879500Y-85230008D01*
X121890000Y-85332796D01*
X121945186Y-85499334D01*
X122037288Y-85648657D01*
X122161342Y-85772711D01*
X122161344Y-85772712D01*
X122310666Y-85864814D01*
X122422016Y-85901712D01*
X122477202Y-85919999D01*
X122487702Y-85921071D01*
X122579991Y-85930500D01*
X123880008Y-85930499D01*
X123982797Y-85919999D01*
X124149334Y-85864814D01*
X124298656Y-85772712D01*
X124422712Y-85648656D01*
X124514814Y-85499334D01*
X124514814Y-85499331D01*
X124518178Y-85493879D01*
X124557091Y-85454395D01*
X124609321Y-85435814D01*
X124664428Y-85441849D01*
X124711398Y-85471294D01*
X124858599Y-85618495D01*
X125052170Y-85754035D01*
X125266337Y-85853903D01*
X125494592Y-85915063D01*
X125730000Y-85935659D01*
X125965408Y-85915063D01*
X126193663Y-85853903D01*
X126407829Y-85754035D01*
X126601401Y-85618495D01*
X126768495Y-85451401D01*
X126878732Y-85293964D01*
X126923048Y-85255101D01*
X126980305Y-85241090D01*
X127037562Y-85255101D01*
X127081880Y-85293967D01*
X127191890Y-85451078D01*
X127358918Y-85618106D01*
X127552423Y-85753600D01*
X127766507Y-85853430D01*
X127979999Y-85910635D01*
X127980000Y-85910636D01*
X127980000Y-84705000D01*
X128480000Y-84705000D01*
X128480000Y-85910635D01*
X128693492Y-85853430D01*
X128907578Y-85753599D01*
X129101078Y-85618109D01*
X129268109Y-85451078D01*
X129338885Y-85349999D01*
X145194434Y-85349999D01*
X145214631Y-85529251D01*
X145214631Y-85529253D01*
X145214632Y-85529255D01*
X145274211Y-85699522D01*
X145308463Y-85754034D01*
X145370185Y-85852264D01*
X145497735Y-85979814D01*
X145497737Y-85979815D01*
X145497738Y-85979816D01*
X145650478Y-86075789D01*
X145820745Y-86135368D01*
X145887895Y-86142933D01*
X145955043Y-86150500D01*
X145955046Y-86150500D01*
X146044954Y-86150500D01*
X146044957Y-86150500D01*
X146102511Y-86144014D01*
X146179255Y-86135368D01*
X146349522Y-86075789D01*
X146502262Y-85979816D01*
X146629816Y-85852262D01*
X146725789Y-85699522D01*
X146785368Y-85529255D01*
X146805565Y-85350000D01*
X146785368Y-85170745D01*
X146725789Y-85000478D01*
X146629816Y-84847738D01*
X146629815Y-84847737D01*
X146629814Y-84847735D01*
X146502264Y-84720185D01*
X146373004Y-84638966D01*
X146349522Y-84624211D01*
X146179255Y-84564632D01*
X146179253Y-84564631D01*
X146179251Y-84564631D01*
X146044957Y-84549500D01*
X146044954Y-84549500D01*
X145955046Y-84549500D01*
X145955043Y-84549500D01*
X145820748Y-84564631D01*
X145820745Y-84564631D01*
X145820745Y-84564632D01*
X145650478Y-84624211D01*
X145650476Y-84624211D01*
X145650476Y-84624212D01*
X145497735Y-84720185D01*
X145370185Y-84847735D01*
X145274212Y-85000476D01*
X145214631Y-85170748D01*
X145194434Y-85349999D01*
X129338885Y-85349999D01*
X129403599Y-85257578D01*
X129503430Y-85043492D01*
X129564569Y-84815318D01*
X129574221Y-84705000D01*
X128480000Y-84705000D01*
X127980000Y-84705000D01*
X127980000Y-82999364D01*
X128480000Y-82999364D01*
X128480000Y-84205000D01*
X129574222Y-84205000D01*
X129574221Y-84204999D01*
X129564569Y-84094681D01*
X129503430Y-83866507D01*
X129481743Y-83819999D01*
X129904540Y-83819999D01*
X129924326Y-84008257D01*
X129982820Y-84188284D01*
X130077466Y-84352216D01*
X130204129Y-84492889D01*
X130357269Y-84604151D01*
X130530197Y-84681144D01*
X130715352Y-84720500D01*
X130715354Y-84720500D01*
X130904646Y-84720500D01*
X130904648Y-84720500D01*
X131028083Y-84694262D01*
X131089803Y-84681144D01*
X131262730Y-84604151D01*
X131262730Y-84604150D01*
X131415870Y-84492889D01*
X131542533Y-84352216D01*
X131637179Y-84188284D01*
X131637178Y-84188284D01*
X131695674Y-84008256D01*
X131715460Y-83820000D01*
X131695674Y-83631744D01*
X131664496Y-83535789D01*
X131637179Y-83451715D01*
X131542533Y-83287783D01*
X131415870Y-83147110D01*
X131262730Y-83035848D01*
X131089802Y-82958855D01*
X130904648Y-82919500D01*
X130904646Y-82919500D01*
X130715354Y-82919500D01*
X130715352Y-82919500D01*
X130530197Y-82958855D01*
X130357269Y-83035848D01*
X130204129Y-83147110D01*
X130077466Y-83287783D01*
X129982820Y-83451715D01*
X129924326Y-83631742D01*
X129904540Y-83819999D01*
X129481743Y-83819999D01*
X129403599Y-83652421D01*
X129268109Y-83458921D01*
X129101081Y-83291893D01*
X128907576Y-83156399D01*
X128693492Y-83056569D01*
X128480000Y-82999364D01*
X127980000Y-82999364D01*
X127979999Y-82999364D01*
X127766507Y-83056569D01*
X127552421Y-83156400D01*
X127358921Y-83291890D01*
X127191893Y-83458918D01*
X127081880Y-83616033D01*
X127037562Y-83654898D01*
X126980305Y-83668909D01*
X126923048Y-83654898D01*
X126878730Y-83616032D01*
X126874856Y-83610500D01*
X126768495Y-83458599D01*
X126601401Y-83291505D01*
X126407830Y-83155965D01*
X126193663Y-83056097D01*
X126118092Y-83035848D01*
X125965407Y-82994936D01*
X125730000Y-82974340D01*
X125494592Y-82994936D01*
X125266336Y-83056097D01*
X125052170Y-83155965D01*
X124858601Y-83291503D01*
X124711398Y-83438706D01*
X124664428Y-83468151D01*
X124609321Y-83474185D01*
X124557091Y-83455604D01*
X124518178Y-83416120D01*
X124422711Y-83261342D01*
X124298657Y-83137288D01*
X124149334Y-83045186D01*
X123982797Y-82990000D01*
X123880009Y-82979500D01*
X122579991Y-82979500D01*
X122477203Y-82990000D01*
X122310665Y-83045186D01*
X122161342Y-83137288D01*
X122037288Y-83261342D01*
X121945186Y-83410665D01*
X121890000Y-83577202D01*
X121879500Y-83679990D01*
X121879500Y-85230008D01*
X120500000Y-85230008D01*
X120500000Y-82809999D01*
X145194434Y-82809999D01*
X145214631Y-82989251D01*
X145214631Y-82989253D01*
X145214632Y-82989255D01*
X145274211Y-83159522D01*
X145274212Y-83159523D01*
X145370185Y-83312264D01*
X145497735Y-83439814D01*
X145497737Y-83439815D01*
X145497738Y-83439816D01*
X145650478Y-83535789D01*
X145820745Y-83595368D01*
X145887895Y-83602934D01*
X145955043Y-83610500D01*
X145955046Y-83610500D01*
X146044954Y-83610500D01*
X146044957Y-83610500D01*
X146102511Y-83604014D01*
X146179255Y-83595368D01*
X146349522Y-83535789D01*
X146502262Y-83439816D01*
X146629816Y-83312262D01*
X146725789Y-83159522D01*
X146785368Y-82989255D01*
X146805565Y-82810000D01*
X146785368Y-82630745D01*
X146725789Y-82460478D01*
X146629816Y-82307738D01*
X146629815Y-82307737D01*
X146629814Y-82307735D01*
X146502264Y-82180185D01*
X146439867Y-82140978D01*
X146349522Y-82084211D01*
X146179255Y-82024632D01*
X146179253Y-82024631D01*
X146179251Y-82024631D01*
X146044957Y-82009500D01*
X146044954Y-82009500D01*
X145955046Y-82009500D01*
X145955043Y-82009500D01*
X145820748Y-82024631D01*
X145820745Y-82024631D01*
X145820745Y-82024632D01*
X145650478Y-82084211D01*
X145650476Y-82084211D01*
X145650476Y-82084212D01*
X145497735Y-82180185D01*
X145370185Y-82307735D01*
X145274212Y-82460476D01*
X145214631Y-82630748D01*
X145194434Y-82809999D01*
X120500000Y-82809999D01*
X120500000Y-80645000D01*
X125459540Y-80645000D01*
X125479326Y-80833257D01*
X125537820Y-81013284D01*
X125632466Y-81177216D01*
X125759129Y-81317889D01*
X125912269Y-81429151D01*
X126085197Y-81506144D01*
X126270352Y-81545500D01*
X126270354Y-81545500D01*
X126459646Y-81545500D01*
X126459648Y-81545500D01*
X126583084Y-81519262D01*
X126644803Y-81506144D01*
X126817730Y-81429151D01*
X126970871Y-81317888D01*
X127097533Y-81177216D01*
X127192179Y-81013284D01*
X127250674Y-80833256D01*
X127270460Y-80645000D01*
X139429540Y-80645000D01*
X139449326Y-80833257D01*
X139507820Y-81013284D01*
X139602466Y-81177216D01*
X139729129Y-81317889D01*
X139882269Y-81429151D01*
X140055197Y-81506144D01*
X140240352Y-81545500D01*
X140240354Y-81545500D01*
X140429646Y-81545500D01*
X140429648Y-81545500D01*
X140553084Y-81519262D01*
X140614803Y-81506144D01*
X140787730Y-81429151D01*
X140940871Y-81317888D01*
X141067533Y-81177216D01*
X141162179Y-81013284D01*
X141220674Y-80833256D01*
X141240460Y-80645000D01*
X141220674Y-80456744D01*
X141162179Y-80276716D01*
X141162179Y-80276715D01*
X141158302Y-80269999D01*
X145194434Y-80269999D01*
X145214631Y-80449251D01*
X145214631Y-80449253D01*
X145214632Y-80449255D01*
X145274211Y-80619522D01*
X145290220Y-80645000D01*
X145370185Y-80772264D01*
X145497735Y-80899814D01*
X145497737Y-80899815D01*
X145497738Y-80899816D01*
X145650478Y-80995789D01*
X145820745Y-81055368D01*
X145887895Y-81062933D01*
X145955043Y-81070500D01*
X145955046Y-81070500D01*
X146044954Y-81070500D01*
X146044957Y-81070500D01*
X146102511Y-81064014D01*
X146179255Y-81055368D01*
X146349522Y-80995789D01*
X146502262Y-80899816D01*
X146629816Y-80772262D01*
X146725789Y-80619522D01*
X146785368Y-80449255D01*
X146805565Y-80270000D01*
X146785368Y-80090745D01*
X146725789Y-79920478D01*
X146629816Y-79767738D01*
X146629815Y-79767737D01*
X146629814Y-79767735D01*
X146502264Y-79640185D01*
X146439867Y-79600979D01*
X146349522Y-79544211D01*
X146179255Y-79484632D01*
X146179253Y-79484631D01*
X146179251Y-79484631D01*
X146044957Y-79469500D01*
X146044954Y-79469500D01*
X145955046Y-79469500D01*
X145955043Y-79469500D01*
X145820748Y-79484631D01*
X145820745Y-79484631D01*
X145820745Y-79484632D01*
X145650478Y-79544211D01*
X145650476Y-79544211D01*
X145650476Y-79544212D01*
X145497735Y-79640185D01*
X145370185Y-79767735D01*
X145360056Y-79783856D01*
X145274211Y-79920478D01*
X145214632Y-80090745D01*
X145214631Y-80090748D01*
X145194434Y-80269999D01*
X141158302Y-80269999D01*
X141067533Y-80112783D01*
X140940870Y-79972110D01*
X140787730Y-79860848D01*
X140614802Y-79783855D01*
X140429648Y-79744500D01*
X140429646Y-79744500D01*
X140240354Y-79744500D01*
X140240352Y-79744500D01*
X140055197Y-79783855D01*
X139882269Y-79860848D01*
X139729129Y-79972110D01*
X139602466Y-80112783D01*
X139507820Y-80276715D01*
X139449326Y-80456742D01*
X139429540Y-80645000D01*
X127270460Y-80645000D01*
X127250674Y-80456744D01*
X127192179Y-80276716D01*
X127192179Y-80276715D01*
X127097533Y-80112783D01*
X126970870Y-79972110D01*
X126817730Y-79860848D01*
X126644802Y-79783855D01*
X126459648Y-79744500D01*
X126459646Y-79744500D01*
X126270354Y-79744500D01*
X126270352Y-79744500D01*
X126085197Y-79783855D01*
X125912269Y-79860848D01*
X125759129Y-79972110D01*
X125632466Y-80112783D01*
X125537820Y-80276715D01*
X125479326Y-80456742D01*
X125459540Y-80645000D01*
X120500000Y-80645000D01*
X120500000Y-76924500D01*
X127999540Y-76924500D01*
X128019326Y-77112757D01*
X128077820Y-77292784D01*
X128172466Y-77456716D01*
X128299129Y-77597389D01*
X128452269Y-77708651D01*
X128625197Y-77785644D01*
X128810352Y-77825000D01*
X128810354Y-77825000D01*
X128999646Y-77825000D01*
X128999648Y-77825000D01*
X129123084Y-77798762D01*
X129184803Y-77785644D01*
X129357730Y-77708651D01*
X129357729Y-77708651D01*
X129510870Y-77597389D01*
X129637533Y-77456716D01*
X129732177Y-77292787D01*
X129732179Y-77292784D01*
X129754984Y-77222596D01*
X129784317Y-77174162D01*
X129832133Y-77143817D01*
X129888454Y-77137897D01*
X129941533Y-77157637D01*
X129980300Y-77198919D01*
X130077466Y-77367215D01*
X130204129Y-77507889D01*
X130357269Y-77619151D01*
X130530197Y-77696144D01*
X130715352Y-77735500D01*
X130715354Y-77735500D01*
X130904646Y-77735500D01*
X130904648Y-77735500D01*
X130930523Y-77730000D01*
X145194434Y-77730000D01*
X145214631Y-77909251D01*
X145214631Y-77909253D01*
X145214632Y-77909255D01*
X145274211Y-78079522D01*
X145274212Y-78079523D01*
X145370185Y-78232264D01*
X145497735Y-78359814D01*
X145497737Y-78359815D01*
X145497738Y-78359816D01*
X145650478Y-78455789D01*
X145820745Y-78515368D01*
X145887895Y-78522933D01*
X145955043Y-78530500D01*
X145955046Y-78530500D01*
X146044954Y-78530500D01*
X146044957Y-78530500D01*
X146102511Y-78524014D01*
X146179255Y-78515368D01*
X146349522Y-78455789D01*
X146502262Y-78359816D01*
X146629816Y-78232262D01*
X146725789Y-78079522D01*
X146785368Y-77909255D01*
X146805565Y-77730000D01*
X146785368Y-77550745D01*
X146725789Y-77380478D01*
X146629816Y-77227738D01*
X146629815Y-77227737D01*
X146629814Y-77227735D01*
X146502264Y-77100185D01*
X146439867Y-77060978D01*
X146349522Y-77004211D01*
X146179255Y-76944632D01*
X146179253Y-76944631D01*
X146179251Y-76944631D01*
X146044957Y-76929500D01*
X146044954Y-76929500D01*
X145955046Y-76929500D01*
X145955043Y-76929500D01*
X145820748Y-76944631D01*
X145820745Y-76944631D01*
X145820745Y-76944632D01*
X145650478Y-77004211D01*
X145650476Y-77004211D01*
X145650476Y-77004212D01*
X145497735Y-77100185D01*
X145370185Y-77227735D01*
X145274212Y-77380476D01*
X145214631Y-77550748D01*
X145194434Y-77730000D01*
X130930523Y-77730000D01*
X131030962Y-77708651D01*
X131089803Y-77696144D01*
X131262730Y-77619151D01*
X131415871Y-77507888D01*
X131542533Y-77367216D01*
X131637179Y-77203284D01*
X131695674Y-77023256D01*
X131715460Y-76835000D01*
X131695674Y-76646744D01*
X131637179Y-76466716D01*
X131637179Y-76466715D01*
X131542533Y-76302783D01*
X131415870Y-76162110D01*
X131262730Y-76050848D01*
X131089802Y-75973855D01*
X130904648Y-75934500D01*
X130904646Y-75934500D01*
X130715354Y-75934500D01*
X130715352Y-75934500D01*
X130530197Y-75973855D01*
X130357269Y-76050848D01*
X130204129Y-76162110D01*
X130077466Y-76302783D01*
X129982820Y-76466715D01*
X129960017Y-76536898D01*
X129930681Y-76585338D01*
X129882865Y-76615683D01*
X129826545Y-76621602D01*
X129773465Y-76601862D01*
X129734699Y-76560580D01*
X129637533Y-76392283D01*
X129510870Y-76251610D01*
X129357730Y-76140348D01*
X129184802Y-76063355D01*
X128999648Y-76024000D01*
X128999646Y-76024000D01*
X128810354Y-76024000D01*
X128810352Y-76024000D01*
X128625197Y-76063355D01*
X128452269Y-76140348D01*
X128299129Y-76251610D01*
X128172466Y-76392283D01*
X128077820Y-76556215D01*
X128019326Y-76736242D01*
X127999540Y-76924500D01*
X120500000Y-76924500D01*
X120500000Y-74929999D01*
X141969540Y-74929999D01*
X141989326Y-75118257D01*
X142047820Y-75298284D01*
X142142466Y-75462216D01*
X142269129Y-75602889D01*
X142422269Y-75714151D01*
X142595197Y-75791144D01*
X142780352Y-75830500D01*
X142780354Y-75830500D01*
X142969646Y-75830500D01*
X142969648Y-75830500D01*
X143093084Y-75804262D01*
X143154803Y-75791144D01*
X143327730Y-75714151D01*
X143480871Y-75602888D01*
X143607533Y-75462216D01*
X143702179Y-75298284D01*
X143737363Y-75189999D01*
X145194434Y-75189999D01*
X145214631Y-75369251D01*
X145214631Y-75369253D01*
X145214632Y-75369255D01*
X145274211Y-75539522D01*
X145274212Y-75539523D01*
X145370185Y-75692264D01*
X145497735Y-75819814D01*
X145497737Y-75819815D01*
X145497738Y-75819816D01*
X145650478Y-75915789D01*
X145820745Y-75975368D01*
X145887895Y-75982933D01*
X145955043Y-75990500D01*
X145955046Y-75990500D01*
X146044954Y-75990500D01*
X146044957Y-75990500D01*
X146102511Y-75984014D01*
X146179255Y-75975368D01*
X146349522Y-75915789D01*
X146502262Y-75819816D01*
X146629816Y-75692262D01*
X146725789Y-75539522D01*
X146785368Y-75369255D01*
X146805565Y-75190000D01*
X146785368Y-75010745D01*
X146725789Y-74840478D01*
X146629816Y-74687738D01*
X146629815Y-74687737D01*
X146629814Y-74687735D01*
X146502264Y-74560185D01*
X146439867Y-74520979D01*
X146349522Y-74464211D01*
X146179255Y-74404632D01*
X146179253Y-74404631D01*
X146179251Y-74404631D01*
X146044957Y-74389500D01*
X146044954Y-74389500D01*
X145955046Y-74389500D01*
X145955043Y-74389500D01*
X145820748Y-74404631D01*
X145820745Y-74404631D01*
X145820745Y-74404632D01*
X145650478Y-74464211D01*
X145650476Y-74464211D01*
X145650476Y-74464212D01*
X145497735Y-74560185D01*
X145370185Y-74687735D01*
X145274212Y-74840476D01*
X145214631Y-75010748D01*
X145194434Y-75189999D01*
X143737363Y-75189999D01*
X143760674Y-75118256D01*
X143780460Y-74930000D01*
X143760674Y-74741744D01*
X143702179Y-74561716D01*
X143702179Y-74561715D01*
X143607533Y-74397783D01*
X143480870Y-74257110D01*
X143327730Y-74145848D01*
X143154802Y-74068855D01*
X142969648Y-74029500D01*
X142969646Y-74029500D01*
X142780354Y-74029500D01*
X142780352Y-74029500D01*
X142595197Y-74068855D01*
X142422269Y-74145848D01*
X142269129Y-74257110D01*
X142142466Y-74397783D01*
X142047820Y-74561715D01*
X141989326Y-74741742D01*
X141969540Y-74929999D01*
X120500000Y-74929999D01*
X120500000Y-73025000D01*
X133714540Y-73025000D01*
X133734326Y-73213257D01*
X133792820Y-73393284D01*
X133887466Y-73557216D01*
X134014129Y-73697889D01*
X134167269Y-73809151D01*
X134340197Y-73886144D01*
X134525352Y-73925500D01*
X134525354Y-73925500D01*
X134714646Y-73925500D01*
X134714648Y-73925500D01*
X134858844Y-73894850D01*
X134899803Y-73886144D01*
X135072730Y-73809151D01*
X135225871Y-73697888D01*
X135352533Y-73557216D01*
X135447179Y-73393284D01*
X135505674Y-73213256D01*
X135525460Y-73025000D01*
X135512322Y-72900000D01*
X144500000Y-72900000D01*
X144500000Y-73112979D01*
X144506185Y-73191567D01*
X144555149Y-73374306D01*
X144641039Y-73542875D01*
X144760099Y-73689900D01*
X144907124Y-73808960D01*
X145075693Y-73894850D01*
X145258432Y-73943814D01*
X145337021Y-73950000D01*
X148250000Y-73950000D01*
X148250000Y-72900000D01*
X144500000Y-72900000D01*
X135512322Y-72900000D01*
X135505674Y-72836744D01*
X135447179Y-72656716D01*
X135447179Y-72656715D01*
X135352533Y-72492783D01*
X135225870Y-72352110D01*
X135072730Y-72240848D01*
X134899802Y-72163855D01*
X134714648Y-72124500D01*
X134714646Y-72124500D01*
X134525354Y-72124500D01*
X134525352Y-72124500D01*
X134340197Y-72163855D01*
X134167269Y-72240848D01*
X134014129Y-72352110D01*
X133887466Y-72492783D01*
X133792820Y-72656715D01*
X133734326Y-72836742D01*
X133714540Y-73025000D01*
X120500000Y-73025000D01*
X120500000Y-71755000D01*
X136254540Y-71755000D01*
X136274326Y-71943257D01*
X136332820Y-72123284D01*
X136427466Y-72287216D01*
X136554129Y-72427889D01*
X136707269Y-72539151D01*
X136880197Y-72616144D01*
X137065352Y-72655500D01*
X137065354Y-72655500D01*
X137254646Y-72655500D01*
X137254648Y-72655500D01*
X137378084Y-72629262D01*
X137439803Y-72616144D01*
X137612730Y-72539151D01*
X137765871Y-72427888D01*
X137790982Y-72400000D01*
X144500000Y-72400000D01*
X148250000Y-72400000D01*
X148250000Y-71350000D01*
X145337021Y-71350000D01*
X145258432Y-71356185D01*
X145075693Y-71405149D01*
X144907124Y-71491039D01*
X144760099Y-71610099D01*
X144641039Y-71757124D01*
X144555149Y-71925693D01*
X144506185Y-72108432D01*
X144500000Y-72187021D01*
X144500000Y-72400000D01*
X137790982Y-72400000D01*
X137892533Y-72287216D01*
X137987179Y-72123284D01*
X138045674Y-71943256D01*
X138065460Y-71755000D01*
X138045674Y-71566744D01*
X138015332Y-71473363D01*
X137987179Y-71386715D01*
X137892533Y-71222783D01*
X137765870Y-71082110D01*
X137612730Y-70970848D01*
X137439802Y-70893855D01*
X137254648Y-70854500D01*
X137254646Y-70854500D01*
X137065354Y-70854500D01*
X137065352Y-70854500D01*
X136880197Y-70893855D01*
X136707269Y-70970848D01*
X136554129Y-71082110D01*
X136427466Y-71222783D01*
X136332820Y-71386715D01*
X136274326Y-71566742D01*
X136254540Y-71755000D01*
X120500000Y-71755000D01*
X120500000Y-67945000D01*
X128634540Y-67945000D01*
X128654326Y-68133257D01*
X128712820Y-68313284D01*
X128807466Y-68477216D01*
X128934129Y-68617889D01*
X129087269Y-68729151D01*
X129260197Y-68806144D01*
X129445352Y-68845500D01*
X129445354Y-68845500D01*
X129634646Y-68845500D01*
X129634648Y-68845500D01*
X129758084Y-68819262D01*
X129819803Y-68806144D01*
X129992730Y-68729151D01*
X130145871Y-68617888D01*
X130272533Y-68477216D01*
X130367179Y-68313284D01*
X130425674Y-68133256D01*
X130445460Y-67945000D01*
X130425674Y-67756744D01*
X130367179Y-67576716D01*
X130367179Y-67576715D01*
X130272533Y-67412783D01*
X130145872Y-67272112D01*
X130107415Y-67244172D01*
X130066008Y-67191948D01*
X130057618Y-67125831D01*
X130084669Y-67064920D01*
X130139347Y-67026812D01*
X130229303Y-66995335D01*
X130243107Y-66986661D01*
X130243107Y-66986660D01*
X130916891Y-66986660D01*
X130930696Y-66995335D01*
X131100859Y-67054877D01*
X131280000Y-67075062D01*
X131459140Y-67054877D01*
X131629303Y-66995335D01*
X131643107Y-66986661D01*
X131643107Y-66986660D01*
X131280001Y-66623553D01*
X131280000Y-66623553D01*
X130916891Y-66986660D01*
X130243107Y-66986660D01*
X129880001Y-66623553D01*
X129880000Y-66623553D01*
X129488722Y-67014829D01*
X129460209Y-67036121D01*
X129426822Y-67048438D01*
X129260197Y-67083855D01*
X129087269Y-67160848D01*
X128934129Y-67272110D01*
X128807466Y-67412783D01*
X128712820Y-67576715D01*
X128654326Y-67756742D01*
X128634540Y-67945000D01*
X120500000Y-67945000D01*
X120500000Y-66286660D01*
X128816891Y-66286660D01*
X128830696Y-66295335D01*
X129014044Y-66359491D01*
X129013045Y-66362345D01*
X129039301Y-66371515D01*
X129078313Y-66410427D01*
X129087654Y-66436954D01*
X129090509Y-66435956D01*
X129154665Y-66619304D01*
X129163338Y-66633108D01*
X129526447Y-66270001D01*
X129526447Y-66270000D01*
X130233553Y-66270000D01*
X130580000Y-66616447D01*
X130913947Y-66282500D01*
X130901447Y-66270000D01*
X131633553Y-66270000D01*
X131996660Y-66633107D01*
X131996661Y-66633107D01*
X132005335Y-66619303D01*
X132069491Y-66435955D01*
X132072356Y-66436957D01*
X132081572Y-66410608D01*
X132120608Y-66371572D01*
X132146957Y-66362356D01*
X132145955Y-66359491D01*
X132329303Y-66295335D01*
X132343107Y-66286661D01*
X132343107Y-66286660D01*
X131980000Y-65923553D01*
X131633553Y-66270000D01*
X130901447Y-66270000D01*
X130567500Y-65936053D01*
X130233553Y-66270000D01*
X129526447Y-66270000D01*
X129180001Y-65923553D01*
X129180000Y-65923553D01*
X128816891Y-66286660D01*
X120500000Y-66286660D01*
X120500000Y-65570000D01*
X128374937Y-65570000D01*
X128395122Y-65749140D01*
X128454665Y-65919304D01*
X128463338Y-65933108D01*
X128826447Y-65570001D01*
X128826447Y-65570000D01*
X129533553Y-65570000D01*
X129867500Y-65903947D01*
X130201447Y-65570000D01*
X130933553Y-65570000D01*
X131280000Y-65916447D01*
X131626446Y-65570001D01*
X132333553Y-65570001D01*
X132696660Y-65933107D01*
X132696661Y-65933107D01*
X132705335Y-65919303D01*
X132764877Y-65749140D01*
X132785062Y-65570000D01*
X132764877Y-65390859D01*
X132705335Y-65220696D01*
X132696660Y-65206891D01*
X132333553Y-65570000D01*
X132333553Y-65570001D01*
X131626446Y-65570001D01*
X131626447Y-65570000D01*
X131280000Y-65223553D01*
X130933553Y-65570000D01*
X130201447Y-65570000D01*
X129867500Y-65236053D01*
X129533553Y-65570000D01*
X128826447Y-65570000D01*
X128463338Y-65206890D01*
X128463338Y-65206891D01*
X128454664Y-65220696D01*
X128395122Y-65390859D01*
X128374937Y-65570000D01*
X120500000Y-65570000D01*
X120500000Y-64870000D01*
X128833553Y-64870000D01*
X129180000Y-65216447D01*
X129526447Y-64870000D01*
X130233553Y-64870000D01*
X130567500Y-65203947D01*
X130901447Y-64870000D01*
X131633553Y-64870000D01*
X131980000Y-65216447D01*
X132326447Y-64870000D01*
X131980000Y-64523553D01*
X131633553Y-64870000D01*
X130901447Y-64870000D01*
X130567500Y-64536053D01*
X130233553Y-64870000D01*
X129526447Y-64870000D01*
X129180000Y-64523553D01*
X128833553Y-64870000D01*
X120500000Y-64870000D01*
X120500000Y-63499999D01*
X126094540Y-63499999D01*
X126114326Y-63688257D01*
X126172820Y-63868284D01*
X126267466Y-64032216D01*
X126394129Y-64172889D01*
X126547269Y-64284151D01*
X126720197Y-64361144D01*
X126905352Y-64400500D01*
X126905354Y-64400500D01*
X127094646Y-64400500D01*
X127094648Y-64400500D01*
X127218084Y-64374262D01*
X127279803Y-64361144D01*
X127452730Y-64284151D01*
X127552778Y-64211462D01*
X127605870Y-64172889D01*
X127608471Y-64170000D01*
X128374937Y-64170000D01*
X128395122Y-64349140D01*
X128454665Y-64519304D01*
X128463338Y-64533108D01*
X128826447Y-64170001D01*
X128826447Y-64170000D01*
X129533553Y-64170000D01*
X129867500Y-64503947D01*
X130201447Y-64170000D01*
X130933553Y-64170000D01*
X131280000Y-64516447D01*
X131626446Y-64170001D01*
X132333553Y-64170001D01*
X132696660Y-64533107D01*
X132696661Y-64533107D01*
X132705335Y-64519303D01*
X132764877Y-64349140D01*
X132785062Y-64169999D01*
X132764877Y-63990859D01*
X132705335Y-63820696D01*
X132696660Y-63806891D01*
X132333553Y-64170000D01*
X132333553Y-64170001D01*
X131626446Y-64170001D01*
X131626447Y-64170000D01*
X131280000Y-63823553D01*
X130933553Y-64170000D01*
X130201447Y-64170000D01*
X129867500Y-63836053D01*
X129533553Y-64170000D01*
X128826447Y-64170000D01*
X128463338Y-63806890D01*
X128463338Y-63806891D01*
X128454664Y-63820696D01*
X128395122Y-63990859D01*
X128374937Y-64170000D01*
X127608471Y-64170000D01*
X127732533Y-64032216D01*
X127827179Y-63868284D01*
X127835984Y-63841186D01*
X127885674Y-63688256D01*
X127905460Y-63500000D01*
X127900556Y-63453338D01*
X128816890Y-63453338D01*
X129179999Y-63816447D01*
X129526447Y-63470000D01*
X130233553Y-63470000D01*
X130567500Y-63803947D01*
X130901446Y-63470001D01*
X131633553Y-63470001D01*
X131980000Y-63816447D01*
X131980001Y-63816447D01*
X132296446Y-63500000D01*
X133079540Y-63500000D01*
X133099326Y-63688257D01*
X133157820Y-63868284D01*
X133252466Y-64032216D01*
X133379129Y-64172889D01*
X133532269Y-64284151D01*
X133705197Y-64361144D01*
X133890352Y-64400500D01*
X133890354Y-64400500D01*
X134079646Y-64400500D01*
X134079648Y-64400500D01*
X134203084Y-64374262D01*
X134264803Y-64361144D01*
X134437730Y-64284151D01*
X134437730Y-64284150D01*
X134547115Y-64204679D01*
X134594219Y-64183707D01*
X134645781Y-64183707D01*
X134692885Y-64204679D01*
X134802269Y-64284151D01*
X134975197Y-64361144D01*
X135160352Y-64400500D01*
X135160354Y-64400500D01*
X135349646Y-64400500D01*
X135349648Y-64400500D01*
X135473084Y-64374262D01*
X135534803Y-64361144D01*
X135707730Y-64284151D01*
X135807778Y-64211462D01*
X135860870Y-64172889D01*
X135987533Y-64032216D01*
X136082179Y-63868284D01*
X136090984Y-63841186D01*
X136140674Y-63688256D01*
X136160460Y-63500000D01*
X138159540Y-63500000D01*
X138179326Y-63688257D01*
X138237820Y-63868284D01*
X138332466Y-64032216D01*
X138459129Y-64172889D01*
X138612269Y-64284151D01*
X138785197Y-64361144D01*
X138970352Y-64400500D01*
X138970354Y-64400500D01*
X139159646Y-64400500D01*
X139159648Y-64400500D01*
X139283084Y-64374262D01*
X139344803Y-64361144D01*
X139517730Y-64284151D01*
X139617778Y-64211462D01*
X139670870Y-64172889D01*
X139797533Y-64032216D01*
X139892179Y-63868284D01*
X139900984Y-63841186D01*
X139950674Y-63688256D01*
X139970460Y-63500000D01*
X139950674Y-63311744D01*
X139920332Y-63218363D01*
X139892179Y-63131715D01*
X139797533Y-62967783D01*
X139670870Y-62827110D01*
X139517730Y-62715848D01*
X139344802Y-62638855D01*
X139159648Y-62599500D01*
X139159646Y-62599500D01*
X138970354Y-62599500D01*
X138970352Y-62599500D01*
X138785197Y-62638855D01*
X138612269Y-62715848D01*
X138459129Y-62827110D01*
X138332466Y-62967783D01*
X138237820Y-63131715D01*
X138179326Y-63311742D01*
X138159540Y-63500000D01*
X136160460Y-63500000D01*
X136140674Y-63311744D01*
X136110332Y-63218363D01*
X136082179Y-63131715D01*
X135987533Y-62967783D01*
X135860870Y-62827110D01*
X135707730Y-62715848D01*
X135534802Y-62638855D01*
X135349648Y-62599500D01*
X135349646Y-62599500D01*
X135160354Y-62599500D01*
X135160352Y-62599500D01*
X134975197Y-62638855D01*
X134802269Y-62715848D01*
X134692885Y-62795321D01*
X134645781Y-62816293D01*
X134594219Y-62816293D01*
X134547115Y-62795321D01*
X134437730Y-62715848D01*
X134264802Y-62638855D01*
X134079648Y-62599500D01*
X134079646Y-62599500D01*
X133890354Y-62599500D01*
X133890352Y-62599500D01*
X133705197Y-62638855D01*
X133532269Y-62715848D01*
X133379129Y-62827110D01*
X133252466Y-62967783D01*
X133157820Y-63131715D01*
X133099326Y-63311742D01*
X133079540Y-63500000D01*
X132296446Y-63500000D01*
X132343108Y-63453338D01*
X132329304Y-63444665D01*
X132145956Y-63380509D01*
X132146954Y-63377654D01*
X132120427Y-63368313D01*
X132081515Y-63329301D01*
X132072345Y-63303045D01*
X132069491Y-63304044D01*
X132005335Y-63120696D01*
X131996660Y-63106891D01*
X131633553Y-63470000D01*
X131633553Y-63470001D01*
X130901446Y-63470001D01*
X130913947Y-63457500D01*
X130580000Y-63123553D01*
X130233553Y-63470000D01*
X129526447Y-63470000D01*
X129163338Y-63106890D01*
X129163338Y-63106891D01*
X129154664Y-63120696D01*
X129090509Y-63304044D01*
X129087669Y-63303050D01*
X129078363Y-63329494D01*
X129039494Y-63368363D01*
X129013050Y-63377669D01*
X129014044Y-63380509D01*
X128830696Y-63444664D01*
X128816891Y-63453338D01*
X128816890Y-63453338D01*
X127900556Y-63453338D01*
X127885674Y-63311744D01*
X127855332Y-63218363D01*
X127827179Y-63131715D01*
X127732533Y-62967783D01*
X127605870Y-62827110D01*
X127504331Y-62753338D01*
X129516890Y-62753338D01*
X129880000Y-63116447D01*
X129880001Y-63116447D01*
X130243108Y-62753338D01*
X130916890Y-62753338D01*
X131280000Y-63116447D01*
X131280001Y-63116447D01*
X131643108Y-62753338D01*
X131629304Y-62744665D01*
X131459140Y-62685122D01*
X131280000Y-62664937D01*
X131100859Y-62685122D01*
X130930696Y-62744664D01*
X130916891Y-62753338D01*
X130916890Y-62753338D01*
X130243108Y-62753338D01*
X130229304Y-62744665D01*
X130059140Y-62685122D01*
X129880000Y-62664937D01*
X129700859Y-62685122D01*
X129530696Y-62744664D01*
X129516891Y-62753338D01*
X129516890Y-62753338D01*
X127504331Y-62753338D01*
X127452730Y-62715848D01*
X127279802Y-62638855D01*
X127094648Y-62599500D01*
X127094646Y-62599500D01*
X126905354Y-62599500D01*
X126905352Y-62599500D01*
X126720197Y-62638855D01*
X126547269Y-62715848D01*
X126394129Y-62827110D01*
X126267466Y-62967783D01*
X126172820Y-63131715D01*
X126114326Y-63311742D01*
X126094540Y-63499999D01*
X120500000Y-63499999D01*
X120500000Y-59690000D01*
X124189540Y-59690000D01*
X124209326Y-59878257D01*
X124267820Y-60058284D01*
X124362466Y-60222216D01*
X124489129Y-60362889D01*
X124642269Y-60474151D01*
X124815197Y-60551144D01*
X125000352Y-60590500D01*
X125000354Y-60590500D01*
X125189646Y-60590500D01*
X125189648Y-60590500D01*
X125313084Y-60564262D01*
X125374803Y-60551144D01*
X125547730Y-60474151D01*
X125647778Y-60401462D01*
X125700870Y-60362889D01*
X125827533Y-60222216D01*
X125922179Y-60058284D01*
X125922178Y-60058284D01*
X125980674Y-59878256D01*
X126000460Y-59690000D01*
X138159540Y-59690000D01*
X138179326Y-59878257D01*
X138237820Y-60058284D01*
X138332466Y-60222216D01*
X138459129Y-60362889D01*
X138612269Y-60474151D01*
X138785197Y-60551144D01*
X138970352Y-60590500D01*
X138970354Y-60590500D01*
X139159646Y-60590500D01*
X139159648Y-60590500D01*
X139283084Y-60564262D01*
X139344803Y-60551144D01*
X139517730Y-60474151D01*
X139617778Y-60401462D01*
X139670870Y-60362889D01*
X139797533Y-60222216D01*
X139892179Y-60058284D01*
X139892178Y-60058284D01*
X139950674Y-59878256D01*
X139970460Y-59690000D01*
X139950674Y-59501744D01*
X139892179Y-59321716D01*
X139892179Y-59321715D01*
X139797533Y-59157783D01*
X139670870Y-59017110D01*
X139517730Y-58905848D01*
X139344802Y-58828855D01*
X139159648Y-58789500D01*
X139159646Y-58789500D01*
X138970354Y-58789500D01*
X138970352Y-58789500D01*
X138785197Y-58828855D01*
X138612269Y-58905848D01*
X138459129Y-59017110D01*
X138332466Y-59157783D01*
X138237820Y-59321715D01*
X138179326Y-59501742D01*
X138159540Y-59690000D01*
X126000460Y-59690000D01*
X125980674Y-59501744D01*
X125922179Y-59321716D01*
X125922179Y-59321715D01*
X125827533Y-59157783D01*
X125809694Y-59137971D01*
X125781527Y-59084996D01*
X125781528Y-59024998D01*
X125809696Y-58972025D01*
X125827533Y-58952216D01*
X125922179Y-58788284D01*
X125980674Y-58608256D01*
X126000460Y-58420000D01*
X125980674Y-58231744D01*
X125922179Y-58051716D01*
X125922179Y-58051715D01*
X125827533Y-57887783D01*
X125700870Y-57747110D01*
X125547730Y-57635848D01*
X125374802Y-57558855D01*
X125189648Y-57519500D01*
X125189646Y-57519500D01*
X125000354Y-57519500D01*
X125000352Y-57519500D01*
X124815197Y-57558855D01*
X124642269Y-57635848D01*
X124489129Y-57747110D01*
X124362466Y-57887783D01*
X124267820Y-58051715D01*
X124209326Y-58231742D01*
X124189540Y-58420000D01*
X124209326Y-58608257D01*
X124267820Y-58788284D01*
X124362466Y-58952216D01*
X124380305Y-58972028D01*
X124408472Y-59025002D01*
X124408472Y-59084998D01*
X124380305Y-59137972D01*
X124362466Y-59157783D01*
X124267820Y-59321715D01*
X124209326Y-59501742D01*
X124189540Y-59690000D01*
X120500000Y-59690000D01*
X120500000Y-56124000D01*
X120516613Y-56062000D01*
X120562000Y-56016613D01*
X120624000Y-56000000D01*
X143376000Y-56000000D01*
X143438000Y-56016613D01*
G37*
%TD.AperFunction*%
M02*
