%TF.GenerationSoftware,KiCad,Pcbnew,7.0.5-7.0.5~ubuntu22.04.1*%
%TF.CreationDate,2023-06-28T22:22:45+02:00*%
%TF.ProjectId,BatMon,4261744d-6f6e-42e6-9b69-6361645f7063,rev?*%
%TF.SameCoordinates,Original*%
%TF.FileFunction,Copper,L3,Inr*%
%TF.FilePolarity,Positive*%
%FSLAX46Y46*%
G04 Gerber Fmt 4.6, Leading zero omitted, Abs format (unit mm)*
G04 Created by KiCad (PCBNEW 7.0.5-7.0.5~ubuntu22.04.1) date 2023-06-28 22:22:45*
%MOMM*%
%LPD*%
G01*
G04 APERTURE LIST*
G04 Aperture macros list*
%AMRoundRect*
0 Rectangle with rounded corners*
0 $1 Rounding radius*
0 $2 $3 $4 $5 $6 $7 $8 $9 X,Y pos of 4 corners*
0 Add a 4 corners polygon primitive as box body*
4,1,4,$2,$3,$4,$5,$6,$7,$8,$9,$2,$3,0*
0 Add four circle primitives for the rounded corners*
1,1,$1+$1,$2,$3*
1,1,$1+$1,$4,$5*
1,1,$1+$1,$6,$7*
1,1,$1+$1,$8,$9*
0 Add four rect primitives between the rounded corners*
20,1,$1+$1,$2,$3,$4,$5,0*
20,1,$1+$1,$4,$5,$6,$7,0*
20,1,$1+$1,$6,$7,$8,$9,0*
20,1,$1+$1,$8,$9,$2,$3,0*%
G04 Aperture macros list end*
%TA.AperFunction,ComponentPad*%
%ADD10RoundRect,0.400000X3.100000X-0.400000X3.100000X0.400000X-3.100000X0.400000X-3.100000X-0.400000X0*%
%TD*%
%TA.AperFunction,HeatsinkPad*%
%ADD11C,0.600000*%
%TD*%
%TA.AperFunction,ComponentPad*%
%ADD12R,1.000000X1.000000*%
%TD*%
%TA.AperFunction,ComponentPad*%
%ADD13O,1.000000X1.000000*%
%TD*%
%TA.AperFunction,ComponentPad*%
%ADD14RoundRect,0.250000X-0.600000X-0.725000X0.600000X-0.725000X0.600000X0.725000X-0.600000X0.725000X0*%
%TD*%
%TA.AperFunction,ComponentPad*%
%ADD15O,1.700000X1.950000*%
%TD*%
%TA.AperFunction,ViaPad*%
%ADD16C,0.800000*%
%TD*%
G04 APERTURE END LIST*
D10*
X148500000Y-72650000D03*
D11*
X129180000Y-64170000D03*
X129180000Y-65570000D03*
X129880000Y-63470000D03*
X129880000Y-64870000D03*
X129880000Y-66270000D03*
X130555000Y-64170000D03*
X130555000Y-65570000D03*
X131280000Y-63470000D03*
X131280000Y-64870000D03*
X131280000Y-66270000D03*
X131980000Y-64170000D03*
X131980000Y-65570000D03*
D12*
X142875000Y-58420000D03*
D13*
X142875000Y-59690000D03*
X142875000Y-60960000D03*
X142875000Y-62230000D03*
X142875000Y-63500000D03*
X142875000Y-64770000D03*
D14*
X123230000Y-84455000D03*
D15*
X125730000Y-84455000D03*
X128230000Y-84455000D03*
D16*
X133985000Y-63500000D03*
X140335000Y-80645000D03*
X130175000Y-86360000D03*
X137160000Y-71755000D03*
X125095000Y-58420000D03*
X128905000Y-76924500D03*
X130810000Y-76835000D03*
X139065000Y-59690000D03*
X142875000Y-74930000D03*
X139065000Y-63500000D03*
X125095000Y-59690000D03*
X134620000Y-73025000D03*
X135255000Y-63500000D03*
X125730000Y-67945000D03*
X126365000Y-73025000D03*
X137795000Y-63500000D03*
X121285000Y-61595000D03*
X140970000Y-75565000D03*
X142875000Y-57150000D03*
X125095000Y-57150000D03*
X140335000Y-81915000D03*
X125730000Y-64135000D03*
X138430000Y-71755000D03*
X126365000Y-80645000D03*
X130810000Y-83820000D03*
X127000000Y-63500000D03*
%TA.AperFunction,Conductor*%
G36*
X143443039Y-56019685D02*
G01*
X143488794Y-56072489D01*
X143500000Y-56124000D01*
X143500000Y-57295500D01*
X143480315Y-57362539D01*
X143427511Y-57408294D01*
X143376000Y-57419500D01*
X142327129Y-57419500D01*
X142327123Y-57419501D01*
X142267516Y-57425908D01*
X142132671Y-57476202D01*
X142132664Y-57476206D01*
X142017455Y-57562452D01*
X142017452Y-57562455D01*
X141931206Y-57677664D01*
X141931202Y-57677671D01*
X141880908Y-57812517D01*
X141874501Y-57872116D01*
X141874500Y-57872135D01*
X141874500Y-58967870D01*
X141874501Y-58967876D01*
X141880908Y-59027483D01*
X141931202Y-59162328D01*
X141931204Y-59162331D01*
X141937231Y-59170382D01*
X141961648Y-59235846D01*
X141948105Y-59299470D01*
X141948518Y-59299641D01*
X141947595Y-59301869D01*
X141947324Y-59303143D01*
X141946188Y-59305267D01*
X141888975Y-59493870D01*
X141869659Y-59690000D01*
X141888975Y-59886129D01*
X141946188Y-60074733D01*
X142039086Y-60248532D01*
X142042473Y-60253601D01*
X142040832Y-60254697D01*
X142064594Y-60310638D01*
X142052805Y-60379506D01*
X142042109Y-60396156D01*
X142042473Y-60396399D01*
X142039086Y-60401467D01*
X141946188Y-60575266D01*
X141888975Y-60763870D01*
X141869659Y-60960000D01*
X141888975Y-61156129D01*
X141946188Y-61344733D01*
X142039086Y-61518532D01*
X142042473Y-61523601D01*
X142040836Y-61524694D01*
X142064596Y-61580663D01*
X142052795Y-61649529D01*
X142042109Y-61666156D01*
X142042473Y-61666399D01*
X142039086Y-61671467D01*
X141946188Y-61845266D01*
X141888975Y-62033870D01*
X141869659Y-62230000D01*
X141888975Y-62426129D01*
X141946188Y-62614733D01*
X142039086Y-62788532D01*
X142042473Y-62793601D01*
X142040955Y-62794615D01*
X142064918Y-62851042D01*
X142053124Y-62919909D01*
X142042515Y-62936420D01*
X142042893Y-62936673D01*
X142039505Y-62941742D01*
X141946652Y-63115458D01*
X141905839Y-63249999D01*
X141905840Y-63250000D01*
X142660517Y-63250000D01*
X142589199Y-63334993D01*
X142550000Y-63442694D01*
X142550000Y-63557306D01*
X142589199Y-63665007D01*
X142660517Y-63750000D01*
X141905840Y-63750000D01*
X141946652Y-63884541D01*
X142039503Y-64058253D01*
X142042890Y-64063322D01*
X142041215Y-64064440D01*
X142064918Y-64120259D01*
X142053123Y-64189125D01*
X142042158Y-64206188D01*
X142042473Y-64206399D01*
X142039086Y-64211467D01*
X141946188Y-64385266D01*
X141888975Y-64573870D01*
X141869659Y-64770000D01*
X141888975Y-64966129D01*
X141946188Y-65154733D01*
X142039086Y-65328532D01*
X142039090Y-65328539D01*
X142164116Y-65480883D01*
X142316460Y-65605909D01*
X142316467Y-65605913D01*
X142490266Y-65698811D01*
X142490269Y-65698811D01*
X142490273Y-65698814D01*
X142678868Y-65756024D01*
X142875000Y-65775341D01*
X143071132Y-65756024D01*
X143259727Y-65698814D01*
X143317546Y-65667908D01*
X143385948Y-65653666D01*
X143451192Y-65678665D01*
X143492563Y-65734969D01*
X143500000Y-65777265D01*
X143500000Y-71000000D01*
X151376487Y-71030737D01*
X151443446Y-71050683D01*
X151488995Y-71103665D01*
X151500000Y-71154736D01*
X151500000Y-71226000D01*
X151480315Y-71293039D01*
X151427511Y-71338794D01*
X151376000Y-71350000D01*
X148750000Y-71350000D01*
X148750000Y-73950000D01*
X151376000Y-73950000D01*
X151443039Y-73969685D01*
X151488794Y-74022489D01*
X151500000Y-74074000D01*
X151500000Y-86876000D01*
X151480315Y-86943039D01*
X151427511Y-86988794D01*
X151376000Y-87000000D01*
X143500000Y-87000000D01*
X143500000Y-89876000D01*
X143480315Y-89943039D01*
X143427511Y-89988794D01*
X143376000Y-90000000D01*
X120624000Y-90000000D01*
X120556961Y-89980315D01*
X120511206Y-89927511D01*
X120500000Y-89876000D01*
X120500000Y-86360000D01*
X129269540Y-86360000D01*
X129289326Y-86548256D01*
X129289327Y-86548259D01*
X129347818Y-86728277D01*
X129347821Y-86728284D01*
X129442467Y-86892216D01*
X129569128Y-87032887D01*
X129569129Y-87032888D01*
X129722265Y-87144148D01*
X129722270Y-87144151D01*
X129895192Y-87221142D01*
X129895197Y-87221144D01*
X130080354Y-87260500D01*
X130080355Y-87260500D01*
X130269644Y-87260500D01*
X130269646Y-87260500D01*
X130454803Y-87221144D01*
X130627730Y-87144151D01*
X130780871Y-87032888D01*
X130907533Y-86892216D01*
X131002179Y-86728284D01*
X131060674Y-86548256D01*
X131080460Y-86360000D01*
X131060674Y-86171744D01*
X131002179Y-85991716D01*
X130907533Y-85827784D01*
X130780871Y-85687112D01*
X130780870Y-85687111D01*
X130627734Y-85575851D01*
X130627729Y-85575848D01*
X130454807Y-85498857D01*
X130454802Y-85498855D01*
X130309001Y-85467865D01*
X130269646Y-85459500D01*
X130080354Y-85459500D01*
X130047897Y-85466398D01*
X129895197Y-85498855D01*
X129895192Y-85498857D01*
X129722270Y-85575848D01*
X129722265Y-85575851D01*
X129569129Y-85687111D01*
X129442466Y-85827785D01*
X129347821Y-85991715D01*
X129347818Y-85991722D01*
X129289327Y-86171740D01*
X129289326Y-86171744D01*
X129269540Y-86360000D01*
X120500000Y-86360000D01*
X120500000Y-85230001D01*
X121879500Y-85230001D01*
X121879501Y-85230018D01*
X121890000Y-85332796D01*
X121890001Y-85332799D01*
X121935894Y-85471294D01*
X121945186Y-85499334D01*
X122037288Y-85648656D01*
X122161344Y-85772712D01*
X122310666Y-85864814D01*
X122477203Y-85919999D01*
X122579991Y-85930500D01*
X123880008Y-85930499D01*
X123982797Y-85919999D01*
X124149334Y-85864814D01*
X124298656Y-85772712D01*
X124422712Y-85648656D01*
X124514814Y-85499334D01*
X124514814Y-85499331D01*
X124518178Y-85493879D01*
X124570126Y-85447154D01*
X124639088Y-85435931D01*
X124703170Y-85463774D01*
X124711398Y-85471294D01*
X124858599Y-85618495D01*
X124901675Y-85648657D01*
X125052165Y-85754032D01*
X125052167Y-85754033D01*
X125052170Y-85754035D01*
X125266337Y-85853903D01*
X125494592Y-85915063D01*
X125671034Y-85930500D01*
X125729999Y-85935659D01*
X125730000Y-85935659D01*
X125730001Y-85935659D01*
X125788966Y-85930500D01*
X125965408Y-85915063D01*
X126193663Y-85853903D01*
X126407829Y-85754035D01*
X126601401Y-85618495D01*
X126768495Y-85451401D01*
X126878732Y-85293965D01*
X126933306Y-85250342D01*
X127002805Y-85243148D01*
X127065159Y-85274670D01*
X127081880Y-85293967D01*
X127191886Y-85451073D01*
X127191891Y-85451079D01*
X127358917Y-85618105D01*
X127552421Y-85753600D01*
X127766507Y-85853429D01*
X127766516Y-85853433D01*
X127980000Y-85910634D01*
X127979999Y-84863018D01*
X128094801Y-84915446D01*
X128196025Y-84930000D01*
X128263975Y-84930000D01*
X128365199Y-84915446D01*
X128479999Y-84863018D01*
X128479999Y-85910633D01*
X128693483Y-85853433D01*
X128693492Y-85853429D01*
X128907577Y-85753600D01*
X128907579Y-85753599D01*
X129101073Y-85618113D01*
X129101079Y-85618108D01*
X129268108Y-85451079D01*
X129268113Y-85451073D01*
X129338883Y-85350003D01*
X145194435Y-85350003D01*
X145214630Y-85529249D01*
X145214631Y-85529254D01*
X145274211Y-85699523D01*
X145320198Y-85772710D01*
X145370184Y-85852262D01*
X145497738Y-85979816D01*
X145650478Y-86075789D01*
X145740583Y-86107318D01*
X145820745Y-86135368D01*
X145820750Y-86135369D01*
X145911246Y-86145565D01*
X145955040Y-86150499D01*
X145955043Y-86150500D01*
X145955046Y-86150500D01*
X146044957Y-86150500D01*
X146044958Y-86150499D01*
X146112104Y-86142934D01*
X146179249Y-86135369D01*
X146179252Y-86135368D01*
X146179255Y-86135368D01*
X146349522Y-86075789D01*
X146502262Y-85979816D01*
X146629816Y-85852262D01*
X146725789Y-85699522D01*
X146785368Y-85529255D01*
X146788739Y-85499336D01*
X146805565Y-85350003D01*
X146805565Y-85349996D01*
X146785369Y-85170750D01*
X146785368Y-85170745D01*
X146725788Y-85000476D01*
X146629815Y-84847737D01*
X146502262Y-84720184D01*
X146349523Y-84624211D01*
X146179254Y-84564631D01*
X146179249Y-84564630D01*
X146044960Y-84549500D01*
X146044954Y-84549500D01*
X145955046Y-84549500D01*
X145955039Y-84549500D01*
X145820750Y-84564630D01*
X145820745Y-84564631D01*
X145650476Y-84624211D01*
X145497737Y-84720184D01*
X145370184Y-84847737D01*
X145274211Y-85000476D01*
X145214631Y-85170745D01*
X145214630Y-85170750D01*
X145194435Y-85349996D01*
X145194435Y-85350003D01*
X129338883Y-85350003D01*
X129403599Y-85257579D01*
X129403600Y-85257577D01*
X129503429Y-85043492D01*
X129503433Y-85043483D01*
X129564567Y-84815326D01*
X129564569Y-84815316D01*
X129574221Y-84705000D01*
X128633969Y-84705000D01*
X128666519Y-84654351D01*
X128705000Y-84523295D01*
X128705000Y-84386705D01*
X128666519Y-84255649D01*
X128633969Y-84205000D01*
X129574221Y-84205000D01*
X129564569Y-84094683D01*
X129564567Y-84094673D01*
X129503433Y-83866516D01*
X129503429Y-83866507D01*
X129481743Y-83820000D01*
X129904540Y-83820000D01*
X129924326Y-84008256D01*
X129924327Y-84008259D01*
X129982818Y-84188277D01*
X129982821Y-84188284D01*
X130077467Y-84352216D01*
X130204128Y-84492887D01*
X130204129Y-84492888D01*
X130357265Y-84604148D01*
X130357270Y-84604151D01*
X130530192Y-84681142D01*
X130530197Y-84681144D01*
X130715354Y-84720500D01*
X130715355Y-84720500D01*
X130904644Y-84720500D01*
X130904646Y-84720500D01*
X131089803Y-84681144D01*
X131262730Y-84604151D01*
X131415871Y-84492888D01*
X131542533Y-84352216D01*
X131637179Y-84188284D01*
X131695674Y-84008256D01*
X131715460Y-83820000D01*
X131695674Y-83631744D01*
X131637179Y-83451716D01*
X131542533Y-83287784D01*
X131415871Y-83147112D01*
X131402351Y-83137289D01*
X131262734Y-83035851D01*
X131262729Y-83035848D01*
X131089807Y-82958857D01*
X131089802Y-82958855D01*
X130944001Y-82927865D01*
X130904646Y-82919500D01*
X130715354Y-82919500D01*
X130682897Y-82926398D01*
X130530197Y-82958855D01*
X130530192Y-82958857D01*
X130357270Y-83035848D01*
X130357265Y-83035851D01*
X130204129Y-83147111D01*
X130077466Y-83287785D01*
X129982821Y-83451715D01*
X129982818Y-83451722D01*
X129929431Y-83616031D01*
X129924326Y-83631744D01*
X129904540Y-83820000D01*
X129481743Y-83820000D01*
X129403600Y-83652422D01*
X129403599Y-83652420D01*
X129268113Y-83458926D01*
X129268108Y-83458920D01*
X129101082Y-83291894D01*
X128907578Y-83156399D01*
X128693492Y-83056570D01*
X128693486Y-83056567D01*
X128480000Y-82999364D01*
X128479999Y-82999364D01*
X128479999Y-84046981D01*
X128365199Y-83994554D01*
X128263975Y-83980000D01*
X128196025Y-83980000D01*
X128094801Y-83994554D01*
X127979999Y-84046981D01*
X127979999Y-82999364D01*
X127766513Y-83056567D01*
X127766507Y-83056570D01*
X127552422Y-83156399D01*
X127552420Y-83156400D01*
X127358926Y-83291886D01*
X127358920Y-83291891D01*
X127191891Y-83458920D01*
X127191890Y-83458922D01*
X127081880Y-83616032D01*
X127027303Y-83659657D01*
X126957804Y-83666849D01*
X126895450Y-83635327D01*
X126878730Y-83616031D01*
X126768494Y-83458597D01*
X126601402Y-83291506D01*
X126601395Y-83291501D01*
X126407834Y-83155967D01*
X126407830Y-83155965D01*
X126388845Y-83147112D01*
X126193663Y-83056097D01*
X126193659Y-83056096D01*
X126193655Y-83056094D01*
X125965413Y-82994938D01*
X125965403Y-82994936D01*
X125730001Y-82974341D01*
X125729999Y-82974341D01*
X125494596Y-82994936D01*
X125494586Y-82994938D01*
X125266344Y-83056094D01*
X125266335Y-83056098D01*
X125052171Y-83155964D01*
X125052169Y-83155965D01*
X124858597Y-83291505D01*
X124711398Y-83438705D01*
X124650075Y-83472190D01*
X124580383Y-83467206D01*
X124524450Y-83425334D01*
X124518178Y-83416120D01*
X124422712Y-83261344D01*
X124298657Y-83137289D01*
X124298656Y-83137289D01*
X124298656Y-83137288D01*
X124167786Y-83056567D01*
X124149336Y-83045187D01*
X124149331Y-83045185D01*
X124121154Y-83035848D01*
X123982797Y-82990001D01*
X123982795Y-82990000D01*
X123880010Y-82979500D01*
X122579998Y-82979500D01*
X122579981Y-82979501D01*
X122477203Y-82990000D01*
X122477200Y-82990001D01*
X122310668Y-83045185D01*
X122310663Y-83045187D01*
X122161342Y-83137289D01*
X122037289Y-83261342D01*
X121945187Y-83410663D01*
X121945185Y-83410668D01*
X121929194Y-83458926D01*
X121890001Y-83577203D01*
X121890001Y-83577204D01*
X121890000Y-83577204D01*
X121879500Y-83679983D01*
X121879500Y-85230001D01*
X120500000Y-85230001D01*
X120500000Y-82810003D01*
X145194435Y-82810003D01*
X145214630Y-82989249D01*
X145214631Y-82989254D01*
X145274211Y-83159523D01*
X145338189Y-83261342D01*
X145370184Y-83312262D01*
X145497738Y-83439816D01*
X145650478Y-83535789D01*
X145820744Y-83595367D01*
X145820745Y-83595368D01*
X145820750Y-83595369D01*
X145911246Y-83605565D01*
X145955040Y-83610499D01*
X145955043Y-83610500D01*
X145955046Y-83610500D01*
X146044957Y-83610500D01*
X146044958Y-83610499D01*
X146112104Y-83602934D01*
X146179249Y-83595369D01*
X146179252Y-83595368D01*
X146179255Y-83595368D01*
X146349522Y-83535789D01*
X146502262Y-83439816D01*
X146629816Y-83312262D01*
X146725789Y-83159522D01*
X146785368Y-82989255D01*
X146786467Y-82979500D01*
X146805565Y-82810003D01*
X146805565Y-82809996D01*
X146785369Y-82630750D01*
X146785368Y-82630745D01*
X146725788Y-82460476D01*
X146629815Y-82307737D01*
X146502262Y-82180184D01*
X146349523Y-82084211D01*
X146179254Y-82024631D01*
X146179249Y-82024630D01*
X146044960Y-82009500D01*
X146044954Y-82009500D01*
X145955046Y-82009500D01*
X145955039Y-82009500D01*
X145820750Y-82024630D01*
X145820745Y-82024631D01*
X145650476Y-82084211D01*
X145497737Y-82180184D01*
X145370184Y-82307737D01*
X145274211Y-82460476D01*
X145214631Y-82630745D01*
X145214630Y-82630750D01*
X145194435Y-82809996D01*
X145194435Y-82810003D01*
X120500000Y-82810003D01*
X120500000Y-80645000D01*
X125459540Y-80645000D01*
X125479326Y-80833256D01*
X125479327Y-80833259D01*
X125537818Y-81013277D01*
X125537821Y-81013284D01*
X125632467Y-81177216D01*
X125759128Y-81317888D01*
X125759129Y-81317888D01*
X125912265Y-81429148D01*
X125912270Y-81429151D01*
X126085192Y-81506142D01*
X126085197Y-81506144D01*
X126270354Y-81545500D01*
X126270355Y-81545500D01*
X126459644Y-81545500D01*
X126459646Y-81545500D01*
X126644803Y-81506144D01*
X126817730Y-81429151D01*
X126970871Y-81317888D01*
X127097533Y-81177216D01*
X127192179Y-81013284D01*
X127250674Y-80833256D01*
X127270460Y-80645000D01*
X139429540Y-80645000D01*
X139449326Y-80833256D01*
X139449327Y-80833259D01*
X139507818Y-81013277D01*
X139507821Y-81013284D01*
X139602467Y-81177216D01*
X139729129Y-81317888D01*
X139882265Y-81429148D01*
X139882270Y-81429151D01*
X140055192Y-81506142D01*
X140055197Y-81506144D01*
X140240354Y-81545500D01*
X140240355Y-81545500D01*
X140429644Y-81545500D01*
X140429646Y-81545500D01*
X140614803Y-81506144D01*
X140787730Y-81429151D01*
X140940871Y-81317888D01*
X141067533Y-81177216D01*
X141162179Y-81013284D01*
X141220674Y-80833256D01*
X141240460Y-80645000D01*
X141220674Y-80456744D01*
X141162179Y-80276716D01*
X141158303Y-80270003D01*
X145194435Y-80270003D01*
X145214630Y-80449249D01*
X145214631Y-80449254D01*
X145274211Y-80619523D01*
X145370183Y-80772261D01*
X145370184Y-80772262D01*
X145497738Y-80899816D01*
X145650478Y-80995789D01*
X145700456Y-81013277D01*
X145820745Y-81055368D01*
X145820750Y-81055369D01*
X145911246Y-81065565D01*
X145955040Y-81070499D01*
X145955043Y-81070500D01*
X145955046Y-81070500D01*
X146044957Y-81070500D01*
X146044958Y-81070499D01*
X146112104Y-81062934D01*
X146179249Y-81055369D01*
X146179252Y-81055368D01*
X146179255Y-81055368D01*
X146349522Y-80995789D01*
X146502262Y-80899816D01*
X146629816Y-80772262D01*
X146725789Y-80619522D01*
X146785368Y-80449255D01*
X146804808Y-80276722D01*
X146805565Y-80270003D01*
X146805565Y-80269996D01*
X146785369Y-80090750D01*
X146785368Y-80090745D01*
X146785368Y-80090744D01*
X146725789Y-79920478D01*
X146629816Y-79767738D01*
X146502262Y-79640184D01*
X146502261Y-79640184D01*
X146349523Y-79544211D01*
X146179254Y-79484631D01*
X146179249Y-79484630D01*
X146044960Y-79469500D01*
X146044954Y-79469500D01*
X145955046Y-79469500D01*
X145955039Y-79469500D01*
X145820750Y-79484630D01*
X145820745Y-79484631D01*
X145650476Y-79544211D01*
X145497737Y-79640184D01*
X145370184Y-79767737D01*
X145274211Y-79920476D01*
X145214631Y-80090745D01*
X145214630Y-80090750D01*
X145194435Y-80269996D01*
X145194435Y-80270003D01*
X141158303Y-80270003D01*
X141067533Y-80112784D01*
X140940871Y-79972112D01*
X140869803Y-79920478D01*
X140787734Y-79860851D01*
X140787729Y-79860848D01*
X140614807Y-79783857D01*
X140614802Y-79783855D01*
X140469001Y-79752865D01*
X140429646Y-79744500D01*
X140240354Y-79744500D01*
X140207897Y-79751398D01*
X140055197Y-79783855D01*
X140055192Y-79783857D01*
X139882270Y-79860848D01*
X139882265Y-79860851D01*
X139729129Y-79972111D01*
X139602466Y-80112785D01*
X139507821Y-80276715D01*
X139507818Y-80276722D01*
X139451759Y-80449255D01*
X139449326Y-80456744D01*
X139429540Y-80645000D01*
X127270460Y-80645000D01*
X127250674Y-80456744D01*
X127192179Y-80276716D01*
X127097533Y-80112784D01*
X126970871Y-79972112D01*
X126899803Y-79920478D01*
X126817734Y-79860851D01*
X126817729Y-79860848D01*
X126644807Y-79783857D01*
X126644802Y-79783855D01*
X126499001Y-79752865D01*
X126459646Y-79744500D01*
X126270354Y-79744500D01*
X126237897Y-79751398D01*
X126085197Y-79783855D01*
X126085192Y-79783857D01*
X125912270Y-79860848D01*
X125912265Y-79860851D01*
X125759129Y-79972111D01*
X125632466Y-80112785D01*
X125537821Y-80276715D01*
X125537818Y-80276722D01*
X125481759Y-80449255D01*
X125479326Y-80456744D01*
X125459540Y-80645000D01*
X120500000Y-80645000D01*
X120500000Y-76924500D01*
X127999540Y-76924500D01*
X128019326Y-77112756D01*
X128019327Y-77112759D01*
X128077818Y-77292777D01*
X128077821Y-77292784D01*
X128172467Y-77456716D01*
X128257136Y-77550750D01*
X128299129Y-77597388D01*
X128452265Y-77708648D01*
X128452270Y-77708651D01*
X128625192Y-77785642D01*
X128625197Y-77785644D01*
X128810354Y-77825000D01*
X128810355Y-77825000D01*
X128999644Y-77825000D01*
X128999646Y-77825000D01*
X129184803Y-77785644D01*
X129357730Y-77708651D01*
X129510871Y-77597388D01*
X129637533Y-77456716D01*
X129732179Y-77292784D01*
X129754982Y-77222601D01*
X129794420Y-77164925D01*
X129858778Y-77137726D01*
X129927625Y-77149640D01*
X129979101Y-77196884D01*
X129980301Y-77198919D01*
X130077463Y-77367211D01*
X130077465Y-77367214D01*
X130204129Y-77507888D01*
X130357265Y-77619148D01*
X130357270Y-77619151D01*
X130530192Y-77696142D01*
X130530197Y-77696144D01*
X130715354Y-77735500D01*
X130715355Y-77735500D01*
X130904644Y-77735500D01*
X130904646Y-77735500D01*
X130930508Y-77730003D01*
X145194435Y-77730003D01*
X145214630Y-77909249D01*
X145214631Y-77909254D01*
X145274211Y-78079523D01*
X145370184Y-78232261D01*
X145370184Y-78232262D01*
X145497738Y-78359816D01*
X145650478Y-78455789D01*
X145820744Y-78515367D01*
X145820745Y-78515368D01*
X145820750Y-78515369D01*
X145911246Y-78525565D01*
X145955040Y-78530499D01*
X145955043Y-78530500D01*
X145955046Y-78530500D01*
X146044957Y-78530500D01*
X146044958Y-78530499D01*
X146112104Y-78522934D01*
X146179249Y-78515369D01*
X146179252Y-78515368D01*
X146179255Y-78515368D01*
X146349522Y-78455789D01*
X146502262Y-78359816D01*
X146629816Y-78232262D01*
X146725789Y-78079522D01*
X146785368Y-77909255D01*
X146785369Y-77909249D01*
X146805565Y-77730003D01*
X146805565Y-77729996D01*
X146785369Y-77550750D01*
X146785368Y-77550745D01*
X146725788Y-77380476D01*
X146629815Y-77227737D01*
X146502262Y-77100184D01*
X146349523Y-77004211D01*
X146179254Y-76944631D01*
X146179249Y-76944630D01*
X146044960Y-76929500D01*
X146044954Y-76929500D01*
X145955046Y-76929500D01*
X145955039Y-76929500D01*
X145820750Y-76944630D01*
X145820745Y-76944631D01*
X145650476Y-77004211D01*
X145497737Y-77100184D01*
X145370184Y-77227737D01*
X145274211Y-77380476D01*
X145214631Y-77550745D01*
X145214630Y-77550750D01*
X145194435Y-77729996D01*
X145194435Y-77730003D01*
X130930508Y-77730003D01*
X131089803Y-77696144D01*
X131262730Y-77619151D01*
X131415871Y-77507888D01*
X131542533Y-77367216D01*
X131637179Y-77203284D01*
X131695674Y-77023256D01*
X131715460Y-76835000D01*
X131695674Y-76646744D01*
X131637179Y-76466716D01*
X131542533Y-76302784D01*
X131415871Y-76162112D01*
X131415870Y-76162111D01*
X131262734Y-76050851D01*
X131262729Y-76050848D01*
X131089807Y-75973857D01*
X131089802Y-75973855D01*
X130944001Y-75942865D01*
X130904646Y-75934500D01*
X130715354Y-75934500D01*
X130682897Y-75941398D01*
X130530197Y-75973855D01*
X130530192Y-75973857D01*
X130357270Y-76050848D01*
X130357265Y-76050851D01*
X130204129Y-76162111D01*
X130077466Y-76302785D01*
X129982821Y-76466715D01*
X129982819Y-76466719D01*
X129960016Y-76536900D01*
X129920578Y-76594575D01*
X129856219Y-76621773D01*
X129787372Y-76609858D01*
X129735897Y-76562613D01*
X129734697Y-76560580D01*
X129732180Y-76556222D01*
X129732179Y-76556216D01*
X129637533Y-76392284D01*
X129510871Y-76251612D01*
X129510870Y-76251611D01*
X129357734Y-76140351D01*
X129357729Y-76140348D01*
X129184807Y-76063357D01*
X129184802Y-76063355D01*
X129039000Y-76032365D01*
X128999646Y-76024000D01*
X128810354Y-76024000D01*
X128777897Y-76030898D01*
X128625197Y-76063355D01*
X128625192Y-76063357D01*
X128452270Y-76140348D01*
X128452265Y-76140351D01*
X128299129Y-76251611D01*
X128172466Y-76392285D01*
X128077821Y-76556215D01*
X128077818Y-76556222D01*
X128048406Y-76646744D01*
X128019326Y-76736244D01*
X127999540Y-76924500D01*
X120500000Y-76924500D01*
X120500000Y-74930000D01*
X141969540Y-74930000D01*
X141989326Y-75118256D01*
X141989327Y-75118259D01*
X142047818Y-75298277D01*
X142047821Y-75298284D01*
X142142467Y-75462216D01*
X142212074Y-75539522D01*
X142269129Y-75602888D01*
X142422265Y-75714148D01*
X142422270Y-75714151D01*
X142595192Y-75791142D01*
X142595197Y-75791144D01*
X142780354Y-75830500D01*
X142780355Y-75830500D01*
X142969644Y-75830500D01*
X142969646Y-75830500D01*
X143154803Y-75791144D01*
X143327730Y-75714151D01*
X143480871Y-75602888D01*
X143607533Y-75462216D01*
X143702179Y-75298284D01*
X143737362Y-75190003D01*
X145194435Y-75190003D01*
X145214630Y-75369249D01*
X145214631Y-75369254D01*
X145274211Y-75539523D01*
X145370184Y-75692261D01*
X145370184Y-75692262D01*
X145497738Y-75819816D01*
X145650478Y-75915789D01*
X145816421Y-75973855D01*
X145820745Y-75975368D01*
X145820750Y-75975369D01*
X145911246Y-75985565D01*
X145955040Y-75990499D01*
X145955043Y-75990500D01*
X145955046Y-75990500D01*
X146044957Y-75990500D01*
X146044958Y-75990499D01*
X146112104Y-75982934D01*
X146179249Y-75975369D01*
X146179252Y-75975368D01*
X146179255Y-75975368D01*
X146349522Y-75915789D01*
X146502262Y-75819816D01*
X146629816Y-75692262D01*
X146725789Y-75539522D01*
X146785368Y-75369255D01*
X146785369Y-75369249D01*
X146805565Y-75190003D01*
X146805565Y-75189996D01*
X146785369Y-75010750D01*
X146785368Y-75010745D01*
X146725788Y-74840476D01*
X146629815Y-74687737D01*
X146502262Y-74560184D01*
X146349523Y-74464211D01*
X146179254Y-74404631D01*
X146179249Y-74404630D01*
X146044960Y-74389500D01*
X146044954Y-74389500D01*
X145955046Y-74389500D01*
X145955039Y-74389500D01*
X145820750Y-74404630D01*
X145820745Y-74404631D01*
X145650476Y-74464211D01*
X145497737Y-74560184D01*
X145370184Y-74687737D01*
X145274211Y-74840476D01*
X145214631Y-75010745D01*
X145214630Y-75010750D01*
X145194435Y-75189996D01*
X145194435Y-75190003D01*
X143737362Y-75190003D01*
X143760674Y-75118256D01*
X143780460Y-74930000D01*
X143760674Y-74741744D01*
X143702179Y-74561716D01*
X143607533Y-74397784D01*
X143480871Y-74257112D01*
X143480870Y-74257111D01*
X143327734Y-74145851D01*
X143327729Y-74145848D01*
X143154807Y-74068857D01*
X143154802Y-74068855D01*
X143009001Y-74037865D01*
X142969646Y-74029500D01*
X142780354Y-74029500D01*
X142747897Y-74036398D01*
X142595197Y-74068855D01*
X142595192Y-74068857D01*
X142422270Y-74145848D01*
X142422265Y-74145851D01*
X142269129Y-74257111D01*
X142142466Y-74397785D01*
X142047821Y-74561715D01*
X142047818Y-74561722D01*
X141989327Y-74741740D01*
X141989326Y-74741744D01*
X141969540Y-74930000D01*
X120500000Y-74930000D01*
X120500000Y-73025000D01*
X133714540Y-73025000D01*
X133734326Y-73213256D01*
X133734327Y-73213259D01*
X133792818Y-73393277D01*
X133792821Y-73393284D01*
X133887467Y-73557216D01*
X134006937Y-73689900D01*
X134014129Y-73697888D01*
X134167265Y-73809148D01*
X134167270Y-73809151D01*
X134340192Y-73886142D01*
X134340197Y-73886144D01*
X134525354Y-73925500D01*
X134525355Y-73925500D01*
X134714644Y-73925500D01*
X134714646Y-73925500D01*
X134899803Y-73886144D01*
X135072730Y-73809151D01*
X135225871Y-73697888D01*
X135352533Y-73557216D01*
X135447179Y-73393284D01*
X135505674Y-73213256D01*
X135516212Y-73112987D01*
X144500000Y-73112987D01*
X144506184Y-73191563D01*
X144506184Y-73191564D01*
X144555150Y-73374307D01*
X144641037Y-73542873D01*
X144641038Y-73542875D01*
X144760099Y-73689900D01*
X144907124Y-73808961D01*
X144907126Y-73808962D01*
X145075692Y-73894849D01*
X145258436Y-73943815D01*
X145337012Y-73949999D01*
X145337024Y-73950000D01*
X148250000Y-73950000D01*
X148250000Y-72900000D01*
X146166111Y-72900000D01*
X146205610Y-72875543D01*
X146273201Y-72786038D01*
X146303895Y-72678160D01*
X146293546Y-72566479D01*
X146243552Y-72466078D01*
X146171069Y-72400000D01*
X148250000Y-72400000D01*
X148250000Y-71350000D01*
X145337012Y-71350000D01*
X145258436Y-71356184D01*
X145258435Y-71356184D01*
X145075692Y-71405150D01*
X144907126Y-71491037D01*
X144907124Y-71491038D01*
X144760099Y-71610099D01*
X144641038Y-71757124D01*
X144641037Y-71757126D01*
X144555150Y-71925692D01*
X144506184Y-72108435D01*
X144506184Y-72108436D01*
X144500000Y-72187012D01*
X144500000Y-72400000D01*
X145833889Y-72400000D01*
X145794390Y-72424457D01*
X145726799Y-72513962D01*
X145696105Y-72621840D01*
X145706454Y-72733521D01*
X145756448Y-72833922D01*
X145828931Y-72900000D01*
X144500000Y-72900000D01*
X144500000Y-73112987D01*
X135516212Y-73112987D01*
X135525460Y-73025000D01*
X135505674Y-72836744D01*
X135447179Y-72656716D01*
X135352533Y-72492784D01*
X135225871Y-72352112D01*
X135222964Y-72350000D01*
X135072734Y-72240851D01*
X135072729Y-72240848D01*
X134899807Y-72163857D01*
X134899802Y-72163855D01*
X134754001Y-72132865D01*
X134714646Y-72124500D01*
X134525354Y-72124500D01*
X134492897Y-72131398D01*
X134340197Y-72163855D01*
X134340192Y-72163857D01*
X134167270Y-72240848D01*
X134167265Y-72240851D01*
X134014129Y-72352111D01*
X133887466Y-72492785D01*
X133792821Y-72656715D01*
X133792818Y-72656722D01*
X133767865Y-72733521D01*
X133734326Y-72836744D01*
X133714540Y-73025000D01*
X120500000Y-73025000D01*
X120500000Y-71755000D01*
X136254540Y-71755000D01*
X136274326Y-71943256D01*
X136274327Y-71943259D01*
X136332818Y-72123277D01*
X136332821Y-72123284D01*
X136427467Y-72287216D01*
X136551040Y-72424457D01*
X136554129Y-72427888D01*
X136707265Y-72539148D01*
X136707270Y-72539151D01*
X136880192Y-72616142D01*
X136880197Y-72616144D01*
X137065354Y-72655500D01*
X137065355Y-72655500D01*
X137254644Y-72655500D01*
X137254646Y-72655500D01*
X137439803Y-72616144D01*
X137612730Y-72539151D01*
X137765871Y-72427888D01*
X137892533Y-72287216D01*
X137987179Y-72123284D01*
X138045674Y-71943256D01*
X138065460Y-71755000D01*
X138045674Y-71566744D01*
X137987179Y-71386716D01*
X137892533Y-71222784D01*
X137765871Y-71082112D01*
X137722613Y-71050683D01*
X137612734Y-70970851D01*
X137612729Y-70970848D01*
X137439807Y-70893857D01*
X137439802Y-70893855D01*
X137294001Y-70862865D01*
X137254646Y-70854500D01*
X137065354Y-70854500D01*
X137032897Y-70861398D01*
X136880197Y-70893855D01*
X136880192Y-70893857D01*
X136707270Y-70970848D01*
X136707265Y-70970851D01*
X136554129Y-71082111D01*
X136427466Y-71222785D01*
X136332821Y-71386715D01*
X136332818Y-71386722D01*
X136274327Y-71566740D01*
X136274326Y-71566744D01*
X136254540Y-71755000D01*
X120500000Y-71755000D01*
X120500000Y-67945000D01*
X124824540Y-67945000D01*
X124844326Y-68133256D01*
X124844327Y-68133259D01*
X124902818Y-68313277D01*
X124902821Y-68313284D01*
X124997467Y-68477216D01*
X125124129Y-68617887D01*
X125124129Y-68617888D01*
X125277265Y-68729148D01*
X125277270Y-68729151D01*
X125450192Y-68806142D01*
X125450197Y-68806144D01*
X125635354Y-68845500D01*
X125635355Y-68845500D01*
X125824644Y-68845500D01*
X125824646Y-68845500D01*
X126009803Y-68806144D01*
X126182730Y-68729151D01*
X126335871Y-68617888D01*
X126462533Y-68477216D01*
X126557179Y-68313284D01*
X126615674Y-68133256D01*
X126635460Y-67945000D01*
X126615674Y-67756744D01*
X126557179Y-67576716D01*
X126462533Y-67412784D01*
X126335871Y-67272112D01*
X126335870Y-67272111D01*
X126182734Y-67160851D01*
X126182729Y-67160848D01*
X126009807Y-67083857D01*
X126009802Y-67083855D01*
X125864001Y-67052865D01*
X125824646Y-67044500D01*
X125635354Y-67044500D01*
X125602897Y-67051398D01*
X125450197Y-67083855D01*
X125450192Y-67083857D01*
X125277270Y-67160848D01*
X125277265Y-67160851D01*
X125124129Y-67272111D01*
X124997466Y-67412785D01*
X124902821Y-67576715D01*
X124902818Y-67576722D01*
X124844327Y-67756740D01*
X124844326Y-67756744D01*
X124824540Y-67945000D01*
X120500000Y-67945000D01*
X120500000Y-66986660D01*
X129516891Y-66986660D01*
X129530697Y-66995335D01*
X129530701Y-66995337D01*
X129700858Y-67054877D01*
X129700861Y-67054878D01*
X129879997Y-67075062D01*
X129880003Y-67075062D01*
X130059138Y-67054878D01*
X130229307Y-66995333D01*
X130243107Y-66986661D01*
X130243107Y-66986660D01*
X130916891Y-66986660D01*
X130930697Y-66995335D01*
X130930701Y-66995337D01*
X131100858Y-67054877D01*
X131100861Y-67054878D01*
X131279997Y-67075062D01*
X131280003Y-67075062D01*
X131459138Y-67054878D01*
X131629307Y-66995333D01*
X131643107Y-66986661D01*
X131643107Y-66986660D01*
X131280001Y-66623553D01*
X131280000Y-66623553D01*
X130916891Y-66986660D01*
X130243107Y-66986660D01*
X129880001Y-66623553D01*
X129880000Y-66623553D01*
X129516891Y-66986660D01*
X120500000Y-66986660D01*
X120500000Y-66286660D01*
X128816891Y-66286660D01*
X128830697Y-66295335D01*
X128830701Y-66295337D01*
X129000859Y-66354878D01*
X129001644Y-66355057D01*
X129002099Y-66355311D01*
X129007430Y-66357177D01*
X129007103Y-66358110D01*
X129062623Y-66389166D01*
X129091952Y-66442875D01*
X129092823Y-66442571D01*
X129094672Y-66447855D01*
X129094940Y-66448346D01*
X129095120Y-66449137D01*
X129154662Y-66619298D01*
X129154667Y-66619308D01*
X129163338Y-66633108D01*
X129526447Y-66270000D01*
X129724709Y-66270000D01*
X129745514Y-66347645D01*
X129802355Y-66404486D01*
X129860254Y-66420000D01*
X129899746Y-66420000D01*
X129957645Y-66404486D01*
X130014486Y-66347646D01*
X130035291Y-66270001D01*
X130233552Y-66270001D01*
X130579998Y-66616447D01*
X130579999Y-66616447D01*
X130913946Y-66282499D01*
X130901447Y-66270000D01*
X131124709Y-66270000D01*
X131145514Y-66347645D01*
X131202355Y-66404486D01*
X131260254Y-66420000D01*
X131299746Y-66420000D01*
X131357645Y-66404486D01*
X131414486Y-66347646D01*
X131435291Y-66270000D01*
X131633552Y-66270000D01*
X131996660Y-66633107D01*
X131996661Y-66633107D01*
X132005333Y-66619307D01*
X132064877Y-66449141D01*
X132065056Y-66448358D01*
X132065310Y-66447902D01*
X132067177Y-66442569D01*
X132068111Y-66442895D01*
X132099164Y-66387379D01*
X132152874Y-66358050D01*
X132152569Y-66357177D01*
X132157871Y-66355321D01*
X132158358Y-66355056D01*
X132159141Y-66354877D01*
X132329307Y-66295333D01*
X132343107Y-66286661D01*
X132343107Y-66286660D01*
X131980001Y-65923553D01*
X131980000Y-65923553D01*
X131633552Y-66270000D01*
X131435291Y-66270000D01*
X131414486Y-66192355D01*
X131357645Y-66135514D01*
X131299746Y-66120000D01*
X131260254Y-66120000D01*
X131202355Y-66135514D01*
X131145514Y-66192354D01*
X131124709Y-66270000D01*
X130901447Y-66270000D01*
X130567498Y-65936053D01*
X130233553Y-66269998D01*
X130233552Y-66270001D01*
X130035291Y-66270001D01*
X130035291Y-66270000D01*
X130014486Y-66192355D01*
X129957645Y-66135514D01*
X129899746Y-66120000D01*
X129860254Y-66120000D01*
X129802355Y-66135514D01*
X129745514Y-66192354D01*
X129724709Y-66270000D01*
X129526447Y-66270000D01*
X129526447Y-66269999D01*
X129180001Y-65923553D01*
X129180000Y-65923553D01*
X128816891Y-66286660D01*
X120500000Y-66286660D01*
X120500000Y-65570002D01*
X128374938Y-65570002D01*
X128395121Y-65749138D01*
X128395122Y-65749141D01*
X128454662Y-65919298D01*
X128454667Y-65919308D01*
X128463338Y-65933108D01*
X128826446Y-65570000D01*
X129024709Y-65570000D01*
X129045514Y-65647645D01*
X129102355Y-65704486D01*
X129160254Y-65720000D01*
X129199746Y-65720000D01*
X129257645Y-65704486D01*
X129314486Y-65647646D01*
X129335291Y-65570000D01*
X129534442Y-65570000D01*
X129867542Y-65903903D01*
X130201446Y-65570000D01*
X130399709Y-65570000D01*
X130420514Y-65647645D01*
X130477355Y-65704486D01*
X130535254Y-65720000D01*
X130574746Y-65720000D01*
X130632645Y-65704486D01*
X130689486Y-65647646D01*
X130710291Y-65570000D01*
X130710291Y-65569999D01*
X130933553Y-65569999D01*
X131279999Y-65916447D01*
X131280000Y-65916447D01*
X131626446Y-65570000D01*
X131824709Y-65570000D01*
X131845514Y-65647645D01*
X131902355Y-65704486D01*
X131960254Y-65720000D01*
X131999746Y-65720000D01*
X132057645Y-65704486D01*
X132114486Y-65647646D01*
X132135291Y-65570000D01*
X132135291Y-65569999D01*
X132333552Y-65569999D01*
X132696660Y-65933107D01*
X132696661Y-65933107D01*
X132705333Y-65919307D01*
X132764878Y-65749138D01*
X132785062Y-65570002D01*
X132785062Y-65569997D01*
X132764878Y-65390861D01*
X132764877Y-65390858D01*
X132705337Y-65220701D01*
X132705335Y-65220697D01*
X132696660Y-65206891D01*
X132333552Y-65569999D01*
X132135291Y-65569999D01*
X132114486Y-65492355D01*
X132057645Y-65435514D01*
X131999746Y-65420000D01*
X131960254Y-65420000D01*
X131902355Y-65435514D01*
X131845514Y-65492354D01*
X131824709Y-65570000D01*
X131626446Y-65570000D01*
X131626447Y-65569999D01*
X131280001Y-65223553D01*
X131280000Y-65223553D01*
X130933553Y-65569998D01*
X130933553Y-65569999D01*
X130710291Y-65569999D01*
X130689486Y-65492355D01*
X130632645Y-65435514D01*
X130574746Y-65420000D01*
X130535254Y-65420000D01*
X130477355Y-65435514D01*
X130420514Y-65492354D01*
X130399709Y-65570000D01*
X130201446Y-65570000D01*
X130201447Y-65569999D01*
X129867543Y-65236095D01*
X129534442Y-65570000D01*
X129335291Y-65570000D01*
X129314486Y-65492355D01*
X129257645Y-65435514D01*
X129199746Y-65420000D01*
X129160254Y-65420000D01*
X129102355Y-65435514D01*
X129045514Y-65492354D01*
X129024709Y-65570000D01*
X128826446Y-65570000D01*
X128826447Y-65569999D01*
X128826447Y-65569998D01*
X128463339Y-65206890D01*
X128463338Y-65206891D01*
X128454664Y-65220696D01*
X128395122Y-65390858D01*
X128395121Y-65390861D01*
X128374938Y-65569997D01*
X128374938Y-65570002D01*
X120500000Y-65570002D01*
X120500000Y-64870000D01*
X128833552Y-64870000D01*
X129179998Y-65216447D01*
X129179999Y-65216447D01*
X129526446Y-64870000D01*
X129724709Y-64870000D01*
X129745514Y-64947645D01*
X129802355Y-65004486D01*
X129860254Y-65020000D01*
X129899746Y-65020000D01*
X129957645Y-65004486D01*
X130014486Y-64947646D01*
X130035291Y-64870000D01*
X130233553Y-64870000D01*
X130567498Y-65203947D01*
X130567499Y-65203947D01*
X130901446Y-64870000D01*
X131124709Y-64870000D01*
X131145514Y-64947645D01*
X131202355Y-65004486D01*
X131260254Y-65020000D01*
X131299746Y-65020000D01*
X131357645Y-65004486D01*
X131414486Y-64947646D01*
X131435291Y-64870000D01*
X131633552Y-64870000D01*
X131980000Y-65216447D01*
X131980001Y-65216447D01*
X132326446Y-64870000D01*
X132326446Y-64869999D01*
X131980001Y-64523553D01*
X131980000Y-64523553D01*
X131633552Y-64869999D01*
X131633552Y-64870000D01*
X131435291Y-64870000D01*
X131414486Y-64792355D01*
X131357645Y-64735514D01*
X131299746Y-64720000D01*
X131260254Y-64720000D01*
X131202355Y-64735514D01*
X131145514Y-64792354D01*
X131124709Y-64870000D01*
X130901446Y-64870000D01*
X130567499Y-64536053D01*
X130567498Y-64536053D01*
X130233553Y-64869999D01*
X130233553Y-64870000D01*
X130035291Y-64870000D01*
X130014486Y-64792355D01*
X129957645Y-64735514D01*
X129899746Y-64720000D01*
X129860254Y-64720000D01*
X129802355Y-64735514D01*
X129745514Y-64792354D01*
X129724709Y-64870000D01*
X129526446Y-64870000D01*
X129526445Y-64869999D01*
X129180001Y-64523553D01*
X129180000Y-64523553D01*
X128833552Y-64870000D01*
X120500000Y-64870000D01*
X120500000Y-63500000D01*
X126094540Y-63500000D01*
X126114326Y-63688256D01*
X126114327Y-63688259D01*
X126172818Y-63868277D01*
X126172821Y-63868284D01*
X126267467Y-64032216D01*
X126296482Y-64064440D01*
X126394129Y-64172888D01*
X126547265Y-64284148D01*
X126547270Y-64284151D01*
X126720192Y-64361142D01*
X126720197Y-64361144D01*
X126905354Y-64400500D01*
X126905355Y-64400500D01*
X127094644Y-64400500D01*
X127094646Y-64400500D01*
X127279803Y-64361144D01*
X127452730Y-64284151D01*
X127605871Y-64172888D01*
X127608470Y-64170002D01*
X128374938Y-64170002D01*
X128395121Y-64349138D01*
X128395122Y-64349141D01*
X128454662Y-64519298D01*
X128454667Y-64519308D01*
X128463338Y-64533108D01*
X128826446Y-64170000D01*
X129024709Y-64170000D01*
X129045514Y-64247645D01*
X129102355Y-64304486D01*
X129160254Y-64320000D01*
X129199746Y-64320000D01*
X129257645Y-64304486D01*
X129314486Y-64247646D01*
X129335291Y-64170000D01*
X129335291Y-64169999D01*
X129533553Y-64169999D01*
X129867500Y-64503946D01*
X130201446Y-64170000D01*
X130399709Y-64170000D01*
X130420514Y-64247645D01*
X130477355Y-64304486D01*
X130535254Y-64320000D01*
X130574746Y-64320000D01*
X130632645Y-64304486D01*
X130689486Y-64247646D01*
X130710291Y-64170000D01*
X130710291Y-64169999D01*
X130933553Y-64169999D01*
X131279999Y-64516447D01*
X131280000Y-64516447D01*
X131626446Y-64170000D01*
X131824709Y-64170000D01*
X131845514Y-64247645D01*
X131902355Y-64304486D01*
X131960254Y-64320000D01*
X131999746Y-64320000D01*
X132057645Y-64304486D01*
X132114486Y-64247646D01*
X132135291Y-64170000D01*
X132135291Y-64169999D01*
X132333552Y-64169999D01*
X132696660Y-64533107D01*
X132696661Y-64533107D01*
X132705333Y-64519307D01*
X132764878Y-64349138D01*
X132785062Y-64170002D01*
X132785062Y-64169997D01*
X132764878Y-63990861D01*
X132764877Y-63990858D01*
X132705337Y-63820701D01*
X132705335Y-63820697D01*
X132696660Y-63806891D01*
X132333552Y-64169999D01*
X132135291Y-64169999D01*
X132114486Y-64092355D01*
X132057645Y-64035514D01*
X131999746Y-64020000D01*
X131960254Y-64020000D01*
X131902355Y-64035514D01*
X131845514Y-64092354D01*
X131824709Y-64170000D01*
X131626446Y-64170000D01*
X131626447Y-64169999D01*
X131280001Y-63823553D01*
X131280000Y-63823553D01*
X130933553Y-64169998D01*
X130933553Y-64169999D01*
X130710291Y-64169999D01*
X130689486Y-64092355D01*
X130632645Y-64035514D01*
X130574746Y-64020000D01*
X130535254Y-64020000D01*
X130477355Y-64035514D01*
X130420514Y-64092354D01*
X130399709Y-64170000D01*
X130201446Y-64170000D01*
X130201447Y-64169999D01*
X129867500Y-63836052D01*
X129533553Y-64169998D01*
X129533553Y-64169999D01*
X129335291Y-64169999D01*
X129314486Y-64092355D01*
X129257645Y-64035514D01*
X129199746Y-64020000D01*
X129160254Y-64020000D01*
X129102355Y-64035514D01*
X129045514Y-64092354D01*
X129024709Y-64170000D01*
X128826446Y-64170000D01*
X128826447Y-64169999D01*
X128826447Y-64169998D01*
X128463339Y-63806890D01*
X128463338Y-63806891D01*
X128454664Y-63820696D01*
X128395122Y-63990858D01*
X128395121Y-63990861D01*
X128374938Y-64169997D01*
X128374938Y-64170002D01*
X127608470Y-64170002D01*
X127732533Y-64032216D01*
X127827179Y-63868284D01*
X127885674Y-63688256D01*
X127905460Y-63500000D01*
X127900556Y-63453339D01*
X128816890Y-63453339D01*
X129179998Y-63816447D01*
X129179999Y-63816447D01*
X129526445Y-63470000D01*
X129724709Y-63470000D01*
X129745514Y-63547645D01*
X129802355Y-63604486D01*
X129860254Y-63620000D01*
X129899746Y-63620000D01*
X129957645Y-63604486D01*
X130014486Y-63547646D01*
X130035291Y-63470000D01*
X130035291Y-63469999D01*
X130233552Y-63469999D01*
X130233553Y-63470000D01*
X130567498Y-63803947D01*
X130567499Y-63803947D01*
X130901446Y-63470000D01*
X131124709Y-63470000D01*
X131145514Y-63547645D01*
X131202355Y-63604486D01*
X131260254Y-63620000D01*
X131299746Y-63620000D01*
X131357645Y-63604486D01*
X131414486Y-63547646D01*
X131435291Y-63470000D01*
X131633551Y-63470000D01*
X131980000Y-63816447D01*
X131980001Y-63816447D01*
X132296446Y-63500000D01*
X133079540Y-63500000D01*
X133099326Y-63688256D01*
X133099327Y-63688259D01*
X133157818Y-63868277D01*
X133157821Y-63868284D01*
X133252467Y-64032216D01*
X133281482Y-64064440D01*
X133379129Y-64172888D01*
X133532265Y-64284148D01*
X133532270Y-64284151D01*
X133705192Y-64361142D01*
X133705197Y-64361144D01*
X133890354Y-64400500D01*
X133890355Y-64400500D01*
X134079644Y-64400500D01*
X134079646Y-64400500D01*
X134264803Y-64361144D01*
X134437730Y-64284151D01*
X134547117Y-64204676D01*
X134612920Y-64181198D01*
X134680974Y-64197023D01*
X134692871Y-64204668D01*
X134802266Y-64284148D01*
X134802270Y-64284151D01*
X134975192Y-64361142D01*
X134975197Y-64361144D01*
X135160354Y-64400500D01*
X135160355Y-64400500D01*
X135349644Y-64400500D01*
X135349646Y-64400500D01*
X135534803Y-64361144D01*
X135707730Y-64284151D01*
X135860871Y-64172888D01*
X135987533Y-64032216D01*
X136082179Y-63868284D01*
X136140674Y-63688256D01*
X136160460Y-63500000D01*
X138159540Y-63500000D01*
X138179326Y-63688256D01*
X138179327Y-63688259D01*
X138237818Y-63868277D01*
X138237821Y-63868284D01*
X138332467Y-64032216D01*
X138361482Y-64064440D01*
X138459129Y-64172888D01*
X138612265Y-64284148D01*
X138612270Y-64284151D01*
X138785192Y-64361142D01*
X138785197Y-64361144D01*
X138970354Y-64400500D01*
X138970355Y-64400500D01*
X139159644Y-64400500D01*
X139159646Y-64400500D01*
X139344803Y-64361144D01*
X139517730Y-64284151D01*
X139670871Y-64172888D01*
X139797533Y-64032216D01*
X139892179Y-63868284D01*
X139950674Y-63688256D01*
X139970460Y-63500000D01*
X139950674Y-63311744D01*
X139892179Y-63131716D01*
X139797533Y-62967784D01*
X139670871Y-62827112D01*
X139659432Y-62818801D01*
X139517734Y-62715851D01*
X139517729Y-62715848D01*
X139344807Y-62638857D01*
X139344802Y-62638855D01*
X139199000Y-62607865D01*
X139159646Y-62599500D01*
X138970354Y-62599500D01*
X138937897Y-62606398D01*
X138785197Y-62638855D01*
X138785192Y-62638857D01*
X138612270Y-62715848D01*
X138612265Y-62715851D01*
X138459129Y-62827111D01*
X138332466Y-62967785D01*
X138237821Y-63131715D01*
X138237818Y-63131722D01*
X138185699Y-63292130D01*
X138179326Y-63311744D01*
X138159540Y-63500000D01*
X136160460Y-63500000D01*
X136140674Y-63311744D01*
X136082179Y-63131716D01*
X135987533Y-62967784D01*
X135860871Y-62827112D01*
X135849432Y-62818801D01*
X135707734Y-62715851D01*
X135707729Y-62715848D01*
X135534807Y-62638857D01*
X135534802Y-62638855D01*
X135389001Y-62607865D01*
X135349646Y-62599500D01*
X135160354Y-62599500D01*
X135127897Y-62606398D01*
X134975197Y-62638855D01*
X134975192Y-62638857D01*
X134802270Y-62715848D01*
X134802265Y-62715851D01*
X134692885Y-62795321D01*
X134627079Y-62818801D01*
X134559025Y-62802975D01*
X134547115Y-62795321D01*
X134437734Y-62715851D01*
X134437729Y-62715848D01*
X134264807Y-62638857D01*
X134264802Y-62638855D01*
X134119001Y-62607865D01*
X134079646Y-62599500D01*
X133890354Y-62599500D01*
X133857897Y-62606398D01*
X133705197Y-62638855D01*
X133705192Y-62638857D01*
X133532270Y-62715848D01*
X133532265Y-62715851D01*
X133379129Y-62827111D01*
X133252466Y-62967785D01*
X133157821Y-63131715D01*
X133157818Y-63131722D01*
X133105699Y-63292130D01*
X133099326Y-63311744D01*
X133079540Y-63500000D01*
X132296446Y-63500000D01*
X132343108Y-63453338D01*
X132343108Y-63453337D01*
X132329308Y-63444667D01*
X132329298Y-63444662D01*
X132159137Y-63385120D01*
X132158346Y-63384940D01*
X132157886Y-63384683D01*
X132152571Y-63382823D01*
X132152896Y-63381891D01*
X132097370Y-63350827D01*
X132068049Y-63297124D01*
X132067177Y-63297430D01*
X132065322Y-63292130D01*
X132065057Y-63291644D01*
X132064878Y-63290859D01*
X132005337Y-63120701D01*
X132005335Y-63120697D01*
X131996660Y-63106891D01*
X131633551Y-63470000D01*
X131435291Y-63470000D01*
X131414486Y-63392355D01*
X131357645Y-63335514D01*
X131299746Y-63320000D01*
X131260254Y-63320000D01*
X131202355Y-63335514D01*
X131145514Y-63392354D01*
X131124709Y-63470000D01*
X130901446Y-63470000D01*
X130913946Y-63457500D01*
X130579999Y-63123553D01*
X130579998Y-63123553D01*
X130233552Y-63469999D01*
X130035291Y-63469999D01*
X130014486Y-63392355D01*
X129957645Y-63335514D01*
X129899746Y-63320000D01*
X129860254Y-63320000D01*
X129802355Y-63335514D01*
X129745514Y-63392354D01*
X129724709Y-63470000D01*
X129526445Y-63470000D01*
X129526446Y-63469999D01*
X129526447Y-63469998D01*
X129163339Y-63106890D01*
X129163338Y-63106891D01*
X129154665Y-63120695D01*
X129095118Y-63290869D01*
X129094939Y-63291656D01*
X129094683Y-63292112D01*
X129092823Y-63297430D01*
X129091890Y-63297103D01*
X129060824Y-63352631D01*
X129007125Y-63381952D01*
X129007430Y-63382823D01*
X129002143Y-63384672D01*
X129001656Y-63384939D01*
X129000869Y-63385118D01*
X128830695Y-63444665D01*
X128816891Y-63453338D01*
X128816890Y-63453339D01*
X127900556Y-63453339D01*
X127885674Y-63311744D01*
X127827179Y-63131716D01*
X127732533Y-62967784D01*
X127605871Y-62827112D01*
X127594432Y-62818801D01*
X127504330Y-62753338D01*
X129516890Y-62753338D01*
X129880000Y-63116446D01*
X129880001Y-63116446D01*
X130243108Y-62753338D01*
X130916890Y-62753338D01*
X131280000Y-63116446D01*
X131280001Y-63116446D01*
X131643108Y-62753338D01*
X131643108Y-62753337D01*
X131629308Y-62744667D01*
X131629298Y-62744662D01*
X131459141Y-62685122D01*
X131459138Y-62685121D01*
X131280003Y-62664938D01*
X131279997Y-62664938D01*
X131100861Y-62685121D01*
X131100858Y-62685122D01*
X130930696Y-62744664D01*
X130916891Y-62753338D01*
X130916890Y-62753338D01*
X130243108Y-62753338D01*
X130243108Y-62753337D01*
X130229308Y-62744667D01*
X130229298Y-62744662D01*
X130059141Y-62685122D01*
X130059138Y-62685121D01*
X129880003Y-62664938D01*
X129879997Y-62664938D01*
X129700861Y-62685121D01*
X129700858Y-62685122D01*
X129530696Y-62744664D01*
X129516891Y-62753338D01*
X129516890Y-62753338D01*
X127504330Y-62753338D01*
X127452734Y-62715851D01*
X127452729Y-62715848D01*
X127279807Y-62638857D01*
X127279802Y-62638855D01*
X127134000Y-62607865D01*
X127094646Y-62599500D01*
X126905354Y-62599500D01*
X126872897Y-62606398D01*
X126720197Y-62638855D01*
X126720192Y-62638857D01*
X126547270Y-62715848D01*
X126547265Y-62715851D01*
X126394129Y-62827111D01*
X126267466Y-62967785D01*
X126172821Y-63131715D01*
X126172818Y-63131722D01*
X126120699Y-63292130D01*
X126114326Y-63311744D01*
X126094540Y-63500000D01*
X120500000Y-63500000D01*
X120500000Y-59690000D01*
X124189540Y-59690000D01*
X124209326Y-59878256D01*
X124209327Y-59878259D01*
X124267818Y-60058277D01*
X124267821Y-60058284D01*
X124362467Y-60222216D01*
X124489129Y-60362887D01*
X124489129Y-60362888D01*
X124642265Y-60474148D01*
X124642270Y-60474151D01*
X124815192Y-60551142D01*
X124815197Y-60551144D01*
X125000354Y-60590500D01*
X125000355Y-60590500D01*
X125189644Y-60590500D01*
X125189646Y-60590500D01*
X125374803Y-60551144D01*
X125547730Y-60474151D01*
X125700871Y-60362888D01*
X125827533Y-60222216D01*
X125922179Y-60058284D01*
X125980674Y-59878256D01*
X126000460Y-59690000D01*
X138159540Y-59690000D01*
X138179326Y-59878256D01*
X138179327Y-59878259D01*
X138237818Y-60058277D01*
X138237821Y-60058284D01*
X138332467Y-60222216D01*
X138459129Y-60362887D01*
X138459129Y-60362888D01*
X138612265Y-60474148D01*
X138612270Y-60474151D01*
X138785192Y-60551142D01*
X138785197Y-60551144D01*
X138970354Y-60590500D01*
X138970355Y-60590500D01*
X139159644Y-60590500D01*
X139159646Y-60590500D01*
X139344803Y-60551144D01*
X139517730Y-60474151D01*
X139670871Y-60362888D01*
X139797533Y-60222216D01*
X139892179Y-60058284D01*
X139950674Y-59878256D01*
X139970460Y-59690000D01*
X139950674Y-59501744D01*
X139892179Y-59321716D01*
X139797533Y-59157784D01*
X139670871Y-59017112D01*
X139670870Y-59017111D01*
X139517734Y-58905851D01*
X139517729Y-58905848D01*
X139344807Y-58828857D01*
X139344802Y-58828855D01*
X139199000Y-58797865D01*
X139159646Y-58789500D01*
X138970354Y-58789500D01*
X138937897Y-58796398D01*
X138785197Y-58828855D01*
X138785192Y-58828857D01*
X138612270Y-58905848D01*
X138612265Y-58905851D01*
X138459129Y-59017111D01*
X138332466Y-59157785D01*
X138237821Y-59321715D01*
X138237818Y-59321722D01*
X138181885Y-59493868D01*
X138179326Y-59501744D01*
X138159540Y-59690000D01*
X126000460Y-59690000D01*
X125980674Y-59501744D01*
X125922179Y-59321716D01*
X125827533Y-59157784D01*
X125809693Y-59137971D01*
X125779464Y-59074981D01*
X125788089Y-59005646D01*
X125809694Y-58972028D01*
X125827533Y-58952216D01*
X125922179Y-58788284D01*
X125980674Y-58608256D01*
X126000460Y-58420000D01*
X125980674Y-58231744D01*
X125922179Y-58051716D01*
X125827533Y-57887784D01*
X125700871Y-57747112D01*
X125700870Y-57747111D01*
X125547734Y-57635851D01*
X125547729Y-57635848D01*
X125374807Y-57558857D01*
X125374802Y-57558855D01*
X125229000Y-57527865D01*
X125189646Y-57519500D01*
X125000354Y-57519500D01*
X124967897Y-57526398D01*
X124815197Y-57558855D01*
X124815192Y-57558857D01*
X124642270Y-57635848D01*
X124642265Y-57635851D01*
X124489129Y-57747111D01*
X124362466Y-57887785D01*
X124267821Y-58051715D01*
X124267818Y-58051722D01*
X124209327Y-58231740D01*
X124209326Y-58231744D01*
X124189540Y-58420000D01*
X124209326Y-58608256D01*
X124209327Y-58608259D01*
X124267818Y-58788277D01*
X124267821Y-58788284D01*
X124362467Y-58952216D01*
X124372806Y-58963699D01*
X124380307Y-58972030D01*
X124410535Y-59035022D01*
X124401909Y-59104357D01*
X124380307Y-59137970D01*
X124362466Y-59157785D01*
X124267821Y-59321715D01*
X124267818Y-59321722D01*
X124211885Y-59493868D01*
X124209326Y-59501744D01*
X124189540Y-59690000D01*
X120500000Y-59690000D01*
X120500000Y-56124000D01*
X120519685Y-56056961D01*
X120572489Y-56011206D01*
X120624000Y-56000000D01*
X143376000Y-56000000D01*
X143443039Y-56019685D01*
G37*
%TD.AperFunction*%
M02*
