%TF.GenerationSoftware,KiCad,Pcbnew,7.0.5-7.0.5~ubuntu22.04.1*%
%TF.CreationDate,2023-06-28T22:22:45+02:00*%
%TF.ProjectId,BatMon,4261744d-6f6e-42e6-9b69-6361645f7063,rev?*%
%TF.SameCoordinates,Original*%
%TF.FileFunction,Legend,Top*%
%TF.FilePolarity,Positive*%
%FSLAX46Y46*%
G04 Gerber Fmt 4.6, Leading zero omitted, Abs format (unit mm)*
G04 Created by KiCad (PCBNEW 7.0.5-7.0.5~ubuntu22.04.1) date 2023-06-28 22:22:45*
%MOMM*%
%LPD*%
G01*
G04 APERTURE LIST*
G04 Aperture macros list*
%AMRoundRect*
0 Rectangle with rounded corners*
0 $1 Rounding radius*
0 $2 $3 $4 $5 $6 $7 $8 $9 X,Y pos of 4 corners*
0 Add a 4 corners polygon primitive as box body*
4,1,4,$2,$3,$4,$5,$6,$7,$8,$9,$2,$3,0*
0 Add four circle primitives for the rounded corners*
1,1,$1+$1,$2,$3*
1,1,$1+$1,$4,$5*
1,1,$1+$1,$6,$7*
1,1,$1+$1,$8,$9*
0 Add four rect primitives between the rounded corners*
20,1,$1+$1,$2,$3,$4,$5,0*
20,1,$1+$1,$4,$5,$6,$7,0*
20,1,$1+$1,$6,$7,$8,$9,0*
20,1,$1+$1,$8,$9,$2,$3,0*%
%AMFreePoly0*
4,1,9,5.362500,-0.866500,1.237500,-0.866500,1.237500,-0.450000,-1.237500,-0.450000,-1.237500,0.450000,1.237500,0.450000,1.237500,0.866500,5.362500,0.866500,5.362500,-0.866500,5.362500,-0.866500,$1*%
G04 Aperture macros list end*
%ADD10C,0.250000*%
%ADD11C,0.150000*%
%ADD12C,0.100000*%
%ADD13C,0.120000*%
%ADD14RoundRect,0.237500X-0.250000X-0.237500X0.250000X-0.237500X0.250000X0.237500X-0.250000X0.237500X0*%
%ADD15RoundRect,0.237500X-0.237500X0.250000X-0.237500X-0.250000X0.237500X-0.250000X0.237500X0.250000X0*%
%ADD16RoundRect,0.400000X3.100000X-0.400000X3.100000X0.400000X-3.100000X0.400000X-3.100000X-0.400000X0*%
%ADD17RoundRect,0.400000X2.600000X-0.400000X2.600000X0.400000X-2.600000X0.400000X-2.600000X-0.400000X0*%
%ADD18R,1.220000X0.650000*%
%ADD19RoundRect,0.237500X0.237500X-0.250000X0.237500X0.250000X-0.237500X0.250000X-0.237500X-0.250000X0*%
%ADD20RoundRect,0.237500X0.237500X-0.300000X0.237500X0.300000X-0.237500X0.300000X-0.237500X-0.300000X0*%
%ADD21R,1.500000X0.900000*%
%ADD22R,0.900000X1.500000*%
%ADD23C,0.600000*%
%ADD24R,3.800000X3.800000*%
%ADD25R,0.700000X0.510000*%
%ADD26RoundRect,0.250000X0.425000X-0.537500X0.425000X0.537500X-0.425000X0.537500X-0.425000X-0.537500X0*%
%ADD27R,2.300000X0.900000*%
%ADD28FreePoly0,0.000000*%
%ADD29R,1.000000X1.000000*%
%ADD30O,1.000000X1.000000*%
%ADD31R,0.650000X1.220000*%
%ADD32RoundRect,0.250000X-0.600000X-0.725000X0.600000X-0.725000X0.600000X0.725000X-0.600000X0.725000X0*%
%ADD33O,1.700000X1.950000*%
%ADD34RoundRect,0.237500X-0.237500X0.287500X-0.237500X-0.287500X0.237500X-0.287500X0.237500X0.287500X0*%
G04 APERTURE END LIST*
D10*
X143735527Y-75258666D02*
X144497432Y-75258666D01*
X144545050Y-83259619D02*
X143973622Y-83259619D01*
X144259336Y-83259619D02*
X144259336Y-82259619D01*
X144259336Y-82259619D02*
X144164098Y-82402476D01*
X144164098Y-82402476D02*
X144068860Y-82497714D01*
X144068860Y-82497714D02*
X143973622Y-82545333D01*
X143973622Y-84894857D02*
X144021241Y-84847238D01*
X144021241Y-84847238D02*
X144116479Y-84799619D01*
X144116479Y-84799619D02*
X144354574Y-84799619D01*
X144354574Y-84799619D02*
X144449812Y-84847238D01*
X144449812Y-84847238D02*
X144497431Y-84894857D01*
X144497431Y-84894857D02*
X144545050Y-84990095D01*
X144545050Y-84990095D02*
X144545050Y-85085333D01*
X144545050Y-85085333D02*
X144497431Y-85228190D01*
X144497431Y-85228190D02*
X143926003Y-85799619D01*
X143926003Y-85799619D02*
X144545050Y-85799619D01*
X143973622Y-78179619D02*
X143973622Y-77179619D01*
X143973622Y-77179619D02*
X144211717Y-77179619D01*
X144211717Y-77179619D02*
X144354574Y-77227238D01*
X144354574Y-77227238D02*
X144449812Y-77322476D01*
X144449812Y-77322476D02*
X144497431Y-77417714D01*
X144497431Y-77417714D02*
X144545050Y-77608190D01*
X144545050Y-77608190D02*
X144545050Y-77751047D01*
X144545050Y-77751047D02*
X144497431Y-77941523D01*
X144497431Y-77941523D02*
X144449812Y-78036761D01*
X144449812Y-78036761D02*
X144354574Y-78132000D01*
X144354574Y-78132000D02*
X144211717Y-78179619D01*
X144211717Y-78179619D02*
X143973622Y-78179619D01*
X144545050Y-80624380D02*
X144497431Y-80672000D01*
X144497431Y-80672000D02*
X144354574Y-80719619D01*
X144354574Y-80719619D02*
X144259336Y-80719619D01*
X144259336Y-80719619D02*
X144116479Y-80672000D01*
X144116479Y-80672000D02*
X144021241Y-80576761D01*
X144021241Y-80576761D02*
X143973622Y-80481523D01*
X143973622Y-80481523D02*
X143926003Y-80291047D01*
X143926003Y-80291047D02*
X143926003Y-80148190D01*
X143926003Y-80148190D02*
X143973622Y-79957714D01*
X143973622Y-79957714D02*
X144021241Y-79862476D01*
X144021241Y-79862476D02*
X144116479Y-79767238D01*
X144116479Y-79767238D02*
X144259336Y-79719619D01*
X144259336Y-79719619D02*
X144354574Y-79719619D01*
X144354574Y-79719619D02*
X144497431Y-79767238D01*
X144497431Y-79767238D02*
X144545050Y-79814857D01*
D11*
X126987493Y-56654819D02*
X126987493Y-57369104D01*
X126987493Y-57369104D02*
X126939874Y-57511961D01*
X126939874Y-57511961D02*
X126844636Y-57607200D01*
X126844636Y-57607200D02*
X126701779Y-57654819D01*
X126701779Y-57654819D02*
X126606541Y-57654819D01*
X127939874Y-57654819D02*
X127463684Y-57654819D01*
X127463684Y-57654819D02*
X127463684Y-56654819D01*
X128844636Y-57559580D02*
X128797017Y-57607200D01*
X128797017Y-57607200D02*
X128654160Y-57654819D01*
X128654160Y-57654819D02*
X128558922Y-57654819D01*
X128558922Y-57654819D02*
X128416065Y-57607200D01*
X128416065Y-57607200D02*
X128320827Y-57511961D01*
X128320827Y-57511961D02*
X128273208Y-57416723D01*
X128273208Y-57416723D02*
X128225589Y-57226247D01*
X128225589Y-57226247D02*
X128225589Y-57083390D01*
X128225589Y-57083390D02*
X128273208Y-56892914D01*
X128273208Y-56892914D02*
X128320827Y-56797676D01*
X128320827Y-56797676D02*
X128416065Y-56702438D01*
X128416065Y-56702438D02*
X128558922Y-56654819D01*
X128558922Y-56654819D02*
X128654160Y-56654819D01*
X128654160Y-56654819D02*
X128797017Y-56702438D01*
X128797017Y-56702438D02*
X128844636Y-56750057D01*
X129558922Y-56654819D02*
X129558922Y-57369104D01*
X129558922Y-57369104D02*
X129511303Y-57511961D01*
X129511303Y-57511961D02*
X129416065Y-57607200D01*
X129416065Y-57607200D02*
X129273208Y-57654819D01*
X129273208Y-57654819D02*
X129177970Y-57654819D01*
X130511303Y-57654819D02*
X130035113Y-57654819D01*
X130035113Y-57654819D02*
X130035113Y-56654819D01*
X131416065Y-57559580D02*
X131368446Y-57607200D01*
X131368446Y-57607200D02*
X131225589Y-57654819D01*
X131225589Y-57654819D02*
X131130351Y-57654819D01*
X131130351Y-57654819D02*
X130987494Y-57607200D01*
X130987494Y-57607200D02*
X130892256Y-57511961D01*
X130892256Y-57511961D02*
X130844637Y-57416723D01*
X130844637Y-57416723D02*
X130797018Y-57226247D01*
X130797018Y-57226247D02*
X130797018Y-57083390D01*
X130797018Y-57083390D02*
X130844637Y-56892914D01*
X130844637Y-56892914D02*
X130892256Y-56797676D01*
X130892256Y-56797676D02*
X130987494Y-56702438D01*
X130987494Y-56702438D02*
X131130351Y-56654819D01*
X131130351Y-56654819D02*
X131225589Y-56654819D01*
X131225589Y-56654819D02*
X131368446Y-56702438D01*
X131368446Y-56702438D02*
X131416065Y-56750057D01*
X132130351Y-56654819D02*
X132130351Y-57369104D01*
X132130351Y-57369104D02*
X132082732Y-57511961D01*
X132082732Y-57511961D02*
X131987494Y-57607200D01*
X131987494Y-57607200D02*
X131844637Y-57654819D01*
X131844637Y-57654819D02*
X131749399Y-57654819D01*
X133082732Y-57654819D02*
X132606542Y-57654819D01*
X132606542Y-57654819D02*
X132606542Y-56654819D01*
X133987494Y-57559580D02*
X133939875Y-57607200D01*
X133939875Y-57607200D02*
X133797018Y-57654819D01*
X133797018Y-57654819D02*
X133701780Y-57654819D01*
X133701780Y-57654819D02*
X133558923Y-57607200D01*
X133558923Y-57607200D02*
X133463685Y-57511961D01*
X133463685Y-57511961D02*
X133416066Y-57416723D01*
X133416066Y-57416723D02*
X133368447Y-57226247D01*
X133368447Y-57226247D02*
X133368447Y-57083390D01*
X133368447Y-57083390D02*
X133416066Y-56892914D01*
X133416066Y-56892914D02*
X133463685Y-56797676D01*
X133463685Y-56797676D02*
X133558923Y-56702438D01*
X133558923Y-56702438D02*
X133701780Y-56654819D01*
X133701780Y-56654819D02*
X133797018Y-56654819D01*
X133797018Y-56654819D02*
X133939875Y-56702438D01*
X133939875Y-56702438D02*
X133987494Y-56750057D01*
X134701780Y-56654819D02*
X134701780Y-57369104D01*
X134701780Y-57369104D02*
X134654161Y-57511961D01*
X134654161Y-57511961D02*
X134558923Y-57607200D01*
X134558923Y-57607200D02*
X134416066Y-57654819D01*
X134416066Y-57654819D02*
X134320828Y-57654819D01*
X135654161Y-57654819D02*
X135177971Y-57654819D01*
X135177971Y-57654819D02*
X135177971Y-56654819D01*
X136558923Y-57559580D02*
X136511304Y-57607200D01*
X136511304Y-57607200D02*
X136368447Y-57654819D01*
X136368447Y-57654819D02*
X136273209Y-57654819D01*
X136273209Y-57654819D02*
X136130352Y-57607200D01*
X136130352Y-57607200D02*
X136035114Y-57511961D01*
X136035114Y-57511961D02*
X135987495Y-57416723D01*
X135987495Y-57416723D02*
X135939876Y-57226247D01*
X135939876Y-57226247D02*
X135939876Y-57083390D01*
X135939876Y-57083390D02*
X135987495Y-56892914D01*
X135987495Y-56892914D02*
X136035114Y-56797676D01*
X136035114Y-56797676D02*
X136130352Y-56702438D01*
X136130352Y-56702438D02*
X136273209Y-56654819D01*
X136273209Y-56654819D02*
X136368447Y-56654819D01*
X136368447Y-56654819D02*
X136511304Y-56702438D01*
X136511304Y-56702438D02*
X136558923Y-56750057D01*
D10*
X143735527Y-72718666D02*
X144497432Y-72718666D01*
X144116479Y-73099619D02*
X144116479Y-72337714D01*
D11*
X133183333Y-89608819D02*
X132850000Y-89132628D01*
X132611905Y-89608819D02*
X132611905Y-88608819D01*
X132611905Y-88608819D02*
X132992857Y-88608819D01*
X132992857Y-88608819D02*
X133088095Y-88656438D01*
X133088095Y-88656438D02*
X133135714Y-88704057D01*
X133135714Y-88704057D02*
X133183333Y-88799295D01*
X133183333Y-88799295D02*
X133183333Y-88942152D01*
X133183333Y-88942152D02*
X133135714Y-89037390D01*
X133135714Y-89037390D02*
X133088095Y-89085009D01*
X133088095Y-89085009D02*
X132992857Y-89132628D01*
X132992857Y-89132628D02*
X132611905Y-89132628D01*
X133516667Y-88608819D02*
X134183333Y-88608819D01*
X134183333Y-88608819D02*
X133754762Y-89608819D01*
X121739819Y-71921666D02*
X121263628Y-72254999D01*
X121739819Y-72493094D02*
X120739819Y-72493094D01*
X120739819Y-72493094D02*
X120739819Y-72112142D01*
X120739819Y-72112142D02*
X120787438Y-72016904D01*
X120787438Y-72016904D02*
X120835057Y-71969285D01*
X120835057Y-71969285D02*
X120930295Y-71921666D01*
X120930295Y-71921666D02*
X121073152Y-71921666D01*
X121073152Y-71921666D02*
X121168390Y-71969285D01*
X121168390Y-71969285D02*
X121216009Y-72016904D01*
X121216009Y-72016904D02*
X121263628Y-72112142D01*
X121263628Y-72112142D02*
X121263628Y-72493094D01*
X120739819Y-71588332D02*
X120739819Y-70969285D01*
X120739819Y-70969285D02*
X121120771Y-71302618D01*
X121120771Y-71302618D02*
X121120771Y-71159761D01*
X121120771Y-71159761D02*
X121168390Y-71064523D01*
X121168390Y-71064523D02*
X121216009Y-71016904D01*
X121216009Y-71016904D02*
X121311247Y-70969285D01*
X121311247Y-70969285D02*
X121549342Y-70969285D01*
X121549342Y-70969285D02*
X121644580Y-71016904D01*
X121644580Y-71016904D02*
X121692200Y-71064523D01*
X121692200Y-71064523D02*
X121739819Y-71159761D01*
X121739819Y-71159761D02*
X121739819Y-71445475D01*
X121739819Y-71445475D02*
X121692200Y-71540713D01*
X121692200Y-71540713D02*
X121644580Y-71588332D01*
X123721905Y-77416819D02*
X123721905Y-76416819D01*
X123721905Y-76416819D02*
X123960000Y-76416819D01*
X123960000Y-76416819D02*
X124102857Y-76464438D01*
X124102857Y-76464438D02*
X124198095Y-76559676D01*
X124198095Y-76559676D02*
X124245714Y-76654914D01*
X124245714Y-76654914D02*
X124293333Y-76845390D01*
X124293333Y-76845390D02*
X124293333Y-76988247D01*
X124293333Y-76988247D02*
X124245714Y-77178723D01*
X124245714Y-77178723D02*
X124198095Y-77273961D01*
X124198095Y-77273961D02*
X124102857Y-77369200D01*
X124102857Y-77369200D02*
X123960000Y-77416819D01*
X123960000Y-77416819D02*
X123721905Y-77416819D01*
X124674286Y-76512057D02*
X124721905Y-76464438D01*
X124721905Y-76464438D02*
X124817143Y-76416819D01*
X124817143Y-76416819D02*
X125055238Y-76416819D01*
X125055238Y-76416819D02*
X125150476Y-76464438D01*
X125150476Y-76464438D02*
X125198095Y-76512057D01*
X125198095Y-76512057D02*
X125245714Y-76607295D01*
X125245714Y-76607295D02*
X125245714Y-76702533D01*
X125245714Y-76702533D02*
X125198095Y-76845390D01*
X125198095Y-76845390D02*
X124626667Y-77416819D01*
X124626667Y-77416819D02*
X125245714Y-77416819D01*
X121173333Y-81988819D02*
X120840000Y-81512628D01*
X120601905Y-81988819D02*
X120601905Y-80988819D01*
X120601905Y-80988819D02*
X120982857Y-80988819D01*
X120982857Y-80988819D02*
X121078095Y-81036438D01*
X121078095Y-81036438D02*
X121125714Y-81084057D01*
X121125714Y-81084057D02*
X121173333Y-81179295D01*
X121173333Y-81179295D02*
X121173333Y-81322152D01*
X121173333Y-81322152D02*
X121125714Y-81417390D01*
X121125714Y-81417390D02*
X121078095Y-81465009D01*
X121078095Y-81465009D02*
X120982857Y-81512628D01*
X120982857Y-81512628D02*
X120601905Y-81512628D01*
X121744762Y-81417390D02*
X121649524Y-81369771D01*
X121649524Y-81369771D02*
X121601905Y-81322152D01*
X121601905Y-81322152D02*
X121554286Y-81226914D01*
X121554286Y-81226914D02*
X121554286Y-81179295D01*
X121554286Y-81179295D02*
X121601905Y-81084057D01*
X121601905Y-81084057D02*
X121649524Y-81036438D01*
X121649524Y-81036438D02*
X121744762Y-80988819D01*
X121744762Y-80988819D02*
X121935238Y-80988819D01*
X121935238Y-80988819D02*
X122030476Y-81036438D01*
X122030476Y-81036438D02*
X122078095Y-81084057D01*
X122078095Y-81084057D02*
X122125714Y-81179295D01*
X122125714Y-81179295D02*
X122125714Y-81226914D01*
X122125714Y-81226914D02*
X122078095Y-81322152D01*
X122078095Y-81322152D02*
X122030476Y-81369771D01*
X122030476Y-81369771D02*
X121935238Y-81417390D01*
X121935238Y-81417390D02*
X121744762Y-81417390D01*
X121744762Y-81417390D02*
X121649524Y-81465009D01*
X121649524Y-81465009D02*
X121601905Y-81512628D01*
X121601905Y-81512628D02*
X121554286Y-81607866D01*
X121554286Y-81607866D02*
X121554286Y-81798342D01*
X121554286Y-81798342D02*
X121601905Y-81893580D01*
X121601905Y-81893580D02*
X121649524Y-81941200D01*
X121649524Y-81941200D02*
X121744762Y-81988819D01*
X121744762Y-81988819D02*
X121935238Y-81988819D01*
X121935238Y-81988819D02*
X122030476Y-81941200D01*
X122030476Y-81941200D02*
X122078095Y-81893580D01*
X122078095Y-81893580D02*
X122125714Y-81798342D01*
X122125714Y-81798342D02*
X122125714Y-81607866D01*
X122125714Y-81607866D02*
X122078095Y-81512628D01*
X122078095Y-81512628D02*
X122030476Y-81465009D01*
X122030476Y-81465009D02*
X121935238Y-81417390D01*
X121644580Y-60745666D02*
X121692200Y-60793285D01*
X121692200Y-60793285D02*
X121739819Y-60936142D01*
X121739819Y-60936142D02*
X121739819Y-61031380D01*
X121739819Y-61031380D02*
X121692200Y-61174237D01*
X121692200Y-61174237D02*
X121596961Y-61269475D01*
X121596961Y-61269475D02*
X121501723Y-61317094D01*
X121501723Y-61317094D02*
X121311247Y-61364713D01*
X121311247Y-61364713D02*
X121168390Y-61364713D01*
X121168390Y-61364713D02*
X120977914Y-61317094D01*
X120977914Y-61317094D02*
X120882676Y-61269475D01*
X120882676Y-61269475D02*
X120787438Y-61174237D01*
X120787438Y-61174237D02*
X120739819Y-61031380D01*
X120739819Y-61031380D02*
X120739819Y-60936142D01*
X120739819Y-60936142D02*
X120787438Y-60793285D01*
X120787438Y-60793285D02*
X120835057Y-60745666D01*
X120739819Y-60412332D02*
X120739819Y-59793285D01*
X120739819Y-59793285D02*
X121120771Y-60126618D01*
X121120771Y-60126618D02*
X121120771Y-59983761D01*
X121120771Y-59983761D02*
X121168390Y-59888523D01*
X121168390Y-59888523D02*
X121216009Y-59840904D01*
X121216009Y-59840904D02*
X121311247Y-59793285D01*
X121311247Y-59793285D02*
X121549342Y-59793285D01*
X121549342Y-59793285D02*
X121644580Y-59840904D01*
X121644580Y-59840904D02*
X121692200Y-59888523D01*
X121692200Y-59888523D02*
X121739819Y-59983761D01*
X121739819Y-59983761D02*
X121739819Y-60269475D01*
X121739819Y-60269475D02*
X121692200Y-60364713D01*
X121692200Y-60364713D02*
X121644580Y-60412332D01*
X142329819Y-71881904D02*
X143139342Y-71881904D01*
X143139342Y-71881904D02*
X143234580Y-71834285D01*
X143234580Y-71834285D02*
X143282200Y-71786666D01*
X143282200Y-71786666D02*
X143329819Y-71691428D01*
X143329819Y-71691428D02*
X143329819Y-71500952D01*
X143329819Y-71500952D02*
X143282200Y-71405714D01*
X143282200Y-71405714D02*
X143234580Y-71358095D01*
X143234580Y-71358095D02*
X143139342Y-71310476D01*
X143139342Y-71310476D02*
X142329819Y-71310476D01*
X143329819Y-70310476D02*
X143329819Y-70881904D01*
X143329819Y-70596190D02*
X142329819Y-70596190D01*
X142329819Y-70596190D02*
X142472676Y-70691428D01*
X142472676Y-70691428D02*
X142567914Y-70786666D01*
X142567914Y-70786666D02*
X142615533Y-70881904D01*
X128809761Y-77385057D02*
X128714523Y-77337438D01*
X128714523Y-77337438D02*
X128619285Y-77242200D01*
X128619285Y-77242200D02*
X128476428Y-77099342D01*
X128476428Y-77099342D02*
X128381190Y-77051723D01*
X128381190Y-77051723D02*
X128285952Y-77051723D01*
X128333571Y-77289819D02*
X128238333Y-77242200D01*
X128238333Y-77242200D02*
X128143095Y-77146961D01*
X128143095Y-77146961D02*
X128095476Y-76956485D01*
X128095476Y-76956485D02*
X128095476Y-76623152D01*
X128095476Y-76623152D02*
X128143095Y-76432676D01*
X128143095Y-76432676D02*
X128238333Y-76337438D01*
X128238333Y-76337438D02*
X128333571Y-76289819D01*
X128333571Y-76289819D02*
X128524047Y-76289819D01*
X128524047Y-76289819D02*
X128619285Y-76337438D01*
X128619285Y-76337438D02*
X128714523Y-76432676D01*
X128714523Y-76432676D02*
X128762142Y-76623152D01*
X128762142Y-76623152D02*
X128762142Y-76956485D01*
X128762142Y-76956485D02*
X128714523Y-77146961D01*
X128714523Y-77146961D02*
X128619285Y-77242200D01*
X128619285Y-77242200D02*
X128524047Y-77289819D01*
X128524047Y-77289819D02*
X128333571Y-77289819D01*
X129143095Y-76385057D02*
X129190714Y-76337438D01*
X129190714Y-76337438D02*
X129285952Y-76289819D01*
X129285952Y-76289819D02*
X129524047Y-76289819D01*
X129524047Y-76289819D02*
X129619285Y-76337438D01*
X129619285Y-76337438D02*
X129666904Y-76385057D01*
X129666904Y-76385057D02*
X129714523Y-76480295D01*
X129714523Y-76480295D02*
X129714523Y-76575533D01*
X129714523Y-76575533D02*
X129666904Y-76718390D01*
X129666904Y-76718390D02*
X129095476Y-77289819D01*
X129095476Y-77289819D02*
X129714523Y-77289819D01*
X142200333Y-82401580D02*
X142152714Y-82449200D01*
X142152714Y-82449200D02*
X142009857Y-82496819D01*
X142009857Y-82496819D02*
X141914619Y-82496819D01*
X141914619Y-82496819D02*
X141771762Y-82449200D01*
X141771762Y-82449200D02*
X141676524Y-82353961D01*
X141676524Y-82353961D02*
X141628905Y-82258723D01*
X141628905Y-82258723D02*
X141581286Y-82068247D01*
X141581286Y-82068247D02*
X141581286Y-81925390D01*
X141581286Y-81925390D02*
X141628905Y-81734914D01*
X141628905Y-81734914D02*
X141676524Y-81639676D01*
X141676524Y-81639676D02*
X141771762Y-81544438D01*
X141771762Y-81544438D02*
X141914619Y-81496819D01*
X141914619Y-81496819D02*
X142009857Y-81496819D01*
X142009857Y-81496819D02*
X142152714Y-81544438D01*
X142152714Y-81544438D02*
X142200333Y-81592057D01*
X143152714Y-82496819D02*
X142581286Y-82496819D01*
X142867000Y-82496819D02*
X142867000Y-81496819D01*
X142867000Y-81496819D02*
X142771762Y-81639676D01*
X142771762Y-81639676D02*
X142676524Y-81734914D01*
X142676524Y-81734914D02*
X142581286Y-81782533D01*
X138938095Y-81369819D02*
X138938095Y-82179342D01*
X138938095Y-82179342D02*
X138985714Y-82274580D01*
X138985714Y-82274580D02*
X139033333Y-82322200D01*
X139033333Y-82322200D02*
X139128571Y-82369819D01*
X139128571Y-82369819D02*
X139319047Y-82369819D01*
X139319047Y-82369819D02*
X139414285Y-82322200D01*
X139414285Y-82322200D02*
X139461904Y-82274580D01*
X139461904Y-82274580D02*
X139509523Y-82179342D01*
X139509523Y-82179342D02*
X139509523Y-81369819D01*
X140414285Y-81703152D02*
X140414285Y-82369819D01*
X140176190Y-81322200D02*
X139938095Y-82036485D01*
X139938095Y-82036485D02*
X140557142Y-82036485D01*
X131550580Y-78906666D02*
X131598200Y-78954285D01*
X131598200Y-78954285D02*
X131645819Y-79097142D01*
X131645819Y-79097142D02*
X131645819Y-79192380D01*
X131645819Y-79192380D02*
X131598200Y-79335237D01*
X131598200Y-79335237D02*
X131502961Y-79430475D01*
X131502961Y-79430475D02*
X131407723Y-79478094D01*
X131407723Y-79478094D02*
X131217247Y-79525713D01*
X131217247Y-79525713D02*
X131074390Y-79525713D01*
X131074390Y-79525713D02*
X130883914Y-79478094D01*
X130883914Y-79478094D02*
X130788676Y-79430475D01*
X130788676Y-79430475D02*
X130693438Y-79335237D01*
X130693438Y-79335237D02*
X130645819Y-79192380D01*
X130645819Y-79192380D02*
X130645819Y-79097142D01*
X130645819Y-79097142D02*
X130693438Y-78954285D01*
X130693438Y-78954285D02*
X130741057Y-78906666D01*
X130741057Y-78525713D02*
X130693438Y-78478094D01*
X130693438Y-78478094D02*
X130645819Y-78382856D01*
X130645819Y-78382856D02*
X130645819Y-78144761D01*
X130645819Y-78144761D02*
X130693438Y-78049523D01*
X130693438Y-78049523D02*
X130741057Y-78001904D01*
X130741057Y-78001904D02*
X130836295Y-77954285D01*
X130836295Y-77954285D02*
X130931533Y-77954285D01*
X130931533Y-77954285D02*
X131074390Y-78001904D01*
X131074390Y-78001904D02*
X131645819Y-78573332D01*
X131645819Y-78573332D02*
X131645819Y-77954285D01*
D12*
X142332419Y-67008333D02*
X143046704Y-67008333D01*
X143046704Y-67008333D02*
X143189561Y-67055952D01*
X143189561Y-67055952D02*
X143284800Y-67151190D01*
X143284800Y-67151190D02*
X143332419Y-67294047D01*
X143332419Y-67294047D02*
X143332419Y-67389285D01*
X142332419Y-66627380D02*
X142332419Y-66008333D01*
X142332419Y-66008333D02*
X142713371Y-66341666D01*
X142713371Y-66341666D02*
X142713371Y-66198809D01*
X142713371Y-66198809D02*
X142760990Y-66103571D01*
X142760990Y-66103571D02*
X142808609Y-66055952D01*
X142808609Y-66055952D02*
X142903847Y-66008333D01*
X142903847Y-66008333D02*
X143141942Y-66008333D01*
X143141942Y-66008333D02*
X143237180Y-66055952D01*
X143237180Y-66055952D02*
X143284800Y-66103571D01*
X143284800Y-66103571D02*
X143332419Y-66198809D01*
X143332419Y-66198809D02*
X143332419Y-66484523D01*
X143332419Y-66484523D02*
X143284800Y-66579761D01*
X143284800Y-66579761D02*
X143237180Y-66627380D01*
D11*
X133254761Y-88180057D02*
X133159523Y-88132438D01*
X133159523Y-88132438D02*
X133064285Y-88037200D01*
X133064285Y-88037200D02*
X132921428Y-87894342D01*
X132921428Y-87894342D02*
X132826190Y-87846723D01*
X132826190Y-87846723D02*
X132730952Y-87846723D01*
X132778571Y-88084819D02*
X132683333Y-88037200D01*
X132683333Y-88037200D02*
X132588095Y-87941961D01*
X132588095Y-87941961D02*
X132540476Y-87751485D01*
X132540476Y-87751485D02*
X132540476Y-87418152D01*
X132540476Y-87418152D02*
X132588095Y-87227676D01*
X132588095Y-87227676D02*
X132683333Y-87132438D01*
X132683333Y-87132438D02*
X132778571Y-87084819D01*
X132778571Y-87084819D02*
X132969047Y-87084819D01*
X132969047Y-87084819D02*
X133064285Y-87132438D01*
X133064285Y-87132438D02*
X133159523Y-87227676D01*
X133159523Y-87227676D02*
X133207142Y-87418152D01*
X133207142Y-87418152D02*
X133207142Y-87751485D01*
X133207142Y-87751485D02*
X133159523Y-87941961D01*
X133159523Y-87941961D02*
X133064285Y-88037200D01*
X133064285Y-88037200D02*
X132969047Y-88084819D01*
X132969047Y-88084819D02*
X132778571Y-88084819D01*
X134159523Y-88084819D02*
X133588095Y-88084819D01*
X133873809Y-88084819D02*
X133873809Y-87084819D01*
X133873809Y-87084819D02*
X133778571Y-87227676D01*
X133778571Y-87227676D02*
X133683333Y-87322914D01*
X133683333Y-87322914D02*
X133588095Y-87370533D01*
X136421905Y-87322819D02*
X136421905Y-86322819D01*
X136421905Y-86322819D02*
X136660000Y-86322819D01*
X136660000Y-86322819D02*
X136802857Y-86370438D01*
X136802857Y-86370438D02*
X136898095Y-86465676D01*
X136898095Y-86465676D02*
X136945714Y-86560914D01*
X136945714Y-86560914D02*
X136993333Y-86751390D01*
X136993333Y-86751390D02*
X136993333Y-86894247D01*
X136993333Y-86894247D02*
X136945714Y-87084723D01*
X136945714Y-87084723D02*
X136898095Y-87179961D01*
X136898095Y-87179961D02*
X136802857Y-87275200D01*
X136802857Y-87275200D02*
X136660000Y-87322819D01*
X136660000Y-87322819D02*
X136421905Y-87322819D01*
X137945714Y-87322819D02*
X137374286Y-87322819D01*
X137660000Y-87322819D02*
X137660000Y-86322819D01*
X137660000Y-86322819D02*
X137564762Y-86465676D01*
X137564762Y-86465676D02*
X137469524Y-86560914D01*
X137469524Y-86560914D02*
X137374286Y-86608533D01*
X121118333Y-77543819D02*
X120785000Y-77067628D01*
X120546905Y-77543819D02*
X120546905Y-76543819D01*
X120546905Y-76543819D02*
X120927857Y-76543819D01*
X120927857Y-76543819D02*
X121023095Y-76591438D01*
X121023095Y-76591438D02*
X121070714Y-76639057D01*
X121070714Y-76639057D02*
X121118333Y-76734295D01*
X121118333Y-76734295D02*
X121118333Y-76877152D01*
X121118333Y-76877152D02*
X121070714Y-76972390D01*
X121070714Y-76972390D02*
X121023095Y-77020009D01*
X121023095Y-77020009D02*
X120927857Y-77067628D01*
X120927857Y-77067628D02*
X120546905Y-77067628D01*
X121975476Y-76543819D02*
X121785000Y-76543819D01*
X121785000Y-76543819D02*
X121689762Y-76591438D01*
X121689762Y-76591438D02*
X121642143Y-76639057D01*
X121642143Y-76639057D02*
X121546905Y-76781914D01*
X121546905Y-76781914D02*
X121499286Y-76972390D01*
X121499286Y-76972390D02*
X121499286Y-77353342D01*
X121499286Y-77353342D02*
X121546905Y-77448580D01*
X121546905Y-77448580D02*
X121594524Y-77496200D01*
X121594524Y-77496200D02*
X121689762Y-77543819D01*
X121689762Y-77543819D02*
X121880238Y-77543819D01*
X121880238Y-77543819D02*
X121975476Y-77496200D01*
X121975476Y-77496200D02*
X122023095Y-77448580D01*
X122023095Y-77448580D02*
X122070714Y-77353342D01*
X122070714Y-77353342D02*
X122070714Y-77115247D01*
X122070714Y-77115247D02*
X122023095Y-77020009D01*
X122023095Y-77020009D02*
X121975476Y-76972390D01*
X121975476Y-76972390D02*
X121880238Y-76924771D01*
X121880238Y-76924771D02*
X121689762Y-76924771D01*
X121689762Y-76924771D02*
X121594524Y-76972390D01*
X121594524Y-76972390D02*
X121546905Y-77020009D01*
X121546905Y-77020009D02*
X121499286Y-77115247D01*
X124166666Y-82004819D02*
X124166666Y-82719104D01*
X124166666Y-82719104D02*
X124119047Y-82861961D01*
X124119047Y-82861961D02*
X124023809Y-82957200D01*
X124023809Y-82957200D02*
X123880952Y-83004819D01*
X123880952Y-83004819D02*
X123785714Y-83004819D01*
X125166666Y-83004819D02*
X124595238Y-83004819D01*
X124880952Y-83004819D02*
X124880952Y-82004819D01*
X124880952Y-82004819D02*
X124785714Y-82147676D01*
X124785714Y-82147676D02*
X124690476Y-82242914D01*
X124690476Y-82242914D02*
X124595238Y-82290533D01*
X121739819Y-67159094D02*
X120739819Y-67159094D01*
X120739819Y-67159094D02*
X120739819Y-66920999D01*
X120739819Y-66920999D02*
X120787438Y-66778142D01*
X120787438Y-66778142D02*
X120882676Y-66682904D01*
X120882676Y-66682904D02*
X120977914Y-66635285D01*
X120977914Y-66635285D02*
X121168390Y-66587666D01*
X121168390Y-66587666D02*
X121311247Y-66587666D01*
X121311247Y-66587666D02*
X121501723Y-66635285D01*
X121501723Y-66635285D02*
X121596961Y-66682904D01*
X121596961Y-66682904D02*
X121692200Y-66778142D01*
X121692200Y-66778142D02*
X121739819Y-66920999D01*
X121739819Y-66920999D02*
X121739819Y-67159094D01*
X121073152Y-65730523D02*
X121739819Y-65730523D01*
X120692200Y-65968618D02*
X121406485Y-66206713D01*
X121406485Y-66206713D02*
X121406485Y-65587666D01*
D13*
X133095276Y-85329500D02*
X133604724Y-85329500D01*
X133095276Y-86374500D02*
X133604724Y-86374500D01*
X121807500Y-68960276D02*
X121807500Y-69469724D01*
X120762500Y-68960276D02*
X120762500Y-69469724D01*
X125390000Y-77865000D02*
X122960000Y-77865000D01*
X125410000Y-77875000D02*
X125410000Y-78875000D01*
X125410000Y-79875000D02*
X125410000Y-80925000D01*
X125410000Y-80925000D02*
X123560000Y-80925000D01*
X120762500Y-79629724D02*
X120762500Y-79120276D01*
X121807500Y-79629724D02*
X121807500Y-79120276D01*
X120775000Y-58158767D02*
X120775000Y-57866233D01*
X121795000Y-58158767D02*
X121795000Y-57866233D01*
X122960000Y-49540000D02*
X122960000Y-55955000D01*
X122960000Y-49540000D02*
X141200000Y-49540000D01*
X122960000Y-55955000D02*
X122580000Y-55955000D01*
X122960000Y-74500000D02*
X122960000Y-75280000D01*
X122960000Y-75280000D02*
X123960000Y-75280000D01*
X141200000Y-49540000D02*
X141200000Y-55955000D01*
X141200000Y-74500000D02*
X141200000Y-75280000D01*
X141200000Y-75280000D02*
X140200000Y-75280000D01*
X129705000Y-77775000D02*
X128105000Y-77775000D01*
X128105000Y-80975000D02*
X130405000Y-80975000D01*
X141305000Y-81225000D02*
X143175000Y-81225000D01*
X143175000Y-81225000D02*
X143175000Y-77140000D01*
X141305000Y-77140000D02*
X141305000Y-81225000D01*
X135295000Y-76610000D02*
X136435000Y-76610000D01*
X136435000Y-76380000D02*
X136435000Y-76610000D01*
X136435000Y-76380000D02*
X139155000Y-76380000D01*
X136435000Y-81100000D02*
X136435000Y-80870000D01*
X139155000Y-76380000D02*
X139155000Y-77690000D01*
X139155000Y-79790000D02*
X139155000Y-81100000D01*
X139155000Y-81100000D02*
X136435000Y-81100000D01*
X131780000Y-81225000D02*
X133650000Y-81225000D01*
X133650000Y-81225000D02*
X133650000Y-77140000D01*
X131780000Y-77140000D02*
X131780000Y-81225000D01*
X134150000Y-81712000D02*
X132550000Y-81712000D01*
X132550000Y-84912000D02*
X134850000Y-84912000D01*
X135650000Y-82890000D02*
X135650000Y-85320000D01*
X135660000Y-82870000D02*
X136660000Y-82870000D01*
X137660000Y-82870000D02*
X138710000Y-82870000D01*
X138710000Y-82870000D02*
X138710000Y-84720000D01*
X121807500Y-74675276D02*
X121807500Y-75184724D01*
X120762500Y-74675276D02*
X120762500Y-75184724D01*
X120670000Y-82045000D02*
X122090000Y-82045000D01*
X120670000Y-93765000D02*
X120670000Y-82045000D01*
X122090000Y-82045000D02*
X122090000Y-86545000D01*
X122090000Y-86545000D02*
X125730000Y-86545000D01*
X122930000Y-82355000D02*
X123530000Y-82355000D01*
X122980000Y-87655000D02*
X122980000Y-93155000D01*
X122980000Y-93155000D02*
X123480000Y-93155000D01*
X123230000Y-82955000D02*
X122930000Y-82355000D01*
X123480000Y-87655000D02*
X122980000Y-87655000D01*
X123480000Y-93155000D02*
X123480000Y-87655000D01*
X123530000Y-82355000D02*
X123230000Y-82955000D01*
X125480000Y-87655000D02*
X125480000Y-93155000D01*
X125480000Y-93155000D02*
X125980000Y-93155000D01*
X125730000Y-93765000D02*
X120670000Y-93765000D01*
X125730000Y-93765000D02*
X130790000Y-93765000D01*
X125980000Y-87655000D02*
X125480000Y-87655000D01*
X125980000Y-93155000D02*
X125980000Y-87655000D01*
X127980000Y-87655000D02*
X127980000Y-93155000D01*
X127980000Y-93155000D02*
X128480000Y-93155000D01*
X128480000Y-87655000D02*
X127980000Y-87655000D01*
X128480000Y-93155000D02*
X128480000Y-87655000D01*
X129370000Y-82045000D02*
X129370000Y-86545000D01*
X129370000Y-86545000D02*
X125730000Y-86545000D01*
X130790000Y-82045000D02*
X129370000Y-82045000D01*
X130790000Y-93765000D02*
X130790000Y-82045000D01*
X122020000Y-62235000D02*
X120550000Y-62235000D01*
X120550000Y-62235000D02*
X120550000Y-64695000D01*
X122020000Y-64695000D02*
X122020000Y-62235000D01*
%LPC*%
D14*
X132437500Y-85852000D03*
X134262500Y-85852000D03*
D15*
X121285000Y-68302500D03*
X121285000Y-70127500D03*
D16*
X148500000Y-72650000D03*
X148500000Y-75190000D03*
D17*
X148000000Y-77730000D03*
X148000000Y-80270000D03*
X148000000Y-82810000D03*
X148000000Y-85350000D03*
D18*
X123150000Y-78425000D03*
X123150000Y-80325000D03*
X125770000Y-79375000D03*
D19*
X121285000Y-80287500D03*
X121285000Y-78462500D03*
D20*
X121285000Y-58875000D03*
X121285000Y-57150000D03*
D21*
X123330000Y-57150000D03*
X123330000Y-58420000D03*
X123330000Y-59690000D03*
X123330000Y-60960000D03*
X123330000Y-62230000D03*
X123330000Y-63500000D03*
X123330000Y-64770000D03*
X123330000Y-66040000D03*
X123330000Y-67310000D03*
X123330000Y-68580000D03*
X123330000Y-69850000D03*
X123330000Y-71120000D03*
X123330000Y-72390000D03*
X123330000Y-73660000D03*
D22*
X126370000Y-74910000D03*
X127640000Y-74910000D03*
X128910000Y-74910000D03*
X130180000Y-74910000D03*
X131450000Y-74910000D03*
X132720000Y-74910000D03*
X133990000Y-74910000D03*
X135260000Y-74910000D03*
X136530000Y-74910000D03*
X137800000Y-74910000D03*
D21*
X140830000Y-73660000D03*
X140830000Y-72390000D03*
X140830000Y-71120000D03*
X140830000Y-69850000D03*
X140830000Y-68580000D03*
X140830000Y-67310000D03*
X140830000Y-66040000D03*
X140830000Y-64770000D03*
X140830000Y-63500000D03*
X140830000Y-62230000D03*
X140830000Y-60960000D03*
X140830000Y-59690000D03*
X140830000Y-58420000D03*
X140830000Y-57150000D03*
D23*
X129180000Y-64170000D03*
X129180000Y-65570000D03*
X129880000Y-63470000D03*
X129880000Y-64870000D03*
X129880000Y-66270000D03*
X130555000Y-64170000D03*
X130555000Y-65570000D03*
D24*
X130580000Y-64870000D03*
D23*
X131280000Y-63470000D03*
X131280000Y-64870000D03*
X131280000Y-66270000D03*
X131980000Y-64170000D03*
X131980000Y-65570000D03*
D25*
X130065000Y-80325000D03*
X130065000Y-79375000D03*
X130065000Y-78425000D03*
X127745000Y-78425000D03*
X127745000Y-79375000D03*
X127745000Y-80325000D03*
D26*
X142240000Y-80177500D03*
X142240000Y-77302500D03*
D27*
X135345000Y-77240000D03*
D28*
X135432500Y-78740000D03*
D27*
X135345000Y-80240000D03*
D26*
X132715000Y-80177500D03*
X132715000Y-77302500D03*
D29*
X142875000Y-58420000D03*
D30*
X142875000Y-59690000D03*
X142875000Y-60960000D03*
X142875000Y-62230000D03*
X142875000Y-63500000D03*
X142875000Y-64770000D03*
D25*
X134510000Y-84262000D03*
X134510000Y-83312000D03*
X134510000Y-82362000D03*
X132190000Y-82362000D03*
X132190000Y-83312000D03*
X132190000Y-84262000D03*
D31*
X136210000Y-85130000D03*
X138110000Y-85130000D03*
X137160000Y-82510000D03*
D15*
X121285000Y-74017500D03*
X121285000Y-75842500D03*
D32*
X123230000Y-84455000D03*
D33*
X125730000Y-84455000D03*
X128230000Y-84455000D03*
D34*
X121285000Y-63020000D03*
X121285000Y-64770000D03*
%LPD*%
M02*
