%TF.GenerationSoftware,KiCad,Pcbnew,7.0.1-0*%
%TF.CreationDate,2023-06-03T17:14:53+02:00*%
%TF.ProjectId,BatMon,4261744d-6f6e-42e6-9b69-6361645f7063,rev?*%
%TF.SameCoordinates,Original*%
%TF.FileFunction,Paste,Bot*%
%TF.FilePolarity,Positive*%
%FSLAX46Y46*%
G04 Gerber Fmt 4.6, Leading zero omitted, Abs format (unit mm)*
G04 Created by KiCad (PCBNEW 7.0.1-0) date 2023-06-03 17:14:53*
%MOMM*%
%LPD*%
G01*
G04 APERTURE LIST*
G04 Aperture macros list*
%AMRoundRect*
0 Rectangle with rounded corners*
0 $1 Rounding radius*
0 $2 $3 $4 $5 $6 $7 $8 $9 X,Y pos of 4 corners*
0 Add a 4 corners polygon primitive as box body*
4,1,4,$2,$3,$4,$5,$6,$7,$8,$9,$2,$3,0*
0 Add four circle primitives for the rounded corners*
1,1,$1+$1,$2,$3*
1,1,$1+$1,$4,$5*
1,1,$1+$1,$6,$7*
1,1,$1+$1,$8,$9*
0 Add four rect primitives between the rounded corners*
20,1,$1+$1,$2,$3,$4,$5,0*
20,1,$1+$1,$4,$5,$6,$7,0*
20,1,$1+$1,$6,$7,$8,$9,0*
20,1,$1+$1,$8,$9,$2,$3,0*%
G04 Aperture macros list end*
%ADD10RoundRect,0.237500X0.237500X-0.250000X0.237500X0.250000X-0.237500X0.250000X-0.237500X-0.250000X0*%
%ADD11RoundRect,0.237500X-0.237500X0.250000X-0.237500X-0.250000X0.237500X-0.250000X0.237500X0.250000X0*%
%ADD12RoundRect,0.150000X0.587500X0.150000X-0.587500X0.150000X-0.587500X-0.150000X0.587500X-0.150000X0*%
%ADD13RoundRect,0.250000X-0.425000X0.537500X-0.425000X-0.537500X0.425000X-0.537500X0.425000X0.537500X0*%
%ADD14RoundRect,0.237500X0.300000X0.237500X-0.300000X0.237500X-0.300000X-0.237500X0.300000X-0.237500X0*%
%ADD15R,2.500000X2.500000*%
%ADD16R,1.600000X1.200000*%
%ADD17RoundRect,0.150000X-0.150000X0.587500X-0.150000X-0.587500X0.150000X-0.587500X0.150000X0.587500X0*%
%ADD18RoundRect,0.237500X-0.300000X-0.237500X0.300000X-0.237500X0.300000X0.237500X-0.300000X0.237500X0*%
%ADD19RoundRect,0.237500X0.250000X0.237500X-0.250000X0.237500X-0.250000X-0.237500X0.250000X-0.237500X0*%
%ADD20RoundRect,0.225000X0.375000X-0.225000X0.375000X0.225000X-0.375000X0.225000X-0.375000X-0.225000X0*%
%ADD21RoundRect,0.125000X0.275000X0.125000X-0.275000X0.125000X-0.275000X-0.125000X0.275000X-0.125000X0*%
%ADD22RoundRect,0.150000X-0.150000X0.825000X-0.150000X-0.825000X0.150000X-0.825000X0.150000X0.825000X0*%
G04 APERTURE END LIST*
D10*
X130810000Y-60348500D03*
X130810000Y-58523500D03*
D11*
X135255000Y-56872500D03*
X135255000Y-58697500D03*
D12*
X128572500Y-60330000D03*
X128572500Y-62230000D03*
X126697500Y-61280000D03*
X128572500Y-56835000D03*
X128572500Y-58735000D03*
X126697500Y-57785000D03*
D13*
X123190000Y-62062500D03*
X123190000Y-64937500D03*
D11*
X138430000Y-68580000D03*
X138430000Y-70405000D03*
D10*
X125095000Y-66952500D03*
X125095000Y-65127500D03*
D14*
X132715000Y-68580000D03*
X130990000Y-68580000D03*
D15*
X138120000Y-74295000D03*
X138120000Y-81295000D03*
X131120000Y-81295000D03*
X131120000Y-74295000D03*
D10*
X125095000Y-70762500D03*
X125095000Y-68937500D03*
D16*
X124590000Y-79335000D03*
X124590000Y-76835000D03*
X124590000Y-74335000D03*
X121790000Y-79335000D03*
X121790000Y-76835000D03*
X121790000Y-74335000D03*
D11*
X134620000Y-68580000D03*
X134620000Y-70405000D03*
D17*
X138115000Y-84787500D03*
X140015000Y-84787500D03*
X139065000Y-86662500D03*
D18*
X140637500Y-79000000D03*
X142362500Y-79000000D03*
D19*
X132715000Y-70485000D03*
X130890000Y-70485000D03*
D20*
X135890000Y-87375000D03*
X135890000Y-84075000D03*
D10*
X133350000Y-86637500D03*
X133350000Y-84812500D03*
D21*
X143500000Y-80480000D03*
X143500000Y-81280000D03*
X143500000Y-82080000D03*
X143500000Y-82880000D03*
X141700000Y-82880000D03*
X141700000Y-82080000D03*
X141700000Y-81280000D03*
X141700000Y-80480000D03*
D10*
X123190000Y-59967500D03*
X123190000Y-58142500D03*
D11*
X136525000Y-68580000D03*
X136525000Y-70405000D03*
D22*
X133985000Y-61025000D03*
X135255000Y-61025000D03*
X136525000Y-61025000D03*
X137795000Y-61025000D03*
X137795000Y-65975000D03*
X136525000Y-65975000D03*
X135255000Y-65975000D03*
X133985000Y-65975000D03*
M02*
