%TF.GenerationSoftware,KiCad,Pcbnew,7.0.1-0*%
%TF.CreationDate,2023-06-03T17:14:53+02:00*%
%TF.ProjectId,BatMon,4261744d-6f6e-42e6-9b69-6361645f7063,rev?*%
%TF.SameCoordinates,Original*%
%TF.FileFunction,Copper,L2,Inr*%
%TF.FilePolarity,Positive*%
%FSLAX46Y46*%
G04 Gerber Fmt 4.6, Leading zero omitted, Abs format (unit mm)*
G04 Created by KiCad (PCBNEW 7.0.1-0) date 2023-06-03 17:14:53*
%MOMM*%
%LPD*%
G01*
G04 APERTURE LIST*
G04 Aperture macros list*
%AMRoundRect*
0 Rectangle with rounded corners*
0 $1 Rounding radius*
0 $2 $3 $4 $5 $6 $7 $8 $9 X,Y pos of 4 corners*
0 Add a 4 corners polygon primitive as box body*
4,1,4,$2,$3,$4,$5,$6,$7,$8,$9,$2,$3,0*
0 Add four circle primitives for the rounded corners*
1,1,$1+$1,$2,$3*
1,1,$1+$1,$4,$5*
1,1,$1+$1,$6,$7*
1,1,$1+$1,$8,$9*
0 Add four rect primitives between the rounded corners*
20,1,$1+$1,$2,$3,$4,$5,0*
20,1,$1+$1,$4,$5,$6,$7,0*
20,1,$1+$1,$6,$7,$8,$9,0*
20,1,$1+$1,$8,$9,$2,$3,0*%
G04 Aperture macros list end*
%TA.AperFunction,ComponentPad*%
%ADD10RoundRect,0.400000X3.100000X-0.400000X3.100000X0.400000X-3.100000X0.400000X-3.100000X-0.400000X0*%
%TD*%
%TA.AperFunction,HeatsinkPad*%
%ADD11C,0.600000*%
%TD*%
%TA.AperFunction,ComponentPad*%
%ADD12R,1.000000X1.000000*%
%TD*%
%TA.AperFunction,ComponentPad*%
%ADD13O,1.000000X1.000000*%
%TD*%
%TA.AperFunction,ComponentPad*%
%ADD14RoundRect,0.250000X-0.600000X-0.725000X0.600000X-0.725000X0.600000X0.725000X-0.600000X0.725000X0*%
%TD*%
%TA.AperFunction,ComponentPad*%
%ADD15O,1.700000X1.950000*%
%TD*%
%TA.AperFunction,ViaPad*%
%ADD16C,0.800000*%
%TD*%
G04 APERTURE END LIST*
D10*
X148500000Y-75190000D03*
D11*
X131980000Y-65570000D03*
X131980000Y-64170000D03*
X131280000Y-66270000D03*
X131280000Y-64870000D03*
X131280000Y-63470000D03*
X130555000Y-65570000D03*
X130555000Y-64170000D03*
X129880000Y-66270000D03*
X129880000Y-64870000D03*
X129880000Y-63470000D03*
X129180000Y-65570000D03*
X129180000Y-64170000D03*
D12*
X142875000Y-58420000D03*
D13*
X142875000Y-59690000D03*
X142875000Y-60960000D03*
X142875000Y-62230000D03*
X142875000Y-63500000D03*
X142875000Y-64770000D03*
D14*
X123230000Y-84455000D03*
D15*
X125730000Y-84455000D03*
X128230000Y-84455000D03*
D16*
X127000000Y-63500000D03*
X133985000Y-63500000D03*
X140335000Y-80645000D03*
X130175000Y-86360000D03*
X137160000Y-71755000D03*
X125095000Y-58420000D03*
X128905000Y-76924500D03*
X130810000Y-76835000D03*
X139065000Y-59690000D03*
X142875000Y-74930000D03*
X139065000Y-63500000D03*
X125095000Y-59690000D03*
X134620000Y-73025000D03*
X135255000Y-63500000D03*
X129540000Y-67945000D03*
X126365000Y-73025000D03*
X137795000Y-63500000D03*
X121285000Y-61595000D03*
X140970000Y-75565000D03*
X142875000Y-57150000D03*
X125095000Y-57150000D03*
X140335000Y-81915000D03*
X125095000Y-63500000D03*
X138430000Y-71755000D03*
X126365000Y-80645000D03*
X130810000Y-83820000D03*
%TA.AperFunction,Conductor*%
G36*
X143438000Y-56016613D02*
G01*
X143483387Y-56062000D01*
X143500000Y-56124000D01*
X143500000Y-56251605D01*
X143484973Y-56310773D01*
X143443535Y-56355600D01*
X143385729Y-56375223D01*
X143325564Y-56364884D01*
X143154802Y-56288855D01*
X142969648Y-56249500D01*
X142969646Y-56249500D01*
X142780354Y-56249500D01*
X142780352Y-56249500D01*
X142595197Y-56288855D01*
X142422269Y-56365848D01*
X142269129Y-56477110D01*
X142142466Y-56617783D01*
X142047820Y-56781715D01*
X141989326Y-56961742D01*
X141969540Y-57149999D01*
X141989326Y-57338257D01*
X142028767Y-57459644D01*
X142033168Y-57518234D01*
X142010103Y-57572272D01*
X141931205Y-57677666D01*
X141880909Y-57812516D01*
X141874500Y-57872130D01*
X141874500Y-58967869D01*
X141880909Y-59027484D01*
X141931204Y-59162332D01*
X141937232Y-59170384D01*
X141961607Y-59235292D01*
X141949360Y-59293474D01*
X141949731Y-59293587D01*
X141948442Y-59297834D01*
X141947326Y-59303139D01*
X141946186Y-59305270D01*
X141888976Y-59493866D01*
X141869659Y-59689999D01*
X141888976Y-59886133D01*
X141946185Y-60074726D01*
X142044847Y-60259309D01*
X142043923Y-60259802D01*
X142062190Y-60296843D01*
X142062190Y-60353157D01*
X142043923Y-60390197D01*
X142044847Y-60390691D01*
X141946185Y-60575273D01*
X141888976Y-60763866D01*
X141869659Y-60959999D01*
X141888976Y-61156133D01*
X141946185Y-61344726D01*
X142044847Y-61529309D01*
X142043923Y-61529802D01*
X142062190Y-61566843D01*
X142062190Y-61623157D01*
X142043923Y-61660197D01*
X142044847Y-61660691D01*
X141946185Y-61845273D01*
X141888976Y-62033866D01*
X141869659Y-62229999D01*
X141888976Y-62426133D01*
X141946185Y-62614726D01*
X142044847Y-62799309D01*
X142043923Y-62799802D01*
X142062190Y-62836843D01*
X142062190Y-62893157D01*
X142043923Y-62930197D01*
X142044847Y-62930691D01*
X141946185Y-63115273D01*
X141888976Y-63303866D01*
X141869659Y-63500000D01*
X141888976Y-63696133D01*
X141946185Y-63884726D01*
X142044847Y-64069309D01*
X142044025Y-64069747D01*
X142062512Y-64107231D01*
X142062514Y-64163546D01*
X142044311Y-64200460D01*
X142045264Y-64200970D01*
X141946649Y-64385465D01*
X141905839Y-64519998D01*
X141905840Y-64520000D01*
X143001000Y-64520000D01*
X143063000Y-64536613D01*
X143108387Y-64582000D01*
X143125000Y-64644000D01*
X143125000Y-65739160D01*
X143125001Y-65739160D01*
X143259534Y-65698350D01*
X143317547Y-65667342D01*
X143379043Y-65652737D01*
X143439749Y-65670342D01*
X143483891Y-65715581D01*
X143500000Y-65776700D01*
X143500000Y-71000000D01*
X151376484Y-71030738D01*
X151438279Y-71047512D01*
X151483468Y-71092877D01*
X151500000Y-71154737D01*
X151500000Y-73766000D01*
X151483387Y-73828000D01*
X151438000Y-73873387D01*
X151376000Y-73890000D01*
X148750000Y-73890000D01*
X148750000Y-76490000D01*
X151376000Y-76490000D01*
X151438000Y-76506613D01*
X151483387Y-76552000D01*
X151500000Y-76614000D01*
X151500000Y-86876000D01*
X151483387Y-86938000D01*
X151438000Y-86983387D01*
X151376000Y-87000000D01*
X143500000Y-87000000D01*
X143500000Y-89876000D01*
X143483387Y-89938000D01*
X143438000Y-89983387D01*
X143376000Y-90000000D01*
X120624000Y-90000000D01*
X120562000Y-89983387D01*
X120516613Y-89938000D01*
X120500000Y-89876000D01*
X120500000Y-85230008D01*
X121879500Y-85230008D01*
X121890000Y-85332796D01*
X121945186Y-85499334D01*
X122037288Y-85648657D01*
X122161342Y-85772711D01*
X122161344Y-85772712D01*
X122310666Y-85864814D01*
X122422016Y-85901712D01*
X122477202Y-85919999D01*
X122487702Y-85921071D01*
X122579991Y-85930500D01*
X123880008Y-85930499D01*
X123982797Y-85919999D01*
X124149334Y-85864814D01*
X124298656Y-85772712D01*
X124422712Y-85648656D01*
X124514814Y-85499334D01*
X124514814Y-85499331D01*
X124518178Y-85493879D01*
X124557091Y-85454395D01*
X124609321Y-85435814D01*
X124664428Y-85441849D01*
X124711398Y-85471294D01*
X124858599Y-85618495D01*
X125052170Y-85754035D01*
X125266337Y-85853903D01*
X125494592Y-85915063D01*
X125730000Y-85935659D01*
X125965408Y-85915063D01*
X126193663Y-85853903D01*
X126407829Y-85754035D01*
X126601401Y-85618495D01*
X126768495Y-85451401D01*
X126878426Y-85294401D01*
X126922743Y-85255537D01*
X126980000Y-85241526D01*
X127037257Y-85255537D01*
X127081573Y-85294401D01*
X127191505Y-85451401D01*
X127358599Y-85618495D01*
X127552170Y-85754035D01*
X127766337Y-85853903D01*
X127994592Y-85915063D01*
X128230000Y-85935659D01*
X128465408Y-85915063D01*
X128693663Y-85853903D01*
X128907829Y-85754035D01*
X129101401Y-85618495D01*
X129268495Y-85451401D01*
X129339497Y-85349999D01*
X145194434Y-85349999D01*
X145214631Y-85529251D01*
X145214631Y-85529253D01*
X145214632Y-85529255D01*
X145274211Y-85699522D01*
X145274212Y-85699523D01*
X145370185Y-85852264D01*
X145497735Y-85979814D01*
X145497737Y-85979815D01*
X145497738Y-85979816D01*
X145650478Y-86075789D01*
X145820745Y-86135368D01*
X145887895Y-86142933D01*
X145955043Y-86150500D01*
X145955046Y-86150500D01*
X146044954Y-86150500D01*
X146044957Y-86150500D01*
X146102511Y-86144014D01*
X146179255Y-86135368D01*
X146349522Y-86075789D01*
X146502262Y-85979816D01*
X146629816Y-85852262D01*
X146725789Y-85699522D01*
X146785368Y-85529255D01*
X146805565Y-85350000D01*
X146785368Y-85170745D01*
X146725789Y-85000478D01*
X146629816Y-84847738D01*
X146629815Y-84847737D01*
X146629814Y-84847735D01*
X146502264Y-84720185D01*
X146439867Y-84680979D01*
X146349522Y-84624211D01*
X146179255Y-84564632D01*
X146179253Y-84564631D01*
X146179251Y-84564631D01*
X146044957Y-84549500D01*
X146044954Y-84549500D01*
X145955046Y-84549500D01*
X145955043Y-84549500D01*
X145820748Y-84564631D01*
X145820745Y-84564631D01*
X145820745Y-84564632D01*
X145650478Y-84624211D01*
X145650476Y-84624211D01*
X145650476Y-84624212D01*
X145497735Y-84720185D01*
X145370185Y-84847735D01*
X145274212Y-85000476D01*
X145214631Y-85170748D01*
X145194434Y-85349999D01*
X129339497Y-85349999D01*
X129404035Y-85257829D01*
X129503903Y-85043663D01*
X129565063Y-84815408D01*
X129580500Y-84638966D01*
X129580500Y-84271034D01*
X129565063Y-84094592D01*
X129503903Y-83866337D01*
X129482295Y-83819999D01*
X129904540Y-83819999D01*
X129924326Y-84008257D01*
X129982820Y-84188284D01*
X130077466Y-84352216D01*
X130204129Y-84492889D01*
X130357269Y-84604151D01*
X130530197Y-84681144D01*
X130715352Y-84720500D01*
X130715354Y-84720500D01*
X130904646Y-84720500D01*
X130904648Y-84720500D01*
X131028083Y-84694262D01*
X131089803Y-84681144D01*
X131262730Y-84604151D01*
X131262730Y-84604150D01*
X131415870Y-84492889D01*
X131542533Y-84352216D01*
X131637179Y-84188284D01*
X131637178Y-84188284D01*
X131695674Y-84008256D01*
X131715460Y-83820000D01*
X131695674Y-83631744D01*
X131664496Y-83535789D01*
X131637179Y-83451715D01*
X131542533Y-83287783D01*
X131415870Y-83147110D01*
X131262730Y-83035848D01*
X131089802Y-82958855D01*
X130904648Y-82919500D01*
X130904646Y-82919500D01*
X130715354Y-82919500D01*
X130715352Y-82919500D01*
X130530197Y-82958855D01*
X130357269Y-83035848D01*
X130204129Y-83147110D01*
X130077466Y-83287783D01*
X129982820Y-83451715D01*
X129924326Y-83631742D01*
X129904540Y-83819999D01*
X129482295Y-83819999D01*
X129404035Y-83652171D01*
X129268495Y-83458599D01*
X129101401Y-83291505D01*
X128907830Y-83155965D01*
X128693663Y-83056097D01*
X128618092Y-83035848D01*
X128465407Y-82994936D01*
X128230000Y-82974340D01*
X127994592Y-82994936D01*
X127766336Y-83056097D01*
X127552170Y-83155965D01*
X127358598Y-83291505D01*
X127191505Y-83458598D01*
X127081575Y-83615596D01*
X127037257Y-83654462D01*
X126980000Y-83668473D01*
X126922743Y-83654462D01*
X126878425Y-83615596D01*
X126768494Y-83458598D01*
X126601404Y-83291508D01*
X126601401Y-83291505D01*
X126407830Y-83155965D01*
X126193663Y-83056097D01*
X126118092Y-83035848D01*
X125965407Y-82994936D01*
X125730000Y-82974340D01*
X125494592Y-82994936D01*
X125266336Y-83056097D01*
X125052170Y-83155965D01*
X124858601Y-83291503D01*
X124711398Y-83438706D01*
X124664428Y-83468151D01*
X124609321Y-83474185D01*
X124557091Y-83455604D01*
X124518178Y-83416120D01*
X124422711Y-83261342D01*
X124298657Y-83137288D01*
X124149334Y-83045186D01*
X123982797Y-82990000D01*
X123880009Y-82979500D01*
X122579991Y-82979500D01*
X122477203Y-82990000D01*
X122310665Y-83045186D01*
X122161342Y-83137288D01*
X122037288Y-83261342D01*
X121945186Y-83410665D01*
X121890000Y-83577202D01*
X121879500Y-83679990D01*
X121879500Y-85230008D01*
X120500000Y-85230008D01*
X120500000Y-81915000D01*
X139429540Y-81915000D01*
X139449326Y-82103257D01*
X139507820Y-82283284D01*
X139602466Y-82447216D01*
X139729129Y-82587889D01*
X139882269Y-82699151D01*
X140055197Y-82776144D01*
X140240352Y-82815500D01*
X140240354Y-82815500D01*
X140429646Y-82815500D01*
X140429648Y-82815500D01*
X140455527Y-82809999D01*
X145194434Y-82809999D01*
X145214631Y-82989251D01*
X145214631Y-82989253D01*
X145214632Y-82989255D01*
X145274211Y-83159522D01*
X145274212Y-83159523D01*
X145370185Y-83312264D01*
X145497735Y-83439814D01*
X145497737Y-83439815D01*
X145497738Y-83439816D01*
X145650478Y-83535789D01*
X145820745Y-83595368D01*
X145887895Y-83602934D01*
X145955043Y-83610500D01*
X145955046Y-83610500D01*
X146044954Y-83610500D01*
X146044957Y-83610500D01*
X146102511Y-83604014D01*
X146179255Y-83595368D01*
X146349522Y-83535789D01*
X146502262Y-83439816D01*
X146629816Y-83312262D01*
X146725789Y-83159522D01*
X146785368Y-82989255D01*
X146805565Y-82810000D01*
X146785368Y-82630745D01*
X146725789Y-82460478D01*
X146629816Y-82307738D01*
X146629815Y-82307737D01*
X146629814Y-82307735D01*
X146502264Y-82180185D01*
X146439867Y-82140978D01*
X146349522Y-82084211D01*
X146179255Y-82024632D01*
X146179253Y-82024631D01*
X146179251Y-82024631D01*
X146044957Y-82009500D01*
X146044954Y-82009500D01*
X145955046Y-82009500D01*
X145955043Y-82009500D01*
X145820748Y-82024631D01*
X145820745Y-82024631D01*
X145820745Y-82024632D01*
X145650478Y-82084211D01*
X145650476Y-82084211D01*
X145650476Y-82084212D01*
X145497735Y-82180185D01*
X145370185Y-82307735D01*
X145274212Y-82460476D01*
X145214631Y-82630748D01*
X145194434Y-82809999D01*
X140455527Y-82809999D01*
X140553083Y-82789262D01*
X140614803Y-82776144D01*
X140787730Y-82699151D01*
X140940871Y-82587888D01*
X141067533Y-82447216D01*
X141162179Y-82283284D01*
X141220674Y-82103256D01*
X141240460Y-81915000D01*
X141220674Y-81726744D01*
X141162179Y-81546716D01*
X141162179Y-81546715D01*
X141067533Y-81382783D01*
X140940870Y-81242110D01*
X140787730Y-81130848D01*
X140614802Y-81053855D01*
X140429648Y-81014500D01*
X140429646Y-81014500D01*
X140240354Y-81014500D01*
X140240352Y-81014500D01*
X140055197Y-81053855D01*
X139882269Y-81130848D01*
X139729129Y-81242110D01*
X139602466Y-81382783D01*
X139507820Y-81546715D01*
X139449326Y-81726742D01*
X139429540Y-81915000D01*
X120500000Y-81915000D01*
X120500000Y-80645000D01*
X125459540Y-80645000D01*
X125479326Y-80833257D01*
X125537820Y-81013284D01*
X125632466Y-81177216D01*
X125759129Y-81317889D01*
X125912269Y-81429151D01*
X126085197Y-81506144D01*
X126270352Y-81545500D01*
X126270354Y-81545500D01*
X126459646Y-81545500D01*
X126459648Y-81545500D01*
X126583084Y-81519262D01*
X126644803Y-81506144D01*
X126817730Y-81429151D01*
X126970871Y-81317888D01*
X127097533Y-81177216D01*
X127192179Y-81013284D01*
X127250674Y-80833256D01*
X127270460Y-80645000D01*
X127250674Y-80456744D01*
X127192179Y-80276716D01*
X127192179Y-80276715D01*
X127188302Y-80269999D01*
X145194434Y-80269999D01*
X145214631Y-80449251D01*
X145214631Y-80449253D01*
X145214632Y-80449255D01*
X145274211Y-80619522D01*
X145290220Y-80645000D01*
X145370185Y-80772264D01*
X145497735Y-80899814D01*
X145497737Y-80899815D01*
X145497738Y-80899816D01*
X145650478Y-80995789D01*
X145820745Y-81055368D01*
X145887895Y-81062933D01*
X145955043Y-81070500D01*
X145955046Y-81070500D01*
X146044954Y-81070500D01*
X146044957Y-81070500D01*
X146102511Y-81064014D01*
X146179255Y-81055368D01*
X146349522Y-80995789D01*
X146502262Y-80899816D01*
X146629816Y-80772262D01*
X146725789Y-80619522D01*
X146785368Y-80449255D01*
X146805565Y-80270000D01*
X146785368Y-80090745D01*
X146725789Y-79920478D01*
X146629816Y-79767738D01*
X146629815Y-79767737D01*
X146629814Y-79767735D01*
X146502264Y-79640185D01*
X146439867Y-79600979D01*
X146349522Y-79544211D01*
X146179255Y-79484632D01*
X146179253Y-79484631D01*
X146179251Y-79484631D01*
X146044957Y-79469500D01*
X146044954Y-79469500D01*
X145955046Y-79469500D01*
X145955043Y-79469500D01*
X145820748Y-79484631D01*
X145820745Y-79484631D01*
X145820745Y-79484632D01*
X145650478Y-79544211D01*
X145650476Y-79544211D01*
X145650476Y-79544212D01*
X145497735Y-79640185D01*
X145370185Y-79767735D01*
X145360056Y-79783856D01*
X145274211Y-79920478D01*
X145214632Y-80090745D01*
X145214631Y-80090748D01*
X145194434Y-80269999D01*
X127188302Y-80269999D01*
X127097533Y-80112783D01*
X126970870Y-79972110D01*
X126817730Y-79860848D01*
X126644802Y-79783855D01*
X126459648Y-79744500D01*
X126459646Y-79744500D01*
X126270354Y-79744500D01*
X126270352Y-79744500D01*
X126085197Y-79783855D01*
X125912269Y-79860848D01*
X125759129Y-79972110D01*
X125632466Y-80112783D01*
X125537820Y-80276715D01*
X125479326Y-80456742D01*
X125459540Y-80645000D01*
X120500000Y-80645000D01*
X120500000Y-76924500D01*
X127999540Y-76924500D01*
X128019326Y-77112757D01*
X128077820Y-77292784D01*
X128172466Y-77456716D01*
X128299129Y-77597389D01*
X128452269Y-77708651D01*
X128625197Y-77785644D01*
X128810352Y-77825000D01*
X128810354Y-77825000D01*
X128999646Y-77825000D01*
X128999648Y-77825000D01*
X129123084Y-77798762D01*
X129184803Y-77785644D01*
X129357730Y-77708651D01*
X129357729Y-77708651D01*
X129510870Y-77597389D01*
X129637533Y-77456716D01*
X129732177Y-77292787D01*
X129732179Y-77292784D01*
X129754984Y-77222596D01*
X129784317Y-77174162D01*
X129832133Y-77143817D01*
X129888454Y-77137897D01*
X129941533Y-77157637D01*
X129980300Y-77198919D01*
X130077466Y-77367215D01*
X130204129Y-77507889D01*
X130357269Y-77619151D01*
X130530197Y-77696144D01*
X130715352Y-77735500D01*
X130715354Y-77735500D01*
X130904646Y-77735500D01*
X130904648Y-77735500D01*
X130930523Y-77730000D01*
X145194434Y-77730000D01*
X145214631Y-77909251D01*
X145214631Y-77909253D01*
X145214632Y-77909255D01*
X145274211Y-78079522D01*
X145274212Y-78079523D01*
X145370185Y-78232264D01*
X145497735Y-78359814D01*
X145497737Y-78359815D01*
X145497738Y-78359816D01*
X145650478Y-78455789D01*
X145820745Y-78515368D01*
X145887895Y-78522933D01*
X145955043Y-78530500D01*
X145955046Y-78530500D01*
X146044954Y-78530500D01*
X146044957Y-78530500D01*
X146102511Y-78524014D01*
X146179255Y-78515368D01*
X146349522Y-78455789D01*
X146502262Y-78359816D01*
X146629816Y-78232262D01*
X146725789Y-78079522D01*
X146785368Y-77909255D01*
X146805565Y-77730000D01*
X146785368Y-77550745D01*
X146725789Y-77380478D01*
X146629816Y-77227738D01*
X146629815Y-77227737D01*
X146629814Y-77227735D01*
X146502264Y-77100185D01*
X146439867Y-77060978D01*
X146349522Y-77004211D01*
X146179255Y-76944632D01*
X146179253Y-76944631D01*
X146179251Y-76944631D01*
X146044957Y-76929500D01*
X146044954Y-76929500D01*
X145955046Y-76929500D01*
X145955043Y-76929500D01*
X145820748Y-76944631D01*
X145820745Y-76944631D01*
X145820745Y-76944632D01*
X145650478Y-77004211D01*
X145650476Y-77004211D01*
X145650476Y-77004212D01*
X145497735Y-77100185D01*
X145370185Y-77227735D01*
X145274212Y-77380476D01*
X145214631Y-77550748D01*
X145194434Y-77730000D01*
X130930523Y-77730000D01*
X131030962Y-77708651D01*
X131089803Y-77696144D01*
X131262730Y-77619151D01*
X131415871Y-77507888D01*
X131542533Y-77367216D01*
X131637179Y-77203284D01*
X131695674Y-77023256D01*
X131715460Y-76835000D01*
X131695674Y-76646744D01*
X131659983Y-76536898D01*
X131637179Y-76466715D01*
X131542533Y-76302783D01*
X131415870Y-76162110D01*
X131262730Y-76050848D01*
X131089802Y-75973855D01*
X130904648Y-75934500D01*
X130904646Y-75934500D01*
X130715354Y-75934500D01*
X130715352Y-75934500D01*
X130530197Y-75973855D01*
X130357269Y-76050848D01*
X130204129Y-76162110D01*
X130077466Y-76302783D01*
X129982820Y-76466715D01*
X129960017Y-76536898D01*
X129930681Y-76585338D01*
X129882865Y-76615683D01*
X129826545Y-76621602D01*
X129773465Y-76601862D01*
X129734699Y-76560580D01*
X129637533Y-76392283D01*
X129510870Y-76251610D01*
X129357730Y-76140348D01*
X129184802Y-76063355D01*
X128999648Y-76024000D01*
X128999646Y-76024000D01*
X128810354Y-76024000D01*
X128810352Y-76024000D01*
X128625197Y-76063355D01*
X128452269Y-76140348D01*
X128299129Y-76251610D01*
X128172466Y-76392283D01*
X128077820Y-76556215D01*
X128019326Y-76736242D01*
X127999540Y-76924500D01*
X120500000Y-76924500D01*
X120500000Y-75564999D01*
X140064540Y-75564999D01*
X140084326Y-75753257D01*
X140142820Y-75933284D01*
X140237466Y-76097216D01*
X140364129Y-76237889D01*
X140517269Y-76349151D01*
X140690197Y-76426144D01*
X140875352Y-76465500D01*
X140875354Y-76465500D01*
X141064646Y-76465500D01*
X141064648Y-76465500D01*
X141208844Y-76434850D01*
X141249803Y-76426144D01*
X141422730Y-76349151D01*
X141486550Y-76302783D01*
X141575870Y-76237889D01*
X141702533Y-76097216D01*
X141797179Y-75933284D01*
X141803345Y-75914306D01*
X141855674Y-75753256D01*
X141875460Y-75565000D01*
X141863805Y-75454115D01*
X141874927Y-75388363D01*
X141918505Y-75337877D01*
X141981933Y-75317268D01*
X142046863Y-75332497D01*
X142094513Y-75379159D01*
X142142466Y-75462215D01*
X142269129Y-75602889D01*
X142422269Y-75714151D01*
X142595197Y-75791144D01*
X142780352Y-75830500D01*
X142780354Y-75830500D01*
X142969646Y-75830500D01*
X142969648Y-75830500D01*
X143093084Y-75804262D01*
X143154803Y-75791144D01*
X143327730Y-75714151D01*
X143327729Y-75714151D01*
X143480870Y-75602889D01*
X143514987Y-75564999D01*
X143607533Y-75462216D01*
X143620359Y-75440000D01*
X144500000Y-75440000D01*
X144500000Y-75652979D01*
X144506185Y-75731567D01*
X144555149Y-75914306D01*
X144641039Y-76082875D01*
X144760099Y-76229900D01*
X144907124Y-76348960D01*
X145075693Y-76434850D01*
X145258432Y-76483814D01*
X145337021Y-76490000D01*
X148250000Y-76490000D01*
X148250000Y-75440000D01*
X144500000Y-75440000D01*
X143620359Y-75440000D01*
X143702179Y-75298284D01*
X143760674Y-75118256D01*
X143779409Y-74940000D01*
X144500000Y-74940000D01*
X148250000Y-74940000D01*
X148250000Y-73890000D01*
X145337021Y-73890000D01*
X145258432Y-73896185D01*
X145075693Y-73945149D01*
X144907124Y-74031039D01*
X144760099Y-74150099D01*
X144641039Y-74297124D01*
X144555149Y-74465693D01*
X144506185Y-74648432D01*
X144500000Y-74727021D01*
X144500000Y-74940000D01*
X143779409Y-74940000D01*
X143780460Y-74930000D01*
X143760674Y-74741744D01*
X143702179Y-74561716D01*
X143702179Y-74561715D01*
X143607533Y-74397783D01*
X143480870Y-74257110D01*
X143327730Y-74145848D01*
X143154802Y-74068855D01*
X142969648Y-74029500D01*
X142969646Y-74029500D01*
X142780354Y-74029500D01*
X142780352Y-74029500D01*
X142595197Y-74068855D01*
X142422269Y-74145848D01*
X142269129Y-74257110D01*
X142142466Y-74397783D01*
X142047820Y-74561715D01*
X141989326Y-74741742D01*
X141969540Y-74930000D01*
X141981194Y-75040879D01*
X141970072Y-75106637D01*
X141926494Y-75157122D01*
X141863066Y-75177731D01*
X141798136Y-75162502D01*
X141750486Y-75115840D01*
X141702533Y-75032784D01*
X141575870Y-74892110D01*
X141422730Y-74780848D01*
X141249802Y-74703855D01*
X141064648Y-74664500D01*
X141064646Y-74664500D01*
X140875354Y-74664500D01*
X140875352Y-74664500D01*
X140690197Y-74703855D01*
X140517269Y-74780848D01*
X140364129Y-74892110D01*
X140237466Y-75032783D01*
X140142820Y-75196715D01*
X140084326Y-75376742D01*
X140064540Y-75564999D01*
X120500000Y-75564999D01*
X120500000Y-73024999D01*
X125459540Y-73024999D01*
X125479326Y-73213257D01*
X125537820Y-73393284D01*
X125632466Y-73557216D01*
X125759129Y-73697889D01*
X125912269Y-73809151D01*
X126085197Y-73886144D01*
X126270352Y-73925500D01*
X126270354Y-73925500D01*
X126459646Y-73925500D01*
X126459648Y-73925500D01*
X126597563Y-73896185D01*
X126644803Y-73886144D01*
X126817730Y-73809151D01*
X126817729Y-73809151D01*
X126970870Y-73697889D01*
X127097533Y-73557216D01*
X127192179Y-73393284D01*
X127192178Y-73393284D01*
X127250674Y-73213256D01*
X127270460Y-73025000D01*
X133714540Y-73025000D01*
X133734326Y-73213257D01*
X133792820Y-73393284D01*
X133887466Y-73557216D01*
X134014129Y-73697889D01*
X134167269Y-73809151D01*
X134340197Y-73886144D01*
X134525352Y-73925500D01*
X134525354Y-73925500D01*
X134714646Y-73925500D01*
X134714648Y-73925500D01*
X134852563Y-73896185D01*
X134899803Y-73886144D01*
X135072730Y-73809151D01*
X135072729Y-73809151D01*
X135225870Y-73697889D01*
X135352533Y-73557216D01*
X135447179Y-73393284D01*
X135447178Y-73393284D01*
X135505674Y-73213256D01*
X135525460Y-73025000D01*
X135505674Y-72836744D01*
X135447179Y-72656716D01*
X135447179Y-72656715D01*
X135352533Y-72492783D01*
X135225870Y-72352110D01*
X135072730Y-72240848D01*
X134899802Y-72163855D01*
X134714648Y-72124500D01*
X134714646Y-72124500D01*
X134525354Y-72124500D01*
X134525352Y-72124500D01*
X134340197Y-72163855D01*
X134167269Y-72240848D01*
X134014129Y-72352110D01*
X133887466Y-72492783D01*
X133792820Y-72656715D01*
X133734326Y-72836742D01*
X133714540Y-73025000D01*
X127270460Y-73025000D01*
X127250674Y-72836744D01*
X127192179Y-72656716D01*
X127192179Y-72656715D01*
X127097533Y-72492783D01*
X126970870Y-72352110D01*
X126817730Y-72240848D01*
X126644802Y-72163855D01*
X126459648Y-72124500D01*
X126459646Y-72124500D01*
X126270354Y-72124500D01*
X126270352Y-72124500D01*
X126085197Y-72163855D01*
X125912269Y-72240848D01*
X125759129Y-72352110D01*
X125632466Y-72492783D01*
X125537820Y-72656715D01*
X125479326Y-72836742D01*
X125459540Y-73024999D01*
X120500000Y-73024999D01*
X120500000Y-71755000D01*
X137524540Y-71755000D01*
X137544326Y-71943257D01*
X137602820Y-72123284D01*
X137697466Y-72287216D01*
X137824129Y-72427889D01*
X137977269Y-72539151D01*
X138150197Y-72616144D01*
X138335352Y-72655500D01*
X138335354Y-72655500D01*
X138524646Y-72655500D01*
X138524648Y-72655500D01*
X138550523Y-72650000D01*
X145194434Y-72650000D01*
X145214631Y-72829251D01*
X145214631Y-72829253D01*
X145214632Y-72829255D01*
X145274211Y-72999522D01*
X145290220Y-73025000D01*
X145370185Y-73152264D01*
X145497735Y-73279814D01*
X145497737Y-73279815D01*
X145497738Y-73279816D01*
X145650478Y-73375789D01*
X145820745Y-73435368D01*
X145887895Y-73442933D01*
X145955043Y-73450500D01*
X145955046Y-73450500D01*
X146044954Y-73450500D01*
X146044957Y-73450500D01*
X146102511Y-73444014D01*
X146179255Y-73435368D01*
X146349522Y-73375789D01*
X146502262Y-73279816D01*
X146629816Y-73152262D01*
X146725789Y-72999522D01*
X146785368Y-72829255D01*
X146805565Y-72650000D01*
X146785368Y-72470745D01*
X146725789Y-72300478D01*
X146629816Y-72147738D01*
X146629815Y-72147737D01*
X146629814Y-72147735D01*
X146502264Y-72020185D01*
X146439867Y-71980978D01*
X146349522Y-71924211D01*
X146179255Y-71864632D01*
X146179253Y-71864631D01*
X146179251Y-71864631D01*
X146044957Y-71849500D01*
X146044954Y-71849500D01*
X145955046Y-71849500D01*
X145955043Y-71849500D01*
X145820748Y-71864631D01*
X145820745Y-71864631D01*
X145820745Y-71864632D01*
X145650478Y-71924211D01*
X145650476Y-71924211D01*
X145650476Y-71924212D01*
X145497735Y-72020185D01*
X145370185Y-72147735D01*
X145360056Y-72163856D01*
X145274211Y-72300478D01*
X145229628Y-72427888D01*
X145214631Y-72470748D01*
X145194434Y-72650000D01*
X138550523Y-72650000D01*
X138648084Y-72629262D01*
X138709803Y-72616144D01*
X138882730Y-72539151D01*
X139035871Y-72427888D01*
X139162533Y-72287216D01*
X139257179Y-72123284D01*
X139315674Y-71943256D01*
X139335460Y-71755000D01*
X139315674Y-71566744D01*
X139257179Y-71386716D01*
X139257179Y-71386715D01*
X139162533Y-71222783D01*
X139035870Y-71082110D01*
X138882730Y-70970848D01*
X138709802Y-70893855D01*
X138524648Y-70854500D01*
X138524646Y-70854500D01*
X138335354Y-70854500D01*
X138335352Y-70854500D01*
X138150197Y-70893855D01*
X137977269Y-70970848D01*
X137824129Y-71082110D01*
X137697466Y-71222783D01*
X137602820Y-71386715D01*
X137544326Y-71566742D01*
X137524540Y-71755000D01*
X120500000Y-71755000D01*
X120500000Y-65570000D01*
X128374434Y-65570000D01*
X128394631Y-65749251D01*
X128394631Y-65749253D01*
X128394632Y-65749255D01*
X128454211Y-65919522D01*
X128454212Y-65919523D01*
X128550185Y-66072264D01*
X128677735Y-66199814D01*
X128677737Y-66199815D01*
X128677738Y-66199816D01*
X128830478Y-66295789D01*
X129000745Y-66355368D01*
X129000747Y-66355368D01*
X129013930Y-66359981D01*
X129060657Y-66389342D01*
X129090017Y-66436068D01*
X129154209Y-66619519D01*
X129250185Y-66772264D01*
X129347422Y-66869501D01*
X129379926Y-66926659D01*
X129378635Y-66992399D01*
X129343913Y-67048237D01*
X129285523Y-67078472D01*
X129260196Y-67083855D01*
X129087269Y-67160848D01*
X128934129Y-67272110D01*
X128807466Y-67412783D01*
X128712820Y-67576715D01*
X128654326Y-67756742D01*
X128634540Y-67945000D01*
X128654326Y-68133257D01*
X128712820Y-68313284D01*
X128807466Y-68477216D01*
X128934129Y-68617889D01*
X129087269Y-68729151D01*
X129260197Y-68806144D01*
X129445352Y-68845500D01*
X129445354Y-68845500D01*
X129634646Y-68845500D01*
X129634648Y-68845500D01*
X129758084Y-68819262D01*
X129819803Y-68806144D01*
X129992730Y-68729151D01*
X130145871Y-68617888D01*
X130272533Y-68477216D01*
X130367179Y-68313284D01*
X130425674Y-68133256D01*
X130445460Y-67945000D01*
X130425674Y-67756744D01*
X130367179Y-67576716D01*
X130367179Y-67576715D01*
X130272533Y-67412783D01*
X130145871Y-67272112D01*
X130107907Y-67244529D01*
X130066500Y-67192305D01*
X130058110Y-67126187D01*
X130085161Y-67065277D01*
X130139836Y-67027171D01*
X130229522Y-66995789D01*
X130382262Y-66899816D01*
X130412577Y-66869501D01*
X130492319Y-66789760D01*
X130547906Y-66757666D01*
X130612094Y-66757666D01*
X130667681Y-66789760D01*
X130777735Y-66899814D01*
X130777737Y-66899815D01*
X130777738Y-66899816D01*
X130930478Y-66995789D01*
X131100745Y-67055368D01*
X131280000Y-67075565D01*
X131459255Y-67055368D01*
X131629522Y-66995789D01*
X131782262Y-66899816D01*
X131909816Y-66772262D01*
X132005789Y-66619522D01*
X132065368Y-66449255D01*
X132065368Y-66449250D01*
X132069981Y-66436069D01*
X132099342Y-66389342D01*
X132146069Y-66359981D01*
X132159250Y-66355368D01*
X132159255Y-66355368D01*
X132329522Y-66295789D01*
X132482262Y-66199816D01*
X132609816Y-66072262D01*
X132705789Y-65919522D01*
X132765368Y-65749255D01*
X132785565Y-65570000D01*
X132765368Y-65390745D01*
X132705789Y-65220478D01*
X132609816Y-65067738D01*
X132609815Y-65067737D01*
X132609814Y-65067735D01*
X132562080Y-65020001D01*
X141905839Y-65020001D01*
X141946649Y-65154534D01*
X142039506Y-65328257D01*
X142164472Y-65480527D01*
X142316742Y-65605493D01*
X142490465Y-65698350D01*
X142624998Y-65739160D01*
X142625000Y-65739160D01*
X142625000Y-65020000D01*
X141905840Y-65020000D01*
X141905839Y-65020001D01*
X132562080Y-65020001D01*
X132499760Y-64957681D01*
X132467666Y-64902094D01*
X132467666Y-64837906D01*
X132499760Y-64782319D01*
X132609814Y-64672264D01*
X132609813Y-64672264D01*
X132609816Y-64672262D01*
X132705789Y-64519522D01*
X132765368Y-64349255D01*
X132785565Y-64170000D01*
X132765368Y-63990745D01*
X132705789Y-63820478D01*
X132609816Y-63667738D01*
X132609815Y-63667737D01*
X132609814Y-63667735D01*
X132482264Y-63540185D01*
X132418310Y-63500000D01*
X134349540Y-63500000D01*
X134369326Y-63688257D01*
X134427820Y-63868284D01*
X134522466Y-64032216D01*
X134649129Y-64172889D01*
X134802269Y-64284151D01*
X134975197Y-64361144D01*
X135160352Y-64400500D01*
X135160354Y-64400500D01*
X135349646Y-64400500D01*
X135349648Y-64400500D01*
X135473084Y-64374262D01*
X135534803Y-64361144D01*
X135707730Y-64284151D01*
X135808575Y-64210883D01*
X135860870Y-64172889D01*
X135987533Y-64032216D01*
X136082179Y-63868284D01*
X136116143Y-63763754D01*
X136140674Y-63688256D01*
X136160460Y-63500000D01*
X136889540Y-63500000D01*
X136909326Y-63688257D01*
X136967820Y-63868284D01*
X137062466Y-64032216D01*
X137189129Y-64172889D01*
X137342269Y-64284151D01*
X137515197Y-64361144D01*
X137700352Y-64400500D01*
X137700354Y-64400500D01*
X137889646Y-64400500D01*
X137889648Y-64400500D01*
X138013084Y-64374262D01*
X138074803Y-64361144D01*
X138247730Y-64284151D01*
X138247730Y-64284150D01*
X138357115Y-64204679D01*
X138404219Y-64183707D01*
X138455781Y-64183707D01*
X138502885Y-64204679D01*
X138612269Y-64284151D01*
X138785197Y-64361144D01*
X138970352Y-64400500D01*
X138970354Y-64400500D01*
X139159646Y-64400500D01*
X139159648Y-64400500D01*
X139283084Y-64374262D01*
X139344803Y-64361144D01*
X139517730Y-64284151D01*
X139618575Y-64210883D01*
X139670870Y-64172889D01*
X139797533Y-64032216D01*
X139892179Y-63868284D01*
X139926143Y-63763754D01*
X139950674Y-63688256D01*
X139970460Y-63500000D01*
X139950674Y-63311744D01*
X139892179Y-63131716D01*
X139892179Y-63131715D01*
X139797533Y-62967783D01*
X139670870Y-62827110D01*
X139517730Y-62715848D01*
X139344802Y-62638855D01*
X139159648Y-62599500D01*
X139159646Y-62599500D01*
X138970354Y-62599500D01*
X138970352Y-62599500D01*
X138785197Y-62638855D01*
X138612269Y-62715848D01*
X138502885Y-62795321D01*
X138455781Y-62816293D01*
X138404219Y-62816293D01*
X138357115Y-62795321D01*
X138247730Y-62715848D01*
X138074802Y-62638855D01*
X137889648Y-62599500D01*
X137889646Y-62599500D01*
X137700354Y-62599500D01*
X137700352Y-62599500D01*
X137515197Y-62638855D01*
X137342269Y-62715848D01*
X137189129Y-62827110D01*
X137062466Y-62967783D01*
X136967820Y-63131715D01*
X136909326Y-63311742D01*
X136889540Y-63500000D01*
X136160460Y-63500000D01*
X136140674Y-63311744D01*
X136082179Y-63131716D01*
X136082179Y-63131715D01*
X135987533Y-62967783D01*
X135860870Y-62827110D01*
X135707730Y-62715848D01*
X135534802Y-62638855D01*
X135349648Y-62599500D01*
X135349646Y-62599500D01*
X135160354Y-62599500D01*
X135160352Y-62599500D01*
X134975197Y-62638855D01*
X134802269Y-62715848D01*
X134649129Y-62827110D01*
X134522466Y-62967783D01*
X134427820Y-63131715D01*
X134369326Y-63311742D01*
X134349540Y-63500000D01*
X132418310Y-63500000D01*
X132329519Y-63444209D01*
X132146068Y-63380017D01*
X132099342Y-63350657D01*
X132069981Y-63303930D01*
X132065368Y-63290747D01*
X132065368Y-63290745D01*
X132005789Y-63120478D01*
X131909816Y-62967738D01*
X131909815Y-62967737D01*
X131909814Y-62967735D01*
X131782264Y-62840185D01*
X131700068Y-62788538D01*
X131629522Y-62744211D01*
X131459255Y-62684632D01*
X131459253Y-62684631D01*
X131459251Y-62684631D01*
X131280000Y-62664434D01*
X131100748Y-62684631D01*
X131100745Y-62684631D01*
X131100745Y-62684632D01*
X130930478Y-62744211D01*
X130930476Y-62744211D01*
X130930476Y-62744212D01*
X130777735Y-62840185D01*
X130667681Y-62950240D01*
X130612094Y-62982334D01*
X130547906Y-62982334D01*
X130492319Y-62950240D01*
X130382264Y-62840185D01*
X130300068Y-62788538D01*
X130229522Y-62744211D01*
X130059255Y-62684632D01*
X130059253Y-62684631D01*
X130059251Y-62684631D01*
X129880000Y-62664434D01*
X129700748Y-62684631D01*
X129700745Y-62684631D01*
X129700745Y-62684632D01*
X129530478Y-62744211D01*
X129530476Y-62744211D01*
X129530476Y-62744212D01*
X129377735Y-62840185D01*
X129250185Y-62967735D01*
X129154209Y-63120480D01*
X129090017Y-63303931D01*
X129060657Y-63350657D01*
X129013931Y-63380017D01*
X128830480Y-63444209D01*
X128677735Y-63540185D01*
X128550185Y-63667735D01*
X128454212Y-63820476D01*
X128454211Y-63820478D01*
X128394632Y-63990745D01*
X128394631Y-63990748D01*
X128374434Y-64169999D01*
X128394631Y-64349251D01*
X128394631Y-64349253D01*
X128394632Y-64349255D01*
X128454211Y-64519522D01*
X128464950Y-64536613D01*
X128550185Y-64672264D01*
X128660240Y-64782319D01*
X128692334Y-64837906D01*
X128692334Y-64902094D01*
X128660240Y-64957681D01*
X128550185Y-65067735D01*
X128495646Y-65154534D01*
X128454211Y-65220478D01*
X128394632Y-65390745D01*
X128394631Y-65390748D01*
X128374434Y-65570000D01*
X120500000Y-65570000D01*
X120500000Y-63499999D01*
X124189540Y-63499999D01*
X124209326Y-63688257D01*
X124267820Y-63868284D01*
X124362466Y-64032216D01*
X124489129Y-64172889D01*
X124642269Y-64284151D01*
X124815197Y-64361144D01*
X125000352Y-64400500D01*
X125000354Y-64400500D01*
X125189646Y-64400500D01*
X125189648Y-64400500D01*
X125313084Y-64374262D01*
X125374803Y-64361144D01*
X125547730Y-64284151D01*
X125648575Y-64210883D01*
X125700870Y-64172889D01*
X125827533Y-64032216D01*
X125827532Y-64032216D01*
X125922179Y-63868284D01*
X125929568Y-63845541D01*
X125962616Y-63793466D01*
X126016662Y-63763754D01*
X126078338Y-63763754D01*
X126132384Y-63793466D01*
X126165431Y-63845541D01*
X126172820Y-63868283D01*
X126267466Y-64032216D01*
X126394129Y-64172889D01*
X126547269Y-64284151D01*
X126720197Y-64361144D01*
X126905352Y-64400500D01*
X126905354Y-64400500D01*
X127094646Y-64400500D01*
X127094648Y-64400500D01*
X127218084Y-64374262D01*
X127279803Y-64361144D01*
X127452730Y-64284151D01*
X127553575Y-64210883D01*
X127605870Y-64172889D01*
X127732533Y-64032216D01*
X127827179Y-63868284D01*
X127861143Y-63763754D01*
X127885674Y-63688256D01*
X127905460Y-63500000D01*
X127885674Y-63311744D01*
X127827179Y-63131716D01*
X127827179Y-63131715D01*
X127732533Y-62967783D01*
X127605870Y-62827110D01*
X127452730Y-62715848D01*
X127279802Y-62638855D01*
X127094648Y-62599500D01*
X127094646Y-62599500D01*
X126905354Y-62599500D01*
X126905352Y-62599500D01*
X126720197Y-62638855D01*
X126547269Y-62715848D01*
X126394129Y-62827110D01*
X126267466Y-62967783D01*
X126172820Y-63131715D01*
X126165431Y-63154459D01*
X126132384Y-63206533D01*
X126078338Y-63236245D01*
X126016662Y-63236245D01*
X125962616Y-63206533D01*
X125929569Y-63154459D01*
X125922179Y-63131715D01*
X125827533Y-62967783D01*
X125700870Y-62827110D01*
X125547730Y-62715848D01*
X125374802Y-62638855D01*
X125189648Y-62599500D01*
X125189646Y-62599500D01*
X125000354Y-62599500D01*
X125000352Y-62599500D01*
X124815197Y-62638855D01*
X124642269Y-62715848D01*
X124489129Y-62827110D01*
X124362466Y-62967783D01*
X124267820Y-63131715D01*
X124209326Y-63311742D01*
X124189540Y-63499999D01*
X120500000Y-63499999D01*
X120500000Y-62381107D01*
X120518273Y-62316317D01*
X120567705Y-62270622D01*
X120633729Y-62257489D01*
X120696885Y-62280789D01*
X120832269Y-62379151D01*
X121005197Y-62456144D01*
X121190352Y-62495500D01*
X121190354Y-62495500D01*
X121379646Y-62495500D01*
X121379648Y-62495500D01*
X121503084Y-62469262D01*
X121564803Y-62456144D01*
X121737730Y-62379151D01*
X121824214Y-62316317D01*
X121890870Y-62267889D01*
X121924987Y-62229999D01*
X122017533Y-62127216D01*
X122112179Y-61963284D01*
X122170674Y-61783256D01*
X122190460Y-61595000D01*
X122170674Y-61406744D01*
X122112179Y-61226716D01*
X122112179Y-61226715D01*
X122017533Y-61062783D01*
X121890870Y-60922110D01*
X121737730Y-60810848D01*
X121564802Y-60733855D01*
X121379648Y-60694500D01*
X121379646Y-60694500D01*
X121190354Y-60694500D01*
X121190352Y-60694500D01*
X121005197Y-60733855D01*
X120832269Y-60810848D01*
X120696885Y-60909211D01*
X120633729Y-60932511D01*
X120567705Y-60919378D01*
X120518273Y-60873683D01*
X120500000Y-60808893D01*
X120500000Y-59690000D01*
X124189540Y-59690000D01*
X124209326Y-59878257D01*
X124267820Y-60058284D01*
X124362466Y-60222216D01*
X124489129Y-60362889D01*
X124642269Y-60474151D01*
X124815197Y-60551144D01*
X125000352Y-60590500D01*
X125000354Y-60590500D01*
X125189646Y-60590500D01*
X125189648Y-60590500D01*
X125313084Y-60564262D01*
X125374803Y-60551144D01*
X125547730Y-60474151D01*
X125647778Y-60401462D01*
X125700870Y-60362889D01*
X125827533Y-60222216D01*
X125922179Y-60058284D01*
X125922178Y-60058284D01*
X125980674Y-59878256D01*
X126000460Y-59690000D01*
X138159540Y-59690000D01*
X138179326Y-59878257D01*
X138237820Y-60058284D01*
X138332466Y-60222216D01*
X138459129Y-60362889D01*
X138612269Y-60474151D01*
X138785197Y-60551144D01*
X138970352Y-60590500D01*
X138970354Y-60590500D01*
X139159646Y-60590500D01*
X139159648Y-60590500D01*
X139283084Y-60564262D01*
X139344803Y-60551144D01*
X139517730Y-60474151D01*
X139617778Y-60401462D01*
X139670870Y-60362889D01*
X139797533Y-60222216D01*
X139892179Y-60058284D01*
X139892178Y-60058284D01*
X139950674Y-59878256D01*
X139970460Y-59690000D01*
X139950674Y-59501744D01*
X139892179Y-59321716D01*
X139892179Y-59321715D01*
X139797533Y-59157783D01*
X139670870Y-59017110D01*
X139517730Y-58905848D01*
X139344802Y-58828855D01*
X139159648Y-58789500D01*
X139159646Y-58789500D01*
X138970354Y-58789500D01*
X138970352Y-58789500D01*
X138785197Y-58828855D01*
X138612269Y-58905848D01*
X138459129Y-59017110D01*
X138332466Y-59157783D01*
X138237820Y-59321715D01*
X138179326Y-59501742D01*
X138159540Y-59690000D01*
X126000460Y-59690000D01*
X125980674Y-59501744D01*
X125922179Y-59321716D01*
X125922179Y-59321715D01*
X125827533Y-59157783D01*
X125700870Y-59017110D01*
X125547730Y-58905848D01*
X125374802Y-58828855D01*
X125189648Y-58789500D01*
X125189646Y-58789500D01*
X125000354Y-58789500D01*
X125000352Y-58789500D01*
X124815197Y-58828855D01*
X124642269Y-58905848D01*
X124489129Y-59017110D01*
X124362466Y-59157783D01*
X124267820Y-59321715D01*
X124209326Y-59501742D01*
X124189540Y-59690000D01*
X120500000Y-59690000D01*
X120500000Y-57149999D01*
X124189540Y-57149999D01*
X124209326Y-57338257D01*
X124267820Y-57518284D01*
X124362466Y-57682216D01*
X124489129Y-57822889D01*
X124642269Y-57934151D01*
X124815197Y-58011144D01*
X125000352Y-58050500D01*
X125000354Y-58050500D01*
X125189646Y-58050500D01*
X125189648Y-58050500D01*
X125313083Y-58024262D01*
X125374803Y-58011144D01*
X125547730Y-57934151D01*
X125700871Y-57822888D01*
X125827533Y-57682216D01*
X125922179Y-57518284D01*
X125980674Y-57338256D01*
X126000460Y-57150000D01*
X125980674Y-56961744D01*
X125922179Y-56781716D01*
X125922179Y-56781715D01*
X125827533Y-56617783D01*
X125700870Y-56477110D01*
X125547730Y-56365848D01*
X125374802Y-56288855D01*
X125189648Y-56249500D01*
X125189646Y-56249500D01*
X125000354Y-56249500D01*
X125000352Y-56249500D01*
X124815197Y-56288855D01*
X124642269Y-56365848D01*
X124489129Y-56477110D01*
X124362466Y-56617783D01*
X124267820Y-56781715D01*
X124209326Y-56961742D01*
X124189540Y-57149999D01*
X120500000Y-57149999D01*
X120500000Y-56124000D01*
X120516613Y-56062000D01*
X120562000Y-56016613D01*
X120624000Y-56000000D01*
X143376000Y-56000000D01*
X143438000Y-56016613D01*
G37*
%TD.AperFunction*%
M02*
