%TF.GenerationSoftware,KiCad,Pcbnew,7.0.5-7.0.5~ubuntu22.04.1*%
%TF.CreationDate,2023-06-05T10:06:40+02:00*%
%TF.ProjectId,BatMon,4261744d-6f6e-42e6-9b69-6361645f7063,rev?*%
%TF.SameCoordinates,Original*%
%TF.FileFunction,Soldermask,Top*%
%TF.FilePolarity,Negative*%
%FSLAX46Y46*%
G04 Gerber Fmt 4.6, Leading zero omitted, Abs format (unit mm)*
G04 Created by KiCad (PCBNEW 7.0.5-7.0.5~ubuntu22.04.1) date 2023-06-05 10:06:40*
%MOMM*%
%LPD*%
G01*
G04 APERTURE LIST*
G04 Aperture macros list*
%AMRoundRect*
0 Rectangle with rounded corners*
0 $1 Rounding radius*
0 $2 $3 $4 $5 $6 $7 $8 $9 X,Y pos of 4 corners*
0 Add a 4 corners polygon primitive as box body*
4,1,4,$2,$3,$4,$5,$6,$7,$8,$9,$2,$3,0*
0 Add four circle primitives for the rounded corners*
1,1,$1+$1,$2,$3*
1,1,$1+$1,$4,$5*
1,1,$1+$1,$6,$7*
1,1,$1+$1,$8,$9*
0 Add four rect primitives between the rounded corners*
20,1,$1+$1,$2,$3,$4,$5,0*
20,1,$1+$1,$4,$5,$6,$7,0*
20,1,$1+$1,$6,$7,$8,$9,0*
20,1,$1+$1,$8,$9,$2,$3,0*%
%AMFreePoly0*
4,1,9,5.362500,-0.866500,1.237500,-0.866500,1.237500,-0.450000,-1.237500,-0.450000,-1.237500,0.450000,1.237500,0.450000,1.237500,0.866500,5.362500,0.866500,5.362500,-0.866500,5.362500,-0.866500,$1*%
G04 Aperture macros list end*
%ADD10R,1.500000X0.900000*%
%ADD11R,0.900000X1.500000*%
%ADD12C,0.600000*%
%ADD13R,3.800000X3.800000*%
%ADD14RoundRect,0.237500X-0.250000X-0.237500X0.250000X-0.237500X0.250000X0.237500X-0.250000X0.237500X0*%
%ADD15RoundRect,0.237500X-0.237500X0.250000X-0.237500X-0.250000X0.237500X-0.250000X0.237500X0.250000X0*%
%ADD16RoundRect,0.400000X3.100000X-0.400000X3.100000X0.400000X-3.100000X0.400000X-3.100000X-0.400000X0*%
%ADD17RoundRect,0.400000X2.600000X-0.400000X2.600000X0.400000X-2.600000X0.400000X-2.600000X-0.400000X0*%
%ADD18R,1.220000X0.650000*%
%ADD19RoundRect,0.237500X0.237500X-0.250000X0.237500X0.250000X-0.237500X0.250000X-0.237500X-0.250000X0*%
%ADD20RoundRect,0.237500X0.237500X-0.300000X0.237500X0.300000X-0.237500X0.300000X-0.237500X-0.300000X0*%
%ADD21R,0.700000X0.510000*%
%ADD22RoundRect,0.250000X0.425000X-0.537500X0.425000X0.537500X-0.425000X0.537500X-0.425000X-0.537500X0*%
%ADD23R,2.300000X0.900000*%
%ADD24FreePoly0,0.000000*%
%ADD25R,1.000000X1.000000*%
%ADD26O,1.000000X1.000000*%
%ADD27R,0.650000X1.220000*%
%ADD28RoundRect,0.250000X-0.600000X-0.725000X0.600000X-0.725000X0.600000X0.725000X-0.600000X0.725000X0*%
%ADD29O,1.700000X1.950000*%
%ADD30RoundRect,0.237500X-0.237500X0.287500X-0.237500X-0.287500X0.237500X-0.287500X0.237500X0.287500X0*%
G04 APERTURE END LIST*
D10*
X123330000Y-57150000D03*
X123330000Y-58420000D03*
X123330000Y-59690000D03*
X123330000Y-60960000D03*
X123330000Y-62230000D03*
X123330000Y-63500000D03*
X123330000Y-64770000D03*
X123330000Y-66040000D03*
X123330000Y-67310000D03*
X123330000Y-68580000D03*
X123330000Y-69850000D03*
X123330000Y-71120000D03*
X123330000Y-72390000D03*
X123330000Y-73660000D03*
D11*
X126370000Y-74910000D03*
X127640000Y-74910000D03*
X128910000Y-74910000D03*
X130180000Y-74910000D03*
X131450000Y-74910000D03*
X132720000Y-74910000D03*
X133990000Y-74910000D03*
X135260000Y-74910000D03*
X136530000Y-74910000D03*
X137800000Y-74910000D03*
D10*
X140830000Y-73660000D03*
X140830000Y-72390000D03*
X140830000Y-71120000D03*
X140830000Y-69850000D03*
X140830000Y-68580000D03*
X140830000Y-67310000D03*
X140830000Y-66040000D03*
X140830000Y-64770000D03*
X140830000Y-63500000D03*
X140830000Y-62230000D03*
X140830000Y-60960000D03*
X140830000Y-59690000D03*
X140830000Y-58420000D03*
X140830000Y-57150000D03*
D12*
X129180000Y-64170000D03*
X129180000Y-65570000D03*
X129880000Y-63470000D03*
X129880000Y-64870000D03*
X129880000Y-66270000D03*
X130555000Y-64170000D03*
X130555000Y-65570000D03*
D13*
X130580000Y-64870000D03*
D12*
X131280000Y-63470000D03*
X131280000Y-64870000D03*
X131280000Y-66270000D03*
X131980000Y-64170000D03*
X131980000Y-65570000D03*
D14*
X132437500Y-85852000D03*
X134262500Y-85852000D03*
D15*
X121285000Y-68302500D03*
X121285000Y-70127500D03*
D16*
X148500000Y-72650000D03*
X148500000Y-75190000D03*
D17*
X148000000Y-77730000D03*
X148000000Y-80270000D03*
X148000000Y-82810000D03*
X148000000Y-85350000D03*
D18*
X123150000Y-78425000D03*
X123150000Y-80325000D03*
X125770000Y-79375000D03*
D19*
X121285000Y-80287500D03*
X121285000Y-78462500D03*
D20*
X121285000Y-58875000D03*
X121285000Y-57150000D03*
D21*
X130065000Y-80325000D03*
X130065000Y-79375000D03*
X130065000Y-78425000D03*
X127745000Y-78425000D03*
X127745000Y-79375000D03*
X127745000Y-80325000D03*
D22*
X142240000Y-80177500D03*
X142240000Y-77302500D03*
D23*
X135345000Y-77240000D03*
D24*
X135432500Y-78740000D03*
D23*
X135345000Y-80240000D03*
D22*
X132715000Y-80177500D03*
X132715000Y-77302500D03*
D25*
X142875000Y-58420000D03*
D26*
X142875000Y-59690000D03*
X142875000Y-60960000D03*
X142875000Y-62230000D03*
X142875000Y-63500000D03*
X142875000Y-64770000D03*
D21*
X134510000Y-84262000D03*
X134510000Y-83312000D03*
X134510000Y-82362000D03*
X132190000Y-82362000D03*
X132190000Y-83312000D03*
X132190000Y-84262000D03*
D27*
X136210000Y-85130000D03*
X138110000Y-85130000D03*
X137160000Y-82510000D03*
D15*
X121285000Y-74017500D03*
X121285000Y-75842500D03*
D28*
X123230000Y-84455000D03*
D29*
X125730000Y-84455000D03*
X128230000Y-84455000D03*
D30*
X121285000Y-63020000D03*
X121285000Y-64770000D03*
M02*
