%TF.GenerationSoftware,KiCad,Pcbnew,7.0.5-7.0.5~ubuntu22.04.1*%
%TF.CreationDate,2023-06-05T10:06:50+02:00*%
%TF.ProjectId,BatMon,4261744d-6f6e-42e6-9b69-6361645f7063,rev?*%
%TF.SameCoordinates,Original*%
%TF.FileFunction,Drillmap*%
%TF.FilePolarity,Positive*%
%FSLAX45Y45*%
G04 Gerber Fmt 4.5, Leading zero omitted, Abs format (unit mm)*
G04 Created by KiCad (PCBNEW 7.0.5-7.0.5~ubuntu22.04.1) date 2023-06-05 10:06:50*
%MOMM*%
%LPD*%
G01*
G04 APERTURE LIST*
%ADD10C,0.100000*%
%ADD11C,0.200000*%
G04 APERTURE END LIST*
D10*
X14400000Y-5700000D02*
G75*
G03*
X14250000Y-5550000I-150000J0D01*
G01*
X14400000Y-8900000D02*
X14400000Y-8750000D01*
X12000000Y-8900000D02*
G75*
G03*
X12150000Y-9050000I150000J0D01*
G01*
X12150000Y-5550000D02*
G75*
G03*
X12000000Y-5700000I0J-150000D01*
G01*
X12150000Y-9050000D02*
X14250000Y-9050000D01*
X14250000Y-9050000D02*
G75*
G03*
X14400000Y-8900000I0J150000D01*
G01*
X14250000Y-5550000D02*
X12150000Y-5550000D01*
X14400000Y-7050000D02*
X14400000Y-5700000D01*
X12000000Y-5700000D02*
X12000000Y-8900000D01*
D11*
X12255777Y-9366484D02*
X12255777Y-9166484D01*
X12255777Y-9166484D02*
X12303396Y-9166484D01*
X12303396Y-9166484D02*
X12331967Y-9176008D01*
X12331967Y-9176008D02*
X12351015Y-9195055D01*
X12351015Y-9195055D02*
X12360539Y-9214103D01*
X12360539Y-9214103D02*
X12370062Y-9252198D01*
X12370062Y-9252198D02*
X12370062Y-9280770D01*
X12370062Y-9280770D02*
X12360539Y-9318865D01*
X12360539Y-9318865D02*
X12351015Y-9337912D01*
X12351015Y-9337912D02*
X12331967Y-9356960D01*
X12331967Y-9356960D02*
X12303396Y-9366484D01*
X12303396Y-9366484D02*
X12255777Y-9366484D01*
X12455777Y-9366484D02*
X12455777Y-9233150D01*
X12455777Y-9271246D02*
X12465301Y-9252198D01*
X12465301Y-9252198D02*
X12474824Y-9242674D01*
X12474824Y-9242674D02*
X12493872Y-9233150D01*
X12493872Y-9233150D02*
X12512920Y-9233150D01*
X12579586Y-9366484D02*
X12579586Y-9233150D01*
X12579586Y-9166484D02*
X12570062Y-9176008D01*
X12570062Y-9176008D02*
X12579586Y-9185531D01*
X12579586Y-9185531D02*
X12589110Y-9176008D01*
X12589110Y-9176008D02*
X12579586Y-9166484D01*
X12579586Y-9166484D02*
X12579586Y-9185531D01*
X12703396Y-9366484D02*
X12684348Y-9356960D01*
X12684348Y-9356960D02*
X12674824Y-9337912D01*
X12674824Y-9337912D02*
X12674824Y-9166484D01*
X12808158Y-9366484D02*
X12789110Y-9356960D01*
X12789110Y-9356960D02*
X12779586Y-9337912D01*
X12779586Y-9337912D02*
X12779586Y-9166484D01*
X13036729Y-9366484D02*
X13036729Y-9166484D01*
X13036729Y-9166484D02*
X13103396Y-9309341D01*
X13103396Y-9309341D02*
X13170062Y-9166484D01*
X13170062Y-9166484D02*
X13170062Y-9366484D01*
X13351015Y-9366484D02*
X13351015Y-9261722D01*
X13351015Y-9261722D02*
X13341491Y-9242674D01*
X13341491Y-9242674D02*
X13322443Y-9233150D01*
X13322443Y-9233150D02*
X13284348Y-9233150D01*
X13284348Y-9233150D02*
X13265301Y-9242674D01*
X13351015Y-9356960D02*
X13331967Y-9366484D01*
X13331967Y-9366484D02*
X13284348Y-9366484D01*
X13284348Y-9366484D02*
X13265301Y-9356960D01*
X13265301Y-9356960D02*
X13255777Y-9337912D01*
X13255777Y-9337912D02*
X13255777Y-9318865D01*
X13255777Y-9318865D02*
X13265301Y-9299817D01*
X13265301Y-9299817D02*
X13284348Y-9290293D01*
X13284348Y-9290293D02*
X13331967Y-9290293D01*
X13331967Y-9290293D02*
X13351015Y-9280770D01*
X13446253Y-9233150D02*
X13446253Y-9433150D01*
X13446253Y-9242674D02*
X13465301Y-9233150D01*
X13465301Y-9233150D02*
X13503396Y-9233150D01*
X13503396Y-9233150D02*
X13522443Y-9242674D01*
X13522443Y-9242674D02*
X13531967Y-9252198D01*
X13531967Y-9252198D02*
X13541491Y-9271246D01*
X13541491Y-9271246D02*
X13541491Y-9328389D01*
X13541491Y-9328389D02*
X13531967Y-9347436D01*
X13531967Y-9347436D02*
X13522443Y-9356960D01*
X13522443Y-9356960D02*
X13503396Y-9366484D01*
X13503396Y-9366484D02*
X13465301Y-9366484D01*
X13465301Y-9366484D02*
X13446253Y-9356960D01*
X13627205Y-9347436D02*
X13636729Y-9356960D01*
X13636729Y-9356960D02*
X13627205Y-9366484D01*
X13627205Y-9366484D02*
X13617682Y-9356960D01*
X13617682Y-9356960D02*
X13627205Y-9347436D01*
X13627205Y-9347436D02*
X13627205Y-9366484D01*
X13627205Y-9242674D02*
X13636729Y-9252198D01*
X13636729Y-9252198D02*
X13627205Y-9261722D01*
X13627205Y-9261722D02*
X13617682Y-9252198D01*
X13617682Y-9252198D02*
X13627205Y-9242674D01*
X13627205Y-9242674D02*
X13627205Y-9261722D01*
M02*
