%TF.GenerationSoftware,KiCad,Pcbnew,7.0.5-7.0.5~ubuntu22.04.1*%
%TF.CreationDate,2023-06-28T22:22:45+02:00*%
%TF.ProjectId,BatMon,4261744d-6f6e-42e6-9b69-6361645f7063,rev?*%
%TF.SameCoordinates,Original*%
%TF.FileFunction,Legend,Bot*%
%TF.FilePolarity,Positive*%
%FSLAX46Y46*%
G04 Gerber Fmt 4.6, Leading zero omitted, Abs format (unit mm)*
G04 Created by KiCad (PCBNEW 7.0.5-7.0.5~ubuntu22.04.1) date 2023-06-28 22:22:45*
%MOMM*%
%LPD*%
G01*
G04 APERTURE LIST*
G04 Aperture macros list*
%AMRoundRect*
0 Rectangle with rounded corners*
0 $1 Rounding radius*
0 $2 $3 $4 $5 $6 $7 $8 $9 X,Y pos of 4 corners*
0 Add a 4 corners polygon primitive as box body*
4,1,4,$2,$3,$4,$5,$6,$7,$8,$9,$2,$3,0*
0 Add four circle primitives for the rounded corners*
1,1,$1+$1,$2,$3*
1,1,$1+$1,$4,$5*
1,1,$1+$1,$6,$7*
1,1,$1+$1,$8,$9*
0 Add four rect primitives between the rounded corners*
20,1,$1+$1,$2,$3,$4,$5,0*
20,1,$1+$1,$4,$5,$6,$7,0*
20,1,$1+$1,$6,$7,$8,$9,0*
20,1,$1+$1,$8,$9,$2,$3,0*%
G04 Aperture macros list end*
%ADD10C,0.150000*%
%ADD11C,0.250000*%
%ADD12C,0.100000*%
%ADD13C,0.120000*%
%ADD14RoundRect,0.400000X3.100000X-0.400000X3.100000X0.400000X-3.100000X0.400000X-3.100000X-0.400000X0*%
%ADD15RoundRect,0.400000X2.600000X-0.400000X2.600000X0.400000X-2.600000X0.400000X-2.600000X-0.400000X0*%
%ADD16R,1.000000X1.000000*%
%ADD17O,1.000000X1.000000*%
%ADD18RoundRect,0.250000X-0.600000X-0.725000X0.600000X-0.725000X0.600000X0.725000X-0.600000X0.725000X0*%
%ADD19O,1.700000X1.950000*%
%ADD20RoundRect,0.150000X0.587500X0.150000X-0.587500X0.150000X-0.587500X-0.150000X0.587500X-0.150000X0*%
%ADD21RoundRect,0.237500X-0.237500X0.250000X-0.237500X-0.250000X0.237500X-0.250000X0.237500X0.250000X0*%
%ADD22RoundRect,0.237500X0.237500X-0.250000X0.237500X0.250000X-0.237500X0.250000X-0.237500X-0.250000X0*%
%ADD23RoundRect,0.237500X0.300000X0.237500X-0.300000X0.237500X-0.300000X-0.237500X0.300000X-0.237500X0*%
%ADD24R,2.500000X2.500000*%
%ADD25RoundRect,0.250000X-0.425000X0.537500X-0.425000X-0.537500X0.425000X-0.537500X0.425000X0.537500X0*%
%ADD26R,1.600000X1.200000*%
%ADD27RoundRect,0.150000X-0.150000X0.587500X-0.150000X-0.587500X0.150000X-0.587500X0.150000X0.587500X0*%
%ADD28RoundRect,0.237500X-0.300000X-0.237500X0.300000X-0.237500X0.300000X0.237500X-0.300000X0.237500X0*%
%ADD29RoundRect,0.237500X0.250000X0.237500X-0.250000X0.237500X-0.250000X-0.237500X0.250000X-0.237500X0*%
%ADD30RoundRect,0.225000X0.375000X-0.225000X0.375000X0.225000X-0.375000X0.225000X-0.375000X-0.225000X0*%
%ADD31RoundRect,0.125000X0.275000X0.125000X-0.275000X0.125000X-0.275000X-0.125000X0.275000X-0.125000X0*%
%ADD32RoundRect,0.150000X-0.150000X0.825000X-0.150000X-0.825000X0.150000X-0.825000X0.150000X0.825000X0*%
G04 APERTURE END LIST*
D10*
G36*
X139338237Y-56824694D02*
G01*
X139359122Y-56845579D01*
X139383857Y-56895047D01*
X139383857Y-57088208D01*
X139359121Y-57137678D01*
X139338239Y-57158560D01*
X139288771Y-57183295D01*
X139171800Y-57183295D01*
X139152904Y-57173847D01*
X139152904Y-56809409D01*
X139171800Y-56799961D01*
X139288771Y-56799961D01*
X139338237Y-56824694D01*
G37*
G36*
X140793381Y-56809408D02*
G01*
X140793381Y-57173847D01*
X140774486Y-57183295D01*
X140657515Y-57183295D01*
X140608045Y-57158560D01*
X140587164Y-57137678D01*
X140562429Y-57088208D01*
X140562429Y-56895047D01*
X140587163Y-56845578D01*
X140608045Y-56824696D01*
X140657515Y-56799961D01*
X140774486Y-56799961D01*
X140793381Y-56809408D01*
G37*
G36*
X141498193Y-56818958D02*
G01*
X141517191Y-56856952D01*
X141517191Y-56900142D01*
X141287601Y-56854225D01*
X141305234Y-56818958D01*
X141343229Y-56799961D01*
X141460200Y-56799961D01*
X141498193Y-56818958D01*
G37*
G36*
X142279095Y-57183295D02*
G01*
X142175789Y-57183295D01*
X142089845Y-57154647D01*
X142034783Y-57099583D01*
X142005812Y-57041642D01*
X141971952Y-56906202D01*
X141971952Y-56810383D01*
X142005811Y-56674948D01*
X142034782Y-56617006D01*
X142089846Y-56561942D01*
X142175791Y-56533295D01*
X142279095Y-56533295D01*
X142279095Y-57183295D01*
G37*
G36*
X142991358Y-57822786D02*
G01*
X138440642Y-57822786D01*
X138440642Y-56765812D01*
X138999787Y-56765812D01*
X139002904Y-56775191D01*
X139002904Y-57218890D01*
X139002175Y-57239566D01*
X139002904Y-57240793D01*
X139002904Y-57368543D01*
X139000973Y-57386424D01*
X139007829Y-57400137D01*
X139012147Y-57414840D01*
X139017500Y-57419478D01*
X139044712Y-57473901D01*
X139047395Y-57486233D01*
X139062018Y-57500856D01*
X139076083Y-57515977D01*
X139077502Y-57516339D01*
X139094413Y-57533250D01*
X139100857Y-57544100D01*
X139119355Y-57553348D01*
X139137481Y-57563246D01*
X139138940Y-57563141D01*
X139193133Y-57590237D01*
X139208263Y-57599961D01*
X139223593Y-57599961D01*
X139238676Y-57602675D01*
X139245220Y-57599961D01*
X139340531Y-57599961D01*
X139358415Y-57601892D01*
X139372128Y-57595035D01*
X139386831Y-57590718D01*
X139391469Y-57585364D01*
X139463946Y-57549126D01*
X139487967Y-57526782D01*
X139498878Y-57484111D01*
X139484988Y-57442315D01*
X139450706Y-57414663D01*
X139406917Y-57409935D01*
X139326866Y-57449961D01*
X139247991Y-57449961D01*
X139198521Y-57425226D01*
X139177637Y-57404343D01*
X139152904Y-57354875D01*
X139152904Y-57334284D01*
X139162487Y-57336009D01*
X139169031Y-57333295D01*
X139302436Y-57333295D01*
X139320320Y-57335226D01*
X139334033Y-57328369D01*
X139348736Y-57324052D01*
X139353374Y-57318698D01*
X139407798Y-57291486D01*
X139420128Y-57288804D01*
X139434742Y-57274189D01*
X139449872Y-57260116D01*
X139450234Y-57258696D01*
X139467144Y-57241786D01*
X139477994Y-57235343D01*
X139487240Y-57216850D01*
X139497141Y-57198718D01*
X139497036Y-57197258D01*
X139507402Y-57176527D01*
X139723747Y-57176527D01*
X139726714Y-57190166D01*
X139726714Y-57269077D01*
X139735957Y-57300555D01*
X139769243Y-57329397D01*
X139812838Y-57335665D01*
X139852902Y-57317369D01*
X139856194Y-57312245D01*
X139878848Y-57323572D01*
X139893978Y-57333295D01*
X139909309Y-57333295D01*
X139924392Y-57336009D01*
X139930936Y-57333295D01*
X140026246Y-57333295D01*
X140044130Y-57335226D01*
X140057843Y-57328369D01*
X140072546Y-57324052D01*
X140077184Y-57318698D01*
X140122928Y-57295826D01*
X140125842Y-57295929D01*
X140142444Y-57286068D01*
X140149661Y-57282460D01*
X140151676Y-57280584D01*
X140163710Y-57273438D01*
X140167492Y-57265873D01*
X140173682Y-57260116D01*
X140177147Y-57246561D01*
X140209848Y-57181160D01*
X140219571Y-57166031D01*
X140219571Y-57150700D01*
X140222285Y-57135617D01*
X140219571Y-57129073D01*
X140219571Y-56885733D01*
X140409715Y-56885733D01*
X140412429Y-56892276D01*
X140412429Y-57101873D01*
X140410498Y-57119758D01*
X140417354Y-57133471D01*
X140421672Y-57148174D01*
X140427025Y-57152812D01*
X140454237Y-57207235D01*
X140456919Y-57219564D01*
X140471531Y-57234176D01*
X140485608Y-57249310D01*
X140487026Y-57249672D01*
X140503935Y-57266582D01*
X140510381Y-57277434D01*
X140528888Y-57286687D01*
X140547003Y-57296579D01*
X140548462Y-57296474D01*
X140602658Y-57323572D01*
X140617788Y-57333295D01*
X140633119Y-57333295D01*
X140648202Y-57336009D01*
X140654746Y-57333295D01*
X140788151Y-57333295D01*
X140806035Y-57335226D01*
X140819748Y-57328369D01*
X140830933Y-57325084D01*
X140835910Y-57329397D01*
X140879505Y-57335665D01*
X140919569Y-57317369D01*
X140943381Y-57280317D01*
X140943381Y-57229635D01*
X140946498Y-57217445D01*
X140943381Y-57208065D01*
X140943381Y-56911173D01*
X141133189Y-56911173D01*
X141136238Y-56924137D01*
X141136238Y-56926220D01*
X141138697Y-56934597D01*
X141143272Y-56954047D01*
X141144859Y-56955582D01*
X141145481Y-56957698D01*
X141160564Y-56970767D01*
X141174935Y-56984663D01*
X141177100Y-56985096D01*
X141178767Y-56986540D01*
X141198521Y-56989380D01*
X141517191Y-57053113D01*
X141517191Y-57126303D01*
X141498193Y-57164297D01*
X141460200Y-57183295D01*
X141343229Y-57183295D01*
X141273230Y-57148296D01*
X141240942Y-57142486D01*
X141200259Y-57159360D01*
X141175156Y-57195549D01*
X141173604Y-57239566D01*
X141196095Y-57277434D01*
X141288372Y-57323572D01*
X141303502Y-57333295D01*
X141318833Y-57333295D01*
X141333916Y-57336009D01*
X141340460Y-57333295D01*
X141473865Y-57333295D01*
X141491749Y-57335226D01*
X141505462Y-57328369D01*
X141520165Y-57324052D01*
X141524803Y-57318698D01*
X141570547Y-57295826D01*
X141573460Y-57295929D01*
X141590056Y-57286071D01*
X141597280Y-57282460D01*
X141599297Y-57280583D01*
X141611328Y-57273438D01*
X141615109Y-57265875D01*
X141621301Y-57260116D01*
X141624767Y-57246560D01*
X141657468Y-57181158D01*
X141667191Y-57166031D01*
X141667191Y-57150701D01*
X141669905Y-57135619D01*
X141667191Y-57129075D01*
X141667191Y-57004507D01*
X141670240Y-56995893D01*
X141667191Y-56982929D01*
X141667191Y-56912264D01*
X141818850Y-56912264D01*
X141821952Y-56924671D01*
X141821952Y-56926220D01*
X141824556Y-56935090D01*
X141859046Y-57073050D01*
X141858117Y-57081663D01*
X141864283Y-57093995D01*
X141864902Y-57096470D01*
X141869087Y-57103602D01*
X141901855Y-57169139D01*
X141904538Y-57181470D01*
X141919159Y-57196091D01*
X141933227Y-57211215D01*
X141934645Y-57211577D01*
X141993443Y-57270376D01*
X142004724Y-57284387D01*
X142019265Y-57289234D01*
X142032718Y-57296580D01*
X142039786Y-57296074D01*
X142130981Y-57326472D01*
X142141597Y-57333295D01*
X142162277Y-57333295D01*
X142182916Y-57334041D01*
X142184175Y-57333295D01*
X142348735Y-57333295D01*
X142365219Y-57335665D01*
X142380371Y-57328745D01*
X142396355Y-57324052D01*
X142400091Y-57319739D01*
X142405283Y-57317369D01*
X142414290Y-57303352D01*
X142425197Y-57290766D01*
X142426008Y-57285119D01*
X142429095Y-57280317D01*
X142429095Y-57263654D01*
X142431465Y-57247171D01*
X142429095Y-57241981D01*
X142429095Y-56463654D01*
X142431465Y-56447171D01*
X142424545Y-56432018D01*
X142419852Y-56416035D01*
X142415539Y-56412298D01*
X142413169Y-56407107D01*
X142399152Y-56398099D01*
X142386566Y-56387193D01*
X142380919Y-56386381D01*
X142376117Y-56383295D01*
X142359455Y-56383295D01*
X142342971Y-56380925D01*
X142337781Y-56383295D01*
X142173022Y-56383295D01*
X142160794Y-56380180D01*
X142141179Y-56386718D01*
X142121359Y-56392538D01*
X142120400Y-56393644D01*
X142029443Y-56423962D01*
X142011872Y-56427785D01*
X142001032Y-56438624D01*
X141988448Y-56447371D01*
X141985740Y-56453916D01*
X141926759Y-56512897D01*
X141915909Y-56519342D01*
X141906660Y-56537840D01*
X141896763Y-56555965D01*
X141896867Y-56557425D01*
X141873939Y-56603282D01*
X141867629Y-56609216D01*
X141864284Y-56622592D01*
X141863144Y-56624874D01*
X141861679Y-56633014D01*
X141827184Y-56770987D01*
X141821952Y-56779130D01*
X141821952Y-56791918D01*
X141821576Y-56793422D01*
X141821952Y-56802667D01*
X141821952Y-56903095D01*
X141818850Y-56912264D01*
X141667191Y-56912264D01*
X141667191Y-56843280D01*
X141669121Y-56825402D01*
X141662265Y-56811692D01*
X141657948Y-56796987D01*
X141652593Y-56792347D01*
X141629721Y-56746604D01*
X141629824Y-56743692D01*
X141619966Y-56727095D01*
X141616355Y-56719872D01*
X141614478Y-56717854D01*
X141607333Y-56705824D01*
X141599768Y-56702041D01*
X141594010Y-56695851D01*
X141580456Y-56692385D01*
X141515055Y-56659683D01*
X141499927Y-56649961D01*
X141484598Y-56649961D01*
X141469515Y-56647247D01*
X141462971Y-56649961D01*
X141329558Y-56649961D01*
X141311679Y-56648031D01*
X141297968Y-56654886D01*
X141283264Y-56659204D01*
X141278624Y-56664558D01*
X141232880Y-56687430D01*
X141229968Y-56687328D01*
X141213368Y-56697186D01*
X141206148Y-56700797D01*
X141204131Y-56702672D01*
X141192099Y-56709819D01*
X141188316Y-56717384D01*
X141182127Y-56723142D01*
X141178661Y-56736693D01*
X141145961Y-56802095D01*
X141136238Y-56817225D01*
X141136238Y-56832555D01*
X141133524Y-56847638D01*
X141136238Y-56854181D01*
X141136238Y-56902558D01*
X141133189Y-56911173D01*
X140943381Y-56911173D01*
X140943381Y-56764354D01*
X140944110Y-56743692D01*
X140943381Y-56742464D01*
X140943381Y-56447513D01*
X140934138Y-56416035D01*
X140900852Y-56387193D01*
X140857257Y-56380925D01*
X140817193Y-56399221D01*
X140793381Y-56436273D01*
X140793381Y-56648970D01*
X140783801Y-56647247D01*
X140777257Y-56649961D01*
X140643844Y-56649961D01*
X140625965Y-56648031D01*
X140612254Y-56654886D01*
X140597550Y-56659204D01*
X140592910Y-56664558D01*
X140538488Y-56691769D01*
X140526158Y-56694452D01*
X140511533Y-56709076D01*
X140496413Y-56723142D01*
X140496050Y-56724559D01*
X140479139Y-56741470D01*
X140468290Y-56747914D01*
X140459040Y-56766413D01*
X140449144Y-56784537D01*
X140449248Y-56785997D01*
X140422152Y-56840190D01*
X140412429Y-56855320D01*
X140412429Y-56870650D01*
X140409715Y-56885733D01*
X140219571Y-56885733D01*
X140219571Y-56714179D01*
X140210328Y-56682701D01*
X140177042Y-56653859D01*
X140133447Y-56647591D01*
X140093383Y-56665887D01*
X140069571Y-56702939D01*
X140069571Y-57126303D01*
X140050574Y-57164298D01*
X140012581Y-57183295D01*
X139933705Y-57183295D01*
X139884235Y-57158560D01*
X139876714Y-57151038D01*
X139876714Y-56714179D01*
X139867471Y-56682701D01*
X139834185Y-56653859D01*
X139790590Y-56647591D01*
X139750526Y-56665887D01*
X139726714Y-56702939D01*
X139726714Y-57168572D01*
X139723747Y-57176527D01*
X139507402Y-57176527D01*
X139524131Y-57143069D01*
X139533857Y-57127936D01*
X139533857Y-57112603D01*
X139536571Y-57097524D01*
X139533857Y-57090980D01*
X139533857Y-56881375D01*
X139535787Y-56863497D01*
X139528931Y-56849787D01*
X139524614Y-56835082D01*
X139519259Y-56830442D01*
X139492048Y-56776021D01*
X139489366Y-56763691D01*
X139474741Y-56749066D01*
X139460676Y-56733946D01*
X139459258Y-56733583D01*
X139442346Y-56716671D01*
X139435904Y-56705824D01*
X139417416Y-56696579D01*
X139399281Y-56686677D01*
X139397820Y-56686781D01*
X139343626Y-56659683D01*
X139328498Y-56649961D01*
X139313169Y-56649961D01*
X139298086Y-56647247D01*
X139291542Y-56649961D01*
X139158129Y-56649961D01*
X139140250Y-56648031D01*
X139126539Y-56654886D01*
X139115351Y-56658171D01*
X139110375Y-56653859D01*
X139066780Y-56647591D01*
X139026716Y-56665887D01*
X139002904Y-56702939D01*
X139002904Y-56753622D01*
X138999787Y-56765812D01*
X138440642Y-56765812D01*
X138440642Y-55969214D01*
X142991358Y-55969214D01*
X142991358Y-57822786D01*
G37*
G36*
X139983744Y-63814295D02*
G01*
X139880438Y-63814295D01*
X139794494Y-63785647D01*
X139739432Y-63730583D01*
X139710461Y-63672642D01*
X139676601Y-63537202D01*
X139676601Y-63441383D01*
X139710460Y-63305948D01*
X139739431Y-63248006D01*
X139794495Y-63192942D01*
X139880440Y-63164295D01*
X139983744Y-63164295D01*
X139983744Y-63814295D01*
G37*
G36*
X141621839Y-62145342D02*
G01*
X141513215Y-62145342D01*
X141498305Y-62142593D01*
X141491595Y-62145342D01*
X141409783Y-62145342D01*
X141360313Y-62120607D01*
X141339430Y-62099724D01*
X141314696Y-62050255D01*
X141314696Y-61971381D01*
X141339431Y-61921911D01*
X141360313Y-61901029D01*
X141409782Y-61876295D01*
X141621839Y-61876295D01*
X141621839Y-62145342D01*
G37*
G36*
X140059934Y-62526295D02*
G01*
X139956628Y-62526295D01*
X139870684Y-62497647D01*
X139815622Y-62442583D01*
X139786651Y-62384642D01*
X139752791Y-62249202D01*
X139752791Y-62153383D01*
X139786650Y-62017948D01*
X139815621Y-61960006D01*
X139870685Y-61904942D01*
X139956630Y-61876295D01*
X140059934Y-61876295D01*
X140059934Y-62526295D01*
G37*
G36*
X140250410Y-61238295D02*
G01*
X140147104Y-61238295D01*
X140061160Y-61209647D01*
X140006098Y-61154583D01*
X139977127Y-61096642D01*
X139943267Y-60961202D01*
X139943267Y-60865383D01*
X139977126Y-60729948D01*
X140006097Y-60672006D01*
X140061161Y-60616942D01*
X140147106Y-60588295D01*
X140250410Y-60588295D01*
X140250410Y-61238295D01*
G37*
G36*
X140212315Y-59569342D02*
G01*
X140103691Y-59569342D01*
X140088781Y-59566593D01*
X140082071Y-59569342D01*
X140000259Y-59569342D01*
X139950789Y-59544607D01*
X139929906Y-59523724D01*
X139905172Y-59474255D01*
X139905172Y-59395381D01*
X139929907Y-59345911D01*
X139950789Y-59325029D01*
X140000258Y-59300295D01*
X140212315Y-59300295D01*
X140212315Y-59569342D01*
G37*
G36*
X141621839Y-59950295D02*
G01*
X141518533Y-59950295D01*
X141432589Y-59921647D01*
X141377527Y-59866583D01*
X141348556Y-59808642D01*
X141314696Y-59673202D01*
X141314696Y-59577383D01*
X141348555Y-59441948D01*
X141377526Y-59384006D01*
X141432590Y-59328942D01*
X141518535Y-59300295D01*
X141621839Y-59300295D01*
X141621839Y-59950295D01*
G37*
G36*
X141621839Y-58281342D02*
G01*
X141513215Y-58281342D01*
X141498305Y-58278593D01*
X141491595Y-58281342D01*
X141409783Y-58281342D01*
X141360313Y-58256607D01*
X141339430Y-58235724D01*
X141314696Y-58186255D01*
X141314696Y-58107381D01*
X141339431Y-58057911D01*
X141360313Y-58037029D01*
X141409782Y-58012295D01*
X141621839Y-58012295D01*
X141621839Y-58281342D01*
G37*
G36*
X142325286Y-65741786D02*
G01*
X138993619Y-65741786D01*
X138993619Y-64842829D01*
X139828649Y-64842829D01*
X139831363Y-64849372D01*
X139831363Y-65020873D01*
X139829432Y-65038758D01*
X139836288Y-65052471D01*
X139840606Y-65067174D01*
X139845959Y-65071812D01*
X139873171Y-65126235D01*
X139875853Y-65138564D01*
X139890465Y-65153176D01*
X139904542Y-65168310D01*
X139905960Y-65168672D01*
X139922869Y-65185582D01*
X139929315Y-65196434D01*
X139947822Y-65205687D01*
X139965937Y-65215579D01*
X139967396Y-65215474D01*
X140021592Y-65242572D01*
X140036722Y-65252295D01*
X140052053Y-65252295D01*
X140067136Y-65255009D01*
X140073680Y-65252295D01*
X140283278Y-65252295D01*
X140301159Y-65254226D01*
X140314872Y-65247369D01*
X140329575Y-65243052D01*
X140334213Y-65237698D01*
X140388636Y-65210486D01*
X140400968Y-65207804D01*
X140415591Y-65193180D01*
X140430712Y-65179116D01*
X140431074Y-65177696D01*
X140462259Y-65146512D01*
X140477981Y-65117718D01*
X140474838Y-65073787D01*
X140448443Y-65038529D01*
X140407176Y-65023137D01*
X140364139Y-65032500D01*
X140319078Y-65077561D01*
X140269611Y-65102295D01*
X140076449Y-65102295D01*
X140026979Y-65077560D01*
X140006098Y-65056678D01*
X139981363Y-65007208D01*
X139981363Y-64852143D01*
X140006097Y-64802673D01*
X140026979Y-64781791D01*
X140076448Y-64757057D01*
X140151205Y-64757057D01*
X140151370Y-64757162D01*
X140173081Y-64757057D01*
X140183811Y-64757057D01*
X140183990Y-64757004D01*
X140195413Y-64756949D01*
X140204682Y-64750928D01*
X140215289Y-64747814D01*
X140222769Y-64739180D01*
X140232349Y-64732959D01*
X140236893Y-64722881D01*
X140244131Y-64714528D01*
X140245756Y-64703224D01*
X140250453Y-64692808D01*
X140248826Y-64681870D01*
X140250399Y-64670933D01*
X140245654Y-64660544D01*
X140243974Y-64649243D01*
X140243277Y-64648447D01*
X140552135Y-64648447D01*
X140744899Y-65188186D01*
X140744509Y-65194977D01*
X140752177Y-65208565D01*
X140753645Y-65212674D01*
X140757450Y-65217908D01*
X140766156Y-65233334D01*
X140770228Y-65235484D01*
X140772936Y-65239209D01*
X140789441Y-65245629D01*
X140805103Y-65253899D01*
X140809691Y-65253506D01*
X140813984Y-65255176D01*
X140831336Y-65251654D01*
X140848986Y-65250144D01*
X140852635Y-65247331D01*
X140857147Y-65246416D01*
X140869841Y-65234072D01*
X140883873Y-65223259D01*
X140885421Y-65218921D01*
X140888724Y-65215711D01*
X140892729Y-65198460D01*
X141019740Y-64842829D01*
X141200078Y-64842829D01*
X141202792Y-64849372D01*
X141202792Y-65020873D01*
X141200861Y-65038758D01*
X141207717Y-65052471D01*
X141212035Y-65067174D01*
X141217388Y-65071812D01*
X141244600Y-65126235D01*
X141247282Y-65138564D01*
X141261894Y-65153176D01*
X141275971Y-65168310D01*
X141277389Y-65168672D01*
X141294298Y-65185582D01*
X141300744Y-65196434D01*
X141319251Y-65205687D01*
X141337366Y-65215579D01*
X141338825Y-65215474D01*
X141393021Y-65242572D01*
X141408151Y-65252295D01*
X141423482Y-65252295D01*
X141438565Y-65255009D01*
X141445109Y-65252295D01*
X141654707Y-65252295D01*
X141672588Y-65254226D01*
X141686301Y-65247369D01*
X141701004Y-65243052D01*
X141705642Y-65237698D01*
X141760065Y-65210486D01*
X141772397Y-65207804D01*
X141787020Y-65193180D01*
X141802141Y-65179116D01*
X141802503Y-65177696D01*
X141833688Y-65146512D01*
X141849410Y-65117718D01*
X141846267Y-65073787D01*
X141819872Y-65038529D01*
X141778605Y-65023137D01*
X141735568Y-65032500D01*
X141690507Y-65077561D01*
X141641040Y-65102295D01*
X141447878Y-65102295D01*
X141398408Y-65077560D01*
X141377527Y-65056678D01*
X141352792Y-65007208D01*
X141352792Y-64852143D01*
X141377526Y-64802673D01*
X141398408Y-64781791D01*
X141447877Y-64757057D01*
X141522634Y-64757057D01*
X141522799Y-64757162D01*
X141544510Y-64757057D01*
X141555240Y-64757057D01*
X141555419Y-64757004D01*
X141566842Y-64756949D01*
X141576111Y-64750928D01*
X141586718Y-64747814D01*
X141594198Y-64739180D01*
X141603778Y-64732959D01*
X141608322Y-64722881D01*
X141615560Y-64714528D01*
X141617185Y-64703224D01*
X141621882Y-64692808D01*
X141620255Y-64681870D01*
X141621828Y-64670933D01*
X141617083Y-64660544D01*
X141615403Y-64649243D01*
X141608123Y-64640923D01*
X141603532Y-64630869D01*
X141593921Y-64624692D01*
X141443074Y-64452295D01*
X141783812Y-64452295D01*
X141815290Y-64443052D01*
X141844132Y-64409766D01*
X141850400Y-64366171D01*
X141832104Y-64326107D01*
X141795052Y-64302295D01*
X141299616Y-64302295D01*
X141299451Y-64302190D01*
X141277740Y-64302295D01*
X141267010Y-64302295D01*
X141266830Y-64302347D01*
X141255408Y-64302403D01*
X141246138Y-64308423D01*
X141235532Y-64311538D01*
X141228051Y-64320171D01*
X141218472Y-64326393D01*
X141213928Y-64336469D01*
X141206690Y-64344824D01*
X141205064Y-64356130D01*
X141200369Y-64366545D01*
X141201994Y-64377479D01*
X141200422Y-64388419D01*
X141205166Y-64398808D01*
X141206847Y-64410110D01*
X141214127Y-64418430D01*
X141218718Y-64428483D01*
X141228326Y-64434658D01*
X141387589Y-64616673D01*
X141383273Y-64621654D01*
X141328853Y-64648864D01*
X141316521Y-64651547D01*
X141301893Y-64666174D01*
X141286776Y-64680236D01*
X141286413Y-64681654D01*
X141269503Y-64698564D01*
X141258653Y-64705009D01*
X141249404Y-64723507D01*
X141239507Y-64741632D01*
X141239611Y-64743092D01*
X141212514Y-64797286D01*
X141202792Y-64812416D01*
X141202792Y-64827746D01*
X141200078Y-64842829D01*
X141019740Y-64842829D01*
X141085382Y-64659032D01*
X141087265Y-64626279D01*
X141065618Y-64587922D01*
X141026671Y-64567357D01*
X140982788Y-64571112D01*
X140947901Y-64597997D01*
X140820648Y-64954304D01*
X140697176Y-64608582D01*
X140677884Y-64582046D01*
X140636837Y-64566080D01*
X140593674Y-64574840D01*
X140562097Y-64605545D01*
X140552135Y-64648447D01*
X140243277Y-64648447D01*
X140236694Y-64640923D01*
X140232103Y-64630869D01*
X140222492Y-64624692D01*
X140071645Y-64452295D01*
X140412383Y-64452295D01*
X140443861Y-64443052D01*
X140472703Y-64409766D01*
X140478971Y-64366171D01*
X140460675Y-64326107D01*
X140423623Y-64302295D01*
X139928187Y-64302295D01*
X139928022Y-64302190D01*
X139906311Y-64302295D01*
X139895581Y-64302295D01*
X139895401Y-64302347D01*
X139883979Y-64302403D01*
X139874709Y-64308423D01*
X139864103Y-64311538D01*
X139856622Y-64320171D01*
X139847043Y-64326393D01*
X139842499Y-64336469D01*
X139835261Y-64344824D01*
X139833635Y-64356130D01*
X139828940Y-64366545D01*
X139830565Y-64377479D01*
X139828993Y-64388419D01*
X139833737Y-64398808D01*
X139835418Y-64410110D01*
X139842698Y-64418430D01*
X139847289Y-64428483D01*
X139856897Y-64434658D01*
X140016160Y-64616673D01*
X140011844Y-64621654D01*
X139957424Y-64648864D01*
X139945092Y-64651547D01*
X139930464Y-64666174D01*
X139915347Y-64680236D01*
X139914984Y-64681654D01*
X139898074Y-64698564D01*
X139887224Y-64705009D01*
X139877975Y-64723507D01*
X139868078Y-64741632D01*
X139868182Y-64743092D01*
X139841085Y-64797286D01*
X139831363Y-64812416D01*
X139831363Y-64827746D01*
X139828649Y-64842829D01*
X138993619Y-64842829D01*
X138993619Y-63543264D01*
X139523499Y-63543264D01*
X139526601Y-63555671D01*
X139526601Y-63557220D01*
X139529205Y-63566090D01*
X139563695Y-63704050D01*
X139562766Y-63712663D01*
X139568932Y-63724995D01*
X139569551Y-63727470D01*
X139573736Y-63734602D01*
X139606504Y-63800139D01*
X139609187Y-63812470D01*
X139623808Y-63827091D01*
X139637876Y-63842215D01*
X139639294Y-63842577D01*
X139698092Y-63901376D01*
X139709373Y-63915387D01*
X139723914Y-63920234D01*
X139737367Y-63927580D01*
X139744435Y-63927074D01*
X139835630Y-63957472D01*
X139846246Y-63964295D01*
X139866926Y-63964295D01*
X139887565Y-63965041D01*
X139888824Y-63964295D01*
X140053384Y-63964295D01*
X140069868Y-63966665D01*
X140085020Y-63959745D01*
X140101004Y-63955052D01*
X140104740Y-63950739D01*
X140109932Y-63948369D01*
X140118939Y-63934352D01*
X140129846Y-63921766D01*
X140130657Y-63916119D01*
X140133744Y-63911317D01*
X140133744Y-63894654D01*
X140133930Y-63893362D01*
X140361636Y-63893362D01*
X140368284Y-63912296D01*
X140373939Y-63931555D01*
X140375529Y-63932933D01*
X140376227Y-63934919D01*
X140392057Y-63947254D01*
X140407225Y-63960397D01*
X140409308Y-63960696D01*
X140410968Y-63961990D01*
X140430958Y-63963809D01*
X140450820Y-63966665D01*
X140452733Y-63965791D01*
X140454831Y-63965982D01*
X140472635Y-63956702D01*
X140490884Y-63948369D01*
X140492021Y-63946598D01*
X140493888Y-63945626D01*
X140503844Y-63928202D01*
X140514696Y-63911317D01*
X140514696Y-63909212D01*
X140821839Y-63371712D01*
X140821839Y-63900077D01*
X140831082Y-63931555D01*
X140864368Y-63960397D01*
X140907963Y-63966665D01*
X140948027Y-63948369D01*
X140971839Y-63911317D01*
X140971839Y-63807528D01*
X141161729Y-63807528D01*
X141164696Y-63821167D01*
X141164696Y-63823886D01*
X141166977Y-63831657D01*
X141171091Y-63850565D01*
X141173127Y-63852601D01*
X141173939Y-63855364D01*
X141188552Y-63868026D01*
X141221904Y-63901378D01*
X141233183Y-63915387D01*
X141247724Y-63920234D01*
X141261177Y-63927580D01*
X141268244Y-63927074D01*
X141359439Y-63957472D01*
X141370055Y-63964295D01*
X141390735Y-63964295D01*
X141411374Y-63965041D01*
X141412633Y-63964295D01*
X141458865Y-63964295D01*
X141471093Y-63967410D01*
X141490707Y-63960871D01*
X141510528Y-63955052D01*
X141511486Y-63953945D01*
X141602442Y-63923627D01*
X141620016Y-63919805D01*
X141630857Y-63908963D01*
X141643439Y-63900219D01*
X141646146Y-63893673D01*
X141705128Y-63834690D01*
X141715978Y-63828247D01*
X141725226Y-63809748D01*
X141735124Y-63791623D01*
X141735019Y-63790163D01*
X141757947Y-63744307D01*
X141764258Y-63738374D01*
X141767602Y-63724997D01*
X141768743Y-63722716D01*
X141770207Y-63714575D01*
X141804702Y-63576602D01*
X141809935Y-63568460D01*
X141809935Y-63555671D01*
X141810311Y-63554168D01*
X141809935Y-63544921D01*
X141809935Y-63444494D01*
X141813037Y-63435326D01*
X141809935Y-63422918D01*
X141809935Y-63421370D01*
X141807330Y-63412499D01*
X141772840Y-63274540D01*
X141773770Y-63265928D01*
X141767604Y-63253596D01*
X141766985Y-63251120D01*
X141762797Y-63243982D01*
X141730031Y-63178451D01*
X141727349Y-63166119D01*
X141712721Y-63151491D01*
X141698660Y-63136374D01*
X141697241Y-63136011D01*
X141638442Y-63077212D01*
X141627163Y-63063203D01*
X141612621Y-63058355D01*
X141599169Y-63051010D01*
X141592101Y-63051515D01*
X141500905Y-63021117D01*
X141490290Y-63014295D01*
X141469610Y-63014295D01*
X141448971Y-63013549D01*
X141447712Y-63014295D01*
X141358022Y-63014295D01*
X141340138Y-63012364D01*
X141326424Y-63019220D01*
X141311722Y-63023538D01*
X141307083Y-63028891D01*
X141234607Y-63065130D01*
X141210586Y-63087474D01*
X141199675Y-63130145D01*
X141213565Y-63171941D01*
X141247847Y-63199593D01*
X141291636Y-63204321D01*
X141371687Y-63164295D01*
X141456098Y-63164295D01*
X141542040Y-63192942D01*
X141597104Y-63248006D01*
X141626074Y-63305945D01*
X141659935Y-63441387D01*
X141659935Y-63537206D01*
X141626075Y-63672640D01*
X141597104Y-63730582D01*
X141542040Y-63785647D01*
X141456096Y-63814295D01*
X141404247Y-63814295D01*
X141318305Y-63785647D01*
X141314696Y-63782038D01*
X141314696Y-63621438D01*
X141402859Y-63621438D01*
X141434337Y-63612195D01*
X141463179Y-63578909D01*
X141469447Y-63535314D01*
X141451151Y-63495250D01*
X141414099Y-63471438D01*
X141245056Y-63471438D01*
X141228572Y-63469068D01*
X141213419Y-63475987D01*
X141197436Y-63480681D01*
X141193699Y-63484993D01*
X141188508Y-63487364D01*
X141179500Y-63501380D01*
X141168594Y-63513967D01*
X141167782Y-63519613D01*
X141164696Y-63524416D01*
X141164696Y-63541078D01*
X141162326Y-63557562D01*
X141164696Y-63562751D01*
X141164696Y-63799573D01*
X141161729Y-63807528D01*
X140971839Y-63807528D01*
X140971839Y-63098091D01*
X140974899Y-63085228D01*
X140968250Y-63066293D01*
X140962596Y-63047035D01*
X140961005Y-63045656D01*
X140960308Y-63043671D01*
X140944477Y-63031335D01*
X140929310Y-63018193D01*
X140927226Y-63017893D01*
X140925567Y-63016600D01*
X140905576Y-63014780D01*
X140885715Y-63011925D01*
X140883801Y-63012798D01*
X140881704Y-63012608D01*
X140863899Y-63021887D01*
X140845651Y-63030221D01*
X140844513Y-63031991D01*
X140842647Y-63032964D01*
X140832690Y-63050387D01*
X140821839Y-63067273D01*
X140821839Y-63069377D01*
X140514696Y-63606877D01*
X140514696Y-63078513D01*
X140505453Y-63047035D01*
X140472167Y-63018193D01*
X140428572Y-63011925D01*
X140388508Y-63030221D01*
X140364696Y-63067273D01*
X140364696Y-63880498D01*
X140361636Y-63893362D01*
X140133930Y-63893362D01*
X140136114Y-63878171D01*
X140133744Y-63872981D01*
X140133744Y-63094654D01*
X140136114Y-63078171D01*
X140129194Y-63063018D01*
X140124501Y-63047035D01*
X140120188Y-63043298D01*
X140117818Y-63038107D01*
X140103801Y-63029099D01*
X140091215Y-63018193D01*
X140085568Y-63017381D01*
X140080766Y-63014295D01*
X140064104Y-63014295D01*
X140047620Y-63011925D01*
X140042430Y-63014295D01*
X139877671Y-63014295D01*
X139865443Y-63011180D01*
X139845828Y-63017718D01*
X139826008Y-63023538D01*
X139825049Y-63024644D01*
X139734092Y-63054962D01*
X139716521Y-63058785D01*
X139705681Y-63069624D01*
X139693097Y-63078371D01*
X139690389Y-63084916D01*
X139631408Y-63143897D01*
X139620558Y-63150342D01*
X139611309Y-63168840D01*
X139601412Y-63186965D01*
X139601516Y-63188425D01*
X139578588Y-63234282D01*
X139572278Y-63240216D01*
X139568933Y-63253592D01*
X139567793Y-63255874D01*
X139566328Y-63264014D01*
X139531833Y-63401987D01*
X139526601Y-63410130D01*
X139526601Y-63422918D01*
X139526225Y-63424422D01*
X139526601Y-63433667D01*
X139526601Y-63534095D01*
X139523499Y-63543264D01*
X138993619Y-63543264D01*
X138993619Y-62255264D01*
X139599689Y-62255264D01*
X139602791Y-62267671D01*
X139602791Y-62269220D01*
X139605395Y-62278090D01*
X139639885Y-62416050D01*
X139638956Y-62424663D01*
X139645122Y-62436995D01*
X139645741Y-62439470D01*
X139649926Y-62446602D01*
X139682694Y-62512139D01*
X139685377Y-62524470D01*
X139699998Y-62539091D01*
X139714066Y-62554215D01*
X139715484Y-62554577D01*
X139774282Y-62613376D01*
X139785563Y-62627387D01*
X139800104Y-62632234D01*
X139813557Y-62639580D01*
X139820625Y-62639074D01*
X139911820Y-62669472D01*
X139922436Y-62676295D01*
X139943116Y-62676295D01*
X139963755Y-62677041D01*
X139965014Y-62676295D01*
X140129574Y-62676295D01*
X140146058Y-62678665D01*
X140161210Y-62671745D01*
X140177194Y-62667052D01*
X140180930Y-62662739D01*
X140186122Y-62660369D01*
X140195129Y-62646352D01*
X140206036Y-62633766D01*
X140206847Y-62628119D01*
X140209934Y-62623317D01*
X140209934Y-62606654D01*
X140210893Y-62599982D01*
X140361541Y-62599982D01*
X140373238Y-62642444D01*
X140406035Y-62671841D01*
X140449519Y-62678842D01*
X140489884Y-62661221D01*
X140706363Y-62336503D01*
X140916607Y-62651869D01*
X140941759Y-62672933D01*
X140985453Y-62678467D01*
X141025203Y-62659500D01*
X141048390Y-62622054D01*
X141047989Y-62598207D01*
X141161591Y-62598207D01*
X141172320Y-62640923D01*
X141204440Y-62671058D01*
X141247754Y-62679045D01*
X141288510Y-62662346D01*
X141545412Y-62295342D01*
X141621839Y-62295342D01*
X141621839Y-62612077D01*
X141631082Y-62643555D01*
X141664368Y-62672397D01*
X141707963Y-62678665D01*
X141748027Y-62660369D01*
X141771839Y-62623317D01*
X141771839Y-62225701D01*
X141774209Y-62209218D01*
X141771839Y-62204028D01*
X141771839Y-61806654D01*
X141774209Y-61790171D01*
X141767289Y-61775018D01*
X141762596Y-61759035D01*
X141758283Y-61755298D01*
X141755913Y-61750107D01*
X141741896Y-61741099D01*
X141729310Y-61730193D01*
X141723663Y-61729381D01*
X141718861Y-61726295D01*
X141702199Y-61726295D01*
X141685715Y-61723925D01*
X141680525Y-61726295D01*
X141396117Y-61726295D01*
X141378233Y-61724364D01*
X141364519Y-61731220D01*
X141349817Y-61735538D01*
X141345178Y-61740891D01*
X141290756Y-61768102D01*
X141278426Y-61770785D01*
X141263806Y-61785404D01*
X141248681Y-61799474D01*
X141248318Y-61800892D01*
X141231406Y-61817804D01*
X141220559Y-61824247D01*
X141211315Y-61842732D01*
X141201412Y-61860870D01*
X141201516Y-61862330D01*
X141174418Y-61916526D01*
X141164696Y-61931654D01*
X141164696Y-61946983D01*
X141161982Y-61962067D01*
X141164696Y-61968610D01*
X141164696Y-62063920D01*
X141162765Y-62081805D01*
X141169621Y-62095518D01*
X141173939Y-62110221D01*
X141179292Y-62114860D01*
X141206504Y-62169282D01*
X141209187Y-62181613D01*
X141223811Y-62196237D01*
X141237877Y-62211358D01*
X141239294Y-62211720D01*
X141256205Y-62228631D01*
X141262649Y-62239481D01*
X141281157Y-62248734D01*
X141299272Y-62258626D01*
X141300730Y-62258521D01*
X141354925Y-62285618D01*
X141364715Y-62291910D01*
X141172071Y-62567118D01*
X141161591Y-62598207D01*
X141047989Y-62598207D01*
X141047650Y-62578016D01*
X140796502Y-62201294D01*
X141041415Y-61833926D01*
X141051185Y-61802608D01*
X141039488Y-61760146D01*
X141006692Y-61730749D01*
X140963208Y-61723748D01*
X140922842Y-61741369D01*
X140706363Y-62066086D01*
X140496119Y-61750721D01*
X140470967Y-61729657D01*
X140427273Y-61724123D01*
X140387523Y-61743090D01*
X140364337Y-61780536D01*
X140365077Y-61824574D01*
X140616224Y-62201294D01*
X140371311Y-62568664D01*
X140361541Y-62599982D01*
X140210893Y-62599982D01*
X140212304Y-62590171D01*
X140209934Y-62584981D01*
X140209934Y-61806654D01*
X140212304Y-61790171D01*
X140205384Y-61775018D01*
X140200691Y-61759035D01*
X140196378Y-61755298D01*
X140194008Y-61750107D01*
X140179991Y-61741099D01*
X140167405Y-61730193D01*
X140161758Y-61729381D01*
X140156956Y-61726295D01*
X140140294Y-61726295D01*
X140123810Y-61723925D01*
X140118620Y-61726295D01*
X139953861Y-61726295D01*
X139941633Y-61723180D01*
X139922018Y-61729718D01*
X139902198Y-61735538D01*
X139901239Y-61736644D01*
X139810282Y-61766962D01*
X139792711Y-61770785D01*
X139781871Y-61781624D01*
X139769287Y-61790371D01*
X139766579Y-61796916D01*
X139707598Y-61855897D01*
X139696748Y-61862342D01*
X139687499Y-61880840D01*
X139677602Y-61898965D01*
X139677706Y-61900425D01*
X139654778Y-61946282D01*
X139648468Y-61952216D01*
X139645123Y-61965592D01*
X139643983Y-61967874D01*
X139642518Y-61976014D01*
X139608023Y-62113987D01*
X139602791Y-62122130D01*
X139602791Y-62134918D01*
X139602415Y-62136422D01*
X139602791Y-62145667D01*
X139602791Y-62246095D01*
X139599689Y-62255264D01*
X138993619Y-62255264D01*
X138993619Y-60967264D01*
X139790165Y-60967264D01*
X139793267Y-60979671D01*
X139793267Y-60981220D01*
X139795871Y-60990090D01*
X139830361Y-61128050D01*
X139829432Y-61136663D01*
X139835598Y-61148995D01*
X139836217Y-61151470D01*
X139840402Y-61158602D01*
X139873170Y-61224139D01*
X139875853Y-61236470D01*
X139890474Y-61251091D01*
X139904542Y-61266215D01*
X139905960Y-61266577D01*
X139964758Y-61325376D01*
X139976039Y-61339387D01*
X139990580Y-61344234D01*
X140004033Y-61351580D01*
X140011101Y-61351074D01*
X140102296Y-61381472D01*
X140112912Y-61388295D01*
X140133592Y-61388295D01*
X140154231Y-61389041D01*
X140155490Y-61388295D01*
X140320050Y-61388295D01*
X140336534Y-61390665D01*
X140351686Y-61383745D01*
X140367670Y-61379052D01*
X140371406Y-61374739D01*
X140376598Y-61372369D01*
X140385605Y-61358352D01*
X140396512Y-61345766D01*
X140397323Y-61340119D01*
X140400410Y-61335317D01*
X140400410Y-61318654D01*
X140401369Y-61311982D01*
X140552017Y-61311982D01*
X140563714Y-61354444D01*
X140596511Y-61383841D01*
X140639995Y-61390842D01*
X140680360Y-61373221D01*
X140896839Y-61048503D01*
X141107083Y-61363869D01*
X141132235Y-61384933D01*
X141175929Y-61390467D01*
X141215679Y-61371500D01*
X141238866Y-61334054D01*
X141238126Y-61290016D01*
X140986978Y-60913294D01*
X141231891Y-60545926D01*
X141238600Y-60524419D01*
X141276612Y-60524419D01*
X141294908Y-60564483D01*
X141331960Y-60588295D01*
X141507554Y-60588295D01*
X141507554Y-61324077D01*
X141516797Y-61355555D01*
X141550083Y-61384397D01*
X141593678Y-61390665D01*
X141633742Y-61372369D01*
X141657554Y-61335317D01*
X141657554Y-60588295D01*
X141821907Y-60588295D01*
X141853385Y-60579052D01*
X141882227Y-60545766D01*
X141888495Y-60502171D01*
X141870199Y-60462107D01*
X141833147Y-60438295D01*
X141587914Y-60438295D01*
X141571430Y-60435925D01*
X141566240Y-60438295D01*
X141343200Y-60438295D01*
X141311722Y-60447538D01*
X141282880Y-60480824D01*
X141276612Y-60524419D01*
X141238600Y-60524419D01*
X141241661Y-60514608D01*
X141229964Y-60472146D01*
X141197168Y-60442749D01*
X141153684Y-60435748D01*
X141113318Y-60453369D01*
X140896839Y-60778086D01*
X140686595Y-60462721D01*
X140661443Y-60441657D01*
X140617749Y-60436123D01*
X140577999Y-60455090D01*
X140554813Y-60492536D01*
X140555553Y-60536574D01*
X140806700Y-60913294D01*
X140561787Y-61280664D01*
X140552017Y-61311982D01*
X140401369Y-61311982D01*
X140402780Y-61302171D01*
X140400410Y-61296981D01*
X140400410Y-60518654D01*
X140402780Y-60502171D01*
X140395860Y-60487018D01*
X140391167Y-60471035D01*
X140386854Y-60467298D01*
X140384484Y-60462107D01*
X140370467Y-60453099D01*
X140357881Y-60442193D01*
X140352234Y-60441381D01*
X140347432Y-60438295D01*
X140330770Y-60438295D01*
X140314286Y-60435925D01*
X140309096Y-60438295D01*
X140144337Y-60438295D01*
X140132109Y-60435180D01*
X140112494Y-60441718D01*
X140092674Y-60447538D01*
X140091715Y-60448644D01*
X140000758Y-60478962D01*
X139983187Y-60482785D01*
X139972347Y-60493624D01*
X139959763Y-60502371D01*
X139957055Y-60508916D01*
X139898074Y-60567897D01*
X139887224Y-60574342D01*
X139877975Y-60592840D01*
X139868078Y-60610965D01*
X139868182Y-60612425D01*
X139845254Y-60658282D01*
X139838944Y-60664216D01*
X139835599Y-60677592D01*
X139834459Y-60679874D01*
X139832994Y-60688014D01*
X139798499Y-60825987D01*
X139793267Y-60834130D01*
X139793267Y-60846918D01*
X139792891Y-60848422D01*
X139793267Y-60857667D01*
X139793267Y-60958095D01*
X139790165Y-60967264D01*
X138993619Y-60967264D01*
X138993619Y-60022207D01*
X139752067Y-60022207D01*
X139762796Y-60064923D01*
X139794916Y-60095058D01*
X139838230Y-60103045D01*
X139878986Y-60086346D01*
X140135888Y-59719342D01*
X140212315Y-59719342D01*
X140212315Y-60036077D01*
X140221558Y-60067555D01*
X140254844Y-60096397D01*
X140298439Y-60102665D01*
X140338503Y-60084369D01*
X140362315Y-60047317D01*
X140362315Y-59649701D01*
X140364685Y-59633218D01*
X140362315Y-59628028D01*
X140362315Y-59236419D01*
X140476612Y-59236419D01*
X140494908Y-59276483D01*
X140531960Y-59300295D01*
X140707554Y-59300295D01*
X140707554Y-60036077D01*
X140716797Y-60067555D01*
X140750083Y-60096397D01*
X140793678Y-60102665D01*
X140833742Y-60084369D01*
X140857554Y-60047317D01*
X140857554Y-59679264D01*
X141161594Y-59679264D01*
X141164696Y-59691671D01*
X141164696Y-59693220D01*
X141167300Y-59702090D01*
X141201790Y-59840050D01*
X141200861Y-59848663D01*
X141207027Y-59860995D01*
X141207646Y-59863470D01*
X141211831Y-59870602D01*
X141244599Y-59936139D01*
X141247282Y-59948470D01*
X141261903Y-59963091D01*
X141275971Y-59978215D01*
X141277389Y-59978577D01*
X141336187Y-60037376D01*
X141347468Y-60051387D01*
X141362009Y-60056234D01*
X141375462Y-60063580D01*
X141382530Y-60063074D01*
X141473725Y-60093472D01*
X141484341Y-60100295D01*
X141505021Y-60100295D01*
X141525660Y-60101041D01*
X141526919Y-60100295D01*
X141691479Y-60100295D01*
X141707963Y-60102665D01*
X141723115Y-60095745D01*
X141739099Y-60091052D01*
X141742835Y-60086739D01*
X141748027Y-60084369D01*
X141757034Y-60070352D01*
X141767941Y-60057766D01*
X141768752Y-60052119D01*
X141771839Y-60047317D01*
X141771839Y-60030654D01*
X141774209Y-60014171D01*
X141771839Y-60008981D01*
X141771839Y-59230654D01*
X141774209Y-59214171D01*
X141767289Y-59199018D01*
X141762596Y-59183035D01*
X141758283Y-59179298D01*
X141755913Y-59174107D01*
X141741896Y-59165099D01*
X141729310Y-59154193D01*
X141723663Y-59153381D01*
X141718861Y-59150295D01*
X141702199Y-59150295D01*
X141685715Y-59147925D01*
X141680525Y-59150295D01*
X141515766Y-59150295D01*
X141503538Y-59147180D01*
X141483923Y-59153718D01*
X141464103Y-59159538D01*
X141463144Y-59160644D01*
X141372187Y-59190962D01*
X141354616Y-59194785D01*
X141343776Y-59205624D01*
X141331192Y-59214371D01*
X141328484Y-59220916D01*
X141269503Y-59279897D01*
X141258653Y-59286342D01*
X141249404Y-59304840D01*
X141239507Y-59322965D01*
X141239611Y-59324425D01*
X141216683Y-59370282D01*
X141210373Y-59376216D01*
X141207028Y-59389592D01*
X141205888Y-59391874D01*
X141204423Y-59400014D01*
X141169928Y-59537987D01*
X141164696Y-59546130D01*
X141164696Y-59558918D01*
X141164320Y-59560422D01*
X141164696Y-59569667D01*
X141164696Y-59670095D01*
X141161594Y-59679264D01*
X140857554Y-59679264D01*
X140857554Y-59300295D01*
X141021907Y-59300295D01*
X141053385Y-59291052D01*
X141082227Y-59257766D01*
X141088495Y-59214171D01*
X141070199Y-59174107D01*
X141033147Y-59150295D01*
X140787914Y-59150295D01*
X140771430Y-59147925D01*
X140766240Y-59150295D01*
X140543200Y-59150295D01*
X140511722Y-59159538D01*
X140482880Y-59192824D01*
X140476612Y-59236419D01*
X140362315Y-59236419D01*
X140362315Y-59230654D01*
X140364685Y-59214171D01*
X140357765Y-59199018D01*
X140353072Y-59183035D01*
X140348759Y-59179298D01*
X140346389Y-59174107D01*
X140332372Y-59165099D01*
X140319786Y-59154193D01*
X140314139Y-59153381D01*
X140309337Y-59150295D01*
X140292675Y-59150295D01*
X140276191Y-59147925D01*
X140271001Y-59150295D01*
X139986593Y-59150295D01*
X139968709Y-59148364D01*
X139954995Y-59155220D01*
X139940293Y-59159538D01*
X139935654Y-59164891D01*
X139881232Y-59192102D01*
X139868902Y-59194785D01*
X139854282Y-59209404D01*
X139839157Y-59223474D01*
X139838794Y-59224892D01*
X139821882Y-59241804D01*
X139811035Y-59248247D01*
X139801791Y-59266732D01*
X139791888Y-59284870D01*
X139791992Y-59286330D01*
X139764894Y-59340526D01*
X139755172Y-59355654D01*
X139755172Y-59370983D01*
X139752458Y-59386067D01*
X139755172Y-59392610D01*
X139755172Y-59487920D01*
X139753241Y-59505805D01*
X139760097Y-59519518D01*
X139764415Y-59534221D01*
X139769768Y-59538860D01*
X139796980Y-59593282D01*
X139799663Y-59605613D01*
X139814287Y-59620237D01*
X139828353Y-59635358D01*
X139829770Y-59635720D01*
X139846681Y-59652631D01*
X139853125Y-59663481D01*
X139871633Y-59672734D01*
X139889748Y-59682626D01*
X139891206Y-59682521D01*
X139945401Y-59709618D01*
X139955191Y-59715910D01*
X139762547Y-59991118D01*
X139752067Y-60022207D01*
X138993619Y-60022207D01*
X138993619Y-57967070D01*
X139790546Y-57967070D01*
X139798386Y-58010410D01*
X139828413Y-58042632D01*
X139871093Y-58053505D01*
X139994725Y-58012295D01*
X140155324Y-58012295D01*
X140204793Y-58037029D01*
X140225675Y-58057911D01*
X140250411Y-58107381D01*
X140250411Y-58148160D01*
X140225675Y-58197630D01*
X140204793Y-58218512D01*
X140146852Y-58247482D01*
X140015416Y-58280341D01*
X140006804Y-58279412D01*
X139994473Y-58285577D01*
X139991999Y-58286196D01*
X139984864Y-58290381D01*
X139919327Y-58323150D01*
X139906997Y-58325833D01*
X139892372Y-58340457D01*
X139877252Y-58354523D01*
X139876889Y-58355940D01*
X139859978Y-58372851D01*
X139849129Y-58379295D01*
X139839879Y-58397794D01*
X139829983Y-58415918D01*
X139830087Y-58417378D01*
X139802991Y-58471571D01*
X139793268Y-58486701D01*
X139793268Y-58502031D01*
X139790554Y-58517114D01*
X139793268Y-58523657D01*
X139793268Y-58580873D01*
X139791337Y-58598758D01*
X139798193Y-58612471D01*
X139802511Y-58627174D01*
X139807864Y-58631812D01*
X139835076Y-58686235D01*
X139837758Y-58698564D01*
X139852370Y-58713176D01*
X139866447Y-58728310D01*
X139867865Y-58728672D01*
X139884774Y-58745582D01*
X139891220Y-58756434D01*
X139909727Y-58765687D01*
X139927842Y-58775579D01*
X139929301Y-58775474D01*
X139983497Y-58802572D01*
X139998627Y-58812295D01*
X140013958Y-58812295D01*
X140029041Y-58815009D01*
X140035585Y-58812295D01*
X140201722Y-58812295D01*
X140213950Y-58815410D01*
X140233564Y-58808871D01*
X140253385Y-58803052D01*
X140254343Y-58801945D01*
X140359357Y-58766942D01*
X140386296Y-58748219D01*
X140403133Y-58707520D01*
X140395293Y-58664180D01*
X140365267Y-58631958D01*
X140322586Y-58621085D01*
X140198953Y-58662295D01*
X140038354Y-58662295D01*
X139988884Y-58637560D01*
X139968003Y-58616678D01*
X139943268Y-58567208D01*
X139943268Y-58526428D01*
X139968002Y-58476959D01*
X139988884Y-58456077D01*
X140046825Y-58427106D01*
X140178260Y-58394247D01*
X140186874Y-58395178D01*
X140199207Y-58389011D01*
X140201680Y-58388393D01*
X140208808Y-58384210D01*
X140274350Y-58351439D01*
X140286681Y-58348757D01*
X140301300Y-58334137D01*
X140316426Y-58320068D01*
X140316788Y-58318649D01*
X140333700Y-58301737D01*
X140344548Y-58295295D01*
X140353795Y-58276801D01*
X140363694Y-58258672D01*
X140363589Y-58257212D01*
X140390688Y-58203015D01*
X140400411Y-58187888D01*
X140400411Y-58172558D01*
X140403125Y-58157476D01*
X140400411Y-58150932D01*
X140400411Y-58093710D01*
X140402341Y-58075831D01*
X140395485Y-58062120D01*
X140391168Y-58047416D01*
X140385813Y-58042776D01*
X140358602Y-57988354D01*
X140355920Y-57976024D01*
X140341295Y-57961399D01*
X140329221Y-57948419D01*
X140476612Y-57948419D01*
X140494908Y-57988483D01*
X140531960Y-58012295D01*
X140707554Y-58012295D01*
X140707554Y-58748077D01*
X140716797Y-58779555D01*
X140750083Y-58808397D01*
X140793678Y-58814665D01*
X140833742Y-58796369D01*
X140857554Y-58759317D01*
X140857554Y-58734207D01*
X141161591Y-58734207D01*
X141172320Y-58776923D01*
X141204440Y-58807058D01*
X141247754Y-58815045D01*
X141288510Y-58798346D01*
X141545412Y-58431342D01*
X141621839Y-58431342D01*
X141621839Y-58748077D01*
X141631082Y-58779555D01*
X141664368Y-58808397D01*
X141707963Y-58814665D01*
X141748027Y-58796369D01*
X141771839Y-58759317D01*
X141771839Y-58361701D01*
X141774209Y-58345218D01*
X141771839Y-58340028D01*
X141771839Y-57942654D01*
X141774209Y-57926171D01*
X141767289Y-57911018D01*
X141762596Y-57895035D01*
X141758283Y-57891298D01*
X141755913Y-57886107D01*
X141741896Y-57877099D01*
X141729310Y-57866193D01*
X141723663Y-57865381D01*
X141718861Y-57862295D01*
X141702199Y-57862295D01*
X141685715Y-57859925D01*
X141680525Y-57862295D01*
X141396117Y-57862295D01*
X141378233Y-57860364D01*
X141364519Y-57867220D01*
X141349817Y-57871538D01*
X141345178Y-57876891D01*
X141290756Y-57904102D01*
X141278426Y-57906785D01*
X141263806Y-57921404D01*
X141248681Y-57935474D01*
X141248318Y-57936892D01*
X141231406Y-57953804D01*
X141220559Y-57960247D01*
X141211315Y-57978732D01*
X141201412Y-57996870D01*
X141201516Y-57998330D01*
X141174418Y-58052526D01*
X141164696Y-58067654D01*
X141164696Y-58082983D01*
X141161982Y-58098067D01*
X141164696Y-58104610D01*
X141164696Y-58199920D01*
X141162765Y-58217805D01*
X141169621Y-58231518D01*
X141173939Y-58246221D01*
X141179292Y-58250860D01*
X141206504Y-58305282D01*
X141209187Y-58317613D01*
X141223811Y-58332237D01*
X141237877Y-58347358D01*
X141239294Y-58347720D01*
X141256205Y-58364631D01*
X141262649Y-58375481D01*
X141281157Y-58384734D01*
X141299272Y-58394626D01*
X141300730Y-58394521D01*
X141354925Y-58421618D01*
X141364715Y-58427910D01*
X141172071Y-58703118D01*
X141161591Y-58734207D01*
X140857554Y-58734207D01*
X140857554Y-58012295D01*
X141021907Y-58012295D01*
X141053385Y-58003052D01*
X141082227Y-57969766D01*
X141088495Y-57926171D01*
X141070199Y-57886107D01*
X141033147Y-57862295D01*
X140787914Y-57862295D01*
X140771430Y-57859925D01*
X140766240Y-57862295D01*
X140543200Y-57862295D01*
X140511722Y-57871538D01*
X140482880Y-57904824D01*
X140476612Y-57948419D01*
X140329221Y-57948419D01*
X140327230Y-57946279D01*
X140325812Y-57945916D01*
X140308901Y-57929005D01*
X140302458Y-57918156D01*
X140283958Y-57908906D01*
X140265835Y-57899010D01*
X140264374Y-57899114D01*
X140210181Y-57872018D01*
X140195052Y-57862295D01*
X140179722Y-57862295D01*
X140164639Y-57859581D01*
X140158095Y-57862295D01*
X139991955Y-57862295D01*
X139979728Y-57859180D01*
X139960114Y-57865717D01*
X139940293Y-57871538D01*
X139939334Y-57872644D01*
X139834322Y-57907648D01*
X139807382Y-57926371D01*
X139790546Y-57967070D01*
X138993619Y-57967070D01*
X138993619Y-57448214D01*
X142325286Y-57448214D01*
X142325286Y-65741786D01*
G37*
D11*
X126084380Y-86698996D02*
X126132000Y-86651377D01*
X126132000Y-86651377D02*
X126179619Y-86508520D01*
X126179619Y-86508520D02*
X126179619Y-86413282D01*
X126179619Y-86413282D02*
X126132000Y-86270425D01*
X126132000Y-86270425D02*
X126036761Y-86175187D01*
X126036761Y-86175187D02*
X125941523Y-86127568D01*
X125941523Y-86127568D02*
X125751047Y-86079949D01*
X125751047Y-86079949D02*
X125608190Y-86079949D01*
X125608190Y-86079949D02*
X125417714Y-86127568D01*
X125417714Y-86127568D02*
X125322476Y-86175187D01*
X125322476Y-86175187D02*
X125227238Y-86270425D01*
X125227238Y-86270425D02*
X125179619Y-86413282D01*
X125179619Y-86413282D02*
X125179619Y-86508520D01*
X125179619Y-86508520D02*
X125227238Y-86651377D01*
X125227238Y-86651377D02*
X125274857Y-86698996D01*
X126179619Y-87651377D02*
X126179619Y-87079949D01*
X126179619Y-87365663D02*
X125179619Y-87365663D01*
X125179619Y-87365663D02*
X125322476Y-87270425D01*
X125322476Y-87270425D02*
X125417714Y-87175187D01*
X125417714Y-87175187D02*
X125465333Y-87079949D01*
G36*
X123169000Y-70719970D02*
G01*
X123225411Y-70776381D01*
X123260901Y-70918340D01*
X123260901Y-71220896D01*
X123225411Y-71362855D01*
X123168997Y-71419269D01*
X123118298Y-71444619D01*
X122986838Y-71444619D01*
X122936137Y-71419268D01*
X122879724Y-71362855D01*
X122844235Y-71220896D01*
X122844235Y-70918340D01*
X122879725Y-70776381D01*
X122936137Y-70719969D01*
X122986838Y-70694619D01*
X123118298Y-70694619D01*
X123169000Y-70719970D01*
G37*
G36*
X124354762Y-72450357D02*
G01*
X120132143Y-72450357D01*
X120132143Y-70588159D01*
X120828379Y-70588159D01*
X120858873Y-70654932D01*
X120920627Y-70694619D01*
X121308520Y-70694619D01*
X121308520Y-70920809D01*
X121082215Y-70920809D01*
X121029754Y-70936213D01*
X120981683Y-70991690D01*
X120971236Y-71064349D01*
X121001730Y-71131122D01*
X121063484Y-71170809D01*
X121308520Y-71170809D01*
X121308520Y-71587591D01*
X121323924Y-71640052D01*
X121379401Y-71688123D01*
X121452060Y-71698570D01*
X121518833Y-71668076D01*
X121558520Y-71606322D01*
X121558520Y-71054748D01*
X121562471Y-71027269D01*
X121558520Y-71018617D01*
X121558520Y-70588159D01*
X121685522Y-70588159D01*
X121716016Y-70654932D01*
X121777770Y-70694619D01*
X122165663Y-70694619D01*
X122165663Y-70920809D01*
X121939358Y-70920809D01*
X121886897Y-70936213D01*
X121838826Y-70991690D01*
X121828379Y-71064349D01*
X121858873Y-71131122D01*
X121920627Y-71170809D01*
X122165663Y-71170809D01*
X122165663Y-71587591D01*
X122181067Y-71640052D01*
X122236544Y-71688123D01*
X122309203Y-71698570D01*
X122375976Y-71668076D01*
X122415663Y-71606322D01*
X122415663Y-71230995D01*
X122589065Y-71230995D01*
X122594235Y-71251674D01*
X122594235Y-71254257D01*
X122598579Y-71269054D01*
X122645119Y-71455210D01*
X122652512Y-71489196D01*
X122667143Y-71503827D01*
X122677613Y-71521672D01*
X122692564Y-71529248D01*
X122762621Y-71599305D01*
X122773362Y-71617389D01*
X122804172Y-71632794D01*
X122834399Y-71649300D01*
X122836835Y-71649125D01*
X122895413Y-71678415D01*
X122920627Y-71694619D01*
X122946173Y-71694619D01*
X122971314Y-71699143D01*
X122982222Y-71694619D01*
X123141081Y-71694619D01*
X123170880Y-71697836D01*
X123193727Y-71686412D01*
X123218239Y-71679215D01*
X123225972Y-71670289D01*
X123284928Y-71640811D01*
X123305480Y-71636341D01*
X123329839Y-71611981D01*
X123355054Y-71588527D01*
X123355658Y-71586161D01*
X123425309Y-71516510D01*
X123450648Y-71492685D01*
X123455666Y-71472611D01*
X123465582Y-71454452D01*
X123464386Y-71437732D01*
X123502180Y-71286557D01*
X123510901Y-71272988D01*
X123510901Y-71251674D01*
X123511528Y-71249167D01*
X123510900Y-71233744D01*
X123510901Y-70923523D01*
X123516071Y-70908242D01*
X123510901Y-70887562D01*
X123510901Y-70884980D01*
X123506556Y-70870182D01*
X123460013Y-70684013D01*
X123452623Y-70650041D01*
X123437993Y-70635411D01*
X123427523Y-70617565D01*
X123412569Y-70609987D01*
X123342513Y-70539931D01*
X123331774Y-70521849D01*
X123300959Y-70506441D01*
X123270736Y-70489938D01*
X123268300Y-70490112D01*
X123209722Y-70460822D01*
X123184509Y-70444619D01*
X123158963Y-70444619D01*
X123133822Y-70440095D01*
X123122914Y-70444619D01*
X122964051Y-70444619D01*
X122934256Y-70441402D01*
X122911408Y-70452825D01*
X122886897Y-70460023D01*
X122879163Y-70468948D01*
X122820206Y-70498426D01*
X122799657Y-70502897D01*
X122775305Y-70527248D01*
X122750082Y-70550711D01*
X122749476Y-70553077D01*
X122679830Y-70622723D01*
X122654488Y-70646552D01*
X122649469Y-70666625D01*
X122639554Y-70684784D01*
X122640749Y-70701503D01*
X122602955Y-70852679D01*
X122594235Y-70866249D01*
X122594235Y-70887562D01*
X122593608Y-70890070D01*
X122594235Y-70905492D01*
X122594235Y-71215713D01*
X122589065Y-71230995D01*
X122415663Y-71230995D01*
X122415663Y-71054748D01*
X122419614Y-71027269D01*
X122415663Y-71018617D01*
X122415663Y-70578558D01*
X122419614Y-70551079D01*
X122408080Y-70525824D01*
X122400259Y-70499186D01*
X122393071Y-70492957D01*
X122389120Y-70484306D01*
X122365763Y-70469295D01*
X122344782Y-70451115D01*
X122335367Y-70449761D01*
X122327366Y-70444619D01*
X122299602Y-70444619D01*
X122272123Y-70440668D01*
X122263471Y-70444619D01*
X121796501Y-70444619D01*
X121744040Y-70460023D01*
X121695969Y-70515500D01*
X121685522Y-70588159D01*
X121558520Y-70588159D01*
X121558520Y-70578558D01*
X121562471Y-70551079D01*
X121550937Y-70525824D01*
X121543116Y-70499186D01*
X121535928Y-70492957D01*
X121531977Y-70484306D01*
X121508620Y-70469295D01*
X121487639Y-70451115D01*
X121478224Y-70449761D01*
X121470223Y-70444619D01*
X121442459Y-70444619D01*
X121414980Y-70440668D01*
X121406328Y-70444619D01*
X120939358Y-70444619D01*
X120886897Y-70460023D01*
X120838826Y-70515500D01*
X120828379Y-70588159D01*
X120132143Y-70588159D01*
X120132143Y-69789643D01*
X124354762Y-69789643D01*
X124354762Y-72450357D01*
G37*
X127767238Y-86651377D02*
X127719619Y-86556139D01*
X127719619Y-86556139D02*
X127719619Y-86413282D01*
X127719619Y-86413282D02*
X127767238Y-86270425D01*
X127767238Y-86270425D02*
X127862476Y-86175187D01*
X127862476Y-86175187D02*
X127957714Y-86127568D01*
X127957714Y-86127568D02*
X128148190Y-86079949D01*
X128148190Y-86079949D02*
X128291047Y-86079949D01*
X128291047Y-86079949D02*
X128481523Y-86127568D01*
X128481523Y-86127568D02*
X128576761Y-86175187D01*
X128576761Y-86175187D02*
X128672000Y-86270425D01*
X128672000Y-86270425D02*
X128719619Y-86413282D01*
X128719619Y-86413282D02*
X128719619Y-86508520D01*
X128719619Y-86508520D02*
X128672000Y-86651377D01*
X128672000Y-86651377D02*
X128624380Y-86698996D01*
X128624380Y-86698996D02*
X128291047Y-86698996D01*
X128291047Y-86698996D02*
X128291047Y-86508520D01*
X128719619Y-87127568D02*
X127719619Y-87127568D01*
X127719619Y-87127568D02*
X128719619Y-87698996D01*
X128719619Y-87698996D02*
X127719619Y-87698996D01*
X128719619Y-88175187D02*
X127719619Y-88175187D01*
X127719619Y-88175187D02*
X127719619Y-88413282D01*
X127719619Y-88413282D02*
X127767238Y-88556139D01*
X127767238Y-88556139D02*
X127862476Y-88651377D01*
X127862476Y-88651377D02*
X127957714Y-88698996D01*
X127957714Y-88698996D02*
X128148190Y-88746615D01*
X128148190Y-88746615D02*
X128291047Y-88746615D01*
X128291047Y-88746615D02*
X128481523Y-88698996D01*
X128481523Y-88698996D02*
X128576761Y-88651377D01*
X128576761Y-88651377D02*
X128672000Y-88556139D01*
X128672000Y-88556139D02*
X128719619Y-88413282D01*
X128719619Y-88413282D02*
X128719619Y-88175187D01*
G36*
X122502333Y-82149970D02*
G01*
X122558744Y-82206381D01*
X122594233Y-82348340D01*
X122594233Y-82650896D01*
X122558744Y-82792855D01*
X122502330Y-82849269D01*
X122451631Y-82874619D01*
X122320171Y-82874619D01*
X122269470Y-82849268D01*
X122213057Y-82792855D01*
X122177568Y-82650896D01*
X122177568Y-82348340D01*
X122213058Y-82206381D01*
X122269470Y-82149969D01*
X122320171Y-82124619D01*
X122451631Y-82124619D01*
X122502333Y-82149970D01*
G37*
G36*
X124450000Y-83880357D02*
G01*
X120132143Y-83880357D01*
X120132143Y-83006397D01*
X120922467Y-83006397D01*
X120933549Y-83037961D01*
X120942972Y-83070052D01*
X120945622Y-83072348D01*
X120946785Y-83075659D01*
X120973169Y-83096218D01*
X120998449Y-83118123D01*
X121001921Y-83118622D01*
X121004688Y-83120778D01*
X121037998Y-83123809D01*
X121071108Y-83128570D01*
X121074298Y-83127113D01*
X121077792Y-83127431D01*
X121107453Y-83111971D01*
X121137881Y-83098076D01*
X121139777Y-83095124D01*
X121142889Y-83093503D01*
X121159486Y-83064456D01*
X121177568Y-83036322D01*
X121177568Y-83032814D01*
X121498996Y-82470314D01*
X121498996Y-83017591D01*
X121514400Y-83070052D01*
X121569877Y-83118123D01*
X121642536Y-83128570D01*
X121709309Y-83098076D01*
X121748996Y-83036322D01*
X121748996Y-82660995D01*
X121922398Y-82660995D01*
X121927568Y-82681674D01*
X121927568Y-82684257D01*
X121931912Y-82699054D01*
X121978452Y-82885210D01*
X121985845Y-82919196D01*
X122000476Y-82933827D01*
X122010946Y-82951672D01*
X122025897Y-82959248D01*
X122095954Y-83029305D01*
X122106695Y-83047389D01*
X122137505Y-83062794D01*
X122167732Y-83079300D01*
X122170168Y-83079125D01*
X122228746Y-83108415D01*
X122253960Y-83124619D01*
X122279506Y-83124619D01*
X122304647Y-83129143D01*
X122315555Y-83124619D01*
X122474414Y-83124619D01*
X122504213Y-83127836D01*
X122527060Y-83116412D01*
X122551572Y-83109215D01*
X122559305Y-83100289D01*
X122618261Y-83070811D01*
X122638813Y-83066341D01*
X122663172Y-83041981D01*
X122688387Y-83018527D01*
X122688991Y-83016161D01*
X122758642Y-82946510D01*
X122783981Y-82922685D01*
X122788999Y-82902611D01*
X122798915Y-82884452D01*
X122797719Y-82867732D01*
X122835513Y-82716557D01*
X122844234Y-82702988D01*
X122844233Y-82681674D01*
X122844861Y-82679167D01*
X122844234Y-82663744D01*
X122844234Y-82353523D01*
X122849404Y-82338242D01*
X122844233Y-82317562D01*
X122844234Y-82314980D01*
X122839889Y-82300182D01*
X122793346Y-82114013D01*
X122785956Y-82080041D01*
X122771326Y-82065411D01*
X122760856Y-82047565D01*
X122745902Y-82039987D01*
X122675846Y-81969931D01*
X122665107Y-81951849D01*
X122634292Y-81936441D01*
X122604069Y-81919938D01*
X122601633Y-81920112D01*
X122543055Y-81890822D01*
X122517842Y-81874619D01*
X122492296Y-81874619D01*
X122467155Y-81870095D01*
X122456247Y-81874619D01*
X122297384Y-81874619D01*
X122267589Y-81871402D01*
X122244741Y-81882825D01*
X122220230Y-81890023D01*
X122212496Y-81898948D01*
X122153539Y-81928426D01*
X122132990Y-81932897D01*
X122108638Y-81957248D01*
X122083415Y-81980711D01*
X122082809Y-81983077D01*
X122013163Y-82052723D01*
X121987821Y-82076552D01*
X121982802Y-82096625D01*
X121972887Y-82114784D01*
X121974082Y-82131503D01*
X121936288Y-82282679D01*
X121927568Y-82296249D01*
X121927568Y-82317562D01*
X121926941Y-82320070D01*
X121927568Y-82335492D01*
X121927568Y-82645713D01*
X121922398Y-82660995D01*
X121748996Y-82660995D01*
X121748996Y-82014283D01*
X121754097Y-81992841D01*
X121743014Y-81961276D01*
X121733592Y-81929186D01*
X121730941Y-81926889D01*
X121729779Y-81923579D01*
X121703394Y-81903019D01*
X121678115Y-81881115D01*
X121674642Y-81880615D01*
X121671876Y-81878460D01*
X121638565Y-81875428D01*
X121605456Y-81870668D01*
X121602265Y-81872124D01*
X121598772Y-81871807D01*
X121569103Y-81887269D01*
X121538683Y-81901162D01*
X121536787Y-81904112D01*
X121533675Y-81905734D01*
X121517072Y-81934788D01*
X121498996Y-81962916D01*
X121498996Y-81966422D01*
X121177568Y-82528922D01*
X121177568Y-81981647D01*
X121162164Y-81929186D01*
X121106687Y-81881115D01*
X121034028Y-81870668D01*
X120967255Y-81901162D01*
X120927568Y-81962916D01*
X120927568Y-82984954D01*
X120922467Y-83006397D01*
X120132143Y-83006397D01*
X120132143Y-81219643D01*
X124450000Y-81219643D01*
X124450000Y-83880357D01*
G37*
X123544380Y-86698996D02*
X123592000Y-86651377D01*
X123592000Y-86651377D02*
X123639619Y-86508520D01*
X123639619Y-86508520D02*
X123639619Y-86413282D01*
X123639619Y-86413282D02*
X123592000Y-86270425D01*
X123592000Y-86270425D02*
X123496761Y-86175187D01*
X123496761Y-86175187D02*
X123401523Y-86127568D01*
X123401523Y-86127568D02*
X123211047Y-86079949D01*
X123211047Y-86079949D02*
X123068190Y-86079949D01*
X123068190Y-86079949D02*
X122877714Y-86127568D01*
X122877714Y-86127568D02*
X122782476Y-86175187D01*
X122782476Y-86175187D02*
X122687238Y-86270425D01*
X122687238Y-86270425D02*
X122639619Y-86413282D01*
X122639619Y-86413282D02*
X122639619Y-86508520D01*
X122639619Y-86508520D02*
X122687238Y-86651377D01*
X122687238Y-86651377D02*
X122734857Y-86698996D01*
X122734857Y-87079949D02*
X122687238Y-87127568D01*
X122687238Y-87127568D02*
X122639619Y-87222806D01*
X122639619Y-87222806D02*
X122639619Y-87460901D01*
X122639619Y-87460901D02*
X122687238Y-87556139D01*
X122687238Y-87556139D02*
X122734857Y-87603758D01*
X122734857Y-87603758D02*
X122830095Y-87651377D01*
X122830095Y-87651377D02*
X122925333Y-87651377D01*
X122925333Y-87651377D02*
X123068190Y-87603758D01*
X123068190Y-87603758D02*
X123639619Y-87032330D01*
X123639619Y-87032330D02*
X123639619Y-87651377D01*
D10*
X139926009Y-66710112D02*
X139973628Y-66852969D01*
X139973628Y-66852969D02*
X140021247Y-66900588D01*
X140021247Y-66900588D02*
X140116485Y-66948207D01*
X140116485Y-66948207D02*
X140259342Y-66948207D01*
X140259342Y-66948207D02*
X140354580Y-66900588D01*
X140354580Y-66900588D02*
X140402200Y-66852969D01*
X140402200Y-66852969D02*
X140449819Y-66757731D01*
X140449819Y-66757731D02*
X140449819Y-66376779D01*
X140449819Y-66376779D02*
X139449819Y-66376779D01*
X139449819Y-66376779D02*
X139449819Y-66710112D01*
X139449819Y-66710112D02*
X139497438Y-66805350D01*
X139497438Y-66805350D02*
X139545057Y-66852969D01*
X139545057Y-66852969D02*
X139640295Y-66900588D01*
X139640295Y-66900588D02*
X139735533Y-66900588D01*
X139735533Y-66900588D02*
X139830771Y-66852969D01*
X139830771Y-66852969D02*
X139878390Y-66805350D01*
X139878390Y-66805350D02*
X139926009Y-66710112D01*
X139926009Y-66710112D02*
X139926009Y-66376779D01*
X140449819Y-67805350D02*
X139926009Y-67805350D01*
X139926009Y-67805350D02*
X139830771Y-67757731D01*
X139830771Y-67757731D02*
X139783152Y-67662493D01*
X139783152Y-67662493D02*
X139783152Y-67472017D01*
X139783152Y-67472017D02*
X139830771Y-67376779D01*
X140402200Y-67805350D02*
X140449819Y-67710112D01*
X140449819Y-67710112D02*
X140449819Y-67472017D01*
X140449819Y-67472017D02*
X140402200Y-67376779D01*
X140402200Y-67376779D02*
X140306961Y-67329160D01*
X140306961Y-67329160D02*
X140211723Y-67329160D01*
X140211723Y-67329160D02*
X140116485Y-67376779D01*
X140116485Y-67376779D02*
X140068866Y-67472017D01*
X140068866Y-67472017D02*
X140068866Y-67710112D01*
X140068866Y-67710112D02*
X140021247Y-67805350D01*
X139783152Y-68138684D02*
X139783152Y-68519636D01*
X139449819Y-68281541D02*
X140306961Y-68281541D01*
X140306961Y-68281541D02*
X140402200Y-68329160D01*
X140402200Y-68329160D02*
X140449819Y-68424398D01*
X140449819Y-68424398D02*
X140449819Y-68519636D01*
X140449819Y-68852970D02*
X139449819Y-68852970D01*
X139449819Y-68852970D02*
X140164104Y-69186303D01*
X140164104Y-69186303D02*
X139449819Y-69519636D01*
X139449819Y-69519636D02*
X140449819Y-69519636D01*
X140449819Y-70138684D02*
X140402200Y-70043446D01*
X140402200Y-70043446D02*
X140354580Y-69995827D01*
X140354580Y-69995827D02*
X140259342Y-69948208D01*
X140259342Y-69948208D02*
X139973628Y-69948208D01*
X139973628Y-69948208D02*
X139878390Y-69995827D01*
X139878390Y-69995827D02*
X139830771Y-70043446D01*
X139830771Y-70043446D02*
X139783152Y-70138684D01*
X139783152Y-70138684D02*
X139783152Y-70281541D01*
X139783152Y-70281541D02*
X139830771Y-70376779D01*
X139830771Y-70376779D02*
X139878390Y-70424398D01*
X139878390Y-70424398D02*
X139973628Y-70472017D01*
X139973628Y-70472017D02*
X140259342Y-70472017D01*
X140259342Y-70472017D02*
X140354580Y-70424398D01*
X140354580Y-70424398D02*
X140402200Y-70376779D01*
X140402200Y-70376779D02*
X140449819Y-70281541D01*
X140449819Y-70281541D02*
X140449819Y-70138684D01*
X139783152Y-70900589D02*
X140449819Y-70900589D01*
X139878390Y-70900589D02*
X139830771Y-70948208D01*
X139830771Y-70948208D02*
X139783152Y-71043446D01*
X139783152Y-71043446D02*
X139783152Y-71186303D01*
X139783152Y-71186303D02*
X139830771Y-71281541D01*
X139830771Y-71281541D02*
X139926009Y-71329160D01*
X139926009Y-71329160D02*
X140449819Y-71329160D01*
X141297914Y-67186303D02*
X141250295Y-67091064D01*
X141250295Y-67091064D02*
X141250295Y-66900588D01*
X141250295Y-66900588D02*
X141297914Y-66805350D01*
X141297914Y-66805350D02*
X141393152Y-66710112D01*
X141393152Y-66710112D02*
X141488390Y-66662493D01*
X141488390Y-66662493D02*
X141678866Y-66662493D01*
X141678866Y-66662493D02*
X141774104Y-66710112D01*
X141774104Y-66710112D02*
X141869342Y-66805350D01*
X141869342Y-66805350D02*
X141916961Y-66900588D01*
X141916961Y-66900588D02*
X141916961Y-67091064D01*
X141916961Y-67091064D02*
X141869342Y-67186303D01*
X140916961Y-66995826D02*
X140964580Y-66757731D01*
X140964580Y-66757731D02*
X141107438Y-66519636D01*
X141107438Y-66519636D02*
X141345533Y-66376779D01*
X141345533Y-66376779D02*
X141583628Y-66329160D01*
X141583628Y-66329160D02*
X141821723Y-66376779D01*
X141821723Y-66376779D02*
X142059819Y-66519636D01*
X142059819Y-66519636D02*
X142202676Y-66757731D01*
X142202676Y-66757731D02*
X142250295Y-66995826D01*
X142250295Y-66995826D02*
X142202676Y-67233922D01*
X142202676Y-67233922D02*
X142059819Y-67472017D01*
X142059819Y-67472017D02*
X141821723Y-67614874D01*
X141821723Y-67614874D02*
X141583628Y-67662493D01*
X141583628Y-67662493D02*
X141345533Y-67614874D01*
X141345533Y-67614874D02*
X141107438Y-67472017D01*
X141107438Y-67472017D02*
X140964580Y-67233922D01*
X140964580Y-67233922D02*
X140916961Y-66995826D01*
X141393152Y-67948208D02*
X141393152Y-68329160D01*
X142059819Y-68091065D02*
X141202676Y-68091065D01*
X141202676Y-68091065D02*
X141107438Y-68138684D01*
X141107438Y-68138684D02*
X141059819Y-68233922D01*
X141059819Y-68233922D02*
X141059819Y-68329160D01*
X142059819Y-68662494D02*
X141059819Y-68662494D01*
X141440771Y-68662494D02*
X141393152Y-68757732D01*
X141393152Y-68757732D02*
X141393152Y-68948208D01*
X141393152Y-68948208D02*
X141440771Y-69043446D01*
X141440771Y-69043446D02*
X141488390Y-69091065D01*
X141488390Y-69091065D02*
X141583628Y-69138684D01*
X141583628Y-69138684D02*
X141869342Y-69138684D01*
X141869342Y-69138684D02*
X141964580Y-69091065D01*
X141964580Y-69091065D02*
X142012200Y-69043446D01*
X142012200Y-69043446D02*
X142059819Y-68948208D01*
X142059819Y-68948208D02*
X142059819Y-68757732D01*
X142059819Y-68757732D02*
X142012200Y-68662494D01*
X141155057Y-70281542D02*
X141107438Y-70329161D01*
X141107438Y-70329161D02*
X141059819Y-70424399D01*
X141059819Y-70424399D02*
X141059819Y-70662494D01*
X141059819Y-70662494D02*
X141107438Y-70757732D01*
X141107438Y-70757732D02*
X141155057Y-70805351D01*
X141155057Y-70805351D02*
X141250295Y-70852970D01*
X141250295Y-70852970D02*
X141345533Y-70852970D01*
X141345533Y-70852970D02*
X141488390Y-70805351D01*
X141488390Y-70805351D02*
X142059819Y-70233923D01*
X142059819Y-70233923D02*
X142059819Y-70852970D01*
X141059819Y-71472018D02*
X141059819Y-71567256D01*
X141059819Y-71567256D02*
X141107438Y-71662494D01*
X141107438Y-71662494D02*
X141155057Y-71710113D01*
X141155057Y-71710113D02*
X141250295Y-71757732D01*
X141250295Y-71757732D02*
X141440771Y-71805351D01*
X141440771Y-71805351D02*
X141678866Y-71805351D01*
X141678866Y-71805351D02*
X141869342Y-71757732D01*
X141869342Y-71757732D02*
X141964580Y-71710113D01*
X141964580Y-71710113D02*
X142012200Y-71662494D01*
X142012200Y-71662494D02*
X142059819Y-71567256D01*
X142059819Y-71567256D02*
X142059819Y-71472018D01*
X142059819Y-71472018D02*
X142012200Y-71376780D01*
X142012200Y-71376780D02*
X141964580Y-71329161D01*
X141964580Y-71329161D02*
X141869342Y-71281542D01*
X141869342Y-71281542D02*
X141678866Y-71233923D01*
X141678866Y-71233923D02*
X141440771Y-71233923D01*
X141440771Y-71233923D02*
X141250295Y-71281542D01*
X141250295Y-71281542D02*
X141155057Y-71329161D01*
X141155057Y-71329161D02*
X141107438Y-71376780D01*
X141107438Y-71376780D02*
X141059819Y-71472018D01*
X141155057Y-72186304D02*
X141107438Y-72233923D01*
X141107438Y-72233923D02*
X141059819Y-72329161D01*
X141059819Y-72329161D02*
X141059819Y-72567256D01*
X141059819Y-72567256D02*
X141107438Y-72662494D01*
X141107438Y-72662494D02*
X141155057Y-72710113D01*
X141155057Y-72710113D02*
X141250295Y-72757732D01*
X141250295Y-72757732D02*
X141345533Y-72757732D01*
X141345533Y-72757732D02*
X141488390Y-72710113D01*
X141488390Y-72710113D02*
X142059819Y-72138685D01*
X142059819Y-72138685D02*
X142059819Y-72757732D01*
X141059819Y-73091066D02*
X141059819Y-73710113D01*
X141059819Y-73710113D02*
X141440771Y-73376780D01*
X141440771Y-73376780D02*
X141440771Y-73519637D01*
X141440771Y-73519637D02*
X141488390Y-73614875D01*
X141488390Y-73614875D02*
X141536009Y-73662494D01*
X141536009Y-73662494D02*
X141631247Y-73710113D01*
X141631247Y-73710113D02*
X141869342Y-73710113D01*
X141869342Y-73710113D02*
X141964580Y-73662494D01*
X141964580Y-73662494D02*
X142012200Y-73614875D01*
X142012200Y-73614875D02*
X142059819Y-73519637D01*
X142059819Y-73519637D02*
X142059819Y-73233923D01*
X142059819Y-73233923D02*
X142012200Y-73138685D01*
X142012200Y-73138685D02*
X141964580Y-73091066D01*
X142765057Y-66329160D02*
X142717438Y-66376779D01*
X142717438Y-66376779D02*
X142669819Y-66472017D01*
X142669819Y-66472017D02*
X142669819Y-66710112D01*
X142669819Y-66710112D02*
X142717438Y-66805350D01*
X142717438Y-66805350D02*
X142765057Y-66852969D01*
X142765057Y-66852969D02*
X142860295Y-66900588D01*
X142860295Y-66900588D02*
X142955533Y-66900588D01*
X142955533Y-66900588D02*
X143098390Y-66852969D01*
X143098390Y-66852969D02*
X143669819Y-66281541D01*
X143669819Y-66281541D02*
X143669819Y-66900588D01*
X142669819Y-67233922D02*
X142669819Y-67852969D01*
X142669819Y-67852969D02*
X143050771Y-67519636D01*
X143050771Y-67519636D02*
X143050771Y-67662493D01*
X143050771Y-67662493D02*
X143098390Y-67757731D01*
X143098390Y-67757731D02*
X143146009Y-67805350D01*
X143146009Y-67805350D02*
X143241247Y-67852969D01*
X143241247Y-67852969D02*
X143479342Y-67852969D01*
X143479342Y-67852969D02*
X143574580Y-67805350D01*
X143574580Y-67805350D02*
X143622200Y-67757731D01*
X143622200Y-67757731D02*
X143669819Y-67662493D01*
X143669819Y-67662493D02*
X143669819Y-67376779D01*
X143669819Y-67376779D02*
X143622200Y-67281541D01*
X143622200Y-67281541D02*
X143574580Y-67233922D01*
X142669819Y-68472017D02*
X142669819Y-68567255D01*
X142669819Y-68567255D02*
X142717438Y-68662493D01*
X142717438Y-68662493D02*
X142765057Y-68710112D01*
X142765057Y-68710112D02*
X142860295Y-68757731D01*
X142860295Y-68757731D02*
X143050771Y-68805350D01*
X143050771Y-68805350D02*
X143288866Y-68805350D01*
X143288866Y-68805350D02*
X143479342Y-68757731D01*
X143479342Y-68757731D02*
X143574580Y-68710112D01*
X143574580Y-68710112D02*
X143622200Y-68662493D01*
X143622200Y-68662493D02*
X143669819Y-68567255D01*
X143669819Y-68567255D02*
X143669819Y-68472017D01*
X143669819Y-68472017D02*
X143622200Y-68376779D01*
X143622200Y-68376779D02*
X143574580Y-68329160D01*
X143574580Y-68329160D02*
X143479342Y-68281541D01*
X143479342Y-68281541D02*
X143288866Y-68233922D01*
X143288866Y-68233922D02*
X143050771Y-68233922D01*
X143050771Y-68233922D02*
X142860295Y-68281541D01*
X142860295Y-68281541D02*
X142765057Y-68329160D01*
X142765057Y-68329160D02*
X142717438Y-68376779D01*
X142717438Y-68376779D02*
X142669819Y-68472017D01*
X142669819Y-69424398D02*
X142669819Y-69519636D01*
X142669819Y-69519636D02*
X142717438Y-69614874D01*
X142717438Y-69614874D02*
X142765057Y-69662493D01*
X142765057Y-69662493D02*
X142860295Y-69710112D01*
X142860295Y-69710112D02*
X143050771Y-69757731D01*
X143050771Y-69757731D02*
X143288866Y-69757731D01*
X143288866Y-69757731D02*
X143479342Y-69710112D01*
X143479342Y-69710112D02*
X143574580Y-69662493D01*
X143574580Y-69662493D02*
X143622200Y-69614874D01*
X143622200Y-69614874D02*
X143669819Y-69519636D01*
X143669819Y-69519636D02*
X143669819Y-69424398D01*
X143669819Y-69424398D02*
X143622200Y-69329160D01*
X143622200Y-69329160D02*
X143574580Y-69281541D01*
X143574580Y-69281541D02*
X143479342Y-69233922D01*
X143479342Y-69233922D02*
X143288866Y-69186303D01*
X143288866Y-69186303D02*
X143050771Y-69186303D01*
X143050771Y-69186303D02*
X142860295Y-69233922D01*
X142860295Y-69233922D02*
X142765057Y-69281541D01*
X142765057Y-69281541D02*
X142717438Y-69329160D01*
X142717438Y-69329160D02*
X142669819Y-69424398D01*
X143669819Y-70233922D02*
X143669819Y-70424398D01*
X143669819Y-70424398D02*
X143622200Y-70519636D01*
X143622200Y-70519636D02*
X143574580Y-70567255D01*
X143574580Y-70567255D02*
X143431723Y-70662493D01*
X143431723Y-70662493D02*
X143241247Y-70710112D01*
X143241247Y-70710112D02*
X142860295Y-70710112D01*
X142860295Y-70710112D02*
X142765057Y-70662493D01*
X142765057Y-70662493D02*
X142717438Y-70614874D01*
X142717438Y-70614874D02*
X142669819Y-70519636D01*
X142669819Y-70519636D02*
X142669819Y-70329160D01*
X142669819Y-70329160D02*
X142717438Y-70233922D01*
X142717438Y-70233922D02*
X142765057Y-70186303D01*
X142765057Y-70186303D02*
X142860295Y-70138684D01*
X142860295Y-70138684D02*
X143098390Y-70138684D01*
X143098390Y-70138684D02*
X143193628Y-70186303D01*
X143193628Y-70186303D02*
X143241247Y-70233922D01*
X143241247Y-70233922D02*
X143288866Y-70329160D01*
X143288866Y-70329160D02*
X143288866Y-70519636D01*
X143288866Y-70519636D02*
X143241247Y-70614874D01*
X143241247Y-70614874D02*
X143193628Y-70662493D01*
X143193628Y-70662493D02*
X143098390Y-70710112D01*
X143669819Y-71900589D02*
X143003152Y-71900589D01*
X143193628Y-71900589D02*
X143098390Y-71948208D01*
X143098390Y-71948208D02*
X143050771Y-71995827D01*
X143050771Y-71995827D02*
X143003152Y-72091065D01*
X143003152Y-72091065D02*
X143003152Y-72186303D01*
X142765057Y-72472018D02*
X142717438Y-72519637D01*
X142717438Y-72519637D02*
X142669819Y-72614875D01*
X142669819Y-72614875D02*
X142669819Y-72852970D01*
X142669819Y-72852970D02*
X142717438Y-72948208D01*
X142717438Y-72948208D02*
X142765057Y-72995827D01*
X142765057Y-72995827D02*
X142860295Y-73043446D01*
X142860295Y-73043446D02*
X142955533Y-73043446D01*
X142955533Y-73043446D02*
X143098390Y-72995827D01*
X143098390Y-72995827D02*
X143669819Y-72424399D01*
X143669819Y-72424399D02*
X143669819Y-73043446D01*
X130725057Y-56419761D02*
X130677438Y-56324523D01*
X130677438Y-56324523D02*
X130582200Y-56229285D01*
X130582200Y-56229285D02*
X130439342Y-56086428D01*
X130439342Y-56086428D02*
X130391723Y-55991190D01*
X130391723Y-55991190D02*
X130391723Y-55895952D01*
X130629819Y-55943571D02*
X130582200Y-55848333D01*
X130582200Y-55848333D02*
X130486961Y-55753095D01*
X130486961Y-55753095D02*
X130296485Y-55705476D01*
X130296485Y-55705476D02*
X129963152Y-55705476D01*
X129963152Y-55705476D02*
X129772676Y-55753095D01*
X129772676Y-55753095D02*
X129677438Y-55848333D01*
X129677438Y-55848333D02*
X129629819Y-55943571D01*
X129629819Y-55943571D02*
X129629819Y-56134047D01*
X129629819Y-56134047D02*
X129677438Y-56229285D01*
X129677438Y-56229285D02*
X129772676Y-56324523D01*
X129772676Y-56324523D02*
X129963152Y-56372142D01*
X129963152Y-56372142D02*
X130296485Y-56372142D01*
X130296485Y-56372142D02*
X130486961Y-56324523D01*
X130486961Y-56324523D02*
X130582200Y-56229285D01*
X130582200Y-56229285D02*
X130629819Y-56134047D01*
X130629819Y-56134047D02*
X130629819Y-55943571D01*
X129963152Y-57229285D02*
X130629819Y-57229285D01*
X129582200Y-56991190D02*
X130296485Y-56753095D01*
X130296485Y-56753095D02*
X130296485Y-57372142D01*
X138596666Y-72209819D02*
X138929999Y-71733628D01*
X139168094Y-72209819D02*
X139168094Y-71209819D01*
X139168094Y-71209819D02*
X138787142Y-71209819D01*
X138787142Y-71209819D02*
X138691904Y-71257438D01*
X138691904Y-71257438D02*
X138644285Y-71305057D01*
X138644285Y-71305057D02*
X138596666Y-71400295D01*
X138596666Y-71400295D02*
X138596666Y-71543152D01*
X138596666Y-71543152D02*
X138644285Y-71638390D01*
X138644285Y-71638390D02*
X138691904Y-71686009D01*
X138691904Y-71686009D02*
X138787142Y-71733628D01*
X138787142Y-71733628D02*
X139168094Y-71733628D01*
X138215713Y-71305057D02*
X138168094Y-71257438D01*
X138168094Y-71257438D02*
X138072856Y-71209819D01*
X138072856Y-71209819D02*
X137834761Y-71209819D01*
X137834761Y-71209819D02*
X137739523Y-71257438D01*
X137739523Y-71257438D02*
X137691904Y-71305057D01*
X137691904Y-71305057D02*
X137644285Y-71400295D01*
X137644285Y-71400295D02*
X137644285Y-71495533D01*
X137644285Y-71495533D02*
X137691904Y-71638390D01*
X137691904Y-71638390D02*
X138263332Y-72209819D01*
X138263332Y-72209819D02*
X137644285Y-72209819D01*
X126979819Y-65873333D02*
X126503628Y-65540000D01*
X126979819Y-65301905D02*
X125979819Y-65301905D01*
X125979819Y-65301905D02*
X125979819Y-65682857D01*
X125979819Y-65682857D02*
X126027438Y-65778095D01*
X126027438Y-65778095D02*
X126075057Y-65825714D01*
X126075057Y-65825714D02*
X126170295Y-65873333D01*
X126170295Y-65873333D02*
X126313152Y-65873333D01*
X126313152Y-65873333D02*
X126408390Y-65825714D01*
X126408390Y-65825714D02*
X126456009Y-65778095D01*
X126456009Y-65778095D02*
X126503628Y-65682857D01*
X126503628Y-65682857D02*
X126503628Y-65301905D01*
X126313152Y-66730476D02*
X126979819Y-66730476D01*
X125932200Y-66492381D02*
X126646485Y-66254286D01*
X126646485Y-66254286D02*
X126646485Y-66873333D01*
X129071666Y-68939580D02*
X129119285Y-68987200D01*
X129119285Y-68987200D02*
X129262142Y-69034819D01*
X129262142Y-69034819D02*
X129357380Y-69034819D01*
X129357380Y-69034819D02*
X129500237Y-68987200D01*
X129500237Y-68987200D02*
X129595475Y-68891961D01*
X129595475Y-68891961D02*
X129643094Y-68796723D01*
X129643094Y-68796723D02*
X129690713Y-68606247D01*
X129690713Y-68606247D02*
X129690713Y-68463390D01*
X129690713Y-68463390D02*
X129643094Y-68272914D01*
X129643094Y-68272914D02*
X129595475Y-68177676D01*
X129595475Y-68177676D02*
X129500237Y-68082438D01*
X129500237Y-68082438D02*
X129357380Y-68034819D01*
X129357380Y-68034819D02*
X129262142Y-68034819D01*
X129262142Y-68034819D02*
X129119285Y-68082438D01*
X129119285Y-68082438D02*
X129071666Y-68130057D01*
X128214523Y-68368152D02*
X128214523Y-69034819D01*
X128452618Y-67987200D02*
X128690713Y-68701485D01*
X128690713Y-68701485D02*
X128071666Y-68701485D01*
X128836009Y-77859047D02*
X128883628Y-78001904D01*
X128883628Y-78001904D02*
X128931247Y-78049523D01*
X128931247Y-78049523D02*
X129026485Y-78097142D01*
X129026485Y-78097142D02*
X129169342Y-78097142D01*
X129169342Y-78097142D02*
X129264580Y-78049523D01*
X129264580Y-78049523D02*
X129312200Y-78001904D01*
X129312200Y-78001904D02*
X129359819Y-77906666D01*
X129359819Y-77906666D02*
X129359819Y-77525714D01*
X129359819Y-77525714D02*
X128359819Y-77525714D01*
X128359819Y-77525714D02*
X128359819Y-77859047D01*
X128359819Y-77859047D02*
X128407438Y-77954285D01*
X128407438Y-77954285D02*
X128455057Y-78001904D01*
X128455057Y-78001904D02*
X128550295Y-78049523D01*
X128550295Y-78049523D02*
X128645533Y-78049523D01*
X128645533Y-78049523D02*
X128740771Y-78001904D01*
X128740771Y-78001904D02*
X128788390Y-77954285D01*
X128788390Y-77954285D02*
X128836009Y-77859047D01*
X128836009Y-77859047D02*
X128836009Y-77525714D01*
X128359819Y-78430476D02*
X128359819Y-79097142D01*
X128359819Y-79097142D02*
X129359819Y-78430476D01*
X129359819Y-78430476D02*
X129359819Y-79097142D01*
X129359819Y-80001904D02*
X129359819Y-79430476D01*
X129359819Y-79716190D02*
X128359819Y-79716190D01*
X128359819Y-79716190D02*
X128502676Y-79620952D01*
X128502676Y-79620952D02*
X128597914Y-79525714D01*
X128597914Y-79525714D02*
X128645533Y-79430476D01*
X139793866Y-75814048D02*
X139793866Y-76575953D01*
X140174819Y-76195000D02*
X139412914Y-76195000D01*
X130725057Y-62134761D02*
X130677438Y-62039523D01*
X130677438Y-62039523D02*
X130582200Y-61944285D01*
X130582200Y-61944285D02*
X130439342Y-61801428D01*
X130439342Y-61801428D02*
X130391723Y-61706190D01*
X130391723Y-61706190D02*
X130391723Y-61610952D01*
X130629819Y-61658571D02*
X130582200Y-61563333D01*
X130582200Y-61563333D02*
X130486961Y-61468095D01*
X130486961Y-61468095D02*
X130296485Y-61420476D01*
X130296485Y-61420476D02*
X129963152Y-61420476D01*
X129963152Y-61420476D02*
X129772676Y-61468095D01*
X129772676Y-61468095D02*
X129677438Y-61563333D01*
X129677438Y-61563333D02*
X129629819Y-61658571D01*
X129629819Y-61658571D02*
X129629819Y-61849047D01*
X129629819Y-61849047D02*
X129677438Y-61944285D01*
X129677438Y-61944285D02*
X129772676Y-62039523D01*
X129772676Y-62039523D02*
X129963152Y-62087142D01*
X129963152Y-62087142D02*
X130296485Y-62087142D01*
X130296485Y-62087142D02*
X130486961Y-62039523D01*
X130486961Y-62039523D02*
X130582200Y-61944285D01*
X130582200Y-61944285D02*
X130629819Y-61849047D01*
X130629819Y-61849047D02*
X130629819Y-61658571D01*
X129629819Y-62991904D02*
X129629819Y-62515714D01*
X129629819Y-62515714D02*
X130106009Y-62468095D01*
X130106009Y-62468095D02*
X130058390Y-62515714D01*
X130058390Y-62515714D02*
X130010771Y-62610952D01*
X130010771Y-62610952D02*
X130010771Y-62849047D01*
X130010771Y-62849047D02*
X130058390Y-62944285D01*
X130058390Y-62944285D02*
X130106009Y-62991904D01*
X130106009Y-62991904D02*
X130201247Y-63039523D01*
X130201247Y-63039523D02*
X130439342Y-63039523D01*
X130439342Y-63039523D02*
X130534580Y-62991904D01*
X130534580Y-62991904D02*
X130582200Y-62944285D01*
X130582200Y-62944285D02*
X130629819Y-62849047D01*
X130629819Y-62849047D02*
X130629819Y-62610952D01*
X130629819Y-62610952D02*
X130582200Y-62515714D01*
X130582200Y-62515714D02*
X130534580Y-62468095D01*
X126979819Y-69683333D02*
X126503628Y-69350000D01*
X126979819Y-69111905D02*
X125979819Y-69111905D01*
X125979819Y-69111905D02*
X125979819Y-69492857D01*
X125979819Y-69492857D02*
X126027438Y-69588095D01*
X126027438Y-69588095D02*
X126075057Y-69635714D01*
X126075057Y-69635714D02*
X126170295Y-69683333D01*
X126170295Y-69683333D02*
X126313152Y-69683333D01*
X126313152Y-69683333D02*
X126408390Y-69635714D01*
X126408390Y-69635714D02*
X126456009Y-69588095D01*
X126456009Y-69588095D02*
X126503628Y-69492857D01*
X126503628Y-69492857D02*
X126503628Y-69111905D01*
X126979819Y-70159524D02*
X126979819Y-70350000D01*
X126979819Y-70350000D02*
X126932200Y-70445238D01*
X126932200Y-70445238D02*
X126884580Y-70492857D01*
X126884580Y-70492857D02*
X126741723Y-70588095D01*
X126741723Y-70588095D02*
X126551247Y-70635714D01*
X126551247Y-70635714D02*
X126170295Y-70635714D01*
X126170295Y-70635714D02*
X126075057Y-70588095D01*
X126075057Y-70588095D02*
X126027438Y-70540476D01*
X126027438Y-70540476D02*
X125979819Y-70445238D01*
X125979819Y-70445238D02*
X125979819Y-70254762D01*
X125979819Y-70254762D02*
X126027438Y-70159524D01*
X126027438Y-70159524D02*
X126075057Y-70111905D01*
X126075057Y-70111905D02*
X126170295Y-70064286D01*
X126170295Y-70064286D02*
X126408390Y-70064286D01*
X126408390Y-70064286D02*
X126503628Y-70111905D01*
X126503628Y-70111905D02*
X126551247Y-70159524D01*
X126551247Y-70159524D02*
X126598866Y-70254762D01*
X126598866Y-70254762D02*
X126598866Y-70445238D01*
X126598866Y-70445238D02*
X126551247Y-70540476D01*
X126551247Y-70540476D02*
X126503628Y-70588095D01*
X126503628Y-70588095D02*
X126408390Y-70635714D01*
X121799580Y-63333333D02*
X121847200Y-63285714D01*
X121847200Y-63285714D02*
X121894819Y-63142857D01*
X121894819Y-63142857D02*
X121894819Y-63047619D01*
X121894819Y-63047619D02*
X121847200Y-62904762D01*
X121847200Y-62904762D02*
X121751961Y-62809524D01*
X121751961Y-62809524D02*
X121656723Y-62761905D01*
X121656723Y-62761905D02*
X121466247Y-62714286D01*
X121466247Y-62714286D02*
X121323390Y-62714286D01*
X121323390Y-62714286D02*
X121132914Y-62761905D01*
X121132914Y-62761905D02*
X121037676Y-62809524D01*
X121037676Y-62809524D02*
X120942438Y-62904762D01*
X120942438Y-62904762D02*
X120894819Y-63047619D01*
X120894819Y-63047619D02*
X120894819Y-63142857D01*
X120894819Y-63142857D02*
X120942438Y-63285714D01*
X120942438Y-63285714D02*
X120990057Y-63333333D01*
X120894819Y-64190476D02*
X120894819Y-64000000D01*
X120894819Y-64000000D02*
X120942438Y-63904762D01*
X120942438Y-63904762D02*
X120990057Y-63857143D01*
X120990057Y-63857143D02*
X121132914Y-63761905D01*
X121132914Y-63761905D02*
X121323390Y-63714286D01*
X121323390Y-63714286D02*
X121704342Y-63714286D01*
X121704342Y-63714286D02*
X121799580Y-63761905D01*
X121799580Y-63761905D02*
X121847200Y-63809524D01*
X121847200Y-63809524D02*
X121894819Y-63904762D01*
X121894819Y-63904762D02*
X121894819Y-64095238D01*
X121894819Y-64095238D02*
X121847200Y-64190476D01*
X121847200Y-64190476D02*
X121799580Y-64238095D01*
X121799580Y-64238095D02*
X121704342Y-64285714D01*
X121704342Y-64285714D02*
X121466247Y-64285714D01*
X121466247Y-64285714D02*
X121371009Y-64238095D01*
X121371009Y-64238095D02*
X121323390Y-64190476D01*
X121323390Y-64190476D02*
X121275771Y-64095238D01*
X121275771Y-64095238D02*
X121275771Y-63904762D01*
X121275771Y-63904762D02*
X121323390Y-63809524D01*
X121323390Y-63809524D02*
X121371009Y-63761905D01*
X121371009Y-63761905D02*
X121466247Y-63714286D01*
X126647200Y-75501667D02*
X126694819Y-75644524D01*
X126694819Y-75644524D02*
X126694819Y-75882619D01*
X126694819Y-75882619D02*
X126647200Y-75977857D01*
X126647200Y-75977857D02*
X126599580Y-76025476D01*
X126599580Y-76025476D02*
X126504342Y-76073095D01*
X126504342Y-76073095D02*
X126409104Y-76073095D01*
X126409104Y-76073095D02*
X126313866Y-76025476D01*
X126313866Y-76025476D02*
X126266247Y-75977857D01*
X126266247Y-75977857D02*
X126218628Y-75882619D01*
X126218628Y-75882619D02*
X126171009Y-75692143D01*
X126171009Y-75692143D02*
X126123390Y-75596905D01*
X126123390Y-75596905D02*
X126075771Y-75549286D01*
X126075771Y-75549286D02*
X125980533Y-75501667D01*
X125980533Y-75501667D02*
X125885295Y-75501667D01*
X125885295Y-75501667D02*
X125790057Y-75549286D01*
X125790057Y-75549286D02*
X125742438Y-75596905D01*
X125742438Y-75596905D02*
X125694819Y-75692143D01*
X125694819Y-75692143D02*
X125694819Y-75930238D01*
X125694819Y-75930238D02*
X125742438Y-76073095D01*
X125694819Y-76406429D02*
X126694819Y-76644524D01*
X126694819Y-76644524D02*
X125980533Y-76835000D01*
X125980533Y-76835000D02*
X126694819Y-77025476D01*
X126694819Y-77025476D02*
X125694819Y-77263572D01*
X126694819Y-78168333D02*
X126694819Y-77596905D01*
X126694819Y-77882619D02*
X125694819Y-77882619D01*
X125694819Y-77882619D02*
X125837676Y-77787381D01*
X125837676Y-77787381D02*
X125932914Y-77692143D01*
X125932914Y-77692143D02*
X125980533Y-77596905D01*
X134627857Y-72209819D02*
X134961190Y-71733628D01*
X135199285Y-72209819D02*
X135199285Y-71209819D01*
X135199285Y-71209819D02*
X134818333Y-71209819D01*
X134818333Y-71209819D02*
X134723095Y-71257438D01*
X134723095Y-71257438D02*
X134675476Y-71305057D01*
X134675476Y-71305057D02*
X134627857Y-71400295D01*
X134627857Y-71400295D02*
X134627857Y-71543152D01*
X134627857Y-71543152D02*
X134675476Y-71638390D01*
X134675476Y-71638390D02*
X134723095Y-71686009D01*
X134723095Y-71686009D02*
X134818333Y-71733628D01*
X134818333Y-71733628D02*
X135199285Y-71733628D01*
X133675476Y-72209819D02*
X134246904Y-72209819D01*
X133961190Y-72209819D02*
X133961190Y-71209819D01*
X133961190Y-71209819D02*
X134056428Y-71352676D01*
X134056428Y-71352676D02*
X134151666Y-71447914D01*
X134151666Y-71447914D02*
X134246904Y-71495533D01*
X133294523Y-71305057D02*
X133246904Y-71257438D01*
X133246904Y-71257438D02*
X133151666Y-71209819D01*
X133151666Y-71209819D02*
X132913571Y-71209819D01*
X132913571Y-71209819D02*
X132818333Y-71257438D01*
X132818333Y-71257438D02*
X132770714Y-71305057D01*
X132770714Y-71305057D02*
X132723095Y-71400295D01*
X132723095Y-71400295D02*
X132723095Y-71495533D01*
X132723095Y-71495533D02*
X132770714Y-71638390D01*
X132770714Y-71638390D02*
X133342142Y-72209819D01*
X133342142Y-72209819D02*
X132723095Y-72209819D01*
X139160238Y-89450057D02*
X139255476Y-89402438D01*
X139255476Y-89402438D02*
X139350714Y-89307200D01*
X139350714Y-89307200D02*
X139493571Y-89164342D01*
X139493571Y-89164342D02*
X139588809Y-89116723D01*
X139588809Y-89116723D02*
X139684047Y-89116723D01*
X139636428Y-89354819D02*
X139731666Y-89307200D01*
X139731666Y-89307200D02*
X139826904Y-89211961D01*
X139826904Y-89211961D02*
X139874523Y-89021485D01*
X139874523Y-89021485D02*
X139874523Y-88688152D01*
X139874523Y-88688152D02*
X139826904Y-88497676D01*
X139826904Y-88497676D02*
X139731666Y-88402438D01*
X139731666Y-88402438D02*
X139636428Y-88354819D01*
X139636428Y-88354819D02*
X139445952Y-88354819D01*
X139445952Y-88354819D02*
X139350714Y-88402438D01*
X139350714Y-88402438D02*
X139255476Y-88497676D01*
X139255476Y-88497676D02*
X139207857Y-88688152D01*
X139207857Y-88688152D02*
X139207857Y-89021485D01*
X139207857Y-89021485D02*
X139255476Y-89211961D01*
X139255476Y-89211961D02*
X139350714Y-89307200D01*
X139350714Y-89307200D02*
X139445952Y-89354819D01*
X139445952Y-89354819D02*
X139636428Y-89354819D01*
X138874523Y-88354819D02*
X138255476Y-88354819D01*
X138255476Y-88354819D02*
X138588809Y-88735771D01*
X138588809Y-88735771D02*
X138445952Y-88735771D01*
X138445952Y-88735771D02*
X138350714Y-88783390D01*
X138350714Y-88783390D02*
X138303095Y-88831009D01*
X138303095Y-88831009D02*
X138255476Y-88926247D01*
X138255476Y-88926247D02*
X138255476Y-89164342D01*
X138255476Y-89164342D02*
X138303095Y-89259580D01*
X138303095Y-89259580D02*
X138350714Y-89307200D01*
X138350714Y-89307200D02*
X138445952Y-89354819D01*
X138445952Y-89354819D02*
X138731666Y-89354819D01*
X138731666Y-89354819D02*
X138826904Y-89307200D01*
X138826904Y-89307200D02*
X138874523Y-89259580D01*
X141771666Y-77829580D02*
X141819285Y-77877200D01*
X141819285Y-77877200D02*
X141962142Y-77924819D01*
X141962142Y-77924819D02*
X142057380Y-77924819D01*
X142057380Y-77924819D02*
X142200237Y-77877200D01*
X142200237Y-77877200D02*
X142295475Y-77781961D01*
X142295475Y-77781961D02*
X142343094Y-77686723D01*
X142343094Y-77686723D02*
X142390713Y-77496247D01*
X142390713Y-77496247D02*
X142390713Y-77353390D01*
X142390713Y-77353390D02*
X142343094Y-77162914D01*
X142343094Y-77162914D02*
X142295475Y-77067676D01*
X142295475Y-77067676D02*
X142200237Y-76972438D01*
X142200237Y-76972438D02*
X142057380Y-76924819D01*
X142057380Y-76924819D02*
X141962142Y-76924819D01*
X141962142Y-76924819D02*
X141819285Y-76972438D01*
X141819285Y-76972438D02*
X141771666Y-77020057D01*
X140866904Y-76924819D02*
X141343094Y-76924819D01*
X141343094Y-76924819D02*
X141390713Y-77401009D01*
X141390713Y-77401009D02*
X141343094Y-77353390D01*
X141343094Y-77353390D02*
X141247856Y-77305771D01*
X141247856Y-77305771D02*
X141009761Y-77305771D01*
X141009761Y-77305771D02*
X140914523Y-77353390D01*
X140914523Y-77353390D02*
X140866904Y-77401009D01*
X140866904Y-77401009D02*
X140819285Y-77496247D01*
X140819285Y-77496247D02*
X140819285Y-77734342D01*
X140819285Y-77734342D02*
X140866904Y-77829580D01*
X140866904Y-77829580D02*
X140914523Y-77877200D01*
X140914523Y-77877200D02*
X141009761Y-77924819D01*
X141009761Y-77924819D02*
X141247856Y-77924819D01*
X141247856Y-77924819D02*
X141343094Y-77877200D01*
X141343094Y-77877200D02*
X141390713Y-77829580D01*
X129547857Y-70939819D02*
X129881190Y-70463628D01*
X130119285Y-70939819D02*
X130119285Y-69939819D01*
X130119285Y-69939819D02*
X129738333Y-69939819D01*
X129738333Y-69939819D02*
X129643095Y-69987438D01*
X129643095Y-69987438D02*
X129595476Y-70035057D01*
X129595476Y-70035057D02*
X129547857Y-70130295D01*
X129547857Y-70130295D02*
X129547857Y-70273152D01*
X129547857Y-70273152D02*
X129595476Y-70368390D01*
X129595476Y-70368390D02*
X129643095Y-70416009D01*
X129643095Y-70416009D02*
X129738333Y-70463628D01*
X129738333Y-70463628D02*
X130119285Y-70463628D01*
X128595476Y-70939819D02*
X129166904Y-70939819D01*
X128881190Y-70939819D02*
X128881190Y-69939819D01*
X128881190Y-69939819D02*
X128976428Y-70082676D01*
X128976428Y-70082676D02*
X129071666Y-70177914D01*
X129071666Y-70177914D02*
X129166904Y-70225533D01*
X127643095Y-70939819D02*
X128214523Y-70939819D01*
X127928809Y-70939819D02*
X127928809Y-69939819D01*
X127928809Y-69939819D02*
X128024047Y-70082676D01*
X128024047Y-70082676D02*
X128119285Y-70177914D01*
X128119285Y-70177914D02*
X128214523Y-70225533D01*
X136628094Y-89354819D02*
X136628094Y-88354819D01*
X136628094Y-88354819D02*
X136389999Y-88354819D01*
X136389999Y-88354819D02*
X136247142Y-88402438D01*
X136247142Y-88402438D02*
X136151904Y-88497676D01*
X136151904Y-88497676D02*
X136104285Y-88592914D01*
X136104285Y-88592914D02*
X136056666Y-88783390D01*
X136056666Y-88783390D02*
X136056666Y-88926247D01*
X136056666Y-88926247D02*
X136104285Y-89116723D01*
X136104285Y-89116723D02*
X136151904Y-89211961D01*
X136151904Y-89211961D02*
X136247142Y-89307200D01*
X136247142Y-89307200D02*
X136389999Y-89354819D01*
X136389999Y-89354819D02*
X136628094Y-89354819D01*
X135723332Y-88354819D02*
X135104285Y-88354819D01*
X135104285Y-88354819D02*
X135437618Y-88735771D01*
X135437618Y-88735771D02*
X135294761Y-88735771D01*
X135294761Y-88735771D02*
X135199523Y-88783390D01*
X135199523Y-88783390D02*
X135151904Y-88831009D01*
X135151904Y-88831009D02*
X135104285Y-88926247D01*
X135104285Y-88926247D02*
X135104285Y-89164342D01*
X135104285Y-89164342D02*
X135151904Y-89259580D01*
X135151904Y-89259580D02*
X135199523Y-89307200D01*
X135199523Y-89307200D02*
X135294761Y-89354819D01*
X135294761Y-89354819D02*
X135580475Y-89354819D01*
X135580475Y-89354819D02*
X135675713Y-89307200D01*
X135675713Y-89307200D02*
X135723332Y-89259580D01*
X132534819Y-58793142D02*
X132058628Y-58459809D01*
X132534819Y-58221714D02*
X131534819Y-58221714D01*
X131534819Y-58221714D02*
X131534819Y-58602666D01*
X131534819Y-58602666D02*
X131582438Y-58697904D01*
X131582438Y-58697904D02*
X131630057Y-58745523D01*
X131630057Y-58745523D02*
X131725295Y-58793142D01*
X131725295Y-58793142D02*
X131868152Y-58793142D01*
X131868152Y-58793142D02*
X131963390Y-58745523D01*
X131963390Y-58745523D02*
X132011009Y-58697904D01*
X132011009Y-58697904D02*
X132058628Y-58602666D01*
X132058628Y-58602666D02*
X132058628Y-58221714D01*
X132534819Y-59745523D02*
X132534819Y-59174095D01*
X132534819Y-59459809D02*
X131534819Y-59459809D01*
X131534819Y-59459809D02*
X131677676Y-59364571D01*
X131677676Y-59364571D02*
X131772914Y-59269333D01*
X131772914Y-59269333D02*
X131820533Y-59174095D01*
X131868152Y-60602666D02*
X132534819Y-60602666D01*
X131487200Y-60364571D02*
X132201485Y-60126476D01*
X132201485Y-60126476D02*
X132201485Y-60745523D01*
X133516666Y-89354819D02*
X133849999Y-88878628D01*
X134088094Y-89354819D02*
X134088094Y-88354819D01*
X134088094Y-88354819D02*
X133707142Y-88354819D01*
X133707142Y-88354819D02*
X133611904Y-88402438D01*
X133611904Y-88402438D02*
X133564285Y-88450057D01*
X133564285Y-88450057D02*
X133516666Y-88545295D01*
X133516666Y-88545295D02*
X133516666Y-88688152D01*
X133516666Y-88688152D02*
X133564285Y-88783390D01*
X133564285Y-88783390D02*
X133611904Y-88831009D01*
X133611904Y-88831009D02*
X133707142Y-88878628D01*
X133707142Y-88878628D02*
X134088094Y-88878628D01*
X132611904Y-88354819D02*
X133088094Y-88354819D01*
X133088094Y-88354819D02*
X133135713Y-88831009D01*
X133135713Y-88831009D02*
X133088094Y-88783390D01*
X133088094Y-88783390D02*
X132992856Y-88735771D01*
X132992856Y-88735771D02*
X132754761Y-88735771D01*
X132754761Y-88735771D02*
X132659523Y-88783390D01*
X132659523Y-88783390D02*
X132611904Y-88831009D01*
X132611904Y-88831009D02*
X132564285Y-88926247D01*
X132564285Y-88926247D02*
X132564285Y-89164342D01*
X132564285Y-89164342D02*
X132611904Y-89259580D01*
X132611904Y-89259580D02*
X132659523Y-89307200D01*
X132659523Y-89307200D02*
X132754761Y-89354819D01*
X132754761Y-89354819D02*
X132992856Y-89354819D01*
X132992856Y-89354819D02*
X133088094Y-89307200D01*
X133088094Y-89307200D02*
X133135713Y-89259580D01*
D12*
X143238094Y-84912419D02*
X143238094Y-83912419D01*
X143238094Y-83912419D02*
X142999999Y-83912419D01*
X142999999Y-83912419D02*
X142857142Y-83960038D01*
X142857142Y-83960038D02*
X142761904Y-84055276D01*
X142761904Y-84055276D02*
X142714285Y-84150514D01*
X142714285Y-84150514D02*
X142666666Y-84340990D01*
X142666666Y-84340990D02*
X142666666Y-84483847D01*
X142666666Y-84483847D02*
X142714285Y-84674323D01*
X142714285Y-84674323D02*
X142761904Y-84769561D01*
X142761904Y-84769561D02*
X142857142Y-84864800D01*
X142857142Y-84864800D02*
X142999999Y-84912419D01*
X142999999Y-84912419D02*
X143238094Y-84912419D01*
X141761904Y-83912419D02*
X142238094Y-83912419D01*
X142238094Y-83912419D02*
X142285713Y-84388609D01*
X142285713Y-84388609D02*
X142238094Y-84340990D01*
X142238094Y-84340990D02*
X142142856Y-84293371D01*
X142142856Y-84293371D02*
X141904761Y-84293371D01*
X141904761Y-84293371D02*
X141809523Y-84340990D01*
X141809523Y-84340990D02*
X141761904Y-84388609D01*
X141761904Y-84388609D02*
X141714285Y-84483847D01*
X141714285Y-84483847D02*
X141714285Y-84721942D01*
X141714285Y-84721942D02*
X141761904Y-84817180D01*
X141761904Y-84817180D02*
X141809523Y-84864800D01*
X141809523Y-84864800D02*
X141904761Y-84912419D01*
X141904761Y-84912419D02*
X142142856Y-84912419D01*
X142142856Y-84912419D02*
X142238094Y-84864800D01*
X142238094Y-84864800D02*
X142285713Y-84817180D01*
D10*
X136979819Y-57142142D02*
X136503628Y-56808809D01*
X136979819Y-56570714D02*
X135979819Y-56570714D01*
X135979819Y-56570714D02*
X135979819Y-56951666D01*
X135979819Y-56951666D02*
X136027438Y-57046904D01*
X136027438Y-57046904D02*
X136075057Y-57094523D01*
X136075057Y-57094523D02*
X136170295Y-57142142D01*
X136170295Y-57142142D02*
X136313152Y-57142142D01*
X136313152Y-57142142D02*
X136408390Y-57094523D01*
X136408390Y-57094523D02*
X136456009Y-57046904D01*
X136456009Y-57046904D02*
X136503628Y-56951666D01*
X136503628Y-56951666D02*
X136503628Y-56570714D01*
X136979819Y-58094523D02*
X136979819Y-57523095D01*
X136979819Y-57808809D02*
X135979819Y-57808809D01*
X135979819Y-57808809D02*
X136122676Y-57713571D01*
X136122676Y-57713571D02*
X136217914Y-57618333D01*
X136217914Y-57618333D02*
X136265533Y-57523095D01*
X135979819Y-58427857D02*
X135979819Y-59046904D01*
X135979819Y-59046904D02*
X136360771Y-58713571D01*
X136360771Y-58713571D02*
X136360771Y-58856428D01*
X136360771Y-58856428D02*
X136408390Y-58951666D01*
X136408390Y-58951666D02*
X136456009Y-58999285D01*
X136456009Y-58999285D02*
X136551247Y-59046904D01*
X136551247Y-59046904D02*
X136789342Y-59046904D01*
X136789342Y-59046904D02*
X136884580Y-58999285D01*
X136884580Y-58999285D02*
X136932200Y-58951666D01*
X136932200Y-58951666D02*
X136979819Y-58856428D01*
X136979819Y-58856428D02*
X136979819Y-58570714D01*
X136979819Y-58570714D02*
X136932200Y-58475476D01*
X136932200Y-58475476D02*
X136884580Y-58427857D01*
X125074819Y-58412142D02*
X124598628Y-58078809D01*
X125074819Y-57840714D02*
X124074819Y-57840714D01*
X124074819Y-57840714D02*
X124074819Y-58221666D01*
X124074819Y-58221666D02*
X124122438Y-58316904D01*
X124122438Y-58316904D02*
X124170057Y-58364523D01*
X124170057Y-58364523D02*
X124265295Y-58412142D01*
X124265295Y-58412142D02*
X124408152Y-58412142D01*
X124408152Y-58412142D02*
X124503390Y-58364523D01*
X124503390Y-58364523D02*
X124551009Y-58316904D01*
X124551009Y-58316904D02*
X124598628Y-58221666D01*
X124598628Y-58221666D02*
X124598628Y-57840714D01*
X125074819Y-59364523D02*
X125074819Y-58793095D01*
X125074819Y-59078809D02*
X124074819Y-59078809D01*
X124074819Y-59078809D02*
X124217676Y-58983571D01*
X124217676Y-58983571D02*
X124312914Y-58888333D01*
X124312914Y-58888333D02*
X124360533Y-58793095D01*
X124074819Y-59983571D02*
X124074819Y-60078809D01*
X124074819Y-60078809D02*
X124122438Y-60174047D01*
X124122438Y-60174047D02*
X124170057Y-60221666D01*
X124170057Y-60221666D02*
X124265295Y-60269285D01*
X124265295Y-60269285D02*
X124455771Y-60316904D01*
X124455771Y-60316904D02*
X124693866Y-60316904D01*
X124693866Y-60316904D02*
X124884342Y-60269285D01*
X124884342Y-60269285D02*
X124979580Y-60221666D01*
X124979580Y-60221666D02*
X125027200Y-60174047D01*
X125027200Y-60174047D02*
X125074819Y-60078809D01*
X125074819Y-60078809D02*
X125074819Y-59983571D01*
X125074819Y-59983571D02*
X125027200Y-59888333D01*
X125027200Y-59888333D02*
X124979580Y-59840714D01*
X124979580Y-59840714D02*
X124884342Y-59793095D01*
X124884342Y-59793095D02*
X124693866Y-59745476D01*
X124693866Y-59745476D02*
X124455771Y-59745476D01*
X124455771Y-59745476D02*
X124265295Y-59793095D01*
X124265295Y-59793095D02*
X124170057Y-59840714D01*
X124170057Y-59840714D02*
X124122438Y-59888333D01*
X124122438Y-59888333D02*
X124074819Y-59983571D01*
X136691666Y-72209819D02*
X137024999Y-71733628D01*
X137263094Y-72209819D02*
X137263094Y-71209819D01*
X137263094Y-71209819D02*
X136882142Y-71209819D01*
X136882142Y-71209819D02*
X136786904Y-71257438D01*
X136786904Y-71257438D02*
X136739285Y-71305057D01*
X136739285Y-71305057D02*
X136691666Y-71400295D01*
X136691666Y-71400295D02*
X136691666Y-71543152D01*
X136691666Y-71543152D02*
X136739285Y-71638390D01*
X136739285Y-71638390D02*
X136786904Y-71686009D01*
X136786904Y-71686009D02*
X136882142Y-71733628D01*
X136882142Y-71733628D02*
X137263094Y-71733628D01*
X135739285Y-72209819D02*
X136310713Y-72209819D01*
X136024999Y-72209819D02*
X136024999Y-71209819D01*
X136024999Y-71209819D02*
X136120237Y-71352676D01*
X136120237Y-71352676D02*
X136215475Y-71447914D01*
X136215475Y-71447914D02*
X136310713Y-71495533D01*
X131944819Y-62738095D02*
X132754342Y-62738095D01*
X132754342Y-62738095D02*
X132849580Y-62785714D01*
X132849580Y-62785714D02*
X132897200Y-62833333D01*
X132897200Y-62833333D02*
X132944819Y-62928571D01*
X132944819Y-62928571D02*
X132944819Y-63119047D01*
X132944819Y-63119047D02*
X132897200Y-63214285D01*
X132897200Y-63214285D02*
X132849580Y-63261904D01*
X132849580Y-63261904D02*
X132754342Y-63309523D01*
X132754342Y-63309523D02*
X131944819Y-63309523D01*
X132040057Y-63738095D02*
X131992438Y-63785714D01*
X131992438Y-63785714D02*
X131944819Y-63880952D01*
X131944819Y-63880952D02*
X131944819Y-64119047D01*
X131944819Y-64119047D02*
X131992438Y-64214285D01*
X131992438Y-64214285D02*
X132040057Y-64261904D01*
X132040057Y-64261904D02*
X132135295Y-64309523D01*
X132135295Y-64309523D02*
X132230533Y-64309523D01*
X132230533Y-64309523D02*
X132373390Y-64261904D01*
X132373390Y-64261904D02*
X132944819Y-63690476D01*
X132944819Y-63690476D02*
X132944819Y-64309523D01*
D13*
X127635000Y-59345000D02*
X128285000Y-59345000D01*
X127635000Y-59345000D02*
X126985000Y-59345000D01*
X127635000Y-56225000D02*
X129310000Y-56225000D01*
X127635000Y-56225000D02*
X126985000Y-56225000D01*
X138952500Y-69237776D02*
X138952500Y-69747224D01*
X137907500Y-69237776D02*
X137907500Y-69747224D01*
X124572500Y-66294724D02*
X124572500Y-65785276D01*
X125617500Y-66294724D02*
X125617500Y-65785276D01*
X131998767Y-69090000D02*
X131706233Y-69090000D01*
X131998767Y-68070000D02*
X131706233Y-68070000D01*
X139670000Y-73745000D02*
X139670000Y-72745000D01*
X139670000Y-72745000D02*
X138670000Y-72745000D01*
X138970000Y-75795000D02*
X138970000Y-79795000D01*
X136620000Y-82145000D02*
X132620000Y-82145000D01*
X132620000Y-73445000D02*
X136620000Y-73445000D01*
X130270000Y-79795000D02*
X130270000Y-75795000D01*
X127635000Y-62840000D02*
X128285000Y-62840000D01*
X127635000Y-62840000D02*
X126985000Y-62840000D01*
X127635000Y-59720000D02*
X129310000Y-59720000D01*
X127635000Y-59720000D02*
X126985000Y-59720000D01*
X124572500Y-70104724D02*
X124572500Y-69595276D01*
X125617500Y-70104724D02*
X125617500Y-69595276D01*
X124125000Y-61015000D02*
X124125000Y-65100000D01*
X122255000Y-61015000D02*
X124125000Y-61015000D01*
X122255000Y-65100000D02*
X122255000Y-61015000D01*
X125090000Y-81235000D02*
X121290000Y-81235000D01*
X121290000Y-80035000D02*
X121290000Y-81235000D01*
X125090000Y-80035000D02*
X125090000Y-81235000D01*
X121290000Y-77535000D02*
X121290000Y-78635000D01*
X125090000Y-77535000D02*
X125090000Y-78635000D01*
X121290000Y-75035000D02*
X121290000Y-76135000D01*
X125090000Y-75035000D02*
X125090000Y-76135000D01*
X121290000Y-72435000D02*
X121290000Y-73635000D01*
X125090000Y-72435000D02*
X125090000Y-73635000D01*
X125090000Y-72435000D02*
X121290000Y-72435000D01*
X135142500Y-69237776D02*
X135142500Y-69747224D01*
X134097500Y-69237776D02*
X134097500Y-69747224D01*
X140625000Y-85725000D02*
X140625000Y-85075000D01*
X140625000Y-85725000D02*
X140625000Y-86375000D01*
X137505000Y-85725000D02*
X137505000Y-84050000D01*
X137505000Y-85725000D02*
X137505000Y-86375000D01*
X141353733Y-78490000D02*
X141646267Y-78490000D01*
X141353733Y-79510000D02*
X141646267Y-79510000D01*
X132057224Y-71007500D02*
X131547776Y-71007500D01*
X132057224Y-69962500D02*
X131547776Y-69962500D01*
X134890000Y-88085000D02*
X134890000Y-84075000D01*
X136890000Y-88085000D02*
X134890000Y-88085000D01*
X136890000Y-88085000D02*
X136890000Y-84075000D01*
X130287500Y-59690724D02*
X130287500Y-59181276D01*
X131332500Y-59690724D02*
X131332500Y-59181276D01*
X132827500Y-85979724D02*
X132827500Y-85470276D01*
X133872500Y-85979724D02*
X133872500Y-85470276D01*
D12*
X143100000Y-83480000D02*
X142100000Y-83480000D01*
X143100000Y-79880000D02*
X142100000Y-79880000D01*
D13*
X135777500Y-57530276D02*
X135777500Y-58039724D01*
X134732500Y-57530276D02*
X134732500Y-58039724D01*
X122667500Y-59309724D02*
X122667500Y-58800276D01*
X123712500Y-59309724D02*
X123712500Y-58800276D01*
X137047500Y-69237776D02*
X137047500Y-69747224D01*
X136002500Y-69237776D02*
X136002500Y-69747224D01*
X138450000Y-63500000D02*
X138450000Y-61550000D01*
X138450000Y-63500000D02*
X138450000Y-65450000D01*
X133330000Y-63500000D02*
X133330000Y-60050000D01*
X133330000Y-63500000D02*
X133330000Y-65450000D01*
%LPC*%
D14*
X148500000Y-72650000D03*
X148500000Y-75190000D03*
D15*
X148000000Y-77730000D03*
X148000000Y-80270000D03*
X148000000Y-82810000D03*
X148000000Y-85350000D03*
D16*
X142875000Y-58420000D03*
D17*
X142875000Y-59690000D03*
X142875000Y-60960000D03*
X142875000Y-62230000D03*
X142875000Y-63500000D03*
X142875000Y-64770000D03*
D18*
X123230000Y-84455000D03*
D19*
X125730000Y-84455000D03*
X128230000Y-84455000D03*
D20*
X128572500Y-56835000D03*
X128572500Y-58735000D03*
X126697500Y-57785000D03*
D21*
X138430000Y-68580000D03*
X138430000Y-70405000D03*
D22*
X125095000Y-66952500D03*
X125095000Y-65127500D03*
D23*
X132715000Y-68580000D03*
X130990000Y-68580000D03*
D24*
X138120000Y-74295000D03*
X138120000Y-81295000D03*
X131120000Y-81295000D03*
X131120000Y-74295000D03*
D20*
X128572500Y-60330000D03*
X128572500Y-62230000D03*
X126697500Y-61280000D03*
D22*
X125095000Y-70762500D03*
X125095000Y-68937500D03*
D25*
X123190000Y-62062500D03*
X123190000Y-64937500D03*
D26*
X124590000Y-79335000D03*
X124590000Y-76835000D03*
X124590000Y-74335000D03*
X121790000Y-79335000D03*
X121790000Y-76835000D03*
X121790000Y-74335000D03*
D21*
X134620000Y-68580000D03*
X134620000Y-70405000D03*
D27*
X138115000Y-84787500D03*
X140015000Y-84787500D03*
X139065000Y-86662500D03*
D28*
X140637500Y-79000000D03*
X142362500Y-79000000D03*
D29*
X132715000Y-70485000D03*
X130890000Y-70485000D03*
D30*
X135890000Y-87375000D03*
X135890000Y-84075000D03*
D22*
X130810000Y-60348500D03*
X130810000Y-58523500D03*
X133350000Y-86637500D03*
X133350000Y-84812500D03*
D31*
X143500000Y-80480000D03*
X143500000Y-81280000D03*
X143500000Y-82080000D03*
X143500000Y-82880000D03*
X141700000Y-82880000D03*
X141700000Y-82080000D03*
X141700000Y-81280000D03*
X141700000Y-80480000D03*
D21*
X135255000Y-56872500D03*
X135255000Y-58697500D03*
D22*
X123190000Y-59967500D03*
X123190000Y-58142500D03*
D21*
X136525000Y-68580000D03*
X136525000Y-70405000D03*
D32*
X133985000Y-61025000D03*
X135255000Y-61025000D03*
X136525000Y-61025000D03*
X137795000Y-61025000D03*
X137795000Y-65975000D03*
X136525000Y-65975000D03*
X135255000Y-65975000D03*
X133985000Y-65975000D03*
%LPD*%
M02*
