%TF.GenerationSoftware,KiCad,Pcbnew,7.0.1-0*%
%TF.CreationDate,2023-06-03T17:14:53+02:00*%
%TF.ProjectId,BatMon,4261744d-6f6e-42e6-9b69-6361645f7063,rev?*%
%TF.SameCoordinates,Original*%
%TF.FileFunction,Legend,Top*%
%TF.FilePolarity,Positive*%
%FSLAX46Y46*%
G04 Gerber Fmt 4.6, Leading zero omitted, Abs format (unit mm)*
G04 Created by KiCad (PCBNEW 7.0.1-0) date 2023-06-03 17:14:53*
%MOMM*%
%LPD*%
G01*
G04 APERTURE LIST*
G04 Aperture macros list*
%AMRoundRect*
0 Rectangle with rounded corners*
0 $1 Rounding radius*
0 $2 $3 $4 $5 $6 $7 $8 $9 X,Y pos of 4 corners*
0 Add a 4 corners polygon primitive as box body*
4,1,4,$2,$3,$4,$5,$6,$7,$8,$9,$2,$3,0*
0 Add four circle primitives for the rounded corners*
1,1,$1+$1,$2,$3*
1,1,$1+$1,$4,$5*
1,1,$1+$1,$6,$7*
1,1,$1+$1,$8,$9*
0 Add four rect primitives between the rounded corners*
20,1,$1+$1,$2,$3,$4,$5,0*
20,1,$1+$1,$4,$5,$6,$7,0*
20,1,$1+$1,$6,$7,$8,$9,0*
20,1,$1+$1,$8,$9,$2,$3,0*%
%AMFreePoly0*
4,1,9,5.362500,-0.866500,1.237500,-0.866500,1.237500,-0.450000,-1.237500,-0.450000,-1.237500,0.450000,1.237500,0.450000,1.237500,0.866500,5.362500,0.866500,5.362500,-0.866500,5.362500,-0.866500,$1*%
G04 Aperture macros list end*
%ADD10C,0.150000*%
%ADD11C,0.250000*%
%ADD12C,0.100000*%
%ADD13C,0.120000*%
%ADD14RoundRect,0.237500X-0.250000X-0.237500X0.250000X-0.237500X0.250000X0.237500X-0.250000X0.237500X0*%
%ADD15RoundRect,0.237500X-0.237500X0.250000X-0.237500X-0.250000X0.237500X-0.250000X0.237500X0.250000X0*%
%ADD16RoundRect,0.400000X3.100000X-0.400000X3.100000X0.400000X-3.100000X0.400000X-3.100000X-0.400000X0*%
%ADD17RoundRect,0.400000X2.600000X-0.400000X2.600000X0.400000X-2.600000X0.400000X-2.600000X-0.400000X0*%
%ADD18R,1.220000X0.650000*%
%ADD19RoundRect,0.237500X0.237500X-0.250000X0.237500X0.250000X-0.237500X0.250000X-0.237500X-0.250000X0*%
%ADD20RoundRect,0.237500X0.237500X-0.300000X0.237500X0.300000X-0.237500X0.300000X-0.237500X-0.300000X0*%
%ADD21C,0.600000*%
%ADD22R,3.800000X3.800000*%
%ADD23R,1.500000X0.900000*%
%ADD24R,0.900000X1.500000*%
%ADD25R,0.700000X0.510000*%
%ADD26RoundRect,0.250000X0.425000X-0.537500X0.425000X0.537500X-0.425000X0.537500X-0.425000X-0.537500X0*%
%ADD27R,2.300000X0.900000*%
%ADD28FreePoly0,0.000000*%
%ADD29R,1.000000X1.000000*%
%ADD30O,1.000000X1.000000*%
%ADD31R,0.650000X1.220000*%
%ADD32RoundRect,0.250000X-0.600000X-0.725000X0.600000X-0.725000X0.600000X0.725000X-0.600000X0.725000X0*%
%ADD33O,1.700000X1.950000*%
%ADD34RoundRect,0.237500X-0.237500X0.287500X-0.237500X-0.287500X0.237500X-0.287500X0.237500X0.287500X0*%
G04 APERTURE END LIST*
D10*
X126888809Y-56662619D02*
X126888809Y-57376904D01*
X126888809Y-57376904D02*
X126841190Y-57519761D01*
X126841190Y-57519761D02*
X126745952Y-57615000D01*
X126745952Y-57615000D02*
X126603095Y-57662619D01*
X126603095Y-57662619D02*
X126507857Y-57662619D01*
X127841190Y-57662619D02*
X127365000Y-57662619D01*
X127365000Y-57662619D02*
X127365000Y-56662619D01*
X128745952Y-57567380D02*
X128698333Y-57615000D01*
X128698333Y-57615000D02*
X128555476Y-57662619D01*
X128555476Y-57662619D02*
X128460238Y-57662619D01*
X128460238Y-57662619D02*
X128317381Y-57615000D01*
X128317381Y-57615000D02*
X128222143Y-57519761D01*
X128222143Y-57519761D02*
X128174524Y-57424523D01*
X128174524Y-57424523D02*
X128126905Y-57234047D01*
X128126905Y-57234047D02*
X128126905Y-57091190D01*
X128126905Y-57091190D02*
X128174524Y-56900714D01*
X128174524Y-56900714D02*
X128222143Y-56805476D01*
X128222143Y-56805476D02*
X128317381Y-56710238D01*
X128317381Y-56710238D02*
X128460238Y-56662619D01*
X128460238Y-56662619D02*
X128555476Y-56662619D01*
X128555476Y-56662619D02*
X128698333Y-56710238D01*
X128698333Y-56710238D02*
X128745952Y-56757857D01*
X129460238Y-56662619D02*
X129460238Y-57376904D01*
X129460238Y-57376904D02*
X129412619Y-57519761D01*
X129412619Y-57519761D02*
X129317381Y-57615000D01*
X129317381Y-57615000D02*
X129174524Y-57662619D01*
X129174524Y-57662619D02*
X129079286Y-57662619D01*
X130412619Y-57662619D02*
X129936429Y-57662619D01*
X129936429Y-57662619D02*
X129936429Y-56662619D01*
X131317381Y-57567380D02*
X131269762Y-57615000D01*
X131269762Y-57615000D02*
X131126905Y-57662619D01*
X131126905Y-57662619D02*
X131031667Y-57662619D01*
X131031667Y-57662619D02*
X130888810Y-57615000D01*
X130888810Y-57615000D02*
X130793572Y-57519761D01*
X130793572Y-57519761D02*
X130745953Y-57424523D01*
X130745953Y-57424523D02*
X130698334Y-57234047D01*
X130698334Y-57234047D02*
X130698334Y-57091190D01*
X130698334Y-57091190D02*
X130745953Y-56900714D01*
X130745953Y-56900714D02*
X130793572Y-56805476D01*
X130793572Y-56805476D02*
X130888810Y-56710238D01*
X130888810Y-56710238D02*
X131031667Y-56662619D01*
X131031667Y-56662619D02*
X131126905Y-56662619D01*
X131126905Y-56662619D02*
X131269762Y-56710238D01*
X131269762Y-56710238D02*
X131317381Y-56757857D01*
X132031667Y-56662619D02*
X132031667Y-57376904D01*
X132031667Y-57376904D02*
X131984048Y-57519761D01*
X131984048Y-57519761D02*
X131888810Y-57615000D01*
X131888810Y-57615000D02*
X131745953Y-57662619D01*
X131745953Y-57662619D02*
X131650715Y-57662619D01*
X132984048Y-57662619D02*
X132507858Y-57662619D01*
X132507858Y-57662619D02*
X132507858Y-56662619D01*
X133888810Y-57567380D02*
X133841191Y-57615000D01*
X133841191Y-57615000D02*
X133698334Y-57662619D01*
X133698334Y-57662619D02*
X133603096Y-57662619D01*
X133603096Y-57662619D02*
X133460239Y-57615000D01*
X133460239Y-57615000D02*
X133365001Y-57519761D01*
X133365001Y-57519761D02*
X133317382Y-57424523D01*
X133317382Y-57424523D02*
X133269763Y-57234047D01*
X133269763Y-57234047D02*
X133269763Y-57091190D01*
X133269763Y-57091190D02*
X133317382Y-56900714D01*
X133317382Y-56900714D02*
X133365001Y-56805476D01*
X133365001Y-56805476D02*
X133460239Y-56710238D01*
X133460239Y-56710238D02*
X133603096Y-56662619D01*
X133603096Y-56662619D02*
X133698334Y-56662619D01*
X133698334Y-56662619D02*
X133841191Y-56710238D01*
X133841191Y-56710238D02*
X133888810Y-56757857D01*
X134603096Y-56662619D02*
X134603096Y-57376904D01*
X134603096Y-57376904D02*
X134555477Y-57519761D01*
X134555477Y-57519761D02*
X134460239Y-57615000D01*
X134460239Y-57615000D02*
X134317382Y-57662619D01*
X134317382Y-57662619D02*
X134222144Y-57662619D01*
X135555477Y-57662619D02*
X135079287Y-57662619D01*
X135079287Y-57662619D02*
X135079287Y-56662619D01*
X136460239Y-57567380D02*
X136412620Y-57615000D01*
X136412620Y-57615000D02*
X136269763Y-57662619D01*
X136269763Y-57662619D02*
X136174525Y-57662619D01*
X136174525Y-57662619D02*
X136031668Y-57615000D01*
X136031668Y-57615000D02*
X135936430Y-57519761D01*
X135936430Y-57519761D02*
X135888811Y-57424523D01*
X135888811Y-57424523D02*
X135841192Y-57234047D01*
X135841192Y-57234047D02*
X135841192Y-57091190D01*
X135841192Y-57091190D02*
X135888811Y-56900714D01*
X135888811Y-56900714D02*
X135936430Y-56805476D01*
X135936430Y-56805476D02*
X136031668Y-56710238D01*
X136031668Y-56710238D02*
X136174525Y-56662619D01*
X136174525Y-56662619D02*
X136269763Y-56662619D01*
X136269763Y-56662619D02*
X136412620Y-56710238D01*
X136412620Y-56710238D02*
X136460239Y-56757857D01*
D11*
X144138095Y-84907857D02*
X144185714Y-84860238D01*
X144185714Y-84860238D02*
X144280952Y-84812619D01*
X144280952Y-84812619D02*
X144519047Y-84812619D01*
X144519047Y-84812619D02*
X144614285Y-84860238D01*
X144614285Y-84860238D02*
X144661904Y-84907857D01*
X144661904Y-84907857D02*
X144709523Y-85003095D01*
X144709523Y-85003095D02*
X144709523Y-85098333D01*
X144709523Y-85098333D02*
X144661904Y-85241190D01*
X144661904Y-85241190D02*
X144090476Y-85812619D01*
X144090476Y-85812619D02*
X144709523Y-85812619D01*
X144709523Y-83272619D02*
X144138095Y-83272619D01*
X144423809Y-83272619D02*
X144423809Y-82272619D01*
X144423809Y-82272619D02*
X144328571Y-82415476D01*
X144328571Y-82415476D02*
X144233333Y-82510714D01*
X144233333Y-82510714D02*
X144138095Y-82558333D01*
X144709523Y-80637380D02*
X144661904Y-80685000D01*
X144661904Y-80685000D02*
X144519047Y-80732619D01*
X144519047Y-80732619D02*
X144423809Y-80732619D01*
X144423809Y-80732619D02*
X144280952Y-80685000D01*
X144280952Y-80685000D02*
X144185714Y-80589761D01*
X144185714Y-80589761D02*
X144138095Y-80494523D01*
X144138095Y-80494523D02*
X144090476Y-80304047D01*
X144090476Y-80304047D02*
X144090476Y-80161190D01*
X144090476Y-80161190D02*
X144138095Y-79970714D01*
X144138095Y-79970714D02*
X144185714Y-79875476D01*
X144185714Y-79875476D02*
X144280952Y-79780238D01*
X144280952Y-79780238D02*
X144423809Y-79732619D01*
X144423809Y-79732619D02*
X144519047Y-79732619D01*
X144519047Y-79732619D02*
X144661904Y-79780238D01*
X144661904Y-79780238D02*
X144709523Y-79827857D01*
X144138095Y-78192619D02*
X144138095Y-77192619D01*
X144138095Y-77192619D02*
X144376190Y-77192619D01*
X144376190Y-77192619D02*
X144519047Y-77240238D01*
X144519047Y-77240238D02*
X144614285Y-77335476D01*
X144614285Y-77335476D02*
X144661904Y-77430714D01*
X144661904Y-77430714D02*
X144709523Y-77621190D01*
X144709523Y-77621190D02*
X144709523Y-77764047D01*
X144709523Y-77764047D02*
X144661904Y-77954523D01*
X144661904Y-77954523D02*
X144614285Y-78049761D01*
X144614285Y-78049761D02*
X144519047Y-78145000D01*
X144519047Y-78145000D02*
X144376190Y-78192619D01*
X144376190Y-78192619D02*
X144138095Y-78192619D01*
X143900000Y-75271666D02*
X144661905Y-75271666D01*
X143900000Y-72731666D02*
X144661905Y-72731666D01*
X144280952Y-73112619D02*
X144280952Y-72350714D01*
D10*
X133183333Y-89616619D02*
X132850000Y-89140428D01*
X132611905Y-89616619D02*
X132611905Y-88616619D01*
X132611905Y-88616619D02*
X132992857Y-88616619D01*
X132992857Y-88616619D02*
X133088095Y-88664238D01*
X133088095Y-88664238D02*
X133135714Y-88711857D01*
X133135714Y-88711857D02*
X133183333Y-88807095D01*
X133183333Y-88807095D02*
X133183333Y-88949952D01*
X133183333Y-88949952D02*
X133135714Y-89045190D01*
X133135714Y-89045190D02*
X133088095Y-89092809D01*
X133088095Y-89092809D02*
X132992857Y-89140428D01*
X132992857Y-89140428D02*
X132611905Y-89140428D01*
X133516667Y-88616619D02*
X134183333Y-88616619D01*
X134183333Y-88616619D02*
X133754762Y-89616619D01*
X121747619Y-71921666D02*
X121271428Y-72254999D01*
X121747619Y-72493094D02*
X120747619Y-72493094D01*
X120747619Y-72493094D02*
X120747619Y-72112142D01*
X120747619Y-72112142D02*
X120795238Y-72016904D01*
X120795238Y-72016904D02*
X120842857Y-71969285D01*
X120842857Y-71969285D02*
X120938095Y-71921666D01*
X120938095Y-71921666D02*
X121080952Y-71921666D01*
X121080952Y-71921666D02*
X121176190Y-71969285D01*
X121176190Y-71969285D02*
X121223809Y-72016904D01*
X121223809Y-72016904D02*
X121271428Y-72112142D01*
X121271428Y-72112142D02*
X121271428Y-72493094D01*
X120747619Y-71588332D02*
X120747619Y-70969285D01*
X120747619Y-70969285D02*
X121128571Y-71302618D01*
X121128571Y-71302618D02*
X121128571Y-71159761D01*
X121128571Y-71159761D02*
X121176190Y-71064523D01*
X121176190Y-71064523D02*
X121223809Y-71016904D01*
X121223809Y-71016904D02*
X121319047Y-70969285D01*
X121319047Y-70969285D02*
X121557142Y-70969285D01*
X121557142Y-70969285D02*
X121652380Y-71016904D01*
X121652380Y-71016904D02*
X121700000Y-71064523D01*
X121700000Y-71064523D02*
X121747619Y-71159761D01*
X121747619Y-71159761D02*
X121747619Y-71445475D01*
X121747619Y-71445475D02*
X121700000Y-71540713D01*
X121700000Y-71540713D02*
X121652380Y-71588332D01*
X123721905Y-77424619D02*
X123721905Y-76424619D01*
X123721905Y-76424619D02*
X123960000Y-76424619D01*
X123960000Y-76424619D02*
X124102857Y-76472238D01*
X124102857Y-76472238D02*
X124198095Y-76567476D01*
X124198095Y-76567476D02*
X124245714Y-76662714D01*
X124245714Y-76662714D02*
X124293333Y-76853190D01*
X124293333Y-76853190D02*
X124293333Y-76996047D01*
X124293333Y-76996047D02*
X124245714Y-77186523D01*
X124245714Y-77186523D02*
X124198095Y-77281761D01*
X124198095Y-77281761D02*
X124102857Y-77377000D01*
X124102857Y-77377000D02*
X123960000Y-77424619D01*
X123960000Y-77424619D02*
X123721905Y-77424619D01*
X124674286Y-76519857D02*
X124721905Y-76472238D01*
X124721905Y-76472238D02*
X124817143Y-76424619D01*
X124817143Y-76424619D02*
X125055238Y-76424619D01*
X125055238Y-76424619D02*
X125150476Y-76472238D01*
X125150476Y-76472238D02*
X125198095Y-76519857D01*
X125198095Y-76519857D02*
X125245714Y-76615095D01*
X125245714Y-76615095D02*
X125245714Y-76710333D01*
X125245714Y-76710333D02*
X125198095Y-76853190D01*
X125198095Y-76853190D02*
X124626667Y-77424619D01*
X124626667Y-77424619D02*
X125245714Y-77424619D01*
X121173333Y-81996619D02*
X120840000Y-81520428D01*
X120601905Y-81996619D02*
X120601905Y-80996619D01*
X120601905Y-80996619D02*
X120982857Y-80996619D01*
X120982857Y-80996619D02*
X121078095Y-81044238D01*
X121078095Y-81044238D02*
X121125714Y-81091857D01*
X121125714Y-81091857D02*
X121173333Y-81187095D01*
X121173333Y-81187095D02*
X121173333Y-81329952D01*
X121173333Y-81329952D02*
X121125714Y-81425190D01*
X121125714Y-81425190D02*
X121078095Y-81472809D01*
X121078095Y-81472809D02*
X120982857Y-81520428D01*
X120982857Y-81520428D02*
X120601905Y-81520428D01*
X121744762Y-81425190D02*
X121649524Y-81377571D01*
X121649524Y-81377571D02*
X121601905Y-81329952D01*
X121601905Y-81329952D02*
X121554286Y-81234714D01*
X121554286Y-81234714D02*
X121554286Y-81187095D01*
X121554286Y-81187095D02*
X121601905Y-81091857D01*
X121601905Y-81091857D02*
X121649524Y-81044238D01*
X121649524Y-81044238D02*
X121744762Y-80996619D01*
X121744762Y-80996619D02*
X121935238Y-80996619D01*
X121935238Y-80996619D02*
X122030476Y-81044238D01*
X122030476Y-81044238D02*
X122078095Y-81091857D01*
X122078095Y-81091857D02*
X122125714Y-81187095D01*
X122125714Y-81187095D02*
X122125714Y-81234714D01*
X122125714Y-81234714D02*
X122078095Y-81329952D01*
X122078095Y-81329952D02*
X122030476Y-81377571D01*
X122030476Y-81377571D02*
X121935238Y-81425190D01*
X121935238Y-81425190D02*
X121744762Y-81425190D01*
X121744762Y-81425190D02*
X121649524Y-81472809D01*
X121649524Y-81472809D02*
X121601905Y-81520428D01*
X121601905Y-81520428D02*
X121554286Y-81615666D01*
X121554286Y-81615666D02*
X121554286Y-81806142D01*
X121554286Y-81806142D02*
X121601905Y-81901380D01*
X121601905Y-81901380D02*
X121649524Y-81949000D01*
X121649524Y-81949000D02*
X121744762Y-81996619D01*
X121744762Y-81996619D02*
X121935238Y-81996619D01*
X121935238Y-81996619D02*
X122030476Y-81949000D01*
X122030476Y-81949000D02*
X122078095Y-81901380D01*
X122078095Y-81901380D02*
X122125714Y-81806142D01*
X122125714Y-81806142D02*
X122125714Y-81615666D01*
X122125714Y-81615666D02*
X122078095Y-81520428D01*
X122078095Y-81520428D02*
X122030476Y-81472809D01*
X122030476Y-81472809D02*
X121935238Y-81425190D01*
X121652380Y-60745666D02*
X121700000Y-60793285D01*
X121700000Y-60793285D02*
X121747619Y-60936142D01*
X121747619Y-60936142D02*
X121747619Y-61031380D01*
X121747619Y-61031380D02*
X121700000Y-61174237D01*
X121700000Y-61174237D02*
X121604761Y-61269475D01*
X121604761Y-61269475D02*
X121509523Y-61317094D01*
X121509523Y-61317094D02*
X121319047Y-61364713D01*
X121319047Y-61364713D02*
X121176190Y-61364713D01*
X121176190Y-61364713D02*
X120985714Y-61317094D01*
X120985714Y-61317094D02*
X120890476Y-61269475D01*
X120890476Y-61269475D02*
X120795238Y-61174237D01*
X120795238Y-61174237D02*
X120747619Y-61031380D01*
X120747619Y-61031380D02*
X120747619Y-60936142D01*
X120747619Y-60936142D02*
X120795238Y-60793285D01*
X120795238Y-60793285D02*
X120842857Y-60745666D01*
X120747619Y-60412332D02*
X120747619Y-59793285D01*
X120747619Y-59793285D02*
X121128571Y-60126618D01*
X121128571Y-60126618D02*
X121128571Y-59983761D01*
X121128571Y-59983761D02*
X121176190Y-59888523D01*
X121176190Y-59888523D02*
X121223809Y-59840904D01*
X121223809Y-59840904D02*
X121319047Y-59793285D01*
X121319047Y-59793285D02*
X121557142Y-59793285D01*
X121557142Y-59793285D02*
X121652380Y-59840904D01*
X121652380Y-59840904D02*
X121700000Y-59888523D01*
X121700000Y-59888523D02*
X121747619Y-59983761D01*
X121747619Y-59983761D02*
X121747619Y-60269475D01*
X121747619Y-60269475D02*
X121700000Y-60364713D01*
X121700000Y-60364713D02*
X121652380Y-60412332D01*
X142337619Y-71881904D02*
X143147142Y-71881904D01*
X143147142Y-71881904D02*
X143242380Y-71834285D01*
X143242380Y-71834285D02*
X143290000Y-71786666D01*
X143290000Y-71786666D02*
X143337619Y-71691428D01*
X143337619Y-71691428D02*
X143337619Y-71500952D01*
X143337619Y-71500952D02*
X143290000Y-71405714D01*
X143290000Y-71405714D02*
X143242380Y-71358095D01*
X143242380Y-71358095D02*
X143147142Y-71310476D01*
X143147142Y-71310476D02*
X142337619Y-71310476D01*
X143337619Y-70310476D02*
X143337619Y-70881904D01*
X143337619Y-70596190D02*
X142337619Y-70596190D01*
X142337619Y-70596190D02*
X142480476Y-70691428D01*
X142480476Y-70691428D02*
X142575714Y-70786666D01*
X142575714Y-70786666D02*
X142623333Y-70881904D01*
X128809761Y-77392857D02*
X128714523Y-77345238D01*
X128714523Y-77345238D02*
X128619285Y-77250000D01*
X128619285Y-77250000D02*
X128476428Y-77107142D01*
X128476428Y-77107142D02*
X128381190Y-77059523D01*
X128381190Y-77059523D02*
X128285952Y-77059523D01*
X128333571Y-77297619D02*
X128238333Y-77250000D01*
X128238333Y-77250000D02*
X128143095Y-77154761D01*
X128143095Y-77154761D02*
X128095476Y-76964285D01*
X128095476Y-76964285D02*
X128095476Y-76630952D01*
X128095476Y-76630952D02*
X128143095Y-76440476D01*
X128143095Y-76440476D02*
X128238333Y-76345238D01*
X128238333Y-76345238D02*
X128333571Y-76297619D01*
X128333571Y-76297619D02*
X128524047Y-76297619D01*
X128524047Y-76297619D02*
X128619285Y-76345238D01*
X128619285Y-76345238D02*
X128714523Y-76440476D01*
X128714523Y-76440476D02*
X128762142Y-76630952D01*
X128762142Y-76630952D02*
X128762142Y-76964285D01*
X128762142Y-76964285D02*
X128714523Y-77154761D01*
X128714523Y-77154761D02*
X128619285Y-77250000D01*
X128619285Y-77250000D02*
X128524047Y-77297619D01*
X128524047Y-77297619D02*
X128333571Y-77297619D01*
X129143095Y-76392857D02*
X129190714Y-76345238D01*
X129190714Y-76345238D02*
X129285952Y-76297619D01*
X129285952Y-76297619D02*
X129524047Y-76297619D01*
X129524047Y-76297619D02*
X129619285Y-76345238D01*
X129619285Y-76345238D02*
X129666904Y-76392857D01*
X129666904Y-76392857D02*
X129714523Y-76488095D01*
X129714523Y-76488095D02*
X129714523Y-76583333D01*
X129714523Y-76583333D02*
X129666904Y-76726190D01*
X129666904Y-76726190D02*
X129095476Y-77297619D01*
X129095476Y-77297619D02*
X129714523Y-77297619D01*
X142200333Y-82409380D02*
X142152714Y-82457000D01*
X142152714Y-82457000D02*
X142009857Y-82504619D01*
X142009857Y-82504619D02*
X141914619Y-82504619D01*
X141914619Y-82504619D02*
X141771762Y-82457000D01*
X141771762Y-82457000D02*
X141676524Y-82361761D01*
X141676524Y-82361761D02*
X141628905Y-82266523D01*
X141628905Y-82266523D02*
X141581286Y-82076047D01*
X141581286Y-82076047D02*
X141581286Y-81933190D01*
X141581286Y-81933190D02*
X141628905Y-81742714D01*
X141628905Y-81742714D02*
X141676524Y-81647476D01*
X141676524Y-81647476D02*
X141771762Y-81552238D01*
X141771762Y-81552238D02*
X141914619Y-81504619D01*
X141914619Y-81504619D02*
X142009857Y-81504619D01*
X142009857Y-81504619D02*
X142152714Y-81552238D01*
X142152714Y-81552238D02*
X142200333Y-81599857D01*
X143152714Y-82504619D02*
X142581286Y-82504619D01*
X142867000Y-82504619D02*
X142867000Y-81504619D01*
X142867000Y-81504619D02*
X142771762Y-81647476D01*
X142771762Y-81647476D02*
X142676524Y-81742714D01*
X142676524Y-81742714D02*
X142581286Y-81790333D01*
X138938095Y-81377619D02*
X138938095Y-82187142D01*
X138938095Y-82187142D02*
X138985714Y-82282380D01*
X138985714Y-82282380D02*
X139033333Y-82330000D01*
X139033333Y-82330000D02*
X139128571Y-82377619D01*
X139128571Y-82377619D02*
X139319047Y-82377619D01*
X139319047Y-82377619D02*
X139414285Y-82330000D01*
X139414285Y-82330000D02*
X139461904Y-82282380D01*
X139461904Y-82282380D02*
X139509523Y-82187142D01*
X139509523Y-82187142D02*
X139509523Y-81377619D01*
X140414285Y-81710952D02*
X140414285Y-82377619D01*
X140176190Y-81330000D02*
X139938095Y-82044285D01*
X139938095Y-82044285D02*
X140557142Y-82044285D01*
X131558380Y-78906666D02*
X131606000Y-78954285D01*
X131606000Y-78954285D02*
X131653619Y-79097142D01*
X131653619Y-79097142D02*
X131653619Y-79192380D01*
X131653619Y-79192380D02*
X131606000Y-79335237D01*
X131606000Y-79335237D02*
X131510761Y-79430475D01*
X131510761Y-79430475D02*
X131415523Y-79478094D01*
X131415523Y-79478094D02*
X131225047Y-79525713D01*
X131225047Y-79525713D02*
X131082190Y-79525713D01*
X131082190Y-79525713D02*
X130891714Y-79478094D01*
X130891714Y-79478094D02*
X130796476Y-79430475D01*
X130796476Y-79430475D02*
X130701238Y-79335237D01*
X130701238Y-79335237D02*
X130653619Y-79192380D01*
X130653619Y-79192380D02*
X130653619Y-79097142D01*
X130653619Y-79097142D02*
X130701238Y-78954285D01*
X130701238Y-78954285D02*
X130748857Y-78906666D01*
X130748857Y-78525713D02*
X130701238Y-78478094D01*
X130701238Y-78478094D02*
X130653619Y-78382856D01*
X130653619Y-78382856D02*
X130653619Y-78144761D01*
X130653619Y-78144761D02*
X130701238Y-78049523D01*
X130701238Y-78049523D02*
X130748857Y-78001904D01*
X130748857Y-78001904D02*
X130844095Y-77954285D01*
X130844095Y-77954285D02*
X130939333Y-77954285D01*
X130939333Y-77954285D02*
X131082190Y-78001904D01*
X131082190Y-78001904D02*
X131653619Y-78573332D01*
X131653619Y-78573332D02*
X131653619Y-77954285D01*
D12*
X142337619Y-67008333D02*
X143051904Y-67008333D01*
X143051904Y-67008333D02*
X143194761Y-67055952D01*
X143194761Y-67055952D02*
X143290000Y-67151190D01*
X143290000Y-67151190D02*
X143337619Y-67294047D01*
X143337619Y-67294047D02*
X143337619Y-67389285D01*
X142337619Y-66627380D02*
X142337619Y-66008333D01*
X142337619Y-66008333D02*
X142718571Y-66341666D01*
X142718571Y-66341666D02*
X142718571Y-66198809D01*
X142718571Y-66198809D02*
X142766190Y-66103571D01*
X142766190Y-66103571D02*
X142813809Y-66055952D01*
X142813809Y-66055952D02*
X142909047Y-66008333D01*
X142909047Y-66008333D02*
X143147142Y-66008333D01*
X143147142Y-66008333D02*
X143242380Y-66055952D01*
X143242380Y-66055952D02*
X143290000Y-66103571D01*
X143290000Y-66103571D02*
X143337619Y-66198809D01*
X143337619Y-66198809D02*
X143337619Y-66484523D01*
X143337619Y-66484523D02*
X143290000Y-66579761D01*
X143290000Y-66579761D02*
X143242380Y-66627380D01*
D10*
X133254761Y-88187857D02*
X133159523Y-88140238D01*
X133159523Y-88140238D02*
X133064285Y-88045000D01*
X133064285Y-88045000D02*
X132921428Y-87902142D01*
X132921428Y-87902142D02*
X132826190Y-87854523D01*
X132826190Y-87854523D02*
X132730952Y-87854523D01*
X132778571Y-88092619D02*
X132683333Y-88045000D01*
X132683333Y-88045000D02*
X132588095Y-87949761D01*
X132588095Y-87949761D02*
X132540476Y-87759285D01*
X132540476Y-87759285D02*
X132540476Y-87425952D01*
X132540476Y-87425952D02*
X132588095Y-87235476D01*
X132588095Y-87235476D02*
X132683333Y-87140238D01*
X132683333Y-87140238D02*
X132778571Y-87092619D01*
X132778571Y-87092619D02*
X132969047Y-87092619D01*
X132969047Y-87092619D02*
X133064285Y-87140238D01*
X133064285Y-87140238D02*
X133159523Y-87235476D01*
X133159523Y-87235476D02*
X133207142Y-87425952D01*
X133207142Y-87425952D02*
X133207142Y-87759285D01*
X133207142Y-87759285D02*
X133159523Y-87949761D01*
X133159523Y-87949761D02*
X133064285Y-88045000D01*
X133064285Y-88045000D02*
X132969047Y-88092619D01*
X132969047Y-88092619D02*
X132778571Y-88092619D01*
X134159523Y-88092619D02*
X133588095Y-88092619D01*
X133873809Y-88092619D02*
X133873809Y-87092619D01*
X133873809Y-87092619D02*
X133778571Y-87235476D01*
X133778571Y-87235476D02*
X133683333Y-87330714D01*
X133683333Y-87330714D02*
X133588095Y-87378333D01*
X136421905Y-87330619D02*
X136421905Y-86330619D01*
X136421905Y-86330619D02*
X136660000Y-86330619D01*
X136660000Y-86330619D02*
X136802857Y-86378238D01*
X136802857Y-86378238D02*
X136898095Y-86473476D01*
X136898095Y-86473476D02*
X136945714Y-86568714D01*
X136945714Y-86568714D02*
X136993333Y-86759190D01*
X136993333Y-86759190D02*
X136993333Y-86902047D01*
X136993333Y-86902047D02*
X136945714Y-87092523D01*
X136945714Y-87092523D02*
X136898095Y-87187761D01*
X136898095Y-87187761D02*
X136802857Y-87283000D01*
X136802857Y-87283000D02*
X136660000Y-87330619D01*
X136660000Y-87330619D02*
X136421905Y-87330619D01*
X137945714Y-87330619D02*
X137374286Y-87330619D01*
X137660000Y-87330619D02*
X137660000Y-86330619D01*
X137660000Y-86330619D02*
X137564762Y-86473476D01*
X137564762Y-86473476D02*
X137469524Y-86568714D01*
X137469524Y-86568714D02*
X137374286Y-86616333D01*
X121118333Y-77551619D02*
X120785000Y-77075428D01*
X120546905Y-77551619D02*
X120546905Y-76551619D01*
X120546905Y-76551619D02*
X120927857Y-76551619D01*
X120927857Y-76551619D02*
X121023095Y-76599238D01*
X121023095Y-76599238D02*
X121070714Y-76646857D01*
X121070714Y-76646857D02*
X121118333Y-76742095D01*
X121118333Y-76742095D02*
X121118333Y-76884952D01*
X121118333Y-76884952D02*
X121070714Y-76980190D01*
X121070714Y-76980190D02*
X121023095Y-77027809D01*
X121023095Y-77027809D02*
X120927857Y-77075428D01*
X120927857Y-77075428D02*
X120546905Y-77075428D01*
X121975476Y-76551619D02*
X121785000Y-76551619D01*
X121785000Y-76551619D02*
X121689762Y-76599238D01*
X121689762Y-76599238D02*
X121642143Y-76646857D01*
X121642143Y-76646857D02*
X121546905Y-76789714D01*
X121546905Y-76789714D02*
X121499286Y-76980190D01*
X121499286Y-76980190D02*
X121499286Y-77361142D01*
X121499286Y-77361142D02*
X121546905Y-77456380D01*
X121546905Y-77456380D02*
X121594524Y-77504000D01*
X121594524Y-77504000D02*
X121689762Y-77551619D01*
X121689762Y-77551619D02*
X121880238Y-77551619D01*
X121880238Y-77551619D02*
X121975476Y-77504000D01*
X121975476Y-77504000D02*
X122023095Y-77456380D01*
X122023095Y-77456380D02*
X122070714Y-77361142D01*
X122070714Y-77361142D02*
X122070714Y-77123047D01*
X122070714Y-77123047D02*
X122023095Y-77027809D01*
X122023095Y-77027809D02*
X121975476Y-76980190D01*
X121975476Y-76980190D02*
X121880238Y-76932571D01*
X121880238Y-76932571D02*
X121689762Y-76932571D01*
X121689762Y-76932571D02*
X121594524Y-76980190D01*
X121594524Y-76980190D02*
X121546905Y-77027809D01*
X121546905Y-77027809D02*
X121499286Y-77123047D01*
X124166666Y-82012619D02*
X124166666Y-82726904D01*
X124166666Y-82726904D02*
X124119047Y-82869761D01*
X124119047Y-82869761D02*
X124023809Y-82965000D01*
X124023809Y-82965000D02*
X123880952Y-83012619D01*
X123880952Y-83012619D02*
X123785714Y-83012619D01*
X125166666Y-83012619D02*
X124595238Y-83012619D01*
X124880952Y-83012619D02*
X124880952Y-82012619D01*
X124880952Y-82012619D02*
X124785714Y-82155476D01*
X124785714Y-82155476D02*
X124690476Y-82250714D01*
X124690476Y-82250714D02*
X124595238Y-82298333D01*
X121747619Y-67159094D02*
X120747619Y-67159094D01*
X120747619Y-67159094D02*
X120747619Y-66920999D01*
X120747619Y-66920999D02*
X120795238Y-66778142D01*
X120795238Y-66778142D02*
X120890476Y-66682904D01*
X120890476Y-66682904D02*
X120985714Y-66635285D01*
X120985714Y-66635285D02*
X121176190Y-66587666D01*
X121176190Y-66587666D02*
X121319047Y-66587666D01*
X121319047Y-66587666D02*
X121509523Y-66635285D01*
X121509523Y-66635285D02*
X121604761Y-66682904D01*
X121604761Y-66682904D02*
X121700000Y-66778142D01*
X121700000Y-66778142D02*
X121747619Y-66920999D01*
X121747619Y-66920999D02*
X121747619Y-67159094D01*
X121080952Y-65730523D02*
X121747619Y-65730523D01*
X120700000Y-65968618D02*
X121414285Y-66206713D01*
X121414285Y-66206713D02*
X121414285Y-65587666D01*
D13*
X133095276Y-85329500D02*
X133604724Y-85329500D01*
X133095276Y-86374500D02*
X133604724Y-86374500D01*
X121807500Y-68960276D02*
X121807500Y-69469724D01*
X120762500Y-68960276D02*
X120762500Y-69469724D01*
X125390000Y-77865000D02*
X122960000Y-77865000D01*
X125410000Y-77875000D02*
X125410000Y-78875000D01*
X125410000Y-79875000D02*
X125410000Y-80925000D01*
X125410000Y-80925000D02*
X123560000Y-80925000D01*
X120762500Y-79629724D02*
X120762500Y-79120276D01*
X121807500Y-79629724D02*
X121807500Y-79120276D01*
X120775000Y-58158767D02*
X120775000Y-57866233D01*
X121795000Y-58158767D02*
X121795000Y-57866233D01*
X141200000Y-75280000D02*
X140200000Y-75280000D01*
X141200000Y-74500000D02*
X141200000Y-75280000D01*
X141200000Y-49540000D02*
X141200000Y-55955000D01*
X122960000Y-75280000D02*
X123960000Y-75280000D01*
X122960000Y-74500000D02*
X122960000Y-75280000D01*
X122960000Y-55955000D02*
X122580000Y-55955000D01*
X122960000Y-49540000D02*
X141200000Y-49540000D01*
X122960000Y-49540000D02*
X122960000Y-55955000D01*
X129705000Y-77775000D02*
X128105000Y-77775000D01*
X128105000Y-80975000D02*
X130405000Y-80975000D01*
X141305000Y-81225000D02*
X143175000Y-81225000D01*
X143175000Y-81225000D02*
X143175000Y-77140000D01*
X141305000Y-77140000D02*
X141305000Y-81225000D01*
X135295000Y-76610000D02*
X136435000Y-76610000D01*
X136435000Y-76380000D02*
X136435000Y-76610000D01*
X136435000Y-76380000D02*
X139155000Y-76380000D01*
X136435000Y-81100000D02*
X136435000Y-80870000D01*
X139155000Y-76380000D02*
X139155000Y-77690000D01*
X139155000Y-79790000D02*
X139155000Y-81100000D01*
X139155000Y-81100000D02*
X136435000Y-81100000D01*
X131780000Y-81225000D02*
X133650000Y-81225000D01*
X133650000Y-81225000D02*
X133650000Y-77140000D01*
X131780000Y-77140000D02*
X131780000Y-81225000D01*
X134150000Y-81712000D02*
X132550000Y-81712000D01*
X132550000Y-84912000D02*
X134850000Y-84912000D01*
X135650000Y-82890000D02*
X135650000Y-85320000D01*
X135660000Y-82870000D02*
X136660000Y-82870000D01*
X137660000Y-82870000D02*
X138710000Y-82870000D01*
X138710000Y-82870000D02*
X138710000Y-84720000D01*
X121807500Y-74675276D02*
X121807500Y-75184724D01*
X120762500Y-74675276D02*
X120762500Y-75184724D01*
X120670000Y-82045000D02*
X122090000Y-82045000D01*
X120670000Y-93765000D02*
X120670000Y-82045000D01*
X122090000Y-82045000D02*
X122090000Y-86545000D01*
X122090000Y-86545000D02*
X125730000Y-86545000D01*
X122930000Y-82355000D02*
X123530000Y-82355000D01*
X122980000Y-87655000D02*
X122980000Y-93155000D01*
X122980000Y-93155000D02*
X123480000Y-93155000D01*
X123230000Y-82955000D02*
X122930000Y-82355000D01*
X123480000Y-87655000D02*
X122980000Y-87655000D01*
X123480000Y-93155000D02*
X123480000Y-87655000D01*
X123530000Y-82355000D02*
X123230000Y-82955000D01*
X125480000Y-87655000D02*
X125480000Y-93155000D01*
X125480000Y-93155000D02*
X125980000Y-93155000D01*
X125730000Y-93765000D02*
X120670000Y-93765000D01*
X125730000Y-93765000D02*
X130790000Y-93765000D01*
X125980000Y-87655000D02*
X125480000Y-87655000D01*
X125980000Y-93155000D02*
X125980000Y-87655000D01*
X127980000Y-87655000D02*
X127980000Y-93155000D01*
X127980000Y-93155000D02*
X128480000Y-93155000D01*
X128480000Y-87655000D02*
X127980000Y-87655000D01*
X128480000Y-93155000D02*
X128480000Y-87655000D01*
X129370000Y-82045000D02*
X129370000Y-86545000D01*
X129370000Y-86545000D02*
X125730000Y-86545000D01*
X130790000Y-82045000D02*
X129370000Y-82045000D01*
X130790000Y-93765000D02*
X130790000Y-82045000D01*
X122020000Y-62235000D02*
X120550000Y-62235000D01*
X120550000Y-62235000D02*
X120550000Y-64695000D01*
X122020000Y-64695000D02*
X122020000Y-62235000D01*
%LPC*%
D14*
X132437500Y-85852000D03*
X134262500Y-85852000D03*
D15*
X121285000Y-68302500D03*
X121285000Y-70127500D03*
D16*
X148500000Y-72650000D03*
X148500000Y-75190000D03*
D17*
X148000000Y-77730000D03*
X148000000Y-80270000D03*
X148000000Y-82810000D03*
X148000000Y-85350000D03*
D18*
X123150000Y-78425000D03*
X123150000Y-80325000D03*
X125770000Y-79375000D03*
D19*
X121285000Y-80287500D03*
X121285000Y-78462500D03*
D20*
X121285000Y-58875000D03*
X121285000Y-57150000D03*
D21*
X131980000Y-65570000D03*
X131980000Y-64170000D03*
X131280000Y-66270000D03*
X131280000Y-64870000D03*
X131280000Y-63470000D03*
D22*
X130580000Y-64870000D03*
D21*
X130555000Y-65570000D03*
X130555000Y-64170000D03*
X129880000Y-66270000D03*
X129880000Y-64870000D03*
X129880000Y-63470000D03*
X129180000Y-65570000D03*
X129180000Y-64170000D03*
D23*
X140830000Y-57150000D03*
X140830000Y-58420000D03*
X140830000Y-59690000D03*
X140830000Y-60960000D03*
X140830000Y-62230000D03*
X140830000Y-63500000D03*
X140830000Y-64770000D03*
X140830000Y-66040000D03*
X140830000Y-67310000D03*
X140830000Y-68580000D03*
X140830000Y-69850000D03*
X140830000Y-71120000D03*
X140830000Y-72390000D03*
X140830000Y-73660000D03*
D24*
X137800000Y-74910000D03*
X136530000Y-74910000D03*
X135260000Y-74910000D03*
X133990000Y-74910000D03*
X132720000Y-74910000D03*
X131450000Y-74910000D03*
X130180000Y-74910000D03*
X128910000Y-74910000D03*
X127640000Y-74910000D03*
X126370000Y-74910000D03*
D23*
X123330000Y-73660000D03*
X123330000Y-72390000D03*
X123330000Y-71120000D03*
X123330000Y-69850000D03*
X123330000Y-68580000D03*
X123330000Y-67310000D03*
X123330000Y-66040000D03*
X123330000Y-64770000D03*
X123330000Y-63500000D03*
X123330000Y-62230000D03*
X123330000Y-60960000D03*
X123330000Y-59690000D03*
X123330000Y-58420000D03*
X123330000Y-57150000D03*
D25*
X130065000Y-80325000D03*
X130065000Y-79375000D03*
X130065000Y-78425000D03*
X127745000Y-78425000D03*
X127745000Y-79375000D03*
X127745000Y-80325000D03*
D26*
X142240000Y-80177500D03*
X142240000Y-77302500D03*
D27*
X135345000Y-77240000D03*
D28*
X135432500Y-78740000D03*
D27*
X135345000Y-80240000D03*
D26*
X132715000Y-80177500D03*
X132715000Y-77302500D03*
D29*
X142875000Y-58420000D03*
D30*
X142875000Y-59690000D03*
X142875000Y-60960000D03*
X142875000Y-62230000D03*
X142875000Y-63500000D03*
X142875000Y-64770000D03*
D25*
X134510000Y-84262000D03*
X134510000Y-83312000D03*
X134510000Y-82362000D03*
X132190000Y-82362000D03*
X132190000Y-83312000D03*
X132190000Y-84262000D03*
D31*
X136210000Y-85130000D03*
X138110000Y-85130000D03*
X137160000Y-82510000D03*
D15*
X121285000Y-74017500D03*
X121285000Y-75842500D03*
D32*
X123230000Y-84455000D03*
D33*
X125730000Y-84455000D03*
X128230000Y-84455000D03*
D34*
X121285000Y-63020000D03*
X121285000Y-64770000D03*
M02*
