%TF.GenerationSoftware,KiCad,Pcbnew,7.0.5-7.0.5~ubuntu22.04.1*%
%TF.CreationDate,2023-06-28T22:22:44+02:00*%
%TF.ProjectId,BatMon,4261744d-6f6e-42e6-9b69-6361645f7063,rev?*%
%TF.SameCoordinates,Original*%
%TF.FileFunction,Copper,L1,Top*%
%TF.FilePolarity,Positive*%
%FSLAX46Y46*%
G04 Gerber Fmt 4.6, Leading zero omitted, Abs format (unit mm)*
G04 Created by KiCad (PCBNEW 7.0.5-7.0.5~ubuntu22.04.1) date 2023-06-28 22:22:44*
%MOMM*%
%LPD*%
G01*
G04 APERTURE LIST*
G04 Aperture macros list*
%AMRoundRect*
0 Rectangle with rounded corners*
0 $1 Rounding radius*
0 $2 $3 $4 $5 $6 $7 $8 $9 X,Y pos of 4 corners*
0 Add a 4 corners polygon primitive as box body*
4,1,4,$2,$3,$4,$5,$6,$7,$8,$9,$2,$3,0*
0 Add four circle primitives for the rounded corners*
1,1,$1+$1,$2,$3*
1,1,$1+$1,$4,$5*
1,1,$1+$1,$6,$7*
1,1,$1+$1,$8,$9*
0 Add four rect primitives between the rounded corners*
20,1,$1+$1,$2,$3,$4,$5,0*
20,1,$1+$1,$4,$5,$6,$7,0*
20,1,$1+$1,$6,$7,$8,$9,0*
20,1,$1+$1,$8,$9,$2,$3,0*%
%AMFreePoly0*
4,1,9,5.362500,-0.866500,1.237500,-0.866500,1.237500,-0.450000,-1.237500,-0.450000,-1.237500,0.450000,1.237500,0.450000,1.237500,0.866500,5.362500,0.866500,5.362500,-0.866500,5.362500,-0.866500,$1*%
G04 Aperture macros list end*
%TA.AperFunction,SMDPad,CuDef*%
%ADD10RoundRect,0.237500X-0.250000X-0.237500X0.250000X-0.237500X0.250000X0.237500X-0.250000X0.237500X0*%
%TD*%
%TA.AperFunction,SMDPad,CuDef*%
%ADD11RoundRect,0.237500X-0.237500X0.250000X-0.237500X-0.250000X0.237500X-0.250000X0.237500X0.250000X0*%
%TD*%
%TA.AperFunction,ComponentPad*%
%ADD12RoundRect,0.400000X3.100000X-0.400000X3.100000X0.400000X-3.100000X0.400000X-3.100000X-0.400000X0*%
%TD*%
%TA.AperFunction,ComponentPad*%
%ADD13RoundRect,0.400000X2.600000X-0.400000X2.600000X0.400000X-2.600000X0.400000X-2.600000X-0.400000X0*%
%TD*%
%TA.AperFunction,SMDPad,CuDef*%
%ADD14R,1.220000X0.650000*%
%TD*%
%TA.AperFunction,SMDPad,CuDef*%
%ADD15RoundRect,0.237500X0.237500X-0.250000X0.237500X0.250000X-0.237500X0.250000X-0.237500X-0.250000X0*%
%TD*%
%TA.AperFunction,SMDPad,CuDef*%
%ADD16RoundRect,0.237500X0.237500X-0.300000X0.237500X0.300000X-0.237500X0.300000X-0.237500X-0.300000X0*%
%TD*%
%TA.AperFunction,SMDPad,CuDef*%
%ADD17R,1.500000X0.900000*%
%TD*%
%TA.AperFunction,SMDPad,CuDef*%
%ADD18R,0.900000X1.500000*%
%TD*%
%TA.AperFunction,SMDPad,CuDef*%
%ADD19R,0.900000X0.900000*%
%TD*%
%TA.AperFunction,HeatsinkPad*%
%ADD20C,0.600000*%
%TD*%
%TA.AperFunction,SMDPad,CuDef*%
%ADD21R,3.800000X3.800000*%
%TD*%
%TA.AperFunction,SMDPad,CuDef*%
%ADD22R,0.700000X0.510000*%
%TD*%
%TA.AperFunction,SMDPad,CuDef*%
%ADD23RoundRect,0.250000X0.425000X-0.537500X0.425000X0.537500X-0.425000X0.537500X-0.425000X-0.537500X0*%
%TD*%
%TA.AperFunction,SMDPad,CuDef*%
%ADD24R,2.300000X0.900000*%
%TD*%
%TA.AperFunction,SMDPad,CuDef*%
%ADD25FreePoly0,0.000000*%
%TD*%
%TA.AperFunction,ComponentPad*%
%ADD26R,1.000000X1.000000*%
%TD*%
%TA.AperFunction,ComponentPad*%
%ADD27O,1.000000X1.000000*%
%TD*%
%TA.AperFunction,SMDPad,CuDef*%
%ADD28R,0.650000X1.220000*%
%TD*%
%TA.AperFunction,ComponentPad*%
%ADD29RoundRect,0.250000X-0.600000X-0.725000X0.600000X-0.725000X0.600000X0.725000X-0.600000X0.725000X0*%
%TD*%
%TA.AperFunction,ComponentPad*%
%ADD30O,1.700000X1.950000*%
%TD*%
%TA.AperFunction,SMDPad,CuDef*%
%ADD31RoundRect,0.237500X-0.237500X0.287500X-0.237500X-0.287500X0.237500X-0.287500X0.237500X0.287500X0*%
%TD*%
%TA.AperFunction,ViaPad*%
%ADD32C,0.800000*%
%TD*%
%TA.AperFunction,Conductor*%
%ADD33C,0.600000*%
%TD*%
%TA.AperFunction,Conductor*%
%ADD34C,0.250000*%
%TD*%
%TA.AperFunction,Conductor*%
%ADD35C,0.500000*%
%TD*%
%TA.AperFunction,Conductor*%
%ADD36C,1.000000*%
%TD*%
G04 APERTURE END LIST*
D10*
X132437500Y-85852000D03*
X134262500Y-85852000D03*
D11*
X121285000Y-68302500D03*
X121285000Y-70127500D03*
D12*
X148500000Y-72650000D03*
X148500000Y-75190000D03*
D13*
X148000000Y-77730000D03*
X148000000Y-80270000D03*
X148000000Y-82810000D03*
X148000000Y-85350000D03*
D14*
X123150000Y-78425000D03*
X123150000Y-80325000D03*
X125770000Y-79375000D03*
D15*
X121285000Y-80287500D03*
X121285000Y-78462500D03*
D16*
X121285000Y-58875000D03*
X121285000Y-57150000D03*
D17*
X123330000Y-57150000D03*
X123330000Y-58420000D03*
X123330000Y-59690000D03*
X123330000Y-60960000D03*
X123330000Y-62230000D03*
X123330000Y-63500000D03*
X123330000Y-64770000D03*
X123330000Y-66040000D03*
X123330000Y-67310000D03*
X123330000Y-68580000D03*
X123330000Y-69850000D03*
X123330000Y-71120000D03*
X123330000Y-72390000D03*
X123330000Y-73660000D03*
D18*
X126370000Y-74910000D03*
X127640000Y-74910000D03*
X128910000Y-74910000D03*
X130180000Y-74910000D03*
X131450000Y-74910000D03*
X132720000Y-74910000D03*
X133990000Y-74910000D03*
X135260000Y-74910000D03*
X136530000Y-74910000D03*
X137800000Y-74910000D03*
D17*
X140830000Y-73660000D03*
X140830000Y-72390000D03*
X140830000Y-71120000D03*
X140830000Y-69850000D03*
X140830000Y-68580000D03*
X140830000Y-67310000D03*
X140830000Y-66040000D03*
X140830000Y-64770000D03*
X140830000Y-63500000D03*
X140830000Y-62230000D03*
X140830000Y-60960000D03*
X140830000Y-59690000D03*
X140830000Y-58420000D03*
X140830000Y-57150000D03*
D19*
X129180000Y-63470000D03*
D20*
X129180000Y-64170000D03*
D19*
X129180000Y-64870000D03*
D20*
X129180000Y-65570000D03*
D19*
X129180000Y-66270000D03*
D20*
X129880000Y-63470000D03*
X129880000Y-64870000D03*
X129880000Y-66270000D03*
X130555000Y-64170000D03*
X130555000Y-65570000D03*
D19*
X130580000Y-63470000D03*
X130580000Y-64870000D03*
D21*
X130580000Y-64870000D03*
D19*
X130580000Y-66270000D03*
D20*
X131280000Y-63470000D03*
X131280000Y-64870000D03*
X131280000Y-66270000D03*
D19*
X131980000Y-63470000D03*
D20*
X131980000Y-64170000D03*
D19*
X131980000Y-64870000D03*
D20*
X131980000Y-65570000D03*
D19*
X131980000Y-66270000D03*
D22*
X130065000Y-80325000D03*
X130065000Y-79375000D03*
X130065000Y-78425000D03*
X127745000Y-78425000D03*
X127745000Y-79375000D03*
X127745000Y-80325000D03*
D23*
X142240000Y-80177500D03*
X142240000Y-77302500D03*
D24*
X135345000Y-77240000D03*
D25*
X135432500Y-78740000D03*
D24*
X135345000Y-80240000D03*
D23*
X132715000Y-80177500D03*
X132715000Y-77302500D03*
D26*
X142875000Y-58420000D03*
D27*
X142875000Y-59690000D03*
X142875000Y-60960000D03*
X142875000Y-62230000D03*
X142875000Y-63500000D03*
X142875000Y-64770000D03*
D22*
X134510000Y-84262000D03*
X134510000Y-83312000D03*
X134510000Y-82362000D03*
X132190000Y-82362000D03*
X132190000Y-83312000D03*
X132190000Y-84262000D03*
D28*
X136210000Y-85130000D03*
X138110000Y-85130000D03*
X137160000Y-82510000D03*
D11*
X121285000Y-74017500D03*
X121285000Y-75842500D03*
D29*
X123230000Y-84455000D03*
D30*
X125730000Y-84455000D03*
X128230000Y-84455000D03*
D31*
X121285000Y-63020000D03*
X121285000Y-64770000D03*
D32*
X133985000Y-63500000D03*
X140335000Y-80645000D03*
X130175000Y-86360000D03*
X137160000Y-71755000D03*
X125095000Y-58420000D03*
X128905000Y-76924500D03*
X130810000Y-76835000D03*
X139065000Y-59690000D03*
X142875000Y-74930000D03*
X139065000Y-63500000D03*
X125095000Y-59690000D03*
X134620000Y-73025000D03*
X135255000Y-63500000D03*
X125730000Y-67945000D03*
X126365000Y-73025000D03*
X137795000Y-63500000D03*
X121285000Y-61595000D03*
X140970000Y-75565000D03*
X142875000Y-57150000D03*
X125095000Y-57150000D03*
X140335000Y-81915000D03*
X125730000Y-64135000D03*
X138430000Y-71755000D03*
X126365000Y-80645000D03*
X130810000Y-83820000D03*
X127000000Y-63500000D03*
D33*
X123330000Y-58420000D02*
X125095000Y-58420000D01*
X123330000Y-58420000D02*
X121740000Y-58420000D01*
X140335000Y-79375000D02*
X140335000Y-80645000D01*
X140802500Y-78740000D02*
X142240000Y-80177500D01*
X135432500Y-78740000D02*
X139700000Y-78740000D01*
X139700000Y-78740000D02*
X140335000Y-79375000D01*
X135432500Y-78740000D02*
X140802500Y-78740000D01*
X121740000Y-58420000D02*
G75*
G03*
X121285000Y-58875000I0J-455000D01*
G01*
D34*
X128905000Y-77265000D02*
X127745000Y-78425000D01*
X126720000Y-78425000D02*
X125770000Y-79375000D01*
X128905000Y-76924500D02*
X128905000Y-77265000D01*
X127745000Y-78425000D02*
X126720000Y-78425000D01*
X130810000Y-76835000D02*
X131445000Y-77470000D01*
X137160000Y-82510000D02*
X137160000Y-82055000D01*
X131445000Y-77470000D02*
X131445000Y-79375000D01*
D33*
X132715000Y-81837000D02*
X132190000Y-82362000D01*
D35*
X132777500Y-80240000D02*
X132715000Y-80177500D01*
D34*
X132247500Y-80177500D02*
X132715000Y-80177500D01*
D33*
X132715000Y-80177500D02*
X132715000Y-81837000D01*
D35*
X135345000Y-80240000D02*
X132777500Y-80240000D01*
D34*
X131445000Y-79375000D02*
X132247500Y-80177500D01*
X137160000Y-82055000D02*
X135345000Y-80240000D01*
D35*
X144145000Y-79375000D02*
X145040000Y-80270000D01*
X139065000Y-59690000D02*
X140830000Y-59690000D01*
X145040000Y-80270000D02*
X146000000Y-80270000D01*
X142875000Y-74930000D02*
X144145000Y-76200000D01*
X144145000Y-76200000D02*
X144145000Y-79375000D01*
X139065000Y-63500000D02*
X140830000Y-63500000D01*
D34*
X123330000Y-59690000D02*
X125095000Y-59690000D01*
X125095000Y-72390000D02*
X123330000Y-72390000D01*
X125730000Y-71755000D02*
X125095000Y-72390000D01*
X133350000Y-71755000D02*
X125730000Y-71755000D01*
X134620000Y-73025000D02*
X133350000Y-71755000D01*
X123330000Y-73660000D02*
X121642500Y-73660000D01*
X121642500Y-73660000D02*
X121285000Y-74017500D01*
X134262500Y-85852000D02*
X135488000Y-85852000D01*
X135110000Y-82362000D02*
X136210000Y-83462000D01*
X134510000Y-82362000D02*
X135110000Y-82362000D01*
X136210000Y-83462000D02*
X136210000Y-85130000D01*
X135488000Y-85852000D02*
X136210000Y-85130000D01*
X129540000Y-76200000D02*
X130065000Y-76725000D01*
X125410000Y-78425000D02*
X127635000Y-76200000D01*
X123150000Y-78425000D02*
X121322500Y-78425000D01*
X123150000Y-78425000D02*
X125410000Y-78425000D01*
X121322500Y-78425000D02*
X121285000Y-78462500D01*
X127635000Y-76200000D02*
X129540000Y-76200000D01*
X130065000Y-76725000D02*
X130065000Y-78425000D01*
X123330000Y-63500000D02*
X124460000Y-63500000D01*
X126365000Y-61595000D02*
X133985000Y-61595000D01*
X133985000Y-61595000D02*
X135255000Y-62865000D01*
X124460000Y-63500000D02*
X126365000Y-61595000D01*
X135255000Y-62865000D02*
X135255000Y-63500000D01*
X124460000Y-64770000D02*
X123330000Y-64770000D01*
X125730000Y-67945000D02*
X125730000Y-66040000D01*
X125730000Y-66040000D02*
X124460000Y-64770000D01*
X123330000Y-69850000D02*
X121562500Y-69850000D01*
X121562500Y-69850000D02*
X121285000Y-70127500D01*
X121285000Y-68302500D02*
X121285000Y-64770000D01*
D33*
X142240000Y-76835000D02*
X140970000Y-75565000D01*
X121285000Y-80645000D02*
X121285000Y-80287500D01*
X121285000Y-57150000D02*
X123330000Y-57150000D01*
X125690000Y-81915000D02*
X122555000Y-81915000D01*
X142177500Y-77240000D02*
X135345000Y-77240000D01*
X121285000Y-63020000D02*
X121285000Y-61595000D01*
X126370000Y-74910000D02*
X126370000Y-73030000D01*
X128230000Y-84455000D02*
X125690000Y-81915000D01*
X121285000Y-75842500D02*
X125437500Y-75842500D01*
X126370000Y-73030000D02*
X126365000Y-73025000D01*
X135345000Y-77240000D02*
X132777500Y-77240000D01*
X142240000Y-77302500D02*
X142177500Y-77240000D01*
X142875000Y-57150000D02*
X140830000Y-57150000D01*
X122555000Y-81915000D02*
X121285000Y-80645000D01*
X142240000Y-77302500D02*
X142240000Y-76835000D01*
X125437500Y-75842500D02*
X126370000Y-74910000D01*
X132777500Y-77240000D02*
X132715000Y-77302500D01*
X123330000Y-57150000D02*
X125095000Y-57150000D01*
D36*
X123190000Y-87632449D02*
X123190000Y-84495000D01*
X142240786Y-88264214D02*
X142240000Y-88265000D01*
X140970000Y-89535000D02*
X125092551Y-89535000D01*
X142240786Y-86280573D02*
X142240786Y-88264214D01*
X123190000Y-84495000D02*
X123230000Y-84455000D01*
X146000000Y-85350000D02*
X143250000Y-85350000D01*
X143250000Y-85350018D02*
G75*
G03*
X142240787Y-86280573I1700J-1014382D01*
G01*
X123190000Y-87632449D02*
G75*
G03*
X125092551Y-89535000I1902600J49D01*
G01*
X140970000Y-89535000D02*
G75*
G03*
X142240000Y-88265000I0J1270000D01*
G01*
X126365000Y-87630000D02*
X139700000Y-87630000D01*
X141980000Y-82810000D02*
X146000000Y-82810000D01*
X125730000Y-86995000D02*
X125730000Y-84455000D01*
X140335000Y-86995000D02*
X140335000Y-84455000D01*
X125730000Y-86995000D02*
G75*
G03*
X126365000Y-87630000I635000J0D01*
G01*
X141980000Y-82810000D02*
G75*
G03*
X140335000Y-84455000I0J-1645000D01*
G01*
X139700000Y-87630000D02*
G75*
G03*
X140335000Y-86995000I0J635000D01*
G01*
D33*
X127745000Y-80325000D02*
X126685000Y-80325000D01*
D34*
X129910000Y-80480000D02*
X130065000Y-80325000D01*
D33*
X130065000Y-80325000D02*
X127745000Y-80325000D01*
D34*
X129910000Y-84825000D02*
X129910000Y-80480000D01*
X130937000Y-85852000D02*
X129910000Y-84825000D01*
D33*
X126685000Y-80325000D02*
X126365000Y-80645000D01*
X130065000Y-79375000D02*
X130065000Y-80325000D01*
X127745000Y-79375000D02*
X130065000Y-79375000D01*
D34*
X132437500Y-85852000D02*
X130937000Y-85852000D01*
D33*
X127745000Y-80325000D02*
X127745000Y-79375000D01*
X132190000Y-84262000D02*
X134510000Y-84262000D01*
X132190000Y-83312000D02*
X132190000Y-83820000D01*
X132190000Y-83820000D02*
X132190000Y-84262000D01*
X134510000Y-84262000D02*
X134510000Y-83312000D01*
X134510000Y-83312000D02*
X132190000Y-83312000D01*
X130810000Y-83820000D02*
X132190000Y-83820000D01*
D34*
X127000000Y-68580000D02*
X128905000Y-70485000D01*
X139065000Y-73025000D02*
X139700000Y-73660000D01*
X133985000Y-70485000D02*
X136525000Y-73025000D01*
X139700000Y-73660000D02*
X140830000Y-73660000D01*
X136525000Y-73025000D02*
X139065000Y-73025000D01*
X128905000Y-70485000D02*
X133985000Y-70485000D01*
X127000000Y-63500000D02*
X127000000Y-68580000D01*
X142875000Y-60960000D02*
X140830000Y-60960000D01*
X142875000Y-62230000D02*
X140830000Y-62230000D01*
%TA.AperFunction,Conductor*%
G36*
X124602539Y-79070185D02*
G01*
X124648294Y-79122989D01*
X124659500Y-79174500D01*
X124659500Y-79747870D01*
X124659501Y-79747876D01*
X124665908Y-79807483D01*
X124716202Y-79942328D01*
X124716206Y-79942335D01*
X124802452Y-80057544D01*
X124802455Y-80057547D01*
X124917664Y-80143793D01*
X124917671Y-80143797D01*
X124962618Y-80160561D01*
X125052517Y-80194091D01*
X125112127Y-80200500D01*
X125391914Y-80200499D01*
X125458952Y-80220183D01*
X125504707Y-80272987D01*
X125514651Y-80342146D01*
X125509844Y-80362816D01*
X125479327Y-80456739D01*
X125479327Y-80456740D01*
X125479326Y-80456744D01*
X125459540Y-80645000D01*
X125479326Y-80833256D01*
X125479327Y-80833259D01*
X125537818Y-81013277D01*
X125537821Y-81013284D01*
X125632467Y-81177216D01*
X125749967Y-81307713D01*
X125759129Y-81317888D01*
X125912265Y-81429148D01*
X125912270Y-81429151D01*
X126085192Y-81506142D01*
X126085197Y-81506144D01*
X126270354Y-81545500D01*
X126270355Y-81545500D01*
X126459644Y-81545500D01*
X126459646Y-81545500D01*
X126644803Y-81506144D01*
X126817730Y-81429151D01*
X126970871Y-81317888D01*
X127097533Y-81177216D01*
X127097536Y-81177209D01*
X127097971Y-81176613D01*
X127098314Y-81176348D01*
X127101881Y-81172387D01*
X127102605Y-81173039D01*
X127153302Y-81133948D01*
X127198288Y-81125500D01*
X127696564Y-81125500D01*
X127703502Y-81125889D01*
X127732400Y-81129145D01*
X127744998Y-81130565D01*
X127745000Y-81130565D01*
X127745002Y-81130565D01*
X127757599Y-81129145D01*
X127786497Y-81125889D01*
X127793436Y-81125500D01*
X129160500Y-81125500D01*
X129227539Y-81145185D01*
X129273294Y-81197989D01*
X129284500Y-81249500D01*
X129284500Y-83182122D01*
X129264815Y-83249161D01*
X129212011Y-83294916D01*
X129142853Y-83304860D01*
X129089376Y-83283697D01*
X128907578Y-83156399D01*
X128693492Y-83056570D01*
X128693486Y-83056567D01*
X128480000Y-82999364D01*
X128479999Y-82999364D01*
X128479999Y-84046981D01*
X128365199Y-83994554D01*
X128263975Y-83980000D01*
X128196025Y-83980000D01*
X128094801Y-83994554D01*
X127979999Y-84046981D01*
X127979999Y-82999364D01*
X127766513Y-83056567D01*
X127766507Y-83056570D01*
X127552422Y-83156399D01*
X127552420Y-83156400D01*
X127358926Y-83291886D01*
X127358920Y-83291891D01*
X127191891Y-83458920D01*
X127191890Y-83458922D01*
X127081880Y-83616032D01*
X127027303Y-83659657D01*
X126957804Y-83666849D01*
X126895450Y-83635327D01*
X126878730Y-83616031D01*
X126768494Y-83458597D01*
X126601402Y-83291506D01*
X126601395Y-83291501D01*
X126407834Y-83155967D01*
X126407830Y-83155965D01*
X126367777Y-83137288D01*
X126193663Y-83056097D01*
X126193659Y-83056096D01*
X126193655Y-83056094D01*
X125965413Y-82994938D01*
X125965403Y-82994936D01*
X125730001Y-82974341D01*
X125729999Y-82974341D01*
X125494596Y-82994936D01*
X125494586Y-82994938D01*
X125266344Y-83056094D01*
X125266335Y-83056098D01*
X125052171Y-83155964D01*
X125052169Y-83155965D01*
X124858597Y-83291505D01*
X124711398Y-83438705D01*
X124650075Y-83472190D01*
X124580383Y-83467206D01*
X124524450Y-83425334D01*
X124518178Y-83416120D01*
X124422712Y-83261344D01*
X124298657Y-83137289D01*
X124298656Y-83137289D01*
X124298656Y-83137288D01*
X124167786Y-83056567D01*
X124149336Y-83045187D01*
X124149331Y-83045185D01*
X124147862Y-83044698D01*
X123982797Y-82990001D01*
X123982795Y-82990000D01*
X123880010Y-82979500D01*
X122579998Y-82979500D01*
X122579981Y-82979501D01*
X122477203Y-82990000D01*
X122477200Y-82990001D01*
X122310668Y-83045185D01*
X122310663Y-83045187D01*
X122161342Y-83137289D01*
X122037289Y-83261342D01*
X121945187Y-83410663D01*
X121945185Y-83410668D01*
X121926450Y-83467206D01*
X121890001Y-83577203D01*
X121890001Y-83577204D01*
X121890000Y-83577204D01*
X121879500Y-83679983D01*
X121879500Y-85230001D01*
X121879501Y-85230018D01*
X121890000Y-85332796D01*
X121890001Y-85332799D01*
X121945185Y-85499331D01*
X121945187Y-85499336D01*
X121970736Y-85540758D01*
X122037287Y-85648655D01*
X122037289Y-85648657D01*
X122153181Y-85764549D01*
X122186666Y-85825872D01*
X122189500Y-85852230D01*
X122189500Y-87536854D01*
X122189498Y-87536898D01*
X122189500Y-87630002D01*
X122189500Y-87684502D01*
X122189501Y-87684552D01*
X122189503Y-87795505D01*
X122217698Y-88045687D01*
X122226018Y-88119511D01*
X122291392Y-88405910D01*
X122298581Y-88437401D01*
X122381730Y-88675014D01*
X122406274Y-88745153D01*
X122547749Y-89038920D01*
X122547750Y-89038921D01*
X122721222Y-89314999D01*
X122924518Y-89569922D01*
X123142915Y-89788319D01*
X123176400Y-89849642D01*
X123171416Y-89919334D01*
X123129544Y-89975267D01*
X123064080Y-89999684D01*
X123055234Y-90000000D01*
X120624000Y-90000000D01*
X120556961Y-89980315D01*
X120511206Y-89927511D01*
X120500000Y-89876000D01*
X120500000Y-81288481D01*
X120519685Y-81221442D01*
X120572489Y-81175687D01*
X120641647Y-81165743D01*
X120689098Y-81182943D01*
X120733693Y-81210450D01*
X120733699Y-81210453D01*
X120897347Y-81264680D01*
X120998352Y-81274999D01*
X121035000Y-81274999D01*
X121035000Y-80161500D01*
X121054685Y-80094461D01*
X121107489Y-80048706D01*
X121159000Y-80037500D01*
X121411000Y-80037500D01*
X121478039Y-80057185D01*
X121523794Y-80109989D01*
X121535000Y-80161500D01*
X121534999Y-81274999D01*
X121571640Y-81274999D01*
X121571654Y-81274998D01*
X121672652Y-81264680D01*
X121836300Y-81210453D01*
X121836311Y-81210448D01*
X121983033Y-81119948D01*
X122056712Y-81046269D01*
X122118035Y-81012784D01*
X122187727Y-81017768D01*
X122218705Y-81034684D01*
X122297664Y-81093793D01*
X122297671Y-81093797D01*
X122432517Y-81144091D01*
X122432516Y-81144091D01*
X122439444Y-81144835D01*
X122492127Y-81150500D01*
X123807872Y-81150499D01*
X123867483Y-81144091D01*
X124002331Y-81093796D01*
X124117546Y-81007546D01*
X124203796Y-80892331D01*
X124254091Y-80757483D01*
X124260500Y-80697873D01*
X124260499Y-79952128D01*
X124254091Y-79892517D01*
X124238233Y-79850000D01*
X124203797Y-79757671D01*
X124203793Y-79757664D01*
X124117547Y-79642455D01*
X124117544Y-79642452D01*
X124002335Y-79556206D01*
X124002328Y-79556202D01*
X123867482Y-79505908D01*
X123867483Y-79505908D01*
X123807883Y-79499501D01*
X123807881Y-79499500D01*
X123807873Y-79499500D01*
X123807864Y-79499500D01*
X122492129Y-79499500D01*
X122492123Y-79499501D01*
X122432516Y-79505908D01*
X122297671Y-79556202D01*
X122297665Y-79556205D01*
X122261594Y-79583208D01*
X122196129Y-79607624D01*
X122127857Y-79592771D01*
X122099604Y-79571621D01*
X121991017Y-79463034D01*
X121957532Y-79401711D01*
X121962516Y-79332019D01*
X121991015Y-79287674D01*
X122100011Y-79178678D01*
X122161332Y-79145195D01*
X122231024Y-79150179D01*
X122261998Y-79167093D01*
X122277477Y-79178680D01*
X122297668Y-79193795D01*
X122297671Y-79193797D01*
X122432517Y-79244091D01*
X122432516Y-79244091D01*
X122439444Y-79244835D01*
X122492127Y-79250500D01*
X123807872Y-79250499D01*
X123867483Y-79244091D01*
X124002331Y-79193796D01*
X124117546Y-79107546D01*
X124123051Y-79100191D01*
X124178985Y-79058319D01*
X124222320Y-79050500D01*
X124535500Y-79050500D01*
X124602539Y-79070185D01*
G37*
%TD.AperFunction*%
%TA.AperFunction,Conductor*%
G36*
X128480000Y-85910634D02*
G01*
X128693483Y-85853433D01*
X128693492Y-85853429D01*
X128907577Y-85753600D01*
X128907579Y-85753599D01*
X129101073Y-85618113D01*
X129101079Y-85618108D01*
X129268108Y-85451079D01*
X129268113Y-85451073D01*
X129341237Y-85346641D01*
X129395813Y-85303016D01*
X129465312Y-85295822D01*
X129527667Y-85327344D01*
X129530493Y-85330083D01*
X129650878Y-85450468D01*
X129684363Y-85511791D01*
X129679379Y-85581483D01*
X129637507Y-85637416D01*
X129636083Y-85638467D01*
X129569127Y-85687113D01*
X129442466Y-85827785D01*
X129347821Y-85991715D01*
X129347818Y-85991722D01*
X129313434Y-86097547D01*
X129289326Y-86171744D01*
X129269540Y-86360000D01*
X129283470Y-86492541D01*
X129270902Y-86561268D01*
X129223170Y-86612292D01*
X129160150Y-86629500D01*
X126854500Y-86629500D01*
X126787461Y-86609815D01*
X126741706Y-86557011D01*
X126730500Y-86505500D01*
X126730500Y-85540758D01*
X126750185Y-85473719D01*
X126766827Y-85453069D01*
X126766826Y-85453069D01*
X126768495Y-85451401D01*
X126878732Y-85293965D01*
X126933306Y-85250342D01*
X127002805Y-85243148D01*
X127065159Y-85274670D01*
X127081880Y-85293967D01*
X127191886Y-85451073D01*
X127191891Y-85451079D01*
X127358917Y-85618105D01*
X127552421Y-85753600D01*
X127766507Y-85853429D01*
X127766516Y-85853433D01*
X127980000Y-85910634D01*
X127979999Y-84863018D01*
X128094801Y-84915446D01*
X128196025Y-84930000D01*
X128263975Y-84930000D01*
X128365199Y-84915446D01*
X128479999Y-84863018D01*
X128480000Y-85910634D01*
G37*
%TD.AperFunction*%
%TA.AperFunction,Conductor*%
G36*
X143620702Y-79912516D02*
G01*
X143627180Y-79918548D01*
X144464269Y-80755637D01*
X144476044Y-80769261D01*
X144490390Y-80788530D01*
X144490391Y-80788531D01*
X144490442Y-80788599D01*
X144510755Y-80830556D01*
X144511479Y-80833259D01*
X144554680Y-80994488D01*
X144564257Y-81013284D01*
X144640614Y-81163146D01*
X144668830Y-81197989D01*
X144759743Y-81310257D01*
X144906561Y-81429148D01*
X144906855Y-81429386D01*
X144907114Y-81429518D01*
X144907237Y-81429634D01*
X144912304Y-81432925D01*
X144911702Y-81433851D01*
X144957908Y-81477495D01*
X144974700Y-81545317D01*
X144952159Y-81611451D01*
X144911850Y-81646377D01*
X144912304Y-81647075D01*
X144907281Y-81650336D01*
X144907114Y-81650482D01*
X144906855Y-81650613D01*
X144759740Y-81769745D01*
X144756305Y-81773181D01*
X144694982Y-81806666D01*
X144668624Y-81809500D01*
X141831427Y-81809500D01*
X141536176Y-81842767D01*
X141536164Y-81842769D01*
X141246474Y-81908888D01*
X141246466Y-81908891D01*
X140966022Y-82007023D01*
X140966008Y-82007029D01*
X140698308Y-82135947D01*
X140446714Y-82294033D01*
X140214403Y-82479295D01*
X140004295Y-82689403D01*
X139819033Y-82921714D01*
X139660947Y-83173308D01*
X139532029Y-83441008D01*
X139532023Y-83441022D01*
X139433891Y-83721466D01*
X139433888Y-83721474D01*
X139367769Y-84011164D01*
X139367767Y-84011176D01*
X139334500Y-84306427D01*
X139334500Y-86505500D01*
X139314815Y-86572539D01*
X139262011Y-86618294D01*
X139210500Y-86629500D01*
X135863660Y-86629500D01*
X135796621Y-86609815D01*
X135750866Y-86557011D01*
X135740922Y-86487853D01*
X135769947Y-86424297D01*
X135790771Y-86405185D01*
X135804486Y-86395219D01*
X135829444Y-86377085D01*
X135834305Y-86373892D01*
X135874420Y-86350170D01*
X135888589Y-86335999D01*
X135903379Y-86323368D01*
X135919587Y-86311594D01*
X135941205Y-86285460D01*
X135999104Y-86246352D01*
X136036751Y-86240499D01*
X136582871Y-86240499D01*
X136582872Y-86240499D01*
X136642483Y-86234091D01*
X136777331Y-86183796D01*
X136892546Y-86097546D01*
X136978796Y-85982331D01*
X137029091Y-85847483D01*
X137035500Y-85787873D01*
X137035500Y-85787870D01*
X137284500Y-85787870D01*
X137284501Y-85787876D01*
X137290908Y-85847483D01*
X137341202Y-85982328D01*
X137341206Y-85982335D01*
X137427452Y-86097544D01*
X137427455Y-86097547D01*
X137542664Y-86183793D01*
X137542671Y-86183797D01*
X137587618Y-86200561D01*
X137677517Y-86234091D01*
X137737127Y-86240500D01*
X138482872Y-86240499D01*
X138542483Y-86234091D01*
X138677331Y-86183796D01*
X138792546Y-86097546D01*
X138878796Y-85982331D01*
X138929091Y-85847483D01*
X138935500Y-85787873D01*
X138935499Y-84472128D01*
X138929091Y-84412517D01*
X138917358Y-84381060D01*
X138878797Y-84277671D01*
X138878793Y-84277664D01*
X138792547Y-84162455D01*
X138792544Y-84162452D01*
X138677335Y-84076206D01*
X138677328Y-84076202D01*
X138542486Y-84025910D01*
X138542485Y-84025909D01*
X138542483Y-84025909D01*
X138482873Y-84019500D01*
X138482863Y-84019500D01*
X137737129Y-84019500D01*
X137737123Y-84019501D01*
X137677516Y-84025908D01*
X137542671Y-84076202D01*
X137542664Y-84076206D01*
X137427455Y-84162452D01*
X137427452Y-84162455D01*
X137341206Y-84277664D01*
X137341202Y-84277671D01*
X137290908Y-84412517D01*
X137286142Y-84456851D01*
X137284501Y-84472123D01*
X137284500Y-84472135D01*
X137284500Y-85787870D01*
X137035500Y-85787870D01*
X137035499Y-84472128D01*
X137029091Y-84412517D01*
X137017358Y-84381060D01*
X136978797Y-84277671D01*
X136978793Y-84277664D01*
X136892548Y-84162457D01*
X136892546Y-84162454D01*
X136892542Y-84162451D01*
X136892540Y-84162449D01*
X136885187Y-84156944D01*
X136843317Y-84101009D01*
X136835500Y-84057679D01*
X136835500Y-83744499D01*
X136855185Y-83677460D01*
X136907989Y-83631705D01*
X136959500Y-83620499D01*
X137532871Y-83620499D01*
X137532872Y-83620499D01*
X137592483Y-83614091D01*
X137727331Y-83563796D01*
X137842546Y-83477546D01*
X137928796Y-83362331D01*
X137979091Y-83227483D01*
X137985500Y-83167873D01*
X137985499Y-81852128D01*
X137979091Y-81792517D01*
X137971879Y-81773181D01*
X137928797Y-81657671D01*
X137928793Y-81657664D01*
X137842547Y-81542455D01*
X137842544Y-81542452D01*
X137727335Y-81456206D01*
X137727328Y-81456202D01*
X137592482Y-81405908D01*
X137592483Y-81405908D01*
X137532883Y-81399501D01*
X137532881Y-81399500D01*
X137532873Y-81399500D01*
X137532865Y-81399500D01*
X137440452Y-81399500D01*
X137373413Y-81379815D01*
X137352771Y-81363181D01*
X136990561Y-81000971D01*
X136957076Y-80939648D01*
X136962060Y-80869957D01*
X136975747Y-80833259D01*
X136989091Y-80797483D01*
X136995500Y-80737873D01*
X136995499Y-80236146D01*
X137015183Y-80169108D01*
X137067987Y-80123353D01*
X137119499Y-80112147D01*
X139390621Y-80112147D01*
X139457660Y-80131832D01*
X139503415Y-80184636D01*
X139513359Y-80253794D01*
X139508552Y-80274465D01*
X139449327Y-80456740D01*
X139449326Y-80456744D01*
X139429540Y-80645000D01*
X139449326Y-80833256D01*
X139449327Y-80833259D01*
X139507818Y-81013277D01*
X139507821Y-81013284D01*
X139602467Y-81177216D01*
X139719967Y-81307713D01*
X139729129Y-81317888D01*
X139882265Y-81429148D01*
X139882270Y-81429151D01*
X140055192Y-81506142D01*
X140055197Y-81506144D01*
X140240354Y-81545500D01*
X140240355Y-81545500D01*
X140429644Y-81545500D01*
X140429646Y-81545500D01*
X140614803Y-81506144D01*
X140787730Y-81429151D01*
X140940871Y-81317888D01*
X141050372Y-81196275D01*
X141109855Y-81159628D01*
X141179712Y-81160958D01*
X141230200Y-81191568D01*
X141346344Y-81307712D01*
X141495666Y-81399814D01*
X141662203Y-81454999D01*
X141764991Y-81465500D01*
X142715008Y-81465499D01*
X142715016Y-81465498D01*
X142715019Y-81465498D01*
X142771302Y-81459748D01*
X142817797Y-81454999D01*
X142984334Y-81399814D01*
X143133656Y-81307712D01*
X143257712Y-81183656D01*
X143349814Y-81034334D01*
X143404999Y-80867797D01*
X143415500Y-80765009D01*
X143415499Y-80006227D01*
X143435183Y-79939190D01*
X143487987Y-79893435D01*
X143557146Y-79883491D01*
X143620702Y-79912516D01*
G37*
%TD.AperFunction*%
%TA.AperFunction,Conductor*%
G36*
X138821587Y-73670185D02*
G01*
X138842229Y-73686819D01*
X139199194Y-74043784D01*
X139209019Y-74056048D01*
X139209240Y-74055866D01*
X139214210Y-74061874D01*
X139263949Y-74108582D01*
X139265316Y-74109906D01*
X139285530Y-74130120D01*
X139291004Y-74134366D01*
X139295442Y-74138156D01*
X139329418Y-74170062D01*
X139329422Y-74170064D01*
X139346973Y-74179713D01*
X139363231Y-74190392D01*
X139379064Y-74202674D01*
X139392900Y-74208661D01*
X139421837Y-74221183D01*
X139427081Y-74223752D01*
X139467908Y-74246197D01*
X139487312Y-74251179D01*
X139505710Y-74257478D01*
X139524105Y-74265438D01*
X139532738Y-74266805D01*
X139537307Y-74267529D01*
X139600442Y-74297458D01*
X139634089Y-74346663D01*
X139636201Y-74352326D01*
X139636206Y-74352335D01*
X139722452Y-74467544D01*
X139722455Y-74467547D01*
X139837664Y-74553793D01*
X139837671Y-74553797D01*
X139972517Y-74604091D01*
X139972516Y-74604091D01*
X139979444Y-74604835D01*
X140032127Y-74610500D01*
X141627872Y-74610499D01*
X141687483Y-74604091D01*
X141822331Y-74553796D01*
X141822333Y-74553793D01*
X141825842Y-74551879D01*
X141829754Y-74551027D01*
X141830641Y-74550697D01*
X141830688Y-74550824D01*
X141894114Y-74537023D01*
X141959579Y-74561437D01*
X142001454Y-74617369D01*
X142006442Y-74687060D01*
X142003206Y-74699024D01*
X141989326Y-74741741D01*
X141985158Y-74781402D01*
X141969540Y-74930000D01*
X141989326Y-75118256D01*
X141989327Y-75118259D01*
X142047818Y-75298277D01*
X142047821Y-75298284D01*
X142142467Y-75462216D01*
X142215516Y-75543345D01*
X142269129Y-75602888D01*
X142422265Y-75714148D01*
X142422270Y-75714151D01*
X142565048Y-75777721D01*
X142618285Y-75822971D01*
X142638606Y-75889820D01*
X142619560Y-75957044D01*
X142567194Y-76003299D01*
X142514612Y-76015000D01*
X142490000Y-76015000D01*
X142490000Y-78589999D01*
X142714972Y-78589999D01*
X142714986Y-78589998D01*
X142817697Y-78579505D01*
X142984119Y-78524358D01*
X142984124Y-78524356D01*
X143133345Y-78432315D01*
X143182819Y-78382842D01*
X143244142Y-78349357D01*
X143313834Y-78354341D01*
X143369767Y-78396213D01*
X143394184Y-78461677D01*
X143394500Y-78470523D01*
X143394500Y-79008770D01*
X143374815Y-79075809D01*
X143322011Y-79121564D01*
X143252853Y-79131508D01*
X143189297Y-79102483D01*
X143182819Y-79096451D01*
X143133657Y-79047289D01*
X143133656Y-79047288D01*
X143037019Y-78987682D01*
X142984336Y-78955187D01*
X142984331Y-78955185D01*
X142944321Y-78941927D01*
X142817797Y-78900001D01*
X142817795Y-78900000D01*
X142715016Y-78889500D01*
X142715009Y-78889500D01*
X142135440Y-78889500D01*
X142068401Y-78869815D01*
X142047759Y-78853181D01*
X141974969Y-78780391D01*
X141941484Y-78719068D01*
X141946468Y-78649376D01*
X141974970Y-78605028D01*
X141990000Y-78589998D01*
X141990000Y-77552500D01*
X141235081Y-77552500D01*
X141168042Y-77532815D01*
X141153879Y-77522213D01*
X141068377Y-77448125D01*
X141068371Y-77448122D01*
X140937456Y-77388334D01*
X140819482Y-77371373D01*
X140795000Y-77367853D01*
X136670000Y-77367853D01*
X136669997Y-77367853D01*
X136598039Y-77372999D01*
X136598034Y-77373000D01*
X136459949Y-77413545D01*
X136459944Y-77413547D01*
X136371613Y-77470315D01*
X136304574Y-77490000D01*
X133930000Y-77490000D01*
X133903819Y-77516181D01*
X133842496Y-77549666D01*
X133816138Y-77552500D01*
X132965000Y-77552500D01*
X132965000Y-78589999D01*
X133189972Y-78589999D01*
X133189986Y-78589998D01*
X133292697Y-78579505D01*
X133459119Y-78524358D01*
X133459126Y-78524355D01*
X133500255Y-78498986D01*
X133567647Y-78480545D01*
X133634311Y-78501467D01*
X133679081Y-78555108D01*
X133689353Y-78604524D01*
X133689353Y-78874888D01*
X133669668Y-78941927D01*
X133616864Y-78987682D01*
X133547706Y-78997626D01*
X133500257Y-78980427D01*
X133459340Y-78955189D01*
X133459335Y-78955187D01*
X133459334Y-78955186D01*
X133292797Y-78900001D01*
X133292795Y-78900000D01*
X133190010Y-78889500D01*
X132239998Y-78889500D01*
X132239975Y-78889502D01*
X132207098Y-78892860D01*
X132138405Y-78880089D01*
X132087522Y-78832207D01*
X132070500Y-78769503D01*
X132070500Y-78709992D01*
X132090186Y-78642954D01*
X132142990Y-78597200D01*
X132207103Y-78586637D01*
X132240019Y-78589999D01*
X132464999Y-78589999D01*
X132464999Y-78589998D01*
X132465000Y-77176500D01*
X132484685Y-77109461D01*
X132537489Y-77063706D01*
X132589000Y-77052500D01*
X133655000Y-77052500D01*
X141065000Y-77052500D01*
X141990000Y-77052500D01*
X141990000Y-76015000D01*
X141765029Y-76015000D01*
X141765012Y-76015001D01*
X141662302Y-76025494D01*
X141495880Y-76080641D01*
X141495875Y-76080643D01*
X141346654Y-76172684D01*
X141222684Y-76296654D01*
X141130643Y-76445875D01*
X141130641Y-76445880D01*
X141075494Y-76612302D01*
X141075493Y-76612309D01*
X141065000Y-76715013D01*
X141065000Y-77052500D01*
X133655000Y-77052500D01*
X133681181Y-77026319D01*
X133742504Y-76992834D01*
X133768862Y-76990000D01*
X136995000Y-76990000D01*
X136995000Y-76742172D01*
X136994999Y-76742155D01*
X136988598Y-76682627D01*
X136988596Y-76682620D01*
X136938354Y-76547913D01*
X136938350Y-76547906D01*
X136852190Y-76432812D01*
X136852187Y-76432809D01*
X136786673Y-76383765D01*
X136744802Y-76327831D01*
X136739818Y-76258140D01*
X136773304Y-76196817D01*
X136834627Y-76163333D01*
X136860982Y-76160499D01*
X137027872Y-76160499D01*
X137087483Y-76154091D01*
X137121667Y-76141340D01*
X137191358Y-76136357D01*
X137208327Y-76141338D01*
X137242517Y-76154091D01*
X137302127Y-76160500D01*
X138297872Y-76160499D01*
X138357483Y-76154091D01*
X138492331Y-76103796D01*
X138607546Y-76017546D01*
X138693796Y-75902331D01*
X138744091Y-75767483D01*
X138750500Y-75707873D01*
X138750499Y-74112128D01*
X138744091Y-74052517D01*
X138735921Y-74030613D01*
X138693797Y-73917671D01*
X138693795Y-73917668D01*
X138672709Y-73889501D01*
X138642248Y-73848810D01*
X138617831Y-73783348D01*
X138632682Y-73715075D01*
X138682087Y-73665669D01*
X138741515Y-73650500D01*
X138754548Y-73650500D01*
X138821587Y-73670185D01*
G37*
%TD.AperFunction*%
%TA.AperFunction,Conductor*%
G36*
X133106587Y-72400185D02*
G01*
X133127229Y-72416819D01*
X133681038Y-72970629D01*
X133714523Y-73031952D01*
X133716678Y-73045348D01*
X133723990Y-73114917D01*
X133734326Y-73213256D01*
X133734327Y-73213258D01*
X133734327Y-73213259D01*
X133792818Y-73393277D01*
X133792820Y-73393281D01*
X133792821Y-73393284D01*
X133812216Y-73426877D01*
X133839134Y-73473501D01*
X133855605Y-73541401D01*
X133832753Y-73607428D01*
X133777831Y-73650618D01*
X133731747Y-73659500D01*
X133492130Y-73659500D01*
X133492123Y-73659501D01*
X133432518Y-73665908D01*
X133398331Y-73678659D01*
X133328639Y-73683642D01*
X133311669Y-73678659D01*
X133288948Y-73670185D01*
X133277483Y-73665909D01*
X133277482Y-73665908D01*
X133217883Y-73659501D01*
X133217881Y-73659500D01*
X133217873Y-73659500D01*
X133217864Y-73659500D01*
X132222129Y-73659500D01*
X132222123Y-73659501D01*
X132162518Y-73665908D01*
X132128331Y-73678659D01*
X132058639Y-73683642D01*
X132041669Y-73678659D01*
X132018948Y-73670185D01*
X132007483Y-73665909D01*
X132007482Y-73665908D01*
X131947883Y-73659501D01*
X131947881Y-73659500D01*
X131947873Y-73659500D01*
X131947864Y-73659500D01*
X130952129Y-73659500D01*
X130952123Y-73659501D01*
X130892518Y-73665908D01*
X130858331Y-73678659D01*
X130788639Y-73683642D01*
X130771669Y-73678659D01*
X130748948Y-73670185D01*
X130737483Y-73665909D01*
X130737482Y-73665908D01*
X130677883Y-73659501D01*
X130677881Y-73659500D01*
X130677873Y-73659500D01*
X130677864Y-73659500D01*
X129682129Y-73659500D01*
X129682123Y-73659501D01*
X129622518Y-73665908D01*
X129588331Y-73678659D01*
X129518639Y-73683642D01*
X129501669Y-73678659D01*
X129478948Y-73670185D01*
X129467483Y-73665909D01*
X129467482Y-73665908D01*
X129407883Y-73659501D01*
X129407881Y-73659500D01*
X129407873Y-73659500D01*
X129407864Y-73659500D01*
X128412129Y-73659500D01*
X128412123Y-73659501D01*
X128352518Y-73665908D01*
X128318331Y-73678659D01*
X128248639Y-73683642D01*
X128231669Y-73678659D01*
X128208948Y-73670185D01*
X128197483Y-73665909D01*
X128197482Y-73665908D01*
X128137883Y-73659501D01*
X128137881Y-73659500D01*
X128137873Y-73659500D01*
X128137864Y-73659500D01*
X127142129Y-73659500D01*
X127142123Y-73659501D01*
X127082520Y-73665908D01*
X127082517Y-73665908D01*
X127082517Y-73665909D01*
X127047620Y-73678925D01*
X127047617Y-73678926D01*
X126977925Y-73683909D01*
X126960952Y-73678925D01*
X126927379Y-73666403D01*
X126927372Y-73666401D01*
X126867844Y-73660000D01*
X126620000Y-73660000D01*
X126619999Y-76162059D01*
X126651008Y-76218846D01*
X126646024Y-76288538D01*
X126617523Y-76332885D01*
X125187228Y-77763181D01*
X125125905Y-77796666D01*
X125099547Y-77799500D01*
X124222320Y-77799500D01*
X124155281Y-77779815D01*
X124123052Y-77749809D01*
X124117548Y-77742457D01*
X124117546Y-77742454D01*
X124117542Y-77742451D01*
X124002335Y-77656206D01*
X124002328Y-77656202D01*
X123867482Y-77605908D01*
X123867483Y-77605908D01*
X123807883Y-77599501D01*
X123807881Y-77599500D01*
X123807873Y-77599500D01*
X123807864Y-77599500D01*
X122492129Y-77599500D01*
X122492123Y-77599501D01*
X122432516Y-77605908D01*
X122297671Y-77656202D01*
X122297664Y-77656206D01*
X122219108Y-77715013D01*
X122153644Y-77739430D01*
X122085371Y-77724578D01*
X122057117Y-77703427D01*
X121983351Y-77629661D01*
X121983350Y-77629660D01*
X121841834Y-77542372D01*
X121836518Y-77539093D01*
X121836513Y-77539091D01*
X121802599Y-77527853D01*
X121672753Y-77484826D01*
X121672751Y-77484825D01*
X121571678Y-77474500D01*
X120998330Y-77474500D01*
X120998312Y-77474501D01*
X120897247Y-77484825D01*
X120733484Y-77539092D01*
X120733477Y-77539096D01*
X120689096Y-77566470D01*
X120621703Y-77584910D01*
X120555040Y-77563987D01*
X120510271Y-77510344D01*
X120500000Y-77460931D01*
X120500000Y-76843481D01*
X120519685Y-76776442D01*
X120572489Y-76730687D01*
X120641647Y-76720743D01*
X120689098Y-76737943D01*
X120733693Y-76765450D01*
X120733699Y-76765453D01*
X120897347Y-76819680D01*
X120998352Y-76829999D01*
X121035000Y-76829999D01*
X121035000Y-76092500D01*
X121535000Y-76092500D01*
X121535000Y-76829999D01*
X121571640Y-76829999D01*
X121571654Y-76829998D01*
X121672652Y-76819680D01*
X121836300Y-76765453D01*
X121836311Y-76765448D01*
X121983034Y-76674947D01*
X121983038Y-76674944D01*
X122104944Y-76553038D01*
X122104947Y-76553034D01*
X122195448Y-76406311D01*
X122195453Y-76406300D01*
X122249680Y-76242652D01*
X122259999Y-76141654D01*
X122260000Y-76141641D01*
X122260000Y-76092500D01*
X121535000Y-76092500D01*
X121035000Y-76092500D01*
X121035000Y-75716500D01*
X121054685Y-75649461D01*
X121107489Y-75603706D01*
X121159000Y-75592500D01*
X122259999Y-75592500D01*
X122259999Y-75543360D01*
X122259998Y-75543345D01*
X122249680Y-75442347D01*
X122195453Y-75278699D01*
X122195448Y-75278688D01*
X122122239Y-75160000D01*
X125420000Y-75160000D01*
X125420000Y-75707844D01*
X125426401Y-75767372D01*
X125426403Y-75767379D01*
X125476645Y-75902086D01*
X125476649Y-75902093D01*
X125562809Y-76017187D01*
X125562812Y-76017190D01*
X125677906Y-76103350D01*
X125677913Y-76103354D01*
X125812620Y-76153596D01*
X125812627Y-76153598D01*
X125872155Y-76159999D01*
X125872172Y-76160000D01*
X126120000Y-76160000D01*
X126120000Y-75160000D01*
X125420000Y-75160000D01*
X122122239Y-75160000D01*
X122104947Y-75131965D01*
X122104944Y-75131961D01*
X121991017Y-75018034D01*
X121957532Y-74956711D01*
X121962516Y-74887019D01*
X121991013Y-74842676D01*
X122105340Y-74728350D01*
X122147499Y-74660000D01*
X125420000Y-74660000D01*
X126120000Y-74660000D01*
X126120000Y-73660000D01*
X125872155Y-73660000D01*
X125812627Y-73666401D01*
X125812620Y-73666403D01*
X125677913Y-73716645D01*
X125677906Y-73716649D01*
X125562812Y-73802809D01*
X125562809Y-73802812D01*
X125476649Y-73917906D01*
X125476645Y-73917913D01*
X125426403Y-74052620D01*
X125426401Y-74052627D01*
X125420000Y-74112155D01*
X125420000Y-74660000D01*
X122147499Y-74660000D01*
X122182863Y-74602665D01*
X122234809Y-74555943D01*
X122303771Y-74544720D01*
X122331733Y-74551582D01*
X122472517Y-74604091D01*
X122472516Y-74604091D01*
X122479444Y-74604835D01*
X122532127Y-74610500D01*
X124127872Y-74610499D01*
X124187483Y-74604091D01*
X124322331Y-74553796D01*
X124437546Y-74467546D01*
X124523796Y-74352331D01*
X124574091Y-74217483D01*
X124580500Y-74157873D01*
X124580499Y-73162128D01*
X124580498Y-73162126D01*
X124580498Y-73162114D01*
X124579492Y-73152757D01*
X124591896Y-73083997D01*
X124639506Y-73032859D01*
X124702781Y-73015500D01*
X125012257Y-73015500D01*
X125027877Y-73017224D01*
X125027904Y-73016939D01*
X125035666Y-73017673D01*
X125035666Y-73017672D01*
X125035667Y-73017673D01*
X125038999Y-73017568D01*
X125103847Y-73015531D01*
X125105794Y-73015500D01*
X125134347Y-73015500D01*
X125134350Y-73015500D01*
X125141228Y-73014630D01*
X125147041Y-73014172D01*
X125193627Y-73012709D01*
X125212869Y-73007117D01*
X125231912Y-73003174D01*
X125251792Y-73000664D01*
X125295122Y-72983507D01*
X125300646Y-72981617D01*
X125304396Y-72980527D01*
X125345390Y-72968618D01*
X125362629Y-72958422D01*
X125380103Y-72949862D01*
X125398727Y-72942488D01*
X125398727Y-72942487D01*
X125398732Y-72942486D01*
X125436449Y-72915082D01*
X125441305Y-72911892D01*
X125481420Y-72888170D01*
X125495586Y-72874003D01*
X125510381Y-72861368D01*
X125513619Y-72859014D01*
X125526587Y-72849594D01*
X125556302Y-72813674D01*
X125560202Y-72809387D01*
X125952771Y-72416818D01*
X126014094Y-72383334D01*
X126040452Y-72380500D01*
X133039548Y-72380500D01*
X133106587Y-72400185D01*
G37*
%TD.AperFunction*%
%TA.AperFunction,Conductor*%
G36*
X142283164Y-65578583D02*
G01*
X142316460Y-65605909D01*
X142316467Y-65605913D01*
X142490266Y-65698811D01*
X142490269Y-65698811D01*
X142490273Y-65698814D01*
X142678868Y-65756024D01*
X142875000Y-65775341D01*
X143071132Y-65756024D01*
X143259727Y-65698814D01*
X143317546Y-65667908D01*
X143385948Y-65653666D01*
X143451192Y-65678665D01*
X143492563Y-65734969D01*
X143500000Y-65777265D01*
X143500000Y-71000000D01*
X151376487Y-71030737D01*
X151443446Y-71050683D01*
X151488995Y-71103665D01*
X151500000Y-71154736D01*
X151500000Y-71226000D01*
X151480315Y-71293039D01*
X151427511Y-71338794D01*
X151376000Y-71350000D01*
X148750000Y-71350000D01*
X148750000Y-72776000D01*
X148730315Y-72843039D01*
X148677511Y-72888794D01*
X148626000Y-72900000D01*
X146166111Y-72900000D01*
X146205610Y-72875543D01*
X146273201Y-72786038D01*
X146303895Y-72678160D01*
X146293546Y-72566479D01*
X146243552Y-72466078D01*
X146171069Y-72400000D01*
X148250000Y-72400000D01*
X148250000Y-71350000D01*
X145337012Y-71350000D01*
X145258436Y-71356184D01*
X145258435Y-71356184D01*
X145075692Y-71405150D01*
X144907126Y-71491037D01*
X144907124Y-71491038D01*
X144760099Y-71610099D01*
X144641038Y-71757124D01*
X144641037Y-71757126D01*
X144555150Y-71925692D01*
X144506184Y-72108435D01*
X144506184Y-72108436D01*
X144500000Y-72187012D01*
X144500000Y-72400000D01*
X145833889Y-72400000D01*
X145794390Y-72424457D01*
X145726799Y-72513962D01*
X145696105Y-72621840D01*
X145706454Y-72733521D01*
X145756448Y-72833922D01*
X145828931Y-72900000D01*
X144500000Y-72900000D01*
X144500000Y-73112987D01*
X144506184Y-73191563D01*
X144506184Y-73191564D01*
X144555150Y-73374307D01*
X144641037Y-73542873D01*
X144641038Y-73542875D01*
X144760099Y-73689900D01*
X144907124Y-73808961D01*
X144907127Y-73808963D01*
X144907663Y-73809236D01*
X144907916Y-73809475D01*
X144912574Y-73812500D01*
X144912020Y-73813351D01*
X144958458Y-73857212D01*
X144975251Y-73925033D01*
X144952711Y-73991168D01*
X144911932Y-74026503D01*
X144912304Y-74027075D01*
X144908189Y-74029747D01*
X144907668Y-74030199D01*
X144906858Y-74030611D01*
X144906855Y-74030613D01*
X144759743Y-74149743D01*
X144640614Y-74296853D01*
X144554680Y-74465512D01*
X144505687Y-74648356D01*
X144505687Y-74648357D01*
X144499500Y-74726973D01*
X144499500Y-75193770D01*
X144479815Y-75260809D01*
X144427011Y-75306564D01*
X144357853Y-75316508D01*
X144294297Y-75287483D01*
X144287819Y-75281451D01*
X143787770Y-74781402D01*
X143757521Y-74732041D01*
X143715485Y-74602667D01*
X143702181Y-74561721D01*
X143702178Y-74561715D01*
X143607533Y-74397784D01*
X143480871Y-74257112D01*
X143472701Y-74251176D01*
X143327734Y-74145851D01*
X143327729Y-74145848D01*
X143154807Y-74068857D01*
X143154802Y-74068855D01*
X143009001Y-74037865D01*
X142969646Y-74029500D01*
X142780354Y-74029500D01*
X142747897Y-74036398D01*
X142595197Y-74068855D01*
X142595192Y-74068857D01*
X142422271Y-74145848D01*
X142277384Y-74251114D01*
X142211577Y-74274593D01*
X142143524Y-74258767D01*
X142094829Y-74208661D01*
X142080499Y-74150799D01*
X142080499Y-73162128D01*
X142075299Y-73113757D01*
X142074091Y-73102516D01*
X142061341Y-73068332D01*
X142056357Y-72998640D01*
X142061342Y-72981664D01*
X142066209Y-72968617D01*
X142074091Y-72947483D01*
X142080500Y-72887873D01*
X142080499Y-71892128D01*
X142074091Y-71832517D01*
X142061341Y-71798332D01*
X142056357Y-71728640D01*
X142061342Y-71711664D01*
X142074091Y-71677483D01*
X142075424Y-71665084D01*
X142080500Y-71617873D01*
X142080499Y-70622128D01*
X142074091Y-70562517D01*
X142061340Y-70528332D01*
X142056357Y-70458642D01*
X142061340Y-70441669D01*
X142074091Y-70407483D01*
X142080500Y-70347873D01*
X142080499Y-69352128D01*
X142074091Y-69292517D01*
X142061341Y-69258332D01*
X142056357Y-69188640D01*
X142061340Y-69171667D01*
X142074091Y-69137483D01*
X142080500Y-69077873D01*
X142080499Y-68082128D01*
X142074091Y-68022517D01*
X142061340Y-67988332D01*
X142056357Y-67918642D01*
X142061340Y-67901669D01*
X142074091Y-67867483D01*
X142080500Y-67807873D01*
X142080499Y-66812128D01*
X142074091Y-66752517D01*
X142061340Y-66718332D01*
X142056357Y-66648642D01*
X142061341Y-66631667D01*
X142074091Y-66597483D01*
X142080500Y-66537873D01*
X142080499Y-65674435D01*
X142100183Y-65607397D01*
X142152987Y-65561642D01*
X142222146Y-65551698D01*
X142283164Y-65578583D01*
G37*
%TD.AperFunction*%
%TA.AperFunction,Conductor*%
G36*
X139905761Y-56019685D02*
G01*
X139951516Y-56072489D01*
X139961460Y-56141647D01*
X139932435Y-56205203D01*
X139882055Y-56240182D01*
X139837913Y-56256645D01*
X139837906Y-56256649D01*
X139722812Y-56342809D01*
X139722809Y-56342812D01*
X139636649Y-56457906D01*
X139636645Y-56457913D01*
X139586403Y-56592620D01*
X139586401Y-56592627D01*
X139580000Y-56652155D01*
X139580000Y-56900000D01*
X142080000Y-56900000D01*
X142080000Y-56652172D01*
X142079999Y-56652155D01*
X142073598Y-56592627D01*
X142073596Y-56592620D01*
X142023354Y-56457913D01*
X142023350Y-56457906D01*
X141937190Y-56342812D01*
X141937187Y-56342809D01*
X141822093Y-56256649D01*
X141822086Y-56256645D01*
X141777945Y-56240182D01*
X141722011Y-56198311D01*
X141697594Y-56132847D01*
X141712445Y-56064574D01*
X141761851Y-56015168D01*
X141821278Y-56000000D01*
X143376000Y-56000000D01*
X143443039Y-56019685D01*
X143488794Y-56072489D01*
X143500000Y-56124000D01*
X143500000Y-57295500D01*
X143480315Y-57362539D01*
X143427511Y-57408294D01*
X143376000Y-57419500D01*
X142327129Y-57419500D01*
X142327123Y-57419501D01*
X142267515Y-57425909D01*
X142224474Y-57441962D01*
X142154783Y-57446946D01*
X142093461Y-57413461D01*
X142080000Y-57400000D01*
X139580000Y-57400000D01*
X139580000Y-57647844D01*
X139586401Y-57707372D01*
X139586403Y-57707379D01*
X139598925Y-57740952D01*
X139603909Y-57810643D01*
X139598925Y-57827617D01*
X139585909Y-57862514D01*
X139585908Y-57862516D01*
X139579501Y-57922116D01*
X139579500Y-57922135D01*
X139579500Y-58742407D01*
X139559815Y-58809446D01*
X139507011Y-58855201D01*
X139437853Y-58865145D01*
X139405064Y-58855686D01*
X139344806Y-58828857D01*
X139344802Y-58828855D01*
X139199000Y-58797865D01*
X139159646Y-58789500D01*
X138970354Y-58789500D01*
X138937897Y-58796398D01*
X138785197Y-58828855D01*
X138785192Y-58828857D01*
X138612270Y-58905848D01*
X138612265Y-58905851D01*
X138459129Y-59017111D01*
X138332466Y-59157785D01*
X138237821Y-59321715D01*
X138237818Y-59321722D01*
X138181885Y-59493868D01*
X138179326Y-59501744D01*
X138159540Y-59690000D01*
X138179326Y-59878256D01*
X138179327Y-59878259D01*
X138237818Y-60058277D01*
X138237821Y-60058284D01*
X138332467Y-60222216D01*
X138433568Y-60334500D01*
X138459129Y-60362888D01*
X138612265Y-60474148D01*
X138612270Y-60474151D01*
X138785192Y-60551142D01*
X138785197Y-60551144D01*
X138970354Y-60590500D01*
X138970355Y-60590500D01*
X139159644Y-60590500D01*
X139159646Y-60590500D01*
X139344803Y-60551144D01*
X139388440Y-60531714D01*
X139405064Y-60524314D01*
X139474314Y-60515029D01*
X139537590Y-60544657D01*
X139574804Y-60603791D01*
X139579500Y-60637593D01*
X139579500Y-61457870D01*
X139579501Y-61457876D01*
X139585908Y-61517481D01*
X139598659Y-61551669D01*
X139603642Y-61621361D01*
X139598659Y-61638331D01*
X139585908Y-61672518D01*
X139579501Y-61732116D01*
X139579501Y-61732123D01*
X139579500Y-61732135D01*
X139579500Y-62552407D01*
X139559815Y-62619446D01*
X139507011Y-62665201D01*
X139437853Y-62675145D01*
X139405064Y-62665686D01*
X139344806Y-62638857D01*
X139344802Y-62638855D01*
X139191727Y-62606319D01*
X139159646Y-62599500D01*
X138970354Y-62599500D01*
X138938273Y-62606319D01*
X138785197Y-62638855D01*
X138785192Y-62638857D01*
X138612270Y-62715848D01*
X138612265Y-62715851D01*
X138459129Y-62827111D01*
X138332466Y-62967785D01*
X138237821Y-63131715D01*
X138237818Y-63131722D01*
X138185582Y-63292489D01*
X138179326Y-63311744D01*
X138159540Y-63500000D01*
X138179326Y-63688256D01*
X138179327Y-63688259D01*
X138237818Y-63868277D01*
X138237821Y-63868284D01*
X138332467Y-64032216D01*
X138430000Y-64140537D01*
X138459129Y-64172888D01*
X138612265Y-64284148D01*
X138612270Y-64284151D01*
X138785192Y-64361142D01*
X138785197Y-64361144D01*
X138970354Y-64400500D01*
X138970355Y-64400500D01*
X139159644Y-64400500D01*
X139159646Y-64400500D01*
X139344803Y-64361144D01*
X139388440Y-64341714D01*
X139405064Y-64334314D01*
X139474314Y-64325029D01*
X139537590Y-64354657D01*
X139574804Y-64413791D01*
X139579500Y-64447593D01*
X139579500Y-65267870D01*
X139579501Y-65267876D01*
X139585908Y-65327483D01*
X139598658Y-65361667D01*
X139603642Y-65431359D01*
X139598659Y-65448329D01*
X139585909Y-65482516D01*
X139585908Y-65482517D01*
X139579501Y-65542116D01*
X139579500Y-65542135D01*
X139579500Y-66537870D01*
X139579501Y-66537876D01*
X139585908Y-66597483D01*
X139598658Y-66631667D01*
X139603642Y-66701359D01*
X139598659Y-66718329D01*
X139585909Y-66752516D01*
X139585908Y-66752517D01*
X139579501Y-66812116D01*
X139579501Y-66812123D01*
X139579500Y-66812135D01*
X139579500Y-67807870D01*
X139579501Y-67807876D01*
X139585908Y-67867481D01*
X139598659Y-67901669D01*
X139603642Y-67971361D01*
X139598659Y-67988331D01*
X139585908Y-68022518D01*
X139579501Y-68082116D01*
X139579501Y-68082123D01*
X139579500Y-68082135D01*
X139579500Y-69077870D01*
X139579501Y-69077876D01*
X139585908Y-69137481D01*
X139598659Y-69171669D01*
X139603642Y-69241361D01*
X139598659Y-69258331D01*
X139585908Y-69292518D01*
X139579501Y-69352116D01*
X139579501Y-69352123D01*
X139579500Y-69352135D01*
X139579500Y-70347870D01*
X139579501Y-70347876D01*
X139585908Y-70407481D01*
X139598659Y-70441669D01*
X139603642Y-70511361D01*
X139598659Y-70528331D01*
X139585908Y-70562518D01*
X139579501Y-70622116D01*
X139579501Y-70622123D01*
X139579500Y-70622135D01*
X139579500Y-71617870D01*
X139579501Y-71617876D01*
X139585908Y-71677481D01*
X139598659Y-71711669D01*
X139603642Y-71781361D01*
X139598659Y-71798331D01*
X139585908Y-71832518D01*
X139580433Y-71883449D01*
X139579501Y-71892123D01*
X139579500Y-71892135D01*
X139579500Y-72379405D01*
X139559815Y-72446444D01*
X139507011Y-72492199D01*
X139437853Y-72502143D01*
X139392379Y-72486137D01*
X139385933Y-72482325D01*
X139343168Y-72463818D01*
X139337922Y-72461248D01*
X139297093Y-72438803D01*
X139297092Y-72438802D01*
X139277693Y-72433822D01*
X139259281Y-72427518D01*
X139240898Y-72419562D01*
X139240892Y-72419560D01*
X139194874Y-72412272D01*
X139189152Y-72411087D01*
X139144021Y-72399500D01*
X139144019Y-72399500D01*
X139123984Y-72399500D01*
X139104586Y-72397973D01*
X139097162Y-72396797D01*
X139084805Y-72394840D01*
X139084804Y-72394840D01*
X139038416Y-72399225D01*
X139032578Y-72399500D01*
X138042480Y-72399500D01*
X137975441Y-72379815D01*
X137929686Y-72327011D01*
X137919742Y-72257853D01*
X137935093Y-72213500D01*
X137941103Y-72203089D01*
X137987179Y-72123284D01*
X138045674Y-71943256D01*
X138065460Y-71755000D01*
X138045674Y-71566744D01*
X137987179Y-71386716D01*
X137892533Y-71222784D01*
X137765871Y-71082112D01*
X137750848Y-71071197D01*
X137612734Y-70970851D01*
X137612729Y-70970848D01*
X137439807Y-70893857D01*
X137439802Y-70893855D01*
X137294001Y-70862865D01*
X137254646Y-70854500D01*
X137065354Y-70854500D01*
X137032897Y-70861398D01*
X136880197Y-70893855D01*
X136880192Y-70893857D01*
X136707270Y-70970848D01*
X136707265Y-70970851D01*
X136554129Y-71082111D01*
X136427466Y-71222785D01*
X136332821Y-71386715D01*
X136332818Y-71386722D01*
X136274327Y-71566740D01*
X136274326Y-71566744D01*
X136270781Y-71600472D01*
X136244197Y-71665084D01*
X136186900Y-71705069D01*
X136117081Y-71707729D01*
X136059780Y-71675189D01*
X134485803Y-70101212D01*
X134475980Y-70088950D01*
X134475759Y-70089134D01*
X134470786Y-70083122D01*
X134421066Y-70036432D01*
X134419666Y-70035075D01*
X134399476Y-70014884D01*
X134393986Y-70010625D01*
X134389561Y-70006847D01*
X134355582Y-69974938D01*
X134355580Y-69974936D01*
X134355577Y-69974935D01*
X134338029Y-69965288D01*
X134321763Y-69954604D01*
X134305933Y-69942325D01*
X134263168Y-69923818D01*
X134257922Y-69921248D01*
X134217093Y-69898803D01*
X134217092Y-69898802D01*
X134197693Y-69893822D01*
X134179281Y-69887518D01*
X134160898Y-69879562D01*
X134160892Y-69879560D01*
X134114874Y-69872272D01*
X134109152Y-69871087D01*
X134064021Y-69859500D01*
X134064019Y-69859500D01*
X134043984Y-69859500D01*
X134024586Y-69857973D01*
X134017162Y-69856797D01*
X134004805Y-69854840D01*
X134004804Y-69854840D01*
X133958416Y-69859225D01*
X133952578Y-69859500D01*
X129215452Y-69859500D01*
X129148413Y-69839815D01*
X129127771Y-69823181D01*
X127661818Y-68357228D01*
X127628333Y-68295905D01*
X127625499Y-68269547D01*
X127625499Y-65120000D01*
X128180000Y-65120000D01*
X128180000Y-66817844D01*
X128186401Y-66877372D01*
X128186403Y-66877379D01*
X128236645Y-67012086D01*
X128236649Y-67012093D01*
X128322809Y-67127187D01*
X128322812Y-67127190D01*
X128437906Y-67213350D01*
X128437913Y-67213354D01*
X128572620Y-67263596D01*
X128572627Y-67263598D01*
X128632155Y-67269999D01*
X128632172Y-67270000D01*
X130330000Y-67270000D01*
X130830000Y-67270000D01*
X132527828Y-67270000D01*
X132527844Y-67269999D01*
X132587372Y-67263598D01*
X132587379Y-67263596D01*
X132722086Y-67213354D01*
X132722093Y-67213350D01*
X132837187Y-67127190D01*
X132837190Y-67127187D01*
X132923350Y-67012093D01*
X132923354Y-67012086D01*
X132973596Y-66877379D01*
X132973598Y-66877372D01*
X132979999Y-66817844D01*
X132980000Y-66817827D01*
X132980000Y-65120000D01*
X132230000Y-65120000D01*
X132230000Y-65466445D01*
X132245871Y-65482316D01*
X132279357Y-65543639D01*
X132274373Y-65613331D01*
X132245874Y-65657679D01*
X132230000Y-65673553D01*
X132230000Y-66396000D01*
X132210315Y-66463039D01*
X132157511Y-66508794D01*
X132106000Y-66520000D01*
X131383553Y-66520000D01*
X131367680Y-66535873D01*
X131306356Y-66569357D01*
X131236665Y-66564371D01*
X131192320Y-66535873D01*
X131176446Y-66520000D01*
X130830000Y-66520000D01*
X130830000Y-67270000D01*
X130330000Y-67270000D01*
X130330000Y-66520000D01*
X129983552Y-66520000D01*
X129967681Y-66535872D01*
X129906358Y-66569357D01*
X129836666Y-66564373D01*
X129792319Y-66535872D01*
X129776447Y-66520000D01*
X129054000Y-66520000D01*
X128986961Y-66500315D01*
X128941206Y-66447511D01*
X128930000Y-66396000D01*
X128930000Y-66270000D01*
X129724709Y-66270000D01*
X129745514Y-66347645D01*
X129802355Y-66404486D01*
X129860254Y-66420000D01*
X129899746Y-66420000D01*
X129957645Y-66404486D01*
X130014486Y-66347646D01*
X130035291Y-66270000D01*
X131124709Y-66270000D01*
X131145514Y-66347645D01*
X131202355Y-66404486D01*
X131260254Y-66420000D01*
X131299746Y-66420000D01*
X131357645Y-66404486D01*
X131414486Y-66347646D01*
X131435291Y-66270000D01*
X131414486Y-66192355D01*
X131357645Y-66135514D01*
X131299746Y-66120000D01*
X131260254Y-66120000D01*
X131202355Y-66135514D01*
X131145514Y-66192354D01*
X131124709Y-66270000D01*
X130035291Y-66270000D01*
X130014486Y-66192355D01*
X129957645Y-66135514D01*
X129899746Y-66120000D01*
X129860254Y-66120000D01*
X129802355Y-66135514D01*
X129745514Y-66192354D01*
X129724709Y-66270000D01*
X128930000Y-66270000D01*
X128930000Y-65673553D01*
X128914128Y-65657681D01*
X128880643Y-65596358D01*
X128882528Y-65570000D01*
X129024709Y-65570000D01*
X129045514Y-65647645D01*
X129102355Y-65704486D01*
X129160254Y-65720000D01*
X129199746Y-65720000D01*
X129257645Y-65704486D01*
X129314486Y-65647646D01*
X129335291Y-65570000D01*
X129534442Y-65570000D01*
X129867542Y-65903903D01*
X130201446Y-65570000D01*
X130399709Y-65570000D01*
X130420514Y-65647645D01*
X130477355Y-65704486D01*
X130535254Y-65720000D01*
X130574746Y-65720000D01*
X130632645Y-65704486D01*
X130689486Y-65647646D01*
X130710291Y-65570000D01*
X130710291Y-65569999D01*
X130933553Y-65569999D01*
X131279999Y-65916447D01*
X131280000Y-65916447D01*
X131626446Y-65570000D01*
X131824709Y-65570000D01*
X131845514Y-65647645D01*
X131902355Y-65704486D01*
X131960254Y-65720000D01*
X131999746Y-65720000D01*
X132057645Y-65704486D01*
X132114486Y-65647646D01*
X132135291Y-65570000D01*
X132114486Y-65492355D01*
X132057645Y-65435514D01*
X131999746Y-65420000D01*
X131960254Y-65420000D01*
X131902355Y-65435514D01*
X131845514Y-65492354D01*
X131824709Y-65570000D01*
X131626446Y-65570000D01*
X131626447Y-65569999D01*
X131280001Y-65223553D01*
X131280000Y-65223553D01*
X130933553Y-65569998D01*
X130933553Y-65569999D01*
X130710291Y-65569999D01*
X130689486Y-65492355D01*
X130632645Y-65435514D01*
X130574746Y-65420000D01*
X130535254Y-65420000D01*
X130477355Y-65435514D01*
X130420514Y-65492354D01*
X130399709Y-65570000D01*
X130201446Y-65570000D01*
X130201447Y-65569999D01*
X129867543Y-65236095D01*
X129534442Y-65570000D01*
X129335291Y-65570000D01*
X129314486Y-65492355D01*
X129257645Y-65435514D01*
X129199746Y-65420000D01*
X129160254Y-65420000D01*
X129102355Y-65435514D01*
X129045514Y-65492354D01*
X129024709Y-65570000D01*
X128882528Y-65570000D01*
X128885627Y-65526666D01*
X128914128Y-65482319D01*
X128929999Y-65466447D01*
X128930000Y-65466446D01*
X128930000Y-65120000D01*
X128180000Y-65120000D01*
X127625499Y-65120000D01*
X127625499Y-64870000D01*
X129724709Y-64870000D01*
X129745514Y-64947645D01*
X129802355Y-65004486D01*
X129860254Y-65020000D01*
X129899746Y-65020000D01*
X129957645Y-65004486D01*
X130014486Y-64947646D01*
X130035291Y-64870000D01*
X131124709Y-64870000D01*
X131145514Y-64947645D01*
X131202355Y-65004486D01*
X131260254Y-65020000D01*
X131299746Y-65020000D01*
X131357645Y-65004486D01*
X131414486Y-64947646D01*
X131435291Y-64870000D01*
X131414486Y-64792355D01*
X131357645Y-64735514D01*
X131299746Y-64720000D01*
X131260254Y-64720000D01*
X131202355Y-64735514D01*
X131145514Y-64792354D01*
X131124709Y-64870000D01*
X130035291Y-64870000D01*
X130014486Y-64792355D01*
X129957645Y-64735514D01*
X129899746Y-64720000D01*
X129860254Y-64720000D01*
X129802355Y-64735514D01*
X129745514Y-64792354D01*
X129724709Y-64870000D01*
X127625499Y-64870000D01*
X127625499Y-64620000D01*
X128180000Y-64620000D01*
X128930000Y-64620000D01*
X128930000Y-64273553D01*
X128914126Y-64257679D01*
X128880642Y-64196355D01*
X128882528Y-64170000D01*
X129024709Y-64170000D01*
X129045514Y-64247645D01*
X129102355Y-64304486D01*
X129160254Y-64320000D01*
X129199746Y-64320000D01*
X129257645Y-64304486D01*
X129314486Y-64247646D01*
X129335291Y-64170000D01*
X129335291Y-64169999D01*
X129533553Y-64169999D01*
X129867500Y-64503946D01*
X130201446Y-64170000D01*
X130399709Y-64170000D01*
X130420514Y-64247645D01*
X130477355Y-64304486D01*
X130535254Y-64320000D01*
X130574746Y-64320000D01*
X130632645Y-64304486D01*
X130689486Y-64247646D01*
X130710291Y-64170000D01*
X130710291Y-64169999D01*
X130933553Y-64169999D01*
X131279999Y-64516447D01*
X131280000Y-64516447D01*
X131626446Y-64170000D01*
X131824709Y-64170000D01*
X131845514Y-64247645D01*
X131902355Y-64304486D01*
X131960254Y-64320000D01*
X131999746Y-64320000D01*
X132057645Y-64304486D01*
X132114486Y-64247646D01*
X132135291Y-64170000D01*
X132114486Y-64092355D01*
X132057645Y-64035514D01*
X131999746Y-64020000D01*
X131960254Y-64020000D01*
X131902355Y-64035514D01*
X131845514Y-64092354D01*
X131824709Y-64170000D01*
X131626446Y-64170000D01*
X131626447Y-64169999D01*
X131280001Y-63823553D01*
X131280000Y-63823553D01*
X130933553Y-64169998D01*
X130933553Y-64169999D01*
X130710291Y-64169999D01*
X130689486Y-64092355D01*
X130632645Y-64035514D01*
X130574746Y-64020000D01*
X130535254Y-64020000D01*
X130477355Y-64035514D01*
X130420514Y-64092354D01*
X130399709Y-64170000D01*
X130201446Y-64170000D01*
X130201447Y-64169999D01*
X129867500Y-63836052D01*
X129533553Y-64169998D01*
X129533553Y-64169999D01*
X129335291Y-64169999D01*
X129314486Y-64092355D01*
X129257645Y-64035514D01*
X129199746Y-64020000D01*
X129160254Y-64020000D01*
X129102355Y-64035514D01*
X129045514Y-64092354D01*
X129024709Y-64170000D01*
X128882528Y-64170000D01*
X128885628Y-64126664D01*
X128914129Y-64082316D01*
X128930000Y-64066445D01*
X128930000Y-63470000D01*
X129724709Y-63470000D01*
X129745514Y-63547645D01*
X129802355Y-63604486D01*
X129860254Y-63620000D01*
X129899746Y-63620000D01*
X129957645Y-63604486D01*
X130014486Y-63547646D01*
X130035291Y-63470000D01*
X131124709Y-63470000D01*
X131145514Y-63547645D01*
X131202355Y-63604486D01*
X131260254Y-63620000D01*
X131299746Y-63620000D01*
X131357645Y-63604486D01*
X131414486Y-63547646D01*
X131435291Y-63470000D01*
X131414486Y-63392355D01*
X131357645Y-63335514D01*
X131299746Y-63320000D01*
X131260254Y-63320000D01*
X131202355Y-63335514D01*
X131145514Y-63392354D01*
X131124709Y-63470000D01*
X130035291Y-63470000D01*
X130014486Y-63392355D01*
X129957645Y-63335514D01*
X129899746Y-63320000D01*
X129860254Y-63320000D01*
X129802355Y-63335514D01*
X129745514Y-63392354D01*
X129724709Y-63470000D01*
X128930000Y-63470000D01*
X128930000Y-63344000D01*
X128949685Y-63276961D01*
X129002489Y-63231206D01*
X129054000Y-63220000D01*
X129776447Y-63220000D01*
X129776447Y-63219999D01*
X129792319Y-63204128D01*
X129853642Y-63170643D01*
X129923334Y-63175627D01*
X129967681Y-63204128D01*
X129983553Y-63220000D01*
X130330000Y-63220000D01*
X130330000Y-62470000D01*
X128632155Y-62470000D01*
X128572627Y-62476401D01*
X128572620Y-62476403D01*
X128437913Y-62526645D01*
X128437906Y-62526649D01*
X128322812Y-62612809D01*
X128322809Y-62612812D01*
X128236649Y-62727906D01*
X128236645Y-62727913D01*
X128186403Y-62862620D01*
X128186401Y-62862627D01*
X128180000Y-62922155D01*
X128180000Y-64620000D01*
X127625499Y-64620000D01*
X127625499Y-64198686D01*
X127645184Y-64131647D01*
X127657351Y-64115712D01*
X127661897Y-64110664D01*
X127701711Y-64066447D01*
X127732530Y-64032220D01*
X127732531Y-64032217D01*
X127732533Y-64032216D01*
X127827179Y-63868284D01*
X127885674Y-63688256D01*
X127905460Y-63500000D01*
X127885674Y-63311744D01*
X127827179Y-63131716D01*
X127732533Y-62967784D01*
X127605871Y-62827112D01*
X127603859Y-62825650D01*
X127452734Y-62715851D01*
X127452729Y-62715848D01*
X127279807Y-62638857D01*
X127279802Y-62638855D01*
X127126727Y-62606319D01*
X127094646Y-62599500D01*
X126905354Y-62599500D01*
X126873273Y-62606319D01*
X126720197Y-62638855D01*
X126720192Y-62638857D01*
X126547270Y-62715848D01*
X126547265Y-62715851D01*
X126394129Y-62827111D01*
X126267466Y-62967785D01*
X126172821Y-63131715D01*
X126172818Y-63131722D01*
X126120582Y-63292489D01*
X126114326Y-63311744D01*
X126094540Y-63500000D01*
X126114326Y-63688256D01*
X126114327Y-63688259D01*
X126172818Y-63868277D01*
X126172821Y-63868284D01*
X126267467Y-64032216D01*
X126290218Y-64057483D01*
X126342650Y-64115715D01*
X126372880Y-64178706D01*
X126374500Y-64198687D01*
X126374500Y-65497867D01*
X126354815Y-65564906D01*
X126302011Y-65610661D01*
X126232853Y-65620605D01*
X126171460Y-65593411D01*
X126153693Y-65578713D01*
X126149381Y-65574790D01*
X124960802Y-64386212D01*
X124950980Y-64373950D01*
X124950759Y-64374134D01*
X124945786Y-64368122D01*
X124896066Y-64321432D01*
X124894666Y-64320075D01*
X124874476Y-64299884D01*
X124868986Y-64295625D01*
X124864561Y-64291847D01*
X124830582Y-64259938D01*
X124830580Y-64259936D01*
X124830577Y-64259935D01*
X124813029Y-64250288D01*
X124796761Y-64239602D01*
X124786720Y-64231813D01*
X124745815Y-64175169D01*
X124742027Y-64105403D01*
X124776559Y-64044663D01*
X124789824Y-64033528D01*
X124801444Y-64025085D01*
X124806305Y-64021892D01*
X124846420Y-63998170D01*
X124860589Y-63983999D01*
X124875379Y-63971368D01*
X124891587Y-63959594D01*
X124921299Y-63923676D01*
X124925212Y-63919376D01*
X126587771Y-62256819D01*
X126649095Y-62223334D01*
X126675453Y-62220500D01*
X133674548Y-62220500D01*
X133741587Y-62240185D01*
X133762229Y-62256819D01*
X133905810Y-62400400D01*
X133939295Y-62461723D01*
X133934311Y-62531415D01*
X133892439Y-62587348D01*
X133843910Y-62609371D01*
X133705197Y-62638855D01*
X133705192Y-62638857D01*
X133532270Y-62715848D01*
X133532265Y-62715851D01*
X133379129Y-62827111D01*
X133252465Y-62967785D01*
X133211387Y-63038936D01*
X133160820Y-63087152D01*
X133092213Y-63100375D01*
X133027348Y-63074407D01*
X132986820Y-63017492D01*
X132980000Y-62976936D01*
X132980000Y-62922172D01*
X132979999Y-62922155D01*
X132973598Y-62862627D01*
X132973596Y-62862620D01*
X132923354Y-62727913D01*
X132923350Y-62727906D01*
X132837190Y-62612812D01*
X132837187Y-62612809D01*
X132722093Y-62526649D01*
X132722086Y-62526645D01*
X132587379Y-62476403D01*
X132587372Y-62476401D01*
X132527844Y-62470000D01*
X130830000Y-62470000D01*
X130830000Y-63220000D01*
X131176447Y-63220000D01*
X131176447Y-63219999D01*
X131192319Y-63204128D01*
X131253642Y-63170643D01*
X131323334Y-63175627D01*
X131367681Y-63204128D01*
X131383553Y-63220000D01*
X132106000Y-63220000D01*
X132173039Y-63239685D01*
X132218794Y-63292489D01*
X132230000Y-63344000D01*
X132230000Y-64066447D01*
X132245872Y-64082319D01*
X132279357Y-64143642D01*
X132274373Y-64213334D01*
X132245872Y-64257681D01*
X132230000Y-64273552D01*
X132229999Y-64273553D01*
X132230000Y-64620000D01*
X132980000Y-64620000D01*
X132980000Y-64023063D01*
X132999685Y-63956024D01*
X133052489Y-63910269D01*
X133121647Y-63900325D01*
X133185203Y-63929350D01*
X133211387Y-63961064D01*
X133252463Y-64032211D01*
X133252465Y-64032214D01*
X133379129Y-64172888D01*
X133532265Y-64284148D01*
X133532270Y-64284151D01*
X133705192Y-64361142D01*
X133705197Y-64361144D01*
X133890354Y-64400500D01*
X133890355Y-64400500D01*
X134079644Y-64400500D01*
X134079646Y-64400500D01*
X134264803Y-64361144D01*
X134437730Y-64284151D01*
X134547117Y-64204676D01*
X134612920Y-64181198D01*
X134680974Y-64197023D01*
X134692871Y-64204668D01*
X134787682Y-64273552D01*
X134802270Y-64284151D01*
X134975192Y-64361142D01*
X134975197Y-64361144D01*
X135160354Y-64400500D01*
X135160355Y-64400500D01*
X135349644Y-64400500D01*
X135349646Y-64400500D01*
X135534803Y-64361144D01*
X135707730Y-64284151D01*
X135860871Y-64172888D01*
X135987533Y-64032216D01*
X136082179Y-63868284D01*
X136140674Y-63688256D01*
X136160460Y-63500000D01*
X136140674Y-63311744D01*
X136082179Y-63131716D01*
X135987533Y-62967784D01*
X135910658Y-62882406D01*
X135880429Y-62819416D01*
X135878870Y-62803329D01*
X135878372Y-62787483D01*
X135877709Y-62766373D01*
X135872122Y-62747144D01*
X135868174Y-62728084D01*
X135865664Y-62708208D01*
X135848507Y-62664875D01*
X135846619Y-62659359D01*
X135833619Y-62614612D01*
X135832554Y-62612812D01*
X135830224Y-62608872D01*
X135823418Y-62597363D01*
X135814860Y-62579894D01*
X135807486Y-62561268D01*
X135807483Y-62561264D01*
X135807483Y-62561263D01*
X135780098Y-62523571D01*
X135776890Y-62518687D01*
X135753172Y-62478582D01*
X135753163Y-62478571D01*
X135739005Y-62464413D01*
X135726370Y-62449620D01*
X135714593Y-62433412D01*
X135678693Y-62403713D01*
X135674381Y-62399790D01*
X134485803Y-61211211D01*
X134475980Y-61198950D01*
X134475759Y-61199134D01*
X134470786Y-61193122D01*
X134421066Y-61146432D01*
X134419666Y-61145075D01*
X134399476Y-61124884D01*
X134393986Y-61120625D01*
X134389561Y-61116847D01*
X134355582Y-61084938D01*
X134355580Y-61084936D01*
X134355577Y-61084935D01*
X134338029Y-61075288D01*
X134321763Y-61064604D01*
X134305933Y-61052325D01*
X134263168Y-61033818D01*
X134257922Y-61031248D01*
X134217093Y-61008803D01*
X134217092Y-61008802D01*
X134197693Y-61003822D01*
X134179281Y-60997518D01*
X134160898Y-60989562D01*
X134160892Y-60989560D01*
X134114874Y-60982272D01*
X134109152Y-60981087D01*
X134064021Y-60969500D01*
X134064019Y-60969500D01*
X134043984Y-60969500D01*
X134024586Y-60967973D01*
X134017162Y-60966797D01*
X134004805Y-60964840D01*
X134004804Y-60964840D01*
X133958416Y-60969225D01*
X133952578Y-60969500D01*
X126447743Y-60969500D01*
X126432122Y-60967775D01*
X126432096Y-60968061D01*
X126424333Y-60967326D01*
X126356153Y-60969469D01*
X126354206Y-60969500D01*
X126325649Y-60969500D01*
X126318766Y-60970369D01*
X126312949Y-60970826D01*
X126266373Y-60972290D01*
X126247129Y-60977881D01*
X126228079Y-60981825D01*
X126208211Y-60984334D01*
X126164884Y-61001488D01*
X126159358Y-61003379D01*
X126114614Y-61016379D01*
X126114610Y-61016381D01*
X126097366Y-61026579D01*
X126079905Y-61035133D01*
X126061274Y-61042510D01*
X126061262Y-61042517D01*
X126023570Y-61069902D01*
X126018687Y-61073109D01*
X125978580Y-61096829D01*
X125964414Y-61110995D01*
X125949624Y-61123627D01*
X125933414Y-61135404D01*
X125933411Y-61135407D01*
X125903710Y-61171309D01*
X125899777Y-61175631D01*
X124792180Y-62283228D01*
X124730857Y-62316713D01*
X124661165Y-62311729D01*
X124605232Y-62269857D01*
X124580815Y-62204393D01*
X124580499Y-62195547D01*
X124580499Y-61732129D01*
X124580498Y-61732123D01*
X124580497Y-61732116D01*
X124574091Y-61672517D01*
X124561340Y-61638332D01*
X124556357Y-61568642D01*
X124561341Y-61551667D01*
X124574091Y-61517483D01*
X124580500Y-61457873D01*
X124580499Y-60637591D01*
X124600183Y-60570553D01*
X124652987Y-60524798D01*
X124722146Y-60514854D01*
X124754931Y-60524311D01*
X124815197Y-60551144D01*
X125000354Y-60590500D01*
X125000355Y-60590500D01*
X125189644Y-60590500D01*
X125189646Y-60590500D01*
X125374803Y-60551144D01*
X125547730Y-60474151D01*
X125700871Y-60362888D01*
X125827533Y-60222216D01*
X125922179Y-60058284D01*
X125980674Y-59878256D01*
X126000460Y-59690000D01*
X125980674Y-59501744D01*
X125922179Y-59321716D01*
X125827533Y-59157784D01*
X125809693Y-59137971D01*
X125779464Y-59074981D01*
X125788089Y-59005646D01*
X125809694Y-58972028D01*
X125813435Y-58967873D01*
X125827533Y-58952216D01*
X125922179Y-58788284D01*
X125980674Y-58608256D01*
X126000460Y-58420000D01*
X125980674Y-58231744D01*
X125922179Y-58051716D01*
X125827533Y-57887784D01*
X125700871Y-57747112D01*
X125700870Y-57747111D01*
X125547734Y-57635851D01*
X125547729Y-57635848D01*
X125374807Y-57558857D01*
X125374802Y-57558855D01*
X125221186Y-57526204D01*
X125189646Y-57519500D01*
X125000354Y-57519500D01*
X124968814Y-57526204D01*
X124815199Y-57558855D01*
X124754436Y-57585909D01*
X124685186Y-57595193D01*
X124621909Y-57565565D01*
X124584696Y-57506430D01*
X124580000Y-57472629D01*
X124580000Y-57400000D01*
X121159000Y-57400000D01*
X121091961Y-57380315D01*
X121046206Y-57327511D01*
X121035000Y-57276000D01*
X121035000Y-57024000D01*
X121054685Y-56956961D01*
X121107489Y-56911206D01*
X121159000Y-56900000D01*
X124580000Y-56900000D01*
X124580000Y-56652172D01*
X124579999Y-56652155D01*
X124573598Y-56592627D01*
X124573596Y-56592620D01*
X124523354Y-56457913D01*
X124523350Y-56457906D01*
X124437190Y-56342812D01*
X124437187Y-56342809D01*
X124322093Y-56256649D01*
X124322086Y-56256645D01*
X124277945Y-56240182D01*
X124222011Y-56198311D01*
X124197594Y-56132847D01*
X124212445Y-56064574D01*
X124261851Y-56015168D01*
X124321278Y-56000000D01*
X139838722Y-56000000D01*
X139905761Y-56019685D01*
G37*
%TD.AperFunction*%
%TA.AperFunction,Conductor*%
G36*
X122024458Y-59817651D02*
G01*
X122069228Y-59871293D01*
X122079500Y-59920708D01*
X122079500Y-60187869D01*
X122079501Y-60187876D01*
X122085908Y-60247481D01*
X122098659Y-60281669D01*
X122103642Y-60351361D01*
X122098659Y-60368331D01*
X122085908Y-60402518D01*
X122079501Y-60462116D01*
X122079500Y-60462135D01*
X122079500Y-61457870D01*
X122079501Y-61457876D01*
X122085908Y-61517483D01*
X122098658Y-61551667D01*
X122103642Y-61621359D01*
X122098659Y-61638329D01*
X122085909Y-61672516D01*
X122085908Y-61672517D01*
X122079501Y-61732116D01*
X122079501Y-61732123D01*
X122079500Y-61732135D01*
X122079500Y-61987378D01*
X122059815Y-62054417D01*
X122007011Y-62100172D01*
X121937853Y-62110116D01*
X121890403Y-62092916D01*
X121836311Y-62059551D01*
X121836300Y-62059546D01*
X121672652Y-62005319D01*
X121571654Y-61995000D01*
X121535000Y-61995000D01*
X121535000Y-63146000D01*
X121515315Y-63213039D01*
X121462511Y-63258794D01*
X121411000Y-63270000D01*
X121159000Y-63270000D01*
X121091961Y-63250315D01*
X121046206Y-63197511D01*
X121035000Y-63146000D01*
X121035000Y-61995000D01*
X120998361Y-61995000D01*
X120998343Y-61995001D01*
X120897347Y-62005319D01*
X120733699Y-62059546D01*
X120733694Y-62059548D01*
X120689097Y-62087057D01*
X120621704Y-62105497D01*
X120555041Y-62084574D01*
X120510271Y-62030932D01*
X120500000Y-61981518D01*
X120500000Y-59926568D01*
X120519685Y-59859529D01*
X120572489Y-59813774D01*
X120641647Y-59803830D01*
X120689097Y-59821030D01*
X120733475Y-59848403D01*
X120733478Y-59848404D01*
X120733484Y-59848408D01*
X120897247Y-59902674D01*
X120998323Y-59913000D01*
X121571676Y-59912999D01*
X121571684Y-59912998D01*
X121571687Y-59912998D01*
X121627030Y-59907344D01*
X121672753Y-59902674D01*
X121836516Y-59848408D01*
X121890404Y-59815169D01*
X121957795Y-59796729D01*
X122024458Y-59817651D01*
G37*
%TD.AperFunction*%
M02*
