M48
; DRILL file {KiCad 7.0.5-7.0.5~ubuntu22.04.1} date Mo 05 Jun 2023 10:06:48
; FORMAT={-:-/ absolute / inch / decimal}
; #@! TF.CreationDate,2023-06-05T10:06:48+02:00
; #@! TF.GenerationSoftware,Kicad,Pcbnew,7.0.5-7.0.5~ubuntu22.04.1
; #@! TF.FileFunction,Plated,1,4,PTH
FMAT,2
INCH
; #@! TA.AperFunction,Plated,PTH,ComponentDrill
T1C0.0118
; #@! TA.AperFunction,Plated,PTH,ViaDrill
T2C0.0157
; #@! TA.AperFunction,Plated,PTH,ComponentDrill
T3C0.0236
; #@! TA.AperFunction,Plated,PTH,ComponentDrill
T4C0.0256
; #@! TA.AperFunction,Plated,PTH,ComponentDrill
T5C0.0374
%
G90
G05
T1
X5.0858Y-2.5264
X5.0858Y-2.5815
X5.1134Y-2.4988
X5.1134Y-2.5539
X5.1134Y-2.6091
X5.14Y-2.5264
X5.14Y-2.5815
X5.1685Y-2.4988
X5.1685Y-2.5539
X5.1685Y-2.6091
X5.1961Y-2.5264
X5.1961Y-2.5815
T2
X4.775Y-2.425
X4.925Y-2.25
X4.925Y-2.3
X4.925Y-2.35
X4.925Y-2.5
X4.975Y-2.875
X4.975Y-3.175
X5.0Y-2.5
X5.075Y-3.0285
X5.1Y-2.675
X5.125Y-3.4
X5.15Y-3.025
X5.15Y-3.3
X5.275Y-2.5
X5.3Y-2.875
X5.325Y-2.5
X5.4Y-2.825
X5.425Y-2.5
X5.45Y-2.825
X5.475Y-2.35
X5.475Y-2.5
X5.525Y-3.175
X5.525Y-3.225
X5.55Y-2.975
X5.625Y-2.25
X5.625Y-2.95
T3
X5.748Y-2.8602
X5.748Y-2.9602
X5.748Y-3.0602
X5.748Y-3.1602
X5.748Y-3.2602
X5.748Y-3.3602
T4
X5.625Y-2.3
X5.625Y-2.35
X5.625Y-2.4
X5.625Y-2.45
X5.625Y-2.5
X5.625Y-2.55
T5
X4.8516Y-3.325
X4.95Y-3.325
X5.0484Y-3.325
T0
M30
