%TF.GenerationSoftware,KiCad,Pcbnew,7.0.1-0*%
%TF.CreationDate,2023-06-03T17:14:53+02:00*%
%TF.ProjectId,BatMon,4261744d-6f6e-42e6-9b69-6361645f7063,rev?*%
%TF.SameCoordinates,Original*%
%TF.FileFunction,Copper,L4,Bot*%
%TF.FilePolarity,Positive*%
%FSLAX46Y46*%
G04 Gerber Fmt 4.6, Leading zero omitted, Abs format (unit mm)*
G04 Created by KiCad (PCBNEW 7.0.1-0) date 2023-06-03 17:14:53*
%MOMM*%
%LPD*%
G01*
G04 APERTURE LIST*
G04 Aperture macros list*
%AMRoundRect*
0 Rectangle with rounded corners*
0 $1 Rounding radius*
0 $2 $3 $4 $5 $6 $7 $8 $9 X,Y pos of 4 corners*
0 Add a 4 corners polygon primitive as box body*
4,1,4,$2,$3,$4,$5,$6,$7,$8,$9,$2,$3,0*
0 Add four circle primitives for the rounded corners*
1,1,$1+$1,$2,$3*
1,1,$1+$1,$4,$5*
1,1,$1+$1,$6,$7*
1,1,$1+$1,$8,$9*
0 Add four rect primitives between the rounded corners*
20,1,$1+$1,$2,$3,$4,$5,0*
20,1,$1+$1,$4,$5,$6,$7,0*
20,1,$1+$1,$6,$7,$8,$9,0*
20,1,$1+$1,$8,$9,$2,$3,0*%
G04 Aperture macros list end*
%TA.AperFunction,SMDPad,CuDef*%
%ADD10RoundRect,0.237500X0.237500X-0.250000X0.237500X0.250000X-0.237500X0.250000X-0.237500X-0.250000X0*%
%TD*%
%TA.AperFunction,SMDPad,CuDef*%
%ADD11RoundRect,0.237500X-0.237500X0.250000X-0.237500X-0.250000X0.237500X-0.250000X0.237500X0.250000X0*%
%TD*%
%TA.AperFunction,SMDPad,CuDef*%
%ADD12RoundRect,0.150000X0.587500X0.150000X-0.587500X0.150000X-0.587500X-0.150000X0.587500X-0.150000X0*%
%TD*%
%TA.AperFunction,SMDPad,CuDef*%
%ADD13RoundRect,0.250000X-0.425000X0.537500X-0.425000X-0.537500X0.425000X-0.537500X0.425000X0.537500X0*%
%TD*%
%TA.AperFunction,ComponentPad*%
%ADD14RoundRect,0.400000X3.100000X-0.400000X3.100000X0.400000X-3.100000X0.400000X-3.100000X-0.400000X0*%
%TD*%
%TA.AperFunction,ComponentPad*%
%ADD15RoundRect,0.400000X2.600000X-0.400000X2.600000X0.400000X-2.600000X0.400000X-2.600000X-0.400000X0*%
%TD*%
%TA.AperFunction,HeatsinkPad*%
%ADD16C,0.600000*%
%TD*%
%TA.AperFunction,ComponentPad*%
%ADD17R,1.000000X1.000000*%
%TD*%
%TA.AperFunction,ComponentPad*%
%ADD18O,1.000000X1.000000*%
%TD*%
%TA.AperFunction,ComponentPad*%
%ADD19RoundRect,0.250000X-0.600000X-0.725000X0.600000X-0.725000X0.600000X0.725000X-0.600000X0.725000X0*%
%TD*%
%TA.AperFunction,ComponentPad*%
%ADD20O,1.700000X1.950000*%
%TD*%
%TA.AperFunction,SMDPad,CuDef*%
%ADD21RoundRect,0.237500X0.300000X0.237500X-0.300000X0.237500X-0.300000X-0.237500X0.300000X-0.237500X0*%
%TD*%
%TA.AperFunction,SMDPad,CuDef*%
%ADD22R,2.500000X2.500000*%
%TD*%
%TA.AperFunction,SMDPad,CuDef*%
%ADD23R,1.600000X1.200000*%
%TD*%
%TA.AperFunction,SMDPad,CuDef*%
%ADD24RoundRect,0.150000X-0.150000X0.587500X-0.150000X-0.587500X0.150000X-0.587500X0.150000X0.587500X0*%
%TD*%
%TA.AperFunction,SMDPad,CuDef*%
%ADD25RoundRect,0.237500X-0.300000X-0.237500X0.300000X-0.237500X0.300000X0.237500X-0.300000X0.237500X0*%
%TD*%
%TA.AperFunction,SMDPad,CuDef*%
%ADD26RoundRect,0.237500X0.250000X0.237500X-0.250000X0.237500X-0.250000X-0.237500X0.250000X-0.237500X0*%
%TD*%
%TA.AperFunction,SMDPad,CuDef*%
%ADD27RoundRect,0.225000X0.375000X-0.225000X0.375000X0.225000X-0.375000X0.225000X-0.375000X-0.225000X0*%
%TD*%
%TA.AperFunction,SMDPad,CuDef*%
%ADD28RoundRect,0.125000X0.275000X0.125000X-0.275000X0.125000X-0.275000X-0.125000X0.275000X-0.125000X0*%
%TD*%
%TA.AperFunction,SMDPad,CuDef*%
%ADD29RoundRect,0.150000X-0.150000X0.825000X-0.150000X-0.825000X0.150000X-0.825000X0.150000X0.825000X0*%
%TD*%
%TA.AperFunction,ViaPad*%
%ADD30C,0.800000*%
%TD*%
%TA.AperFunction,Conductor*%
%ADD31C,0.250000*%
%TD*%
%TA.AperFunction,Conductor*%
%ADD32C,0.600000*%
%TD*%
%TA.AperFunction,Conductor*%
%ADD33C,0.500000*%
%TD*%
G04 APERTURE END LIST*
D10*
X130810000Y-60348500D03*
X130810000Y-58523500D03*
D11*
X135255000Y-56872500D03*
X135255000Y-58697500D03*
D12*
X128572500Y-60330000D03*
X128572500Y-62230000D03*
X126697500Y-61280000D03*
X128572500Y-56835000D03*
X128572500Y-58735000D03*
X126697500Y-57785000D03*
D13*
X123190000Y-62062500D03*
X123190000Y-64937500D03*
D14*
X148500000Y-72650000D03*
X148500000Y-75190000D03*
D15*
X148000000Y-77730000D03*
X148000000Y-80270000D03*
X148000000Y-82810000D03*
X148000000Y-85350000D03*
D16*
X131980000Y-65570000D03*
X131980000Y-64170000D03*
X131280000Y-66270000D03*
X131280000Y-64870000D03*
X131280000Y-63470000D03*
X130555000Y-65570000D03*
X130555000Y-64170000D03*
X129880000Y-66270000D03*
X129880000Y-64870000D03*
X129880000Y-63470000D03*
X129180000Y-65570000D03*
X129180000Y-64170000D03*
D17*
X142875000Y-58420000D03*
D18*
X142875000Y-59690000D03*
X142875000Y-60960000D03*
X142875000Y-62230000D03*
X142875000Y-63500000D03*
X142875000Y-64770000D03*
D19*
X123230000Y-84455000D03*
D20*
X125730000Y-84455000D03*
X128230000Y-84455000D03*
D11*
X138430000Y-68580000D03*
X138430000Y-70405000D03*
D10*
X125095000Y-66952500D03*
X125095000Y-65127500D03*
D21*
X132715000Y-68580000D03*
X130990000Y-68580000D03*
D22*
X138120000Y-74295000D03*
X138120000Y-81295000D03*
X131120000Y-81295000D03*
X131120000Y-74295000D03*
D10*
X125095000Y-70762500D03*
X125095000Y-68937500D03*
D23*
X124590000Y-79335000D03*
X124590000Y-76835000D03*
X124590000Y-74335000D03*
X121790000Y-79335000D03*
X121790000Y-76835000D03*
X121790000Y-74335000D03*
D11*
X134620000Y-68580000D03*
X134620000Y-70405000D03*
D24*
X138115000Y-84787500D03*
X140015000Y-84787500D03*
X139065000Y-86662500D03*
D25*
X140637500Y-79000000D03*
X142362500Y-79000000D03*
D26*
X132715000Y-70485000D03*
X130890000Y-70485000D03*
D27*
X135890000Y-87375000D03*
X135890000Y-84075000D03*
D10*
X133350000Y-86637500D03*
X133350000Y-84812500D03*
D28*
X143500000Y-80480000D03*
X143500000Y-81280000D03*
X143500000Y-82080000D03*
X143500000Y-82880000D03*
X141700000Y-82880000D03*
X141700000Y-82080000D03*
X141700000Y-81280000D03*
X141700000Y-80480000D03*
D10*
X123190000Y-59967500D03*
X123190000Y-58142500D03*
D11*
X136525000Y-68580000D03*
X136525000Y-70405000D03*
D29*
X133985000Y-61025000D03*
X135255000Y-61025000D03*
X136525000Y-61025000D03*
X137795000Y-61025000D03*
X137795000Y-65975000D03*
X136525000Y-65975000D03*
X135255000Y-65975000D03*
X133985000Y-65975000D03*
D30*
X127000000Y-63500000D03*
X133985000Y-63500000D03*
X140335000Y-80645000D03*
X130175000Y-86360000D03*
X137160000Y-71755000D03*
X125095000Y-58420000D03*
X128905000Y-76924500D03*
X130810000Y-76835000D03*
X139065000Y-59690000D03*
X142875000Y-74930000D03*
X139065000Y-63500000D03*
X125095000Y-59690000D03*
X134620000Y-73025000D03*
X135255000Y-63500000D03*
X129540000Y-67945000D03*
X126365000Y-73025000D03*
X137795000Y-63500000D03*
X121285000Y-61595000D03*
X140970000Y-75565000D03*
X142875000Y-57150000D03*
X125095000Y-57150000D03*
X140335000Y-81915000D03*
X125095000Y-63500000D03*
X138430000Y-71755000D03*
X126365000Y-80645000D03*
X130810000Y-83820000D03*
D31*
X130810000Y-76835000D02*
X132397500Y-76835000D01*
X132397500Y-76835000D02*
X133350000Y-75882500D01*
X136525000Y-70975000D02*
X136525000Y-70405000D01*
X133350000Y-75882500D02*
X133350000Y-72390000D01*
X133350000Y-72390000D02*
X133985000Y-71755000D01*
X133985000Y-71755000D02*
X135745000Y-71755000D01*
X135745000Y-71755000D02*
X136525000Y-70975000D01*
D32*
X130175000Y-86360000D02*
X130175000Y-87630000D01*
X130175000Y-87630000D02*
X131445000Y-88900000D01*
X131445000Y-88900000D02*
X134365000Y-88900000D01*
X134365000Y-88900000D02*
X135890000Y-87375000D01*
D31*
X128572500Y-62230000D02*
X131445000Y-62230000D01*
X131445000Y-62230000D02*
X132715000Y-60960000D01*
X132715000Y-60960000D02*
X132715000Y-59690000D01*
X132715000Y-59690000D02*
X133707500Y-58697500D01*
X133707500Y-58697500D02*
X139977500Y-58697500D01*
X139977500Y-58697500D02*
X140970000Y-59690000D01*
X140970000Y-59690000D02*
X142875000Y-59690000D01*
X135255000Y-56872500D02*
X128610000Y-56872500D01*
X128610000Y-56872500D02*
X128572500Y-56835000D01*
X123190000Y-62062500D02*
X123190000Y-59967500D01*
D32*
X125095000Y-65127500D02*
X123380000Y-65127500D01*
X123380000Y-65127500D02*
X123190000Y-64937500D01*
X133985000Y-67310000D02*
X132715000Y-68580000D01*
D31*
X134620000Y-70405000D02*
X135725000Y-69300000D01*
X135725000Y-69300000D02*
X135725000Y-67475000D01*
X135725000Y-67475000D02*
X136525000Y-66675000D01*
X136525000Y-66675000D02*
X136525000Y-65975000D01*
X137795000Y-65975000D02*
X137795000Y-67945000D01*
X137795000Y-67945000D02*
X138430000Y-68580000D01*
X135255000Y-63500000D02*
X135255000Y-67945000D01*
X135255000Y-67945000D02*
X134620000Y-68580000D01*
X140970000Y-58420000D02*
X140335000Y-57785000D01*
X140335000Y-57785000D02*
X131548500Y-57785000D01*
X142875000Y-58420000D02*
X140970000Y-58420000D01*
X131548500Y-57785000D02*
X130810000Y-58523500D01*
X127000000Y-63500000D02*
X127000000Y-61582500D01*
X127000000Y-61582500D02*
X126697500Y-61280000D01*
X128572500Y-60330000D02*
X130537500Y-60330000D01*
X130537500Y-60330000D02*
X130810000Y-60602500D01*
X130810000Y-58777500D02*
X128615000Y-58777500D01*
X128615000Y-58777500D02*
X128572500Y-58735000D01*
X125095000Y-59690000D02*
X125730000Y-59690000D01*
X125730000Y-59690000D02*
X126697500Y-58722500D01*
X126697500Y-58722500D02*
X126697500Y-57785000D01*
X125095000Y-67945000D02*
X129540000Y-67945000D01*
D32*
X123467500Y-58420000D02*
X123190000Y-58142500D01*
X140335000Y-79665000D02*
X140335000Y-80645000D01*
X137160000Y-73335000D02*
X137160000Y-71755000D01*
X138120000Y-74295000D02*
X137160000Y-73335000D01*
X125095000Y-58420000D02*
X123467500Y-58420000D01*
X140637500Y-79000000D02*
X140637500Y-79362500D01*
X140637500Y-79362500D02*
X140335000Y-79665000D01*
X133985000Y-65975000D02*
X133985000Y-67310000D01*
X133985000Y-65975000D02*
X133985000Y-63500000D01*
X139065000Y-86662500D02*
X139065000Y-82240000D01*
X138120000Y-81845000D02*
X135890000Y-84075000D01*
X139065000Y-82240000D02*
X138120000Y-81295000D01*
X138120000Y-81295000D02*
X138120000Y-81845000D01*
D31*
X130612500Y-70762500D02*
X128905000Y-70762500D01*
X128905000Y-76924500D02*
X128905000Y-70762500D01*
X130890000Y-70485000D02*
X130612500Y-70762500D01*
X128905000Y-70762500D02*
X125095000Y-70762500D01*
X140335000Y-72390000D02*
X140335000Y-60960000D01*
D33*
X144250000Y-81280000D02*
X145260000Y-80270000D01*
D31*
X140335000Y-60960000D02*
X139065000Y-59690000D01*
D33*
X145260000Y-80270000D02*
X146000000Y-80270000D01*
D31*
X142875000Y-74930000D02*
X140335000Y-72390000D01*
D33*
X143500000Y-81280000D02*
X144250000Y-81280000D01*
X144145000Y-80010000D02*
X144145000Y-78740000D01*
X143500000Y-80480000D02*
X143675000Y-80480000D01*
X146000000Y-77730000D02*
X145155000Y-77730000D01*
D31*
X146000000Y-77730000D02*
X141230000Y-77730000D01*
D33*
X144145000Y-78740000D02*
X145155000Y-77730000D01*
D31*
X139700000Y-64135000D02*
X139065000Y-63500000D01*
X141230000Y-77730000D02*
X139700000Y-76200000D01*
D33*
X143675000Y-80480000D02*
X144145000Y-80010000D01*
D31*
X139700000Y-76200000D02*
X139700000Y-64135000D01*
X125095000Y-59690000D02*
X123467500Y-59690000D01*
X123467500Y-59690000D02*
X123190000Y-59967500D01*
X138097500Y-84787500D02*
X138115000Y-84787500D01*
X134262500Y-85725000D02*
X137160000Y-85725000D01*
X137160000Y-85725000D02*
X138097500Y-84787500D01*
X133350000Y-86637500D02*
X134262500Y-85725000D01*
X134540000Y-70485000D02*
X134620000Y-70405000D01*
X132715000Y-70485000D02*
X134540000Y-70485000D01*
X135255000Y-74930000D02*
X135255000Y-73660000D01*
X133350000Y-84812500D02*
X135255000Y-82907500D01*
X135255000Y-82907500D02*
X135255000Y-74930000D01*
X135255000Y-73660000D02*
X134620000Y-73025000D01*
X138430000Y-68580000D02*
X136525000Y-68580000D01*
X125095000Y-67945000D02*
X125095000Y-66952500D01*
X125095000Y-68937500D02*
X125095000Y-67945000D01*
D32*
X141700000Y-82080000D02*
X141535000Y-81915000D01*
X140335000Y-83185000D02*
X140335000Y-81915000D01*
X140015000Y-83505000D02*
X140335000Y-83185000D01*
X137795000Y-61025000D02*
X137795000Y-63500000D01*
X141700000Y-80300000D02*
X142362500Y-79637500D01*
X142362500Y-79637500D02*
X142362500Y-79000000D01*
X130990000Y-68580000D02*
X130990000Y-66560000D01*
X141535000Y-81915000D02*
X140335000Y-81915000D01*
X141700000Y-80480000D02*
X141700000Y-80300000D01*
X141700000Y-82880000D02*
X141700000Y-80480000D01*
X125095000Y-65127500D02*
X125095000Y-63500000D01*
X130990000Y-66560000D02*
X131280000Y-66270000D01*
X140015000Y-84787500D02*
X140015000Y-83505000D01*
X138430000Y-71755000D02*
X138430000Y-70405000D01*
X121790000Y-79335000D02*
X121790000Y-81150000D01*
X121790000Y-81150000D02*
X123190000Y-82550000D01*
D33*
X144145000Y-83185000D02*
X144145000Y-84455000D01*
X143500000Y-82880000D02*
X143840000Y-82880000D01*
X145040000Y-85350000D02*
X146000000Y-85350000D01*
X143840000Y-82880000D02*
X144145000Y-83185000D01*
X144145000Y-84455000D02*
X145040000Y-85350000D01*
D32*
X123190000Y-84415000D02*
X123230000Y-84455000D01*
X123190000Y-82550000D02*
X123190000Y-84415000D01*
D33*
X145040000Y-82810000D02*
X146000000Y-82810000D01*
D32*
X124590000Y-79335000D02*
X124590000Y-80775000D01*
D33*
X143500000Y-82080000D02*
X144310000Y-82080000D01*
X144310000Y-82080000D02*
X145040000Y-82810000D01*
D32*
X124590000Y-80775000D02*
X125730000Y-81915000D01*
X125730000Y-81915000D02*
X125730000Y-84455000D01*
X126365000Y-80645000D02*
X126365000Y-78610000D01*
X126365000Y-78610000D02*
X124590000Y-76835000D01*
X132715000Y-83820000D02*
X130810000Y-83820000D01*
X128905000Y-78740000D02*
X132715000Y-78740000D01*
X121920000Y-76835000D02*
X121790000Y-76835000D01*
X133985000Y-82550000D02*
X132715000Y-83820000D01*
X125730000Y-75565000D02*
X128905000Y-78740000D01*
X123190000Y-75565000D02*
X121920000Y-76835000D01*
X133985000Y-80010000D02*
X133985000Y-82550000D01*
X132715000Y-78740000D02*
X133985000Y-80010000D01*
X125730000Y-75565000D02*
X123190000Y-75565000D01*
%TA.AperFunction,Conductor*%
G36*
X127309144Y-78297161D02*
G01*
X127361163Y-78328241D01*
X128275184Y-79242262D01*
X128343663Y-79310741D01*
X128402738Y-79369816D01*
X128435143Y-79390177D01*
X128446486Y-79398225D01*
X128476414Y-79422092D01*
X128510895Y-79438697D01*
X128523064Y-79445422D01*
X128551316Y-79463174D01*
X128555480Y-79465790D01*
X128591608Y-79478432D01*
X128604450Y-79483750D01*
X128608591Y-79485745D01*
X128638939Y-79500360D01*
X128676250Y-79508876D01*
X128689611Y-79512725D01*
X128725745Y-79525368D01*
X128763776Y-79529653D01*
X128777481Y-79531981D01*
X128814806Y-79540500D01*
X128860046Y-79540500D01*
X128995194Y-79540500D01*
X129374741Y-79540500D01*
X129439908Y-79559005D01*
X129485625Y-79608995D01*
X129498247Y-79675552D01*
X129474008Y-79738810D01*
X129426205Y-79802666D01*
X129385834Y-79910908D01*
X129375909Y-79937517D01*
X129369945Y-79992995D01*
X129369500Y-79997130D01*
X129369500Y-82592869D01*
X129375909Y-82652484D01*
X129377360Y-82656373D01*
X129426204Y-82787331D01*
X129512454Y-82902546D01*
X129627669Y-82988796D01*
X129762517Y-83039091D01*
X129822127Y-83045500D01*
X130017113Y-83045499D01*
X130072246Y-83058430D01*
X130115881Y-83094528D01*
X130138916Y-83146263D01*
X130136544Y-83202844D01*
X130109262Y-83252471D01*
X130077466Y-83287783D01*
X129982820Y-83451715D01*
X129924326Y-83631742D01*
X129919011Y-83682317D01*
X129904540Y-83820000D01*
X129907720Y-83850256D01*
X129924326Y-84008257D01*
X129982820Y-84188284D01*
X130077466Y-84352216D01*
X130204129Y-84492889D01*
X130357269Y-84604151D01*
X130530197Y-84681144D01*
X130715352Y-84720500D01*
X130715354Y-84720500D01*
X130904646Y-84720500D01*
X130904648Y-84720500D01*
X131067385Y-84685909D01*
X131089803Y-84681144D01*
X131188697Y-84637113D01*
X131201931Y-84631221D01*
X131252367Y-84620500D01*
X132250500Y-84620500D01*
X132312500Y-84637113D01*
X132357887Y-84682500D01*
X132374500Y-84744500D01*
X132374500Y-85111676D01*
X132384825Y-85212752D01*
X132439091Y-85376515D01*
X132529661Y-85523352D01*
X132643628Y-85637319D01*
X132675722Y-85692906D01*
X132675722Y-85757094D01*
X132643628Y-85812681D01*
X132529661Y-85926647D01*
X132439091Y-86073484D01*
X132384825Y-86237246D01*
X132374500Y-86338323D01*
X132374500Y-86936676D01*
X132384825Y-87037752D01*
X132439091Y-87201515D01*
X132529661Y-87348352D01*
X132651647Y-87470338D01*
X132651649Y-87470339D01*
X132651650Y-87470340D01*
X132699897Y-87500099D01*
X132798484Y-87560908D01*
X132962246Y-87615174D01*
X132971614Y-87616131D01*
X133063323Y-87625500D01*
X133636676Y-87625499D01*
X133737753Y-87615174D01*
X133901516Y-87560908D01*
X134048350Y-87470340D01*
X134170340Y-87348350D01*
X134260908Y-87201516D01*
X134315174Y-87037753D01*
X134325500Y-86936677D01*
X134325499Y-86597952D01*
X134334938Y-86550500D01*
X134361815Y-86510274D01*
X134485274Y-86386816D01*
X134525500Y-86359939D01*
X134572953Y-86350500D01*
X134991984Y-86350500D01*
X135053358Y-86366754D01*
X135098643Y-86411255D01*
X135115965Y-86472336D01*
X135100785Y-86533985D01*
X135070898Y-86565477D01*
X135072204Y-86566783D01*
X134942031Y-86696955D01*
X134852997Y-86841300D01*
X134799650Y-87002292D01*
X134789500Y-87101655D01*
X134789500Y-87292060D01*
X134780061Y-87339513D01*
X134753181Y-87379741D01*
X134069741Y-88063181D01*
X134029513Y-88090061D01*
X133982060Y-88099500D01*
X131827940Y-88099500D01*
X131780487Y-88090061D01*
X131740259Y-88063181D01*
X131011819Y-87334741D01*
X130984939Y-87294513D01*
X130975500Y-87247060D01*
X130975500Y-86807718D01*
X130992113Y-86745718D01*
X131002179Y-86728284D01*
X131060674Y-86548256D01*
X131080460Y-86360000D01*
X131060674Y-86171744D01*
X131010417Y-86017069D01*
X131002179Y-85991715D01*
X130907533Y-85827783D01*
X130780870Y-85687110D01*
X130627730Y-85575848D01*
X130454802Y-85498855D01*
X130269648Y-85459500D01*
X130269646Y-85459500D01*
X130080354Y-85459500D01*
X130080352Y-85459500D01*
X129895197Y-85498855D01*
X129722269Y-85575848D01*
X129569129Y-85687110D01*
X129442466Y-85827783D01*
X129347820Y-85991715D01*
X129289326Y-86171742D01*
X129269546Y-86359939D01*
X129269540Y-86360000D01*
X129270250Y-86366754D01*
X129289326Y-86548257D01*
X129347821Y-86728284D01*
X129357887Y-86745718D01*
X129374500Y-86807718D01*
X129374500Y-87720196D01*
X129383017Y-87757518D01*
X129385345Y-87771219D01*
X129389631Y-87809252D01*
X129402272Y-87845380D01*
X129406119Y-87858736D01*
X129414638Y-87896058D01*
X129431250Y-87930553D01*
X129436570Y-87943398D01*
X129449209Y-87979520D01*
X129459770Y-87996327D01*
X129469576Y-88011933D01*
X129476298Y-88024095D01*
X129492908Y-88058586D01*
X129516772Y-88088510D01*
X129524818Y-88099850D01*
X129545184Y-88132262D01*
X129577173Y-88164251D01*
X129577174Y-88164252D01*
X130815184Y-89402262D01*
X130938632Y-89525710D01*
X130942738Y-89529816D01*
X130975143Y-89550177D01*
X130986486Y-89558225D01*
X131016414Y-89582092D01*
X131050895Y-89598697D01*
X131063066Y-89605423D01*
X131095480Y-89625790D01*
X131131608Y-89638432D01*
X131144450Y-89643750D01*
X131178935Y-89660358D01*
X131178939Y-89660360D01*
X131216250Y-89668876D01*
X131229611Y-89672725D01*
X131265745Y-89685368D01*
X131303776Y-89689653D01*
X131317481Y-89691981D01*
X131354806Y-89700500D01*
X131400046Y-89700500D01*
X131535194Y-89700500D01*
X134274806Y-89700500D01*
X134409954Y-89700500D01*
X134455194Y-89700500D01*
X134455195Y-89700500D01*
X134466009Y-89698031D01*
X134492520Y-89691980D01*
X134506197Y-89689655D01*
X134544255Y-89685368D01*
X134580399Y-89672720D01*
X134593721Y-89668882D01*
X134631061Y-89660360D01*
X134665549Y-89643750D01*
X134678391Y-89638431D01*
X134714522Y-89625789D01*
X134746932Y-89605423D01*
X134759103Y-89598697D01*
X134793587Y-89582091D01*
X134823515Y-89558222D01*
X134834834Y-89550190D01*
X134867262Y-89529816D01*
X134994816Y-89402262D01*
X134994816Y-89402261D01*
X136035258Y-88361817D01*
X136075486Y-88334938D01*
X136122939Y-88325499D01*
X136313345Y-88325499D01*
X136363025Y-88320424D01*
X136412708Y-88315349D01*
X136573697Y-88262003D01*
X136718044Y-88172968D01*
X136837968Y-88053044D01*
X136927003Y-87908697D01*
X136980349Y-87747708D01*
X136990500Y-87648345D01*
X136990499Y-87101656D01*
X136980349Y-87002292D01*
X136927003Y-86841303D01*
X136927002Y-86841302D01*
X136927002Y-86841300D01*
X136837968Y-86696955D01*
X136707796Y-86566783D01*
X136709101Y-86565477D01*
X136679215Y-86533985D01*
X136664035Y-86472336D01*
X136681357Y-86411255D01*
X136726642Y-86366754D01*
X136788016Y-86350500D01*
X137077256Y-86350500D01*
X137097762Y-86352764D01*
X137100665Y-86352672D01*
X137100667Y-86352673D01*
X137167872Y-86350561D01*
X137171768Y-86350500D01*
X137199349Y-86350500D01*
X137199350Y-86350500D01*
X137203319Y-86349998D01*
X137214965Y-86349080D01*
X137258627Y-86347709D01*
X137277859Y-86342120D01*
X137296918Y-86338174D01*
X137303196Y-86337381D01*
X137316792Y-86335664D01*
X137357407Y-86319582D01*
X137368444Y-86315803D01*
X137410390Y-86303618D01*
X137427629Y-86293422D01*
X137445102Y-86284862D01*
X137463732Y-86277486D01*
X137499064Y-86251814D01*
X137508830Y-86245400D01*
X137546418Y-86223171D01*
X137546417Y-86223171D01*
X137546420Y-86223170D01*
X137560585Y-86209004D01*
X137575373Y-86196373D01*
X137591587Y-86184594D01*
X137619438Y-86150926D01*
X137627279Y-86142309D01*
X137721126Y-86048462D01*
X137777968Y-86016040D01*
X137843400Y-86017068D01*
X137862431Y-86022598D01*
X137899306Y-86025500D01*
X138140500Y-86025500D01*
X138202500Y-86042113D01*
X138247887Y-86087500D01*
X138264500Y-86149500D01*
X138264500Y-87315692D01*
X138267402Y-87352572D01*
X138313255Y-87510397D01*
X138343127Y-87560908D01*
X138396919Y-87651865D01*
X138513135Y-87768081D01*
X138582752Y-87809252D01*
X138654602Y-87851744D01*
X138812427Y-87897597D01*
X138812431Y-87897598D01*
X138849306Y-87900500D01*
X139280692Y-87900500D01*
X139280694Y-87900500D01*
X139317569Y-87897598D01*
X139475398Y-87851744D01*
X139616865Y-87768081D01*
X139733081Y-87651865D01*
X139816744Y-87510398D01*
X139862598Y-87352569D01*
X139865500Y-87315694D01*
X139865500Y-86009306D01*
X139865500Y-85037500D01*
X140265000Y-85037500D01*
X140265000Y-86022295D01*
X140267488Y-86022099D01*
X140425200Y-85976280D01*
X140566557Y-85892682D01*
X140682682Y-85776557D01*
X140766282Y-85635197D01*
X140812099Y-85477493D01*
X140815000Y-85440639D01*
X140815000Y-85037500D01*
X140265000Y-85037500D01*
X139865500Y-85037500D01*
X139865500Y-83552704D01*
X140265000Y-83552704D01*
X140265000Y-84537500D01*
X140815000Y-84537500D01*
X140815000Y-84134361D01*
X140812099Y-84097506D01*
X140766282Y-83939802D01*
X140682682Y-83798442D01*
X140566557Y-83682317D01*
X140465723Y-83622684D01*
X141310868Y-83622684D01*
X141326447Y-83627210D01*
X141361891Y-83630000D01*
X142038109Y-83630000D01*
X142073548Y-83627210D01*
X142089129Y-83622683D01*
X141700001Y-83233553D01*
X141700000Y-83233553D01*
X141310868Y-83622683D01*
X141310868Y-83622684D01*
X140465723Y-83622684D01*
X140425200Y-83598719D01*
X140267488Y-83552900D01*
X140265000Y-83552704D01*
X139865500Y-83552704D01*
X139865500Y-82646021D01*
X139866211Y-82632764D01*
X139870500Y-82592873D01*
X139870499Y-81614853D01*
X139885526Y-81555686D01*
X139926965Y-81510858D01*
X139984773Y-81491236D01*
X140044937Y-81501576D01*
X140055197Y-81506144D01*
X140071132Y-81509531D01*
X140240352Y-81545500D01*
X140240354Y-81545500D01*
X140429646Y-81545500D01*
X140429648Y-81545500D01*
X140571101Y-81515433D01*
X140614803Y-81506144D01*
X140652072Y-81489550D01*
X140721047Y-81480224D01*
X140784184Y-81509531D01*
X140821583Y-81568236D01*
X140844002Y-81645406D01*
X140844002Y-81714595D01*
X140802789Y-81856452D01*
X140800000Y-81891891D01*
X140800000Y-82268109D01*
X140802789Y-82303547D01*
X140844002Y-82445405D01*
X140844002Y-82514595D01*
X140802789Y-82656452D01*
X140800000Y-82691891D01*
X140800000Y-83068109D01*
X140802789Y-83103552D01*
X140846844Y-83255189D01*
X140893079Y-83333367D01*
X141612318Y-82614128D01*
X141667905Y-82582034D01*
X141732093Y-82582034D01*
X141787680Y-82614128D01*
X142506919Y-83333367D01*
X142518397Y-83331917D01*
X142538271Y-83312354D01*
X142599708Y-83296064D01*
X142661145Y-83312354D01*
X142706440Y-83356943D01*
X142726830Y-83391421D01*
X142838578Y-83503169D01*
X142891536Y-83534488D01*
X142974610Y-83583618D01*
X143126373Y-83627709D01*
X143161837Y-83630500D01*
X143270500Y-83630500D01*
X143332500Y-83647113D01*
X143377887Y-83692500D01*
X143394500Y-83754500D01*
X143394500Y-84391294D01*
X143393191Y-84409264D01*
X143389711Y-84433023D01*
X143394028Y-84482369D01*
X143394500Y-84493176D01*
X143394500Y-84498708D01*
X143398098Y-84529496D01*
X143398464Y-84533081D01*
X143405110Y-84609041D01*
X143409329Y-84628071D01*
X143409758Y-84629251D01*
X143409759Y-84629255D01*
X143435413Y-84699742D01*
X143436582Y-84703107D01*
X143460580Y-84775524D01*
X143469075Y-84793072D01*
X143510979Y-84856784D01*
X143512889Y-84859782D01*
X143527345Y-84883217D01*
X143552952Y-84924732D01*
X143565253Y-84939831D01*
X143620710Y-84992152D01*
X143623297Y-84994665D01*
X144464269Y-85835637D01*
X144476044Y-85849261D01*
X144490390Y-85868530D01*
X144490391Y-85868531D01*
X144490442Y-85868599D01*
X144510755Y-85910556D01*
X144540642Y-86022099D01*
X144554680Y-86074488D01*
X144640617Y-86243149D01*
X144759743Y-86390257D01*
X144906851Y-86509383D01*
X145075512Y-86595320D01*
X145258355Y-86644312D01*
X145336979Y-86650500D01*
X150663020Y-86650499D01*
X150741645Y-86644312D01*
X150924488Y-86595320D01*
X151093149Y-86509383D01*
X151240257Y-86390257D01*
X151279635Y-86341629D01*
X151327948Y-86305355D01*
X151387670Y-86296216D01*
X151444621Y-86316384D01*
X151485282Y-86361070D01*
X151500000Y-86419666D01*
X151500000Y-86876000D01*
X151483387Y-86938000D01*
X151438000Y-86983387D01*
X151376000Y-87000000D01*
X143500000Y-87000000D01*
X143500000Y-89876000D01*
X143483387Y-89938000D01*
X143438000Y-89983387D01*
X143376000Y-90000000D01*
X120624000Y-90000000D01*
X120562000Y-89983387D01*
X120516613Y-89938000D01*
X120500000Y-89876000D01*
X120500000Y-80441113D01*
X120518505Y-80375946D01*
X120568496Y-80330229D01*
X120635053Y-80317607D01*
X120698309Y-80341845D01*
X120747669Y-80378796D01*
X120875554Y-80426494D01*
X120897110Y-80434534D01*
X120896822Y-80435304D01*
X120935000Y-80449284D01*
X120975031Y-80493847D01*
X120989500Y-80551976D01*
X120989500Y-81240196D01*
X120998017Y-81277518D01*
X121000345Y-81291219D01*
X121004631Y-81329252D01*
X121017272Y-81365380D01*
X121021119Y-81378736D01*
X121029638Y-81416058D01*
X121046250Y-81450553D01*
X121051570Y-81463398D01*
X121064209Y-81499520D01*
X121068372Y-81506145D01*
X121084576Y-81531933D01*
X121091298Y-81544095D01*
X121107908Y-81578586D01*
X121131772Y-81608510D01*
X121139818Y-81619850D01*
X121160184Y-81652262D01*
X122350613Y-82842691D01*
X122382225Y-82896533D01*
X122383593Y-82958955D01*
X122354368Y-83014130D01*
X122321619Y-83035338D01*
X122323001Y-83037578D01*
X122161342Y-83137288D01*
X122037288Y-83261342D01*
X121945186Y-83410665D01*
X121890000Y-83577202D01*
X121879500Y-83679990D01*
X121879500Y-85230008D01*
X121890000Y-85332796D01*
X121945186Y-85499334D01*
X122037288Y-85648657D01*
X122161342Y-85772711D01*
X122213140Y-85804660D01*
X122310666Y-85864814D01*
X122394766Y-85892682D01*
X122477202Y-85919999D01*
X122487702Y-85921071D01*
X122579991Y-85930500D01*
X123880008Y-85930499D01*
X123982797Y-85919999D01*
X124149334Y-85864814D01*
X124298656Y-85772712D01*
X124422712Y-85648656D01*
X124514814Y-85499334D01*
X124514814Y-85499331D01*
X124518178Y-85493879D01*
X124557091Y-85454395D01*
X124609321Y-85435814D01*
X124664428Y-85441849D01*
X124711398Y-85471294D01*
X124858599Y-85618495D01*
X125052170Y-85754035D01*
X125266337Y-85853903D01*
X125494592Y-85915063D01*
X125730000Y-85935659D01*
X125965408Y-85915063D01*
X126193663Y-85853903D01*
X126407829Y-85754035D01*
X126601401Y-85618495D01*
X126768495Y-85451401D01*
X126878732Y-85293964D01*
X126923048Y-85255101D01*
X126980305Y-85241090D01*
X127037562Y-85255101D01*
X127081880Y-85293967D01*
X127191890Y-85451078D01*
X127358918Y-85618106D01*
X127552423Y-85753600D01*
X127766507Y-85853430D01*
X127979999Y-85910635D01*
X127980000Y-85910636D01*
X127980000Y-84705000D01*
X128480000Y-84705000D01*
X128480000Y-85910635D01*
X128693492Y-85853430D01*
X128907578Y-85753599D01*
X129101078Y-85618109D01*
X129268109Y-85451078D01*
X129403599Y-85257578D01*
X129503430Y-85043492D01*
X129564569Y-84815318D01*
X129574221Y-84705000D01*
X128480000Y-84705000D01*
X127980000Y-84705000D01*
X127980000Y-82999364D01*
X128480000Y-82999364D01*
X128480000Y-84205000D01*
X129574222Y-84205000D01*
X129574221Y-84204999D01*
X129564569Y-84094681D01*
X129503430Y-83866507D01*
X129403599Y-83652421D01*
X129268109Y-83458921D01*
X129101081Y-83291893D01*
X128907576Y-83156399D01*
X128693492Y-83056569D01*
X128480000Y-82999364D01*
X127980000Y-82999364D01*
X127979999Y-82999364D01*
X127766507Y-83056569D01*
X127552421Y-83156400D01*
X127358921Y-83291890D01*
X127191893Y-83458918D01*
X127081880Y-83616033D01*
X127037562Y-83654898D01*
X126980305Y-83668909D01*
X126923048Y-83654898D01*
X126878730Y-83616032D01*
X126768495Y-83458599D01*
X126701316Y-83391420D01*
X126601402Y-83291505D01*
X126583377Y-83278884D01*
X126544511Y-83234566D01*
X126530500Y-83177309D01*
X126530500Y-81824804D01*
X126521982Y-81787488D01*
X126519655Y-81773800D01*
X126515368Y-81735745D01*
X126507967Y-81714595D01*
X126502724Y-81699610D01*
X126498876Y-81686254D01*
X126498419Y-81684252D01*
X126494430Y-81666775D01*
X126497012Y-81602044D01*
X126531888Y-81547447D01*
X126589540Y-81517891D01*
X126630107Y-81509267D01*
X126644803Y-81506144D01*
X126817730Y-81429151D01*
X126970871Y-81317888D01*
X127097533Y-81177216D01*
X127192179Y-81013284D01*
X127250674Y-80833256D01*
X127270460Y-80645000D01*
X127250674Y-80456744D01*
X127192179Y-80276716D01*
X127182112Y-80259280D01*
X127165500Y-80197282D01*
X127165500Y-78519807D01*
X127165500Y-78519806D01*
X127156981Y-78482481D01*
X127154653Y-78468777D01*
X127150262Y-78429805D01*
X127158396Y-78369757D01*
X127194014Y-78320734D01*
X127248609Y-78294442D01*
X127309144Y-78297161D01*
G37*
%TD.AperFunction*%
%TA.AperFunction,Conductor*%
G36*
X142550500Y-78766613D02*
G01*
X142595887Y-78812000D01*
X142612500Y-78874000D01*
X142612500Y-79866285D01*
X142616132Y-79892063D01*
X142606785Y-79934848D01*
X142603066Y-79943829D01*
X142599944Y-79942536D01*
X142593197Y-79965761D01*
X142541298Y-80011517D01*
X142518408Y-80015142D01*
X141787680Y-80745871D01*
X141732093Y-80777965D01*
X141667905Y-80777965D01*
X141612318Y-80745871D01*
X141434127Y-80567680D01*
X141402033Y-80512093D01*
X141402033Y-80447905D01*
X141434127Y-80392318D01*
X142112499Y-79713946D01*
X142112500Y-79713946D01*
X142112500Y-78874000D01*
X142129113Y-78812000D01*
X142174500Y-78766613D01*
X142236500Y-78750000D01*
X142488500Y-78750000D01*
X142550500Y-78766613D01*
G37*
%TD.AperFunction*%
%TA.AperFunction,Conductor*%
G36*
X140930413Y-60317026D02*
G01*
X140950196Y-60320160D01*
X140993674Y-60316050D01*
X141005344Y-60315500D01*
X141878156Y-60315500D01*
X141939275Y-60331609D01*
X141984514Y-60375751D01*
X142002119Y-60436456D01*
X141987515Y-60497951D01*
X141946186Y-60575273D01*
X141946184Y-60575277D01*
X141888976Y-60763866D01*
X141873534Y-60920657D01*
X141869659Y-60960000D01*
X141873410Y-60998081D01*
X141888976Y-61156133D01*
X141946185Y-61344726D01*
X142044847Y-61529309D01*
X142043923Y-61529802D01*
X142062190Y-61566843D01*
X142062190Y-61623157D01*
X142043923Y-61660197D01*
X142044847Y-61660691D01*
X141946185Y-61845273D01*
X141888976Y-62033866D01*
X141878277Y-62142500D01*
X141869659Y-62230000D01*
X141875071Y-62284946D01*
X141888976Y-62426133D01*
X141946185Y-62614726D01*
X142044847Y-62799309D01*
X142044025Y-62799747D01*
X142062512Y-62837231D01*
X142062514Y-62893546D01*
X142044311Y-62930460D01*
X142045264Y-62930970D01*
X141946649Y-63115465D01*
X141905839Y-63249998D01*
X141905840Y-63250000D01*
X143001000Y-63250000D01*
X143063000Y-63266613D01*
X143108387Y-63312000D01*
X143125000Y-63374000D01*
X143125000Y-63626000D01*
X143108387Y-63688000D01*
X143063000Y-63733387D01*
X143001000Y-63750000D01*
X141905840Y-63750000D01*
X141905839Y-63750001D01*
X141946649Y-63884534D01*
X142045264Y-64069030D01*
X142044310Y-64069539D01*
X142062512Y-64106445D01*
X142062514Y-64162760D01*
X142044026Y-64200252D01*
X142044847Y-64200691D01*
X141946185Y-64385273D01*
X141888976Y-64573866D01*
X141869659Y-64770000D01*
X141888976Y-64966133D01*
X141946185Y-65154726D01*
X141998981Y-65253500D01*
X142039090Y-65328538D01*
X142164117Y-65480883D01*
X142316462Y-65605910D01*
X142490273Y-65698814D01*
X142678868Y-65756024D01*
X142875000Y-65775341D01*
X143071132Y-65756024D01*
X143259727Y-65698814D01*
X143317549Y-65667907D01*
X143379043Y-65653303D01*
X143439749Y-65670908D01*
X143483891Y-65716147D01*
X143500000Y-65777266D01*
X143500000Y-71000000D01*
X151376484Y-71030738D01*
X151438279Y-71047512D01*
X151483468Y-71092877D01*
X151500000Y-71154737D01*
X151500000Y-71226000D01*
X151483387Y-71288000D01*
X151438000Y-71333387D01*
X151376000Y-71350000D01*
X148750000Y-71350000D01*
X148750000Y-72776000D01*
X148733387Y-72838000D01*
X148688000Y-72883387D01*
X148626000Y-72900000D01*
X144500000Y-72900000D01*
X144500000Y-73112979D01*
X144506185Y-73191567D01*
X144555149Y-73374306D01*
X144641039Y-73542875D01*
X144760099Y-73689900D01*
X144907125Y-73808961D01*
X144907663Y-73809235D01*
X144909070Y-73810535D01*
X144917254Y-73817163D01*
X144916819Y-73817699D01*
X144957094Y-73854930D01*
X144975366Y-73919717D01*
X144957095Y-73984506D01*
X144916598Y-74021943D01*
X144916980Y-74022415D01*
X144909790Y-74028236D01*
X144907666Y-74030201D01*
X144906854Y-74030614D01*
X144759743Y-74149743D01*
X144640617Y-74296850D01*
X144554679Y-74465513D01*
X144505688Y-74648353D01*
X144499500Y-74726982D01*
X144499500Y-75653018D01*
X144505688Y-75731645D01*
X144551479Y-75902545D01*
X144554680Y-75914488D01*
X144640617Y-76083149D01*
X144759743Y-76230257D01*
X144906851Y-76349383D01*
X144906853Y-76349384D01*
X144907113Y-76349517D01*
X144907791Y-76350144D01*
X144916980Y-76357585D01*
X144916492Y-76358187D01*
X144956543Y-76395212D01*
X144974815Y-76460000D01*
X144956543Y-76524788D01*
X144916492Y-76561812D01*
X144916980Y-76562415D01*
X144907791Y-76569855D01*
X144907113Y-76570483D01*
X144906853Y-76570615D01*
X144759743Y-76689743D01*
X144640617Y-76836850D01*
X144554680Y-77005511D01*
X144552784Y-77012590D01*
X144527999Y-77060204D01*
X144485414Y-77092882D01*
X144433008Y-77104500D01*
X141540452Y-77104500D01*
X141492999Y-77095061D01*
X141452771Y-77068181D01*
X140361819Y-75977228D01*
X140334939Y-75937000D01*
X140325500Y-75889547D01*
X140325500Y-73564452D01*
X140339015Y-73508157D01*
X140376615Y-73464134D01*
X140430102Y-73441979D01*
X140487818Y-73446521D01*
X140537180Y-73476770D01*
X141317519Y-74257110D01*
X141936038Y-74875629D01*
X141960277Y-74909926D01*
X141971678Y-74950348D01*
X141989326Y-75118257D01*
X142047820Y-75298284D01*
X142142466Y-75462216D01*
X142269129Y-75602889D01*
X142422269Y-75714151D01*
X142595197Y-75791144D01*
X142780352Y-75830500D01*
X142780354Y-75830500D01*
X142969646Y-75830500D01*
X142969648Y-75830500D01*
X143141112Y-75794054D01*
X143154803Y-75791144D01*
X143327730Y-75714151D01*
X143480871Y-75602888D01*
X143607533Y-75462216D01*
X143702179Y-75298284D01*
X143760674Y-75118256D01*
X143780460Y-74930000D01*
X143760674Y-74741744D01*
X143702179Y-74561716D01*
X143702179Y-74561715D01*
X143607533Y-74397783D01*
X143480870Y-74257110D01*
X143327730Y-74145848D01*
X143154802Y-74068855D01*
X142969648Y-74029500D01*
X142969646Y-74029500D01*
X142910453Y-74029500D01*
X142863000Y-74020061D01*
X142822772Y-73993181D01*
X141229591Y-72400000D01*
X144500000Y-72400000D01*
X148250000Y-72400000D01*
X148250000Y-71350000D01*
X145337021Y-71350000D01*
X145258432Y-71356185D01*
X145075693Y-71405149D01*
X144907124Y-71491039D01*
X144760099Y-71610099D01*
X144641039Y-71757124D01*
X144555149Y-71925693D01*
X144506185Y-72108432D01*
X144500000Y-72187021D01*
X144500000Y-72400000D01*
X141229591Y-72400000D01*
X140996819Y-72167228D01*
X140969939Y-72127000D01*
X140960500Y-72079547D01*
X140960500Y-61042740D01*
X140962763Y-61022236D01*
X140961807Y-60991819D01*
X140960561Y-60952144D01*
X140960500Y-60948250D01*
X140960500Y-60920657D01*
X140960500Y-60920650D01*
X140959995Y-60916653D01*
X140959080Y-60905023D01*
X140958601Y-60889769D01*
X140957709Y-60861373D01*
X140952120Y-60842140D01*
X140948174Y-60823082D01*
X140945664Y-60803208D01*
X140941073Y-60791613D01*
X140929585Y-60762597D01*
X140925804Y-60751552D01*
X140913619Y-60709613D01*
X140913618Y-60709612D01*
X140913618Y-60709610D01*
X140903417Y-60692361D01*
X140894860Y-60674895D01*
X140887486Y-60656268D01*
X140861813Y-60620932D01*
X140855402Y-60611172D01*
X140834174Y-60575277D01*
X140833170Y-60573579D01*
X140819006Y-60559415D01*
X140806369Y-60544620D01*
X140785387Y-60515741D01*
X140787349Y-60514315D01*
X140766942Y-60486598D01*
X140758275Y-60427060D01*
X140778653Y-60370450D01*
X140823280Y-60330097D01*
X140881649Y-60315500D01*
X140890981Y-60315500D01*
X140911016Y-60315500D01*
X140930413Y-60317026D01*
G37*
%TD.AperFunction*%
%TA.AperFunction,Conductor*%
G36*
X127506987Y-56013515D02*
G01*
X127551010Y-56051115D01*
X127573165Y-56104602D01*
X127568623Y-56162318D01*
X127538373Y-56211681D01*
X127466919Y-56283134D01*
X127383255Y-56424602D01*
X127337402Y-56582427D01*
X127334500Y-56619308D01*
X127334500Y-56860500D01*
X127317887Y-56922500D01*
X127272500Y-56967887D01*
X127210500Y-56984500D01*
X126044306Y-56984500D01*
X126032014Y-56985467D01*
X126007427Y-56987402D01*
X125849602Y-57033255D01*
X125708134Y-57116919D01*
X125591919Y-57233134D01*
X125508255Y-57374602D01*
X125482223Y-57464204D01*
X125451133Y-57516983D01*
X125398572Y-57548440D01*
X125337366Y-57550898D01*
X125189648Y-57519500D01*
X125189646Y-57519500D01*
X125000354Y-57519500D01*
X125000352Y-57519500D01*
X124815197Y-57558855D01*
X124703069Y-57608779D01*
X124652633Y-57619500D01*
X124195413Y-57619500D01*
X124134981Y-57603777D01*
X124089875Y-57560597D01*
X124033022Y-57468423D01*
X124010339Y-57431648D01*
X123888352Y-57309661D01*
X123741515Y-57219091D01*
X123577753Y-57164825D01*
X123486044Y-57155457D01*
X123476676Y-57154500D01*
X122903323Y-57154500D01*
X122802247Y-57164825D01*
X122638484Y-57219091D01*
X122491647Y-57309661D01*
X122369661Y-57431647D01*
X122279091Y-57578484D01*
X122224825Y-57742246D01*
X122214500Y-57843323D01*
X122214500Y-58441676D01*
X122224825Y-58542752D01*
X122279091Y-58706515D01*
X122369661Y-58853352D01*
X122483628Y-58967319D01*
X122515722Y-59022906D01*
X122515722Y-59087094D01*
X122483628Y-59142681D01*
X122369661Y-59256647D01*
X122279091Y-59403484D01*
X122224825Y-59567246D01*
X122214500Y-59668323D01*
X122214500Y-60266676D01*
X122224825Y-60367752D01*
X122279091Y-60531515D01*
X122369661Y-60678352D01*
X122387859Y-60696550D01*
X122417304Y-60743519D01*
X122423340Y-60798626D01*
X122404759Y-60850856D01*
X122365276Y-60889769D01*
X122296342Y-60932288D01*
X122172288Y-61056342D01*
X122080186Y-61205665D01*
X122025000Y-61372202D01*
X122014500Y-61474990D01*
X122014500Y-62650008D01*
X122025000Y-62752796D01*
X122080186Y-62919334D01*
X122172288Y-63068657D01*
X122296342Y-63192711D01*
X122314852Y-63204128D01*
X122445666Y-63284814D01*
X122527708Y-63312000D01*
X122612202Y-63339999D01*
X122622703Y-63341071D01*
X122714991Y-63350500D01*
X123665008Y-63350499D01*
X123767797Y-63339999D01*
X123934334Y-63284814D01*
X124083656Y-63192712D01*
X124207712Y-63068656D01*
X124299814Y-62919334D01*
X124354999Y-62752797D01*
X124365500Y-62650009D01*
X124365499Y-61474992D01*
X124354999Y-61372203D01*
X124299814Y-61205666D01*
X124207712Y-61056344D01*
X124207711Y-61056342D01*
X124083657Y-60932288D01*
X124029687Y-60899000D01*
X124014723Y-60889770D01*
X123975240Y-60850858D01*
X123956658Y-60798627D01*
X123962694Y-60743520D01*
X123992138Y-60696551D01*
X124010340Y-60678350D01*
X124100908Y-60531516D01*
X124144323Y-60400496D01*
X124170203Y-60356171D01*
X124211815Y-60326123D01*
X124262030Y-60315500D01*
X124391253Y-60315500D01*
X124441688Y-60326220D01*
X124483401Y-60356526D01*
X124489129Y-60362888D01*
X124642270Y-60474151D01*
X124642271Y-60474151D01*
X124642272Y-60474152D01*
X124815197Y-60551144D01*
X125000352Y-60590500D01*
X125000354Y-60590500D01*
X125189646Y-60590500D01*
X125189648Y-60590500D01*
X125313084Y-60564262D01*
X125374803Y-60551144D01*
X125473995Y-60506980D01*
X125541260Y-60497406D01*
X125603471Y-60524714D01*
X125641955Y-60580707D01*
X125645156Y-60648573D01*
X125612115Y-60707939D01*
X125591918Y-60728136D01*
X125508255Y-60869602D01*
X125462402Y-61027427D01*
X125459500Y-61064308D01*
X125459500Y-61495692D01*
X125462402Y-61532572D01*
X125508255Y-61690397D01*
X125508256Y-61690398D01*
X125591919Y-61831865D01*
X125708135Y-61948081D01*
X125849602Y-62031744D01*
X126007427Y-62077597D01*
X126007431Y-62077598D01*
X126044306Y-62080500D01*
X126250500Y-62080500D01*
X126312500Y-62097113D01*
X126357887Y-62142500D01*
X126374500Y-62204500D01*
X126374500Y-62801313D01*
X126366264Y-62845751D01*
X126342652Y-62884282D01*
X126311092Y-62919334D01*
X126267464Y-62967786D01*
X126172820Y-63131715D01*
X126114326Y-63311742D01*
X126094540Y-63499999D01*
X126114326Y-63688257D01*
X126172820Y-63868284D01*
X126267466Y-64032216D01*
X126394129Y-64172889D01*
X126547269Y-64284151D01*
X126720197Y-64361144D01*
X126905352Y-64400500D01*
X126905354Y-64400500D01*
X127094646Y-64400500D01*
X127094648Y-64400500D01*
X127218084Y-64374262D01*
X127279803Y-64361144D01*
X127452730Y-64284151D01*
X127552778Y-64211462D01*
X127605870Y-64172889D01*
X127608471Y-64170000D01*
X128374937Y-64170000D01*
X128395122Y-64349140D01*
X128454665Y-64519304D01*
X128463338Y-64533108D01*
X128826447Y-64170001D01*
X128826447Y-64170000D01*
X129533553Y-64170000D01*
X129867500Y-64503947D01*
X130201447Y-64170000D01*
X130933553Y-64170000D01*
X131280000Y-64516447D01*
X131626446Y-64170001D01*
X132333553Y-64170001D01*
X132696660Y-64533107D01*
X132696661Y-64533107D01*
X132705335Y-64519303D01*
X132764877Y-64349140D01*
X132785062Y-64169999D01*
X132764877Y-63990859D01*
X132705335Y-63820696D01*
X132696660Y-63806891D01*
X132333553Y-64170000D01*
X132333553Y-64170001D01*
X131626446Y-64170001D01*
X131626447Y-64170000D01*
X131280000Y-63823553D01*
X130933553Y-64170000D01*
X130201447Y-64170000D01*
X129867500Y-63836053D01*
X129533553Y-64170000D01*
X128826447Y-64170000D01*
X128463338Y-63806890D01*
X128463338Y-63806891D01*
X128454664Y-63820696D01*
X128395122Y-63990859D01*
X128374937Y-64170000D01*
X127608471Y-64170000D01*
X127635484Y-64140000D01*
X127732533Y-64032216D01*
X127827179Y-63868284D01*
X127885674Y-63688256D01*
X127905460Y-63500000D01*
X127885674Y-63311744D01*
X127847031Y-63192816D01*
X127842490Y-63135102D01*
X127864645Y-63081615D01*
X127908668Y-63044015D01*
X127964963Y-63030500D01*
X129011464Y-63030500D01*
X129068378Y-63044333D01*
X129112593Y-63082745D01*
X129134246Y-63137166D01*
X129128506Y-63195454D01*
X129090509Y-63304044D01*
X129087669Y-63303050D01*
X129078363Y-63329494D01*
X129039494Y-63368363D01*
X129013050Y-63377669D01*
X129014044Y-63380509D01*
X128830696Y-63444664D01*
X128816891Y-63453338D01*
X128816890Y-63453338D01*
X129179999Y-63816447D01*
X129792319Y-63204128D01*
X129847906Y-63172034D01*
X129912094Y-63172034D01*
X129967681Y-63204128D01*
X130567499Y-63803946D01*
X130901445Y-63470001D01*
X131633553Y-63470001D01*
X131980000Y-63816447D01*
X131980001Y-63816447D01*
X132343108Y-63453338D01*
X132329304Y-63444665D01*
X132145956Y-63380509D01*
X132146954Y-63377654D01*
X132120427Y-63368313D01*
X132081515Y-63329301D01*
X132072345Y-63303045D01*
X132069491Y-63304044D01*
X132005335Y-63120696D01*
X131996660Y-63106891D01*
X131633553Y-63470000D01*
X131633553Y-63470001D01*
X130901445Y-63470001D01*
X130923375Y-63448071D01*
X130963603Y-63421191D01*
X130978148Y-63418297D01*
X131280000Y-63116447D01*
X131279999Y-63116447D01*
X131519108Y-62877336D01*
X131552242Y-62853660D01*
X131591256Y-62841994D01*
X131601792Y-62840664D01*
X131642407Y-62824582D01*
X131653444Y-62820803D01*
X131695390Y-62808618D01*
X131712629Y-62798422D01*
X131730102Y-62789862D01*
X131733446Y-62788538D01*
X131748732Y-62782486D01*
X131784064Y-62756814D01*
X131793830Y-62750400D01*
X131831418Y-62728171D01*
X131831417Y-62728171D01*
X131831420Y-62728170D01*
X131845585Y-62714004D01*
X131860373Y-62701373D01*
X131876587Y-62689594D01*
X131904438Y-62655926D01*
X131912279Y-62647309D01*
X132972818Y-61586771D01*
X133022182Y-61556521D01*
X133079898Y-61551979D01*
X133133385Y-61574134D01*
X133170985Y-61618157D01*
X133184500Y-61674452D01*
X133184500Y-61915692D01*
X133187402Y-61952572D01*
X133233255Y-62110397D01*
X133303988Y-62230000D01*
X133316919Y-62251865D01*
X133433135Y-62368081D01*
X133574602Y-62451744D01*
X133582547Y-62454052D01*
X133634340Y-62484170D01*
X133665965Y-62535056D01*
X133670041Y-62594830D01*
X133645616Y-62649538D01*
X133598392Y-62686408D01*
X133532268Y-62715849D01*
X133379129Y-62827110D01*
X133252466Y-62967783D01*
X133157820Y-63131715D01*
X133099326Y-63311742D01*
X133079540Y-63500000D01*
X133099326Y-63688257D01*
X133157821Y-63868284D01*
X133167887Y-63885718D01*
X133184500Y-63947718D01*
X133184500Y-66927060D01*
X133175061Y-66974513D01*
X133148181Y-67014741D01*
X132594739Y-67568181D01*
X132554511Y-67595061D01*
X132507059Y-67604500D01*
X132365823Y-67604500D01*
X132264747Y-67614825D01*
X132100985Y-67669091D01*
X131954148Y-67759661D01*
X131939824Y-67773985D01*
X131884236Y-67806076D01*
X131820051Y-67806074D01*
X131764465Y-67773981D01*
X131750540Y-67760056D01*
X131603801Y-67669546D01*
X131440151Y-67615318D01*
X131339147Y-67605000D01*
X131240000Y-67605000D01*
X131240000Y-68706000D01*
X131223387Y-68768000D01*
X131178000Y-68813387D01*
X131116000Y-68830000D01*
X130864000Y-68830000D01*
X130802000Y-68813387D01*
X130756613Y-68768000D01*
X130740000Y-68706000D01*
X130740000Y-67605001D01*
X130640853Y-67605001D01*
X130539848Y-67615318D01*
X130509498Y-67625375D01*
X130453714Y-67630527D01*
X130401356Y-67610602D01*
X130363110Y-67569668D01*
X130272533Y-67412783D01*
X130145872Y-67272112D01*
X130107415Y-67244172D01*
X130066008Y-67191948D01*
X130057618Y-67125831D01*
X130084669Y-67064920D01*
X130139347Y-67026812D01*
X130229303Y-66995335D01*
X130243107Y-66986661D01*
X130243107Y-66986660D01*
X130916891Y-66986660D01*
X130930696Y-66995335D01*
X131100859Y-67054877D01*
X131280000Y-67075062D01*
X131459140Y-67054877D01*
X131629303Y-66995335D01*
X131643107Y-66986661D01*
X131643107Y-66986660D01*
X131280001Y-66623553D01*
X131280000Y-66623553D01*
X130916891Y-66986660D01*
X130243107Y-66986660D01*
X129880001Y-66623553D01*
X129880000Y-66623553D01*
X129488722Y-67014829D01*
X129460209Y-67036121D01*
X129426822Y-67048438D01*
X129260197Y-67083855D01*
X129087272Y-67160847D01*
X129030816Y-67201865D01*
X128934129Y-67272112D01*
X128928401Y-67278473D01*
X128886688Y-67308780D01*
X128836253Y-67319500D01*
X126194500Y-67319500D01*
X126132500Y-67302887D01*
X126087113Y-67257500D01*
X126070500Y-67195500D01*
X126070499Y-66653323D01*
X126060174Y-66552247D01*
X126005908Y-66388484D01*
X125943102Y-66286660D01*
X128816891Y-66286660D01*
X128830696Y-66295335D01*
X129014044Y-66359491D01*
X129013045Y-66362345D01*
X129039301Y-66371515D01*
X129078313Y-66410427D01*
X129087654Y-66436954D01*
X129090509Y-66435956D01*
X129154665Y-66619304D01*
X129163338Y-66633108D01*
X129526447Y-66270001D01*
X129526447Y-66270000D01*
X130233553Y-66270000D01*
X130580000Y-66616447D01*
X130913947Y-66282500D01*
X130901447Y-66270000D01*
X131633553Y-66270000D01*
X131996660Y-66633107D01*
X131996661Y-66633107D01*
X132005335Y-66619303D01*
X132069491Y-66435955D01*
X132072356Y-66436957D01*
X132081572Y-66410608D01*
X132120608Y-66371572D01*
X132146957Y-66362356D01*
X132145955Y-66359491D01*
X132329303Y-66295335D01*
X132343107Y-66286661D01*
X132343107Y-66286660D01*
X131980000Y-65923553D01*
X131633553Y-66270000D01*
X130901447Y-66270000D01*
X130567500Y-65936053D01*
X130233553Y-66270000D01*
X129526447Y-66270000D01*
X129180001Y-65923553D01*
X129180000Y-65923553D01*
X128816891Y-66286660D01*
X125943102Y-66286660D01*
X125915338Y-66241647D01*
X125801018Y-66127327D01*
X125768924Y-66071739D01*
X125768924Y-66007552D01*
X125801018Y-65951964D01*
X125914944Y-65838037D01*
X126005453Y-65691301D01*
X126045648Y-65570000D01*
X128374937Y-65570000D01*
X128395122Y-65749140D01*
X128454665Y-65919304D01*
X128463338Y-65933108D01*
X128826447Y-65570001D01*
X128826447Y-65570000D01*
X129533553Y-65570000D01*
X129867500Y-65903947D01*
X130201447Y-65570000D01*
X130933553Y-65570000D01*
X131280000Y-65916447D01*
X131626446Y-65570001D01*
X132333553Y-65570001D01*
X132696660Y-65933107D01*
X132696661Y-65933107D01*
X132705335Y-65919303D01*
X132764877Y-65749140D01*
X132785062Y-65570000D01*
X132764877Y-65390859D01*
X132705335Y-65220696D01*
X132696660Y-65206891D01*
X132333553Y-65570000D01*
X132333553Y-65570001D01*
X131626446Y-65570001D01*
X131626447Y-65570000D01*
X131280000Y-65223553D01*
X130933553Y-65570000D01*
X130201447Y-65570000D01*
X129867500Y-65236053D01*
X129533553Y-65570000D01*
X128826447Y-65570000D01*
X128463338Y-65206890D01*
X128463338Y-65206891D01*
X128454664Y-65220696D01*
X128395122Y-65390859D01*
X128374937Y-65570000D01*
X126045648Y-65570000D01*
X126059681Y-65527651D01*
X126070000Y-65426647D01*
X126070000Y-65377500D01*
X124204000Y-65377500D01*
X124142000Y-65360887D01*
X124096613Y-65315500D01*
X124080000Y-65253500D01*
X124080000Y-65187500D01*
X123440000Y-65187500D01*
X123440000Y-66224999D01*
X123664979Y-66224999D01*
X123767695Y-66214506D01*
X123934122Y-66159357D01*
X124083342Y-66067318D01*
X124206156Y-65944503D01*
X124261744Y-65912409D01*
X124325931Y-65912409D01*
X124381519Y-65944503D01*
X124388981Y-65951965D01*
X124421075Y-66007552D01*
X124421075Y-66071739D01*
X124388982Y-66127327D01*
X124274660Y-66241649D01*
X124184091Y-66388484D01*
X124129825Y-66552246D01*
X124119500Y-66653323D01*
X124119500Y-67251676D01*
X124129825Y-67352752D01*
X124184091Y-67516515D01*
X124274661Y-67663352D01*
X124396647Y-67785338D01*
X124406271Y-67791274D01*
X124442357Y-67825132D01*
X124462331Y-67870404D01*
X124462599Y-67889915D01*
X124464789Y-67889778D01*
X124469255Y-67960759D01*
X124469500Y-67968545D01*
X124469500Y-67990519D01*
X124453777Y-68050952D01*
X124410595Y-68096059D01*
X124396647Y-68104661D01*
X124274661Y-68226647D01*
X124184091Y-68373484D01*
X124129825Y-68537246D01*
X124119500Y-68638323D01*
X124119500Y-69236676D01*
X124129825Y-69337752D01*
X124184091Y-69501515D01*
X124274661Y-69648352D01*
X124388628Y-69762319D01*
X124420722Y-69817906D01*
X124420722Y-69882094D01*
X124388628Y-69937681D01*
X124274661Y-70051647D01*
X124184091Y-70198484D01*
X124129825Y-70362246D01*
X124119500Y-70463323D01*
X124119500Y-71061676D01*
X124129825Y-71162752D01*
X124184091Y-71326515D01*
X124274661Y-71473352D01*
X124396647Y-71595338D01*
X124543484Y-71685908D01*
X124707246Y-71740174D01*
X124716614Y-71741131D01*
X124808323Y-71750500D01*
X125381676Y-71750499D01*
X125482753Y-71740174D01*
X125646516Y-71685908D01*
X125793350Y-71595340D01*
X125915340Y-71473350D01*
X125931651Y-71446904D01*
X125976759Y-71403723D01*
X126037191Y-71388000D01*
X128155500Y-71388000D01*
X128217500Y-71404613D01*
X128262887Y-71450000D01*
X128279500Y-71512000D01*
X128279500Y-76225813D01*
X128271264Y-76270251D01*
X128247652Y-76308782D01*
X128222321Y-76336916D01*
X128172464Y-76392286D01*
X128076438Y-76558611D01*
X128037942Y-76599713D01*
X127985236Y-76619550D01*
X127929193Y-76614030D01*
X127881370Y-76584292D01*
X126232262Y-74935184D01*
X126199850Y-74914818D01*
X126188510Y-74906772D01*
X126158586Y-74882908D01*
X126124095Y-74866298D01*
X126111933Y-74859576D01*
X126096327Y-74849770D01*
X126079520Y-74839209D01*
X126043398Y-74826570D01*
X126030553Y-74821250D01*
X125996058Y-74804638D01*
X125986904Y-74802549D01*
X125937185Y-74778605D01*
X125902778Y-74735460D01*
X125890499Y-74681659D01*
X125890499Y-73687130D01*
X125890499Y-73687127D01*
X125884091Y-73627517D01*
X125833796Y-73492669D01*
X125747546Y-73377454D01*
X125632331Y-73291204D01*
X125497483Y-73240909D01*
X125437873Y-73234500D01*
X125437869Y-73234500D01*
X123742130Y-73234500D01*
X123682515Y-73240909D01*
X123547669Y-73291204D01*
X123432454Y-73377454D01*
X123346202Y-73492671D01*
X123306180Y-73599974D01*
X123272531Y-73649184D01*
X123219806Y-73677004D01*
X123160191Y-73677004D01*
X123107466Y-73649183D01*
X123073818Y-73599974D01*
X123033796Y-73492669D01*
X122947546Y-73377454D01*
X122832331Y-73291204D01*
X122697483Y-73240909D01*
X122637873Y-73234500D01*
X122637869Y-73234500D01*
X120942130Y-73234500D01*
X120882515Y-73240909D01*
X120794921Y-73273580D01*
X120747669Y-73291204D01*
X120698309Y-73328154D01*
X120635053Y-73352393D01*
X120568496Y-73339771D01*
X120518505Y-73294054D01*
X120500000Y-73228887D01*
X120500000Y-65187500D01*
X122015001Y-65187500D01*
X122015001Y-65524979D01*
X122025493Y-65627695D01*
X122080642Y-65794122D01*
X122172683Y-65943345D01*
X122296654Y-66067316D01*
X122445877Y-66159357D01*
X122612303Y-66214506D01*
X122715021Y-66225000D01*
X122940000Y-66225000D01*
X122940000Y-65187500D01*
X122015001Y-65187500D01*
X120500000Y-65187500D01*
X120500000Y-64687500D01*
X122015000Y-64687500D01*
X122940000Y-64687500D01*
X122940000Y-63650001D01*
X122715021Y-63650001D01*
X122612304Y-63660493D01*
X122445877Y-63715642D01*
X122296654Y-63807683D01*
X122172683Y-63931654D01*
X122080642Y-64080877D01*
X122025493Y-64247303D01*
X122015000Y-64350021D01*
X122015000Y-64687500D01*
X120500000Y-64687500D01*
X120500000Y-63650000D01*
X123440000Y-63650000D01*
X123440000Y-64687500D01*
X124281000Y-64687500D01*
X124343000Y-64704113D01*
X124388387Y-64749500D01*
X124405000Y-64811500D01*
X124405000Y-64877500D01*
X124845000Y-64877500D01*
X124845000Y-64140001D01*
X124808353Y-64140001D01*
X124707349Y-64150318D01*
X124543695Y-64204547D01*
X124508322Y-64226366D01*
X124455827Y-64244185D01*
X124400815Y-64237349D01*
X124354279Y-64207224D01*
X124325520Y-64159831D01*
X124318949Y-64140000D01*
X125345000Y-64140000D01*
X125345000Y-64877500D01*
X126069999Y-64877500D01*
X126069999Y-64870000D01*
X128833553Y-64870000D01*
X129180000Y-65216447D01*
X129526447Y-64870000D01*
X130233553Y-64870000D01*
X130567500Y-65203947D01*
X130901447Y-64870000D01*
X131633553Y-64870000D01*
X131980000Y-65216447D01*
X132326447Y-64870000D01*
X131980000Y-64523553D01*
X131633553Y-64870000D01*
X130901447Y-64870000D01*
X130567500Y-64536053D01*
X130233553Y-64870000D01*
X129526447Y-64870000D01*
X129180000Y-64523553D01*
X128833553Y-64870000D01*
X126069999Y-64870000D01*
X126069999Y-64828353D01*
X126059681Y-64727349D01*
X126005453Y-64563698D01*
X125914943Y-64416959D01*
X125793040Y-64295056D01*
X125646301Y-64204546D01*
X125482651Y-64150318D01*
X125381647Y-64140000D01*
X125345000Y-64140000D01*
X124318949Y-64140000D01*
X124299357Y-64080877D01*
X124207316Y-63931654D01*
X124083345Y-63807683D01*
X123934122Y-63715642D01*
X123767696Y-63660493D01*
X123664979Y-63650000D01*
X123440000Y-63650000D01*
X120500000Y-63650000D01*
X120500000Y-56124000D01*
X120516613Y-56062000D01*
X120562000Y-56016613D01*
X120624000Y-56000000D01*
X127450692Y-56000000D01*
X127506987Y-56013515D01*
G37*
%TD.AperFunction*%
%TA.AperFunction,Conductor*%
G36*
X138618000Y-70171613D02*
G01*
X138663387Y-70217000D01*
X138680000Y-70279000D01*
X138680000Y-71392499D01*
X138716647Y-71392499D01*
X138817650Y-71382181D01*
X138911496Y-71351084D01*
X138969363Y-71346233D01*
X139023093Y-71368260D01*
X139060903Y-71412334D01*
X139074500Y-71468790D01*
X139074500Y-72420500D01*
X139057887Y-72482500D01*
X139012500Y-72527887D01*
X138950500Y-72544500D01*
X138517500Y-72544500D01*
X138084499Y-72544500D01*
X138022500Y-72527888D01*
X137977113Y-72482501D01*
X137960500Y-72420501D01*
X137960500Y-72202718D01*
X137977113Y-72140718D01*
X137987179Y-72123284D01*
X138045674Y-71943256D01*
X138065460Y-71755000D01*
X138045674Y-71566744D01*
X138041797Y-71554814D01*
X138037257Y-71497101D01*
X138059412Y-71443614D01*
X138103436Y-71406015D01*
X138159730Y-71392500D01*
X138180000Y-71392500D01*
X138180000Y-70279000D01*
X138196613Y-70217000D01*
X138242000Y-70171613D01*
X138304000Y-70155000D01*
X138556000Y-70155000D01*
X138618000Y-70171613D01*
G37*
%TD.AperFunction*%
%TA.AperFunction,Conductor*%
G36*
X138769437Y-60544127D02*
G01*
X138785199Y-60551145D01*
X138970352Y-60590500D01*
X138970354Y-60590500D01*
X139029548Y-60590500D01*
X139077001Y-60599939D01*
X139117229Y-60626819D01*
X139673181Y-61182772D01*
X139700061Y-61223000D01*
X139709500Y-61270453D01*
X139709500Y-62611814D01*
X139691227Y-62676605D01*
X139641793Y-62722300D01*
X139575767Y-62735431D01*
X139530683Y-62718796D01*
X139529636Y-62721149D01*
X139344802Y-62638855D01*
X139159648Y-62599500D01*
X139159646Y-62599500D01*
X138970354Y-62599500D01*
X138970352Y-62599500D01*
X138785197Y-62638855D01*
X138612269Y-62715848D01*
X138459129Y-62827110D01*
X138332466Y-62967783D01*
X138237820Y-63131715D01*
X138179326Y-63311742D01*
X138159540Y-63500000D01*
X138179326Y-63688257D01*
X138237820Y-63868284D01*
X138332466Y-64032216D01*
X138459129Y-64172889D01*
X138612269Y-64284151D01*
X138785197Y-64361144D01*
X138976281Y-64401760D01*
X139026842Y-64425336D01*
X139061950Y-64468692D01*
X139074500Y-64523050D01*
X139074500Y-67515684D01*
X139060903Y-67572140D01*
X139023093Y-67616214D01*
X138969362Y-67638241D01*
X138911498Y-67633390D01*
X138824314Y-67604500D01*
X138817751Y-67602325D01*
X138728176Y-67593174D01*
X138716677Y-67592000D01*
X138716676Y-67592000D01*
X138716674Y-67592000D01*
X138544499Y-67592000D01*
X138482500Y-67575388D01*
X138437113Y-67530001D01*
X138420500Y-67468001D01*
X138420500Y-67295808D01*
X138429939Y-67248355D01*
X138456819Y-67208127D01*
X138456819Y-67208126D01*
X138463081Y-67201865D01*
X138546744Y-67060398D01*
X138592598Y-66902569D01*
X138595500Y-66865694D01*
X138595500Y-65084306D01*
X138592598Y-65047431D01*
X138546744Y-64889602D01*
X138463081Y-64748135D01*
X138346865Y-64631919D01*
X138346864Y-64631918D01*
X138205397Y-64548255D01*
X138047572Y-64502402D01*
X138025443Y-64500660D01*
X138010694Y-64499500D01*
X137579306Y-64499500D01*
X137567014Y-64500467D01*
X137542427Y-64502402D01*
X137384602Y-64548255D01*
X137229652Y-64639893D01*
X137228721Y-64638319D01*
X137192094Y-64659467D01*
X137127906Y-64659467D01*
X137091278Y-64638319D01*
X137090348Y-64639893D01*
X136935397Y-64548255D01*
X136777572Y-64502402D01*
X136755443Y-64500660D01*
X136740694Y-64499500D01*
X136309306Y-64499500D01*
X136297014Y-64500467D01*
X136272427Y-64502402D01*
X136114602Y-64548255D01*
X136067621Y-64576040D01*
X136005474Y-64593304D01*
X135943063Y-64577018D01*
X135897275Y-64531589D01*
X135880500Y-64469308D01*
X135880500Y-64198687D01*
X135888736Y-64154249D01*
X135912347Y-64115717D01*
X135987533Y-64032216D01*
X136011411Y-63990859D01*
X136082179Y-63868284D01*
X136090984Y-63841186D01*
X136140674Y-63688256D01*
X136160460Y-63500000D01*
X136140674Y-63311744D01*
X136110332Y-63218363D01*
X136082179Y-63131715D01*
X135987533Y-62967783D01*
X135860870Y-62827110D01*
X135707730Y-62715848D01*
X135641608Y-62686408D01*
X135594383Y-62649538D01*
X135569958Y-62594830D01*
X135574034Y-62535055D01*
X135605660Y-62484169D01*
X135657448Y-62454053D01*
X135665398Y-62451744D01*
X135806865Y-62368081D01*
X135806865Y-62368080D01*
X135820348Y-62360107D01*
X135821278Y-62361680D01*
X135857906Y-62340533D01*
X135922094Y-62340533D01*
X135958721Y-62361680D01*
X135959652Y-62360107D01*
X136114602Y-62451744D01*
X136272427Y-62497597D01*
X136272431Y-62497598D01*
X136309306Y-62500500D01*
X136740692Y-62500500D01*
X136740694Y-62500500D01*
X136777569Y-62497598D01*
X136935398Y-62451744D01*
X137029543Y-62396066D01*
X137090349Y-62360107D01*
X137091213Y-62361569D01*
X137128254Y-62340182D01*
X137192444Y-62340179D01*
X137229020Y-62361296D01*
X137229960Y-62359709D01*
X137384799Y-62451280D01*
X137542511Y-62497099D01*
X137544999Y-62497295D01*
X137545000Y-62497295D01*
X137545000Y-61275000D01*
X138045000Y-61275000D01*
X138045000Y-62497295D01*
X138047488Y-62497099D01*
X138205200Y-62451280D01*
X138346557Y-62367682D01*
X138462682Y-62251557D01*
X138546282Y-62110197D01*
X138592099Y-61952493D01*
X138595000Y-61915639D01*
X138595000Y-61275000D01*
X138045000Y-61275000D01*
X137545000Y-61275000D01*
X137545000Y-60899000D01*
X137561613Y-60837000D01*
X137607000Y-60791613D01*
X137669000Y-60775000D01*
X138595000Y-60775000D01*
X138595000Y-60657406D01*
X138610027Y-60598238D01*
X138651465Y-60553410D01*
X138709272Y-60533788D01*
X138769437Y-60544127D01*
G37*
%TD.AperFunction*%
%TA.AperFunction,Conductor*%
G36*
X143438000Y-56016613D02*
G01*
X143483387Y-56062000D01*
X143500000Y-56124000D01*
X143500000Y-57295500D01*
X143483387Y-57357500D01*
X143438000Y-57402887D01*
X143376000Y-57419500D01*
X142327130Y-57419500D01*
X142267515Y-57425909D01*
X142132668Y-57476204D01*
X142132669Y-57476204D01*
X142017454Y-57562454D01*
X141931204Y-57677669D01*
X141919265Y-57709681D01*
X141917716Y-57713833D01*
X141891277Y-57756070D01*
X141850347Y-57784488D01*
X141801534Y-57794500D01*
X141280452Y-57794500D01*
X141232999Y-57785061D01*
X141192771Y-57758181D01*
X141021334Y-57586744D01*
X140835802Y-57401211D01*
X140822906Y-57385113D01*
X140771775Y-57337098D01*
X140768978Y-57334387D01*
X140749470Y-57314879D01*
X140746290Y-57312412D01*
X140737424Y-57304839D01*
X140705582Y-57274938D01*
X140688024Y-57265285D01*
X140671764Y-57254604D01*
X140655936Y-57242327D01*
X140615851Y-57224980D01*
X140605361Y-57219841D01*
X140567091Y-57198802D01*
X140547691Y-57193821D01*
X140529284Y-57187519D01*
X140510897Y-57179562D01*
X140467758Y-57172729D01*
X140456324Y-57170361D01*
X140414019Y-57159500D01*
X140393984Y-57159500D01*
X140374586Y-57157973D01*
X140367162Y-57156797D01*
X140354805Y-57154840D01*
X140354804Y-57154840D01*
X140321751Y-57157964D01*
X140311325Y-57158950D01*
X140299656Y-57159500D01*
X136354500Y-57159500D01*
X136292500Y-57142887D01*
X136247113Y-57097500D01*
X136230500Y-57035500D01*
X136230499Y-56573323D01*
X136220174Y-56472247D01*
X136165908Y-56308485D01*
X136165908Y-56308484D01*
X136092268Y-56189095D01*
X136073838Y-56126705D01*
X136089531Y-56063568D01*
X136135029Y-56017067D01*
X136197808Y-56000000D01*
X143376000Y-56000000D01*
X143438000Y-56016613D01*
G37*
%TD.AperFunction*%
M02*
