%TF.GenerationSoftware,KiCad,Pcbnew,7.0.5-7.0.5~ubuntu22.04.1*%
%TF.CreationDate,2023-06-28T22:22:45+02:00*%
%TF.ProjectId,BatMon,4261744d-6f6e-42e6-9b69-6361645f7063,rev?*%
%TF.SameCoordinates,Original*%
%TF.FileFunction,Copper,L4,Bot*%
%TF.FilePolarity,Positive*%
%FSLAX46Y46*%
G04 Gerber Fmt 4.6, Leading zero omitted, Abs format (unit mm)*
G04 Created by KiCad (PCBNEW 7.0.5-7.0.5~ubuntu22.04.1) date 2023-06-28 22:22:45*
%MOMM*%
%LPD*%
G01*
G04 APERTURE LIST*
G04 Aperture macros list*
%AMRoundRect*
0 Rectangle with rounded corners*
0 $1 Rounding radius*
0 $2 $3 $4 $5 $6 $7 $8 $9 X,Y pos of 4 corners*
0 Add a 4 corners polygon primitive as box body*
4,1,4,$2,$3,$4,$5,$6,$7,$8,$9,$2,$3,0*
0 Add four circle primitives for the rounded corners*
1,1,$1+$1,$2,$3*
1,1,$1+$1,$4,$5*
1,1,$1+$1,$6,$7*
1,1,$1+$1,$8,$9*
0 Add four rect primitives between the rounded corners*
20,1,$1+$1,$2,$3,$4,$5,0*
20,1,$1+$1,$4,$5,$6,$7,0*
20,1,$1+$1,$6,$7,$8,$9,0*
20,1,$1+$1,$8,$9,$2,$3,0*%
G04 Aperture macros list end*
%TA.AperFunction,ComponentPad*%
%ADD10RoundRect,0.400000X3.100000X-0.400000X3.100000X0.400000X-3.100000X0.400000X-3.100000X-0.400000X0*%
%TD*%
%TA.AperFunction,ComponentPad*%
%ADD11RoundRect,0.400000X2.600000X-0.400000X2.600000X0.400000X-2.600000X0.400000X-2.600000X-0.400000X0*%
%TD*%
%TA.AperFunction,HeatsinkPad*%
%ADD12C,0.600000*%
%TD*%
%TA.AperFunction,ComponentPad*%
%ADD13R,1.000000X1.000000*%
%TD*%
%TA.AperFunction,ComponentPad*%
%ADD14O,1.000000X1.000000*%
%TD*%
%TA.AperFunction,ComponentPad*%
%ADD15RoundRect,0.250000X-0.600000X-0.725000X0.600000X-0.725000X0.600000X0.725000X-0.600000X0.725000X0*%
%TD*%
%TA.AperFunction,ComponentPad*%
%ADD16O,1.700000X1.950000*%
%TD*%
%TA.AperFunction,SMDPad,CuDef*%
%ADD17RoundRect,0.150000X0.587500X0.150000X-0.587500X0.150000X-0.587500X-0.150000X0.587500X-0.150000X0*%
%TD*%
%TA.AperFunction,SMDPad,CuDef*%
%ADD18RoundRect,0.237500X-0.237500X0.250000X-0.237500X-0.250000X0.237500X-0.250000X0.237500X0.250000X0*%
%TD*%
%TA.AperFunction,SMDPad,CuDef*%
%ADD19RoundRect,0.237500X0.237500X-0.250000X0.237500X0.250000X-0.237500X0.250000X-0.237500X-0.250000X0*%
%TD*%
%TA.AperFunction,SMDPad,CuDef*%
%ADD20RoundRect,0.237500X0.300000X0.237500X-0.300000X0.237500X-0.300000X-0.237500X0.300000X-0.237500X0*%
%TD*%
%TA.AperFunction,SMDPad,CuDef*%
%ADD21R,2.500000X2.500000*%
%TD*%
%TA.AperFunction,SMDPad,CuDef*%
%ADD22RoundRect,0.250000X-0.425000X0.537500X-0.425000X-0.537500X0.425000X-0.537500X0.425000X0.537500X0*%
%TD*%
%TA.AperFunction,SMDPad,CuDef*%
%ADD23R,1.600000X1.200000*%
%TD*%
%TA.AperFunction,SMDPad,CuDef*%
%ADD24RoundRect,0.150000X-0.150000X0.587500X-0.150000X-0.587500X0.150000X-0.587500X0.150000X0.587500X0*%
%TD*%
%TA.AperFunction,SMDPad,CuDef*%
%ADD25RoundRect,0.237500X-0.300000X-0.237500X0.300000X-0.237500X0.300000X0.237500X-0.300000X0.237500X0*%
%TD*%
%TA.AperFunction,SMDPad,CuDef*%
%ADD26RoundRect,0.237500X0.250000X0.237500X-0.250000X0.237500X-0.250000X-0.237500X0.250000X-0.237500X0*%
%TD*%
%TA.AperFunction,SMDPad,CuDef*%
%ADD27RoundRect,0.225000X0.375000X-0.225000X0.375000X0.225000X-0.375000X0.225000X-0.375000X-0.225000X0*%
%TD*%
%TA.AperFunction,SMDPad,CuDef*%
%ADD28RoundRect,0.125000X0.275000X0.125000X-0.275000X0.125000X-0.275000X-0.125000X0.275000X-0.125000X0*%
%TD*%
%TA.AperFunction,SMDPad,CuDef*%
%ADD29RoundRect,0.150000X-0.150000X0.825000X-0.150000X-0.825000X0.150000X-0.825000X0.150000X0.825000X0*%
%TD*%
%TA.AperFunction,ViaPad*%
%ADD30C,0.800000*%
%TD*%
%TA.AperFunction,Conductor*%
%ADD31C,0.600000*%
%TD*%
%TA.AperFunction,Conductor*%
%ADD32C,0.250000*%
%TD*%
%TA.AperFunction,Conductor*%
%ADD33C,0.500000*%
%TD*%
G04 APERTURE END LIST*
D10*
X148500000Y-72650000D03*
X148500000Y-75190000D03*
D11*
X148000000Y-77730000D03*
X148000000Y-80270000D03*
X148000000Y-82810000D03*
X148000000Y-85350000D03*
D12*
X129180000Y-64170000D03*
X129180000Y-65570000D03*
X129880000Y-63470000D03*
X129880000Y-64870000D03*
X129880000Y-66270000D03*
X130555000Y-64170000D03*
X130555000Y-65570000D03*
X131280000Y-63470000D03*
X131280000Y-64870000D03*
X131280000Y-66270000D03*
X131980000Y-64170000D03*
X131980000Y-65570000D03*
D13*
X142875000Y-58420000D03*
D14*
X142875000Y-59690000D03*
X142875000Y-60960000D03*
X142875000Y-62230000D03*
X142875000Y-63500000D03*
X142875000Y-64770000D03*
D15*
X123230000Y-84455000D03*
D16*
X125730000Y-84455000D03*
X128230000Y-84455000D03*
D17*
X128572500Y-56835000D03*
X128572500Y-58735000D03*
X126697500Y-57785000D03*
D18*
X138430000Y-68580000D03*
X138430000Y-70405000D03*
D19*
X125095000Y-66952500D03*
X125095000Y-65127500D03*
D20*
X132715000Y-68580000D03*
X130990000Y-68580000D03*
D21*
X138120000Y-74295000D03*
X138120000Y-81295000D03*
X131120000Y-81295000D03*
X131120000Y-74295000D03*
D17*
X128572500Y-60330000D03*
X128572500Y-62230000D03*
X126697500Y-61280000D03*
D19*
X125095000Y-70762500D03*
X125095000Y-68937500D03*
D22*
X123190000Y-62062500D03*
X123190000Y-64937500D03*
D23*
X124590000Y-79335000D03*
X124590000Y-76835000D03*
X124590000Y-74335000D03*
X121790000Y-79335000D03*
X121790000Y-76835000D03*
X121790000Y-74335000D03*
D18*
X134620000Y-68580000D03*
X134620000Y-70405000D03*
D24*
X138115000Y-84787500D03*
X140015000Y-84787500D03*
X139065000Y-86662500D03*
D25*
X140637500Y-79000000D03*
X142362500Y-79000000D03*
D26*
X132715000Y-70485000D03*
X130890000Y-70485000D03*
D27*
X135890000Y-87375000D03*
X135890000Y-84075000D03*
D19*
X130810000Y-60348500D03*
X130810000Y-58523500D03*
X133350000Y-86637500D03*
X133350000Y-84812500D03*
D28*
X143500000Y-80480000D03*
X143500000Y-81280000D03*
X143500000Y-82080000D03*
X143500000Y-82880000D03*
X141700000Y-82880000D03*
X141700000Y-82080000D03*
X141700000Y-81280000D03*
X141700000Y-80480000D03*
D18*
X135255000Y-56872500D03*
X135255000Y-58697500D03*
D19*
X123190000Y-59967500D03*
X123190000Y-58142500D03*
D18*
X136525000Y-68580000D03*
X136525000Y-70405000D03*
D29*
X133985000Y-61025000D03*
X135255000Y-61025000D03*
X136525000Y-61025000D03*
X137795000Y-61025000D03*
X137795000Y-65975000D03*
X136525000Y-65975000D03*
X135255000Y-65975000D03*
X133985000Y-65975000D03*
D30*
X133985000Y-63500000D03*
X140335000Y-80645000D03*
X130175000Y-86360000D03*
X137160000Y-71755000D03*
X125095000Y-58420000D03*
X128905000Y-76924500D03*
X130810000Y-76835000D03*
X139065000Y-59690000D03*
X142875000Y-74930000D03*
X139065000Y-63500000D03*
X125095000Y-59690000D03*
X134620000Y-73025000D03*
X135255000Y-63500000D03*
X125730000Y-67945000D03*
X126365000Y-73025000D03*
X137795000Y-63500000D03*
X121285000Y-61595000D03*
X140970000Y-75565000D03*
X142875000Y-57150000D03*
X125095000Y-57150000D03*
X140335000Y-81915000D03*
X125730000Y-64135000D03*
X138430000Y-71755000D03*
X126365000Y-80645000D03*
X130810000Y-83820000D03*
X127000000Y-63500000D03*
D31*
X123467500Y-58420000D02*
X123190000Y-58142500D01*
X140335000Y-79665000D02*
X140335000Y-80645000D01*
X137160000Y-73335000D02*
X137160000Y-71755000D01*
X138120000Y-74295000D02*
X137160000Y-73335000D01*
X125095000Y-58420000D02*
X123467500Y-58420000D01*
X140637500Y-79000000D02*
X140637500Y-79362500D01*
X133985000Y-67310000D02*
X132715000Y-68580000D01*
X140637500Y-79362500D02*
X140335000Y-79665000D01*
X134365000Y-88900000D02*
X135890000Y-87375000D01*
X131445000Y-88900000D02*
X134365000Y-88900000D01*
X133985000Y-65975000D02*
X133985000Y-67310000D01*
X130175000Y-86360000D02*
X130175000Y-87630000D01*
X133985000Y-65975000D02*
X133985000Y-63500000D01*
X130175000Y-87630000D02*
X131445000Y-88900000D01*
X139065000Y-86662500D02*
X139065000Y-82240000D01*
X138120000Y-81845000D02*
X135890000Y-84075000D01*
X139065000Y-82240000D02*
X138120000Y-81295000D01*
X138120000Y-81295000D02*
X138120000Y-81845000D01*
D32*
X130612500Y-70762500D02*
X128905000Y-70762500D01*
X128905000Y-76924500D02*
X128905000Y-70762500D01*
X130890000Y-70485000D02*
X130612500Y-70762500D01*
X128905000Y-70762500D02*
X125095000Y-70762500D01*
X130810000Y-76835000D02*
X132397500Y-76835000D01*
X132397500Y-76835000D02*
X133350000Y-75882500D01*
X136525000Y-70975000D02*
X136525000Y-70405000D01*
X135745000Y-71755000D02*
X136525000Y-70975000D01*
X133985000Y-71755000D02*
X135745000Y-71755000D01*
X133350000Y-72390000D02*
X133985000Y-71755000D01*
X133350000Y-75882500D02*
X133350000Y-72390000D01*
X140335000Y-72390000D02*
X140335000Y-60960000D01*
D33*
X144250000Y-81280000D02*
X145260000Y-80270000D01*
D32*
X140335000Y-60960000D02*
X139065000Y-59690000D01*
D33*
X145260000Y-80270000D02*
X146000000Y-80270000D01*
D32*
X142875000Y-74930000D02*
X140335000Y-72390000D01*
D33*
X143500000Y-81280000D02*
X144250000Y-81280000D01*
X144145000Y-80010000D02*
X144145000Y-78740000D01*
X143500000Y-80480000D02*
X143675000Y-80480000D01*
X146000000Y-77730000D02*
X145155000Y-77730000D01*
D32*
X146000000Y-77730000D02*
X141230000Y-77730000D01*
D33*
X144145000Y-78740000D02*
X145155000Y-77730000D01*
D32*
X139700000Y-64135000D02*
X139065000Y-63500000D01*
X141230000Y-77730000D02*
X139700000Y-76200000D01*
D33*
X143675000Y-80480000D02*
X144145000Y-80010000D01*
D32*
X139700000Y-76200000D02*
X139700000Y-64135000D01*
X125095000Y-59690000D02*
X123467500Y-59690000D01*
X123467500Y-59690000D02*
X123190000Y-59967500D01*
X123190000Y-62062500D02*
X123190000Y-59967500D01*
X125095000Y-59690000D02*
X125730000Y-59690000D01*
X125730000Y-59690000D02*
X126697500Y-58722500D01*
X126697500Y-58722500D02*
X126697500Y-57785000D01*
X132715000Y-59690000D02*
X133707500Y-58697500D01*
X133707500Y-58697500D02*
X139977500Y-58697500D01*
X131445000Y-62230000D02*
X132715000Y-60960000D01*
X139977500Y-58697500D02*
X140970000Y-59690000D01*
X132715000Y-60960000D02*
X132715000Y-59690000D01*
X128572500Y-62230000D02*
X131445000Y-62230000D01*
X140970000Y-59690000D02*
X142875000Y-59690000D01*
X138097500Y-84787500D02*
X138115000Y-84787500D01*
X134262500Y-85725000D02*
X137160000Y-85725000D01*
X137160000Y-85725000D02*
X138097500Y-84787500D01*
X133350000Y-86637500D02*
X134262500Y-85725000D01*
X135725000Y-69300000D02*
X135725000Y-67475000D01*
X134620000Y-70405000D02*
X135725000Y-69300000D01*
X134540000Y-70485000D02*
X134620000Y-70405000D01*
X136525000Y-66675000D02*
X136525000Y-65975000D01*
X135725000Y-67475000D02*
X136525000Y-66675000D01*
X132715000Y-70485000D02*
X134540000Y-70485000D01*
X135255000Y-74930000D02*
X135255000Y-73660000D01*
X133350000Y-84812500D02*
X135255000Y-82907500D01*
X135255000Y-82907500D02*
X135255000Y-74930000D01*
X135255000Y-73660000D02*
X134620000Y-73025000D01*
X137795000Y-67945000D02*
X138430000Y-68580000D01*
X137795000Y-65975000D02*
X137795000Y-67945000D01*
X138430000Y-68580000D02*
X136525000Y-68580000D01*
X135255000Y-63500000D02*
X135255000Y-67945000D01*
X135255000Y-67945000D02*
X134620000Y-68580000D01*
X125095000Y-67945000D02*
X125095000Y-66952500D01*
X125095000Y-67945000D02*
X125730000Y-67945000D01*
X125095000Y-68937500D02*
X125095000Y-67945000D01*
D31*
X141700000Y-82080000D02*
X141535000Y-81915000D01*
X125095000Y-65127500D02*
X123380000Y-65127500D01*
X140335000Y-83185000D02*
X140335000Y-81915000D01*
X125730000Y-64492500D02*
X125095000Y-65127500D01*
X140015000Y-83505000D02*
X140335000Y-83185000D01*
X137795000Y-61025000D02*
X137795000Y-63500000D01*
X141700000Y-80300000D02*
X142362500Y-79637500D01*
X142362500Y-79637500D02*
X142362500Y-79000000D01*
X125730000Y-64135000D02*
X125730000Y-64492500D01*
X130990000Y-68580000D02*
X130990000Y-66560000D01*
X141535000Y-81915000D02*
X140335000Y-81915000D01*
X141700000Y-80480000D02*
X141700000Y-80300000D01*
X123380000Y-65127500D02*
X123190000Y-64937500D01*
X141700000Y-82880000D02*
X141700000Y-80480000D01*
X130990000Y-66560000D02*
X131280000Y-66270000D01*
X140015000Y-84787500D02*
X140015000Y-83505000D01*
X138430000Y-71755000D02*
X138430000Y-70405000D01*
X121790000Y-79335000D02*
X121790000Y-81150000D01*
X121790000Y-81150000D02*
X123190000Y-82550000D01*
D33*
X144145000Y-83185000D02*
X144145000Y-84455000D01*
X143500000Y-82880000D02*
X143840000Y-82880000D01*
X145040000Y-85350000D02*
X146000000Y-85350000D01*
X143840000Y-82880000D02*
X144145000Y-83185000D01*
X144145000Y-84455000D02*
X145040000Y-85350000D01*
D31*
X123190000Y-84415000D02*
X123230000Y-84455000D01*
X123190000Y-82550000D02*
X123190000Y-84415000D01*
D33*
X145040000Y-82810000D02*
X146000000Y-82810000D01*
D31*
X124590000Y-79335000D02*
X124590000Y-80775000D01*
D33*
X143500000Y-82080000D02*
X144310000Y-82080000D01*
X144310000Y-82080000D02*
X145040000Y-82810000D01*
D31*
X124590000Y-80775000D02*
X125730000Y-81915000D01*
X125730000Y-81915000D02*
X125730000Y-84455000D01*
X126365000Y-80645000D02*
X126365000Y-78610000D01*
X126365000Y-78610000D02*
X124590000Y-76835000D01*
X132715000Y-83820000D02*
X130810000Y-83820000D01*
X128905000Y-78740000D02*
X132715000Y-78740000D01*
X121920000Y-76835000D02*
X121790000Y-76835000D01*
X133985000Y-82550000D02*
X132715000Y-83820000D01*
X125730000Y-75565000D02*
X128905000Y-78740000D01*
X123190000Y-75565000D02*
X121920000Y-76835000D01*
X133985000Y-80010000D02*
X133985000Y-82550000D01*
X132715000Y-78740000D02*
X133985000Y-80010000D01*
X125730000Y-75565000D02*
X123190000Y-75565000D01*
D32*
X131548500Y-57785000D02*
X130810000Y-58523500D01*
X140335000Y-57785000D02*
X131548500Y-57785000D01*
X140970000Y-58420000D02*
X140335000Y-57785000D01*
X142875000Y-58420000D02*
X140970000Y-58420000D01*
X130810000Y-58777500D02*
X128615000Y-58777500D01*
X128615000Y-58777500D02*
X128572500Y-58735000D01*
X135255000Y-56872500D02*
X128610000Y-56872500D01*
X128610000Y-56872500D02*
X128572500Y-56835000D01*
X128572500Y-60330000D02*
X130537500Y-60330000D01*
X130537500Y-60330000D02*
X130810000Y-60602500D01*
X127000000Y-61582500D02*
X126697500Y-61280000D01*
X127000000Y-63500000D02*
X127000000Y-61582500D01*
%TA.AperFunction,Conductor*%
G36*
X127343682Y-78313707D02*
G01*
X127361162Y-78328240D01*
X128275184Y-79242262D01*
X128402738Y-79369816D01*
X128431285Y-79387753D01*
X128438089Y-79392028D01*
X128443765Y-79396055D01*
X128476411Y-79422090D01*
X128476412Y-79422091D01*
X128497548Y-79432269D01*
X128514035Y-79440208D01*
X128520112Y-79443567D01*
X128537635Y-79454577D01*
X128555477Y-79465789D01*
X128594891Y-79479581D01*
X128601320Y-79482244D01*
X128638941Y-79500361D01*
X128679641Y-79509650D01*
X128686328Y-79511576D01*
X128725742Y-79525367D01*
X128725745Y-79525368D01*
X128767241Y-79530043D01*
X128774093Y-79531207D01*
X128814806Y-79540500D01*
X128860046Y-79540500D01*
X129374742Y-79540500D01*
X129441781Y-79560185D01*
X129487536Y-79612989D01*
X129497480Y-79682147D01*
X129474008Y-79738810D01*
X129452322Y-79767778D01*
X129426204Y-79802668D01*
X129426202Y-79802671D01*
X129375908Y-79937517D01*
X129369501Y-79997116D01*
X129369500Y-79997135D01*
X129369500Y-82592870D01*
X129369501Y-82592876D01*
X129375908Y-82652483D01*
X129426202Y-82787328D01*
X129426206Y-82787335D01*
X129512452Y-82902544D01*
X129512455Y-82902547D01*
X129627664Y-82988793D01*
X129627671Y-82988797D01*
X129637742Y-82992553D01*
X129762517Y-83039091D01*
X129822127Y-83045500D01*
X130017113Y-83045499D01*
X130084151Y-83065183D01*
X130129906Y-83117987D01*
X130139850Y-83187145D01*
X130110825Y-83250701D01*
X130109263Y-83252470D01*
X130077466Y-83287785D01*
X129982821Y-83451715D01*
X129982818Y-83451722D01*
X129924730Y-83630500D01*
X129924326Y-83631744D01*
X129904540Y-83820000D01*
X129924326Y-84008256D01*
X129926292Y-84014309D01*
X129982818Y-84188277D01*
X129982821Y-84188284D01*
X130077467Y-84352216D01*
X130163449Y-84447708D01*
X130204129Y-84492888D01*
X130357265Y-84604148D01*
X130357270Y-84604151D01*
X130530192Y-84681142D01*
X130530197Y-84681144D01*
X130715354Y-84720500D01*
X130715355Y-84720500D01*
X130904644Y-84720500D01*
X130904646Y-84720500D01*
X131089803Y-84681144D01*
X131149980Y-84654351D01*
X131201931Y-84631221D01*
X131252367Y-84620500D01*
X132250500Y-84620500D01*
X132317539Y-84640185D01*
X132363294Y-84692989D01*
X132374500Y-84744500D01*
X132374500Y-85111669D01*
X132374501Y-85111687D01*
X132384825Y-85212752D01*
X132411738Y-85293967D01*
X132439092Y-85376516D01*
X132529660Y-85523350D01*
X132624415Y-85618105D01*
X132643629Y-85637319D01*
X132677113Y-85698642D01*
X132672129Y-85768334D01*
X132643629Y-85812681D01*
X132529659Y-85926651D01*
X132439093Y-86073481D01*
X132439091Y-86073486D01*
X132438759Y-86074488D01*
X132384826Y-86237247D01*
X132384826Y-86237248D01*
X132384825Y-86237248D01*
X132374500Y-86338315D01*
X132374500Y-86936669D01*
X132374501Y-86936687D01*
X132384825Y-87037752D01*
X132405998Y-87101647D01*
X132439092Y-87201516D01*
X132529660Y-87348350D01*
X132651650Y-87470340D01*
X132798484Y-87560908D01*
X132962247Y-87615174D01*
X133063323Y-87625500D01*
X133636676Y-87625499D01*
X133636684Y-87625498D01*
X133636687Y-87625498D01*
X133692030Y-87619844D01*
X133737753Y-87615174D01*
X133901516Y-87560908D01*
X134048350Y-87470340D01*
X134170340Y-87348350D01*
X134260908Y-87201516D01*
X134315174Y-87037753D01*
X134325500Y-86936677D01*
X134325499Y-86597952D01*
X134345183Y-86530914D01*
X134361813Y-86510277D01*
X134485273Y-86386817D01*
X134546595Y-86353334D01*
X134572953Y-86350500D01*
X134991985Y-86350500D01*
X135059024Y-86370185D01*
X135104779Y-86422989D01*
X135114723Y-86492147D01*
X135085698Y-86555703D01*
X135066923Y-86571666D01*
X135067623Y-86572551D01*
X135061955Y-86577032D01*
X134942032Y-86696955D01*
X134942029Y-86696959D01*
X134853001Y-86841294D01*
X134852996Y-86841305D01*
X134799651Y-87002290D01*
X134789500Y-87101647D01*
X134789500Y-87292060D01*
X134769815Y-87359099D01*
X134753181Y-87379741D01*
X134069741Y-88063181D01*
X134008418Y-88096666D01*
X133982060Y-88099500D01*
X131827940Y-88099500D01*
X131760901Y-88079815D01*
X131740259Y-88063181D01*
X131011819Y-87334741D01*
X130978334Y-87273418D01*
X130975500Y-87247060D01*
X130975500Y-86807718D01*
X130992112Y-86745720D01*
X131002179Y-86728284D01*
X131060674Y-86548256D01*
X131080460Y-86360000D01*
X131060674Y-86171744D01*
X131002179Y-85991716D01*
X130907533Y-85827784D01*
X130780871Y-85687112D01*
X130780870Y-85687111D01*
X130627734Y-85575851D01*
X130627729Y-85575848D01*
X130454807Y-85498857D01*
X130454802Y-85498855D01*
X130309001Y-85467865D01*
X130269646Y-85459500D01*
X130080354Y-85459500D01*
X130047897Y-85466398D01*
X129895197Y-85498855D01*
X129895192Y-85498857D01*
X129722270Y-85575848D01*
X129722265Y-85575851D01*
X129569129Y-85687111D01*
X129442466Y-85827785D01*
X129347821Y-85991715D01*
X129347818Y-85991722D01*
X129289327Y-86171740D01*
X129289326Y-86171744D01*
X129275466Y-86303617D01*
X129270539Y-86350499D01*
X129269540Y-86360000D01*
X129289326Y-86548256D01*
X129289327Y-86548259D01*
X129347818Y-86728277D01*
X129347819Y-86728279D01*
X129347821Y-86728284D01*
X129357887Y-86745720D01*
X129374500Y-86807718D01*
X129374500Y-87720191D01*
X129374501Y-87720200D01*
X129383791Y-87760908D01*
X129384955Y-87767763D01*
X129389632Y-87809259D01*
X129403420Y-87848662D01*
X129405345Y-87855345D01*
X129414639Y-87896061D01*
X129432759Y-87933688D01*
X129435421Y-87940114D01*
X129449212Y-87979525D01*
X129471422Y-88014872D01*
X129474787Y-88020959D01*
X129492910Y-88058589D01*
X129518940Y-88091229D01*
X129522966Y-88096904D01*
X129545182Y-88132259D01*
X129545184Y-88132262D01*
X129577173Y-88164251D01*
X129577174Y-88164252D01*
X130815184Y-89402262D01*
X130942738Y-89529816D01*
X130978089Y-89552028D01*
X130983765Y-89556055D01*
X131016411Y-89582090D01*
X131016412Y-89582091D01*
X131037548Y-89592269D01*
X131054035Y-89600208D01*
X131060112Y-89603567D01*
X131077635Y-89614577D01*
X131095477Y-89625789D01*
X131134891Y-89639581D01*
X131141320Y-89642244D01*
X131178941Y-89660361D01*
X131219641Y-89669650D01*
X131226328Y-89671576D01*
X131265742Y-89685367D01*
X131265745Y-89685368D01*
X131307241Y-89690043D01*
X131314093Y-89691207D01*
X131354806Y-89700500D01*
X131354808Y-89700500D01*
X134455194Y-89700500D01*
X134495903Y-89691208D01*
X134502760Y-89690043D01*
X134544255Y-89685368D01*
X134583680Y-89671571D01*
X134590321Y-89669658D01*
X134631061Y-89660360D01*
X134668693Y-89642236D01*
X134675105Y-89639580D01*
X134714522Y-89625789D01*
X134749889Y-89603565D01*
X134755961Y-89600209D01*
X134793587Y-89582091D01*
X134826236Y-89556052D01*
X134831895Y-89552037D01*
X134867262Y-89529816D01*
X134994816Y-89402262D01*
X134994816Y-89402261D01*
X136035258Y-88361817D01*
X136096581Y-88328333D01*
X136122939Y-88325499D01*
X136313338Y-88325499D01*
X136313344Y-88325499D01*
X136313352Y-88325498D01*
X136313355Y-88325498D01*
X136367760Y-88319940D01*
X136412708Y-88315349D01*
X136573697Y-88262003D01*
X136718044Y-88172968D01*
X136837968Y-88053044D01*
X136927003Y-87908697D01*
X136980349Y-87747708D01*
X136990500Y-87648345D01*
X136990499Y-87101656D01*
X136980349Y-87002292D01*
X136927003Y-86841303D01*
X136926999Y-86841297D01*
X136926998Y-86841294D01*
X136837970Y-86696959D01*
X136837967Y-86696955D01*
X136718044Y-86577032D01*
X136712377Y-86572551D01*
X136714159Y-86570297D01*
X136676199Y-86528103D01*
X136664970Y-86459142D01*
X136692806Y-86395057D01*
X136750871Y-86356194D01*
X136788015Y-86350500D01*
X137077257Y-86350500D01*
X137092877Y-86352224D01*
X137092904Y-86351939D01*
X137100666Y-86352673D01*
X137100666Y-86352672D01*
X137100667Y-86352673D01*
X137103999Y-86352568D01*
X137168847Y-86350531D01*
X137170794Y-86350500D01*
X137199347Y-86350500D01*
X137199350Y-86350500D01*
X137206228Y-86349630D01*
X137212041Y-86349172D01*
X137258627Y-86347709D01*
X137277869Y-86342117D01*
X137296912Y-86338174D01*
X137316792Y-86335664D01*
X137360122Y-86318507D01*
X137365646Y-86316617D01*
X137369396Y-86315527D01*
X137410390Y-86303618D01*
X137427629Y-86293422D01*
X137445103Y-86284862D01*
X137463727Y-86277488D01*
X137463727Y-86277487D01*
X137463732Y-86277486D01*
X137501449Y-86250082D01*
X137506305Y-86246892D01*
X137546420Y-86223170D01*
X137560589Y-86208999D01*
X137575379Y-86196368D01*
X137591587Y-86184594D01*
X137621299Y-86148676D01*
X137625212Y-86144376D01*
X137721126Y-86048462D01*
X137782447Y-86014979D01*
X137843400Y-86017068D01*
X137862431Y-86022598D01*
X137899306Y-86025500D01*
X138140500Y-86025500D01*
X138207539Y-86045185D01*
X138253294Y-86097989D01*
X138264500Y-86149500D01*
X138264500Y-87315701D01*
X138267401Y-87352567D01*
X138267402Y-87352573D01*
X138313254Y-87510393D01*
X138313255Y-87510396D01*
X138396917Y-87651862D01*
X138396923Y-87651870D01*
X138513129Y-87768076D01*
X138513133Y-87768079D01*
X138513135Y-87768081D01*
X138654602Y-87851744D01*
X138666997Y-87855345D01*
X138812426Y-87897597D01*
X138812429Y-87897597D01*
X138812431Y-87897598D01*
X138849306Y-87900500D01*
X138849314Y-87900500D01*
X139280686Y-87900500D01*
X139280694Y-87900500D01*
X139317569Y-87897598D01*
X139317571Y-87897597D01*
X139317573Y-87897597D01*
X139359191Y-87885505D01*
X139475398Y-87851744D01*
X139616865Y-87768081D01*
X139733081Y-87651865D01*
X139816744Y-87510398D01*
X139862598Y-87352569D01*
X139865500Y-87315694D01*
X139865500Y-86009306D01*
X139865500Y-85037500D01*
X140265000Y-85037500D01*
X140265000Y-86022295D01*
X140265001Y-86022295D01*
X140267486Y-86022100D01*
X140425198Y-85976281D01*
X140566552Y-85892685D01*
X140566561Y-85892678D01*
X140682678Y-85776561D01*
X140682685Y-85776552D01*
X140766282Y-85635196D01*
X140766283Y-85635193D01*
X140812099Y-85477495D01*
X140812100Y-85477489D01*
X140814999Y-85440649D01*
X140815000Y-85440634D01*
X140815000Y-85037500D01*
X140265000Y-85037500D01*
X139865500Y-85037500D01*
X139865500Y-83552703D01*
X140265000Y-83552703D01*
X140265000Y-84537500D01*
X140815000Y-84537500D01*
X140815000Y-84134365D01*
X140814999Y-84134350D01*
X140812100Y-84097510D01*
X140812099Y-84097504D01*
X140766283Y-83939806D01*
X140766282Y-83939803D01*
X140682685Y-83798447D01*
X140682678Y-83798438D01*
X140566561Y-83682321D01*
X140566552Y-83682314D01*
X140465722Y-83622684D01*
X141310868Y-83622684D01*
X141326446Y-83627210D01*
X141326452Y-83627211D01*
X141361881Y-83629999D01*
X141361894Y-83630000D01*
X142038106Y-83630000D01*
X142038118Y-83629999D01*
X142073546Y-83627211D01*
X142089129Y-83622683D01*
X141700001Y-83233553D01*
X141700000Y-83233553D01*
X141310868Y-83622683D01*
X141310868Y-83622684D01*
X140465722Y-83622684D01*
X140425196Y-83598717D01*
X140425193Y-83598716D01*
X140267494Y-83552900D01*
X140267497Y-83552900D01*
X140265000Y-83552703D01*
X139865500Y-83552703D01*
X139865500Y-82642698D01*
X139865856Y-82636066D01*
X139870499Y-82592881D01*
X139870500Y-82592873D01*
X139870499Y-81614853D01*
X139890183Y-81547815D01*
X139942987Y-81502060D01*
X140012146Y-81492116D01*
X140044933Y-81501574D01*
X140055197Y-81506144D01*
X140240354Y-81545500D01*
X140240355Y-81545500D01*
X140429644Y-81545500D01*
X140429646Y-81545500D01*
X140614803Y-81506144D01*
X140625563Y-81501352D01*
X140652070Y-81489552D01*
X140721320Y-81480267D01*
X140784597Y-81509895D01*
X140821582Y-81568235D01*
X140844002Y-81645403D01*
X140844002Y-81714594D01*
X140802789Y-81856446D01*
X140802788Y-81856452D01*
X140800000Y-81891881D01*
X140800000Y-82268118D01*
X140802788Y-82303547D01*
X140844002Y-82445406D01*
X140844002Y-82514594D01*
X140802788Y-82656452D01*
X140800000Y-82691881D01*
X140800000Y-83068118D01*
X140802788Y-83103547D01*
X140802789Y-83103553D01*
X140846843Y-83255185D01*
X140846844Y-83255188D01*
X140893079Y-83333367D01*
X141612318Y-82614128D01*
X141673641Y-82580643D01*
X141743332Y-82585627D01*
X141787680Y-82614128D01*
X142506919Y-83333367D01*
X142519994Y-83331715D01*
X142544045Y-83309260D01*
X142612786Y-83296756D01*
X142677376Y-83323401D01*
X142706440Y-83356943D01*
X142726827Y-83391416D01*
X142726834Y-83391425D01*
X142838574Y-83503165D01*
X142838578Y-83503168D01*
X142838580Y-83503170D01*
X142974610Y-83583618D01*
X143126373Y-83627709D01*
X143161837Y-83630500D01*
X143270500Y-83630499D01*
X143337539Y-83650183D01*
X143383294Y-83702987D01*
X143394500Y-83754499D01*
X143394500Y-84391294D01*
X143393191Y-84409263D01*
X143389710Y-84433025D01*
X143394264Y-84485064D01*
X143394500Y-84490470D01*
X143394500Y-84498712D01*
X143398202Y-84530391D01*
X143398386Y-84532185D01*
X143405000Y-84607792D01*
X143406461Y-84614867D01*
X143406403Y-84614878D01*
X143408034Y-84622237D01*
X143408092Y-84622224D01*
X143409757Y-84629249D01*
X143409758Y-84629254D01*
X143409759Y-84629255D01*
X143432955Y-84692989D01*
X143435708Y-84700551D01*
X143436299Y-84702253D01*
X143460182Y-84774326D01*
X143463236Y-84780874D01*
X143463182Y-84780898D01*
X143466470Y-84787688D01*
X143466521Y-84787663D01*
X143469761Y-84794113D01*
X143469762Y-84794114D01*
X143469763Y-84794117D01*
X143511494Y-84857567D01*
X143512443Y-84859058D01*
X143552289Y-84923657D01*
X143556766Y-84929319D01*
X143556719Y-84929356D01*
X143561482Y-84935202D01*
X143561528Y-84935164D01*
X143566173Y-84940699D01*
X143621365Y-84992770D01*
X143622659Y-84994027D01*
X144464269Y-85835637D01*
X144476044Y-85849261D01*
X144490390Y-85868530D01*
X144490391Y-85868531D01*
X144490442Y-85868599D01*
X144510755Y-85910556D01*
X144554680Y-86074488D01*
X144571408Y-86107318D01*
X144640614Y-86243146D01*
X144681331Y-86293426D01*
X144759743Y-86390257D01*
X144802031Y-86424501D01*
X144906853Y-86509385D01*
X144990371Y-86551938D01*
X145075512Y-86595320D01*
X145258355Y-86644312D01*
X145336979Y-86650500D01*
X150663020Y-86650499D01*
X150741645Y-86644312D01*
X150924488Y-86595320D01*
X151056409Y-86528103D01*
X151093146Y-86509385D01*
X151093147Y-86509383D01*
X151093149Y-86509383D01*
X151240257Y-86390257D01*
X151279635Y-86341629D01*
X151337121Y-86301919D01*
X151406952Y-86299591D01*
X151466956Y-86335387D01*
X151498082Y-86397940D01*
X151500000Y-86419666D01*
X151500000Y-86876000D01*
X151480315Y-86943039D01*
X151427511Y-86988794D01*
X151376000Y-87000000D01*
X143500000Y-87000000D01*
X143500000Y-89876000D01*
X143480315Y-89943039D01*
X143427511Y-89988794D01*
X143376000Y-90000000D01*
X120624000Y-90000000D01*
X120556961Y-89980315D01*
X120511206Y-89927511D01*
X120500000Y-89876000D01*
X120500000Y-80441113D01*
X120519685Y-80374074D01*
X120572489Y-80328319D01*
X120641647Y-80318375D01*
X120698311Y-80341846D01*
X120747665Y-80378793D01*
X120747668Y-80378795D01*
X120747671Y-80378797D01*
X120882517Y-80429091D01*
X120890062Y-80430874D01*
X120889524Y-80433150D01*
X120943289Y-80455410D01*
X120983147Y-80512796D01*
X120989499Y-80551975D01*
X120989500Y-81059805D01*
X120989500Y-81240191D01*
X120989501Y-81240200D01*
X120998791Y-81280908D01*
X120999955Y-81287763D01*
X121004632Y-81329259D01*
X121018420Y-81368662D01*
X121020345Y-81375345D01*
X121029639Y-81416061D01*
X121047759Y-81453688D01*
X121050421Y-81460114D01*
X121064212Y-81499525D01*
X121086422Y-81534872D01*
X121089787Y-81540959D01*
X121107910Y-81578589D01*
X121133940Y-81611229D01*
X121137966Y-81616904D01*
X121160182Y-81652259D01*
X121160184Y-81652262D01*
X122350786Y-82842864D01*
X122384271Y-82904187D01*
X122379287Y-82973879D01*
X122337415Y-83029812D01*
X122315511Y-83042926D01*
X122310673Y-83045181D01*
X122161342Y-83137289D01*
X122037289Y-83261342D01*
X121945187Y-83410663D01*
X121945185Y-83410668D01*
X121929194Y-83458926D01*
X121890001Y-83577203D01*
X121890001Y-83577204D01*
X121890000Y-83577204D01*
X121879500Y-83679983D01*
X121879500Y-85230001D01*
X121879501Y-85230018D01*
X121890000Y-85332796D01*
X121890001Y-85332799D01*
X121935894Y-85471294D01*
X121945186Y-85499334D01*
X122037288Y-85648656D01*
X122161344Y-85772712D01*
X122310666Y-85864814D01*
X122477203Y-85919999D01*
X122579991Y-85930500D01*
X123880008Y-85930499D01*
X123982797Y-85919999D01*
X124149334Y-85864814D01*
X124298656Y-85772712D01*
X124422712Y-85648656D01*
X124514814Y-85499334D01*
X124514814Y-85499331D01*
X124518178Y-85493879D01*
X124570126Y-85447154D01*
X124639088Y-85435931D01*
X124703170Y-85463774D01*
X124711398Y-85471294D01*
X124858599Y-85618495D01*
X124901675Y-85648657D01*
X125052165Y-85754032D01*
X125052167Y-85754033D01*
X125052170Y-85754035D01*
X125266337Y-85853903D01*
X125494592Y-85915063D01*
X125671034Y-85930500D01*
X125729999Y-85935659D01*
X125730000Y-85935659D01*
X125730001Y-85935659D01*
X125788966Y-85930500D01*
X125965408Y-85915063D01*
X126193663Y-85853903D01*
X126407829Y-85754035D01*
X126601401Y-85618495D01*
X126768495Y-85451401D01*
X126878732Y-85293965D01*
X126933306Y-85250342D01*
X127002805Y-85243148D01*
X127065159Y-85274670D01*
X127081880Y-85293967D01*
X127191886Y-85451073D01*
X127191891Y-85451079D01*
X127358917Y-85618105D01*
X127552421Y-85753600D01*
X127766507Y-85853429D01*
X127766516Y-85853433D01*
X127980000Y-85910634D01*
X127979999Y-84863018D01*
X128094801Y-84915446D01*
X128196025Y-84930000D01*
X128263975Y-84930000D01*
X128365199Y-84915446D01*
X128479999Y-84863018D01*
X128479999Y-85910633D01*
X128693483Y-85853433D01*
X128693492Y-85853429D01*
X128907577Y-85753600D01*
X128907579Y-85753599D01*
X129101073Y-85618113D01*
X129101079Y-85618108D01*
X129268108Y-85451079D01*
X129268113Y-85451073D01*
X129403599Y-85257579D01*
X129403600Y-85257577D01*
X129503429Y-85043492D01*
X129503433Y-85043483D01*
X129564567Y-84815326D01*
X129564569Y-84815316D01*
X129574221Y-84705000D01*
X128633969Y-84705000D01*
X128666519Y-84654351D01*
X128705000Y-84523295D01*
X128705000Y-84386705D01*
X128666519Y-84255649D01*
X128633969Y-84205000D01*
X129574221Y-84205000D01*
X129564569Y-84094683D01*
X129564567Y-84094673D01*
X129503433Y-83866516D01*
X129503429Y-83866507D01*
X129403600Y-83652422D01*
X129403599Y-83652420D01*
X129268113Y-83458926D01*
X129268108Y-83458920D01*
X129101082Y-83291894D01*
X128907578Y-83156399D01*
X128693492Y-83056570D01*
X128693486Y-83056567D01*
X128480000Y-82999364D01*
X128479999Y-82999364D01*
X128479999Y-84046981D01*
X128365199Y-83994554D01*
X128263975Y-83980000D01*
X128196025Y-83980000D01*
X128094801Y-83994554D01*
X127979999Y-84046981D01*
X127979999Y-82999364D01*
X127766513Y-83056567D01*
X127766507Y-83056570D01*
X127552422Y-83156399D01*
X127552420Y-83156400D01*
X127358926Y-83291886D01*
X127358920Y-83291891D01*
X127191891Y-83458920D01*
X127191890Y-83458922D01*
X127081880Y-83616032D01*
X127027303Y-83659657D01*
X126957804Y-83666849D01*
X126895450Y-83635327D01*
X126878730Y-83616031D01*
X126768494Y-83458597D01*
X126601404Y-83291508D01*
X126601401Y-83291505D01*
X126583374Y-83278882D01*
X126539751Y-83224306D01*
X126530500Y-83177309D01*
X126530500Y-82504610D01*
X126530500Y-81870046D01*
X126530500Y-81870045D01*
X126530500Y-81824805D01*
X126521203Y-81784076D01*
X126520044Y-81777251D01*
X126515368Y-81735745D01*
X126501574Y-81696324D01*
X126499652Y-81689655D01*
X126494429Y-81666770D01*
X126498702Y-81597033D01*
X126540001Y-81540676D01*
X126589536Y-81517891D01*
X126644803Y-81506144D01*
X126817730Y-81429151D01*
X126970871Y-81317888D01*
X127097533Y-81177216D01*
X127192179Y-81013284D01*
X127250674Y-80833256D01*
X127270460Y-80645000D01*
X127250674Y-80456744D01*
X127192179Y-80276716D01*
X127192178Y-80276715D01*
X127192178Y-80276713D01*
X127182112Y-80259277D01*
X127165500Y-80197279D01*
X127165500Y-78519807D01*
X127165500Y-78519806D01*
X127156207Y-78479093D01*
X127155044Y-78472247D01*
X127150368Y-78430745D01*
X127150367Y-78430744D01*
X127150262Y-78429805D01*
X127162317Y-78360983D01*
X127209666Y-78309604D01*
X127277276Y-78291980D01*
X127343682Y-78313707D01*
G37*
%TD.AperFunction*%
%TA.AperFunction,Conductor*%
G36*
X142555539Y-78769685D02*
G01*
X142601294Y-78822489D01*
X142612500Y-78874000D01*
X142612500Y-79876088D01*
X142610895Y-79876088D01*
X142611543Y-79896386D01*
X142612500Y-79896386D01*
X142612500Y-79899319D01*
X142611720Y-79901972D01*
X142612249Y-79918531D01*
X142606783Y-79934852D01*
X142603064Y-79943832D01*
X142599823Y-79942489D01*
X142592815Y-79966358D01*
X142540011Y-80012113D01*
X142518094Y-80015456D01*
X141787680Y-80745871D01*
X141726357Y-80779356D01*
X141656665Y-80774372D01*
X141612318Y-80745871D01*
X141434127Y-80567680D01*
X141400642Y-80506357D01*
X141405626Y-80436665D01*
X141434127Y-80392318D01*
X142112500Y-79713945D01*
X142112500Y-78874000D01*
X142132185Y-78806961D01*
X142184989Y-78761206D01*
X142236500Y-78750000D01*
X142488500Y-78750000D01*
X142555539Y-78769685D01*
G37*
%TD.AperFunction*%
%TA.AperFunction,Conductor*%
G36*
X140883179Y-60315624D02*
G01*
X140883179Y-60315500D01*
X140890981Y-60315500D01*
X140911016Y-60315500D01*
X140930413Y-60317026D01*
X140950196Y-60320160D01*
X140996583Y-60315775D01*
X141002422Y-60315500D01*
X141878156Y-60315500D01*
X141945195Y-60335185D01*
X141990950Y-60387989D01*
X142000894Y-60457147D01*
X141987514Y-60497953D01*
X141946188Y-60575267D01*
X141946186Y-60575272D01*
X141946186Y-60575273D01*
X141934533Y-60613687D01*
X141888975Y-60763870D01*
X141869659Y-60960000D01*
X141888975Y-61156129D01*
X141888976Y-61156132D01*
X141943690Y-61336500D01*
X141946188Y-61344733D01*
X142039086Y-61518532D01*
X142042473Y-61523601D01*
X142040836Y-61524694D01*
X142064596Y-61580663D01*
X142052795Y-61649529D01*
X142042109Y-61666156D01*
X142042473Y-61666399D01*
X142039086Y-61671467D01*
X141946188Y-61845266D01*
X141888975Y-62033870D01*
X141869659Y-62230000D01*
X141888975Y-62426129D01*
X141888976Y-62426132D01*
X141945302Y-62611814D01*
X141946188Y-62614733D01*
X142039086Y-62788532D01*
X142042473Y-62793601D01*
X142040955Y-62794615D01*
X142064918Y-62851042D01*
X142053124Y-62919909D01*
X142042515Y-62936420D01*
X142042893Y-62936673D01*
X142039505Y-62941742D01*
X141946652Y-63115458D01*
X141905839Y-63249999D01*
X141905840Y-63250000D01*
X142660517Y-63250000D01*
X142589199Y-63334993D01*
X142550000Y-63442694D01*
X142550000Y-63557306D01*
X142589199Y-63665007D01*
X142660517Y-63750000D01*
X141905840Y-63750000D01*
X141946652Y-63884541D01*
X142039503Y-64058253D01*
X142042890Y-64063322D01*
X142041215Y-64064440D01*
X142064918Y-64120259D01*
X142053123Y-64189125D01*
X142042158Y-64206188D01*
X142042473Y-64206399D01*
X142039086Y-64211467D01*
X141946188Y-64385266D01*
X141888975Y-64573870D01*
X141869659Y-64770000D01*
X141888975Y-64966129D01*
X141888976Y-64966132D01*
X141924821Y-65084298D01*
X141946188Y-65154733D01*
X142039086Y-65328532D01*
X142039090Y-65328539D01*
X142164116Y-65480883D01*
X142316460Y-65605909D01*
X142316467Y-65605913D01*
X142490266Y-65698811D01*
X142490269Y-65698811D01*
X142490273Y-65698814D01*
X142678868Y-65756024D01*
X142875000Y-65775341D01*
X143071132Y-65756024D01*
X143259727Y-65698814D01*
X143317546Y-65667908D01*
X143385948Y-65653666D01*
X143451192Y-65678665D01*
X143492563Y-65734969D01*
X143500000Y-65777265D01*
X143500000Y-71000000D01*
X151376487Y-71030737D01*
X151443446Y-71050683D01*
X151488995Y-71103665D01*
X151500000Y-71154736D01*
X151500000Y-71226000D01*
X151480315Y-71293039D01*
X151427511Y-71338794D01*
X151376000Y-71350000D01*
X148750000Y-71350000D01*
X148750000Y-72776000D01*
X148730315Y-72843039D01*
X148677511Y-72888794D01*
X148626000Y-72900000D01*
X146166111Y-72900000D01*
X146205610Y-72875543D01*
X146273201Y-72786038D01*
X146303895Y-72678160D01*
X146293546Y-72566479D01*
X146243552Y-72466078D01*
X146171069Y-72400000D01*
X148250000Y-72400000D01*
X148250000Y-71350000D01*
X145337012Y-71350000D01*
X145258436Y-71356184D01*
X145258435Y-71356184D01*
X145075692Y-71405150D01*
X144907126Y-71491037D01*
X144907124Y-71491038D01*
X144760099Y-71610099D01*
X144641038Y-71757124D01*
X144641037Y-71757126D01*
X144555150Y-71925692D01*
X144506184Y-72108435D01*
X144506184Y-72108436D01*
X144500001Y-72187000D01*
X144500000Y-72187024D01*
X144500000Y-72400000D01*
X145833889Y-72400000D01*
X145794390Y-72424457D01*
X145726799Y-72513962D01*
X145696105Y-72621840D01*
X145706454Y-72733521D01*
X145756448Y-72833922D01*
X145828931Y-72900000D01*
X144500000Y-72900000D01*
X144500000Y-73112987D01*
X144506184Y-73191563D01*
X144506184Y-73191564D01*
X144555150Y-73374307D01*
X144641037Y-73542873D01*
X144641038Y-73542875D01*
X144760099Y-73689900D01*
X144907124Y-73808961D01*
X144907127Y-73808963D01*
X144907663Y-73809236D01*
X144907916Y-73809475D01*
X144912574Y-73812500D01*
X144912020Y-73813351D01*
X144958458Y-73857212D01*
X144975251Y-73925033D01*
X144952711Y-73991168D01*
X144911932Y-74026503D01*
X144912304Y-74027075D01*
X144908189Y-74029747D01*
X144907668Y-74030199D01*
X144906858Y-74030611D01*
X144906855Y-74030613D01*
X144759743Y-74149743D01*
X144640614Y-74296853D01*
X144554680Y-74465512D01*
X144505687Y-74648356D01*
X144505687Y-74648357D01*
X144499500Y-74726973D01*
X144499500Y-75653010D01*
X144499501Y-75653029D01*
X144505687Y-75731643D01*
X144531547Y-75828153D01*
X144554680Y-75914488D01*
X144558550Y-75922083D01*
X144640614Y-76083146D01*
X144679485Y-76131147D01*
X144759743Y-76230257D01*
X144891458Y-76336918D01*
X144906855Y-76349386D01*
X144907114Y-76349518D01*
X144907237Y-76349634D01*
X144912304Y-76352925D01*
X144911702Y-76353851D01*
X144957908Y-76397495D01*
X144974700Y-76465317D01*
X144952159Y-76531451D01*
X144911850Y-76566377D01*
X144912304Y-76567075D01*
X144907281Y-76570336D01*
X144907114Y-76570482D01*
X144906855Y-76570613D01*
X144759743Y-76689743D01*
X144640614Y-76836853D01*
X144554679Y-77005513D01*
X144552783Y-77012591D01*
X144516420Y-77072252D01*
X144453573Y-77102783D01*
X144433008Y-77104500D01*
X141540452Y-77104500D01*
X141473413Y-77084815D01*
X141452771Y-77068181D01*
X140361819Y-75977228D01*
X140328334Y-75915905D01*
X140325500Y-75889547D01*
X140325500Y-73564452D01*
X140345185Y-73497413D01*
X140397989Y-73451658D01*
X140467147Y-73441714D01*
X140530703Y-73470739D01*
X140537179Y-73476769D01*
X141317520Y-74257111D01*
X141936038Y-74875629D01*
X141969523Y-74936952D01*
X141971678Y-74950348D01*
X141975280Y-74984615D01*
X141989326Y-75118256D01*
X141989327Y-75118259D01*
X142047818Y-75298277D01*
X142047821Y-75298284D01*
X142142467Y-75462216D01*
X142183680Y-75507987D01*
X142269129Y-75602888D01*
X142422265Y-75714148D01*
X142422270Y-75714151D01*
X142595192Y-75791142D01*
X142595197Y-75791144D01*
X142780354Y-75830500D01*
X142780355Y-75830500D01*
X142969644Y-75830500D01*
X142969646Y-75830500D01*
X143154803Y-75791144D01*
X143327730Y-75714151D01*
X143480871Y-75602888D01*
X143607533Y-75462216D01*
X143702179Y-75298284D01*
X143760674Y-75118256D01*
X143780460Y-74930000D01*
X143760674Y-74741744D01*
X143702179Y-74561716D01*
X143607533Y-74397784D01*
X143480871Y-74257112D01*
X143480870Y-74257111D01*
X143327734Y-74145851D01*
X143327729Y-74145848D01*
X143154807Y-74068857D01*
X143154802Y-74068855D01*
X143009001Y-74037865D01*
X142969646Y-74029500D01*
X142969645Y-74029500D01*
X142910453Y-74029500D01*
X142843414Y-74009815D01*
X142822772Y-73993181D01*
X140996819Y-72167228D01*
X140963334Y-72105905D01*
X140960500Y-72079547D01*
X140960500Y-61042737D01*
X140962224Y-61027123D01*
X140961938Y-61027096D01*
X140962672Y-61019333D01*
X140960531Y-60951171D01*
X140960500Y-60949224D01*
X140960500Y-60920651D01*
X140960500Y-60920650D01*
X140959629Y-60913759D01*
X140959172Y-60907945D01*
X140957709Y-60861372D01*
X140952122Y-60842144D01*
X140948174Y-60823084D01*
X140945664Y-60803208D01*
X140928507Y-60759875D01*
X140926619Y-60754359D01*
X140913619Y-60709612D01*
X140903418Y-60692363D01*
X140894860Y-60674894D01*
X140887486Y-60656268D01*
X140887483Y-60656264D01*
X140887483Y-60656263D01*
X140860098Y-60618571D01*
X140856890Y-60613687D01*
X140833172Y-60573582D01*
X140833163Y-60573571D01*
X140819005Y-60559413D01*
X140806370Y-60544620D01*
X140794596Y-60528415D01*
X140790541Y-60524097D01*
X140759001Y-60461752D01*
X140766174Y-60392251D01*
X140809783Y-60337662D01*
X140875983Y-60315315D01*
X140883179Y-60315624D01*
G37*
%TD.AperFunction*%
%TA.AperFunction,Conductor*%
G36*
X127517730Y-56019685D02*
G01*
X127563485Y-56072489D01*
X127573429Y-56141647D01*
X127544404Y-56205203D01*
X127538372Y-56211681D01*
X127466923Y-56283129D01*
X127466917Y-56283137D01*
X127383255Y-56424603D01*
X127383254Y-56424606D01*
X127337402Y-56582426D01*
X127337401Y-56582432D01*
X127334500Y-56619298D01*
X127334500Y-56860500D01*
X127314815Y-56927539D01*
X127262011Y-56973294D01*
X127210500Y-56984500D01*
X126044298Y-56984500D01*
X126007432Y-56987401D01*
X126007426Y-56987402D01*
X125849606Y-57033254D01*
X125849603Y-57033255D01*
X125708137Y-57116917D01*
X125708129Y-57116923D01*
X125591923Y-57233129D01*
X125591917Y-57233137D01*
X125508255Y-57374603D01*
X125508254Y-57374604D01*
X125482223Y-57464204D01*
X125444616Y-57523089D01*
X125381143Y-57552295D01*
X125337367Y-57550898D01*
X125189647Y-57519500D01*
X125189646Y-57519500D01*
X125000354Y-57519500D01*
X124983469Y-57523089D01*
X124815197Y-57558855D01*
X124815192Y-57558857D01*
X124703069Y-57608779D01*
X124652633Y-57619500D01*
X124195414Y-57619500D01*
X124128375Y-57599815D01*
X124089875Y-57560597D01*
X124064526Y-57519500D01*
X124010340Y-57431650D01*
X123888350Y-57309660D01*
X123764287Y-57233137D01*
X123741518Y-57219093D01*
X123741513Y-57219091D01*
X123740069Y-57218612D01*
X123577753Y-57164826D01*
X123577751Y-57164825D01*
X123476678Y-57154500D01*
X122903330Y-57154500D01*
X122903312Y-57154501D01*
X122802247Y-57164825D01*
X122638484Y-57219092D01*
X122638481Y-57219093D01*
X122491648Y-57309661D01*
X122369661Y-57431648D01*
X122279093Y-57578481D01*
X122279091Y-57578486D01*
X122261161Y-57632597D01*
X122224826Y-57742247D01*
X122224826Y-57742248D01*
X122224825Y-57742248D01*
X122214500Y-57843315D01*
X122214500Y-58441669D01*
X122214501Y-58441687D01*
X122224825Y-58542752D01*
X122238991Y-58585500D01*
X122279092Y-58706516D01*
X122369660Y-58853350D01*
X122440061Y-58923751D01*
X122483629Y-58967319D01*
X122517113Y-59028642D01*
X122512129Y-59098334D01*
X122483629Y-59142681D01*
X122369659Y-59256651D01*
X122279093Y-59403481D01*
X122279091Y-59403486D01*
X122259583Y-59462358D01*
X122224826Y-59567247D01*
X122224826Y-59567248D01*
X122224825Y-59567248D01*
X122214500Y-59668315D01*
X122214500Y-60266669D01*
X122214501Y-60266687D01*
X122224825Y-60367752D01*
X122255974Y-60461752D01*
X122278064Y-60528415D01*
X122279092Y-60531515D01*
X122279093Y-60531518D01*
X122306078Y-60575267D01*
X122367523Y-60674886D01*
X122369661Y-60678351D01*
X122387860Y-60696550D01*
X122421345Y-60757873D01*
X122416361Y-60827565D01*
X122374489Y-60883498D01*
X122365277Y-60889769D01*
X122296344Y-60932287D01*
X122172289Y-61056342D01*
X122080187Y-61205663D01*
X122080185Y-61205668D01*
X122057211Y-61275000D01*
X122025001Y-61372203D01*
X122025001Y-61372204D01*
X122025000Y-61372204D01*
X122014500Y-61474983D01*
X122014500Y-62650001D01*
X122014501Y-62650018D01*
X122025000Y-62752796D01*
X122025001Y-62752799D01*
X122080185Y-62919331D01*
X122080187Y-62919336D01*
X122090725Y-62936420D01*
X122172288Y-63068656D01*
X122296344Y-63192712D01*
X122445666Y-63284814D01*
X122612203Y-63339999D01*
X122714991Y-63350500D01*
X123665008Y-63350499D01*
X123665016Y-63350498D01*
X123665019Y-63350498D01*
X123721302Y-63344748D01*
X123767797Y-63339999D01*
X123934334Y-63284814D01*
X124083656Y-63192712D01*
X124207712Y-63068656D01*
X124299814Y-62919334D01*
X124354999Y-62752797D01*
X124365500Y-62650009D01*
X124365499Y-61474992D01*
X124354999Y-61372203D01*
X124299814Y-61205666D01*
X124207712Y-61056344D01*
X124083656Y-60932288D01*
X124083652Y-60932285D01*
X124014723Y-60889769D01*
X123967998Y-60837821D01*
X123956777Y-60768859D01*
X123984620Y-60704777D01*
X123992130Y-60696559D01*
X124010340Y-60678350D01*
X124100908Y-60531516D01*
X124144323Y-60400496D01*
X124184097Y-60343051D01*
X124248613Y-60316228D01*
X124262030Y-60315500D01*
X124391252Y-60315500D01*
X124458291Y-60335185D01*
X124483400Y-60356526D01*
X124489126Y-60362885D01*
X124489130Y-60362889D01*
X124642265Y-60474148D01*
X124642270Y-60474151D01*
X124815192Y-60551142D01*
X124815197Y-60551144D01*
X125000354Y-60590500D01*
X125000355Y-60590500D01*
X125189644Y-60590500D01*
X125189646Y-60590500D01*
X125374803Y-60551144D01*
X125473996Y-60506979D01*
X125543244Y-60497694D01*
X125606521Y-60527322D01*
X125643735Y-60586457D01*
X125643071Y-60656323D01*
X125612114Y-60707939D01*
X125591921Y-60728132D01*
X125591917Y-60728137D01*
X125508255Y-60869603D01*
X125508254Y-60869606D01*
X125462402Y-61027426D01*
X125462401Y-61027432D01*
X125459500Y-61064298D01*
X125459500Y-61495701D01*
X125462401Y-61532567D01*
X125462402Y-61532573D01*
X125508254Y-61690393D01*
X125508255Y-61690396D01*
X125591917Y-61831862D01*
X125591923Y-61831870D01*
X125708129Y-61948076D01*
X125708133Y-61948079D01*
X125708135Y-61948081D01*
X125849602Y-62031744D01*
X125856913Y-62033868D01*
X126007426Y-62077597D01*
X126007429Y-62077597D01*
X126007431Y-62077598D01*
X126044306Y-62080500D01*
X126250500Y-62080500D01*
X126317539Y-62100185D01*
X126363294Y-62152989D01*
X126374500Y-62204500D01*
X126374500Y-62801312D01*
X126354815Y-62868351D01*
X126342650Y-62884284D01*
X126267466Y-62967784D01*
X126172821Y-63131715D01*
X126172818Y-63131722D01*
X126120699Y-63292130D01*
X126114326Y-63311744D01*
X126094540Y-63500000D01*
X126114326Y-63688256D01*
X126114327Y-63688259D01*
X126172818Y-63868277D01*
X126172819Y-63868279D01*
X126172821Y-63868284D01*
X126267467Y-64032216D01*
X126373808Y-64150319D01*
X126394129Y-64172888D01*
X126547265Y-64284148D01*
X126547270Y-64284151D01*
X126720192Y-64361142D01*
X126720197Y-64361144D01*
X126905354Y-64400500D01*
X126905355Y-64400500D01*
X127094644Y-64400500D01*
X127094646Y-64400500D01*
X127279803Y-64361144D01*
X127452730Y-64284151D01*
X127605871Y-64172888D01*
X127608470Y-64170002D01*
X128374938Y-64170002D01*
X128395121Y-64349138D01*
X128395122Y-64349141D01*
X128454662Y-64519298D01*
X128454667Y-64519308D01*
X128463338Y-64533108D01*
X128826446Y-64170000D01*
X129024709Y-64170000D01*
X129045514Y-64247645D01*
X129102355Y-64304486D01*
X129160254Y-64320000D01*
X129199746Y-64320000D01*
X129257645Y-64304486D01*
X129314486Y-64247646D01*
X129335291Y-64170000D01*
X129335291Y-64169999D01*
X129533553Y-64169999D01*
X129867500Y-64503946D01*
X130201446Y-64170000D01*
X130399709Y-64170000D01*
X130420514Y-64247645D01*
X130477355Y-64304486D01*
X130535254Y-64320000D01*
X130574746Y-64320000D01*
X130632645Y-64304486D01*
X130689486Y-64247646D01*
X130710291Y-64170000D01*
X130710291Y-64169999D01*
X130933553Y-64169999D01*
X131279999Y-64516447D01*
X131280000Y-64516447D01*
X131626446Y-64170000D01*
X131824709Y-64170000D01*
X131845514Y-64247645D01*
X131902355Y-64304486D01*
X131960254Y-64320000D01*
X131999746Y-64320000D01*
X132057645Y-64304486D01*
X132114486Y-64247646D01*
X132135291Y-64170000D01*
X132135291Y-64169999D01*
X132333553Y-64169999D01*
X132696660Y-64533107D01*
X132696661Y-64533107D01*
X132705333Y-64519307D01*
X132764878Y-64349138D01*
X132785062Y-64170002D01*
X132785062Y-64169997D01*
X132764878Y-63990861D01*
X132764877Y-63990858D01*
X132705337Y-63820701D01*
X132705335Y-63820697D01*
X132696660Y-63806891D01*
X132333553Y-64169999D01*
X132135291Y-64169999D01*
X132114486Y-64092355D01*
X132057645Y-64035514D01*
X131999746Y-64020000D01*
X131960254Y-64020000D01*
X131902355Y-64035514D01*
X131845514Y-64092354D01*
X131824709Y-64170000D01*
X131626446Y-64170000D01*
X131626447Y-64169999D01*
X131280001Y-63823553D01*
X131280000Y-63823553D01*
X130933553Y-64169998D01*
X130933553Y-64169999D01*
X130710291Y-64169999D01*
X130689486Y-64092355D01*
X130632645Y-64035514D01*
X130574746Y-64020000D01*
X130535254Y-64020000D01*
X130477355Y-64035514D01*
X130420514Y-64092354D01*
X130399709Y-64170000D01*
X130201446Y-64170000D01*
X130201447Y-64169999D01*
X129867500Y-63836052D01*
X129533553Y-64169998D01*
X129533553Y-64169999D01*
X129335291Y-64169999D01*
X129314486Y-64092355D01*
X129257645Y-64035514D01*
X129199746Y-64020000D01*
X129160254Y-64020000D01*
X129102355Y-64035514D01*
X129045514Y-64092354D01*
X129024709Y-64170000D01*
X128826446Y-64170000D01*
X128826447Y-64169999D01*
X128826447Y-64169998D01*
X128463339Y-63806890D01*
X128463338Y-63806891D01*
X128454664Y-63820696D01*
X128395122Y-63990858D01*
X128395121Y-63990861D01*
X128374938Y-64169997D01*
X128374938Y-64170002D01*
X127608470Y-64170002D01*
X127732533Y-64032216D01*
X127827179Y-63868284D01*
X127885674Y-63688256D01*
X127905460Y-63500000D01*
X127885674Y-63311744D01*
X127860849Y-63235341D01*
X127847033Y-63192818D01*
X127845038Y-63122977D01*
X127881119Y-63063144D01*
X127943820Y-63032316D01*
X127964964Y-63030500D01*
X129011463Y-63030500D01*
X129078502Y-63050185D01*
X129124257Y-63102989D01*
X129134201Y-63172147D01*
X129128505Y-63195454D01*
X129095119Y-63290866D01*
X129094939Y-63291656D01*
X129094682Y-63292113D01*
X129092823Y-63297429D01*
X129091891Y-63297103D01*
X129060824Y-63352631D01*
X129007125Y-63381952D01*
X129007430Y-63382823D01*
X129002143Y-63384672D01*
X129001656Y-63384939D01*
X129000869Y-63385118D01*
X128830695Y-63444665D01*
X128816891Y-63453338D01*
X128816890Y-63453339D01*
X129179998Y-63816447D01*
X129179999Y-63816447D01*
X129526447Y-63470000D01*
X129724709Y-63470000D01*
X129745514Y-63547645D01*
X129802355Y-63604486D01*
X129860254Y-63620000D01*
X129899746Y-63620000D01*
X129957645Y-63604486D01*
X130014486Y-63547646D01*
X130035291Y-63470000D01*
X130014486Y-63392355D01*
X129957645Y-63335514D01*
X129899746Y-63320000D01*
X129860254Y-63320000D01*
X129802355Y-63335514D01*
X129745514Y-63392354D01*
X129724709Y-63470000D01*
X129526447Y-63470000D01*
X129597193Y-63399254D01*
X129792318Y-63204128D01*
X129853641Y-63170643D01*
X129923332Y-63175627D01*
X129967680Y-63204128D01*
X130567498Y-63803947D01*
X130567499Y-63803947D01*
X130901446Y-63470000D01*
X131124709Y-63470000D01*
X131145514Y-63547645D01*
X131202355Y-63604486D01*
X131260254Y-63620000D01*
X131299746Y-63620000D01*
X131357645Y-63604486D01*
X131414486Y-63547646D01*
X131435291Y-63470000D01*
X131633551Y-63470000D01*
X131980000Y-63816447D01*
X131980001Y-63816447D01*
X132343108Y-63453338D01*
X132343108Y-63453337D01*
X132329308Y-63444667D01*
X132329298Y-63444662D01*
X132159137Y-63385120D01*
X132158346Y-63384940D01*
X132157886Y-63384683D01*
X132152571Y-63382823D01*
X132152896Y-63381891D01*
X132097370Y-63350827D01*
X132068049Y-63297124D01*
X132067177Y-63297430D01*
X132065322Y-63292130D01*
X132065057Y-63291644D01*
X132064878Y-63290859D01*
X132005337Y-63120701D01*
X132005335Y-63120697D01*
X131996660Y-63106891D01*
X131633551Y-63470000D01*
X131435291Y-63470000D01*
X131414486Y-63392355D01*
X131357645Y-63335514D01*
X131299746Y-63320000D01*
X131260254Y-63320000D01*
X131202355Y-63335514D01*
X131145514Y-63392354D01*
X131124709Y-63470000D01*
X130901446Y-63470000D01*
X130923375Y-63448071D01*
X130978446Y-63417999D01*
X131279999Y-63116447D01*
X131519108Y-62877336D01*
X131580431Y-62843851D01*
X131591246Y-62841995D01*
X131601792Y-62840664D01*
X131645122Y-62823507D01*
X131650646Y-62821617D01*
X131654396Y-62820527D01*
X131695390Y-62808618D01*
X131712629Y-62798422D01*
X131730103Y-62789862D01*
X131748727Y-62782488D01*
X131748727Y-62782487D01*
X131748732Y-62782486D01*
X131786449Y-62755082D01*
X131791305Y-62751892D01*
X131831420Y-62728170D01*
X131845589Y-62713999D01*
X131860379Y-62701368D01*
X131876587Y-62689594D01*
X131906299Y-62653676D01*
X131910212Y-62649376D01*
X132972820Y-61586768D01*
X133034142Y-61553285D01*
X133103834Y-61558269D01*
X133159767Y-61600141D01*
X133184184Y-61665605D01*
X133184500Y-61674451D01*
X133184500Y-61915701D01*
X133187401Y-61952567D01*
X133187402Y-61952573D01*
X133233254Y-62110393D01*
X133233255Y-62110396D01*
X133316917Y-62251862D01*
X133316923Y-62251870D01*
X133433129Y-62368076D01*
X133433133Y-62368079D01*
X133433135Y-62368081D01*
X133574602Y-62451744D01*
X133578584Y-62452901D01*
X133582552Y-62454054D01*
X133641437Y-62491661D01*
X133670642Y-62555134D01*
X133660895Y-62624321D01*
X133615290Y-62677255D01*
X133598392Y-62686409D01*
X133532267Y-62715850D01*
X133532265Y-62715851D01*
X133379129Y-62827111D01*
X133252466Y-62967785D01*
X133157821Y-63131715D01*
X133157818Y-63131722D01*
X133105699Y-63292130D01*
X133099326Y-63311744D01*
X133079540Y-63500000D01*
X133099326Y-63688256D01*
X133099327Y-63688259D01*
X133157818Y-63868277D01*
X133157819Y-63868279D01*
X133157821Y-63868284D01*
X133167887Y-63885720D01*
X133184500Y-63947718D01*
X133184500Y-65930046D01*
X133184499Y-66927059D01*
X133164814Y-66994099D01*
X133148180Y-67014740D01*
X132594739Y-67568181D01*
X132533416Y-67601666D01*
X132507059Y-67604500D01*
X132365831Y-67604500D01*
X132365812Y-67604501D01*
X132264747Y-67614825D01*
X132100984Y-67669092D01*
X132100981Y-67669093D01*
X131954148Y-67759661D01*
X131939825Y-67773984D01*
X131878501Y-67807468D01*
X131808809Y-67802482D01*
X131764465Y-67773982D01*
X131750538Y-67760055D01*
X131750534Y-67760052D01*
X131603811Y-67669551D01*
X131603800Y-67669546D01*
X131440152Y-67615319D01*
X131339154Y-67605000D01*
X131240000Y-67605000D01*
X131240000Y-68706000D01*
X131220315Y-68773039D01*
X131167511Y-68818794D01*
X131116000Y-68830000D01*
X129952501Y-68830000D01*
X129952501Y-68866654D01*
X129962819Y-68967652D01*
X130017046Y-69131300D01*
X130017051Y-69131311D01*
X130107552Y-69278034D01*
X130107555Y-69278038D01*
X130229461Y-69399944D01*
X130229465Y-69399947D01*
X130247786Y-69411248D01*
X130294511Y-69463196D01*
X130305732Y-69532158D01*
X130277889Y-69596240D01*
X130247786Y-69622324D01*
X130179153Y-69664657D01*
X130179149Y-69664660D01*
X130057161Y-69786648D01*
X129966593Y-69933481D01*
X129966591Y-69933486D01*
X129965201Y-69937681D01*
X129927317Y-70052006D01*
X129887547Y-70109449D01*
X129823031Y-70136272D01*
X129809613Y-70137000D01*
X128975847Y-70137000D01*
X128952615Y-70134804D01*
X128944588Y-70133273D01*
X128944586Y-70133273D01*
X128935633Y-70133836D01*
X128887275Y-70136878D01*
X128883403Y-70137000D01*
X126037191Y-70137000D01*
X125970152Y-70117315D01*
X125931652Y-70078096D01*
X125915341Y-70051652D01*
X125915340Y-70051650D01*
X125801369Y-69937679D01*
X125767886Y-69876357D01*
X125772870Y-69806665D01*
X125801367Y-69762322D01*
X125915340Y-69648350D01*
X126005908Y-69501516D01*
X126060174Y-69337753D01*
X126070500Y-69236677D01*
X126070499Y-68859645D01*
X126090183Y-68792607D01*
X126142987Y-68746852D01*
X126144065Y-68746366D01*
X126164881Y-68737097D01*
X126182730Y-68729151D01*
X126335871Y-68617888D01*
X126462533Y-68477216D01*
X126547528Y-68330000D01*
X129952500Y-68330000D01*
X130740000Y-68330000D01*
X130740000Y-67604999D01*
X130640860Y-67605000D01*
X130640844Y-67605001D01*
X130539847Y-67615319D01*
X130376199Y-67669546D01*
X130376188Y-67669551D01*
X130229465Y-67760052D01*
X130229461Y-67760055D01*
X130107555Y-67881961D01*
X130107552Y-67881965D01*
X130017051Y-68028688D01*
X130017046Y-68028699D01*
X129962819Y-68192347D01*
X129952500Y-68293345D01*
X129952500Y-68330000D01*
X126547528Y-68330000D01*
X126557179Y-68313284D01*
X126615674Y-68133256D01*
X126635460Y-67945000D01*
X126615674Y-67756744D01*
X126561112Y-67588823D01*
X126557181Y-67576722D01*
X126557180Y-67576721D01*
X126557179Y-67576716D01*
X126462533Y-67412784D01*
X126335871Y-67272112D01*
X126335870Y-67272111D01*
X126182734Y-67160851D01*
X126182729Y-67160848D01*
X126144063Y-67143633D01*
X126090826Y-67098383D01*
X126070505Y-67031533D01*
X126070499Y-67030354D01*
X126070499Y-66986660D01*
X129516891Y-66986660D01*
X129530697Y-66995335D01*
X129530701Y-66995337D01*
X129700858Y-67054877D01*
X129700861Y-67054878D01*
X129879997Y-67075062D01*
X129880003Y-67075062D01*
X130059138Y-67054878D01*
X130229307Y-66995333D01*
X130243107Y-66986661D01*
X130243107Y-66986660D01*
X130916891Y-66986660D01*
X130930697Y-66995335D01*
X130930701Y-66995337D01*
X131100858Y-67054877D01*
X131100861Y-67054878D01*
X131279997Y-67075062D01*
X131280003Y-67075062D01*
X131459138Y-67054878D01*
X131629307Y-66995333D01*
X131643107Y-66986661D01*
X131643107Y-66986660D01*
X131280001Y-66623553D01*
X131280000Y-66623553D01*
X130916891Y-66986660D01*
X130243107Y-66986660D01*
X129880001Y-66623553D01*
X129880000Y-66623553D01*
X129516891Y-66986660D01*
X126070499Y-66986660D01*
X126070499Y-66653330D01*
X126070498Y-66653313D01*
X126060174Y-66552247D01*
X126060173Y-66552247D01*
X126005908Y-66388484D01*
X125943102Y-66286660D01*
X128816891Y-66286660D01*
X128830697Y-66295335D01*
X128830701Y-66295337D01*
X129000859Y-66354878D01*
X129001644Y-66355057D01*
X129002099Y-66355311D01*
X129007430Y-66357177D01*
X129007103Y-66358110D01*
X129062623Y-66389166D01*
X129091952Y-66442875D01*
X129092823Y-66442571D01*
X129094672Y-66447855D01*
X129094940Y-66448346D01*
X129095120Y-66449137D01*
X129154662Y-66619298D01*
X129154667Y-66619308D01*
X129163338Y-66633108D01*
X129526447Y-66270000D01*
X129724709Y-66270000D01*
X129745514Y-66347645D01*
X129802355Y-66404486D01*
X129860254Y-66420000D01*
X129899746Y-66420000D01*
X129957645Y-66404486D01*
X130014486Y-66347646D01*
X130035291Y-66270001D01*
X130233552Y-66270001D01*
X130579998Y-66616447D01*
X130579999Y-66616447D01*
X130913946Y-66282499D01*
X130901447Y-66270000D01*
X131124709Y-66270000D01*
X131145514Y-66347645D01*
X131202355Y-66404486D01*
X131260254Y-66420000D01*
X131299746Y-66420000D01*
X131357645Y-66404486D01*
X131414486Y-66347646D01*
X131435291Y-66270000D01*
X131633552Y-66270000D01*
X131996660Y-66633107D01*
X131996661Y-66633107D01*
X132005333Y-66619307D01*
X132064877Y-66449141D01*
X132065056Y-66448358D01*
X132065310Y-66447902D01*
X132067177Y-66442569D01*
X132068111Y-66442895D01*
X132099164Y-66387379D01*
X132152874Y-66358050D01*
X132152569Y-66357177D01*
X132157871Y-66355321D01*
X132158358Y-66355056D01*
X132159141Y-66354877D01*
X132329307Y-66295333D01*
X132343107Y-66286661D01*
X132343107Y-66286660D01*
X131980001Y-65923553D01*
X131980000Y-65923553D01*
X131633552Y-66270000D01*
X131435291Y-66270000D01*
X131414486Y-66192355D01*
X131357645Y-66135514D01*
X131299746Y-66120000D01*
X131260254Y-66120000D01*
X131202355Y-66135514D01*
X131145514Y-66192354D01*
X131124709Y-66270000D01*
X130901447Y-66270000D01*
X130567498Y-65936053D01*
X130233553Y-66269998D01*
X130233552Y-66270001D01*
X130035291Y-66270001D01*
X130035291Y-66270000D01*
X130014486Y-66192355D01*
X129957645Y-66135514D01*
X129899746Y-66120000D01*
X129860254Y-66120000D01*
X129802355Y-66135514D01*
X129745514Y-66192354D01*
X129724709Y-66270000D01*
X129526447Y-66270000D01*
X129526447Y-66269999D01*
X129180001Y-65923553D01*
X129180000Y-65923553D01*
X128816891Y-66286660D01*
X125943102Y-66286660D01*
X125915340Y-66241650D01*
X125801016Y-66127326D01*
X125767532Y-66066004D01*
X125772516Y-65996312D01*
X125801017Y-65951964D01*
X125914948Y-65838033D01*
X126005448Y-65691311D01*
X126005453Y-65691300D01*
X126045647Y-65570002D01*
X128374938Y-65570002D01*
X128395121Y-65749138D01*
X128395122Y-65749141D01*
X128454662Y-65919298D01*
X128454667Y-65919308D01*
X128463338Y-65933108D01*
X128826446Y-65570000D01*
X129024709Y-65570000D01*
X129045514Y-65647645D01*
X129102355Y-65704486D01*
X129160254Y-65720000D01*
X129199746Y-65720000D01*
X129257645Y-65704486D01*
X129314486Y-65647646D01*
X129335291Y-65570000D01*
X129534442Y-65570000D01*
X129867542Y-65903903D01*
X130201446Y-65570000D01*
X130399709Y-65570000D01*
X130420514Y-65647645D01*
X130477355Y-65704486D01*
X130535254Y-65720000D01*
X130574746Y-65720000D01*
X130632645Y-65704486D01*
X130689486Y-65647646D01*
X130710291Y-65570000D01*
X130710291Y-65569999D01*
X130933553Y-65569999D01*
X131279999Y-65916447D01*
X131280000Y-65916447D01*
X131626446Y-65570000D01*
X131824709Y-65570000D01*
X131845514Y-65647645D01*
X131902355Y-65704486D01*
X131960254Y-65720000D01*
X131999746Y-65720000D01*
X132057645Y-65704486D01*
X132114486Y-65647646D01*
X132135291Y-65570000D01*
X132135291Y-65569999D01*
X132333552Y-65569999D01*
X132696660Y-65933107D01*
X132696661Y-65933107D01*
X132705333Y-65919307D01*
X132764878Y-65749138D01*
X132785062Y-65570002D01*
X132785062Y-65569997D01*
X132764878Y-65390861D01*
X132764877Y-65390858D01*
X132705337Y-65220701D01*
X132705335Y-65220697D01*
X132696660Y-65206891D01*
X132333552Y-65569999D01*
X132135291Y-65569999D01*
X132114486Y-65492355D01*
X132057645Y-65435514D01*
X131999746Y-65420000D01*
X131960254Y-65420000D01*
X131902355Y-65435514D01*
X131845514Y-65492354D01*
X131824709Y-65570000D01*
X131626446Y-65570000D01*
X131626447Y-65569999D01*
X131280001Y-65223553D01*
X131280000Y-65223553D01*
X130933553Y-65569998D01*
X130933553Y-65569999D01*
X130710291Y-65569999D01*
X130689486Y-65492355D01*
X130632645Y-65435514D01*
X130574746Y-65420000D01*
X130535254Y-65420000D01*
X130477355Y-65435514D01*
X130420514Y-65492354D01*
X130399709Y-65570000D01*
X130201446Y-65570000D01*
X130201447Y-65569999D01*
X129867543Y-65236095D01*
X129534442Y-65570000D01*
X129335291Y-65570000D01*
X129314486Y-65492355D01*
X129257645Y-65435514D01*
X129199746Y-65420000D01*
X129160254Y-65420000D01*
X129102355Y-65435514D01*
X129045514Y-65492354D01*
X129024709Y-65570000D01*
X128826446Y-65570000D01*
X128826447Y-65569999D01*
X128826447Y-65569998D01*
X128463339Y-65206890D01*
X128463338Y-65206891D01*
X128454664Y-65220696D01*
X128395122Y-65390858D01*
X128395121Y-65390861D01*
X128374938Y-65569997D01*
X128374938Y-65570002D01*
X126045647Y-65570002D01*
X126059680Y-65527652D01*
X126069999Y-65426654D01*
X126070000Y-65426641D01*
X126070000Y-65377500D01*
X124204000Y-65377500D01*
X124136961Y-65357815D01*
X124091206Y-65305011D01*
X124080000Y-65253500D01*
X124080000Y-65187500D01*
X123440000Y-65187500D01*
X123440000Y-66224999D01*
X123664972Y-66224999D01*
X123664986Y-66224998D01*
X123767697Y-66214505D01*
X123934119Y-66159358D01*
X123934124Y-66159356D01*
X124083342Y-66067317D01*
X124206157Y-65944502D01*
X124267480Y-65911017D01*
X124337172Y-65916001D01*
X124381526Y-65944508D01*
X124388988Y-65951971D01*
X124422469Y-66013296D01*
X124417480Y-66082987D01*
X124388983Y-66127327D01*
X124274659Y-66241651D01*
X124184093Y-66388481D01*
X124184091Y-66388486D01*
X124164252Y-66448358D01*
X124129826Y-66552247D01*
X124129826Y-66552248D01*
X124129825Y-66552248D01*
X124119500Y-66653315D01*
X124119500Y-67251669D01*
X124119501Y-67251687D01*
X124129825Y-67352752D01*
X124161255Y-67447598D01*
X124184092Y-67516516D01*
X124238669Y-67605000D01*
X124274661Y-67663351D01*
X124396649Y-67785339D01*
X124396653Y-67785342D01*
X124407132Y-67791806D01*
X124453857Y-67843754D01*
X124464344Y-67897685D01*
X124465283Y-67897626D01*
X124465737Y-67904844D01*
X124465791Y-67905121D01*
X124465772Y-67905410D01*
X124467719Y-67936352D01*
X124469378Y-67962724D01*
X124469500Y-67966595D01*
X124469500Y-67990518D01*
X124449815Y-68057557D01*
X124410600Y-68096055D01*
X124396650Y-68104660D01*
X124396649Y-68104660D01*
X124274661Y-68226648D01*
X124184093Y-68373481D01*
X124184091Y-68373484D01*
X124184092Y-68373484D01*
X124129826Y-68537247D01*
X124129826Y-68537248D01*
X124129825Y-68537248D01*
X124119500Y-68638315D01*
X124119500Y-69236669D01*
X124119501Y-69236687D01*
X124129825Y-69337752D01*
X124164496Y-69442381D01*
X124181710Y-69494329D01*
X124184092Y-69501515D01*
X124184093Y-69501518D01*
X124205477Y-69536187D01*
X124249529Y-69607607D01*
X124274661Y-69648351D01*
X124388629Y-69762319D01*
X124422114Y-69823642D01*
X124417130Y-69893334D01*
X124388629Y-69937681D01*
X124274661Y-70051648D01*
X124184093Y-70198481D01*
X124184091Y-70198486D01*
X124157411Y-70279000D01*
X124129826Y-70362247D01*
X124129826Y-70362248D01*
X124129825Y-70362248D01*
X124119500Y-70463315D01*
X124119500Y-71061669D01*
X124119501Y-71061687D01*
X124129825Y-71162752D01*
X124149718Y-71222784D01*
X124184092Y-71326516D01*
X124274660Y-71473350D01*
X124396650Y-71595340D01*
X124543484Y-71685908D01*
X124707247Y-71740174D01*
X124808323Y-71750500D01*
X125381676Y-71750499D01*
X125381684Y-71750498D01*
X125381687Y-71750498D01*
X125437030Y-71744844D01*
X125482753Y-71740174D01*
X125646516Y-71685908D01*
X125793350Y-71595340D01*
X125915340Y-71473350D01*
X125931651Y-71446904D01*
X125983600Y-71400179D01*
X126037191Y-71388000D01*
X128155500Y-71388000D01*
X128222539Y-71407685D01*
X128268294Y-71460489D01*
X128279500Y-71512000D01*
X128279500Y-76225812D01*
X128259815Y-76292851D01*
X128247650Y-76308784D01*
X128172466Y-76392285D01*
X128076438Y-76558611D01*
X128025871Y-76606827D01*
X127957264Y-76620050D01*
X127892399Y-76594082D01*
X127881370Y-76584292D01*
X126281693Y-74984615D01*
X126281691Y-74984612D01*
X126264252Y-74967173D01*
X126232262Y-74935184D01*
X126232259Y-74935182D01*
X126232258Y-74935181D01*
X126196904Y-74912966D01*
X126191229Y-74908940D01*
X126158589Y-74882910D01*
X126120959Y-74864787D01*
X126114872Y-74861422D01*
X126079525Y-74839212D01*
X126040114Y-74825421D01*
X126033688Y-74822759D01*
X125996061Y-74804639D01*
X125986902Y-74802549D01*
X125925925Y-74768438D01*
X125893069Y-74706775D01*
X125890499Y-74681659D01*
X125890499Y-74257111D01*
X125890499Y-73687128D01*
X125884091Y-73627517D01*
X125877884Y-73610876D01*
X125833797Y-73492671D01*
X125833793Y-73492664D01*
X125747547Y-73377455D01*
X125747544Y-73377452D01*
X125632335Y-73291206D01*
X125632328Y-73291202D01*
X125497482Y-73240908D01*
X125497483Y-73240908D01*
X125437883Y-73234501D01*
X125437881Y-73234500D01*
X125437873Y-73234500D01*
X125437864Y-73234500D01*
X123742129Y-73234500D01*
X123742123Y-73234501D01*
X123682516Y-73240908D01*
X123547671Y-73291202D01*
X123547664Y-73291206D01*
X123432455Y-73377452D01*
X123432452Y-73377455D01*
X123346206Y-73492664D01*
X123346202Y-73492671D01*
X123306182Y-73599972D01*
X123264311Y-73655906D01*
X123198846Y-73680323D01*
X123130573Y-73665471D01*
X123081168Y-73616066D01*
X123073818Y-73599972D01*
X123033797Y-73492671D01*
X123033793Y-73492664D01*
X122947547Y-73377455D01*
X122947544Y-73377452D01*
X122832335Y-73291206D01*
X122832328Y-73291202D01*
X122697482Y-73240908D01*
X122697483Y-73240908D01*
X122637883Y-73234501D01*
X122637881Y-73234500D01*
X122637873Y-73234500D01*
X122637864Y-73234500D01*
X120942129Y-73234500D01*
X120942123Y-73234501D01*
X120882516Y-73240908D01*
X120747671Y-73291202D01*
X120747668Y-73291204D01*
X120698311Y-73328153D01*
X120632846Y-73352570D01*
X120564573Y-73337718D01*
X120515168Y-73288313D01*
X120500000Y-73228886D01*
X120500000Y-65187500D01*
X122015001Y-65187500D01*
X122015001Y-65524986D01*
X122025494Y-65627697D01*
X122080641Y-65794119D01*
X122080643Y-65794124D01*
X122172684Y-65943345D01*
X122296654Y-66067315D01*
X122445875Y-66159356D01*
X122445880Y-66159358D01*
X122612302Y-66214505D01*
X122612309Y-66214506D01*
X122715019Y-66224999D01*
X122939999Y-66224999D01*
X122940000Y-66224998D01*
X122940000Y-65187500D01*
X122015001Y-65187500D01*
X120500000Y-65187500D01*
X120500000Y-64687500D01*
X122015000Y-64687500D01*
X122939999Y-64687500D01*
X122939999Y-63650000D01*
X123440000Y-63650000D01*
X123440000Y-64687500D01*
X124281000Y-64687500D01*
X124348039Y-64707185D01*
X124393794Y-64759989D01*
X124405000Y-64811500D01*
X124405000Y-64877500D01*
X124845000Y-64877500D01*
X124844999Y-64140000D01*
X125345000Y-64140000D01*
X125345000Y-64877500D01*
X126069999Y-64877500D01*
X126069999Y-64870000D01*
X128833552Y-64870000D01*
X129179998Y-65216447D01*
X129179999Y-65216447D01*
X129526446Y-64870000D01*
X129724709Y-64870000D01*
X129745514Y-64947645D01*
X129802355Y-65004486D01*
X129860254Y-65020000D01*
X129899746Y-65020000D01*
X129957645Y-65004486D01*
X130014486Y-64947646D01*
X130035291Y-64870000D01*
X130233553Y-64870000D01*
X130567498Y-65203947D01*
X130567499Y-65203947D01*
X130901446Y-64870000D01*
X131124709Y-64870000D01*
X131145514Y-64947645D01*
X131202355Y-65004486D01*
X131260254Y-65020000D01*
X131299746Y-65020000D01*
X131357645Y-65004486D01*
X131414486Y-64947646D01*
X131435291Y-64870000D01*
X131633552Y-64870000D01*
X131980000Y-65216447D01*
X131980001Y-65216447D01*
X132326446Y-64870000D01*
X132326446Y-64869999D01*
X131980001Y-64523553D01*
X131980000Y-64523553D01*
X131633552Y-64869999D01*
X131633552Y-64870000D01*
X131435291Y-64870000D01*
X131414486Y-64792355D01*
X131357645Y-64735514D01*
X131299746Y-64720000D01*
X131260254Y-64720000D01*
X131202355Y-64735514D01*
X131145514Y-64792354D01*
X131124709Y-64870000D01*
X130901446Y-64870000D01*
X130567499Y-64536053D01*
X130567498Y-64536053D01*
X130233553Y-64869999D01*
X130233553Y-64870000D01*
X130035291Y-64870000D01*
X130014486Y-64792355D01*
X129957645Y-64735514D01*
X129899746Y-64720000D01*
X129860254Y-64720000D01*
X129802355Y-64735514D01*
X129745514Y-64792354D01*
X129724709Y-64870000D01*
X129526446Y-64870000D01*
X129526445Y-64869999D01*
X129180001Y-64523553D01*
X129180000Y-64523553D01*
X128833552Y-64870000D01*
X126069999Y-64870000D01*
X126069999Y-64828360D01*
X126069998Y-64828345D01*
X126059680Y-64727347D01*
X126005453Y-64563699D01*
X126005448Y-64563688D01*
X125914947Y-64416965D01*
X125914944Y-64416961D01*
X125793038Y-64295055D01*
X125793034Y-64295052D01*
X125646311Y-64204551D01*
X125646300Y-64204546D01*
X125482652Y-64150319D01*
X125381654Y-64140000D01*
X125345000Y-64140000D01*
X124844999Y-64140000D01*
X124808361Y-64140000D01*
X124808343Y-64140001D01*
X124707347Y-64150319D01*
X124543699Y-64204546D01*
X124543690Y-64204550D01*
X124508322Y-64226366D01*
X124440930Y-64244806D01*
X124374266Y-64223883D01*
X124329497Y-64170241D01*
X124325520Y-64159831D01*
X124299358Y-64080880D01*
X124299356Y-64080875D01*
X124207315Y-63931654D01*
X124083345Y-63807684D01*
X123934124Y-63715643D01*
X123934119Y-63715641D01*
X123767697Y-63660494D01*
X123767690Y-63660493D01*
X123664986Y-63650000D01*
X123440000Y-63650000D01*
X122939999Y-63650000D01*
X122715029Y-63650000D01*
X122715012Y-63650001D01*
X122612302Y-63660494D01*
X122445880Y-63715641D01*
X122445875Y-63715643D01*
X122296654Y-63807684D01*
X122172684Y-63931654D01*
X122080643Y-64080875D01*
X122080641Y-64080880D01*
X122025494Y-64247302D01*
X122025493Y-64247309D01*
X122015000Y-64350013D01*
X122015000Y-64687500D01*
X120500000Y-64687500D01*
X120500000Y-56124000D01*
X120519685Y-56056961D01*
X120572489Y-56011206D01*
X120624000Y-56000000D01*
X127450691Y-56000000D01*
X127517730Y-56019685D01*
G37*
%TD.AperFunction*%
%TA.AperFunction,Conductor*%
G36*
X138623039Y-70174685D02*
G01*
X138668794Y-70227489D01*
X138680000Y-70279000D01*
X138680000Y-71392499D01*
X138716640Y-71392499D01*
X138716654Y-71392498D01*
X138817652Y-71382180D01*
X138911496Y-71351084D01*
X138981324Y-71348682D01*
X139041366Y-71384414D01*
X139072559Y-71446934D01*
X139074500Y-71468790D01*
X139074500Y-72420500D01*
X139054815Y-72487539D01*
X139002011Y-72533294D01*
X138950500Y-72544500D01*
X138084500Y-72544500D01*
X138017461Y-72524815D01*
X137971706Y-72472011D01*
X137960500Y-72420500D01*
X137960500Y-72202718D01*
X137977112Y-72140720D01*
X137987179Y-72123284D01*
X138045674Y-71943256D01*
X138065460Y-71755000D01*
X138045674Y-71566744D01*
X138041798Y-71554817D01*
X138039802Y-71484980D01*
X138075880Y-71425146D01*
X138138580Y-71394316D01*
X138159727Y-71392499D01*
X138180000Y-71392498D01*
X138180000Y-70279000D01*
X138199685Y-70211961D01*
X138252489Y-70166206D01*
X138304000Y-70155000D01*
X138556000Y-70155000D01*
X138623039Y-70174685D01*
G37*
%TD.AperFunction*%
%TA.AperFunction,Conductor*%
G36*
X138769436Y-60544126D02*
G01*
X138785197Y-60551144D01*
X138970354Y-60590500D01*
X139029548Y-60590500D01*
X139096587Y-60610185D01*
X139117229Y-60626819D01*
X139673181Y-61182771D01*
X139706666Y-61244094D01*
X139709500Y-61270452D01*
X139709500Y-62611814D01*
X139689815Y-62678853D01*
X139637011Y-62724608D01*
X139567853Y-62734552D01*
X139524572Y-62717005D01*
X139523363Y-62719101D01*
X139517729Y-62715848D01*
X139344807Y-62638857D01*
X139344802Y-62638855D01*
X139199000Y-62607865D01*
X139159646Y-62599500D01*
X138970354Y-62599500D01*
X138937897Y-62606398D01*
X138785197Y-62638855D01*
X138785192Y-62638857D01*
X138612270Y-62715848D01*
X138612265Y-62715851D01*
X138459129Y-62827111D01*
X138332466Y-62967785D01*
X138237821Y-63131715D01*
X138237818Y-63131722D01*
X138185699Y-63292130D01*
X138179326Y-63311744D01*
X138159540Y-63500000D01*
X138179326Y-63688256D01*
X138179327Y-63688259D01*
X138237818Y-63868277D01*
X138237819Y-63868279D01*
X138237821Y-63868284D01*
X138332467Y-64032216D01*
X138438808Y-64150319D01*
X138459129Y-64172888D01*
X138612265Y-64284148D01*
X138612270Y-64284151D01*
X138785192Y-64361142D01*
X138785193Y-64361142D01*
X138785197Y-64361144D01*
X138970354Y-64400500D01*
X138970357Y-64400500D01*
X138976280Y-64401759D01*
X139037762Y-64434951D01*
X139071539Y-64496114D01*
X139074500Y-64523049D01*
X139074500Y-67515683D01*
X139054815Y-67582722D01*
X139002011Y-67628477D01*
X138932853Y-67638421D01*
X138911497Y-67633389D01*
X138817755Y-67602326D01*
X138817751Y-67602325D01*
X138716684Y-67592000D01*
X138716677Y-67592000D01*
X138544500Y-67592000D01*
X138477461Y-67572315D01*
X138431706Y-67519511D01*
X138420500Y-67468000D01*
X138420500Y-67295808D01*
X138440185Y-67228769D01*
X138456817Y-67208128D01*
X138463081Y-67201865D01*
X138546744Y-67060398D01*
X138592598Y-66902569D01*
X138595500Y-66865694D01*
X138595500Y-65084306D01*
X138592598Y-65047431D01*
X138584628Y-65020000D01*
X138546745Y-64889606D01*
X138546744Y-64889603D01*
X138546744Y-64889602D01*
X138463081Y-64748135D01*
X138463079Y-64748133D01*
X138463076Y-64748129D01*
X138346870Y-64631923D01*
X138346862Y-64631917D01*
X138205396Y-64548255D01*
X138205393Y-64548254D01*
X138047573Y-64502402D01*
X138047567Y-64502401D01*
X138010701Y-64499500D01*
X138010694Y-64499500D01*
X137579306Y-64499500D01*
X137579298Y-64499500D01*
X137542432Y-64502401D01*
X137542426Y-64502402D01*
X137384606Y-64548254D01*
X137384603Y-64548255D01*
X137243137Y-64631917D01*
X137236969Y-64636702D01*
X137235072Y-64634256D01*
X137186358Y-64660857D01*
X137116666Y-64655873D01*
X137084296Y-64635069D01*
X137083031Y-64636702D01*
X137076862Y-64631917D01*
X136935396Y-64548255D01*
X136935393Y-64548254D01*
X136777573Y-64502402D01*
X136777567Y-64502401D01*
X136740701Y-64499500D01*
X136740694Y-64499500D01*
X136309306Y-64499500D01*
X136309298Y-64499500D01*
X136272432Y-64502401D01*
X136272426Y-64502402D01*
X136114606Y-64548254D01*
X136114605Y-64548254D01*
X136067620Y-64576041D01*
X135999896Y-64593222D01*
X135933634Y-64571062D01*
X135889871Y-64516596D01*
X135880500Y-64469308D01*
X135880500Y-64198687D01*
X135900185Y-64131648D01*
X135912350Y-64115715D01*
X135943715Y-64080880D01*
X135987533Y-64032216D01*
X136082179Y-63868284D01*
X136140674Y-63688256D01*
X136160460Y-63500000D01*
X136140674Y-63311744D01*
X136082179Y-63131716D01*
X135987533Y-62967784D01*
X135860871Y-62827112D01*
X135860870Y-62827111D01*
X135707734Y-62715851D01*
X135707729Y-62715848D01*
X135641608Y-62686409D01*
X135588371Y-62641159D01*
X135568050Y-62574309D01*
X135587096Y-62507086D01*
X135639462Y-62460831D01*
X135657449Y-62454054D01*
X135661910Y-62452757D01*
X135665398Y-62451744D01*
X135806865Y-62368081D01*
X135806870Y-62368076D01*
X135813026Y-62363301D01*
X135814927Y-62365752D01*
X135863579Y-62339154D01*
X135933274Y-62344103D01*
X135965700Y-62364942D01*
X135966974Y-62363301D01*
X135973139Y-62368084D01*
X136046353Y-62411382D01*
X136114602Y-62451744D01*
X136122553Y-62454054D01*
X136272426Y-62497597D01*
X136272429Y-62497597D01*
X136272431Y-62497598D01*
X136309306Y-62500500D01*
X136309314Y-62500500D01*
X136740686Y-62500500D01*
X136740694Y-62500500D01*
X136777569Y-62497598D01*
X136777571Y-62497597D01*
X136777573Y-62497597D01*
X136819191Y-62485505D01*
X136935398Y-62451744D01*
X137076865Y-62368081D01*
X137076870Y-62368076D01*
X137083026Y-62363301D01*
X137084839Y-62365638D01*
X137133949Y-62338798D01*
X137203643Y-62343756D01*
X137235996Y-62364551D01*
X137237278Y-62362900D01*
X137243447Y-62367685D01*
X137384801Y-62451281D01*
X137542514Y-62497100D01*
X137542511Y-62497100D01*
X137544998Y-62497295D01*
X137545000Y-62497295D01*
X137545000Y-61275000D01*
X138045000Y-61275000D01*
X138045000Y-62497295D01*
X138045001Y-62497295D01*
X138047486Y-62497100D01*
X138205198Y-62451281D01*
X138346552Y-62367685D01*
X138346561Y-62367678D01*
X138462678Y-62251561D01*
X138462685Y-62251552D01*
X138546282Y-62110196D01*
X138546283Y-62110193D01*
X138592099Y-61952495D01*
X138592100Y-61952489D01*
X138594999Y-61915649D01*
X138595000Y-61915634D01*
X138595000Y-61275000D01*
X138045000Y-61275000D01*
X137545000Y-61275000D01*
X137545000Y-60899000D01*
X137564685Y-60831961D01*
X137617489Y-60786206D01*
X137669000Y-60775000D01*
X138595000Y-60775000D01*
X138595000Y-60657406D01*
X138614685Y-60590367D01*
X138667489Y-60544612D01*
X138736647Y-60534668D01*
X138769436Y-60544126D01*
G37*
%TD.AperFunction*%
%TA.AperFunction,Conductor*%
G36*
X143443039Y-56019685D02*
G01*
X143488794Y-56072489D01*
X143500000Y-56124000D01*
X143500000Y-57295500D01*
X143480315Y-57362539D01*
X143427511Y-57408294D01*
X143376000Y-57419500D01*
X142327129Y-57419500D01*
X142327123Y-57419501D01*
X142267516Y-57425908D01*
X142132671Y-57476202D01*
X142132664Y-57476206D01*
X142017455Y-57562452D01*
X142017452Y-57562455D01*
X141931206Y-57677664D01*
X141931203Y-57677669D01*
X141917715Y-57713834D01*
X141875843Y-57769767D01*
X141810379Y-57794184D01*
X141801533Y-57794500D01*
X141280452Y-57794500D01*
X141213413Y-57774815D01*
X141192771Y-57758181D01*
X141021335Y-57586745D01*
X140835803Y-57401212D01*
X140825980Y-57388950D01*
X140825759Y-57389134D01*
X140820786Y-57383122D01*
X140771066Y-57336432D01*
X140769666Y-57335075D01*
X140749476Y-57314884D01*
X140743986Y-57310625D01*
X140739561Y-57306847D01*
X140705582Y-57274938D01*
X140705580Y-57274936D01*
X140705577Y-57274935D01*
X140688029Y-57265288D01*
X140671763Y-57254604D01*
X140655933Y-57242325D01*
X140613168Y-57223818D01*
X140607922Y-57221248D01*
X140567093Y-57198803D01*
X140567092Y-57198802D01*
X140547693Y-57193822D01*
X140529281Y-57187518D01*
X140510898Y-57179562D01*
X140510892Y-57179560D01*
X140464874Y-57172272D01*
X140459152Y-57171087D01*
X140414021Y-57159500D01*
X140414019Y-57159500D01*
X140393984Y-57159500D01*
X140374586Y-57157973D01*
X140367162Y-57156797D01*
X140354805Y-57154840D01*
X140354804Y-57154840D01*
X140308416Y-57159225D01*
X140302578Y-57159500D01*
X136354500Y-57159500D01*
X136287461Y-57139815D01*
X136241706Y-57087011D01*
X136230500Y-57035500D01*
X136230499Y-56573330D01*
X136230498Y-56573312D01*
X136220174Y-56472247D01*
X136188640Y-56377085D01*
X136165908Y-56308484D01*
X136092268Y-56189095D01*
X136073829Y-56121704D01*
X136094752Y-56055041D01*
X136148394Y-56010271D01*
X136197808Y-56000000D01*
X143376000Y-56000000D01*
X143443039Y-56019685D01*
G37*
%TD.AperFunction*%
M02*
