%TF.GenerationSoftware,KiCad,Pcbnew,7.0.1-0*%
%TF.CreationDate,2023-06-03T17:15:16+02:00*%
%TF.ProjectId,BatMon,4261744d-6f6e-42e6-9b69-6361645f7063,rev?*%
%TF.SameCoordinates,Original*%
%TF.FileFunction,Drillmap*%
%TF.FilePolarity,Positive*%
%FSLAX45Y45*%
G04 Gerber Fmt 4.5, Leading zero omitted, Abs format (unit mm)*
G04 Created by KiCad (PCBNEW 7.0.1-0) date 2023-06-03 17:15:16*
%MOMM*%
%LPD*%
G01*
G04 APERTURE LIST*
%ADD10C,0.100000*%
%ADD11C,0.200000*%
G04 APERTURE END LIST*
D10*
X14400000Y-5700000D02*
G75*
G03*
X14250000Y-5550000I-150000J0D01*
G01*
X14400000Y-8900000D02*
X14400000Y-8750000D01*
X12000000Y-8900000D02*
G75*
G03*
X12150000Y-9050000I150000J0D01*
G01*
X12150000Y-5550000D02*
G75*
G03*
X12000000Y-5700000I0J-150000D01*
G01*
X12150000Y-9050000D02*
X14250000Y-9050000D01*
X14250000Y-9050000D02*
G75*
G03*
X14400000Y-8900000I0J150000D01*
G01*
X14250000Y-5550000D02*
X12150000Y-5550000D01*
X14400000Y-7050000D02*
X14400000Y-5700000D01*
X12000000Y-5700000D02*
X12000000Y-8900000D01*
D11*
X12242619Y-9367524D02*
X12242619Y-9167524D01*
X12242619Y-9167524D02*
X12290238Y-9167524D01*
X12290238Y-9167524D02*
X12318809Y-9177048D01*
X12318809Y-9177048D02*
X12337857Y-9196095D01*
X12337857Y-9196095D02*
X12347381Y-9215143D01*
X12347381Y-9215143D02*
X12356905Y-9253238D01*
X12356905Y-9253238D02*
X12356905Y-9281810D01*
X12356905Y-9281810D02*
X12347381Y-9319905D01*
X12347381Y-9319905D02*
X12337857Y-9338952D01*
X12337857Y-9338952D02*
X12318809Y-9358000D01*
X12318809Y-9358000D02*
X12290238Y-9367524D01*
X12290238Y-9367524D02*
X12242619Y-9367524D01*
X12442619Y-9367524D02*
X12442619Y-9234190D01*
X12442619Y-9272286D02*
X12452143Y-9253238D01*
X12452143Y-9253238D02*
X12461667Y-9243714D01*
X12461667Y-9243714D02*
X12480714Y-9234190D01*
X12480714Y-9234190D02*
X12499762Y-9234190D01*
X12566428Y-9367524D02*
X12566428Y-9234190D01*
X12566428Y-9167524D02*
X12556905Y-9177048D01*
X12556905Y-9177048D02*
X12566428Y-9186571D01*
X12566428Y-9186571D02*
X12575952Y-9177048D01*
X12575952Y-9177048D02*
X12566428Y-9167524D01*
X12566428Y-9167524D02*
X12566428Y-9186571D01*
X12690238Y-9367524D02*
X12671190Y-9358000D01*
X12671190Y-9358000D02*
X12661667Y-9338952D01*
X12661667Y-9338952D02*
X12661667Y-9167524D01*
X12795000Y-9367524D02*
X12775952Y-9358000D01*
X12775952Y-9358000D02*
X12766428Y-9338952D01*
X12766428Y-9338952D02*
X12766428Y-9167524D01*
X13023571Y-9367524D02*
X13023571Y-9167524D01*
X13023571Y-9167524D02*
X13090238Y-9310381D01*
X13090238Y-9310381D02*
X13156905Y-9167524D01*
X13156905Y-9167524D02*
X13156905Y-9367524D01*
X13337857Y-9367524D02*
X13337857Y-9262762D01*
X13337857Y-9262762D02*
X13328333Y-9243714D01*
X13328333Y-9243714D02*
X13309286Y-9234190D01*
X13309286Y-9234190D02*
X13271190Y-9234190D01*
X13271190Y-9234190D02*
X13252143Y-9243714D01*
X13337857Y-9358000D02*
X13318809Y-9367524D01*
X13318809Y-9367524D02*
X13271190Y-9367524D01*
X13271190Y-9367524D02*
X13252143Y-9358000D01*
X13252143Y-9358000D02*
X13242619Y-9338952D01*
X13242619Y-9338952D02*
X13242619Y-9319905D01*
X13242619Y-9319905D02*
X13252143Y-9300857D01*
X13252143Y-9300857D02*
X13271190Y-9291333D01*
X13271190Y-9291333D02*
X13318809Y-9291333D01*
X13318809Y-9291333D02*
X13337857Y-9281810D01*
X13433095Y-9234190D02*
X13433095Y-9434190D01*
X13433095Y-9243714D02*
X13452143Y-9234190D01*
X13452143Y-9234190D02*
X13490238Y-9234190D01*
X13490238Y-9234190D02*
X13509286Y-9243714D01*
X13509286Y-9243714D02*
X13518809Y-9253238D01*
X13518809Y-9253238D02*
X13528333Y-9272286D01*
X13528333Y-9272286D02*
X13528333Y-9329429D01*
X13528333Y-9329429D02*
X13518809Y-9348476D01*
X13518809Y-9348476D02*
X13509286Y-9358000D01*
X13509286Y-9358000D02*
X13490238Y-9367524D01*
X13490238Y-9367524D02*
X13452143Y-9367524D01*
X13452143Y-9367524D02*
X13433095Y-9358000D01*
X13614048Y-9348476D02*
X13623571Y-9358000D01*
X13623571Y-9358000D02*
X13614048Y-9367524D01*
X13614048Y-9367524D02*
X13604524Y-9358000D01*
X13604524Y-9358000D02*
X13614048Y-9348476D01*
X13614048Y-9348476D02*
X13614048Y-9367524D01*
X13614048Y-9243714D02*
X13623571Y-9253238D01*
X13623571Y-9253238D02*
X13614048Y-9262762D01*
X13614048Y-9262762D02*
X13604524Y-9253238D01*
X13604524Y-9253238D02*
X13614048Y-9243714D01*
X13614048Y-9243714D02*
X13614048Y-9262762D01*
M02*
